<svg width="1395" height="506" viewBox="0 0 1395 506" fill="none" xmlns="http://www.w3.org/2000/svg">
<path fill-rule="evenodd" clip-rule="evenodd" d="M1220.04 205.12V244.64H1163.54V244.68C1151 243.99 1138.93 240.92 1127.64 235.53C1116.44 230.2 1106.51 222.83 1098.12 213.65C1089.72 204.47 1083.28 193.91 1078.96 182.29C1074.98 171.55 1072.99 160.33 1073 148.88C1073 136.43 1075.36 124.31 1080.02 112.81C1084.85 100.91 1091.94 90.22 1101.08 81.09C1110.23 71.94 1120.91 64.84 1132.81 60.02C1142.18 56.2102 1151.99 53.9445 1162.04 53.239C1164.31 53.0798 1166.58 53 1168.87 53C1168.87 53 1168.88 53 1168.88 53C1168.88 53 1168.89 53 1168.89 53C1178.67 53 1188.08 54.4252 1197.18 57.2464C1199.8 58.0557 1202.39 58.9804 1204.95 60.02C1216.85 64.84 1227.53 71.94 1236.68 81.09C1245.82 90.22 1252.91 100.91 1257.74 112.81C1262.4 124.307 1264.76 136.423 1264.76 148.869V148.88L1264.73 168.72C1264.33 168.75 1263.93 168.77 1263.53 168.79L1129.11 168.55L1116.89 168.7C1116.7 168.71 1116.51 168.713 1116.33 168.71C1123.98 188.969 1143.05 203.843 1165.98 205.03L1220.04 205.12ZM1221.45 129.07L1116.34 128.99C1119.12 121.64 1123.45 114.9 1129.18 109.18C1130.81 107.548 1132.52 106.037 1134.29 104.649C1141.37 99.0979 1149.5 95.4894 1157.94 93.8262C1161.55 93.1158 1165.22 92.7606 1168.88 92.76C1172.54 92.7606 1176.21 93.1158 1179.82 93.8262C1188.27 95.4916 1196.41 99.1078 1203.5 104.671C1205.26 106.054 1206.96 107.556 1208.58 109.18C1214.33 114.921 1218.67 121.689 1221.45 129.07Z" fill="#0C1717"/>
<path fill-rule="evenodd" clip-rule="evenodd" d="M11.07 155.57V155.55L11.11 91.66L11.15 4.7C11.12 3.59 11.07 2.49 11 1.38V0L50.77 0.110001C50.8 0.740001 50.83 1.38 50.84 2.02L50.7287 113.247C57.5871 110.103 63.6913 105.622 68.7202 100.15C77.3002 90.8105 82.7401 78.5905 83.4601 65.2305L123.22 65.3005C122.9 75.7305 120.89 85.9405 117.23 95.7305C112.89 107.34 106.42 117.88 97.9902 127.04C89.5802 136.21 79.6301 143.55 68.4202 148.86C67.7744 149.166 67.126 149.464 66.4751 149.754C71.4004 150.749 76.2496 152.136 81 153.912C92.61 158.252 103.15 164.722 112.31 173.152C121.48 181.562 128.82 191.512 134.13 202.722C139.62 214.332 142.69 226.772 143.24 239.702L143.26 240.132V240.552L103.53 240.982C102.77 225.682 95.92 212.072 85.42 202.422C76.1147 193.874 63.9507 188.442 50.6488 187.69L50.64 195.73L50.62 217.48L50.76 237.08C50.8 238.38 50.86 239.66 50.93 240.94H11.03V239.13V237.77L11.07 155.57Z" fill="#0C1717"/>
<path d="M352.12 112.81C347.29 100.91 340.2 90.23 331.06 81.09C321.91 71.94 311.23 64.85 299.33 60.02C287.84 55.36 275.7 53 263.25 53C262.02 53 260.79 53.02 259.57 53.08C247.93 53.36 236.58 55.71 225.81 60.08C213.91 64.91 203.23 72 194.08 81.15C184.94 90.29 177.85 100.97 173.02 112.87C168.36 124.37 166 136.5 166 148.95C166 161.4 168.36 173.53 173.02 185.02C177.85 196.92 184.94 207.6 194.08 216.75C203.23 225.89 213.91 232.98 225.81 237.81C237.3 242.47 249.44 244.83 261.89 244.83C263.12 244.83 264.35 244.81 265.57 244.75C277.21 244.47 288.56 242.12 299.33 237.75C311.23 232.92 321.91 225.83 331.06 216.69C340.2 207.54 347.29 196.86 352.12 184.96C356.78 173.47 359.14 161.33 359.14 148.89C359.14 136.45 356.78 124.31 352.12 112.81ZM302.96 188.59C292.6 198.95 279.17 204.41 265.57 204.96C265.37 204.96 265.17 204.98 264.97 204.98C263.17 205.08 261.37 205.1 259.57 205.02C245.97 204.47 232.54 199.01 222.18 188.65C211.57 178.05 205.73 163.95 205.73 148.95C205.73 133.95 211.57 119.84 222.18 109.24C232.53 98.88 245.97 93.42 259.57 92.87C259.77 92.86 259.96 92.85 260.15 92.85C261.18 92.79 262.21 92.76 263.25 92.76C264.02 92.76 264.79 92.78 265.57 92.81C279.17 93.36 292.61 98.82 302.96 109.18C313.57 119.78 319.41 133.89 319.41 148.89C319.41 163.89 313.57 177.99 302.96 188.59Z" fill="#0C1717"/>
<path fill-rule="evenodd" clip-rule="evenodd" d="M588.69 156.926L588.71 149.966L588.69 149.956L588.67 150.136C588.673 149.981 588.678 149.826 588.682 149.672C588.691 149.367 588.7 149.065 588.7 148.766C588.7 147.592 588.681 146.418 588.634 145.254L588.73 145.254V145.234V145.154C589.56 132.424 594.67 120.424 603.43 110.894C613.58 99.854 627.42 93.424 642.39 92.784C673.2 91.484 699.34 115.384 700.85 146.134L700.8 200.384L700.75 240.244H740.5V236.864L740.53 196.994L740.55 179.744L740.58 145.704V144.844C740.02 131.924 736.96 119.484 731.46 107.864C726.15 96.664 718.81 86.714 709.65 78.294C700.49 69.874 689.95 63.394 678.34 59.054C666.3 54.554 653.65 52.554 640.73 53.094C627.8 53.634 615.36 56.704 603.75 62.204C592.54 67.514 582.59 74.854 574.17 84.014C572.279 86.0715 570.486 88.1982 568.793 90.3909C567.099 88.1955 565.304 86.0662 563.41 84.0062C554.99 74.8462 545.04 67.5062 533.83 62.1962C522.22 56.6962 509.78 53.6262 496.85 53.0862C483.93 52.5462 471.28 54.5462 459.24 59.0462C447.63 63.3862 437.09 69.8662 427.93 78.2862C418.77 86.7062 411.43 96.6562 406.12 107.856C400.62 119.476 397.56 131.916 397 144.836V145.696L397.03 179.736L397.05 196.986H397.03L397.08 236.856V240.236H436.83L436.78 200.376L436.73 146.126C438.24 115.376 464.38 91.4762 495.19 92.7762C510.16 93.4162 524 99.8462 534.15 110.886C542.91 120.416 548.02 132.416 548.85 145.146V145.226C548.87 145.356 548.87 145.476 548.87 145.606C548.872 145.613 548.873 145.62 548.875 145.626C548.883 145.657 548.89 145.683 548.89 145.716C549 147.286 549.33 152.476 549.22 157.976C549.12 159.696 548.99 161.326 548.85 162.766V162.886C548.83 163.146 548.81 163.386 548.79 163.616C548.73 164.306 548.67 164.886 548.62 165.366C548.607 165.473 548.594 165.579 548.582 165.686C548.558 165.899 548.533 166.113 548.5 166.326C548.45 166.766 548.41 166.996 548.41 166.996C548.38 167.186 548.35 167.386 548.32 167.576V167.636C548.31 167.726 548.3 167.816 548.28 167.896C548.28 167.926 548.28 167.956 548.26 167.976C547.46 173.096 545.95 177.976 543.85 182.516V240.236C545.56 239.166 547.23 238.036 548.87 236.856C551.95 234.636 554.9 232.236 557.72 229.636C566.88 221.216 574.22 211.266 579.52 200.056C585.02 188.446 588.08 176.006 588.63 163.076C588.69 161.706 588.72 160.326 588.72 158.966C588.72 158.286 588.71 157.606 588.69 156.926Z" fill="#0C1717"/>
<g clip-path="url(#clip0_1176_63)">
<path fill-rule="evenodd" clip-rule="evenodd" d="M778.85 30.5783L778.89 16.0283L778.91 15.2383L818.58 15.2583C818.58 15.2909 818.578 15.3246 818.577 15.359C818.575 15.4301 818.573 15.5042 818.58 15.5783L818.45 37.3283L818.38 47.9883L818.36 51.6283C818.36 51.6283 818.35 54.5883 818.31 55.5583H778.77V55.0283L778.81 41.2683L778.85 30.5783ZM778.77 238.578L778.81 187.288L778.85 147.418L778.89 93.1683C778.86 92.4783 778.81 91.7883 778.74 91.0983V90.2383L818.51 90.3083C818.54 90.6983 818.57 91.0983 818.58 91.4983L818.45 172.588L818.38 212.348L818.36 225.918L818.5 238.148C818.54 238.958 818.6 239.758 818.67 240.558H778.85C778.83 240.303 778.819 240.052 778.808 239.8C778.802 239.677 778.797 239.553 778.79 239.428L778.77 238.998V238.578Z" fill="#0C1717"/>
</g>
<path d="M857.32 145.69L878.98 168.59H857.32V145.69Z" fill="#0C1717"/>
<path d="M857.32 145.69L878.99 168.59H1007.24C1004.69 175.417 1000.83 181.636 995.97 186.93C986.32 197.43 972.71 204.28 957.41 205.04L856 205.03V244.77H958.26L958.69 244.75C971.62 244.2 984.06 241.13 995.67 235.64C1006.88 230.33 1016.83 222.99 1025.24 213.82C1033.67 204.66 1040.14 194.12 1044.48 182.51C1046.87 176.118 1048.56 169.546 1049.53 162.851C1049.99 159.809 1050.44 155.973 1050.46 152.409C1050.46 152.299 1050.47 152.19 1050.47 152.08H1050.46V150.55C1050.46 151.064 1050.44 151.575 1050.4 152.08L1050.39 152.08C1050.43 151.578 1050.45 151.071 1050.45 150.56L1050.46 150.55L1050.46 150.47C1050.44 138.65 1040.96 129.07 1029.19 128.86H1028.41C1017.02 129.063 1007.78 138.035 1007.16 149.316C1007.77 138.03 1017.02 129.053 1028.41 128.85H900.68C903.238 122.152 907.046 116.048 911.831 110.84C921.481 100.34 935.091 93.49 950.391 92.73L1011.46 92.75V53H949.541L949.111 53.02C936.181 53.57 923.741 56.64 912.131 62.13C900.921 67.44 890.971 74.78 882.561 83.95C874.131 93.11 867.661 103.65 863.321 115.26C861.657 119.71 860.335 124.246 859.356 128.85H859.35C859.35 128.85 857.32 137.99 857.32 145.69Z" fill="#0C1717"/>
<path d="M1394.76 88.76C1381.4 89.48 1369.18 94.92 1359.84 103.5C1349.34 113.15 1342.49 126.76 1341.73 142.06L1341.59 154.28L1341.61 167.86L1341.68 207.62L1341.73 240.9L1302.09 240.84V232.79L1302.04 192.92L1302 141.63V141.21L1302.02 140.78C1302.57 127.85 1305.64 115.41 1311.13 103.8C1316.44 92.59 1323.78 82.64 1332.95 74.23C1342.11 65.8 1352.65 59.33 1364.26 54.99C1374.05 51.33 1384.26 49.32 1394.69 49L1394.76 88.76Z" fill="#0C1717"/>
<rect x="242.697" y="129.039" width="39.7463" height="39.7463" fill="url(#paint0_linear_1176_63)"/>
<path d="M55.4055 462.615C49.375 462.615 43.9367 461.162 39.0908 458.254C34.3525 455.239 31.068 451.793 29.2373 447.916L28.9143 461H12.1149V342.274H29.2373V387.987L28.4297 400.587C30.2604 396.279 33.8141 392.618 39.0908 389.603C44.4752 386.48 50.2903 384.918 56.5362 384.918C63.859 384.918 70.2126 386.588 75.597 389.926C81.0891 393.157 85.289 397.733 88.1965 403.656C91.1041 409.471 92.5579 416.256 92.5579 424.009C92.5579 431.87 90.8349 438.709 87.3889 444.524C84.0506 450.339 79.5277 454.808 73.8202 457.931C68.2204 461.054 62.0822 462.615 55.4055 462.615ZM52.4979 448.077C59.4977 448.077 64.8821 445.87 68.6512 441.455C72.4202 436.932 74.3048 431.117 74.3048 424.009C74.3048 416.794 72.4202 410.979 68.6512 406.564C64.9898 402.041 59.6054 399.779 52.4979 399.779C46.3597 399.779 41.1907 401.933 36.9909 406.241C32.791 410.44 30.6911 415.986 30.6911 422.878V424.009C30.6911 428.64 31.6603 432.786 33.5987 436.447C35.6448 440.109 38.2831 442.962 41.5138 445.008C44.8521 447.054 48.5135 448.077 52.4979 448.077ZM132.487 463.261L101.796 386.857H121.502L137.333 434.024L140.886 445.493L144.44 434.024L161.078 386.857H180.139L134.587 501.706H116.495L132.487 463.261ZM237.513 401.072H224.429V386.857H237.513V356.65L255.12 352.773V386.857H272.242V401.072H255.12V461H237.513V401.072ZM319.211 462.615C312.535 462.615 306.343 461.054 300.635 457.931C295.035 454.7 290.513 450.177 287.067 444.362C283.728 438.439 282.059 431.547 282.059 423.686C282.059 415.933 283.513 409.148 286.42 403.333C289.436 397.518 293.689 392.995 299.181 389.764C304.674 386.534 311.135 384.918 318.565 384.918C322.873 384.918 326.911 385.672 330.68 387.18C334.449 388.687 337.626 390.572 340.211 392.833C342.795 394.987 344.518 397.141 345.38 399.295L345.703 386.857H362.341V461H345.864L345.541 447.916C343.711 451.793 340.372 455.239 335.526 458.254C330.68 461.162 325.242 462.615 319.211 462.615ZM322.119 448.077C328.257 448.077 333.426 445.978 337.626 441.778C341.826 437.47 343.926 431.87 343.926 424.978V423.848C343.926 419.217 342.957 415.071 341.018 411.41C339.08 407.748 336.442 404.895 333.103 402.848C329.765 400.802 326.104 399.779 322.119 399.779C315.227 399.779 309.896 402.041 306.127 406.564C302.358 410.979 300.474 416.74 300.474 423.848C300.474 431.063 302.304 436.932 305.966 441.455C309.735 445.87 315.119 448.077 322.119 448.077ZM387.093 386.857H405.184V461H387.093V386.857ZM395.977 372.965C392.639 372.965 389.839 371.834 387.577 369.573C385.316 367.311 384.185 364.511 384.185 361.173C384.185 358.158 385.316 355.573 387.577 353.42C389.839 351.266 392.639 350.189 395.977 350.189C399.208 350.189 401.954 351.266 404.215 353.42C406.477 355.573 407.607 358.158 407.607 361.173C407.607 364.511 406.477 367.311 404.215 369.573C402.061 371.834 399.315 372.965 395.977 372.965ZM430.792 342.274H448.076V461H430.792V342.274ZM517.79 419.809L495.822 461H492.752L461.577 386.857H480.314L496.306 429.986L517.467 386.857H518.113L539.435 429.663L555.427 386.857H573.842L542.827 461H539.758L517.79 419.809ZM618.614 462.615C611.937 462.615 605.745 461.054 600.038 457.931C594.438 454.7 589.915 450.177 586.469 444.362C583.131 438.439 581.461 431.547 581.461 423.686C581.461 415.933 582.915 409.148 585.823 403.333C588.838 397.518 593.092 392.995 598.584 389.764C604.076 386.534 610.537 384.918 617.968 384.918C622.275 384.918 626.313 385.672 630.083 387.18C633.852 388.687 637.028 390.572 639.613 392.833C642.197 394.987 643.92 397.141 644.782 399.295L645.105 386.857H661.743V461H645.267L644.943 447.916C643.113 451.793 639.774 455.239 634.928 458.254C630.083 461.162 624.644 462.615 618.614 462.615ZM621.521 448.077C627.66 448.077 632.829 445.978 637.028 441.778C641.228 437.47 643.328 431.87 643.328 424.978V423.848C643.328 419.217 642.359 415.071 640.421 411.41C638.482 407.748 635.844 404.895 632.506 402.848C629.167 400.802 625.506 399.779 621.521 399.779C614.629 399.779 609.299 402.041 605.53 406.564C601.761 410.979 599.876 416.74 599.876 423.848C599.876 431.063 601.707 436.932 605.368 441.455C609.137 445.87 614.522 448.077 621.521 448.077ZM684.718 386.857H702.164V401.395C703.887 396.441 706.687 392.457 710.563 389.441C714.44 386.426 718.855 384.918 723.809 384.918C727.255 384.918 729.624 385.241 730.916 385.888L728.493 403.495C727.524 402.848 725.424 402.525 722.194 402.525C717.132 402.525 712.502 404.141 708.302 407.371C704.21 410.602 702.164 415.771 702.164 422.878V461H684.718V386.857ZM776.044 462.615C769.368 462.615 763.176 461.054 757.468 457.931C751.868 454.7 747.346 450.177 743.9 444.362C740.561 438.439 738.892 431.547 738.892 423.686C738.892 411.948 742.177 402.579 748.746 395.579C755.315 388.472 764.199 384.918 775.398 384.918C781.644 384.918 787.352 386.48 792.521 389.603C797.69 392.618 801.19 396.279 803.02 400.587L802.213 387.987V342.274H819.335V461H802.697L802.374 447.916C800.544 451.793 797.205 455.239 792.359 458.254C787.513 461.162 782.075 462.615 776.044 462.615ZM778.952 447.916C785.09 447.916 790.259 445.816 794.459 441.616C798.659 437.309 800.759 431.709 800.759 424.817V423.686C800.759 419.055 799.79 414.909 797.851 411.248C795.913 407.587 793.275 404.733 789.936 402.687C786.598 400.641 782.937 399.618 778.952 399.618C772.06 399.618 766.729 401.879 762.96 406.402C759.191 410.817 757.307 416.579 757.307 423.686C757.307 430.901 759.137 436.77 762.799 441.293C766.568 445.708 771.952 447.916 778.952 447.916ZM877.528 462.615C868.698 462.615 861.321 460.892 855.398 457.446C849.476 453.893 845.114 449.208 842.314 443.393C839.514 437.47 838.114 431.009 838.114 424.009C838.114 416.148 839.73 409.256 842.96 403.333C846.299 397.41 850.875 392.887 856.691 389.764C862.506 386.534 869.075 384.918 876.398 384.918C887.812 384.918 896.266 388.095 901.758 394.449C907.358 400.695 910.158 409.525 910.158 420.94C910.158 423.848 909.996 426.863 909.673 429.986H856.368C857.552 436.555 859.867 441.293 863.313 444.201C866.867 447.108 871.767 448.562 878.013 448.562C883.182 448.562 887.436 448.131 890.774 447.27C894.112 446.408 897.181 445.224 899.981 443.716L905.312 456.154C902.62 457.877 898.958 459.385 894.328 460.677C889.697 461.969 884.097 462.615 877.528 462.615ZM893.197 417.871C893.305 411.194 891.851 406.51 888.836 403.818C885.82 401.018 881.513 399.618 875.913 399.618C864.606 399.618 858.091 405.702 856.368 417.871H893.197ZM928.447 386.857H945.57L945.731 400.425C947.777 395.903 951.008 392.187 955.423 389.28C959.839 386.372 965.008 384.918 970.93 384.918C978.576 384.918 984.445 386.534 988.537 389.764C992.63 392.887 995.376 397.302 996.776 403.01C998.176 408.717 998.875 416.148 998.875 425.301V461H981.43V425.786C981.43 416.417 980.515 409.687 978.684 405.594C976.853 401.395 973.084 399.295 967.377 399.295C964.146 399.295 960.862 400.318 957.523 402.364C954.185 404.302 951.385 407.156 949.124 410.925C946.97 414.694 945.893 419.109 945.893 424.171V461H928.447V386.857Z" fill="#0C1717"/>
<defs>
<linearGradient id="paint0_linear_1176_63" x1="242.697" y1="129.039" x2="287.079" y2="135.21" gradientUnits="userSpaceOnUse">
<stop stop-color="#33CCCC"/>
<stop offset="1" stop-color="#009999"/>
</linearGradient>
<clipPath id="clip0_1176_63">
<rect width="41" height="226" fill="white" transform="translate(778 15)"/>
</clipPath>
</defs>
</svg>
