<svg width="40" height="40" viewBox="0 0 40 40" fill="none" xmlns="http://www.w3.org/2000/svg">
<g clip-path="url(#clip0_2234_45120)">
<path d="M38.4374 27.5694C37.4429 30.0195 35.9832 32.2184 34.1013 34.1003C32.2174 35.9842 30.0185 37.444 27.5683 38.4384C25.2026 39.3979 22.7031 39.8838 20.1397 39.8838C19.8865 39.8838 19.6332 39.8797 19.3821 39.8673C16.9855 39.8097 14.6486 39.3258 12.4311 38.4261C9.98101 37.4316 7.78208 35.9718 5.89816 34.0879C4.0163 32.2061 2.55653 30.0071 1.56207 27.557C0.602606 25.1892 0.116699 22.6918 0.116699 20.1284C0.116699 17.565 0.602606 15.0676 1.56207 12.7019C2.55653 10.2517 4.0163 8.0528 5.89816 6.16888C7.78208 4.28703 9.98101 2.82725 12.4311 1.83279C14.7968 0.873329 17.2964 0.387428 19.8597 0.387428C20.113 0.387428 20.3662 0.391541 20.6174 0.403896C23.014 0.461544 25.3509 0.945393 27.5683 1.84514C30.0185 2.8396 32.2174 4.29938 34.1013 6.18124C35.9832 8.06516 37.4429 10.2641 38.4374 12.7142C39.3969 15.0799 39.8828 17.5795 39.8828 20.1408C39.8828 22.7021 39.3969 25.2016 38.4374 27.5694ZM28.3157 11.9668C26.1827 9.83377 23.4176 8.7096 20.6174 8.59636C20.5762 8.59636 20.5351 8.59225 20.4939 8.59225C20.1233 8.57166 19.7527 8.56754 19.3821 8.58401C16.5819 8.69725 13.8168 9.82142 11.6837 11.9545C9.49922 14.1369 8.29681 17.04 8.29681 20.1284C8.29681 23.2168 9.49922 26.1219 11.6837 28.3044C13.8147 30.4374 16.5819 31.5616 19.3821 31.6749C19.4232 31.6769 19.4624 31.679 19.5015 31.679C19.7135 31.6913 19.9256 31.6975 20.1397 31.6975C20.2983 31.6975 20.4568 31.6934 20.6174 31.6872C23.4176 31.574 26.1848 30.4498 28.3157 28.3167C30.5003 26.1343 31.7027 23.2291 31.7027 20.1408C31.7027 17.0524 30.5003 14.1493 28.3157 11.9668Z" fill="#0C1717"/>
<rect width="8.24486" height="8.24486" transform="matrix(1 0 0 -1 16.0266 24.1094)" fill="url(#paint0_linear_2234_45120)"/>
</g>
<defs>
<linearGradient id="paint0_linear_2234_45120" x1="0" y1="0" x2="9.20657" y2="1.28013" gradientUnits="userSpaceOnUse">
<stop stop-color="#33CCCC"/>
<stop offset="1" stop-color="#009999"/>
</linearGradient>
<clipPath id="clip0_2234_45120">
<rect width="40" height="40" fill="white" transform="matrix(1 0 0 -1 0 40)"/>
</clipPath>
</defs>
</svg>
