<svg width="1740" height="500" viewBox="0 0 1740 500" fill="none" xmlns="http://www.w3.org/2000/svg">
<g clip-path="url(#clip0_338_1257)">
<g clip-path="url(#clip1_338_1257)">
<path d="M1192.87 401.413L1175 401.381V402.639C1175 402.666 1175 402.688 1175 402.715V408.435V426.209V427.169V445.141V446.123V468.26V468.449V468.643C1175 468.814 1175 468.981 1175.03 469.152H1192.83V462.553V456.437L1192.86 438.514L1192.92 401.962C1192.89 401.769 1192.88 401.588 1192.87 401.413ZM1192.87 368.349H1175.01V368.697V372.542V375.246V380.069V380.669V386.267V386.321V386.371C1175.01 386.416 1175.01 386.461 1175.03 386.506H1192.84V384.545V383.098L1192.88 378.289L1192.93 368.485C1192.91 368.437 1192.88 368.392 1192.85 368.349H1192.87ZM775.97 382.634C765.07 382.981 754.705 387.439 746.956 395.113C739.208 402.787 734.65 413.109 734.198 424.005V424.198V424.388V445.984V447.507V465.479V469.085L752.066 469.112V454.111L752.034 436.189V430.329V430.072L752.093 424.564C752.409 418.317 755.024 412.408 759.434 407.972C763.844 403.537 769.738 400.889 775.983 400.538L775.97 382.634ZM1135 445.05C1130.1 440.558 1127.16 434.312 1126.84 427.669V426.768L1126.78 422.756V420.849V416.058L1126.81 398.136L1126.88 361.584C1126.88 361.403 1126.88 361.223 1126.84 361.047L1108.92 361.016V361.403C1108.95 361.704 1108.97 362.015 1108.99 362.336V383.071V386.799V404.771V407.245V427.89V428.079V428.273C1109.44 439.17 1113.99 449.493 1121.74 457.167C1129.49 464.842 1139.86 469.299 1150.76 469.644L1150.78 451.722C1144.91 451.404 1139.33 449.044 1135.01 445.05H1135ZM712.237 427.579C712.246 438.864 707.837 449.703 699.954 457.778C692.072 465.853 681.341 470.522 670.06 470.784C669.51 470.811 668.955 470.82 668.401 470.82C656.998 470.868 646.038 466.408 637.909 458.41C629.78 450.413 625.141 439.527 625.003 428.125C624.865 416.722 629.239 405.728 637.172 397.536C645.105 389.344 655.954 384.62 667.355 384.392C667.905 384.365 668.459 384.356 669.014 384.356C674.691 384.351 680.314 385.466 685.56 387.636C690.806 389.807 695.573 392.99 699.588 397.005C703.602 401.02 706.786 405.786 708.956 411.033C711.127 416.279 712.242 421.902 712.237 427.579ZM694.328 427.579C694.33 421.047 691.805 414.768 687.281 410.056C682.757 405.344 676.586 402.565 670.06 402.301C669.708 402.301 669.361 402.278 669.014 402.278C668.563 402.278 668.081 402.278 667.616 402.319H667.355C660.827 402.58 654.652 405.358 650.126 410.069C645.599 414.781 643.071 421.061 643.071 427.595C643.071 434.129 645.599 440.409 650.126 445.12C654.652 449.832 660.827 452.61 667.355 452.871C668.166 452.907 668.978 452.898 669.789 452.871H670.06C676.585 452.607 682.756 449.828 687.28 445.117C691.803 440.407 694.329 434.128 694.328 427.597V427.579ZM998.59 433.078C999.706 441.897 1003.52 450.156 1009.5 456.728C1015.49 463.3 1023.35 467.866 1032.03 469.802C1041.72 471.952 1051.15 470.996 1060.1 466.646C1072.27 460.723 1080.04 451.1 1083.5 438.023C1084.13 435.584 1084.52 433.088 1084.65 430.572C1084.67 430.42 1084.71 430.269 1084.75 430.121V420.701C1084.65 419.799 1084.55 418.897 1084.44 417.996C1083.7 411.755 1081.61 405.751 1078.3 400.405C1075 395.058 1070.57 390.498 1065.32 387.042C1065.11 386.903 1064.87 386.772 1064.68 386.637C1064.63 386.62 1064.58 386.606 1064.53 386.596C1064.53 386.794 1064.5 386.979 1064.5 387.169C1064.5 395.469 1064.5 403.769 1064.5 412.068C1064.51 412.387 1064.58 412.701 1064.71 412.993C1065.93 415.898 1066.64 418.994 1066.8 422.143C1067.01 425.105 1066.93 428.08 1066.57 431.027C1065.84 436.45 1063.38 441.491 1059.54 445.392C1055.7 449.293 1050.7 451.845 1045.29 452.664C1037.31 453.786 1030.26 451.614 1024.31 446.168C1019.9 442.168 1017.1 436.71 1016.4 430.802C1016.3 430.07 1016.26 429.332 1016.26 428.593C1016.26 420.708 1016.26 412.823 1016.26 404.937C1016.26 399.033 1016.26 393.128 1016.26 387.223V386.61C1016.12 386.589 1015.99 386.576 1015.86 386.569H998.644C998.536 386.569 998.428 386.569 998.32 386.569V430.649L998.59 433.078ZM949.764 451.212C945.766 451.003 941.876 449.848 938.411 447.844C934.946 445.839 932.005 443.042 929.831 439.681C927.657 436.32 926.31 432.491 925.902 428.509C925.494 424.527 926.036 420.505 927.483 416.773C928.931 413.041 931.243 409.705 934.229 407.039C937.215 404.374 940.791 402.454 944.663 401.438C948.535 400.422 952.593 400.339 956.503 401.194C960.414 402.05 964.065 403.821 967.159 406.362V385.78C961.337 383.443 955.075 382.401 948.81 382.726C942.545 383.05 936.425 384.735 930.876 387.662C925.327 390.589 920.481 394.688 916.675 399.675C912.869 404.663 910.193 410.419 908.835 416.543C907.476 422.668 907.466 429.015 908.806 435.144C910.146 441.273 912.804 447.038 916.594 452.037C920.385 457.036 925.218 461.15 930.759 464.094C936.299 467.038 942.413 468.741 948.678 469.085H974.145V451.253L949.764 451.212Z" fill="black"/>
<circle cx="839.561" cy="427.728" r="34.474" stroke="black" stroke-width="17.5976"/>
<path d="M869.941 396.934C862.192 389.26 851.827 384.802 840.927 384.455L840.914 402.359C847.159 402.71 853.053 405.358 857.463 409.794C861.874 414.229 864.488 420.138 864.804 426.385L864.863 431.893V432.15V438.01L864.831 455.932L864.831 471.001H882.699V467.3V449.328V447.805V426.209V426.019V425.826C882.247 414.93 877.689 404.608 869.941 396.934Z" fill="black"/>
<rect x="1174.92" y="368.227" width="18.0303" height="18.4811" fill="#00CCCC"/>
</g>
<g clip-path="url(#clip2_338_1257)">
<path d="M250 0.316406C112.332 0.316406 0.317383 112.313 0.317383 249.999C0.317383 387.686 112.314 499.682 250 499.682C387.687 499.682 499.683 387.686 499.683 249.999C499.683 112.313 387.687 0.316406 250 0.316406ZM250 471.678C127.761 471.678 28.3025 372.219 28.3025 249.981C28.3025 127.742 127.761 28.2828 250 28.2828C372.239 28.2828 471.698 127.742 471.698 249.981C471.698 372.219 372.239 471.678 250 471.678Z" fill="url(#paint0_linear_338_1257)"/>
<path d="M203.602 265.467C204.777 266.213 206.083 266.568 207.37 266.568C209.684 266.568 211.941 265.43 213.266 263.34L229.348 238.191L246.493 248.676C247.631 249.366 248.9 249.702 250.131 249.702C252.482 249.702 254.796 248.508 256.102 246.363C256.512 245.691 256.773 244.963 256.941 244.217C257.725 244.516 258.546 244.665 259.367 244.665C261.755 244.665 264.068 243.452 265.374 241.251L279.926 216.848L292.855 224.758C293.993 225.448 295.262 225.784 296.493 225.784C298.844 225.784 301.158 224.59 302.464 222.445C304.478 219.142 303.452 214.851 300.15 212.818L287.072 204.814L292.799 195.206C294.777 191.885 293.695 187.594 290.374 185.616C287.053 183.639 282.762 184.721 280.784 188.042L275.15 197.501L268.602 193.489C265.299 191.475 260.99 192.501 258.975 195.803C256.96 199.105 257.986 203.396 261.288 205.43L267.967 209.516L253.322 234.068C252.949 234.684 252.725 235.336 252.575 235.989L236.848 226.363L244.87 213.807C246.96 210.56 246.008 206.232 242.743 204.142C239.497 202.053 235.169 203.004 233.079 206.269L224.908 219.049L214.646 212.762C211.344 210.747 207.034 211.773 205.02 215.075C203.005 218.378 204.031 222.669 207.333 224.702L217.37 230.84L201.419 255.766C199.329 259.012 200.281 263.34 203.546 265.43L203.602 265.467Z" fill="url(#paint1_linear_338_1257)"/>
<path d="M433.097 201.77C431.511 196.061 426.53 191.975 420.615 191.546C414.664 191.117 366.94 187.927 337.724 194.177C322.127 175.259 297.574 143.971 297.294 143.617C292.761 137.833 284.515 136.546 278.432 140.669L236.641 169.027L193.862 171.453C187.873 171.789 182.761 175.912 181.156 181.695L155.877 273.225C143.563 281.248 111.324 304.326 87.593 340.016C84.3653 344.867 84.4773 351.229 87.8915 355.949C90.5594 359.662 94.8131 361.751 99.2348 361.751C100.466 361.751 101.697 361.583 102.91 361.266C107.836 359.923 224.421 328.057 288.358 298.841C352.425 269.568 424.589 219.102 427.63 216.957C432.481 213.561 434.664 207.479 433.078 201.77H433.097ZM205.466 198.822L242.089 196.751C244.627 196.602 247.052 195.781 249.16 194.363L283.358 171.154C293.302 183.748 310.093 204.867 320.503 217.255C270.13 249.457 211.959 269.401 183.619 277.983L205.485 198.841L205.466 198.822ZM276.753 273.374C239.011 290.632 180.298 309.382 140 321.434C154.571 307.684 167.798 298.804 172.798 295.613C189.832 291.117 270.317 268.319 336.399 223.505C336.791 223.393 337.183 223.319 337.574 223.169C345.765 220.166 360.037 218.878 374.664 218.486C347.947 235.501 310.727 257.833 276.753 273.356V273.374Z" fill="url(#paint2_linear_338_1257)"/>
</g>
<path d="M700.41 152.96L682.166 175.461V253H648.718V29.5055H682.166V129.242L758.793 29.5055H799.539L722.608 127.721L810.485 253H768.827L700.41 152.96ZM892.502 256.041C878.109 256.041 865.338 252.797 854.189 246.31C843.039 239.823 834.424 231.005 828.342 219.856C822.261 208.707 819.22 196.341 819.22 182.759C819.22 169.38 822.16 157.115 828.038 145.966C834.12 134.817 842.735 125.998 853.885 119.511C865.034 113.025 877.907 109.781 892.502 109.781C907.098 109.781 919.869 113.025 930.815 119.511C941.965 125.998 950.479 134.817 956.358 145.966C962.439 157.115 965.48 169.38 965.48 182.759C965.48 196.341 962.439 208.707 956.358 219.856C950.276 231.005 941.661 239.823 930.511 246.31C919.565 252.797 906.895 256.041 892.502 256.041ZM893.414 229.282C905.172 229.282 914.395 224.924 921.085 216.207C927.977 207.49 931.424 196.544 931.424 183.367C931.424 170.19 927.775 159.142 920.477 150.223C913.179 141.101 903.55 136.54 891.59 136.54C880.035 136.54 870.71 140.999 863.615 149.919C856.723 158.838 853.277 169.988 853.277 183.367C853.277 196.341 857.027 207.288 864.527 216.207C872.028 224.924 881.657 229.282 893.414 229.282ZM1000.55 113.43H1033.39V138.668C1037.85 129.14 1044.34 121.944 1052.85 117.079C1061.57 112.214 1071.5 109.781 1082.65 109.781C1107.58 109.984 1122.89 118.599 1128.57 135.627C1133.03 127.721 1139.72 121.437 1148.63 116.775C1157.55 112.112 1166.98 109.781 1176.91 109.781C1191.51 109.781 1202.56 112.619 1210.06 118.295C1217.56 123.769 1222.52 131.674 1224.96 142.013C1227.59 152.149 1228.91 165.832 1228.91 183.063V253H1195.77V182.759C1195.77 166.339 1194.04 154.581 1190.6 147.486C1187.35 140.391 1180.97 136.844 1171.44 136.844C1158.67 136.844 1148.94 141.202 1142.25 149.919C1135.76 158.433 1132.52 169.684 1132.52 183.671V253H1099.68V177.894C1099.68 167.15 1099.27 159.142 1098.46 153.872C1097.65 148.601 1095.42 144.446 1091.77 141.405C1088.12 138.364 1082.25 136.844 1074.14 136.844C1067.04 136.844 1060.35 138.972 1054.07 143.229C1047.99 147.486 1043.02 153.264 1039.17 160.561C1035.52 167.657 1033.69 175.36 1033.69 183.671V253H1000.55V113.43ZM1273.21 113.43H1307.26V253H1273.21V113.43ZM1289.93 87.2796C1283.65 87.2796 1278.37 85.1511 1274.12 80.894C1269.86 76.637 1267.73 71.3664 1267.73 65.0822C1267.73 59.4061 1269.86 54.541 1274.12 50.4866C1278.37 46.4323 1283.65 44.4052 1289.93 44.4052C1296.01 44.4052 1301.18 46.4323 1305.44 50.4866C1309.69 54.541 1311.82 59.4061 1311.82 65.0822C1311.82 71.3664 1309.69 76.637 1305.44 80.894C1301.38 85.1511 1296.21 87.2796 1289.93 87.2796ZM1400.77 256.041C1391.04 256.041 1380.91 254.824 1370.37 252.392C1360.03 249.757 1352.63 246.716 1348.17 243.27L1359.12 217.423C1371.28 225.937 1385.16 230.194 1400.77 230.194C1416.38 230.194 1424.19 225.633 1424.19 216.511C1424.19 212.457 1422.57 209.315 1419.32 207.085C1416.08 204.855 1410.3 202.22 1401.99 199.179L1390.44 194.922C1378.27 190.057 1368.64 184.279 1361.55 177.59C1354.45 170.697 1350.91 161.676 1350.91 150.527C1350.91 137.756 1355.87 127.823 1365.81 120.728C1375.94 113.43 1389.42 109.781 1406.25 109.781C1414.56 109.781 1422.67 110.693 1430.57 112.518C1438.68 114.342 1444.86 116.673 1449.12 119.511L1437.26 145.662C1434.63 143.027 1430.37 140.797 1424.49 138.972C1418.82 136.945 1412.43 135.931 1405.33 135.931C1390.94 135.931 1383.75 140.29 1383.75 149.007C1383.75 153.872 1385.67 157.622 1389.52 160.257C1393.37 162.69 1399.66 165.427 1408.38 168.467C1409.19 168.67 1412.33 169.785 1417.8 171.812C1430.78 176.88 1440.4 182.658 1446.69 189.144C1452.97 195.631 1456.12 203.943 1456.12 214.079C1456.12 227.863 1450.84 238.303 1440.3 245.398C1429.96 252.493 1416.79 256.041 1400.77 256.041ZM1556.2 256.041C1539.58 256.041 1525.69 252.797 1514.54 246.31C1503.39 239.621 1495.18 230.803 1489.91 219.856C1484.64 208.707 1482.01 196.544 1482.01 183.367C1482.01 168.569 1485.05 155.595 1491.13 144.446C1497.41 133.296 1506.03 124.782 1516.98 118.903C1527.92 112.822 1540.29 109.781 1554.07 109.781C1575.56 109.781 1591.47 115.761 1601.81 127.721C1612.35 139.479 1617.62 156.102 1617.62 177.59C1617.62 183.063 1617.32 188.739 1616.71 194.618H1516.37C1518.6 206.983 1522.96 215.903 1529.44 221.376C1536.13 226.85 1545.36 229.586 1557.11 229.586C1566.84 229.586 1574.85 228.775 1581.13 227.154C1587.42 225.532 1593.2 223.302 1598.47 220.464L1608.5 243.878C1603.43 247.121 1596.54 249.959 1587.82 252.392C1579.11 254.824 1568.57 256.041 1556.2 256.041ZM1585.7 171.812C1585.9 159.244 1583.16 150.426 1577.49 145.358C1571.81 140.087 1563.7 137.452 1553.16 137.452C1531.87 137.452 1519.61 148.905 1516.37 171.812H1585.7ZM1651.14 113.43H1683.98V140.797C1687.22 131.472 1692.49 123.971 1699.79 118.295C1707.09 112.619 1715.4 109.781 1724.73 109.781C1731.21 109.781 1735.67 110.389 1738.11 111.606L1733.54 144.75C1731.72 143.533 1727.77 142.925 1721.69 142.925C1712.16 142.925 1703.44 145.966 1695.54 152.047C1687.83 158.129 1683.98 167.859 1683.98 181.239V253H1651.14V113.43Z" fill="black"/>
</g>
<defs>
<linearGradient id="paint0_linear_338_1257" x1="430" y1="430" x2="11.3815" y2="169.361" gradientUnits="userSpaceOnUse">
<stop stop-color="#00CCCC"/>
<stop offset="1" stop-color="#A107EA"/>
</linearGradient>
<linearGradient id="paint1_linear_338_1257" x1="430" y1="430" x2="11.3815" y2="169.361" gradientUnits="userSpaceOnUse">
<stop stop-color="#00CCCC"/>
<stop offset="1" stop-color="#A107EA"/>
</linearGradient>
<linearGradient id="paint2_linear_338_1257" x1="430" y1="430" x2="11.3815" y2="169.361" gradientUnits="userSpaceOnUse">
<stop stop-color="#00CCCC"/>
<stop offset="1" stop-color="#A107EA"/>
</linearGradient>
<clipPath id="clip0_338_1257">
<rect width="1740" height="500" fill="white"/>
</clipPath>
<clipPath id="clip1_338_1257">
<rect width="586" height="109.986" fill="white" transform="translate(625 361.016)"/>
</clipPath>
<clipPath id="clip2_338_1257">
<rect width="500" height="500" fill="white" transform="matrix(1 0 0 -1 0 500)"/>
</clipPath>
</defs>
</svg>
