<svg width="123" height="144" viewBox="0 0 123 144" fill="none" xmlns="http://www.w3.org/2000/svg">
<path d="M6.7918 142.763C7.18233 143.153 7.81549 143.153 8.20602 142.763L14.57 136.399C14.9605 136.008 14.9605 135.375 14.57 134.984C14.1795 134.594 13.5463 134.594 13.1558 134.984L7.49891 140.641L1.84206 134.984C1.45153 134.594 0.818366 134.594 0.427841 134.984C0.037317 135.375 0.037317 136.008 0.427841 136.399L6.7918 142.763ZM7.49891 98.5555L8.49891 98.5555L8.49891 98.5139L8.49545 98.4725L7.49891 98.5555ZM95.5 74.5555L95.5 75.5555L95.5 74.5555ZM115 55.0555L114 55.0555L115 55.0555ZM115.707 0.84843C115.317 0.457912 114.683 0.457912 114.293 0.84843L107.929 7.2124C107.538 7.60292 107.538 8.23608 107.929 8.62661C108.319 9.01713 108.953 9.01713 109.343 8.62661L115 2.96975L120.657 8.62661C121.047 9.01713 121.681 9.01713 122.071 8.62661C122.462 8.23608 122.462 7.60292 122.071 7.2124L115.707 0.84843ZM8.49891 142.056L8.49891 98.5555L6.49891 98.5555L6.49891 142.056L8.49891 142.056ZM8.49545 98.4725C8.17646 94.6446 8.94996 88.8919 12.2694 84.1272C15.5482 79.4207 21.3941 75.5555 31.4989 75.5555L31.4989 73.5555C20.8037 73.5555 14.3162 77.6903 10.6284 82.9839C6.98119 88.2191 6.15469 94.4665 6.50236 98.6386L8.49545 98.4725ZM31.4989 75.5555C52.2989 75.5555 82.833 75.5555 95.5 75.5555L95.5 73.5555C82.833 73.5555 52.2989 73.5555 31.4989 73.5555L31.4989 75.5555ZM95.5 75.5555C103.755 75.5555 109.039 74.4158 112.169 71.0566C115.281 67.7171 116 62.4502 116 55.0555L114 55.0555C114 62.5124 113.219 66.9955 110.706 69.6932C108.211 72.3711 103.745 73.5555 95.5 73.5555L95.5 75.5555ZM116 55.0555C116 35.4555 116 11.2222 116 1.55554L114 1.55554C114 11.2222 114 35.4555 114 55.0555L116 55.0555Z" fill="url(#paint0_linear_323_15960)"/>
<defs>
<linearGradient id="paint0_linear_323_15960" x1="7.42969" y1="142.056" x2="35.5457" y2="-12.7598" gradientUnits="userSpaceOnUse">
<stop stop-color="#008484"/>
<stop offset="1" stop-color="#065555"/>
</linearGradient>
</defs>
</svg>
