<svg width="500" height="500" xmlns="http://www.w3.org/2000/svg" xml:space="preserve" version="1.1">

  <circle fill="#232f3e" r="248.4379" cy="250.0621" cx="250.49991"/>
  <g>
   <path  d="m213.53627,189.43842l-13.0615,0c-2.40775,0 -3.98672,2.1265 -3.98672,4.79492l0,111.50491c0,2.66893 1.57898,4.80713 3.98672,4.80713l13.0615,0c2.40775,0 4.25928,-2.1382 4.25928,-4.80713l0,-111.50491c0,-2.66842 -1.85153,-4.79492 -4.25928,-4.79492" fill="#FFFFFF"/>
   <path d="m172.75148,277.49082c-1.18567,-2.98137 -4.58422,-3.80266 -6.67058,-1.5632c-5.52486,5.93221 -12.93366,9.5761 -21.10243,9.5761c-21.40428,0 -37.73738,-24.88748 -28.17785,-50.79572c2.82546,-7.65773 8.18652,-13.78584 14.86865,-17.0196c13.06017,-6.32046 25.76788,-2.71982 34.19722,6.15457c2.10811,2.21911 5.4889,1.43191 6.67635,-1.55404l5.65714,-14.22549c0.90513,-2.27661 0.2801,-4.94656 -1.46134,-6.4548c-13.25283,-11.48023 -31.3429,-15.98714 -50.19783,-8.62302c-15.13277,5.90982 -26.93269,19.89716 -31.73798,37.37575c-11.49451,41.80887 15.42531,80.241 50.17564,80.241c12.09423,0 23.21009,-4.68857 32.10642,-12.53457c1.68063,-1.48229 2.20755,-4.12832 1.32772,-6.34132l-5.66114,-14.23567z" fill="#FFFFFF"/>
   <path d="m405.19733,230.36138c-4.80529,-17.47858 -16.60521,-31.46593 -31.73798,-37.37575c-10.71058,-4.18328 -21.17345,-4.53184 -30.6442,-1.95145c-15.79641,4.04334 -27.23721,12.6282 -37.29258,37.37676l-20.17777,50.17187l-34.24916,-86.30194c-0.68406,-1.72043 -2.18002,-2.82617 -3.82914,-2.82922l-14.96231,-0.02697c-3.0705,-0.0056 -5.11558,3.63423 -3.84112,6.83695l44.41906,111.3319c0.6845,1.72145 2.18269,2.8852 3.83269,2.8857l0.72667,0.06666l16.79786,0c0.33781,0 0.67563,-0.07989 0.99613,-0.20507c1.15593,-0.45135 2.12986,-1.3968 2.63592,-2.70252c0,0 22.23883,-58.02296 22.49762,-58.72263c6.76691,-18.29275 10.87349,-25.9118 21.61425,-31.14484c8.1266,-3.95887 17.73628,-4.44076 27.02725,0.38317c6.46772,3.35792 11.554,9.49367 14.25916,17.01756c1.71215,4.70892 2.5751,9.55015 2.7176,14.32014c0.24193,19.84119 -13.71271,36.01304 -30.96603,36.01304c-8.16877,0 -15.57757,-3.6444 -21.10243,-9.5761c-2.08636,-2.23997 -5.48491,-1.41868 -6.67058,1.56269l-5.66158,14.23617c-0.87938,2.21249 -0.35291,4.85802 1.32861,6.34081c8.89589,7.84549 20.01175,12.53457 32.10598,12.53457c34.75077,-0.00051 61.67015,-38.43263 50.17608,-80.24151" fill="#FFFFFF"/>
  </g>
</svg>
