<?xml version="1.0" encoding="iso-8859-1"?>
<!-- Generator: Adobe Illustrator 19.0.0, SVG Export Plug-In . SVG Version: 6.00 Build 0)  -->
<svg version="1.1" id="Layer_1" xmlns="http://www.w3.org/2000/svg" xmlns:xlink="http://www.w3.org/1999/xlink" x="0px" y="0px"
	 viewBox="0 0 490.667 490.667" style="enable-background:new 0 0 490.667 490.667;" xml:space="preserve">
<g>
	<g>
		<path d="M245.333,0C172.928,0,96,22.421,96,64v192c0,42.027,75.115,64,149.333,64s149.333-21.973,149.333-64V64
			C394.667,22.421,317.739,0,245.333,0z M373.333,256c0,20.181-52.565,42.667-128,42.667s-128-22.485-128-42.667v-29.909
			c27.883,19.584,78.933,29.909,128,29.909s100.117-10.325,128-29.909V256z M373.333,192c0,17.813-48.704,42.667-128,42.667
			s-128-24.853-128-42.667v-29.909c27.883,19.584,78.933,29.909,128,29.909s100.117-10.325,128-29.909V192z M373.333,128
			c0,17.813-48.704,42.667-128,42.667s-128-24.853-128-42.667V98.091c27.883,19.584,78.933,29.909,128,29.909
			s100.117-10.325,128-29.909V128z M245.333,106.667c-79.296,0-128-24.853-128-42.667c0-17.813,48.704-42.667,128-42.667
			s128,24.853,128,42.667C373.333,81.813,324.629,106.667,245.333,106.667z"/>
	</g>
</g>
<g>
	<g>
		<path d="M248.661,384.405l-3.157-0.533C226.795,380.821,224,375.957,224,373.333c0-4.245,8.512-10.667,21.355-10.667
			c12.608,0,20.928,5.995,21.355,10.304c0.555,5.867,5.739,10.389,11.627,9.6c5.867-0.555,10.155-5.76,9.6-11.627
			c-1.621-16.896-19.925-29.632-42.603-29.632c-23.936,0-42.688,14.059-42.688,32c0,16.704,13.248,27.328,39.403,31.595
			l1.728-10.517l1.429,11.051c17.728,2.923,21.44,7.36,21.44,10.56c0,4.245-8.512,10.667-21.355,10.667
			c-12.608,0-20.928-6.016-21.355-10.325c-0.555-5.867-5.611-10.24-11.627-9.6c-5.867,0.555-10.155,5.76-9.6,11.627
			C204.331,435.264,222.635,448,245.312,448C269.248,448,288,433.941,288,416C288,399.317,274.773,388.693,248.661,384.405z"/>
	</g>
</g>
<g>
	<g>
		<path d="M394.667,373.333c0-17.643-14.357-32-32-32h-21.333c-17.643,0-32,14.357-32,32V416c0,17.643,14.357,32,32,32h21.333
			c4.928,0,9.536-1.216,13.696-3.2l0.085,0.085c2.091,2.069,4.821,3.115,7.552,3.115s5.461-1.045,7.531-3.115
			c4.16-4.16,4.16-10.923,0-15.083l-0.085-0.085c2.005-4.16,3.221-8.789,3.221-13.717V373.333z M373.333,411.605l-3.136-3.136
			c-4.16-4.16-10.923-4.16-15.083,0c-4.16,4.16-4.16,10.923,0,15.083l3.115,3.115h-16.896c-5.888,0-10.667-4.779-10.667-10.667
			v-42.667c0-5.888,4.779-10.667,10.667-10.667h21.333c5.888,0,10.667,4.779,10.667,10.667V411.605z"/>
	</g>
</g>
<g>
	<g>
		<path d="M469.333,426.667h-32V352c0-5.888-4.779-10.667-10.667-10.667c-5.888,0-10.667,4.779-10.667,10.667v85.333
			c0,5.888,4.779,10.667,10.667,10.667h42.667c5.888,0,10.667-4.779,10.667-10.667C480,431.445,475.221,426.667,469.333,426.667z"/>
	</g>
</g>
<g>
	<g>
		<path d="M175.445,385.109c-5.291-2.624-11.669-0.491-14.315,4.779l-11.797,23.616l-11.797-23.595
			c-2.645-5.269-9.045-7.403-14.315-4.779c-5.269,2.645-7.424,9.045-4.779,14.315l18.965,37.909l-18.944,37.867
			c-2.624,5.269-0.491,11.669,4.779,14.315c1.536,0.768,3.157,1.131,4.757,1.131c3.904,0,7.659-2.155,9.557-5.909l42.667-85.333
			C182.848,394.155,180.715,387.755,175.445,385.109z"/>
	</g>
</g>
<g>
	<g>
		<path d="M88.704,341.888c-4.331-1.472-9.152,0.043-11.904,3.712l-23.467,31.275L29.867,345.6
			c-2.752-3.669-7.509-5.184-11.904-3.712c-4.352,1.451-7.296,5.525-7.296,10.112v85.333c0,5.888,4.779,10.667,10.667,10.667
			S32,443.221,32,437.333V384l12.8,17.067c4.032,5.376,13.056,5.376,17.067,0L74.667,384v53.333c0,5.888,4.779,10.667,10.667,10.667
			S96,443.221,96,437.333V352C96,347.413,93.056,343.339,88.704,341.888z"/>
	</g>
</g>
<g>
</g>
<g>
</g>
<g>
</g>
<g>
</g>
<g>
</g>
<g>
</g>
<g>
</g>
<g>
</g>
<g>
</g>
<g>
</g>
<g>
</g>
<g>
</g>
<g>
</g>
<g>
</g>
<g>
</g>
</svg>
