<svg width="180" height="61" viewBox="0 0 180 61" fill="none" xmlns="http://www.w3.org/2000/svg">
<path d="M123.038 50.5537L121.207 50.5505V50.6794C121.207 50.6822 121.207 50.6845 121.207 50.6873V51.2736V53.0956V53.194V55.0363V55.1371V57.4063V57.4257V57.4456C121.207 57.4632 121.207 57.4803 121.21 57.4978H123.034V56.8213V56.1943L123.038 54.3571L123.044 50.6101C123.041 50.5902 123.039 50.5717 123.038 50.5537ZM123.038 47.1644H121.207V47.1999V47.5941V47.8713V48.3658V48.4272V49.0011V49.0067V49.0118C121.207 49.0164 121.207 49.021 121.21 49.0256H123.036V48.8246V48.6763L123.039 48.1833L123.045 47.1782C123.042 47.1734 123.039 47.1687 123.036 47.1644H123.038ZM80.3013 48.6287C79.1839 48.6643 78.1214 49.1213 77.3271 49.9079C76.5328 50.6946 76.0656 51.7527 76.0192 52.8696V52.8895V52.9089V55.1227V55.2789V57.1212V57.4909L77.8509 57.4937V55.9559L77.8477 54.1186V53.5179V53.4916L77.8537 52.9269C77.8861 52.2866 78.1541 51.6808 78.6062 51.2262C79.0583 50.7715 79.6625 50.5001 80.3027 50.4641L80.3013 48.6287ZM117.106 55.0271C116.604 54.5666 116.303 53.9263 116.269 53.2453V53.1529L116.263 52.7417V52.5462V52.055L116.267 50.2178L116.273 46.4708C116.273 46.4523 116.273 46.4338 116.27 46.4158L114.432 46.4126V46.4523C114.436 46.4831 114.438 46.515 114.439 46.548V48.6735V49.0557V50.898V51.1516V53.268V53.2874V53.3072C114.485 54.4243 114.952 55.4825 115.747 56.2692C116.541 57.0559 117.604 57.5128 118.721 57.5482L118.724 55.711C118.122 55.6784 117.55 55.4365 117.107 55.0271H117.106ZM73.768 53.2361C73.7689 54.3929 73.3169 55.5041 72.5089 56.3318C71.7008 57.1596 70.6008 57.6382 69.4443 57.6651C69.3879 57.6679 69.3311 57.6688 69.2743 57.6688C68.1053 57.6737 66.9818 57.2165 66.1485 56.3966C65.3152 55.5768 64.8397 54.4609 64.8255 53.292C64.8114 52.1232 65.2598 50.9961 66.073 50.1563C66.8862 49.3166 67.9983 48.8323 69.1671 48.8089C69.2234 48.8061 69.2803 48.8052 69.3371 48.8052C69.9191 48.8047 70.4955 48.919 71.0333 49.1415C71.5711 49.364 72.0597 49.6904 72.4713 50.1019C72.8828 50.5134 73.2092 51.0021 73.4317 51.5399C73.6542 52.0777 73.7685 52.6541 73.768 53.2361ZM71.9321 53.2361C71.9323 52.5665 71.6735 51.9228 71.2097 51.4397C70.746 50.9567 70.1134 50.6718 69.4443 50.6447C69.4083 50.6447 69.3727 50.6424 69.3371 50.6424C69.2909 50.6424 69.2415 50.6424 69.1939 50.6466H69.1671C68.4978 50.6734 67.8649 50.9581 67.4009 51.4411C66.9369 51.9241 66.6777 52.5679 66.6777 53.2377C66.6777 53.9075 66.9369 54.5513 67.4009 55.0343C67.8649 55.5173 68.4978 55.802 69.1671 55.8288C69.2502 55.8325 69.3334 55.8316 69.4166 55.8288H69.4443C70.1133 55.8017 70.7458 55.5169 71.2096 55.034C71.6733 54.551 71.9322 53.9074 71.9321 53.2379V53.2361ZM103.122 53.7998C103.237 54.7038 103.627 55.5504 104.241 56.2242C104.854 56.8979 105.661 57.3659 106.55 57.5644C107.544 57.7848 108.511 57.6868 109.427 57.2409C110.675 56.6337 111.472 55.6472 111.827 54.3067C111.891 54.0566 111.931 53.8008 111.945 53.5429C111.947 53.5273 111.95 53.5118 111.955 53.4967V52.5309C111.944 52.4385 111.934 52.3461 111.923 52.2537C111.847 51.6139 111.633 50.9985 111.294 50.4504C110.955 49.9023 110.501 49.4348 109.963 49.0806C109.941 49.0663 109.917 49.0529 109.897 49.039C109.892 49.0373 109.887 49.0359 109.882 49.0349C109.882 49.0552 109.879 49.0741 109.879 49.0935C109.879 49.9444 109.879 50.7952 109.879 51.6461C109.88 51.6787 109.887 51.7109 109.9 51.7408C110.026 52.0386 110.098 52.356 110.115 52.6788C110.136 52.9825 110.128 53.2874 110.091 53.5896C110.017 54.1455 109.764 54.6622 109.37 55.0621C108.977 55.462 108.465 55.7236 107.91 55.8075C107.091 55.9226 106.369 55.6999 105.759 55.1417C105.307 54.7316 105.02 54.1721 104.949 53.5665C104.938 53.4914 104.933 53.4158 104.933 53.34C104.933 52.5317 104.933 51.7234 104.933 50.9151C104.933 50.3097 104.933 49.7044 104.933 49.0991V49.0362C104.92 49.0342 104.906 49.0328 104.893 49.0321H103.128C103.117 49.0321 103.106 49.0321 103.095 49.0321V53.5508L103.122 53.7998ZM98.1172 55.6588C97.7074 55.6373 97.3085 55.5189 96.9533 55.3134C96.5981 55.108 96.2967 54.8212 96.0738 54.4766C95.8509 54.1321 95.7129 53.7396 95.6711 53.3314C95.6292 52.9232 95.6848 52.5109 95.8332 52.1283C95.9816 51.7457 96.2185 51.4038 96.5247 51.1305C96.8308 50.8572 97.1974 50.6605 97.5943 50.5563C97.9912 50.4522 98.4072 50.4436 98.808 50.5314C99.2089 50.6191 99.5832 50.8006 99.9003 51.0611V48.9512C99.3035 48.7116 98.6617 48.6048 98.0194 48.6381C97.3771 48.6714 96.7498 48.8441 96.181 49.1441C95.6121 49.4441 95.1153 49.8644 94.7252 50.3756C94.335 50.8869 94.0608 51.4769 93.9215 52.1048C93.7822 52.7327 93.7812 53.3833 93.9185 54.0116C94.0559 54.6399 94.3283 55.2308 94.7169 55.7432C95.1055 56.2557 95.601 56.6775 96.1689 56.9792C96.7369 57.281 97.3637 57.4556 98.0058 57.4909H100.617V55.6629L98.1172 55.6588Z" fill="black"/>
<circle cx="86.8201" cy="53.2513" r="3.53397" stroke="black" stroke-width="1.80395"/>
<path d="M89.9344 50.0946C89.1401 49.3079 88.0776 48.8509 86.9602 48.8154L86.9588 50.6507C87.599 50.6868 88.2032 50.9582 88.6553 51.4128C89.1074 51.8675 89.3755 52.4733 89.4079 53.1136L89.4139 53.6783V53.7046V54.3053L89.4106 56.1425L89.4106 57.6873H91.2423V57.3079V55.4656V55.3094V53.0956V53.0762V53.0563C91.196 51.9394 90.7287 50.8813 89.9344 50.0946Z" fill="black"/>
<rect x="121.199" y="47.1518" width="1.84831" height="1.89452" fill="#00CCCC"/>
<g clip-path="url(#clip0_813_243)">
<path d="M26.3835 9.43683C12.2709 9.43683 0.788147 20.9177 0.788147 35.0322C0.788147 49.1466 12.269 60.6275 26.3835 60.6275C40.4979 60.6275 51.9788 49.1466 51.9788 35.0322C51.9788 20.9177 40.4979 9.43683 26.3835 9.43683ZM26.3835 57.7568C13.8526 57.7568 3.65693 47.5611 3.65693 35.0302C3.65693 22.4994 13.8526 12.3037 26.3835 12.3037C38.9143 12.3037 49.11 22.4994 49.11 35.0302C49.11 47.5611 38.9143 57.7568 26.3835 57.7568Z" fill="url(#paint0_linear_813_243)"/>
<path d="M21.6271 36.6178C21.7476 36.6943 21.8814 36.7306 22.0134 36.7306C22.2506 36.7306 22.482 36.614 22.6178 36.3998L24.2664 33.8217L26.024 34.8965C26.1406 34.9673 26.2707 35.0017 26.3969 35.0017C26.6379 35.0017 26.8751 34.8793 27.0089 34.6594C27.051 34.5905 27.0778 34.5159 27.095 34.4394C27.1753 34.47 27.2595 34.4853 27.3436 34.4853C27.5884 34.4853 27.8256 34.361 27.9595 34.1353L29.4512 31.6337L30.7766 32.4447C30.8933 32.5154 31.0233 32.5498 31.1496 32.5498C31.3905 32.5498 31.6277 32.4274 31.7616 32.2075C31.9681 31.869 31.8629 31.4291 31.5244 31.2206L30.1837 30.4002L30.7709 29.4152C30.9736 29.0748 30.8627 28.6349 30.5222 28.4322C30.1818 28.2294 29.7419 28.3404 29.5392 28.6808L28.9616 29.6505L28.2903 29.2393C27.9518 29.0327 27.51 29.1379 27.3035 29.4764C27.0969 29.8149 27.2021 30.2548 27.5406 30.4633L28.2253 30.8821L26.724 33.399C26.6857 33.4621 26.6628 33.5291 26.6475 33.596L25.0352 32.6091L25.8576 31.322C26.0718 30.9892 25.9743 30.5455 25.6396 30.3313C25.3068 30.1171 24.8631 30.2146 24.6489 30.5493L23.8112 31.8594L22.7593 31.2149C22.4208 31.0083 21.979 31.1135 21.7724 31.4521C21.5659 31.7906 21.6711 32.2304 22.0096 32.4389L23.0385 33.0681L21.4033 35.6233C21.1891 35.956 21.2867 36.3998 21.6213 36.614L21.6271 36.6178Z" fill="url(#paint1_linear_813_243)"/>
<path d="M45.1529 30.0881C44.9904 29.5029 44.4797 29.084 43.8735 29.04C43.2634 28.9961 38.3711 28.669 35.3761 29.3097C33.7772 27.3704 31.2604 24.1631 31.2317 24.1268C30.7669 23.5339 29.9216 23.4019 29.2981 23.8246L25.014 26.7316L20.6286 26.9803C20.0147 27.0147 19.4907 27.4373 19.3262 28.0302L16.7347 37.4131C15.4725 38.2355 12.1676 40.6013 9.73488 44.2599C9.40402 44.7572 9.41549 45.4093 9.76548 45.8932C10.039 46.2738 10.475 46.488 10.9283 46.488C11.0545 46.488 11.1808 46.4708 11.3051 46.4383C11.81 46.3006 23.7613 43.034 30.3156 40.039C36.8832 37.0382 44.2808 31.8648 44.5926 31.6449C45.0898 31.2968 45.3136 30.6733 45.151 30.0881H45.1529ZM21.8182 29.7859L25.5725 29.5736C25.8326 29.5583 26.0812 29.4742 26.2974 29.3288L29.803 26.9497C30.8224 28.2406 32.5437 30.4056 33.6109 31.6755C28.447 34.9765 22.4838 37.021 19.5787 37.9008L21.8201 29.7878L21.8182 29.7859ZM29.126 37.4284C25.2569 39.1975 19.2382 41.1196 15.1072 42.355C16.6008 40.9455 17.9568 40.0352 18.4694 39.7081C20.2155 39.2472 28.4662 36.9101 35.2403 32.3162C35.2805 32.3047 35.3206 32.2971 35.3608 32.2818C36.2004 31.9739 37.6635 31.8419 39.1629 31.8017C36.4242 33.546 32.6087 35.8352 29.126 37.4265V37.4284Z" fill="url(#paint2_linear_813_243)"/>
</g>
<path d="M72.5556 24.7432L70.6854 27.0499V34.9985H67.2565V12.0878H70.6854V22.3119L78.5405 12.0878H82.7174L74.8311 22.156L83.8395 34.9985H79.5691L72.5556 24.7432ZM92.2472 35.3102C90.7718 35.3102 89.4626 34.9777 88.3196 34.3127C87.1767 33.6477 86.2935 32.7438 85.6701 31.6008C85.0467 30.4579 84.735 29.1903 84.735 27.798C84.735 26.4264 85.0363 25.1692 85.6389 24.0263C86.2624 22.8833 87.1455 21.9794 88.2885 21.3144C89.4314 20.6494 90.751 20.3169 92.2472 20.3169C93.7434 20.3169 95.0526 20.6494 96.1747 21.3144C97.3177 21.9794 98.1905 22.8833 98.7931 24.0263C99.4165 25.1692 99.7282 26.4264 99.7282 27.798C99.7282 29.1903 99.4165 30.4579 98.7931 31.6008C98.1697 32.7438 97.2865 33.6477 96.1436 34.3127C95.0214 34.9777 93.7226 35.3102 92.2472 35.3102ZM92.3407 32.5671C93.546 32.5671 94.4915 32.1203 95.1773 31.2268C95.8838 30.3332 96.2371 29.211 96.2371 27.8603C96.2371 26.5096 95.863 25.377 95.1149 24.4627C94.3668 23.5275 93.3797 23.06 92.1537 23.06C90.9692 23.06 90.0133 23.5171 89.2859 24.4315C88.5794 25.3458 88.2261 26.4888 88.2261 27.8603C88.2261 29.1903 88.6106 30.3124 89.3795 31.2268C90.1483 32.1203 91.1354 32.5671 92.3407 32.5671ZM103.323 20.691H106.69V23.2782C107.147 22.3015 107.812 21.5638 108.685 21.065C109.578 20.5663 110.597 20.3169 111.74 20.3169C114.296 20.3377 115.865 21.2209 116.446 22.9664C116.904 22.156 117.589 21.5118 118.504 21.0338C119.418 20.5559 120.384 20.3169 121.403 20.3169C122.899 20.3169 124.031 20.6078 124.8 21.1897C125.569 21.7508 126.078 22.5612 126.328 23.621C126.598 24.6601 126.733 26.0628 126.733 27.8291V34.9985H123.335V27.798C123.335 26.1147 123.159 24.9094 122.805 24.1821C122.473 23.4548 121.818 23.0911 120.842 23.0911C119.532 23.0911 118.535 23.5379 117.849 24.4315C117.184 25.3043 116.852 26.4576 116.852 27.8915V34.9985H113.485V27.2992C113.485 26.1978 113.444 25.377 113.36 24.8367C113.277 24.2964 113.049 23.8704 112.675 23.5587C112.301 23.247 111.698 23.0911 110.867 23.0911C110.139 23.0911 109.454 23.3093 108.809 23.7457C108.186 24.1821 107.677 24.7744 107.282 25.5225C106.908 26.2498 106.721 27.0395 106.721 27.8915V34.9985H103.323V20.691ZM131.274 20.691H134.765V34.9985H131.274V20.691ZM132.988 18.0103C132.344 18.0103 131.803 17.7921 131.367 17.3557C130.931 16.9193 130.713 16.379 130.713 15.7348C130.713 15.1529 130.931 14.6542 131.367 14.2386C131.803 13.8229 132.344 13.6151 132.988 13.6151C133.611 13.6151 134.141 13.8229 134.578 14.2386C135.014 14.6542 135.232 15.1529 135.232 15.7348C135.232 16.379 135.014 16.9193 134.578 17.3557C134.162 17.7921 133.632 18.0103 132.988 18.0103ZM144.351 35.3102C143.353 35.3102 142.314 35.1855 141.234 34.9361C140.174 34.666 139.415 34.3543 138.958 34.001L140.08 31.3515C141.327 32.2243 142.751 32.6606 144.351 32.6606C145.951 32.6606 146.751 32.1931 146.751 31.2579C146.751 30.8423 146.585 30.5202 146.252 30.2916C145.92 30.0631 145.328 29.7929 144.476 29.4812L143.291 29.0448C142.044 28.5461 141.057 27.9538 140.33 27.2681C139.602 26.5615 139.239 25.6368 139.239 24.4938C139.239 23.1846 139.748 22.1664 140.766 21.4391C141.805 20.691 143.187 20.3169 144.912 20.3169C145.764 20.3169 146.595 20.4104 147.406 20.5974C148.237 20.7845 148.871 21.0235 149.307 21.3144L148.091 23.9951C147.821 23.7249 147.385 23.4964 146.782 23.3093C146.2 23.1015 145.546 22.9976 144.818 22.9976C143.343 22.9976 142.605 23.4444 142.605 24.338C142.605 24.8367 142.803 25.2212 143.197 25.4913C143.592 25.7407 144.237 26.0212 145.13 26.3329C145.213 26.3537 145.535 26.468 146.096 26.6758C147.426 27.1953 148.413 27.7876 149.058 28.4526C149.702 29.1175 150.024 29.9695 150.024 31.0086C150.024 32.4217 149.484 33.4919 148.403 34.2192C147.343 34.9465 145.992 35.3102 144.351 35.3102ZM160.284 35.3102C158.58 35.3102 157.156 34.9777 156.013 34.3127C154.87 33.6269 154.029 32.723 153.489 31.6008C152.948 30.4579 152.678 29.211 152.678 27.8603C152.678 26.3433 152.99 25.0133 153.613 23.8704C154.257 22.7275 155.141 21.8547 156.263 21.252C157.385 20.6286 158.653 20.3169 160.066 20.3169C162.268 20.3169 163.9 20.9299 164.96 22.156C166.04 23.3613 166.58 25.0653 166.58 27.2681C166.58 27.8291 166.549 28.411 166.487 29.0136H156.2C156.429 30.2813 156.876 31.1956 157.541 31.7567C158.227 32.3178 159.172 32.5983 160.377 32.5983C161.375 32.5983 162.196 32.5152 162.84 32.3489C163.484 32.1827 164.076 31.9541 164.617 31.6632L165.645 34.0633C165.126 34.3958 164.419 34.6868 163.526 34.9361C162.632 35.1855 161.551 35.3102 160.284 35.3102ZM163.307 26.6758C163.328 25.3874 163.048 24.4834 162.466 23.9639C161.884 23.4236 161.053 23.1535 159.972 23.1535C157.79 23.1535 156.533 24.3276 156.2 26.6758H163.307ZM170.016 20.691H173.383V23.4964C173.715 22.5404 174.256 21.7716 175.004 21.1897C175.752 20.6078 176.604 20.3169 177.56 20.3169C178.225 20.3169 178.682 20.3793 178.931 20.5039L178.464 23.9016C178.277 23.7769 177.871 23.7146 177.248 23.7146C176.271 23.7146 175.378 24.0263 174.567 24.6497C173.778 25.2731 173.383 26.2706 173.383 27.6421V34.9985H170.016V20.691Z" fill="black"/>
<defs>
<linearGradient id="paint0_linear_813_243" x1="44.8355" y1="53.4843" x2="1.92234" y2="26.7658" gradientUnits="userSpaceOnUse">
<stop stop-color="#00CCCC"/>
<stop offset="1" stop-color="#A107EA"/>
</linearGradient>
<linearGradient id="paint1_linear_813_243" x1="44.8355" y1="53.4843" x2="1.92234" y2="26.7658" gradientUnits="userSpaceOnUse">
<stop stop-color="#00CCCC"/>
<stop offset="1" stop-color="#A107EA"/>
</linearGradient>
<linearGradient id="paint2_linear_813_243" x1="44.8355" y1="53.4843" x2="1.92234" y2="26.7658" gradientUnits="userSpaceOnUse">
<stop stop-color="#00CCCC"/>
<stop offset="1" stop-color="#A107EA"/>
</linearGradient>
<clipPath id="clip0_813_243">
<rect width="51.2557" height="51.2557" fill="white" transform="matrix(1 0 0 -1 0.755554 60.6601)"/>
</clipPath>
</defs>
</svg>
