<svg width="42" height="42" viewBox="0 0 42 42" fill="none" xmlns="http://www.w3.org/2000/svg">
<circle cx="21" cy="20.9997" r="21" fill="#63CBCB"/>
<path d="M17.8242 23.2235C17.8242 24.4548 18.7692 25.4476 19.9433 25.4476H22.3392C23.3606 25.4476 24.191 24.5789 24.191 23.5098C24.191 22.3453 23.6851 21.9348 22.931 21.6676L19.0842 20.3312C18.3301 20.0639 17.8242 19.6535 17.8242 18.4889C17.8242 17.4198 18.6547 16.5512 19.676 16.5512H22.0719C23.246 16.5512 24.191 17.5439 24.191 18.7753" stroke="#F4F9F9" stroke-width="1.5" stroke-linecap="round" stroke-linejoin="round"/>
<path d="M21.001 15.2722V26.7268" stroke="#F4F9F9" stroke-width="1.5" stroke-linecap="round" stroke-linejoin="round"/>
<path d="M21.001 30.545C26.2728 30.545 30.5465 26.2713 30.5465 20.9995C30.5465 15.7277 26.2728 11.4541 21.001 11.4541C15.7292 11.4541 11.4556 15.7277 11.4556 20.9995C11.4556 26.2713 15.7292 30.545 21.001 30.545Z" stroke="#F4F9F9" stroke-width="1.5" stroke-linecap="round" stroke-linejoin="round"/>
</svg>
