<svg width="42" height="42" viewBox="0 0 42 42" fill="none" xmlns="http://www.w3.org/2000/svg">
<circle cx="21" cy="20.9997" r="21" fill="#63CBCB"/>
<path d="M12.5723 16.6468L21.0009 21.5245L29.3723 16.6754" stroke="#F4F9F9" stroke-width="1.5" stroke-linecap="round" stroke-linejoin="round"/>
<path d="M21.001 30.1727V21.515" stroke="#F4F9F9" stroke-width="1.5" stroke-linecap="round" stroke-linejoin="round"/>
<path d="M19.0249 11.9123L13.9276 14.7377C12.7726 15.3773 11.8276 16.9809 11.8276 18.2982V23.6914C11.8276 25.0086 12.7726 26.6123 13.9276 27.2518L19.0249 30.0868C20.1131 30.6882 21.8981 30.6882 22.9863 30.0868L28.0835 27.2518C29.2385 26.6123 30.1835 25.0086 30.1835 23.6914V18.2982C30.1835 16.9809 29.2385 15.3773 28.0835 14.7377L22.9863 11.9027C21.8885 11.3014 20.1131 11.3014 19.0249 11.9123Z" stroke="#F4F9F9" stroke-width="1.5" stroke-linecap="round" stroke-linejoin="round"/>
</svg>
