<svg width="1077" height="1281" viewBox="0 0 1077 1281" fill="none" xmlns="http://www.w3.org/2000/svg">
<g clip-path="url(#clip0_971_240)">
<path d="M673.904 1122.74C810.017 1113.87 827.601 989.264 774.37 841.082C721.18 692.9 762.022 583.082 875.716 570.494C989.41 557.905 1095.99 695.058 1056.91 869.815C1017.82 1044.61 852.737 1205.5 631.863 1212.94L673.944 1122.74H673.904Z" fill="#EAAC71"/>
<path d="M673.904 1122.74C810.017 1113.87 827.601 989.264 774.37 841.082C721.18 692.9 762.022 583.082 875.716 570.494C989.41 557.905 1095.99 695.058 1056.91 869.815C1017.82 1044.61 852.737 1205.5 631.863 1212.94L673.944 1122.74H673.904Z" fill="#AE6745"/>
<path d="M707.353 1122.74C843.466 1113.87 856.174 979.354 802.984 831.172C750.113 683.869 795.031 584.481 907.126 570.774C896.776 569.455 886.306 569.336 875.716 570.495C762.022 583.083 721.18 692.9 774.37 841.082C827.561 989.264 809.977 1113.87 673.904 1122.74L631.823 1212.94C643.532 1212.54 655.041 1211.7 666.431 1210.46L707.353 1122.74Z" fill="#C18B71"/>
<path d="M979.859 836.766C977.421 834.208 973.465 834.168 970.947 836.566C963.194 844.079 955.202 852.031 947.169 860.423C934.981 838.484 920.794 815.905 906.088 794.085C919.955 778.899 934.541 763.634 949.247 749.287C955.042 759.637 960.437 770.068 965.272 780.378C966.351 782.696 968.629 784.015 970.987 784.015C971.866 784.015 972.786 783.815 973.665 783.415C976.782 781.897 978.141 778.18 976.662 775.023C971.227 763.474 965.113 751.845 958.639 740.255C964.154 735.06 969.628 730.025 975.143 725.189C977.741 722.872 977.981 718.875 975.703 716.318C973.385 713.72 969.389 713.48 966.831 715.758C961.995 720.074 957.08 724.51 952.205 729.106C937.778 704.529 921.753 680.591 906.208 658.851C911.602 653.536 917.157 648.301 922.752 643.146C925.31 640.828 925.47 636.832 923.152 634.234C920.754 631.637 916.798 631.517 914.24 633.874C909.005 638.71 903.81 643.625 898.695 648.541C888.944 635.273 879.512 622.965 870.92 612.095C868.762 609.377 864.846 608.898 862.088 611.096C859.371 613.254 858.931 617.17 861.089 619.927C869.921 631.117 879.632 643.785 889.703 657.532C872.919 674.317 857.173 691.461 843.146 707.526C818.569 675.875 800.586 654.735 800.106 654.176C797.868 651.538 793.872 651.218 791.275 653.496C788.637 655.774 788.317 659.69 790.555 662.328C791.035 662.887 809.617 684.707 834.754 717.237C817.81 737.138 803.863 754.762 794.312 767.23C786.119 757.16 781.084 751.325 780.844 751.085C778.566 748.448 774.61 748.128 771.972 750.406C769.375 752.684 769.055 756.64 771.333 759.238C771.573 759.517 777.288 766.191 786.519 777.541C782.483 782.936 780.245 786.093 780.165 786.253C778.127 789.09 778.806 793.006 781.644 795.004C782.762 795.804 784.001 796.163 785.28 796.163C787.238 796.163 789.196 795.244 790.395 793.526C790.475 793.406 791.954 791.328 794.631 787.691C807.3 803.636 823.924 825.216 841.428 849.833C825.962 868.656 813.294 884.921 804.702 896.07C801.785 892.034 798.907 888.158 796.11 884.441C794.032 881.724 790.076 881.164 787.278 883.282C784.521 885.4 784.001 889.356 786.119 892.114C789.556 896.59 793.113 901.465 796.749 906.54C794.152 910.017 792.713 911.975 792.593 912.135C790.515 914.893 791.115 918.849 793.952 920.927C795.071 921.726 796.35 922.166 797.629 922.166C799.587 922.166 801.505 921.247 802.744 919.568C802.824 919.488 803.343 918.689 804.342 917.41C817.011 935.993 830.278 957.173 842.786 978.873C829.799 994.618 818.209 1008.97 808.858 1020.71C807.859 1019.44 807.18 1018.64 807.02 1018.44C804.822 1015.76 800.826 1015.4 798.188 1017.6C795.511 1019.8 795.111 1023.75 797.309 1026.43C797.389 1026.51 798.708 1028.11 800.786 1030.86C790.236 1044.17 783.961 1052.32 783.722 1052.68C781.604 1055.44 782.123 1059.4 784.84 1061.52C785.999 1062.4 787.358 1062.83 788.677 1062.83C790.555 1062.83 792.434 1061.96 793.672 1060.36C793.872 1060.04 799.307 1053.04 808.419 1041.49C816.052 1052.72 825.083 1068.19 826.881 1080.42C827.361 1083.54 829.998 1085.81 833.076 1085.81C833.395 1085.81 833.675 1085.81 833.995 1085.73C837.432 1085.25 839.789 1082.06 839.31 1078.62C836.992 1062.75 825.243 1043.61 816.571 1031.26C825.563 1019.95 836.792 1006.05 849.42 990.662C860.17 1009.84 870.201 1029.03 878.553 1046.81C879.632 1049.13 881.91 1050.45 884.228 1050.45C885.147 1050.45 886.026 1050.25 886.945 1049.85C890.063 1048.33 891.421 1044.61 889.943 1041.45C880.831 1022.11 869.801 1001.09 857.972 980.272C869.881 965.885 882.829 950.58 896.297 935.074C903.73 948.182 910.643 961.329 916.758 974.317C917.837 976.635 920.075 977.954 922.472 977.954C923.352 977.954 924.271 977.754 925.11 977.355C928.267 975.836 929.626 972.119 928.107 968.962C921.273 954.456 913.441 939.71 905.048 925.083C917.916 910.417 931.144 895.711 944.252 881.764C946.849 886.799 949.327 891.794 951.605 896.71C952.684 898.988 954.962 900.346 957.28 900.346C958.199 900.346 959.078 900.146 959.997 899.747C963.114 898.268 964.473 894.512 962.994 891.395C959.997 885.081 956.8 878.646 953.364 872.133C962.315 862.821 971.107 853.949 979.619 845.717C982.097 843.279 982.177 839.283 979.779 836.845L979.859 836.766ZM897.136 667.843C912.721 689.623 928.627 713.56 942.853 738.017C927.867 752.524 913.041 767.95 898.854 783.415C882.509 759.637 865.845 737.098 850.979 717.676C864.846 701.691 880.431 684.627 897.136 667.803V667.843ZM802.464 777.301C811.576 765.312 825.483 747.649 842.627 727.427C857.453 746.889 874.037 769.388 890.182 793.006C875.676 809.111 862.009 825.056 849.74 839.803C831.877 814.786 815.012 793.006 802.464 777.301ZM851.378 968.563C838.59 946.663 825.163 925.323 812.375 906.82C820.407 896.27 833.156 879.885 848.981 860.503C862.728 880.325 876.795 901.745 889.663 923.525C876.275 938.91 863.287 954.176 851.338 968.563H851.378ZM898.375 913.574C885.307 891.634 871.08 870.174 857.253 850.433C869.402 835.806 882.949 819.861 897.416 803.756C912.082 825.616 926.149 848.155 938.058 869.975C924.83 884.001 911.443 898.748 898.375 913.574Z" fill="#924921"/>
<path d="M821.806 894.591C820.607 889.475 819.368 884.28 817.97 879.085C812.894 885.519 808.459 891.314 804.742 896.069C801.825 892.033 798.947 888.156 796.15 884.44C794.152 881.842 790.435 881.243 787.718 883.041C789.276 888.756 790.715 894.391 792.034 899.946C793.592 902.143 795.191 904.301 796.79 906.579C795.75 907.978 794.911 909.057 794.272 909.976C795.151 914.052 795.95 918.089 796.63 922.125C796.989 922.205 797.349 922.205 797.669 922.205C799.627 922.205 801.545 921.286 802.784 919.607C802.864 919.527 803.383 918.728 804.382 917.449C813.334 930.557 822.526 944.984 831.597 959.97C831.078 950.738 830.118 941.267 828.76 931.556C823.245 922.964 817.77 914.612 812.375 906.859C815.013 903.382 818.209 899.266 821.806 894.591Z" fill="#A66A49"/>
<path d="M789.556 660.689C790.435 657.972 791.434 655.294 792.473 652.697C792.034 652.897 791.594 653.176 791.234 653.496C789.116 655.334 788.517 658.212 789.556 660.689Z" fill="#A66A49"/>
<path d="M831.677 992.461C823.165 1002.89 815.452 1012.44 808.898 1020.71C807.899 1019.44 807.22 1018.64 807.06 1018.44C805.102 1016.04 801.705 1015.52 799.147 1017C798.548 1020.12 797.948 1023.19 797.229 1026.23C797.229 1026.31 797.309 1026.39 797.349 1026.43C797.389 1026.47 798.748 1028.11 800.826 1030.87C797.908 1034.58 795.311 1037.86 793.073 1040.7C790.635 1047.81 787.718 1054.56 784.281 1060.92C784.481 1061.12 784.641 1061.32 784.881 1061.52C786.039 1062.4 787.398 1062.84 788.717 1062.84C790.595 1062.84 792.473 1061.96 793.712 1060.36C793.912 1060.04 799.347 1053.04 808.459 1041.5C811.256 1045.61 814.253 1050.29 816.971 1055.12C819.169 1050.45 821.127 1045.57 822.805 1040.46C820.687 1037.1 818.609 1033.98 816.611 1031.18C820.367 1026.47 824.524 1021.27 828.959 1015.76C830.278 1008.25 831.157 1000.49 831.677 992.461Z" fill="#A66A49"/>
<path d="M786.519 777.541C782.483 782.936 780.245 786.093 780.165 786.253C778.127 789.09 778.806 793.007 781.643 795.005C782.762 795.804 784.001 796.164 785.28 796.164C787.238 796.164 789.196 795.245 790.395 793.526C790.395 793.446 790.635 793.167 791.035 792.607C787.638 779.259 785.08 766.391 783.402 754.043C781.843 752.205 780.964 751.166 780.844 751.046C778.566 748.408 774.61 748.088 771.972 750.366C769.375 752.644 769.055 756.601 771.333 759.198C771.573 759.478 777.288 766.152 786.519 777.501V777.541Z" fill="#A66A49"/>
<path d="M875.756 570.494C868.523 571.293 862.449 573.611 855.815 575.169C959.838 576.088 1052.11 702.691 1016.03 863.98C980.498 1022.95 836.553 1168.38 641.934 1191.44L631.863 1212.98C852.777 1205.5 1017.86 1044.65 1056.95 869.855C1096.03 695.058 989.45 557.905 875.756 570.494Z" fill="#924921"/>
<path d="M875.756 570.494C868.523 571.293 862.968 572.692 856.334 574.25C960.117 568.775 1052.11 702.69 1016.07 863.98C980.538 1022.95 836.593 1168.38 641.974 1191.44L631.903 1212.98C852.817 1205.5 1017.9 1044.65 1056.99 869.855C1096.07 695.058 989.49 557.905 875.796 570.494H875.756Z" stroke="#592832" stroke-width="21.5799" stroke-linecap="round" stroke-linejoin="round"/>
<path d="M673.904 1122.74C810.017 1113.87 827.601 989.264 774.37 841.082C721.18 692.9 762.022 583.082 875.716 570.494C989.41 557.905 1095.99 695.058 1056.91 869.815C1017.82 1044.61 852.737 1205.5 631.863 1212.94L673.944 1122.74H673.904Z" stroke="#592832" stroke-width="21.5799" stroke-linecap="round" stroke-linejoin="round"/>
<path d="M610.283 687.986C546.902 721.634 464.459 741.936 374.263 741.936C316.197 741.936 261.328 733.503 212.693 718.517C221.405 757.681 228.399 822.501 201.983 885.242C160.222 984.43 92.3256 1201.11 397.761 1201.11C590.062 1201.11 737.085 1014.04 689.689 869.577C667.03 811.631 611.282 761.038 610.283 687.986Z" fill="#EAAC71"/>
<path d="M225.881 885.243C250.778 826.138 245.982 765.195 238.07 725.591C229.438 723.434 220.966 721.076 212.693 718.518C221.405 757.682 228.399 822.501 201.983 885.243C160.222 984.43 92.3256 1201.11 397.761 1201.11C400.998 1201.11 404.195 1201.03 407.392 1200.95C118.381 1194.24 184.759 982.872 225.881 885.243Z" fill="#F5D7BB"/>
<path d="M570.8 1146.32C515.771 1101 474.45 1027.59 465.937 937.914C451.831 789.253 257.332 768.592 212.094 855.591C209.456 865.462 206.14 875.372 201.983 885.243C160.222 984.431 92.3256 1201.11 397.761 1201.11C462.461 1201.11 522.005 1179.93 570.76 1146.32H570.8Z" fill="#FFE5C0"/>
<path d="M467.936 1192.68C472.292 1191.64 476.568 1190.44 480.844 1189.2C482.043 1188.84 483.241 1188.48 484.44 1188.12C487.517 1187.2 490.555 1186.2 493.552 1185.2C494.911 1184.72 496.309 1184.24 497.668 1183.76C500.625 1182.72 503.543 1181.61 506.46 1180.49C507.659 1180.01 508.858 1179.57 510.056 1179.09C518.129 1175.81 526.002 1172.21 533.714 1168.34C534.873 1167.74 536.032 1167.14 537.151 1166.54C539.869 1165.14 542.546 1163.7 545.184 1162.22C546.462 1161.5 547.741 1160.78 549.02 1160.03C551.618 1158.51 554.215 1156.99 556.733 1155.43C557.852 1154.75 559.011 1154.07 560.09 1153.35C563.686 1151.07 567.243 1148.76 570.72 1146.36C567.563 1143.76 564.446 1141.04 561.409 1138.25C560.529 1137.45 559.65 1136.57 558.771 1135.73C556.613 1133.69 554.415 1131.65 552.297 1129.53C551.338 1128.57 550.379 1127.58 549.42 1126.58C547.422 1124.5 545.423 1122.38 543.465 1120.22C542.506 1119.18 541.587 1118.1 540.668 1117.07C538.75 1114.87 536.831 1112.67 534.953 1110.39C505.341 1074.51 482.722 1028.87 471.692 976.237C454.828 1000.97 427.373 1054.84 443.199 1127.46C445.477 1137.89 438.683 1148.2 428.253 1150.55C336.178 1171.49 240.588 1154.67 174.249 1093.41L173.29 1093.25C193.711 1153.79 254.934 1201.15 397.681 1201.15C421.899 1201.15 445.357 1198.19 467.816 1192.72L467.936 1192.68Z" fill="#DBAB7A"/>
<path d="M225.881 885.242C234.633 864.462 239.668 843.481 242.226 823.26C229.478 831.453 219.008 842.243 212.094 855.59C211.495 857.908 210.815 860.186 210.136 862.504C209.976 863.063 209.776 863.663 209.616 864.222C209.097 865.901 208.537 867.619 207.978 869.297C207.738 870.017 207.498 870.776 207.219 871.495C206.659 873.134 206.06 874.732 205.46 876.371C205.22 877.05 204.941 877.73 204.701 878.409C203.822 880.687 202.943 882.925 201.983 885.203C160.222 984.39 92.3256 1201.07 397.761 1201.07C400.798 1201.07 403.795 1200.99 406.833 1200.87C118.501 1193.91 184.799 982.752 225.881 885.203V885.242Z" fill="#FFF7EC"/>
<path d="M689.689 869.576C671.186 822.26 630.664 779.899 615.838 726.189C615.079 723.432 614.399 720.635 613.8 717.797C613.68 717.318 613.6 716.878 613.48 716.398C612.881 713.521 612.321 710.604 611.882 707.647C611.882 707.607 611.882 707.527 611.882 707.487C611.482 704.729 611.162 701.932 610.923 699.095C610.843 698.375 610.803 697.656 610.763 696.937C610.523 694.019 610.363 691.062 610.323 688.025C546.942 721.674 464.499 741.975 374.303 741.975C316.237 741.975 261.368 733.542 212.734 718.556C213.133 720.395 213.533 722.313 213.932 724.231C214.052 724.791 214.172 725.35 214.292 725.95C214.612 727.508 214.892 729.067 215.211 730.665C215.291 731.185 215.411 731.704 215.491 732.264C215.851 734.302 216.21 736.42 216.57 738.538C216.65 739.057 216.73 739.617 216.81 740.136C217.05 741.575 217.249 743.054 217.449 744.572C276.194 773.825 369.947 786.014 474.17 773.945C485.879 771.907 497.348 769.549 508.538 766.831C535.713 760.238 563.727 773.865 574.996 799.521C593.379 841.442 624.03 877.408 639.416 916.772C663.354 989.704 637.698 1073.47 581.71 1138.57C671.067 1071.35 720.021 961.81 689.769 869.616L689.689 869.576Z" fill="#D6823C"/>
<path d="M610.283 687.986C546.902 721.634 464.459 741.936 374.263 741.936C316.197 741.936 261.328 733.503 212.693 718.517C221.405 757.681 228.399 822.5 201.983 885.242C160.222 984.43 92.3256 1201.11 397.761 1201.11C590.062 1201.11 737.085 1014.04 689.689 869.577C667.03 811.631 611.282 761.038 610.283 687.986Z" stroke="#592832" stroke-width="21.5799" stroke-linecap="round" stroke-linejoin="round"/>
<path d="M667.11 824.858C676.821 837.326 718.143 889.677 733.928 915.973C775.689 985.588 783.802 1085.38 728.133 1163.1C672.425 1240.83 559.89 1243.15 509.417 1179.33C434.687 1084.9 463.02 999.815 483.441 961.131C572.758 948.982 617.916 884.123 667.11 824.818V824.858Z" fill="#EAAC71"/>
<path d="M511.215 1143.72C470.573 1065.27 483.481 1002.29 504.022 960.891C508.338 952.219 501.464 942.309 491.793 942.788H491.554C467.936 979.594 432.569 1062.04 499.067 1162.38C532.076 1212.18 601.331 1229.2 660.396 1206.02C601.012 1219.37 537.711 1194.87 511.215 1143.72Z" fill="#F5D7BB"/>
<path d="M733.928 915.974C718.143 889.679 676.821 837.327 667.11 824.859C651.844 843.242 636.978 862.184 621.073 879.888C626.748 887.96 631.823 895.473 635.46 901.547C677.221 971.163 685.333 1070.95 629.665 1148.68C606.966 1180.37 574.756 1199.55 541.187 1206.78C597.775 1239.95 682.216 1227.16 728.133 1163.1C783.841 1085.38 775.689 985.589 733.928 915.974Z" fill="#D6823C"/>
<path d="M497.268 939.191C497.268 939.191 407.512 1050.61 509.417 1179.37C559.93 1243.19 672.465 1240.87 728.133 1163.14C783.842 1085.41 775.689 985.628 733.928 916.013C692.167 846.398 671.147 838.045 650.805 799.401" stroke="#592832" stroke-width="21.5799" stroke-linecap="round" stroke-linejoin="round"/>
<path d="M688.69 1269.84H412.547C412.547 1269.84 419.461 1197.91 509.377 1179.33C599.333 1160.75 693.486 1214.14 698.601 1237.35C703.716 1260.57 688.65 1269.84 688.65 1269.84H688.69Z" fill="#AE6745"/>
<path d="M688.69 1269.84H412.547C412.547 1269.84 419.461 1197.91 509.377 1179.33C599.333 1160.75 693.486 1214.14 698.601 1237.35C703.716 1260.57 688.65 1269.84 688.65 1269.84H688.69Z" fill="#AE6745"/>
<path d="M521.726 1193.47C593.499 1178.65 667.87 1209.62 697.642 1234.56C686.253 1210.18 595.937 1161.5 509.417 1179.37C419.461 1197.95 412.587 1269.88 412.587 1269.88H428.173C435.246 1247.94 456.946 1206.9 521.726 1193.51V1193.47Z" fill="#C18B71"/>
<path d="M698.641 1237.35C696.923 1229.6 685.253 1218.49 667.19 1207.82C664.193 1208.14 661.196 1208.5 658.199 1208.9C624.03 1213.66 601.891 1223.57 587.504 1234.04C574.836 1243.27 559.61 1248.22 543.945 1248.22H418.542C413.427 1260.73 412.507 1269.8 412.507 1269.8H688.65C688.65 1269.8 703.716 1260.53 698.601 1237.31L698.641 1237.35Z" fill="#924921"/>
<path d="M688.69 1269.84H412.547C412.547 1269.84 419.461 1197.91 509.377 1179.33C599.333 1160.75 693.486 1214.14 698.601 1237.35C703.716 1260.57 688.65 1269.84 688.65 1269.84H688.69Z" stroke="#592832" stroke-width="21.5799" stroke-linecap="round" stroke-linejoin="round"/>
<path d="M512.055 1269.84C512.055 1269.84 524.763 1229.96 556.134 1219.85" stroke="#592832" stroke-width="21.5799" stroke-linecap="round" stroke-linejoin="round"/>
<path d="M451.072 1269.84C451.072 1269.84 463.78 1229.96 495.151 1219.85" stroke="#592832" stroke-width="21.5799" stroke-linecap="round" stroke-linejoin="round"/>
<path d="M312.8 1194.15C311.202 1193.87 309.603 1193.55 308.045 1193.23C306.206 1192.88 304.368 1192.48 302.53 1192.08C301.011 1191.76 299.453 1191.4 297.974 1191.08C296.216 1190.68 294.457 1190.24 292.739 1189.8C291.26 1189.44 289.782 1189.08 288.343 1188.68C286.665 1188.24 284.986 1187.76 283.348 1187.28C281.949 1186.88 280.51 1186.48 279.152 1186.04C277.513 1185.56 275.955 1185.04 274.356 1184.52C273.037 1184.08 271.679 1183.64 270.36 1183.2C268.801 1182.64 267.283 1182.09 265.764 1181.53C264.525 1181.05 263.247 1180.61 262.008 1180.13C260.489 1179.53 259.01 1178.89 257.532 1178.29C256.373 1177.81 255.214 1177.33 254.095 1176.85C252.496 1176.17 250.978 1175.41 249.419 1174.69C248.46 1174.25 247.501 1173.81 246.542 1173.37C244.144 1172.21 241.827 1171.02 239.589 1169.78C238.55 1169.22 237.55 1168.62 236.511 1168.02C235.273 1167.3 234.034 1166.62 232.835 1165.9C231.756 1165.26 230.717 1164.58 229.678 1163.9C228.599 1163.22 227.52 1162.54 226.521 1161.86C225.482 1161.14 224.443 1160.43 223.444 1159.71C222.485 1159.03 221.485 1158.35 220.566 1157.67C219.567 1156.91 218.568 1156.15 217.609 1155.39C216.73 1154.71 215.811 1153.99 214.932 1153.27C213.972 1152.47 213.053 1151.67 212.094 1150.87C211.255 1150.16 210.456 1149.48 209.656 1148.72C208.737 1147.88 207.858 1147.04 206.979 1146.2C206.22 1145.48 205.46 1144.76 204.741 1144.04C203.862 1143.16 203.023 1142.28 202.183 1141.4C201.504 1140.68 200.825 1139.92 200.145 1139.21C199.346 1138.29 198.507 1137.41 197.748 1136.49C197.108 1135.77 196.509 1135.01 195.909 1134.29C195.15 1133.33 194.391 1132.37 193.631 1131.41C193.072 1130.69 192.512 1129.93 191.993 1129.21C191.274 1128.22 190.554 1127.22 189.835 1126.22C189.355 1125.5 188.876 1124.78 188.396 1124.02C187.717 1122.98 186.998 1121.94 186.358 1120.86C185.919 1120.18 185.519 1119.46 185.119 1118.74C184.44 1117.63 183.8 1116.55 183.161 1115.39C182.801 1114.75 182.482 1114.15 182.162 1113.51C181.523 1112.27 180.843 1111.07 180.244 1109.83C180.044 1109.43 179.884 1109.03 179.684 1108.63C177.247 1103.56 175.129 1098.4 173.33 1093.09C152.63 1031.79 173.73 956.975 194.311 903.984C108.83 952.979 73.1836 1144.4 235.033 1193.99C270 1203.11 297.095 1201.87 318.115 1194.95C316.317 1194.67 314.519 1194.35 312.76 1194.03L312.8 1194.15Z" fill="#EAAC71"/>
<path d="M185.079 929.679C187.957 921.087 190.954 912.894 193.951 905.102C192.792 904.782 191.593 904.422 190.434 904.103C104.954 953.097 69.3071 1144.52 231.156 1194.11C253.895 1200.03 273.317 1201.59 289.902 1200.07C279.511 1199.19 268.282 1197.31 256.093 1194.11C115.184 1150.91 124.016 1000.21 185.079 929.639V929.679Z" fill="#F5D7BB"/>
<path d="M312.8 1194.15C311.202 1193.87 309.603 1193.55 308.045 1193.23C306.206 1192.88 304.368 1192.48 302.53 1192.08C301.011 1191.76 299.453 1191.4 297.974 1191.08C296.216 1190.68 294.457 1190.24 292.739 1189.8C291.26 1189.44 289.782 1189.08 288.343 1188.68C286.665 1188.24 284.986 1187.76 283.348 1187.28C281.949 1186.88 280.51 1186.48 279.152 1186.04C277.513 1185.56 275.955 1185.04 274.356 1184.52C273.037 1184.08 271.679 1183.64 270.36 1183.2C268.801 1182.64 267.283 1182.09 265.764 1181.53C264.525 1181.05 263.247 1180.61 262.008 1180.13C260.489 1179.53 259.01 1178.89 257.532 1178.29C256.373 1177.81 255.214 1177.33 254.095 1176.85C252.496 1176.17 250.978 1175.41 249.419 1174.69C248.46 1174.25 247.501 1173.81 246.542 1173.37C244.144 1172.21 241.827 1171.02 239.589 1169.78C238.55 1169.22 237.55 1168.62 236.511 1168.02C235.273 1167.3 234.034 1166.62 232.835 1165.9C231.756 1165.26 230.717 1164.58 229.678 1163.9C228.599 1163.22 227.52 1162.54 226.521 1161.86C225.482 1161.14 224.443 1160.43 223.444 1159.71C222.485 1159.03 221.485 1158.35 220.566 1157.67C219.567 1156.91 218.568 1156.15 217.609 1155.39C216.73 1154.71 215.811 1153.99 214.932 1153.27C213.972 1152.47 213.053 1151.67 212.094 1150.87C211.255 1150.16 210.456 1149.48 209.656 1148.72C208.737 1147.88 207.858 1147.04 206.979 1146.2C206.22 1145.48 205.46 1144.76 204.741 1144.04C203.862 1143.16 203.023 1142.28 202.183 1141.4C201.504 1140.68 200.825 1139.92 200.145 1139.21C199.346 1138.29 198.507 1137.41 197.748 1136.49C197.108 1135.77 196.509 1135.01 195.909 1134.29C195.15 1133.33 194.391 1132.37 193.631 1131.41C193.072 1130.69 192.512 1129.93 191.993 1129.21C191.274 1128.22 190.554 1127.22 189.835 1126.22C189.355 1125.5 188.876 1124.78 188.396 1124.02C187.717 1122.98 186.998 1121.94 186.358 1120.86C185.919 1120.18 185.519 1119.46 185.119 1118.74C184.44 1117.63 183.8 1116.55 183.161 1115.39C182.801 1114.75 182.482 1114.15 182.162 1113.51C181.523 1112.27 180.843 1111.07 180.244 1109.83C180.044 1109.43 179.884 1109.03 179.684 1108.63C177.247 1103.56 175.129 1098.4 173.33 1093.09C152.63 1031.79 173.73 956.975 194.311 903.984C108.83 952.979 73.1836 1144.4 235.033 1193.99C270 1203.11 297.095 1201.87 318.115 1194.95C316.317 1194.67 314.519 1194.35 312.76 1194.03L312.8 1194.15Z" stroke="#592832" stroke-width="21.5799" stroke-linecap="round" stroke-linejoin="round"/>
<path d="M363.433 1269.84H87.2901C87.2901 1269.84 94.2037 1197.91 184.12 1179.33C274.076 1160.74 368.228 1214.14 373.344 1237.35C378.459 1260.57 363.393 1269.84 363.393 1269.84H363.433Z" fill="#AE6745"/>
<path d="M363.433 1269.84H87.2901C87.2901 1269.84 94.2037 1197.91 184.12 1179.33C274.076 1160.74 368.228 1214.14 373.344 1237.35C378.459 1260.57 363.393 1269.84 363.393 1269.84H363.433Z" fill="#AE6745"/>
<path d="M196.429 1193.47C268.202 1178.65 342.572 1209.62 372.345 1234.56C360.955 1210.18 270.639 1161.5 184.12 1179.37C94.1639 1197.95 87.2902 1269.88 87.2902 1269.88H102.876C109.949 1247.94 131.649 1206.9 196.429 1193.51V1193.47Z" fill="#C18B71"/>
<path d="M373.384 1237.35C371.665 1229.6 359.996 1218.49 341.933 1207.82C338.936 1208.14 335.939 1208.5 332.942 1208.9C298.773 1213.66 276.634 1223.57 262.247 1234.04C249.579 1243.27 234.353 1248.22 218.688 1248.22H93.2848C88.1696 1260.73 87.2504 1269.8 87.2504 1269.8H363.393C363.393 1269.8 378.459 1260.53 373.344 1237.31L373.384 1237.35Z" fill="#924921"/>
<path d="M186.798 1269.84C186.798 1269.84 199.506 1229.96 230.877 1219.85" stroke="#592832" stroke-width="21.5799" stroke-linecap="round" stroke-linejoin="round"/>
<path d="M125.815 1269.84C125.815 1269.84 138.523 1229.96 169.893 1219.85" stroke="#592832" stroke-width="21.5799" stroke-linecap="round" stroke-linejoin="round"/>
<path d="M315.238 1194.59C314.438 1194.43 313.599 1194.31 312.8 1194.15C311.201 1193.87 309.603 1193.56 308.044 1193.24C306.206 1192.88 304.368 1192.48 302.53 1192.08C301.011 1191.76 299.452 1191.4 297.974 1191.08C296.215 1190.68 294.457 1190.24 292.739 1189.8C291.26 1189.44 289.781 1189.08 288.343 1188.68C286.664 1188.24 284.986 1187.76 283.347 1187.28C281.949 1186.88 280.51 1186.48 279.151 1186.04C277.513 1185.56 275.954 1185.04 274.356 1184.52C273.037 1184.08 271.678 1183.64 270.359 1183.2C268.801 1182.65 267.282 1182.09 265.764 1181.53C264.525 1181.05 263.246 1180.61 262.007 1180.13C260.489 1179.53 259.01 1178.89 257.531 1178.29C257.452 1178.29 257.412 1178.25 257.332 1178.21C233.913 1174.57 208.857 1174.21 184.12 1179.29C94.1637 1197.87 87.2901 1269.8 87.2901 1269.8H363.433C363.433 1269.8 378.499 1260.53 373.384 1237.31C370.946 1226.24 348.127 1208.26 315.238 1194.55V1194.59Z" stroke="#592832" stroke-width="21.5799" stroke-linecap="round" stroke-linejoin="round"/>
<path d="M301.291 136.699C221.525 166.671 116.423 69.6816 42.4522 136.699C-10.2987 184.455 48.6464 270.055 112.467 287.199L301.291 136.699Z" fill="#EAAC71"/>
<path d="M32.7011 162.795C97.6406 104.01 186.518 171.467 261.208 168.629L301.291 136.699C221.525 166.671 116.423 69.6816 42.452 136.699C30.2634 147.729 24.1092 160.757 22.5107 174.504C25.308 170.428 28.6249 166.471 32.7011 162.795Z" fill="#F5D7BB"/>
<path d="M301.291 136.699C221.525 166.671 116.423 69.6816 42.4522 136.699C-10.2987 184.455 48.6464 270.055 112.467 287.199L301.291 136.699Z" stroke="#592832" stroke-width="21.5799" stroke-linecap="round" stroke-linejoin="round"/>
<path d="M41.6526 235.967C58.7966 260.024 85.1721 279.846 112.467 287.199L188.156 226.895C93.0447 101.452 16.1164 196.963 41.6926 236.006L41.6526 235.967Z" fill="#EE857B"/>
<path d="M73.1833 221.58C62.8329 205.754 69.3069 180.658 86.9705 164.752C47.4873 169.628 26.4667 212.748 41.6526 235.966C58.7966 260.024 85.1721 279.845 112.467 287.198L134.406 269.695C110.628 260.743 88.3292 242.8 73.1833 221.58Z" fill="#FFBAB0"/>
<path d="M41.6526 235.967C58.7966 260.024 85.1721 279.846 112.467 287.199L188.156 226.895C93.0447 101.452 16.1164 196.963 41.6926 236.006L41.6526 235.967Z" stroke="#592832" stroke-width="21.5799" stroke-linecap="round" stroke-linejoin="round"/>
<path d="M727.374 136.699C671.146 100.253 600.732 146.33 551.858 158.359C500.785 126.029 442.679 106.727 381.057 106.727C177.406 106.727 12.2802 334.755 12.2802 514.587C12.2802 640.15 177.366 741.975 381.057 741.975C584.747 741.975 749.833 640.19 749.833 514.587C749.833 448.928 731.57 381.831 699.72 321.527C792.793 276.529 803.024 185.733 727.374 136.699Z" fill="#EAAC71"/>
<path d="M731.131 139.298C745.837 184.016 722.738 236.208 661.395 269.616C696.643 329.201 718.462 396.338 721.659 462.916C727.814 590.238 565.365 701.534 358.877 711.525C259.13 716.36 167.336 696.619 98.3999 660.612C166.057 710.366 267.562 741.976 381.057 741.976C584.707 741.976 749.833 640.191 749.833 514.588C749.833 448.929 731.57 381.832 699.72 321.528C791.195 277.289 802.584 188.852 731.131 139.298Z" fill="#D6823C"/>
<path d="M727.374 136.701C671.146 100.255 600.732 146.332 551.857 158.361C543.265 152.926 534.474 147.89 525.522 143.215L522.005 149.928C561.009 183.138 588.623 179.141 631.943 159.2C682.016 136.141 766.777 151.927 777.487 222.821C778.926 190.93 762.341 159.36 727.374 136.701Z" fill="#F5D7BB"/>
<path d="M43.0116 514.587C43.0116 339.27 199.985 118.116 396.602 107.207C391.447 106.927 386.252 106.727 381.057 106.727C177.406 106.727 12.2802 334.755 12.2802 514.587C12.2802 640.15 177.366 741.975 381.057 741.975C386.212 741.975 391.327 741.895 396.402 741.775C199.865 736.82 43.0116 637.033 43.0116 514.627V514.587Z" fill="#F5D7BB"/>
<path d="M324.309 199.88C289.862 164.673 256.493 152.285 229.078 149.927C205.3 163.834 182.841 180.618 162.061 199.6C178.325 240.842 250.139 265.499 324.269 199.88H324.309Z" fill="#D6823C"/>
<path d="M727.374 136.699C671.146 100.253 600.732 146.33 551.858 158.359C500.785 126.029 442.679 106.727 381.057 106.727C177.406 106.727 12.2802 334.755 12.2802 514.587C12.2802 640.15 177.366 741.975 381.057 741.975C584.747 741.975 749.833 640.19 749.833 514.587C749.833 448.928 731.57 381.831 699.72 321.527C792.793 276.529 803.024 185.733 727.374 136.699V136.699Z" stroke="#592832" stroke-width="21.5799" stroke-linecap="round" stroke-linejoin="round"/>
<path d="M777.168 210.27C785.28 241.401 755.787 294.032 700.799 321.047C680.498 285.281 656.24 251.192 626.268 219.542C626.268 219.542 754.988 125.509 777.168 210.31V210.27Z" fill="white"/>
<path d="M777.168 210.27C785.28 241.401 755.787 294.032 700.799 321.047C680.498 285.281 656.24 251.192 626.268 219.542C626.268 219.542 754.988 125.509 777.168 210.31V210.27Z" fill="#EE857B"/>
<path d="M777.168 210.27C770.574 185.054 754.549 175.663 735.287 174.903C741.041 180.738 745.437 188.89 747.875 200.08C753.909 227.654 730.331 270.614 686.612 297.469C691.527 305.262 696.283 313.095 700.799 321.047C755.787 294.072 785.28 241.401 777.168 210.27Z" fill="#FFBAB0"/>
<path d="M777.168 210.27C785.28 241.401 755.787 294.032 700.799 321.047C680.498 285.281 656.24 251.192 626.268 219.542C626.268 219.542 754.988 125.509 777.168 210.31V210.27Z" stroke="#592832" stroke-width="21.5799" stroke-linecap="round" stroke-linejoin="round"/>
<path d="M504.741 133.343C492.633 128.188 477.407 122.473 459.344 117.198C302.69 79.5934 244.544 -32.2624 214.412 29.7997C184.28 91.8619 266.403 131.065 266.403 131.065C266.403 131.065 196.628 137.06 198.427 178.741C200.265 220.502 294.177 231.931 342.053 186.734C407.192 182.138 464.299 167.871 504.741 133.343Z" fill="#EAAC71"/>
<path d="M463.58 141.655C517.17 148.209 529.159 152.845 537.391 155.882C547.182 150.327 496.309 140.536 504.781 133.343C492.673 128.188 477.447 122.473 459.384 117.198C302.73 79.5928 244.584 -32.223 214.452 29.7992C210.975 36.8726 209.057 43.6663 208.218 50.1402C239.309 1.5455 298.534 112.123 463.62 141.655H463.58Z" fill="#F5D7BB"/>
<path d="M262.847 131.505C254.215 132.664 231.636 136.581 215.651 147.61C242.706 159.16 289.702 164.235 314.559 141.056C294.058 140.217 276.794 137.06 262.847 131.465V131.505Z" fill="#D6823C"/>
<path d="M538.15 150.048C538.15 150.048 509.817 131.905 459.344 117.198C302.69 79.5934 244.544 -32.2624 214.412 29.7997C184.28 91.8619 266.403 131.065 266.403 131.065C266.403 131.065 196.628 137.06 198.427 178.741C200.265 220.502 294.177 231.931 342.053 186.734" stroke="#592832" stroke-width="21.5799" stroke-linecap="round" stroke-linejoin="round"/>
<path d="M319.034 136.181C319.034 136.181 264.365 142.136 239.828 113.562" stroke="#592832" stroke-width="21.5799" stroke-linecap="round" stroke-linejoin="round"/>
<path d="M116.423 512.429C141.584 512.429 161.981 488.006 161.981 457.88C161.981 427.753 141.584 403.331 116.423 403.331C91.2625 403.331 70.8658 427.753 70.8658 457.88C70.8658 488.006 91.2625 512.429 116.423 512.429Z" fill="#592832"/>
<path d="M131.089 460.079C137.711 460.079 143.078 454.246 143.078 447.051C143.078 439.856 137.711 434.023 131.089 434.023C124.468 434.023 119.101 439.856 119.101 447.051C119.101 454.246 124.468 460.079 131.089 460.079Z" fill="white"/>
<path d="M469.854 541.682C505.653 541.682 534.674 512.661 534.674 476.863C534.674 441.064 505.653 412.043 469.854 412.043C434.055 412.043 405.034 441.064 405.034 476.863C405.034 512.661 434.055 541.682 469.854 541.682Z" fill="#592832"/>
<path d="M444.398 478.941C453.204 478.941 460.343 471.802 460.343 462.995C460.343 454.189 453.204 447.05 444.398 447.05C435.592 447.05 428.453 454.189 428.453 462.995C428.453 471.802 435.592 478.941 444.398 478.941Z" fill="white"/>
<path d="M302.17 574.012C330.399 574.012 353.282 553.633 353.282 528.495C353.282 503.356 330.399 482.977 302.17 482.977C273.941 482.977 251.058 503.356 251.058 528.495C251.058 553.633 273.941 574.012 302.17 574.012Z" fill="#FFE5C0"/>
<path d="M222.245 566.658C243.411 566.658 260.569 548.588 260.569 526.296C260.569 504.004 243.411 485.934 222.245 485.934C201.079 485.934 183.92 504.004 183.92 526.296C183.92 548.588 201.079 566.658 222.245 566.658Z" fill="#FFE5C0"/>
<path d="M254.055 545.999C223.044 547.198 203.702 493.528 221.605 486.414C239.509 479.301 286.625 481.579 288.983 497.284C291.34 512.989 279.711 545 254.055 545.999Z" fill="#DBAB7A"/>
<path d="M253.456 530.653C222.445 531.851 203.582 491.329 221.565 485.734C239.549 480.18 286.625 481.458 288.823 493.367C291.021 505.276 279.112 529.654 253.456 530.653Z" fill="#592832"/>
<path d="M350.725 530.613C347.808 554.911 327.147 573.773 302.05 573.773C274.955 573.773 253.016 551.834 253.016 524.739" stroke="#592832" stroke-width="21.5799" stroke-linecap="round" stroke-linejoin="round"/>
<path d="M256.453 545.918C249.899 558.826 235.952 567.058 220.686 565.619C200.745 563.741 186.118 546.078 187.997 526.136" stroke="#592832" stroke-width="21.5799" stroke-linecap="round" stroke-linejoin="round"/>
<path d="M220.686 565.62C220.686 565.62 221.206 567.259 222.125 570.016C226.401 582.884 239.069 619.77 244.544 621.968C251.178 624.645 291.98 626.404 296.416 621.968C300.851 617.532 307.126 573.493 307.126 573.493C307.126 573.493 277.713 579.168 257.252 548.077C257.252 548.077 237.67 571.695 220.726 565.62H220.686Z" fill="white"/>
<path d="M307.126 573.493C307.126 573.493 277.713 579.168 257.252 548.077C257.252 548.077 237.67 571.695 220.726 565.62C220.726 565.62 221.246 567.259 222.165 570.016C223.683 574.532 226.201 582.005 229.078 589.878C238.629 588.879 250.858 585.722 259.21 576.93C268.362 591.117 288.823 595.353 303.569 595.473C305.647 584.123 307.166 573.493 307.166 573.493H307.126Z" fill="#C6AEA7"/>
<path d="M220.686 565.62C220.686 565.62 221.206 567.259 222.125 570.016C226.401 582.884 239.069 619.77 244.544 621.968C251.178 624.645 291.98 626.404 296.416 621.968C300.851 617.532 307.126 573.493 307.126 573.493C307.126 573.493 277.713 579.168 257.252 548.077C257.252 548.077 237.67 571.695 220.726 565.62H220.686Z" stroke="#592832" stroke-width="21.5799" stroke-linecap="round" stroke-linejoin="round"/>
<path d="M266.484 620.009C266.484 620.009 257.292 575.65 257.252 548.116" stroke="#592832" stroke-width="9.19144" stroke-linecap="round" stroke-linejoin="round"/>
<path d="M513.493 808.992C517.409 822.459 519.167 858.586 490.874 883.402C462.58 908.219 463.02 915.612 443.878 963.887C424.736 1012.16 355.56 1016.08 337.297 956.055C317.276 864.7 378.618 842.481 400.398 791.608C443.398 796.164 481.083 801.998 513.533 808.992H513.493Z" fill="#EAAC71"/>
<path d="M507.699 814.587C507.099 832.69 492.633 852.751 473.491 863.182C454.348 873.612 436.365 893.913 430.171 917.971C425.455 936.194 419.101 986.547 393.885 1000.53C414.625 999.614 434.886 986.707 443.918 963.888C463.06 915.613 462.621 908.18 490.914 883.403C509.337 867.218 515.012 846.237 515.651 829.853C513.293 824.857 510.656 819.742 507.739 814.547L507.699 814.587Z" fill="#D6823C"/>
<path d="M365.191 958.771C348.847 884.121 386.811 855.627 413.107 819.981C421.259 808.911 414.346 793.086 400.678 791.647H400.399C378.659 842.52 317.316 864.699 337.297 956.094C347.847 990.781 375.382 1004.09 400.478 999.853C385.213 993.979 371.865 980.671 365.191 958.811V958.771Z" fill="#F5D7BB"/>
<path d="M371.985 888.797C359.757 888.797 347.928 890.595 336.858 893.872C332.462 910.657 331.703 930.718 337.297 956.094C355.56 1016.12 424.736 1012.2 443.878 963.927C450.632 946.823 454.988 934.874 458.984 925.443C437.724 902.984 406.633 888.797 371.985 888.797Z" fill="#AE6745"/>
<path d="M446.756 956.613C447.235 955.414 447.675 954.215 448.114 953.056C448.314 952.497 448.554 951.897 448.754 951.378C448.874 951.058 448.993 950.738 449.113 950.419C453.07 940.148 456.107 932.116 458.944 925.402C451.791 917.849 443.519 911.255 434.367 905.78C432.649 909.697 431.17 913.773 430.091 917.929C425.375 936.152 419.021 986.505 393.805 1000.49C394.924 1000.45 396.083 1000.33 397.202 1000.21C397.401 1000.21 397.601 1000.21 397.801 1000.17C398.84 1000.05 399.839 999.893 400.878 999.693C401.158 999.653 401.478 999.613 401.757 999.533C402.717 999.333 403.636 999.133 404.595 998.894C404.954 998.814 405.314 998.734 405.674 998.614C406.553 998.374 407.432 998.094 408.311 997.815C408.711 997.695 409.151 997.535 409.55 997.415C410.389 997.135 411.189 996.816 411.988 996.496C412.428 996.296 412.907 996.136 413.347 995.936C414.106 995.617 414.865 995.257 415.625 994.857C416.104 994.618 416.584 994.378 417.063 994.138C417.782 993.778 418.462 993.379 419.181 992.979C419.661 992.699 420.18 992.38 420.66 992.1C421.339 991.7 421.979 991.261 422.618 990.821C423.138 990.461 423.617 990.102 424.097 989.742C424.696 989.303 425.296 988.823 425.895 988.383C426.415 987.984 426.894 987.544 427.414 987.145C427.973 986.665 428.532 986.185 429.052 985.706C429.571 985.226 430.051 984.747 430.531 984.267C431.05 983.748 431.53 983.268 432.009 982.749C432.529 982.229 433.008 981.63 433.488 981.07C433.927 980.551 434.407 980.031 434.847 979.472C435.326 978.872 435.806 978.233 436.285 977.593C436.685 977.074 437.085 976.514 437.444 975.995C437.924 975.276 438.403 974.556 438.843 973.797C439.163 973.277 439.522 972.758 439.842 972.198C440.322 971.359 440.801 970.44 441.241 969.561C441.48 969.081 441.76 968.642 441.96 968.162C442.639 966.764 443.279 965.365 443.838 963.886C444.598 961.968 445.317 960.17 445.996 958.371C446.236 957.772 446.436 957.212 446.676 956.613H446.756Z" fill="#924921"/>
<path d="M340.095 963.728C340.614 964.967 341.134 966.206 341.733 967.405C342.053 968.084 342.373 968.683 342.732 969.323C343.292 970.402 343.851 971.441 344.451 972.44C344.81 973.039 345.17 973.679 345.57 974.278C346.169 975.277 346.809 976.197 347.488 977.156C347.848 977.675 348.247 978.235 348.647 978.754C349.366 979.713 350.125 980.632 350.925 981.551C351.284 981.951 351.604 982.351 351.964 982.75C353.003 983.909 354.082 984.988 355.161 986.027C355.281 986.107 355.361 986.227 355.441 986.347C356.719 987.506 357.998 988.625 359.317 989.664C359.397 989.704 359.477 989.784 359.557 989.824C360.796 990.743 362.034 991.622 363.313 992.461C363.553 992.621 363.833 992.781 364.112 992.941C365.231 993.62 366.35 994.26 367.509 994.859C367.789 995.019 368.109 995.139 368.388 995.299C369.547 995.858 370.746 996.378 371.905 996.857C372.145 996.977 372.425 997.057 372.664 997.177C373.983 997.696 375.302 998.136 376.661 998.536C376.781 998.536 376.9 998.616 377.02 998.655C384.693 1000.85 392.766 1001.21 400.559 999.934C385.293 994.06 371.945 980.752 365.271 958.893C358.837 929.56 360.835 907.381 367.15 889.078C356.679 889.477 346.529 891.116 336.938 893.953C336.418 895.951 335.939 897.989 335.539 900.107C335.459 900.507 335.379 900.947 335.299 901.346C334.98 903.065 334.7 904.783 334.46 906.541C334.38 907.181 334.3 907.78 334.22 908.42C334.02 910.018 333.861 911.657 333.741 913.295C333.701 914.054 333.621 914.814 333.581 915.613C333.501 917.171 333.461 918.77 333.421 920.408C333.421 921.288 333.421 922.167 333.421 923.046C333.421 924.645 333.461 926.283 333.541 927.921C333.581 928.881 333.621 929.8 333.661 930.799C333.781 932.477 333.941 934.196 334.1 935.914C334.18 936.913 334.26 937.872 334.38 938.871C334.62 940.749 334.9 942.668 335.179 944.626C335.299 945.545 335.419 946.424 335.579 947.343C336.059 950.221 336.618 953.178 337.297 956.175C337.937 958.213 338.616 960.171 339.336 962.05C339.575 962.649 339.855 963.249 340.095 963.848V963.728Z" fill="#C18B71"/>
<path d="M400.399 791.608C378.659 842.52 317.316 864.7 337.297 956.055C355.56 1016.08 424.736 1012.16 443.878 963.887C463.02 915.612 462.581 908.179 490.874 883.402C519.168 858.586 517.41 822.499 513.493 808.992" stroke="#592832" stroke-width="21.5799" stroke-linecap="round" stroke-linejoin="round"/>
<path d="M403.876 948.142C403.876 948.142 389.529 964.327 392.526 992.74" stroke="#592832" stroke-width="18.0232" stroke-linecap="round" stroke-linejoin="round"/>
<path d="M367.15 937.911C367.15 937.911 352.803 954.096 355.8 982.509" stroke="#592832" stroke-width="18.0232" stroke-linecap="round" stroke-linejoin="round"/>
<path d="M212.694 718.516C175.248 729.306 143.997 803.437 144.557 853.311C145.156 903.184 182.841 973.958 217.649 993.7C252.456 1013.44 294.817 988.465 293.658 949.021C292.659 914.494 275.195 860.464 217.609 822.22C223.004 789.89 220.526 755.042 212.694 718.516Z" fill="#EAAC71"/>
<path d="M241.746 993.701C206.939 973.959 169.214 903.185 168.655 853.311C168.175 813.349 188.156 757.92 215.331 731.825C214.532 727.389 213.653 722.953 212.694 718.477C175.248 729.267 143.997 803.398 144.557 853.271C145.156 903.145 182.841 973.919 217.649 993.661C230.037 1000.69 243.345 1002.01 255.334 999.096C250.738 997.977 246.182 996.178 241.707 993.661L241.746 993.701Z" fill="#F5D7BB"/>
<path d="M174.329 945.665C187.197 967.284 202.663 985.228 217.649 993.7C252.457 1013.44 294.817 988.465 293.658 949.021C293.179 933.076 289.182 912.935 279.352 892.114C272.878 890.676 266.204 889.917 259.29 889.917C221.246 889.917 188.596 912.855 174.329 945.665Z" fill="#AE6745"/>
<path d="M222.964 996.337C224.163 996.857 225.362 997.336 226.601 997.736C226.801 997.816 227.04 997.896 227.24 997.975C228.679 998.455 230.157 998.855 231.596 999.214C231.836 999.254 232.076 999.334 232.315 999.374C233.634 999.654 234.913 999.894 236.232 1000.09C236.432 1000.09 236.631 1000.17 236.831 1000.17C239.908 1000.57 242.946 1000.69 245.943 1000.53C246.023 1000.53 246.142 1000.53 246.222 1000.53C249.3 1000.33 252.337 999.894 255.294 999.174C250.698 998.055 246.143 996.257 241.667 993.739C222.005 982.59 201.464 955.215 187.157 924.484C181.962 930.918 177.606 938.031 174.289 945.704C177.367 950.899 180.644 955.895 183.96 960.57C184.16 960.85 184.32 961.09 184.52 961.37C185.199 962.289 185.879 963.208 186.558 964.127C186.838 964.487 187.117 964.846 187.397 965.206C188.037 966.045 188.676 966.884 189.315 967.684C189.635 968.083 189.955 968.483 190.315 968.923C190.954 969.682 191.553 970.481 192.193 971.2C192.552 971.64 192.912 972.04 193.272 972.439C193.871 973.159 194.511 973.878 195.11 974.557C195.47 974.957 195.869 975.357 196.229 975.756C197.228 976.875 198.267 977.954 199.266 978.993C199.826 979.553 200.345 980.112 200.905 980.672C201.384 981.111 201.824 981.551 202.303 981.99C202.863 982.51 203.422 983.069 203.982 983.589C204.421 983.988 204.901 984.388 205.341 984.788C205.94 985.307 206.5 985.787 207.099 986.266C207.539 986.626 207.978 986.986 208.418 987.345C209.017 987.825 209.656 988.305 210.256 988.784C210.656 989.104 211.055 989.423 211.495 989.703C212.174 990.183 212.854 990.662 213.533 991.142C213.853 991.382 214.212 991.621 214.532 991.821C215.571 992.501 216.57 993.1 217.609 993.699C219.008 994.499 220.407 995.178 221.805 995.817C222.165 995.977 222.564 996.137 222.924 996.297L222.964 996.337Z" fill="#C18B71"/>
<path d="M212.694 718.516C175.248 729.306 143.997 803.437 144.557 853.311C145.156 903.184 182.841 973.958 217.649 993.7C252.456 1013.44 294.817 988.465 293.658 949.021C292.659 914.494 275.195 860.464 217.609 822.22C223.004 789.89 220.526 755.042 212.694 718.516V718.516Z" stroke="#592832" stroke-width="21.5799" stroke-linecap="round" stroke-linejoin="round"/>
<path d="M190.394 806.914C200.345 811.629 209.377 816.784 217.609 822.219" stroke="#592832" stroke-width="21.5799" stroke-linecap="round" stroke-linejoin="round"/>
<path d="M222.405 954.536C222.405 954.536 239.429 967.884 241.507 996.377" stroke="#592832" stroke-width="18.0232" stroke-linecap="round" stroke-linejoin="round"/>
<path d="M256.733 937.913C256.733 937.913 273.757 951.26 275.835 979.754" stroke="#592832" stroke-width="18.0232" stroke-linecap="round" stroke-linejoin="round"/>
</g>
<defs>
<clipPath id="clip0_971_240">
<rect width="1075.08" height="1281" fill="white" transform="translate(0.958893)"/>
</clipPath>
</defs>
</svg>
