<svg width="1389" height="1281" viewBox="0 0 1389 1281" fill="none" xmlns="http://www.w3.org/2000/svg">
<path d="M854.791 939.545C968.71 932.119 983.426 827.833 938.876 703.814C894.358 579.794 928.541 487.883 1023.7 477.348C1118.85 466.812 1208.05 581.6 1175.34 727.862C1142.63 874.157 1004.46 1008.81 819.605 1015.03L854.825 939.545H854.791Z" fill="#EAAC71"/>
<path d="M854.791 939.545C968.71 932.119 983.426 827.833 938.876 703.814C894.358 579.794 928.541 487.883 1023.7 477.348C1118.85 466.812 1208.05 581.6 1175.34 727.862C1142.63 874.157 1004.46 1008.81 819.605 1015.03L854.825 939.545H854.791Z" fill="#AE6745"/>
<path d="M882.787 939.545C996.706 932.12 1007.34 819.539 962.824 695.52C918.575 572.236 956.169 489.054 1049.99 477.582C1041.32 476.479 1032.56 476.378 1023.7 477.348C928.542 487.884 894.36 579.795 938.877 703.814C983.394 827.834 968.678 932.12 854.792 939.545L819.573 1015.03C829.373 1014.7 839.006 1014 848.538 1012.96L882.787 939.545Z" fill="#C18B71"/>
<path d="M1110.86 700.202C1108.82 698.061 1105.51 698.028 1103.4 700.034C1096.91 706.322 1090.22 712.978 1083.5 720.002C1073.3 701.64 1061.43 682.742 1049.12 664.481C1060.72 651.771 1072.93 638.995 1085.24 626.987C1090.09 635.65 1094.6 644.379 1098.65 653.009C1099.55 654.948 1101.46 656.052 1103.43 656.052C1104.17 656.052 1104.94 655.885 1105.68 655.55C1108.28 654.28 1109.42 651.169 1108.18 648.527C1103.64 638.861 1098.52 629.128 1093.1 619.428C1097.72 615.08 1102.3 610.866 1106.91 606.819C1109.09 604.879 1109.29 601.534 1107.38 599.394C1105.44 597.22 1102.1 597.019 1099.96 598.926C1095.91 602.538 1091.8 606.25 1087.71 610.097C1075.64 589.527 1062.23 569.493 1049.22 551.298C1053.73 546.849 1058.38 542.468 1063.06 538.153C1065.21 536.213 1065.34 532.869 1063.4 530.695C1061.39 528.521 1058.08 528.42 1055.94 530.394C1051.56 534.441 1047.21 538.555 1042.93 542.669C1034.77 531.564 1026.88 521.263 1019.68 512.165C1017.88 509.891 1014.6 509.49 1012.29 511.329C1010.02 513.135 1009.65 516.413 1011.46 518.721C1018.85 528.086 1026.98 538.689 1035.4 550.194C1021.36 564.242 1008.18 578.59 996.439 592.036C975.87 565.546 960.819 547.853 960.417 547.385C958.544 545.177 955.2 544.91 953.026 546.816C950.818 548.722 950.551 552 952.424 554.208C952.825 554.676 968.378 572.938 989.416 600.163C975.234 616.819 963.561 631.569 955.568 642.005C948.711 633.576 944.497 628.693 944.296 628.492C942.39 626.285 939.079 626.017 936.871 627.924C934.697 629.83 934.43 633.141 936.336 635.315C936.537 635.549 941.319 641.135 949.046 650.634C945.668 655.149 943.795 657.791 943.728 657.925C942.022 660.3 942.59 663.578 944.965 665.25C945.902 665.919 946.939 666.22 948.009 666.22C949.648 666.22 951.287 665.451 952.29 664.012C952.357 663.912 953.594 662.173 955.835 659.129C966.438 672.474 980.351 690.535 995.001 711.139C982.057 726.892 971.455 740.505 964.264 749.836C961.822 746.458 959.414 743.214 957.073 740.103C955.334 737.829 952.022 737.361 949.681 739.133C947.373 740.906 946.938 744.217 948.711 746.525C951.588 750.271 954.564 754.351 957.608 758.599C955.434 761.509 954.23 763.148 954.129 763.282C952.39 765.589 952.892 768.901 955.267 770.64C956.203 771.309 957.273 771.677 958.344 771.677C959.983 771.677 961.588 770.907 962.625 769.503C962.692 769.436 963.127 768.767 963.963 767.697C974.565 783.249 985.669 800.976 996.138 819.137C985.268 832.315 975.569 844.322 967.742 854.156C966.906 853.085 966.337 852.416 966.204 852.249C964.364 850.008 961.02 849.707 958.812 851.547C956.571 853.386 956.237 856.698 958.076 858.939C958.143 859.005 959.247 860.343 960.986 862.651C952.156 873.789 946.905 880.612 946.704 880.913C944.932 883.221 945.366 886.532 947.641 888.305C948.611 889.04 949.748 889.408 950.852 889.408C952.424 889.408 953.996 888.672 955.033 887.335C955.2 887.067 959.749 881.214 967.374 871.548C973.763 880.946 981.321 893.89 982.827 904.125C983.228 906.734 985.435 908.64 988.011 908.64C988.278 908.64 988.512 908.64 988.78 908.573C991.656 908.172 993.63 905.496 993.228 902.62C991.288 889.341 981.455 873.32 974.197 862.986C981.723 853.52 991.121 841.881 1001.69 829.004C1010.69 845.058 1019.08 861.113 1026.07 875.996C1026.98 877.936 1028.88 879.04 1030.82 879.04C1031.59 879.04 1032.33 878.873 1033.1 878.538C1035.71 877.267 1036.84 874.157 1035.61 871.514C1027.98 855.326 1018.75 837.733 1008.85 820.308C1018.81 808.267 1029.65 795.457 1040.92 782.48C1047.14 793.45 1052.93 804.454 1058.05 815.324C1058.95 817.264 1060.82 818.368 1062.83 818.368C1063.57 818.368 1064.34 818.201 1065.04 817.866C1067.68 816.595 1068.82 813.485 1067.55 810.842C1061.83 798.701 1055.27 786.36 1048.25 774.118C1059.02 761.843 1070.09 749.535 1081.06 737.862C1083.23 742.077 1085.31 746.257 1087.21 750.371C1088.12 752.278 1090.02 753.415 1091.96 753.415C1092.73 753.415 1093.47 753.248 1094.24 752.913C1096.85 751.676 1097.98 748.532 1096.75 745.923C1094.24 740.638 1091.56 735.253 1088.68 729.802C1096.18 722.009 1103.53 714.583 1110.66 707.694C1112.73 705.653 1112.8 702.309 1110.79 700.268L1110.86 700.202ZM1041.63 558.823C1054.67 577.052 1067.98 597.086 1079.89 617.555C1067.35 629.696 1054.94 642.607 1043.06 655.55C1029.38 635.65 1015.44 616.786 1002.99 600.531C1014.6 587.152 1027.64 572.871 1041.63 558.79V558.823ZM962.391 650.433C970.017 640.399 981.656 625.616 996.005 608.692C1008.41 624.98 1022.29 643.811 1035.81 663.578C1023.66 677.057 1012.23 690.402 1001.96 702.743C987.007 681.806 972.893 663.578 962.391 650.433ZM1003.33 810.508C992.626 792.179 981.388 774.319 970.686 758.833C977.408 750.003 988.078 736.29 1001.32 720.069C1012.83 736.658 1024.6 754.585 1035.37 772.814C1024.17 785.691 1013.3 798.467 1003.3 810.508H1003.33ZM1042.66 764.486C1031.73 746.124 1019.82 728.163 1008.25 711.64C1018.41 699.399 1029.75 686.054 1041.86 672.575C1054.13 690.87 1065.91 709.734 1075.87 727.996C1064.8 739.735 1053.6 752.077 1042.66 764.486Z" fill="#924921"/>
<path d="M978.578 748.598C977.574 744.317 976.537 739.969 975.367 735.621C971.119 741.005 967.407 745.855 964.296 749.835C961.854 746.457 959.446 743.213 957.105 740.102C955.433 737.928 952.322 737.427 950.048 738.932C951.352 743.715 952.556 748.431 953.66 753.08C954.965 754.919 956.302 756.725 957.64 758.632C956.771 759.802 956.068 760.705 955.533 761.475C956.269 764.886 956.938 768.264 957.506 771.642C957.807 771.709 958.109 771.709 958.376 771.709C960.015 771.709 961.62 770.94 962.657 769.535C962.724 769.468 963.159 768.799 963.995 767.729C971.487 778.7 979.18 790.774 986.772 803.316C986.337 795.59 985.535 787.663 984.397 779.536C979.782 772.345 975.2 765.355 970.684 758.866C972.892 755.956 975.568 752.511 978.578 748.598Z" fill="#A66A49"/>
<path d="M951.588 552.836C952.324 550.561 953.16 548.321 954.029 546.146C953.661 546.314 953.293 546.548 952.992 546.815C951.22 548.354 950.718 550.762 951.588 552.836Z" fill="#A66A49"/>
<path d="M986.84 830.508C979.716 839.238 973.261 847.232 967.776 854.155C966.94 853.085 966.371 852.416 966.237 852.249C964.599 850.242 961.756 849.807 959.615 851.044C959.113 853.653 958.612 856.229 958.009 858.771C958.009 858.838 958.076 858.904 958.11 858.938C958.143 858.971 959.28 860.343 961.02 862.65C958.578 865.761 956.404 868.504 954.531 870.878C952.491 876.832 950.049 882.484 947.173 887.802C947.34 887.969 947.474 888.137 947.675 888.304C948.644 889.04 949.782 889.408 950.885 889.408C952.457 889.408 954.029 888.672 955.066 887.334C955.233 887.066 959.782 881.213 967.408 871.547C969.749 874.992 972.258 878.905 974.532 882.952C976.372 879.039 978.01 874.959 979.415 870.678C977.643 867.868 975.903 865.259 974.231 862.918C977.375 858.971 980.853 854.623 984.566 850.008C985.67 843.72 986.406 837.231 986.84 830.508Z" fill="#A66A49"/>
<path d="M949.046 650.634C945.668 655.149 943.795 657.791 943.728 657.925C942.022 660.3 942.59 663.577 944.965 665.25C945.902 665.919 946.939 666.22 948.009 666.22C949.648 666.22 951.287 665.45 952.29 664.012C952.29 663.945 952.491 663.711 952.825 663.243C949.982 652.072 947.842 641.302 946.437 630.967C945.132 629.429 944.397 628.559 944.296 628.459C942.39 626.251 939.079 625.984 936.871 627.89C934.697 629.797 934.43 633.108 936.336 635.282C936.537 635.516 941.319 641.101 949.046 650.6V650.634Z" fill="#A66A49"/>
<path d="M1023.73 477.348C1017.68 478.017 1012.59 479.957 1007.04 481.261C1094.1 482.03 1171.33 587.989 1141.13 722.979C1111.39 856.029 990.918 977.74 828.034 997.039L819.605 1015.07C1004.5 1008.81 1142.66 874.19 1175.38 727.895C1208.09 581.6 1118.88 466.812 1023.73 477.348Z" fill="#924921"/>
<path d="M1023.73 477.348C1017.68 478.017 1013.03 479.187 1007.47 480.492C1094.33 475.909 1171.33 587.989 1141.16 722.979C1111.43 856.029 990.951 977.74 828.067 997.039L819.639 1015.07C1004.53 1008.81 1142.7 874.19 1175.41 727.895C1208.12 581.6 1118.92 466.812 1023.76 477.348H1023.73Z" stroke="#592832" stroke-width="18.0611" stroke-linecap="round" stroke-linejoin="round"/>
<path d="M854.791 939.545C968.71 932.119 983.426 827.833 938.876 703.814C894.358 579.794 928.541 487.883 1023.7 477.348C1118.85 466.812 1208.05 581.6 1175.34 727.862C1142.63 874.157 1004.46 1008.81 819.605 1015.03L854.825 939.545H854.791Z" stroke="#592832" stroke-width="18.0611" stroke-linecap="round" stroke-linejoin="round"/>
<path d="M801.546 575.681C748.499 603.843 679.499 620.834 604.011 620.834C555.413 620.834 509.491 613.777 468.787 601.234C476.078 634.012 481.931 688.262 459.823 740.773C424.871 823.787 368.046 1005.13 623.677 1005.13C784.622 1005.13 907.671 848.571 868.004 727.662C849.04 679.165 802.382 636.821 801.546 575.681Z" fill="#EAAC71"/>
<path d="M479.824 740.774C500.661 691.306 496.648 640.3 490.025 607.155C482.801 605.349 475.71 603.375 468.787 601.235C476.078 634.012 481.931 688.263 459.823 740.774C424.871 823.788 368.046 1005.13 623.677 1005.13C626.386 1005.13 629.062 1005.07 631.738 1005C389.853 999.382 445.408 822.483 479.824 740.774Z" fill="#F5D7BB"/>
<path d="M768.5 959.279C722.445 921.351 687.861 859.91 680.737 784.856C668.93 660.435 506.146 643.143 468.285 715.956C466.078 724.217 463.301 732.512 459.823 740.773C424.871 823.788 368.046 1005.13 623.677 1005.13C677.827 1005.13 727.662 987.408 768.467 959.279H768.5Z" fill="#FFE5C0"/>
<path d="M682.408 998.076C686.053 997.207 689.632 996.203 693.211 995.166C694.214 994.865 695.218 994.564 696.221 994.263C698.796 993.494 701.338 992.658 703.847 991.822C704.984 991.42 706.155 991.019 707.292 990.618C709.767 989.748 712.208 988.812 714.65 987.875C715.653 987.474 716.657 987.106 717.66 986.705C724.416 983.962 731.005 980.952 737.46 977.707C738.43 977.206 739.4 976.704 740.337 976.202C742.611 975.032 744.852 973.828 747.06 972.59C748.13 971.988 749.2 971.386 750.27 970.75C752.444 969.48 754.618 968.209 756.726 966.904C757.662 966.336 758.632 965.767 759.535 965.165C762.545 963.259 765.522 961.319 768.432 959.312C765.79 957.138 763.181 954.863 760.639 952.522C759.903 951.853 759.167 951.117 758.431 950.415C756.625 948.709 754.786 947.003 753.013 945.231C752.21 944.428 751.408 943.592 750.605 942.756C748.933 941.017 747.26 939.244 745.621 937.438C744.819 936.568 744.049 935.665 743.28 934.796C741.675 932.956 740.069 931.116 738.497 929.21C713.713 899.175 694.783 860.979 685.552 816.93C671.437 837.634 648.459 882.719 661.704 943.492C663.611 952.221 657.925 960.85 649.195 962.824C572.135 980.35 492.131 966.269 436.609 914.995L435.807 914.861C452.898 965.533 504.138 1005.17 623.609 1005.17C643.877 1005.17 663.51 1002.69 682.307 998.11L682.408 998.076Z" fill="#DBAB7A"/>
<path d="M479.824 740.773C487.149 723.381 491.363 705.822 493.504 688.898C482.834 695.754 474.071 704.785 468.285 715.956C467.783 717.896 467.215 719.802 466.646 721.742C466.512 722.211 466.345 722.712 466.211 723.181C465.777 724.585 465.308 726.024 464.84 727.428C464.639 728.03 464.439 728.666 464.205 729.268C463.736 730.639 463.235 731.977 462.733 733.348C462.532 733.917 462.298 734.486 462.097 735.054C461.362 736.961 460.626 738.834 459.823 740.74C424.871 823.754 368.046 1005.1 623.677 1005.1C626.219 1005.1 628.728 1005.03 631.27 1004.93C389.953 999.114 445.441 822.383 479.824 740.74V740.773Z" fill="#FFF7EC"/>
<path d="M868.003 727.661C852.517 688.061 818.603 652.607 806.194 607.655C805.558 605.347 804.99 603.006 804.488 600.631C804.388 600.23 804.321 599.862 804.221 599.461C803.719 597.053 803.251 594.611 802.883 592.136C802.883 592.103 802.883 592.036 802.883 592.002C802.548 589.694 802.281 587.353 802.08 584.979C802.013 584.376 801.98 583.774 801.946 583.172C801.745 580.731 801.612 578.256 801.578 575.714C748.532 603.876 679.532 620.867 604.043 620.867C555.446 620.867 509.524 613.809 468.819 601.267C469.154 602.806 469.488 604.411 469.823 606.016C469.923 606.485 470.023 606.953 470.124 607.455C470.391 608.759 470.625 610.063 470.893 611.401C470.96 611.836 471.06 612.271 471.127 612.739C471.428 614.445 471.729 616.218 472.03 617.99C472.097 618.425 472.164 618.893 472.231 619.328C472.432 620.532 472.599 621.77 472.766 623.041C521.932 647.523 600.398 657.725 687.626 647.624C697.426 645.918 707.025 643.945 716.39 641.67C739.134 636.152 762.58 647.557 772.012 669.03C787.397 704.115 813.05 734.217 825.927 767.161C845.962 828.201 824.489 898.305 777.631 952.789C852.417 896.532 893.389 804.856 868.07 727.695L868.003 727.661Z" fill="#D6823C"/>
<path d="M801.546 575.681C748.499 603.843 679.499 620.834 604.011 620.834C555.413 620.834 509.491 613.777 468.787 601.234C476.078 634.012 481.931 688.262 459.823 740.773C424.871 823.787 368.046 1005.13 623.677 1005.13C784.622 1005.13 907.671 848.571 868.004 727.662C849.04 679.165 802.382 636.821 801.546 575.681Z" stroke="#592832" stroke-width="18.0611" stroke-linecap="round" stroke-linejoin="round"/>
<path d="M849.105 690.234C857.232 700.669 891.816 744.484 905.027 766.492C939.979 824.755 946.768 908.271 900.177 973.325C853.553 1038.38 759.368 1040.32 717.125 986.904C654.58 907.87 678.294 836.662 695.385 804.286C770.138 794.118 807.932 739.835 849.105 690.2V690.234Z" fill="#EAAC71"/>
<path d="M718.628 957.104C684.613 891.448 695.417 838.737 712.608 804.086C716.22 796.828 710.467 788.534 702.373 788.935H702.173C682.406 819.739 652.806 888.739 708.461 972.723C736.087 1014.4 794.05 1028.65 843.484 1009.25C793.783 1020.42 740.803 999.915 718.628 957.104Z" fill="#F5D7BB"/>
<path d="M905.026 766.492C891.815 744.485 857.231 700.67 849.104 690.234C836.327 705.62 823.885 721.473 810.573 736.29C815.323 743.046 819.571 749.334 822.614 754.418C857.566 812.682 864.355 896.198 817.764 961.251C798.767 987.774 771.809 1003.83 743.714 1009.88C791.074 1037.64 861.747 1026.94 900.177 973.325C946.801 908.272 939.978 824.756 905.026 766.492Z" fill="#D6823C"/>
<path d="M706.956 785.925C706.956 785.925 631.836 879.173 717.124 986.938C759.4 1040.35 853.586 1038.41 900.177 973.359C946.801 908.305 939.978 824.789 905.026 766.526C870.075 708.262 852.482 701.271 835.458 668.929" stroke="#592832" stroke-width="18.0611" stroke-linecap="round" stroke-linejoin="round"/>
<path d="M867.163 1062.66H636.048C636.048 1062.66 641.834 1002.46 717.089 986.905C792.377 971.352 871.177 1016.04 875.458 1035.47C879.739 1054.9 867.13 1062.66 867.13 1062.66H867.163Z" fill="#AE6745"/>
<path d="M867.163 1062.66H636.048C636.048 1062.66 641.834 1002.46 717.089 986.905C792.377 971.352 871.177 1016.04 875.458 1035.47C879.739 1054.9 867.13 1062.66 867.13 1062.66H867.163Z" fill="#AE6745"/>
<path d="M727.423 998.744C787.493 986.336 849.737 1012.26 874.655 1033.13C865.123 1012.73 789.534 971.987 717.122 986.938C641.834 1002.49 636.081 1062.69 636.081 1062.69H649.125C655.045 1044.33 673.207 1009.98 727.423 998.778V998.744Z" fill="#C18B71"/>
<path d="M875.492 1035.47C874.054 1028.98 864.288 1019.68 849.17 1010.75C846.662 1011.02 844.153 1011.32 841.645 1011.65C813.048 1015.64 794.519 1023.93 782.478 1032.69C771.875 1040.42 759.132 1044.57 746.021 1044.57H641.066C636.785 1055.04 636.016 1062.63 636.016 1062.63H867.131C867.131 1062.63 879.74 1054.87 875.459 1035.44L875.492 1035.47Z" fill="#924921"/>
<path d="M867.163 1062.66H636.048C636.048 1062.66 641.834 1002.46 717.089 986.905C792.377 971.352 871.177 1016.04 875.458 1035.47C879.739 1054.9 867.13 1062.66 867.13 1062.66H867.163Z" stroke="#592832" stroke-width="18.0611" stroke-linecap="round" stroke-linejoin="round"/>
<path d="M719.331 1062.66C719.331 1062.66 729.967 1029.28 756.223 1020.82" stroke="#592832" stroke-width="18.0611" stroke-linecap="round" stroke-linejoin="round"/>
<path d="M668.293 1062.66C668.293 1062.66 678.929 1029.28 705.184 1020.82" stroke="#592832" stroke-width="18.0611" stroke-linecap="round" stroke-linejoin="round"/>
<path d="M552.568 999.313C551.23 999.079 549.892 998.811 548.588 998.544C547.049 998.243 545.511 997.908 543.972 997.574C542.701 997.306 541.397 997.005 540.159 996.738C538.687 996.403 537.216 996.035 535.778 995.667C534.54 995.366 533.303 995.065 532.098 994.731C530.694 994.363 529.289 993.961 527.918 993.56C526.747 993.226 525.543 992.891 524.406 992.523C523.035 992.122 521.73 991.687 520.392 991.252C519.288 990.884 518.151 990.516 517.048 990.149C515.743 989.68 514.472 989.212 513.201 988.744C512.164 988.342 511.094 987.974 510.057 987.573C508.786 987.071 507.549 986.536 506.311 986.035C505.341 985.633 504.371 985.232 503.435 984.831C502.097 984.262 500.826 983.626 499.522 983.024C498.719 982.657 497.916 982.289 497.114 981.921C495.107 980.951 493.167 979.947 491.294 978.91C490.424 978.442 489.588 977.941 488.718 977.439C487.682 976.837 486.645 976.268 485.641 975.666C484.738 975.131 483.869 974.562 482.999 973.994C482.096 973.425 481.193 972.857 480.357 972.288C479.487 971.686 478.618 971.084 477.781 970.482C476.979 969.913 476.143 969.345 475.373 968.776C474.537 968.141 473.701 967.505 472.898 966.87C472.162 966.301 471.393 965.699 470.657 965.097C469.855 964.428 469.085 963.759 468.283 963.09C467.58 962.488 466.911 961.92 466.242 961.284C465.473 960.582 464.737 959.879 464.002 959.177C463.366 958.575 462.731 957.973 462.129 957.371C461.393 956.635 460.69 955.899 459.988 955.163C459.419 954.561 458.851 953.926 458.282 953.324C457.613 952.555 456.911 951.819 456.275 951.05C455.74 950.448 455.238 949.812 454.737 949.21C454.101 948.407 453.466 947.605 452.83 946.802C452.362 946.2 451.894 945.564 451.459 944.962C450.857 944.126 450.255 943.29 449.653 942.454C449.252 941.852 448.85 941.25 448.449 940.614C447.88 939.745 447.278 938.875 446.743 937.972C446.375 937.403 446.041 936.801 445.706 936.199C445.138 935.263 444.602 934.36 444.067 933.39C443.766 932.855 443.499 932.353 443.231 931.818C442.696 930.781 442.128 929.778 441.626 928.741C441.459 928.406 441.325 928.072 441.158 927.737C439.117 923.49 437.345 919.175 435.84 914.727C418.514 863.42 436.174 800.808 453.399 756.458C381.857 797.463 352.023 957.672 487.481 999.179C516.747 1006.8 539.423 1005.77 557.016 999.982C555.511 999.748 554.006 999.48 552.534 999.213L552.568 999.313Z" fill="#EAAC71"/>
<path d="M445.674 777.963C448.082 770.772 450.591 763.916 453.099 757.394C452.129 757.126 451.126 756.825 450.156 756.558C378.614 797.563 348.78 957.772 484.238 999.279C503.269 1004.23 519.524 1005.53 533.404 1004.26C524.708 1003.53 515.309 1001.95 505.108 999.279C387.176 963.123 394.568 836.996 445.674 777.93V777.963Z" fill="#F5D7BB"/>
<path d="M552.568 999.313C551.23 999.079 549.892 998.811 548.588 998.544C547.049 998.243 545.511 997.908 543.972 997.574C542.701 997.306 541.397 997.005 540.159 996.738C538.687 996.403 537.216 996.035 535.778 995.667C534.54 995.366 533.303 995.065 532.098 994.731C530.694 994.363 529.289 993.961 527.918 993.56C526.747 993.226 525.543 992.891 524.406 992.523C523.035 992.122 521.73 991.687 520.392 991.252C519.288 990.884 518.151 990.516 517.048 990.149C515.743 989.68 514.472 989.212 513.201 988.744C512.164 988.342 511.094 987.974 510.057 987.573C508.786 987.071 507.549 986.536 506.311 986.035C505.341 985.633 504.371 985.232 503.435 984.831C502.097 984.262 500.826 983.626 499.522 983.024C498.719 982.657 497.916 982.289 497.114 981.921C495.107 980.951 493.167 979.947 491.294 978.91C490.424 978.442 489.588 977.941 488.718 977.439C487.682 976.837 486.645 976.268 485.641 975.666C484.738 975.131 483.869 974.562 482.999 973.994C482.096 973.425 481.193 972.857 480.357 972.288C479.487 971.686 478.618 971.084 477.781 970.482C476.979 969.913 476.143 969.345 475.373 968.776C474.537 968.141 473.701 967.505 472.898 966.87C472.162 966.301 471.393 965.699 470.657 965.097C469.855 964.428 469.085 963.759 468.283 963.09C467.58 962.488 466.911 961.92 466.242 961.284C465.473 960.582 464.737 959.879 464.002 959.177C463.366 958.575 462.731 957.973 462.129 957.371C461.393 956.635 460.69 955.899 459.988 955.163C459.419 954.561 458.851 953.926 458.282 953.324C457.613 952.555 456.911 951.819 456.275 951.05C455.74 950.448 455.238 949.812 454.737 949.21C454.101 948.407 453.466 947.605 452.83 946.802C452.362 946.2 451.894 945.564 451.459 944.962C450.857 944.126 450.255 943.29 449.653 942.454C449.252 941.852 448.85 941.25 448.449 940.614C447.88 939.745 447.278 938.875 446.743 937.972C446.375 937.403 446.041 936.801 445.706 936.199C445.138 935.263 444.602 934.36 444.067 933.39C443.766 932.855 443.499 932.353 443.231 931.818C442.696 930.781 442.128 929.778 441.626 928.741C441.459 928.406 441.325 928.072 441.158 927.737C439.117 923.49 437.345 919.175 435.84 914.727C418.514 863.42 436.174 800.808 453.399 756.458C381.857 797.463 352.023 957.672 487.481 999.179C516.747 1006.8 539.423 1005.77 557.016 999.982C555.511 999.748 554.006 999.48 552.534 999.213L552.568 999.313Z" stroke="#592832" stroke-width="18.0611" stroke-linecap="round" stroke-linejoin="round"/>
<path d="M594.943 1062.66H363.828C363.828 1062.66 369.614 1002.46 444.869 986.904C520.157 971.351 598.957 1016.04 603.238 1035.47C607.519 1054.9 594.91 1062.66 594.91 1062.66H594.943Z" fill="#AE6745"/>
<path d="M594.943 1062.66H363.828C363.828 1062.66 369.614 1002.46 444.869 986.904C520.157 971.351 598.957 1016.04 603.238 1035.47C607.519 1054.9 594.91 1062.66 594.91 1062.66H594.943Z" fill="#AE6745"/>
<path d="M455.17 998.743C515.24 986.334 577.484 1012.26 602.402 1033.13C592.87 1012.72 517.281 971.986 444.869 986.936C369.581 1002.49 363.828 1062.69 363.828 1062.69H376.872C382.792 1044.33 400.954 1009.98 455.17 998.776V998.743Z" fill="#C18B71"/>
<path d="M603.273 1035.47C601.834 1028.98 592.068 1019.68 576.95 1010.75C574.442 1011.02 571.933 1011.32 569.425 1011.65C540.828 1015.63 522.299 1023.93 510.258 1032.69C499.656 1040.42 486.912 1044.56 473.801 1044.56H368.846C364.565 1055.03 363.796 1062.63 363.796 1062.63H594.911C594.911 1062.63 607.52 1054.87 603.239 1035.43L603.273 1035.47Z" fill="#924921"/>
<path d="M447.111 1062.66C447.111 1062.66 457.747 1029.28 484.003 1020.82" stroke="#592832" stroke-width="18.0611" stroke-linecap="round" stroke-linejoin="round"/>
<path d="M396.073 1062.66C396.073 1062.66 406.709 1029.28 432.965 1020.82" stroke="#592832" stroke-width="18.0611" stroke-linecap="round" stroke-linejoin="round"/>
<path d="M554.607 999.68C553.938 999.546 553.235 999.446 552.567 999.312C551.229 999.078 549.891 998.81 548.586 998.543C547.048 998.242 545.509 997.907 543.971 997.573C542.7 997.305 541.395 997.004 540.158 996.737C538.686 996.402 537.215 996.034 535.776 995.667C534.539 995.366 533.301 995.065 532.097 994.73C530.693 994.362 529.288 993.961 527.917 993.559C526.746 993.225 525.542 992.89 524.405 992.523C523.033 992.121 521.729 991.686 520.391 991.252C519.287 990.884 518.15 990.516 517.046 990.148C515.742 989.68 514.471 989.211 513.2 988.743C512.163 988.342 511.093 987.974 510.056 987.572C508.785 987.071 507.548 986.536 506.31 986.034C506.243 986.034 506.21 986.001 506.143 985.967C486.543 982.923 465.572 982.622 444.869 986.87C369.581 1002.42 363.828 1062.63 363.828 1062.63H594.943C594.943 1062.63 607.553 1054.87 603.271 1035.43C601.231 1026.17 582.133 1011.12 554.607 999.647V999.68Z" stroke="#592832" stroke-width="18.0611" stroke-linecap="round" stroke-linejoin="round"/>
<path d="M954.061 1237.52H392.862C168.771 1237.52 -7.59222 1097.68 11.5392 1017.81C30.6705 937.906 105.022 1035.57 156.028 1077.04C207.034 1118.52 231.885 1094.8 174.825 1013.16C149.64 969.781 198.371 959.68 230.379 1013.16C268.642 1077.04 355.77 1052.43 347.275 995.167C347.275 995.167 614.813 1109.79 957.004 995.167C1243.94 908.172 1211.33 968.644 1182.27 1010.75C1153.2 1052.86 1235.98 1023.76 1292.07 991.554C1445.79 903.356 1424.89 1237.52 954.061 1237.52Z" fill="#99E2EF"/>
<path d="M954.06 1237.52C1211.16 1237.52 1333.41 1138.05 1367.02 1061.96C1382.71 948.341 1174.2 1136.01 900.813 1160.09C626.752 1184.27 436.509 1099.39 329.38 1080.89C222.251 1062.36 266.534 1148.28 361.254 1179.36C148.167 1194.04 -11.8077 1014.4 34.5157 987.708C24.3145 989.38 16.2539 998.176 11.5714 1017.81C-7.55999 1097.71 168.803 1237.52 392.895 1237.52H954.093H954.06Z" fill="#50BFCE"/>
<path d="M954.061 1237.52H392.862C168.771 1237.52 -7.59222 1097.68 11.5392 1017.81C30.6705 937.906 105.022 1035.57 156.028 1077.04C207.034 1118.52 231.885 1094.8 174.825 1013.16C149.64 969.781 198.371 959.68 230.379 1013.16C268.642 1077.04 355.77 1052.43 347.275 995.167C347.275 995.167 614.813 1109.79 957.004 995.167C1243.94 908.172 1211.33 968.644 1182.27 1010.75C1153.2 1052.86 1235.98 1023.76 1292.07 991.554C1445.79 903.356 1424.89 1237.52 954.061 1237.52V1237.52Z" stroke="#592832" stroke-width="18.0611" stroke-linecap="round" stroke-linejoin="round"/>
<path d="M81.9905 1046.83C86.1851 1041.74 80.411 1030.05 69.0938 1020.72C57.7766 1011.4 45.2018 1007.96 41.0071 1013.05C36.8125 1018.13 42.5865 1029.82 53.9038 1039.15C65.221 1048.48 77.7958 1051.92 81.9905 1046.83Z" fill="white"/>
<path d="M213.662 1020.53C216.317 1017.8 212.805 1010.08 205.817 1003.27C198.83 996.467 191.013 993.161 188.359 995.887C185.704 998.613 189.216 1006.34 196.204 1013.14C203.191 1019.95 211.008 1023.25 213.662 1020.53Z" fill="white"/>
<path d="M240.747 952.925C248.774 973.394 310.617 1124.37 404.401 1160.09C505.075 1198.42 629.696 1192.97 629.696 1192.97H675.551C675.551 1192.97 800.173 1198.46 900.813 1160.09C994.63 1124.34 1056.51 973.227 1064.47 952.892C785.858 997.074 511.363 996.439 240.747 952.925Z" fill="#B26B24"/>
<path d="M240.747 952.925C248.774 973.394 310.617 1124.37 404.401 1160.09C505.075 1198.42 629.696 1192.97 629.696 1192.97H675.551C675.551 1192.97 800.173 1198.46 900.813 1160.09C994.63 1124.34 1056.51 973.227 1064.47 952.892C785.858 997.074 511.363 996.439 240.747 952.925Z" fill="#B26B24"/>
<path d="M983.825 964.061C959.576 1015.27 908.236 1106.14 838.834 1132.6C740.636 1170.02 619.024 1164.67 619.024 1164.67H574.306C574.306 1164.67 459.986 1169.36 363.493 1135.51C376.404 1145.68 389.849 1154.57 404.398 1160.12C505.072 1198.45 629.694 1193 629.694 1193H675.549C675.549 1193 800.17 1198.49 900.811 1160.12C994.628 1124.37 1056.5 973.259 1064.46 952.924C1037.54 957.205 1010.68 960.683 983.825 964.095V964.061Z" fill="#894D16"/>
<path d="M1082.26 950.315C1108.98 929.813 1119.49 889.61 1123.57 863.99C1125.34 852.852 1115.31 843.353 1104.23 845.628C1051.49 856.531 904.392 881.817 675.518 881.817H629.663C400.788 881.817 253.691 856.531 200.946 845.628C189.875 843.353 179.841 852.819 181.614 863.99C185.694 889.577 196.196 929.813 222.92 950.315C505.041 997.676 791.41 998.378 1082.23 950.315H1082.26Z" fill="#B26B24"/>
<path d="M1104.23 845.662C1085.1 849.609 1053.19 855.462 1009.85 861.315C1016.67 864.091 1021.35 871.215 1019.81 879.142C1015.23 903.09 1004.03 939.212 979.979 959.815C980.414 961.186 980.782 962.558 981.15 963.962C1014.83 959.748 1048.48 955.902 1082.29 950.316C1109.02 929.814 1119.52 889.611 1123.6 863.991C1125.37 852.853 1115.3 843.354 1104.27 845.629L1104.23 845.662Z" fill="#894D16"/>
<path d="M200.978 866.264C253.723 877.167 400.821 902.453 629.695 902.453H675.55C904.424 902.453 1051.52 877.167 1104.27 866.264C1111.59 864.758 1118.15 868.638 1121.42 874.525C1122.13 871.013 1123.1 867.167 1123.6 864.023C1125.37 852.885 1115.3 843.386 1104.27 845.661C1051.52 856.564 904.424 881.85 675.55 881.85H629.695C400.821 881.85 253.723 856.564 200.978 845.661C189.907 843.386 179.873 852.851 181.646 864.023C182.148 867.167 183.084 871.013 183.82 874.525C187.131 868.638 193.653 864.758 200.978 866.264Z" fill="#EF9D54"/>
<path d="M240.747 952.925C242.453 957.307 247.102 968.444 253.524 982.325C515.844 1023.16 781.844 1023.73 1051.69 982.258C1058.11 968.344 1062.76 957.24 1064.47 952.892C785.858 997.074 511.363 996.439 240.747 952.925Z" fill="#894D16"/>
<path d="M712.908 1110.16C638.657 1110.16 586.347 1107.58 585.277 1107.51C580.293 1107.25 576.48 1103.03 576.714 1098.01C577.015 1093.03 580.393 1090.05 586.213 1089.45C588.387 1089.59 808.264 1100.46 988.139 1077.08C993.223 1076.71 997.638 1079.92 998.274 1084.87C998.909 1089.85 995.431 1094.37 990.481 1095C896.697 1107.18 792.243 1110.16 712.875 1110.16H712.908Z" fill="#854809"/>
<path d="M884.189 1104.7C916.934 1102.6 949.711 1099.85 981.653 1095.91C986.235 1090.39 990.85 1085.07 995.065 1079.32C993.225 1077.78 990.817 1076.88 988.141 1077.04C960.882 1080.59 932.72 1083.26 904.525 1085.37C898.003 1092.26 891.28 1098.72 884.189 1104.67V1104.7Z" fill="#5E350F"/>
<path d="M670.131 1044.77C598.723 1044.77 362.122 1042.19 259.509 1009.21C254.759 1007.71 252.15 1002.63 253.689 997.876C255.194 993.16 260.378 990.484 265.027 992.056C381.321 1029.42 687.289 1026.64 690.333 1026.64H690.433C695.383 1026.64 699.397 1030.62 699.464 1035.57C699.53 1040.52 695.517 1044.63 690.533 1044.67C688.794 1044.67 681.603 1044.77 670.164 1044.77H670.131Z" fill="#854809"/>
<path d="M793.482 1039.38C788.498 1039.38 784.451 1035.37 784.451 1030.39C784.451 1025.4 788.465 1021.32 793.448 1021.32C794.987 1021.32 948.707 1020.62 1034.6 1004.73C1039.88 1003.83 1044.26 1007.07 1045.13 1011.96C1046.04 1016.87 1042.83 1021.56 1037.91 1022.49C950.413 1038.65 799.903 1039.35 793.549 1039.35L793.482 1039.38Z" fill="#854809"/>
<path d="M1040.05 1005.9C1038.41 1005.1 1036.67 1004.4 1034.56 1004.77C1012.05 1008.91 984.862 1012.02 956.968 1014.36C953.222 1020.65 949.476 1026.97 945.295 1033.36C975.363 1031.09 1005.06 1027.98 1030.62 1023.63C1034.1 1017.37 1037.07 1011.72 1040.05 1005.9Z" fill="#5E350F"/>
<path d="M612.971 1152.67H612.636C603.037 1152.3 377.708 1144.07 334.194 1121.43C329.779 1119.12 328.04 1113.7 330.381 1109.25C332.656 1104.8 338.208 1103.07 342.556 1105.44C375.668 1122.67 549.222 1132.33 613.305 1134.64C618.289 1134.81 622.168 1138.99 622.001 1143.97C621.834 1148.85 617.82 1152.67 612.971 1152.67Z" fill="#854809"/>
<path d="M674.779 953.126C538.953 953.126 429.75 945.232 381.855 941.118C376.871 940.683 373.192 936.335 373.627 931.352C374.061 926.368 378.242 922.522 383.393 923.124C477.177 931.218 806.357 953.761 1108.81 902.755C1113.73 901.919 1118.41 905.264 1119.22 910.147C1120.05 915.063 1116.71 919.746 1111.82 920.549C962.184 945.767 806.056 953.126 674.812 953.126H674.779Z" fill="#854809"/>
<path d="M1104.84 921.517C1107.98 915.664 1110.89 909.911 1113.16 903.757C1111.73 903.255 1110.39 902.486 1108.78 902.754C1075.57 908.339 1042.06 912.921 1008.58 916.868C1005.87 923.557 1002.49 929.979 998.711 936.301C1034.16 932.32 1069.65 927.337 1104.84 921.517Z" fill="#5E350F"/>
<path d="M472.43 916.969H472.162C463.767 916.735 265.229 910.581 181.211 884.626C176.462 883.121 173.786 878.071 175.258 873.321C176.729 868.538 181.579 865.796 186.563 867.368C268.239 892.62 470.69 898.874 472.697 898.941C477.681 899.075 481.594 903.256 481.46 908.239C481.326 913.156 477.313 917.002 472.43 917.002V916.969Z" fill="#854809"/>
<path d="M1082.26 950.315C1108.98 929.813 1119.49 889.61 1123.57 863.99C1125.34 852.852 1115.31 843.353 1104.23 845.628C1051.49 856.531 904.392 881.817 675.518 881.817H629.663C400.788 881.817 253.691 856.531 200.946 845.628C189.875 843.353 179.841 852.819 181.614 863.99C185.694 889.577 196.196 929.813 222.92 950.315C505.041 997.676 791.41 998.378 1082.23 950.315H1082.26Z" stroke="#592832" stroke-width="18.0611" stroke-linecap="round" stroke-linejoin="round"/>
<path d="M240.747 952.925C248.774 973.394 310.617 1124.37 404.401 1160.09C505.075 1198.42 629.696 1192.97 629.696 1192.97H675.551C675.551 1192.97 800.173 1198.46 900.813 1160.09C994.631 1124.34 1056.51 973.227 1064.47 952.892C785.858 997.074 511.363 996.439 240.747 952.925Z" stroke="#592832" stroke-width="18.0611" stroke-linecap="round" stroke-linejoin="round"/>
<path d="M831.713 1198.22C718.999 1192.7 576.684 1080.89 530.059 1090.89C470.157 1103.73 619.228 1162.07 588.423 1172.7C557.619 1183.34 301.586 1062.06 316.437 1128.55C331.32 1195.04 447.146 1202.47 447.146 1202.47C615.047 1217.25 755.455 1220.83 831.713 1198.22Z" fill="#99E2EF"/>
<path d="M831.713 1198.22C718.999 1192.7 576.684 1080.89 530.059 1090.89C470.157 1103.73 619.228 1162.07 588.423 1172.7C557.619 1183.34 301.586 1062.06 316.437 1128.55C331.32 1195.04 447.146 1202.47 447.146 1202.47" stroke="#592832" stroke-width="18.0611" stroke-linecap="round" stroke-linejoin="round"/>
<path d="M391.057 1142.74C392.493 1137.41 381.8 1129.89 367.174 1125.95C352.548 1122.01 339.527 1123.14 338.091 1128.48C336.655 1133.81 347.348 1141.33 361.974 1145.26C376.6 1149.2 389.621 1148.07 391.057 1142.74Z" fill="white"/>
<path d="M122.096 961.149C131.589 951.16 126.801 931.199 111.402 916.566C96.0033 901.933 75.8249 898.168 66.3323 908.157C56.8398 918.146 61.6277 938.106 77.0264 952.74C92.4252 967.373 112.604 971.138 122.096 961.149Z" fill="#99E2EF"/>
<path d="M122.096 961.149C131.589 951.16 126.801 931.199 111.402 916.566C96.0033 901.933 75.8249 898.168 66.3323 908.157C56.8398 918.146 61.6277 938.106 77.0264 952.74C92.4252 967.373 112.604 971.138 122.096 961.149Z" fill="#50BFCE"/>
<path d="M107.95 941.451C113.141 935.786 110.361 924.789 101.74 916.89C93.1196 908.99 81.9225 907.179 76.731 912.845C71.5396 918.51 74.3196 929.507 82.9405 937.406C91.5613 945.306 102.758 947.117 107.95 941.451Z" fill="#99E2EF"/>
<path d="M122.096 961.149C131.589 951.16 126.801 931.199 111.402 916.566C96.0033 901.933 75.8249 898.168 66.3323 908.157C56.8398 918.146 61.6277 938.106 77.0264 952.74C92.4252 967.373 112.604 971.138 122.096 961.149Z" stroke="#592832" stroke-width="18.0611" stroke-linecap="round" stroke-linejoin="round"/>
<path d="M542.936 114.287C476.177 139.372 388.212 58.1969 326.303 114.287C282.154 154.255 331.487 225.898 384.901 240.246L542.936 114.287Z" fill="#EAAC71"/>
<path d="M318.14 136.127C372.491 86.9274 446.876 143.385 509.387 141.01L542.934 114.287C476.175 139.372 388.211 58.1969 326.301 114.287C316.1 123.518 310.949 134.421 309.611 145.927C311.953 142.515 314.729 139.204 318.14 136.127Z" fill="#F5D7BB"/>
<path d="M542.936 114.287C476.177 139.372 388.212 58.1969 326.303 114.287C282.154 154.255 331.487 225.898 384.901 240.246L542.936 114.287Z" stroke="#592832" stroke-width="18.0611" stroke-linecap="round" stroke-linejoin="round"/>
<path d="M325.635 197.368C339.983 217.503 362.058 234.092 384.902 240.246L448.25 189.775C368.647 84.787 304.262 164.724 325.668 197.401L325.635 197.368Z" fill="#EE857B"/>
<path d="M352.024 185.327C343.362 172.082 348.78 151.077 363.563 137.766C330.518 141.846 312.925 177.935 325.635 197.367C339.984 217.502 362.058 234.091 384.902 240.246L403.264 225.596C383.364 218.104 364.701 203.087 352.024 185.327Z" fill="#FFBAB0"/>
<path d="M325.635 197.368C339.983 217.503 362.058 234.092 384.902 240.246L448.25 189.775C368.647 84.787 304.262 164.724 325.668 197.401L325.635 197.368Z" stroke="#592832" stroke-width="18.0611" stroke-linecap="round" stroke-linejoin="round"/>
<path d="M899.542 114.287C852.483 83.7833 793.55 122.347 752.645 132.415C709.9 105.356 661.269 89.2017 609.695 89.2017C439.252 89.2017 301.051 280.047 301.051 430.556C301.051 535.645 439.218 620.867 609.695 620.867C780.172 620.867 918.339 535.679 918.339 430.556C918.339 375.604 903.054 319.447 876.397 268.976C954.294 231.316 962.856 155.325 899.542 114.287Z" fill="#EAAC71"/>
<path d="M902.685 116.462C914.993 153.889 895.661 197.57 844.321 225.531C873.821 275.4 892.082 331.59 894.758 387.311C899.909 493.872 763.949 587.02 591.131 595.382C507.649 599.429 430.822 582.906 373.127 552.771C429.752 594.412 514.706 620.868 609.694 620.868C780.137 620.868 918.338 535.68 918.338 430.558C918.338 375.605 903.053 319.449 876.396 268.978C952.955 231.953 962.487 157.936 902.685 116.462Z" fill="#D6823C"/>
<path d="M899.542 114.288C852.482 83.7848 793.55 122.349 752.645 132.416C745.454 127.867 738.095 123.653 730.603 119.74L727.66 125.359C760.304 153.153 783.415 149.808 819.671 133.118C861.58 113.82 932.52 127.031 941.483 186.365C942.688 159.675 928.807 133.252 899.542 114.288Z" fill="#F5D7BB"/>
<path d="M326.771 430.556C326.771 283.827 458.149 98.7339 622.705 89.603C618.391 89.3689 614.043 89.2017 609.695 89.2017C439.252 89.2017 301.051 280.047 301.051 430.556C301.051 535.645 439.218 620.867 609.695 620.867C614.009 620.867 618.291 620.8 622.538 620.7C458.049 616.552 326.771 533.036 326.771 430.59V430.556Z" fill="#F5D7BB"/>
<path d="M562.203 167.166C533.372 137.699 505.444 127.331 482.5 125.357C462.599 136.997 443.802 151.044 426.41 166.931C440.023 201.448 500.126 222.085 562.169 167.166H562.203Z" fill="#D6823C"/>
<path d="M899.542 114.287C852.483 83.7833 793.55 122.347 752.645 132.415C709.9 105.356 661.269 89.2017 609.695 89.2017C439.252 89.2017 301.051 280.047 301.051 430.556C301.051 535.645 439.218 620.867 609.695 620.867C780.172 620.867 918.339 535.679 918.339 430.556C918.339 375.604 903.054 319.447 876.397 268.976C954.294 231.316 962.856 155.325 899.542 114.287V114.287Z" stroke="#592832" stroke-width="18.0611" stroke-linecap="round" stroke-linejoin="round"/>
<path d="M941.216 175.862C948.005 201.916 923.322 245.965 877.3 268.575C860.309 238.641 840.007 210.111 814.922 183.621C814.922 183.621 922.653 104.922 941.216 175.895V175.862Z" fill="white"/>
<path d="M941.216 175.862C948.005 201.916 923.322 245.965 877.3 268.575C860.309 238.641 840.007 210.111 814.922 183.621C814.922 183.621 922.653 104.922 941.216 175.895V175.862Z" fill="#EE857B"/>
<path d="M941.217 175.861C935.699 154.757 922.287 146.897 906.166 146.261C910.982 151.144 914.661 157.967 916.701 167.332C921.752 190.411 902.018 226.366 865.428 248.842C869.542 255.364 873.522 261.919 877.301 268.575C923.324 245.999 948.007 201.916 941.217 175.861Z" fill="#FFBAB0"/>
<path d="M941.216 175.862C948.005 201.916 923.322 245.965 877.3 268.575C860.309 238.641 840.007 210.111 814.922 183.621C814.922 183.621 922.653 104.922 941.216 175.895V175.862Z" stroke="#592832" stroke-width="18.0611" stroke-linecap="round" stroke-linejoin="round"/>
<path d="M713.211 111.478C703.077 107.163 690.334 102.38 675.216 97.9654C544.106 66.4923 495.441 -27.1244 470.223 24.818C445.004 76.7604 513.737 109.571 513.737 109.571C513.737 109.571 455.339 114.588 456.844 149.473C458.383 184.425 536.982 193.99 577.051 156.162C631.568 152.316 679.363 140.376 713.211 111.478Z" fill="#EAAC71"/>
<path d="M678.763 118.434C723.615 123.919 733.649 127.799 740.539 130.341C748.733 125.692 706.156 117.498 713.246 111.477C703.112 107.163 690.369 102.38 675.251 97.965C544.141 66.4919 495.476 -27.0914 470.258 24.8175C467.348 30.7376 465.742 36.4235 465.04 41.8418C491.061 1.17089 540.629 93.7173 678.796 118.434H678.763Z" fill="#F5D7BB"/>
<path d="M510.759 109.94C503.535 110.91 484.637 114.187 471.259 123.419C493.902 133.085 533.235 137.332 554.039 117.933C536.881 117.231 522.432 114.589 510.759 109.906V109.94Z" fill="#D6823C"/>
<path d="M741.173 125.458C741.173 125.458 717.459 110.274 675.216 97.9654C544.106 66.4923 495.441 -27.1244 470.223 24.818C445.004 76.7604 513.737 109.571 513.737 109.571C513.737 109.571 455.339 114.588 456.844 149.473C458.383 184.425 536.982 193.99 577.051 156.162" stroke="#592832" stroke-width="18.0611" stroke-linecap="round" stroke-linejoin="round"/>
<path d="M557.788 113.853C557.788 113.853 512.033 118.837 491.497 94.9224" stroke="#592832" stroke-width="18.0611" stroke-linecap="round" stroke-linejoin="round"/>
<path d="M388.213 428.751C409.271 428.751 426.342 408.311 426.342 383.096C426.342 357.882 409.271 337.442 388.213 337.442C367.155 337.442 350.084 357.882 350.084 383.096C350.084 408.311 367.155 428.751 388.213 428.751Z" fill="#592832"/>
<path d="M400.489 384.936C406.031 384.936 410.523 380.055 410.523 374.033C410.523 368.011 406.031 363.129 400.489 363.129C394.947 363.129 390.455 368.011 390.455 374.033C390.455 380.055 394.947 384.936 400.489 384.936Z" fill="white"/>
<path d="M684.014 453.234C713.975 453.234 738.264 428.946 738.264 398.984C738.264 369.022 713.975 344.734 684.014 344.734C654.052 344.734 629.764 369.022 629.764 398.984C629.764 428.946 654.052 453.234 684.014 453.234Z" fill="#592832"/>
<path d="M662.709 400.722C670.08 400.722 676.055 394.748 676.055 387.377C676.055 380.007 670.08 374.032 662.709 374.032C655.339 374.032 649.364 380.007 649.364 387.377C649.364 394.748 655.339 400.722 662.709 400.722Z" fill="white"/>
<path d="M543.672 480.293C567.297 480.293 586.45 463.237 586.45 442.197C586.45 421.158 567.297 404.102 543.672 404.102C520.046 404.102 500.894 421.158 500.894 442.197C500.894 463.237 520.046 480.293 543.672 480.293Z" fill="#FFE5C0"/>
<path d="M476.779 474.138C494.494 474.138 508.855 459.013 508.855 440.357C508.855 421.7 494.494 406.576 476.779 406.576C459.065 406.576 444.704 421.7 444.704 440.357C444.704 459.013 459.065 474.138 476.779 474.138Z" fill="#FFE5C0"/>
<path d="M503.403 456.847C477.449 457.85 461.26 412.932 476.244 406.978C491.228 401.025 530.662 402.931 532.635 416.076C534.609 429.22 524.876 456.011 503.403 456.847Z" fill="#DBAB7A"/>
<path d="M502.902 444.003C476.947 445.006 461.161 411.091 476.212 406.409C491.263 401.76 530.662 402.83 532.502 412.797C534.342 422.764 524.374 443.167 502.902 444.003Z" fill="#592832"/>
<path d="M584.31 443.97C581.868 464.306 564.576 480.092 543.572 480.092C520.895 480.092 502.533 461.73 502.533 439.054" stroke="#592832" stroke-width="18.0611" stroke-linecap="round" stroke-linejoin="round"/>
<path d="M505.41 456.779C499.925 467.582 488.252 474.472 475.476 473.268C458.786 471.696 446.544 456.912 448.116 440.223" stroke="#592832" stroke-width="18.0611" stroke-linecap="round" stroke-linejoin="round"/>
<path d="M475.476 473.269C475.476 473.269 475.91 474.64 476.68 476.948C480.258 487.718 490.861 518.589 495.443 520.428C500.995 522.669 535.144 524.141 538.857 520.428C542.569 516.716 547.82 479.858 547.82 479.858C547.82 479.858 523.204 484.607 506.079 458.586C506.079 458.586 489.69 478.353 475.509 473.269H475.476Z" fill="white"/>
<path d="M547.819 479.858C547.819 479.858 523.202 484.607 506.078 458.586C506.078 458.586 489.689 478.353 475.508 473.269C475.508 473.269 475.943 474.64 476.712 476.948C477.983 480.728 480.09 486.982 482.498 493.571C490.492 492.735 500.726 490.093 507.717 482.734C515.376 494.608 532.501 498.153 544.842 498.253C546.582 488.755 547.852 479.858 547.852 479.858H547.819Z" fill="#C6AEA7"/>
<path d="M475.476 473.269C475.476 473.269 475.91 474.64 476.68 476.948C480.258 487.718 490.861 518.589 495.443 520.428C500.995 522.669 535.144 524.141 538.857 520.428C542.569 516.716 547.82 479.858 547.82 479.858C547.82 479.858 523.204 484.607 506.079 458.586C506.079 458.586 489.69 478.353 475.509 473.269H475.476Z" stroke="#592832" stroke-width="18.0611" stroke-linecap="round" stroke-linejoin="round"/>
<path d="M513.803 518.789C513.803 518.789 506.111 481.663 506.077 458.619" stroke="#592832" stroke-width="7.69269" stroke-linecap="round" stroke-linejoin="round"/>
<path d="M900.208 1008.61L959.208 1116.18C969.609 1135.11 984.56 1151.13 1002.75 1162.8L1143.2 1252.8C1175.41 1273.44 1225.04 1277.39 1245.68 1245.18L1284.44 1184.67C1305.08 1152.47 1280.76 1109.02 1248.59 1088.38L1108.14 998.377C1089.95 986.738 1069.15 979.815 1047.61 978.276L925.226 969.58L900.208 1008.61Z" fill="#AB69F3"/>
<path d="M1248.55 1088.38L1108.11 998.377C1089.95 986.738 1069.11 979.815 1047.57 978.276L925.194 969.58L900.176 1008.61L901.179 1010.42L915.093 988.711L1037.47 997.407C1059.01 998.946 1079.82 1005.84 1098.01 1017.51L1238.45 1107.51C1266.92 1125.74 1289.09 1161.8 1279.63 1192.17L1284.41 1184.67C1305.05 1152.47 1280.73 1109.02 1248.55 1088.38Z" fill="#CAA0F7"/>
<path d="M1258.32 1219.56C1237.68 1251.77 1188.05 1247.82 1155.84 1227.18L1015.4 1137.18C997.203 1125.54 982.252 1109.52 971.85 1090.56L914.59 986.169L900.208 1008.61L959.208 1116.18C969.576 1135.11 984.56 1151.13 1002.75 1162.8L1143.2 1252.8C1175.41 1273.44 1225.04 1277.39 1245.68 1245.18L1284.44 1184.67C1287.59 1179.76 1289.39 1174.54 1290.56 1169.26L1258.32 1219.56Z" fill="#933FDE"/>
<path d="M900.208 1008.61L959.208 1116.18C969.609 1135.11 984.56 1151.13 1002.75 1162.8L1143.2 1252.8C1175.41 1273.44 1225.04 1277.39 1245.68 1245.18L1284.44 1184.67C1305.08 1152.47 1280.76 1109.02 1248.59 1088.38L1108.14 998.377C1089.95 986.738 1069.15 979.815 1047.61 978.276L925.226 969.58L900.208 1008.61V1008.61Z" stroke="#592832" stroke-width="18.0611" stroke-linecap="round" stroke-linejoin="round"/>
<path d="M1150.99 1172.03L291.819 603.007C281.852 596.418 279.143 583.006 285.698 573.039C292.287 563.038 305.733 560.296 315.7 566.918L1174.87 1135.94C1184.84 1142.53 1187.55 1155.94 1180.99 1165.91C1174.4 1175.91 1160.96 1178.65 1150.99 1172.03Z" fill="#AB69F3"/>
<path d="M1174.87 1135.94L315.699 566.918C305.732 560.295 292.286 563.071 285.697 573.038C284.794 574.41 284.493 575.948 283.925 577.42C290.748 573.674 299.243 573.507 306.2 578.089L1165.37 1147.11C1173.97 1152.8 1176.74 1163.44 1173.27 1172.7C1176.24 1171.06 1179.02 1168.95 1181.03 1165.91C1187.58 1155.94 1184.84 1142.53 1174.91 1135.94H1174.87Z" fill="#CAA0F7"/>
<path d="M1161.39 1157.85L302.219 588.826C294.627 583.775 291.316 574.812 293.055 566.383C290.212 568.022 287.603 570.096 285.663 573.039C279.108 583.006 281.85 596.418 291.784 603.007L1150.96 1172.03C1160.92 1178.65 1174.37 1175.91 1180.96 1165.91C1182.5 1163.57 1183.47 1160.99 1184 1158.39C1177.11 1162.33 1168.42 1162.53 1161.36 1157.85H1161.39Z" fill="#933FDE"/>
<path d="M1150.99 1172.03L291.819 603.007C281.852 596.418 279.143 583.006 285.698 573.039C292.287 563.038 305.733 560.296 315.7 566.918L1174.87 1135.94C1184.84 1142.53 1187.55 1155.94 1180.99 1165.91C1174.4 1175.91 1160.96 1178.65 1150.99 1172.03V1172.03Z" stroke="#592832" stroke-width="18.0611" stroke-linecap="round" stroke-linejoin="round"/>
<path d="M769.469 676.958C772.747 688.229 774.218 718.465 750.538 739.235C726.858 760.006 727.226 766.193 711.205 806.596C695.184 847 637.288 850.278 622.003 800.041C605.247 723.582 656.587 704.986 674.815 662.409C710.804 666.222 742.344 671.105 769.502 676.958H769.469Z" fill="#EAAC71"/>
<path d="M764.584 681.639C764.082 696.791 751.974 713.581 735.954 722.31C719.933 731.04 704.882 748.031 699.698 768.165C695.751 783.417 690.433 825.56 669.328 837.266C686.687 836.497 703.644 825.693 711.203 806.595C727.224 766.192 726.856 759.971 750.536 739.234C765.955 725.688 770.704 708.129 771.24 694.416C769.266 690.235 767.059 685.954 764.617 681.606L764.584 681.639Z" fill="#D6823C"/>
<path d="M645.315 802.315C631.635 739.837 663.409 715.989 685.417 686.155C692.24 676.89 686.454 663.645 675.015 662.441H674.781C656.586 705.019 605.246 723.582 621.969 800.074C630.799 829.105 653.843 840.243 674.848 836.698C662.071 831.781 650.9 820.643 645.315 802.348V802.315Z" fill="#F5D7BB"/>
<path d="M651 743.75C640.766 743.75 630.866 745.255 621.601 747.998C617.922 762.045 617.286 778.835 621.969 800.074C637.254 850.31 695.15 847.033 711.171 806.629C716.823 792.314 720.469 782.314 723.813 774.42C706.02 755.624 679.998 743.75 651 743.75Z" fill="#AE6745"/>
<path d="M713.579 800.509C713.981 799.505 714.349 798.502 714.716 797.532C714.884 797.064 715.084 796.562 715.252 796.127C715.352 795.86 715.452 795.592 715.553 795.325C718.864 786.729 721.406 780.006 723.78 774.387C717.793 768.066 710.87 762.547 703.211 757.965C701.773 761.243 700.535 764.654 699.632 768.133C695.685 783.384 690.367 825.527 669.263 837.233C670.199 837.2 671.169 837.099 672.106 836.999C672.273 836.999 672.44 836.999 672.607 836.965C673.477 836.865 674.313 836.731 675.183 836.564C675.417 836.531 675.684 836.497 675.919 836.43C676.721 836.263 677.49 836.096 678.293 835.895C678.594 835.828 678.895 835.761 679.196 835.661C679.932 835.46 680.668 835.226 681.404 834.992C681.738 834.892 682.106 834.758 682.441 834.658C683.143 834.423 683.812 834.156 684.481 833.888C684.849 833.721 685.25 833.587 685.618 833.42C686.253 833.153 686.889 832.852 687.524 832.517C687.926 832.316 688.327 832.116 688.729 831.915C689.331 831.614 689.899 831.28 690.501 830.945C690.903 830.711 691.337 830.443 691.739 830.209C692.307 829.875 692.842 829.507 693.378 829.139C693.812 828.838 694.214 828.537 694.615 828.236C695.117 827.868 695.619 827.467 696.12 827.099C696.555 826.764 696.956 826.396 697.391 826.062C697.859 825.661 698.328 825.259 698.763 824.858C699.197 824.456 699.599 824.055 700 823.654C700.435 823.219 700.836 822.818 701.238 822.383C701.672 821.948 702.074 821.446 702.475 820.978C702.843 820.543 703.244 820.108 703.612 819.64C704.014 819.138 704.415 818.603 704.816 818.068C705.151 817.633 705.485 817.165 705.786 816.73C706.188 816.128 706.589 815.526 706.957 814.891C707.224 814.456 707.525 814.021 707.793 813.553C708.194 812.85 708.596 812.081 708.964 811.345C709.164 810.944 709.398 810.576 709.566 810.175C710.134 809.004 710.669 807.834 711.138 806.596C711.773 804.991 712.375 803.486 712.944 801.98C713.144 801.479 713.312 801.01 713.512 800.509H713.579Z" fill="#924921"/>
<path d="M624.309 806.463C624.744 807.5 625.179 808.537 625.681 809.54C625.948 810.109 626.216 810.61 626.517 811.145C626.985 812.048 627.453 812.918 627.955 813.754C628.256 814.256 628.557 814.791 628.891 815.293C629.393 816.129 629.928 816.898 630.497 817.701C630.798 818.136 631.132 818.604 631.467 819.039C632.069 819.841 632.704 820.611 633.373 821.38C633.674 821.714 633.942 822.049 634.243 822.383C635.112 823.353 636.015 824.256 636.919 825.126C637.019 825.193 637.086 825.293 637.153 825.394C638.223 826.364 639.293 827.3 640.397 828.17C640.464 828.203 640.531 828.27 640.598 828.303C641.634 829.073 642.671 829.809 643.742 830.511C643.942 830.645 644.176 830.778 644.411 830.912C645.347 831.481 646.284 832.016 647.253 832.518C647.488 832.651 647.755 832.752 647.989 832.886C648.959 833.354 649.963 833.789 650.933 834.19C651.133 834.29 651.367 834.357 651.568 834.458C652.672 834.892 653.776 835.26 654.913 835.595C655.013 835.595 655.113 835.662 655.214 835.695C661.635 837.535 668.392 837.836 674.914 836.765C662.137 831.849 650.966 820.711 645.38 802.416C639.996 777.866 641.668 759.303 646.952 743.985C638.189 744.319 629.694 745.691 621.667 748.065C621.232 749.738 620.831 751.443 620.496 753.216C620.429 753.551 620.363 753.918 620.296 754.253C620.028 755.691 619.794 757.129 619.593 758.601C619.526 759.136 619.459 759.638 619.393 760.173C619.225 761.511 619.092 762.882 618.991 764.253C618.958 764.889 618.891 765.524 618.857 766.193C618.791 767.498 618.757 768.836 618.724 770.207C618.724 770.943 618.724 771.679 618.724 772.414C618.724 773.752 618.757 775.124 618.824 776.495C618.857 777.298 618.891 778.067 618.924 778.903C619.025 780.308 619.158 781.746 619.292 783.184C619.359 784.02 619.426 784.823 619.526 785.659C619.727 787.231 619.961 788.837 620.195 790.475C620.296 791.245 620.396 791.981 620.53 792.75C620.931 795.158 621.399 797.633 621.968 800.142C622.503 801.847 623.072 803.486 623.674 805.058C623.874 805.56 624.109 806.061 624.309 806.563V806.463Z" fill="#C18B71"/>
<path d="M674.781 662.409C656.586 705.019 605.246 723.582 621.969 800.041C637.254 850.278 695.15 847 711.171 806.596C727.192 766.193 726.824 759.972 750.504 739.235C774.184 718.465 772.712 688.263 769.435 676.958" stroke="#592832" stroke-width="18.0611" stroke-linecap="round" stroke-linejoin="round"/>
<path d="M677.724 793.418C677.724 793.418 665.717 806.964 668.226 830.745" stroke="#592832" stroke-width="15.0844" stroke-linecap="round" stroke-linejoin="round"/>
<path d="M646.953 784.856C646.953 784.856 634.946 798.402 637.454 822.182" stroke="#592832" stroke-width="15.0844" stroke-linecap="round" stroke-linejoin="round"/>
<path d="M447.945 592.639C447.945 592.639 447.711 592.538 447.578 592.505C447.076 592.304 446.608 592.104 446.106 591.903C417.175 605.114 402.023 620.834 402.023 620.834L476.709 669.766C476.141 648.862 473.8 619.596 472.161 600.866C463.866 598.325 455.772 595.615 447.945 592.639Z" fill="#EAAC71"/>
<path d="M447.945 592.639C447.945 592.639 447.711 592.538 447.578 592.505C447.076 592.304 446.608 592.104 446.106 591.903C417.175 605.114 402.023 620.834 402.023 620.834L420.319 632.841C428.078 626.185 446.206 613.543 472.395 603.643C472.328 602.706 472.228 601.77 472.161 600.866C463.899 598.325 455.772 595.615 447.945 592.639Z" fill="#F5D7BB"/>
<path d="M447.945 592.639C447.945 592.639 447.711 592.538 447.578 592.505C447.076 592.304 446.608 592.104 446.106 591.903C417.175 605.114 402.023 620.834 402.023 620.834L476.709 669.766C476.141 648.862 473.8 619.596 472.161 600.866C463.866 598.325 455.772 595.615 447.945 592.639V592.639Z" stroke="#592832" stroke-width="18.0611" stroke-linecap="round" stroke-linejoin="round"/>
<path d="M402.056 675.987C433.696 645.985 474.668 640.433 494.402 662.374C516.711 687.158 506.61 748.031 434.9 757.964C363.191 767.898 346.401 699.065 373.392 656.989L402.056 675.953V675.987Z" fill="#EAAC71"/>
<path d="M391.084 668.762L373.391 657.022C348.44 695.887 361.484 756.827 420.082 758.131C383.358 745.087 375.13 701.807 391.084 668.729V668.762Z" fill="#F5D7BB"/>
<path d="M411.587 669.163C409.882 675.05 407.908 680.87 407.908 687.325C407.908 719.233 430.853 744.652 460.854 751.074C508.515 731.842 513.633 683.779 494.367 662.407C476.507 642.54 441.522 646.286 411.554 669.163H411.587Z" fill="#AE6745"/>
<path d="M402.057 675.986C433.697 645.985 474.669 640.433 494.403 662.374C516.712 687.157 506.611 748.03 434.901 757.964C363.192 767.897 346.402 699.064 373.393 656.989L402.057 675.953V675.986Z" stroke="#592832" stroke-width="18.0611" stroke-linecap="round" stroke-linejoin="round"/>
<path d="M390.285 688.896C393.998 684.18 397.944 679.899 402.058 675.986" stroke="#592832" stroke-width="18.0611" stroke-linecap="round" stroke-linejoin="round"/>
<path d="M457.445 684.416C457.445 684.416 477.547 676.69 482.43 655.184" stroke="#592832" stroke-width="18.0611" stroke-linecap="round" stroke-linejoin="round"/>
<path d="M477.68 710.637C477.68 710.637 497.781 702.911 502.664 681.405" stroke="#592832" stroke-width="18.0611" stroke-linecap="round" stroke-linejoin="round"/>
</svg>
