<svg width="1549" height="1526" viewBox="0 0 1549 1526" fill="none" xmlns="http://www.w3.org/2000/svg">
<g clip-path="url(#clip0_971_2142)">
<path d="M1016.1 149.736L1004.07 217.589C1004.07 217.589 1090.82 309.494 1173.27 272.555C1255.72 235.627 1212.77 133.421 1212.77 133.421L1153.51 150.598C1153.51 150.598 1186.15 223.937 1124.31 228.489C1062.47 233.042 1065.04 149.736 1016.09 149.736H1016.1Z" fill="#AB69F3"/>
<path d="M1117.89 228.592C1119.88 228.754 1121.65 228.379 1123.61 228.419C1121.37 228.561 1119.72 227.902 1117.64 227.811L1117.89 228.592Z" fill="#FA5455"/>
<path d="M1124.74 228.379C1179.23 228.774 1213.59 182.842 1212.77 133.412L1153.51 150.588C1153.51 150.588 1185.86 223.441 1124.74 228.379Z" fill="#933FDE"/>
<path d="M1131.68 292.359C1060.56 292.359 999.194 228.389 996.092 225.114C993.719 222.579 992.665 219.091 993.273 215.684L1005.31 147.83C1006.23 142.588 1010.78 138.796 1016.09 138.796C1044.82 138.796 1059.17 161.022 1071.82 180.642C1085.28 201.509 1097.01 219.537 1123.51 217.57C1135.46 216.698 1143.25 212.956 1147.32 206.143C1156.18 191.4 1147.58 164.236 1143.49 155.029C1142.22 152.14 1142.24 148.824 1143.58 145.975C1144.92 143.105 1147.43 140.946 1150.47 140.074L1209.73 122.907C1215.06 121.326 1220.71 124.043 1222.87 129.184C1239.17 167.947 1250.69 249.884 1177.74 282.554C1162.27 289.489 1146.74 292.359 1131.69 292.359H1131.68ZM1015.84 213.849C1032.87 230.082 1103.64 291.811 1168.79 262.559C1227.8 236.145 1213.64 171.04 1205.95 146.816L1167.86 157.848C1172.52 172.672 1177.63 198.183 1166.15 217.377C1158.24 230.589 1144.44 238.001 1125.13 239.42C1085.47 242.543 1067.76 214.721 1053.42 192.505C1043.28 176.789 1035.76 165.909 1025.03 162.137L1015.85 213.838L1015.84 213.849Z" fill="#592832"/>
<path d="M1125.82 239.847C1122.91 239.847 1119.99 239.735 1117.03 239.492C1111 239.025 1106.51 233.732 1106.99 227.71C1107.46 221.687 1112.77 216.84 1118.77 217.671C1140.81 219.476 1160.53 212.805 1175.71 198.548C1192.46 182.812 1202.24 158.538 1201.82 133.605C1201.71 127.562 1206.55 122.573 1212.59 122.482C1218.72 122.908 1223.62 127.207 1223.71 133.25C1224.25 164.713 1212.19 194.33 1190.71 214.528C1172.96 231.198 1150.66 239.857 1125.82 239.857V239.847Z" fill="#592832"/>
<path d="M1016.1 149.736L1004.07 217.589C1004.07 217.589 1090.82 309.494 1173.27 272.555C1255.72 235.627 1212.77 133.421 1212.77 133.421L1153.51 150.598C1153.51 150.598 1186.15 223.937 1124.31 228.489C1062.47 233.042 1065.04 149.736 1016.09 149.736H1016.1Z" fill="#AB69F3"/>
<path d="M1138.42 221.22C1142.23 221.717 1145.73 222.721 1150.15 222.396C1212 217.833 1179.38 144.504 1179.38 144.504L1209.22 135.845C1208.19 132.885 1207.48 131.141 1207.48 131.141L1148.2 148.327C1148.2 148.327 1172.8 203.79 1138.44 221.22H1138.42Z" fill="#CAA0F7"/>
<path d="M1029.92 211.496L1039.08 159.987C1031.56 152.535 1022.76 147.475 1010.78 147.475L998.769 215.308C998.769 215.308 1075.73 295.481 1153.55 274.127C1087.64 271.451 1029.93 211.496 1029.93 211.496H1029.92Z" fill="#CAA0F7"/>
<path d="M1117.89 228.592C1119.88 228.754 1121.65 228.379 1123.61 228.419C1121.37 228.561 1119.72 227.902 1117.64 227.811L1117.89 228.592Z" fill="#FA5455"/>
<path d="M1124.74 228.379C1179.23 228.774 1213.59 182.842 1212.77 133.412L1153.51 150.588C1153.51 150.588 1185.86 223.441 1124.74 228.379Z" fill="#933FDE"/>
<path d="M1131.68 292.359C1060.56 292.359 999.194 228.389 996.092 225.114C993.719 222.579 992.665 219.091 993.273 215.684L1005.31 147.83C1006.23 142.588 1010.78 138.796 1016.09 138.796C1044.82 138.796 1059.17 161.022 1071.82 180.642C1085.28 201.509 1097.01 219.537 1123.51 217.57C1135.46 216.698 1143.25 212.956 1147.32 206.143C1156.18 191.4 1147.58 164.236 1143.49 155.029C1142.22 152.14 1142.24 148.824 1143.58 145.975C1144.92 143.105 1147.43 140.946 1150.47 140.074L1209.73 122.907C1215.06 121.326 1220.71 124.043 1222.87 129.184C1239.17 167.947 1250.69 249.884 1177.74 282.554C1162.27 289.489 1146.74 292.359 1131.69 292.359H1131.68ZM1015.84 213.849C1032.87 230.082 1103.64 291.811 1168.79 262.559C1227.8 236.145 1213.64 171.04 1205.95 146.816L1167.86 157.848C1172.52 172.672 1177.63 198.183 1166.15 217.377C1158.24 230.589 1144.44 238.001 1125.13 239.42C1085.47 242.543 1067.76 214.721 1053.42 192.505C1043.28 176.789 1035.76 165.909 1025.03 162.137L1015.85 213.838L1015.84 213.849Z" fill="#592832"/>
<path d="M1125.82 239.847C1122.91 239.847 1119.99 239.735 1117.03 239.492C1111 239.025 1106.51 233.732 1106.99 227.71C1107.46 221.687 1112.77 216.84 1118.77 217.671C1140.81 219.476 1160.53 212.805 1175.71 198.548C1192.46 182.812 1202.24 158.538 1201.82 133.605C1201.71 127.562 1206.55 122.573 1212.59 122.482C1218.72 122.908 1223.62 127.207 1223.71 133.25C1224.25 164.713 1212.19 194.33 1190.71 214.528C1172.96 231.198 1150.66 239.857 1125.82 239.857V239.847Z" fill="#592832"/>
<path d="M1324.09 245.818C1324.09 245.818 1379.1 243.243 1400.98 294.772L1440.04 256.982C1440.04 256.982 1429.74 203.182 1359.31 183.268C1327.53 206.305 1324.09 245.808 1324.09 245.808V245.818Z" fill="#66BB6A"/>
<path d="M1411.01 276.024C1389.13 224.495 1334.12 227.07 1334.12 227.07C1334.12 227.07 1335.42 215.947 1341 202.158C1326.2 223.177 1324.09 245.829 1324.09 245.829C1324.09 245.829 1379.1 243.253 1400.98 294.782L1440.04 256.992C1440.04 256.992 1439.37 254.143 1437.91 249.996C1432.13 255.593 1424.41 263.056 1411.01 276.024Z" fill="#388E3C"/>
<path d="M1400.99 305.723C1400.26 305.723 1399.53 305.652 1398.82 305.51C1395.27 304.8 1392.33 302.387 1390.91 299.061C1372.27 255.106 1325.06 256.658 1324.63 256.769C1321.36 256.719 1318.42 255.684 1316.22 253.423C1314.03 251.142 1312.94 248.019 1313.2 244.886C1313.37 243.071 1317.48 200.1 1352.91 174.416C1355.59 172.47 1359.08 171.851 1362.3 172.764C1438.36 194.259 1450.33 252.49 1450.8 254.944C1451.5 258.584 1450.32 262.305 1447.66 264.891L1408.62 302.681C1406.57 304.678 1403.82 305.743 1401 305.743L1400.99 305.723ZM1337.28 235.659C1354.75 237.96 1384.86 246.386 1403.91 276.724L1427.71 253.677C1423.33 241.205 1408.07 210.401 1361.6 195.415C1346.99 207.907 1340.27 224.739 1337.28 235.659Z" fill="#592832"/>
<path d="M198.955 246.051L159.016 281.073C159.016 281.073 152.577 364.582 235.022 376.171L259.498 345.256C259.498 345.256 196.37 322.067 198.945 246.051H198.955Z" fill="#AB69F3"/>
<path d="M176.76 272.475L199.422 252.601C199.381 250.32 198.874 248.434 198.955 246.041L159.016 281.063C159.016 281.063 152.577 364.572 235.032 376.161C238.814 371.375 241.075 368.526 243.782 365.109C171.721 348.511 176.76 272.475 176.76 272.475Z" fill="#CAA0F7"/>
<path d="M235.022 387.102C234.525 387.102 234.008 387.061 233.511 386.99C160.223 376.709 145.601 312.647 148.106 280.231C148.339 277.382 149.657 274.726 151.817 272.84L191.756 237.818C195.021 234.949 199.685 234.249 203.66 236.165C207.594 238.041 210.058 242.066 209.916 246.426C207.655 313.246 261.07 334.133 263.331 334.995C266.606 336.222 269.121 338.949 270.054 342.336C270.976 345.702 270.267 349.322 268.107 352.07L243.62 382.975C241.521 385.611 238.347 387.112 235.032 387.112L235.022 387.102ZM169.825 286.153C169.896 301.575 174.367 352.992 230.459 364.268L242.667 348.866C225.237 338.31 195.772 314.199 189.252 269.129L169.825 286.153Z" fill="#592832"/>
<path d="M27.2837 611.773C27.2837 611.773 50.4727 657.289 73.6618 665.877C123.477 640.974 134.641 584.284 133.779 573.121L88.2626 546.495C88.2626 546.495 81.3881 603.184 27.2837 611.773Z" fill="#FA5455"/>
<path d="M115.69 562.546C115.031 577.968 102.498 628.909 55.7149 652.301C55.4411 652.199 55.1674 651.956 54.8936 651.844C60.8353 658.161 67.2232 663.495 73.6618 665.877C123.477 640.965 134.641 584.285 133.779 573.121L115.69 562.536V562.546Z" fill="#C92021"/>
<path d="M73.6719 676.828C72.3842 676.828 71.1066 676.615 69.8797 676.149C43.4157 666.364 20.0948 621.791 17.5295 616.742C15.9275 613.619 15.9275 609.918 17.5295 606.795C19.1113 603.672 22.0923 601.502 25.5702 600.944C70.6503 593.796 77.1497 547.114 77.4032 545.137C77.8798 541.486 80.151 538.313 83.4464 536.69C86.7214 535.048 90.6251 535.18 93.7988 537.045L139.315 563.672C142.418 565.476 144.425 568.701 144.719 572.28C145.855 587.215 132.816 648.549 78.5794 675.672C77.0483 676.443 75.3551 676.808 73.682 676.808L73.6719 676.828ZM43.8517 618.871C52.0342 632.225 63.4209 647.383 73.4184 653.589C109.15 633.036 120.263 593.948 122.453 579.195L95.5428 563.438C88.9521 583.474 73.459 608.437 43.8517 618.871Z" fill="#592832"/>
<path d="M167.107 1076.23C167.107 1076.23 176.557 1041.64 210.91 1039.92L244.411 1074.28C244.411 1074.28 211.772 1082.86 200.608 1118.08C173.12 1099.18 167.107 1076.23 167.107 1076.23Z" fill="#AB69F3"/>
<path d="M210.91 1039.92C210.362 1039.95 210.078 1040.29 209.541 1040.33C228.897 1060.19 230.104 1061.42 230.104 1061.42C230.104 1061.42 197.465 1070.01 186.301 1105.22C184.811 1104.2 184.02 1103.12 182.651 1102.08C187.305 1107.37 192.983 1112.83 200.608 1118.08C211.772 1082.86 244.411 1074.28 244.411 1074.28L210.92 1039.92H210.91Z" fill="#933FDE"/>
<path d="M200.608 1129.02C198.418 1129.02 196.258 1128.38 194.403 1127.09C163.903 1106.13 156.816 1080.1 156.532 1079C156.035 1077.12 156.055 1075.19 156.552 1073.33C157.029 1071.6 168.588 1031.05 210.362 1028.97C213.861 1029.08 216.568 1030.03 218.758 1032.27L252.269 1066.63C254.996 1069.43 256.01 1073.45 254.976 1077.2C253.942 1080.96 250.981 1083.88 247.209 1084.86C246.175 1085.14 220.167 1092.63 211.062 1121.38C210.008 1124.68 207.463 1127.3 204.177 1128.42C203.021 1128.82 201.805 1129.01 200.608 1129.01V1129.02ZM178.707 1076.21C180.593 1080.89 185.48 1090.56 196.208 1100.58C204.481 1085.5 216.172 1076.19 225.632 1070.71L206.793 1051.39C189.181 1054.54 181.292 1069.76 178.707 1076.22V1076.21Z" fill="#592832"/>
<path d="M1402.12 374.438L1374.47 407.199C1374.47 407.199 1391.16 457.48 1445.9 463.686L1466.01 427.133C1466.01 427.133 1415.76 417.865 1402.13 374.428L1402.12 374.438Z" fill="#FFA726"/>
<path d="M1453.56 449.774C1402.63 441.277 1386.61 394.291 1386.61 394.291L1402.55 375.391C1402.44 375.046 1402.23 374.783 1402.12 374.428L1374.47 407.199C1374.47 407.199 1391.16 457.48 1445.89 463.686C1449.2 457.663 1451.23 453.972 1453.55 449.764L1453.56 449.774Z" fill="#F57C00"/>
<path d="M1445.9 473.206C1445.55 473.206 1445.19 473.186 1444.84 473.135C1384.75 466.332 1366.2 412.501 1365.43 410.2C1364.4 407.067 1365.06 403.609 1367.2 401.074L1394.84 368.293C1397.05 365.616 1400.62 364.43 1403.98 365.099C1407.39 365.779 1410.15 368.253 1411.18 371.568C1422.96 409.105 1467.29 417.672 1467.74 417.764C1470.73 418.311 1473.3 420.278 1474.6 423.036C1475.92 425.794 1475.82 429.029 1474.35 431.695L1454.24 468.248C1452.55 471.31 1449.35 473.186 1445.9 473.186V473.206ZM1385.45 408.932C1390.55 419.984 1406.21 446.661 1440.77 453.293L1451.89 433.044C1437.26 428.005 1413.23 416.435 1399.53 392.243L1385.45 408.922V408.932Z" fill="#592832"/>
<path d="M1360.58 544.792C1360.58 544.792 1387.46 614.288 1336.39 662.977C1285.32 711.667 1216.59 660.737 1216.59 660.737L1231.42 601.846C1231.42 601.846 1280.82 623.109 1298.33 611.824C1310.58 589.791 1297.54 565.973 1297.54 565.973L1360.57 544.802L1360.58 544.792Z" fill="#AB69F3"/>
<path d="M1250.43 628.422C1250.43 628.422 1297.34 648.873 1332.97 615.028C1345.25 592.995 1316.54 592.569 1316.54 592.569L1366.86 575.636C1365.2 557.608 1360.59 544.792 1360.59 544.792L1297.56 565.963C1297.56 565.963 1310.59 589.791 1298.35 611.824C1280.83 623.109 1231.42 601.857 1231.42 601.857L1216.58 660.726C1216.58 660.726 1225.57 667.216 1239.1 673.35L1250.43 628.422Z" fill="#CAA0F7"/>
<path d="M1273.75 614.318L1273.71 614.166C1274.35 614.257 1274.98 614.328 1275.61 614.409C1274.95 614.328 1274.41 614.409 1273.75 614.318Z" fill="#417812"/>
<path d="M1284.9 614.845C1290.12 614.713 1294.93 614.024 1298.34 611.823C1310.59 589.8 1297.55 565.973 1297.55 565.973L1360.58 544.801C1366.84 576.436 1339.96 617.37 1284.88 614.855L1284.9 614.845Z" fill="#933FDE"/>
<path d="M1283.98 694.866C1254.02 694.866 1225.75 681.157 1210.07 669.558C1206.5 666.901 1204.87 662.379 1205.97 658.08L1220.79 599.169C1221.57 596.067 1223.68 593.451 1226.57 592.021C1229.44 590.591 1232.79 590.49 1235.75 591.788C1255.34 600.204 1280.38 606.348 1290.2 603.57C1296.71 588.026 1288.03 571.367 1287.92 571.184C1286.42 568.356 1286.2 564.949 1287.4 561.968C1288.6 558.976 1291.02 556.624 1294.06 555.6L1357.09 534.408C1362.59 532.533 1368.68 535.372 1370.8 540.827C1372.01 543.95 1399.67 617.786 1343.96 670.916C1325.47 688.529 1304.33 694.856 1283.98 694.856V694.866ZM1229.11 655.92C1245.67 666.06 1292.7 689.533 1328.85 655.068C1363.21 622.287 1357.94 578.323 1353.31 558.804L1311.89 572.726C1315.02 583.707 1317.09 600.65 1307.93 617.137C1307.06 618.718 1305.81 620.057 1304.29 621.04C1287.95 631.504 1256.85 622.947 1239.02 616.569L1229.12 655.92H1229.11Z" fill="#592832"/>
<path d="M1290.02 626.496C1284.23 626.496 1278.27 626.049 1272.16 625.157C1266.19 624.265 1262.05 618.708 1262.92 612.716C1263.82 606.724 1269.3 602.698 1275.36 603.479C1300.96 607.291 1322.92 601.238 1336.96 586.475C1347.53 575.372 1352.46 560.224 1349.83 546.911C1348.65 540.979 1352.52 535.22 1358.46 534.044C1364.27 532.908 1370.17 536.721 1371.32 542.672C1375.32 562.83 1368.22 585.41 1352.82 601.583C1337.28 617.928 1315.37 626.496 1290.01 626.496H1290.02Z" fill="#592832"/>
<path d="M1460.43 664.235C1460.43 664.235 1466.58 628.909 1500.62 623.961L1537.21 655.008C1537.21 655.008 1505.52 666.628 1497.72 702.735C1468.58 686.511 1460.44 664.225 1460.44 664.225L1460.43 664.235Z" fill="#FA5455"/>
<path d="M1500.62 623.97C1500.08 624.051 1499.83 624.416 1499.29 624.508C1520.44 642.454 1521.74 643.57 1521.74 643.57C1521.74 643.57 1490.06 655.19 1482.26 691.296C1480.68 690.414 1479.79 689.421 1478.33 688.508C1483.46 693.345 1489.62 698.242 1497.71 702.744C1505.52 666.637 1537.2 655.017 1537.2 655.017L1500.62 623.97Z" fill="#C92021"/>
<path d="M1497.71 713.705C1495.88 713.705 1494.04 713.239 1492.38 712.337C1460.04 694.319 1450.53 669.081 1450.14 668.007C1449.48 666.202 1449.3 664.265 1449.64 662.379C1449.95 660.615 1457.63 619.155 1499.05 613.152C1502.17 612.706 1505.33 613.618 1507.71 615.646L1544.3 646.693C1547.26 649.208 1548.67 653.112 1547.99 656.955C1547.32 660.787 1544.65 663.981 1540.99 665.31C1539.97 665.685 1514.79 675.591 1508.42 705.077C1507.67 708.463 1505.39 711.312 1502.21 712.742C1500.79 713.381 1499.23 713.705 1497.7 713.705H1497.71ZM1471.96 663.14C1474.29 667.591 1480.07 676.787 1491.69 685.741C1498.49 669.964 1509.26 659.591 1518.17 653.233L1497.6 635.783C1480.34 640.559 1473.95 656.407 1471.96 663.14Z" fill="#592832"/>
<path d="M308.999 577.826C308.999 577.826 308.999 511.148 353.664 499.366C326.176 463.533 312.437 451.518 312.437 451.518C312.437 451.518 247.159 484.157 247.159 550.287C266.059 581.202 308.999 577.826 308.999 577.826Z" fill="#66BB6A"/>
<path d="M339.134 481.187C290.748 496.213 285.993 563.154 285.577 575.707C298.454 578.597 308.989 577.826 308.989 577.826C308.989 577.826 308.989 511.149 353.654 499.367C348.128 492.157 343.555 486.56 339.134 481.187Z" fill="#388E3C"/>
<path d="M305.187 588.898C292.3 588.898 256.193 586.069 237.81 555.975C236.755 554.262 236.208 552.284 236.208 550.277C236.208 478.215 304.609 443.173 307.519 441.713C311.473 439.756 316.269 440.344 319.626 443.265C320.234 443.802 334.51 456.415 362.343 492.705C364.574 495.615 365.192 499.437 363.996 502.915C362.82 506.373 359.971 509.029 356.422 509.952C320.528 519.412 319.94 577.258 319.92 577.846C319.899 583.544 315.519 588.29 309.831 588.756C309.496 588.776 307.813 588.898 305.177 588.898H305.187ZM258.17 547.063C268.806 561.805 287.453 565.709 298.698 566.682C300.624 548.056 307.985 511.27 336.193 494.814C324.29 479.878 315.773 470.469 310.703 465.206C295.605 474.879 259.813 502.479 258.16 547.052L258.17 547.063Z" fill="#592832"/>
<path d="M551.374 139.242C551.374 139.242 544.935 174.619 564.261 203.314C666.041 211.395 678.493 155.993 682.569 139.242L657.017 96.7275C657.017 96.7275 633.828 165.007 551.374 139.242Z" fill="#FA5455"/>
<path d="M672.257 122.076C665.818 143.724 645.336 185.539 555.977 178.452C554.203 175.826 553.615 173.047 552.256 170.34C553.919 180.895 556.9 192.373 564.271 203.314C666.051 211.395 678.503 155.993 682.579 139.242C678.117 131.82 675.299 127.136 672.267 122.076H672.257Z" fill="#C92021"/>
<path d="M583.769 215.075C577.25 215.075 570.456 214.792 563.379 214.224C560.063 213.97 557.032 212.206 555.166 209.428C533.62 177.417 540.301 138.897 540.606 137.275C541.153 134.193 543.009 131.485 545.706 129.863C548.393 128.261 551.658 127.845 554.639 128.798C626.213 151.075 645.874 95.5714 646.665 93.2089C648.034 89.1835 651.633 86.314 655.882 85.8476C660.11 85.5231 664.236 87.4293 666.437 91.11L691.978 133.615C693.458 136.079 693.905 139.029 693.225 141.828C681.423 190.609 644.677 215.086 583.79 215.086L583.769 215.075ZM570.629 192.779C650.812 197.159 665.899 159.734 670.827 140.986L657.443 118.71C643.876 138.279 614.827 164.814 561.3 153.194C561.28 163.496 562.852 178.827 570.619 192.779H570.629Z" fill="#592832"/>
<path d="M404.939 73.1123L446.825 101.898C446.825 101.898 410.09 137.528 441.005 211.395C394.627 238.883 356.837 198.507 356.837 198.507C356.837 198.507 339.661 110.04 404.939 73.1123Z" fill="#FFA726"/>
<path d="M446.825 101.888L431.059 91.0488C421.467 99.9919 395.793 130.684 410.901 194.918C388.087 203.759 369.583 198.923 355.884 191.197C356.371 195.425 356.837 198.497 356.837 198.497C356.837 198.497 394.627 238.862 441.005 211.384C410.09 137.518 446.825 101.888 446.825 101.888Z" fill="#F57C00"/>
<path d="M407.89 231.826C381.294 231.826 359.251 217.083 348.837 205.98C347.428 204.469 346.485 202.614 346.09 200.576C345.319 196.652 328.234 103.916 399.525 63.571C403.215 61.5228 407.667 61.7357 411.124 64.0881L453.031 92.8741C455.738 94.7296 457.472 97.7005 457.736 100.965C458.019 104.24 456.813 107.475 454.46 109.756C453.264 110.973 423.748 141.838 451.114 207.156C453.213 212.196 451.297 218.016 446.592 220.804C433.208 228.733 420.067 231.816 407.9 231.816L407.89 231.826ZM367.088 193.164C374.409 199.754 398.176 217.782 427.175 206.071C408.387 153.995 421.456 120.271 431.241 104.464L404.615 86.1719C359.879 116.53 365.121 178.34 367.099 193.164H367.088Z" fill="#592832"/>
<path d="M334.997 1172.71C334.997 1172.71 325.243 1232.73 399.606 1241.43C374.764 1299.08 323.235 1298.2 323.235 1298.2C323.235 1298.2 270.743 1237 334.997 1172.71Z" fill="#FFA726"/>
<path d="M349.78 1288.2C349.78 1288.2 316.087 1247.61 337.613 1197.94C333.496 1184.3 334.997 1172.7 334.997 1172.7C270.743 1236.99 323.235 1298.19 323.235 1298.19C323.235 1298.19 340.827 1298.15 360.356 1286.96C354.029 1288.12 349.77 1288.19 349.77 1288.19L349.78 1288.2Z" fill="#F57C00"/>
<path d="M323.367 1309.15H323.043C319.909 1309.1 316.949 1307.71 314.911 1305.33C314.323 1304.63 256.629 1235.63 327.23 1164.97C330.596 1161.63 335.727 1160.82 339.976 1162.96C344.183 1165.12 346.536 1169.73 345.806 1174.41C345.735 1174.96 343.24 1193.59 354.931 1208.89C364.006 1220.76 379.459 1228.05 400.883 1230.57C404.311 1230.96 407.352 1232.97 409.086 1235.97C410.82 1238.97 411.033 1242.6 409.654 1245.77C383.028 1307.63 328.65 1309.16 323.367 1309.16V1309.15ZM326.591 1200.39C301.547 1240.21 320.356 1275.05 328.406 1286.89C339.266 1285.53 365.233 1279.17 383.109 1249.66C362.982 1244.88 347.621 1235.56 337.289 1221.89C331.945 1214.79 328.629 1207.35 326.591 1200.39Z" fill="#592832"/>
<path d="M296.305 988.253C319.575 1039.33 518.137 1114.49 636.87 1106.48C726.016 1043.85 658.741 947.837 640.165 928.977C581.417 960.633 389.375 943.771 372.533 940.262L296.305 988.242V988.253Z" fill="#E8AB71"/>
<path d="M370.992 966.097C387.854 969.625 579.886 986.487 638.624 954.832C649.423 965.772 675.836 1002.81 679.365 1044.09C688.987 993.19 653.164 942.178 640.155 928.986C581.407 960.601 389.385 943.78 372.523 940.251L296.315 988.231C298.667 993.473 303.98 999.071 309.75 1004.67L370.992 966.097Z" fill="#F5D7BB"/>
<path d="M299.6 994.083C300.29 995.147 301.03 996.212 301.841 997.297C302.236 997.824 302.632 998.362 303.047 998.889C303.95 1000.03 304.923 1001.19 305.947 1002.36C306.333 1002.79 306.677 1003.23 307.083 1003.66C308.452 1005.18 309.942 1006.7 311.504 1008.24C312.163 1008.89 312.883 1009.55 313.582 1010.19C314.586 1011.14 315.61 1012.08 316.675 1013.03C317.557 1013.81 318.459 1014.61 319.382 1015.39C320.345 1016.21 321.339 1017.03 322.343 1017.85C323.397 1018.7 324.422 1019.56 325.527 1020.43C326.307 1021.03 327.139 1021.65 327.94 1022.26C330.475 1024.2 333.121 1026.13 335.889 1028.08C336.558 1028.56 337.218 1029.02 337.907 1029.5C339.56 1030.64 341.253 1031.78 342.977 1032.92C343.595 1033.33 344.224 1033.74 344.863 1034.15C346.749 1035.38 348.655 1036.61 350.622 1037.83C350.652 1037.85 350.673 1037.87 350.703 1037.89C357.507 1042.13 364.787 1046.35 372.452 1050.53C372.655 1050.64 372.868 1050.75 373.071 1050.86C375.596 1052.23 378.161 1053.59 380.767 1054.95C449.533 1090.66 562.395 1111.41 635.369 1106.48C724.516 1043.85 658.761 947.837 640.186 928.977C622.016 938.772 580.18 945.961 545.635 948.303C566.887 1002.83 558.887 1053.34 492.402 1042.6C425.411 1023.63 354.668 1000.74 321.055 972.678L296.315 988.253C296.974 989.692 297.795 991.173 298.698 992.663C298.982 993.13 299.306 993.606 299.61 994.083H299.6Z" fill="#D6813A"/>
<path d="M607.83 1113.55C490.091 1113.55 331.266 1056.87 306.759 1003.05C304.903 998.959 305.704 994.153 308.807 990.929L364.614 932.698C367.251 929.97 371.053 928.794 374.754 929.544C391.271 933.002 579.602 949.164 634.974 919.334C639.212 917.073 644.525 917.823 647.963 921.291C659.653 933.164 692.009 978.346 687.476 1028.47C684.515 1061.03 667.055 1088.74 635.552 1110.88C633.909 1112.01 631.983 1112.69 629.995 1112.84C622.817 1113.31 615.395 1113.55 607.82 1113.55H607.83ZM330.323 1000.12C361.715 1043.8 515.156 1097.63 625.443 1091.18C649.879 1073.25 663.405 1051.5 665.666 1026.5C668.749 992.46 650.285 958.624 637.367 942.371C571.845 969.352 411.489 956.039 376.579 951.871L330.323 1000.12Z" fill="#592832"/>
<path d="M11.2938 822.177C11.2938 822.177 63.0052 935.658 167.746 923.542C272.477 911.425 283.184 844.17 348.026 855.871L298.566 703.616C298.566 703.616 225.267 699.946 172.816 783.617C120.364 867.288 28.3991 833.706 11.2938 822.177Z" fill="#AB69F3"/>
<path d="M29.5144 851.582C47.583 861.529 142.195 886.675 186.9 798.623C224.689 724.189 282.921 710.562 300.036 708.138L298.566 703.616C298.566 703.616 225.267 699.946 172.816 783.617C120.364 867.288 28.3991 833.706 11.2938 822.177C11.2938 822.177 18.5739 838.147 33.1951 857.463C30.7819 853.802 29.5144 851.592 29.5144 851.592V851.582Z" fill="#CAA0F7"/>
<path d="M346.789 855.688C347.205 855.759 347.6 855.79 348.026 855.871L347.905 855.506C347.54 855.567 347.154 855.617 346.789 855.688Z" fill="#DB8EBC"/>
<path d="M152.334 935.385C52.0647 935.385 1.8539 827.856 1.33678 826.72C-0.691116 822.249 0.485065 816.986 4.22654 813.813C7.96801 810.659 13.3521 810.355 17.4383 813.103C26.3104 819.095 62.1028 833.118 98.7976 825.382C125.515 819.734 147.295 803.724 163.528 777.807C218.748 689.705 295.635 692.615 299.113 692.666C303.636 692.899 307.58 695.911 308.969 700.22L358.429 852.464C359.626 856.135 358.805 860.15 356.27 863.05C353.735 865.94 349.851 867.278 346.079 866.629C318.814 861.742 302.713 873.068 280.467 888.764C255.797 906.214 225.085 927.902 169.003 934.392C163.305 935.051 157.738 935.375 152.334 935.375V935.385ZM37.4131 844.464C59.071 875.106 102.519 920.054 166.469 912.652C217.014 906.792 244.015 887.719 267.833 870.888C287.352 857.078 305.988 843.907 332.513 843.552L290.677 714.811C271.889 716.433 221.343 726.806 182.093 789.417C162.555 820.555 136.07 839.861 103.33 846.786C79.3804 851.846 55.867 849.301 37.403 844.454L37.4131 844.464Z" fill="#592832"/>
<path d="M294.916 721.584L403.297 1109.01C406.369 1120 417.948 1126.26 428.828 1122.8C439.18 1119.52 445.071 1108.61 442.151 1098.14L333.77 710.714C330.698 699.723 319.119 693.467 308.239 696.924C297.886 700.21 291.995 711.12 294.916 721.584Z" fill="#CED0D0"/>
<path d="M442.141 1098.14L333.76 710.714C330.688 699.723 319.108 693.467 308.229 696.924C304.264 698.182 300.969 700.575 298.556 703.606C306.454 704.509 313.43 710.035 315.712 718.197L424.093 1105.63C425.898 1112.09 424.326 1118.7 420.443 1123.6C423.18 1123.92 426.019 1123.69 428.818 1122.8C439.18 1119.52 445.061 1108.61 442.141 1098.14Z" fill="#A3A5A7"/>
<path d="M422.663 1134.73C417.583 1134.73 412.554 1133.46 407.941 1130.97C400.437 1126.92 395.053 1120.19 392.741 1111.96L284.36 724.534V724.513C279.838 708.28 288.852 691.58 304.913 686.48C313.075 683.915 321.653 684.716 329.116 688.762C336.619 692.807 342.003 699.56 344.315 707.763L452.696 1095.19C457.218 1111.45 448.184 1128.17 432.113 1133.25C429.01 1134.23 425.837 1134.73 422.663 1134.73ZM305.461 718.622L413.842 1106.05C414.521 1108.5 416.123 1110.5 418.354 1111.7C420.544 1112.9 423.079 1113.16 425.502 1112.36C430.278 1110.86 432.955 1105.91 431.596 1101.09L323.215 713.684C322.536 711.241 320.934 709.243 318.703 708.037C316.492 706.84 313.927 706.597 311.534 707.378C306.779 708.878 304.102 713.826 305.461 718.622Z" fill="#592832"/>
<path d="M437.178 968.472C440.565 928.964 413.513 894.382 376.755 891.231C339.998 888.08 307.455 917.553 304.068 957.061C300.681 996.569 327.733 1031.15 364.49 1034.3C401.247 1037.45 433.79 1007.98 437.178 968.472Z" fill="#AD6746"/>
<path d="M369.806 1045.57C359.413 1045.57 349.06 1043.34 339.296 1038.87C319.636 1029.89 304.791 1013.17 297.501 991.801C283.032 949.377 303.737 901.722 343.626 885.57C362.698 877.853 383.403 878.3 402.019 886.786C421.659 895.77 436.503 912.49 443.794 933.854V933.874C458.283 976.278 437.578 1023.93 397.669 1040.09C388.615 1043.76 379.205 1045.57 369.816 1045.57H369.806ZM371.459 902.006C364.848 902.006 358.216 903.294 351.839 905.869C322.536 917.742 307.438 953.099 318.226 984.724C323.56 1000.34 334.267 1012.5 348.401 1018.94C361.431 1024.92 376.011 1025.2 389.446 1019.79C418.769 1007.91 433.857 972.536 423.079 940.931C417.735 925.316 407.018 913.159 392.904 906.71C386.039 903.577 378.769 902.006 371.459 902.006Z" fill="#592832"/>
<path d="M375.028 994.863C372.493 994.863 369.968 994.011 367.92 992.247C363.317 988.313 362.789 981.408 366.703 976.814C376.346 965.529 404.199 948.566 440.863 965.195C446.369 967.709 448.813 974.199 446.318 979.704C443.824 985.19 437.335 987.654 431.809 985.159C400.883 971.075 383.504 990.848 383.352 991.04C381.182 993.575 378.11 994.873 375.028 994.873V994.863Z" fill="#592832"/>
<path d="M362.404 947.654C359.646 947.654 356.878 946.619 354.759 944.551C350.46 940.343 350.318 933.499 354.495 929.169C355.712 927.942 384.103 899.136 428.017 917.955C433.573 920.348 436.149 926.797 433.776 932.343C431.383 937.92 424.975 940.526 419.388 938.102C389.71 925.306 371.002 943.628 370.211 944.429C368.072 946.589 365.243 947.654 362.404 947.654Z" fill="#592832"/>
<path d="M1007.84 1328.44C1145.21 1345.45 1186.42 1224.56 1161.54 1066.72C1136.66 908.88 1198.25 807.171 1313.99 816.215C1429.72 825.259 1509.9 982.229 1437.74 1149.05C1365.56 1315.88 1170.43 1444.91 948.771 1410.37L1007.84 1328.44Z" fill="#EAAC71"/>
<path d="M1007.84 1328.44C1145.21 1345.45 1186.42 1224.56 1161.54 1066.72C1136.66 908.88 1198.25 807.171 1313.99 816.215C1429.72 825.259 1509.9 982.229 1437.74 1149.05C1365.56 1315.88 1170.43 1444.91 948.771 1410.37L1007.84 1328.44Z" fill="#AE6745"/>
<path d="M1041.17 1334.79C1178.54 1351.79 1216.79 1220.11 1191.92 1062.27C1167.19 905.382 1230.87 814.806 1345.24 822.461C1335.19 819.176 1324.73 817.047 1313.98 816.205C1198.24 807.161 1136.66 908.87 1161.53 1066.71C1186.41 1224.55 1145.19 1345.44 1007.83 1328.43L948.761 1410.36C960.492 1412.18 972.142 1413.53 983.711 1414.47L1041.16 1334.79H1041.17Z" fill="#C18B71"/>
<path d="M1367.19 1101.47C1365.25 1098.47 1361.31 1097.69 1358.35 1099.59C1349.2 1105.6 1339.72 1112.04 1330.11 1118.87C1322.12 1094.69 1312.26 1069.48 1301.77 1044.95C1318.5 1032.43 1335.91 1020.01 1353.31 1008.5C1357.1 1019.92 1360.51 1031.32 1363.38 1042.54C1364.02 1045.04 1366.03 1046.79 1368.39 1047.23C1369.29 1047.41 1370.21 1047.39 1371.17 1047.16C1374.58 1046.26 1376.64 1042.78 1375.77 1039.38C1372.54 1026.82 1368.66 1014.06 1364.4 1001.28C1370.87 997.155 1377.31 993.17 1383.71 989.378C1386.76 987.573 1387.76 983.639 1385.96 980.638C1384.15 977.596 1380.22 976.592 1377.22 978.397C1371.56 981.763 1365.85 985.271 1360.11 988.911C1350.42 961.677 1338.98 934.777 1327.58 910.127C1333.98 905.859 1340.49 901.702 1347.07 897.626C1350.05 895.78 1350.99 891.836 1349.16 888.824C1347.26 885.793 1343.33 884.921 1340.35 886.766C1334.19 890.579 1328.09 894.492 1322.07 898.447C1314.88 883.369 1307.82 869.296 1301.31 856.824C1299.68 853.722 1295.86 852.485 1292.68 854.137C1289.58 855.77 1288.37 859.602 1290 862.736C1296.66 875.562 1303.96 890.051 1311.36 905.656C1291.41 919.213 1272.47 933.317 1255.46 946.67C1236.98 910.432 1223.04 885.935 1222.7 885.296C1220.97 882.234 1217.04 881.169 1214.01 882.944C1210.95 884.708 1209.89 888.571 1211.63 891.633C1211.98 892.272 1226.39 917.58 1245.26 954.762C1224.58 971.38 1207.36 986.285 1195.46 996.901C1189.2 985.302 1185.28 978.518 1185.12 978.235C1183.36 975.172 1179.46 974.108 1176.4 975.872C1173.37 977.646 1172.31 981.53 1174.08 984.572C1174.27 984.896 1178.69 992.653 1185.73 1005.7C1180.69 1010.33 1177.86 1013.02 1177.74 1013.17C1175.19 1015.6 1175.1 1019.64 1177.55 1022.17C1178.5 1023.17 1179.69 1023.78 1180.98 1024.02C1182.93 1024.4 1185.04 1023.85 1186.59 1022.36C1186.7 1022.26 1188.57 1020.46 1191.93 1017.35C1201.52 1035.65 1213.98 1060.3 1226.79 1088.2C1207.8 1104.04 1192.07 1117.82 1181.4 1127.32C1179.26 1122.72 1177.15 1118.32 1175.03 1114.1C1173.47 1110.98 1169.63 1109.67 1166.47 1111.26C1163.3 1112.86 1162.03 1116.7 1163.62 1119.86C1166.19 1124.98 1168.83 1130.5 1171.46 1136.28C1168.2 1139.24 1166.38 1140.93 1166.26 1141.06C1163.69 1143.43 1163.52 1147.49 1165.94 1150.08C1166.89 1151.08 1168.1 1151.76 1169.38 1152.01C1171.33 1152.38 1173.41 1151.82 1174.95 1150.4C1175.03 1150.32 1175.73 1149.66 1176.95 1148.57C1186.04 1169.5 1195.24 1193.15 1203.58 1217.15C1187.64 1230.36 1173.36 1242.46 1161.79 1252.41C1161.02 1250.96 1160.5 1250 1160.38 1249.79C1158.69 1246.71 1154.77 1245.58 1151.72 1247.29C1148.64 1248.98 1147.49 1252.82 1149.19 1255.94C1149.24 1256.02 1150.27 1257.9 1151.8 1261.01C1138.77 1272.27 1130.95 1279.23 1130.63 1279.51C1128 1281.86 1127.76 1285.88 1130.1 1288.51C1131.09 1289.62 1132.36 1290.31 1133.67 1290.56C1135.54 1290.92 1137.58 1290.42 1139.14 1289.03C1139.41 1288.77 1146.14 1282.81 1157.42 1273.03C1162.88 1285.68 1168.98 1302.81 1168.43 1315.34C1168.3 1318.56 1170.53 1321.29 1173.59 1321.88C1173.9 1321.94 1174.21 1321.96 1174.53 1321.96C1178.05 1322.13 1181.02 1319.39 1181.18 1315.87C1181.9 1299.63 1173.81 1278.28 1167.52 1264.33C1178.64 1254.77 1192.46 1243.03 1208.01 1230.09C1215.08 1251.24 1221.42 1272.28 1226.4 1291.61C1227.04 1294.11 1229.05 1295.85 1231.38 1296.3C1232.3 1296.47 1233.22 1296.46 1234.19 1296.23C1237.59 1295.33 1239.65 1291.85 1238.78 1288.44C1233.37 1267.41 1226.36 1244.38 1218.53 1221.36C1233.14 1209.29 1248.94 1196.5 1265.31 1183.59C1270.22 1198.08 1274.61 1212.5 1278.24 1226.58C1278.88 1229.09 1280.86 1230.83 1283.25 1231.28C1284.11 1231.44 1285.07 1231.43 1286 1231.19C1289.44 1230.29 1291.5 1226.81 1290.59 1223.41C1286.55 1207.66 1281.54 1191.47 1275.93 1175.27C1291.56 1163.08 1307.52 1150.94 1323.24 1139.53C1324.85 1145.05 1326.39 1150.51 1327.75 1155.85C1328.39 1158.32 1330.4 1160.1 1332.73 1160.54C1333.66 1160.71 1334.58 1160.67 1335.54 1160.44C1338.95 1159.57 1341.01 1156.09 1340.13 1152.68C1338.37 1145.81 1336.37 1138.79 1334.18 1131.66C1344.86 1124.07 1355.3 1116.89 1365.38 1110.31C1368.32 1108.36 1369.14 1104.4 1367.22 1101.49L1367.19 1101.47ZM1316.81 917.347C1328.2 942.016 1339.52 968.896 1349.05 996.009C1331.34 1007.62 1313.62 1020.2 1296.54 1032.91C1284.76 1006.1 1272.44 980.455 1261.31 958.28C1278.15 944.987 1296.96 930.924 1316.81 917.347ZM1201.63 1008.47C1213.01 998.26 1230.2 983.294 1251.13 966.402C1262.22 988.638 1274.45 1014.2 1286.07 1040.82C1268.56 1054.11 1251.9 1067.4 1236.88 1079.77C1223.81 1051.41 1211.17 1026.54 1201.63 1008.47ZM1214.07 1208.46C1205.49 1184.2 1196.13 1160.39 1186.91 1139.49C1196.93 1130.49 1212.73 1116.58 1232.21 1100.27C1242.17 1122.64 1252.12 1146.66 1260.81 1170.84C1244.54 1183.64 1228.71 1196.4 1214.07 1208.46ZM1271.37 1162.57C1262.49 1138.22 1252.42 1114.11 1242.36 1091.8C1257.23 1079.53 1273.8 1066.21 1291.29 1052.88C1301.75 1077.47 1311.49 1102.63 1319.23 1126.63C1303.37 1138.07 1287.24 1150.26 1271.37 1162.57Z" fill="#924921"/>
<path d="M1198.64 1129.07C1198.42 1123.73 1198.14 1118.34 1197.76 1112.88C1191.48 1118.34 1185.94 1123.26 1181.36 1127.3C1179.22 1122.71 1177.11 1118.31 1174.99 1114.09C1173.5 1111.11 1169.9 1109.82 1166.84 1111.08C1167.32 1117.07 1167.69 1122.96 1167.95 1128.74C1169.09 1131.22 1170.27 1133.69 1171.43 1136.27C1170.13 1137.44 1169.09 1138.4 1168.28 1139.16C1168.36 1143.4 1168.39 1147.55 1168.33 1151.7C1168.69 1151.83 1169.02 1151.92 1169.36 1151.99C1171.31 1152.37 1173.39 1151.81 1174.93 1150.39C1175.01 1150.31 1175.71 1149.65 1176.93 1148.56C1183.35 1163.33 1189.8 1179.47 1195.98 1196.11C1197.22 1186.79 1198.07 1177.18 1198.54 1167.24C1194.69 1157.62 1190.79 1148.28 1186.91 1139.51C1190.2 1136.55 1194.17 1133.05 1198.64 1129.09V1129.07Z" fill="#A66A49"/>
<path d="M1210.93 889.778C1212.34 887.223 1213.83 884.749 1215.36 882.366C1214.89 882.498 1214.42 882.66 1213.98 882.934C1211.52 884.363 1210.39 887.131 1210.93 889.778Z" fill="#A66A49"/>
<path d="M1189.87 1228.55C1179.4 1237.31 1169.9 1245.4 1161.77 1252.39C1161 1250.94 1160.48 1249.98 1160.36 1249.77C1158.86 1247.01 1155.59 1245.85 1152.74 1246.83C1151.56 1249.84 1150.36 1252.79 1149.08 1255.68C1149.1 1255.75 1149.11 1255.84 1149.16 1255.92C1149.21 1255.99 1150.24 1257.87 1151.77 1260.98C1148.15 1264.14 1144.93 1266.92 1142.16 1269.31C1138.39 1275.95 1134.19 1282.14 1129.56 1287.79C1129.71 1288.02 1129.85 1288.26 1130.05 1288.49C1131.05 1289.6 1132.32 1290.29 1133.63 1290.54C1135.5 1290.9 1137.54 1290.4 1139.1 1289.01C1139.37 1288.75 1146.1 1282.8 1157.38 1273.01C1159.39 1277.64 1161.47 1282.87 1163.27 1288.22C1166.33 1283.98 1169.22 1279.48 1171.87 1274.72C1170.39 1270.98 1168.91 1267.46 1167.48 1264.3C1172.11 1260.33 1177.23 1255.94 1182.72 1251.27C1185.46 1244.05 1187.83 1236.47 1189.85 1228.54L1189.87 1228.55Z" fill="#A66A49"/>
<path d="M1185.69 1005.69C1180.65 1010.32 1177.82 1013.01 1177.7 1013.15C1175.15 1015.59 1175.06 1019.63 1177.51 1022.16C1178.46 1023.16 1179.65 1023.77 1180.93 1024.01C1182.89 1024.39 1185 1023.84 1186.55 1022.35C1186.59 1022.3 1186.87 1022.03 1187.37 1021.55C1186.51 1007.61 1186.41 994.295 1187.07 981.661C1185.86 979.522 1185.16 978.315 1185.09 978.204C1183.33 975.142 1179.43 974.077 1176.37 975.841C1173.34 977.616 1172.28 981.499 1174.05 984.541C1174.24 984.865 1178.66 992.622 1185.7 1005.67L1185.69 1005.69Z" fill="#A66A49"/>
<path d="M1313.99 816.205C1306.6 815.627 1300.13 816.773 1293.22 817.067C1396.73 837.751 1464.67 981.519 1398.07 1135.44C1332.44 1287.16 1161.29 1404.81 962.885 1390.8L948.75 1410.35C1170.42 1444.88 1365.55 1315.88 1437.72 1149.05C1509.88 982.229 1429.71 825.249 1313.98 816.195L1313.99 816.205Z" fill="#924921"/>
<path d="M1021.74 1427.03C997.4 1427.03 972.477 1425.14 947.067 1421.18C943.306 1420.59 940.112 1418.1 938.652 1414.59C937.192 1411.06 937.658 1407.03 939.879 1403.95L954.013 1384.4C956.223 1381.34 959.894 1379.7 963.656 1379.89C1144.74 1392.49 1319.13 1290.37 1388.03 1131.1C1423.38 1049.41 1422.68 961.971 1386.16 897.22C1363.58 857.189 1330.28 832.287 1292.43 827.126C1286.81 826.355 1282.71 821.427 1282.97 815.769C1283.23 810.101 1287.76 805.579 1293.43 805.326C1301.69 804.95 1307.53 804.697 1314.86 805.285C1365.44 809.24 1411.59 839.972 1441.46 889.575C1485.35 962.457 1487.73 1061.07 1447.79 1153.41C1385.62 1297.12 1224.09 1427.02 1021.75 1427.04L1021.74 1427.03ZM970.774 1402.26C1187.53 1426.58 1363.36 1293.36 1427.68 1144.71C1464.82 1058.86 1462.96 967.689 1422.71 900.87C1412 883.116 1399 868.109 1384.42 856.368C1392.04 865.351 1399.03 875.42 1405.24 886.472C1445.11 957.144 1446.18 1051.86 1408.15 1139.8C1336.72 1304.91 1158.02 1412.15 970.784 1402.27L970.774 1402.26Z" fill="#592832"/>
<path d="M1021.74 1427.03C997.4 1427.03 972.477 1425.14 947.067 1421.18C943.306 1420.59 940.112 1418.1 938.652 1414.59C937.192 1411.08 937.658 1407.04 939.879 1403.96L998.961 1322.04C1001.29 1318.78 1005.18 1317.2 1009.17 1317.57C1054.75 1323.19 1090.41 1313.03 1115.29 1287.35C1154.08 1247.27 1166.64 1169.52 1150.71 1068.45C1135.7 973.215 1151.04 895.243 1193.93 848.865C1223.85 816.52 1265.55 801.402 1314.83 805.305C1365.41 809.26 1411.56 839.993 1441.46 889.595C1485.35 962.478 1487.72 1061.09 1447.77 1153.41C1385.6 1297.12 1224.07 1427.04 1021.73 1427.04L1021.74 1427.03ZM968.31 1401.98C1185.77 1427.31 1363.11 1293.91 1427.67 1144.7C1464.81 1058.85 1462.95 967.699 1422.7 900.88C1396.5 857.412 1356.58 830.532 1313.12 827.146C1270.92 823.688 1235.2 836.484 1210.01 863.719C1171.78 905.068 1158.42 976.561 1172.36 1065.02C1189.38 1173.06 1174.71 1257.44 1131.06 1302.57C1102.38 1332.18 1062.57 1344.74 1012.99 1340.03L968.31 1401.98Z" fill="#592832"/>
<path d="M561.97 1143.87C475.236 1193.6 439.028 1387.88 603.288 1438.22C725.155 1470.01 753.657 1377.95 756.952 1354.33C767.548 1278.38 653.631 1167.11 561.97 1143.87Z" fill="#EAAC71"/>
<path d="M624.652 1438.22C465.685 1389.5 494.481 1205.97 575.12 1149.13C569.361 1147.07 563.643 1145.3 558.015 1143.87C471.282 1193.6 435.074 1387.88 599.334 1438.22C622.401 1444.25 642.122 1445.82 658.964 1444.26C648.439 1443.38 637.032 1441.45 624.652 1438.22Z" fill="#F5D7BB"/>
<path d="M650.629 1455.79C635.106 1455.79 618.386 1453.47 600.53 1448.83C504.763 1419.49 483.115 1348.96 478.694 1309.54C470.856 1239.62 504.327 1164.31 556.525 1134.37C559.019 1132.96 561.939 1132.63 564.667 1133.25C661.337 1157.77 779.451 1272.3 767.781 1355.84C767.051 1361.18 759.284 1408.94 717.307 1436.95C698.488 1449.51 676.171 1455.79 650.629 1455.79ZM563.653 1155.64C521.412 1182.67 493.842 1248.06 500.453 1307.09C504.286 1341.19 523.145 1402.2 606.502 1427.75C646.938 1438.26 680.308 1435.32 705.139 1418.73C739.766 1395.62 745.87 1354.55 746.113 1352.81C755.776 1283.6 648.581 1179.76 563.653 1155.64Z" fill="#592832"/>
<path d="M733.57 1515.05H453.335C453.335 1515.05 460.331 1442.05 551.627 1423.21C642.913 1404.37 738.478 1458.53 743.69 1482.08C748.891 1505.63 733.591 1515.05 733.591 1515.05H733.57Z" fill="#AE6745"/>
<path d="M733.57 1515.05H453.335C453.335 1515.05 460.331 1442.05 551.627 1423.21C642.913 1404.37 738.478 1458.53 743.69 1482.08C748.891 1505.63 733.591 1515.05 733.591 1515.05H733.57Z" fill="#AE6745"/>
<path d="M564.099 1437.55C636.921 1422.53 712.409 1453.95 742.635 1479.23C731.096 1454.47 639.395 1405.09 551.617 1423.21C460.331 1442.04 453.325 1515.05 453.325 1515.05H469.142C476.311 1492.8 498.324 1451.12 564.099 1437.55Z" fill="#C18B71"/>
<path d="M743.679 1482.08C741.945 1474.22 730.092 1462.94 711.74 1452.11C708.698 1452.43 705.666 1452.79 702.635 1453.21C667.968 1458.02 645.478 1468.09 630.898 1478.74C618.061 1488.11 602.599 1493.16 586.7 1493.16H459.449C454.237 1505.85 453.335 1515.05 453.335 1515.05H733.58C733.58 1515.05 748.891 1505.63 743.679 1482.08Z" fill="#924921"/>
<path d="M733.58 1526H453.335C450.253 1526 447.312 1524.7 445.223 1522.42C443.155 1520.14 442.141 1517.09 442.425 1514C442.516 1513.2 451.317 1432.73 549.397 1412.49C643.329 1393.17 747.107 1446.97 754.366 1479.71C759.801 1504.31 747.451 1519.37 739.309 1524.38C737.575 1525.44 735.598 1526 733.57 1526H733.58ZM466.993 1504.11H729.535C731.938 1501.36 735.395 1495.29 732.992 1484.45C729.18 1468.1 641.737 1415.79 553.827 1433.93C492.96 1446.49 473.229 1484.43 466.993 1504.11Z" fill="#592832"/>
<path d="M554.304 1526C553.199 1526 552.063 1525.82 550.958 1525.46C545.219 1523.61 542.045 1517.47 543.881 1511.72C544.469 1509.85 558.928 1465.76 595.673 1453.87C601.503 1452.05 607.618 1455.19 609.473 1460.92C611.329 1466.68 608.175 1472.85 602.416 1474.72C576.449 1483.1 564.849 1518.05 564.738 1518.41C563.237 1523.04 558.928 1526 554.314 1526H554.304Z" fill="#592832"/>
<path d="M492.413 1526C491.307 1526 490.172 1525.82 489.067 1525.46C483.328 1523.61 480.154 1517.47 481.989 1511.72C482.577 1509.85 497.036 1465.76 533.782 1453.87C539.683 1452.05 545.736 1455.19 547.582 1460.92C549.437 1466.68 546.284 1472.85 540.524 1474.72C514.557 1483.1 502.958 1518.05 502.846 1518.41C501.345 1523.04 497.036 1526 492.423 1526H492.413Z" fill="#592832"/>
<path d="M984.107 924.525C919.792 958.655 836.101 979.289 744.582 979.289C685.641 979.289 629.955 970.721 580.586 955.501C589.427 995.258 596.535 1061.02 569.726 1124.7C527.333 1225.37 458.455 1445.27 768.43 1445.27C963.595 1445.27 1112.81 1255.4 1064.7 1108.8C1041.71 1049.97 985.101 998.655 984.107 924.505V924.525Z" fill="#EAAC71"/>
<path d="M593.98 1124.71C619.237 1064.71 614.391 1002.88 606.35 962.671C597.59 960.47 588.991 958.098 580.586 955.502C589.427 995.259 596.535 1061.02 569.726 1124.7C527.333 1225.37 458.455 1445.27 768.43 1445.27C771.695 1445.27 774.95 1445.21 778.194 1445.1C484.899 1438.3 552.266 1223.77 593.98 1124.69V1124.71Z" fill="#F5D7BB"/>
<path d="M944.015 1389.67C888.177 1343.68 846.24 1269.19 837.612 1178.17C823.305 1027.3 625.919 1006.33 579.987 1094.61C577.321 1104.61 573.944 1114.69 569.726 1124.71C527.333 1225.38 458.455 1445.28 768.43 1445.28C834.083 1445.28 894.525 1423.77 944.015 1389.67Z" fill="#FFE5C0"/>
<path d="M839.619 1436.72C844.03 1435.65 848.4 1434.45 852.73 1433.19C853.946 1432.84 855.153 1432.45 856.37 1432.08C859.472 1431.14 862.555 1430.15 865.617 1429.11C867.016 1428.63 868.405 1428.15 869.784 1427.66C872.785 1426.59 875.756 1425.48 878.717 1424.32C879.934 1423.84 881.161 1423.39 882.367 1422.9C890.56 1419.59 898.57 1415.95 906.388 1411.99C907.564 1411.39 908.72 1410.78 909.886 1410.17C912.624 1408.74 915.351 1407.28 918.038 1405.78C919.346 1405.05 920.654 1404.31 921.952 1403.56C924.598 1402.03 927.204 1400.47 929.79 1398.88C930.936 1398.18 932.081 1397.49 933.217 1396.77C936.867 1394.47 940.477 1392.11 944.015 1389.67C940.811 1387.04 937.658 1384.28 934.545 1381.45C933.633 1380.63 932.75 1379.76 931.858 1378.92C929.648 1376.85 927.458 1374.77 925.298 1372.61C924.314 1371.63 923.351 1370.6 922.378 1369.6C920.34 1367.49 918.312 1365.36 916.324 1363.16C915.361 1362.11 914.418 1361.02 913.475 1359.95C911.518 1357.73 909.592 1355.46 907.696 1353.16C877.642 1316.74 854.676 1270.43 843.503 1217.02C826.377 1242.11 798.544 1296.79 814.595 1370.49C816.907 1381.09 810.022 1391.52 799.447 1393.92C706.011 1415.18 608.996 1398.09 541.67 1335.94L540.707 1335.76C561.442 1397.22 623.547 1445.26 768.43 1445.26C792.988 1445.26 816.826 1442.25 839.619 1436.69V1436.72Z" fill="#DBAB7A"/>
<path d="M593.98 1124.71C602.852 1103.63 607.962 1082.34 610.568 1061.81C597.62 1070.14 587.024 1081.08 579.987 1094.61C579.369 1096.95 578.7 1099.28 578 1101.62C577.828 1102.21 577.635 1102.79 577.452 1103.38C576.925 1105.1 576.368 1106.82 575.8 1108.55C575.546 1109.3 575.293 1110.05 575.039 1110.8C574.472 1112.44 573.883 1114.08 573.265 1115.73C573.011 1116.43 572.758 1117.11 572.494 1117.81C571.612 1120.12 570.71 1122.41 569.736 1124.7C527.343 1225.37 458.466 1445.27 768.44 1445.27C771.522 1445.27 774.574 1445.18 777.636 1445.08C485.011 1438.01 552.307 1223.7 593.99 1124.69L593.98 1124.71Z" fill="#FFF7EC"/>
<path d="M1064.7 1108.82C1045.94 1060.8 1004.78 1017.79 989.755 963.289C988.984 960.48 988.295 957.641 987.666 954.772C987.565 954.295 987.453 953.819 987.352 953.342C986.733 950.412 986.186 947.451 985.729 944.45C985.729 944.389 985.719 944.328 985.709 944.267C985.293 941.458 984.979 938.609 984.715 935.74C984.655 935.02 984.594 934.29 984.533 933.57C984.31 930.589 984.137 927.588 984.097 924.536C919.782 958.665 836.091 979.299 744.572 979.299C685.631 979.299 629.945 970.731 580.576 955.512C580.991 957.367 581.397 959.304 581.802 961.281C581.914 961.849 582.036 962.427 582.147 963.005C582.461 964.566 582.766 966.168 583.06 967.801C583.161 968.338 583.262 968.866 583.354 969.403C583.729 971.481 584.084 973.611 584.439 975.791C584.52 976.328 584.601 976.886 584.692 977.423C584.915 978.893 585.138 980.404 585.351 981.915C644.951 1011.61 740.131 1023.99 845.885 1011.71C857.759 1009.66 869.399 1007.25 880.755 1004.5C908.355 997.783 936.786 1011.65 948.193 1037.66C966.86 1080.21 997.968 1116.7 1013.58 1156.66C1037.87 1230.67 1011.85 1315.7 955.037 1381.77C1045.72 1313.56 1095.4 1202.39 1064.7 1108.83V1108.82Z" fill="#D6823C"/>
<path d="M768.44 1456.22C657.97 1456.22 583.435 1428.35 546.933 1373.36C508.859 1316.02 513.117 1230.93 559.637 1120.46C584.753 1060.84 579.085 999.142 569.899 957.875C569.523 956.202 569.564 954.468 569.99 952.795C579.227 916.546 592.915 894.533 611.805 885.479C636.616 873.666 663.871 886.087 690.244 898.153C707.867 906.214 726.108 914.549 741.804 914.549C773.976 914.549 805.074 918.483 835.148 922.315C891.31 929.423 939.858 935.608 978.987 914.843C982.333 913.058 986.419 913.149 989.694 915.096C992.969 917.053 995.027 920.571 995.058 924.384C995.666 969.231 1018.64 1006.23 1040.88 1042C1053.41 1062.2 1066.38 1083.07 1074.89 1104.83C1097.18 1172.72 1081.19 1250.86 1031.26 1319.81C969.395 1405.22 871.153 1456.22 768.43 1456.22H768.44ZM591.861 955.745C601.382 1000.08 606.634 1065.29 579.815 1128.97C536.347 1232.26 531.409 1310.41 565.163 1361.24C597.366 1409.74 665.757 1434.34 768.44 1434.34C864.147 1434.34 955.767 1386.71 1013.53 1306.98C1059.3 1243.78 1074.17 1172.8 1054.29 1112.26C1046.72 1092.92 1034.85 1073.81 1022.28 1053.58C1001.07 1019.43 979.22 984.248 974.211 940.972C932.183 956.749 883.544 950.544 832.39 944.055C802.995 940.313 772.597 936.44 741.814 936.44C721.352 936.44 700.911 927.101 681.139 918.067C658.325 907.644 636.809 897.768 621.275 905.251C609.118 911.061 599.232 928.044 591.871 955.745H591.861Z" fill="#592832"/>
<path d="M724.029 358.093C640.216 379.498 544.966 270.021 462.897 329.408C404.392 371.751 454.379 464.619 516.869 489.004L724.029 358.093Z" fill="#EAAC71"/>
<path d="M450.172 354.676C522.192 302.549 604.383 380.481 680.064 385.875L724.019 358.093C640.206 379.498 544.955 270.021 462.886 329.408C449.391 339.183 441.725 351.654 438.602 365.343C441.867 361.53 445.659 357.941 450.172 354.676Z" fill="#F5D7BB"/>
<path d="M516.859 499.944C515.5 499.944 514.172 499.711 512.884 499.194C469.396 482.241 432.336 436.086 426.688 391.827C422.927 362.473 433.512 337.165 456.468 320.536C507.652 283.497 561.767 305.175 614.066 326.164C652.221 341.474 688.287 355.913 721.312 347.477C726.533 346.118 731.938 348.795 734.077 353.753C736.217 358.711 734.432 364.46 729.869 367.33L522.709 498.241C520.945 499.366 518.917 499.934 516.859 499.934V499.944ZM518.37 322.534C501.406 322.534 485.001 326.914 469.305 338.29C448.59 353.277 446.511 374.164 448.417 389.069C452.838 423.665 481.959 461.11 515.865 476.684L683.623 370.676C657.605 367.218 631.486 356.734 605.934 346.493C575.546 334.306 546.193 322.544 518.39 322.544L518.37 322.534Z" fill="#592832"/>
<path d="M451.114 429.485C465.766 455.634 490.152 478.58 516.859 489.004L599.881 436.542C517.822 299.436 429.659 387.284 451.114 429.485Z" fill="#EE857B"/>
<path d="M484.494 418.463C475.804 401.358 485.112 376.77 504.712 362.676C464.326 363.213 438.369 404.4 451.114 429.485C465.766 455.635 490.152 478.58 516.859 489.004L540.93 473.794C517.934 462.114 497.411 441.541 484.484 418.463H484.494Z" fill="#FFBAB0"/>
<path d="M516.859 499.944C515.5 499.944 514.172 499.691 512.884 499.194C484.615 488.162 457.949 464.101 441.553 434.839C441.482 434.717 441.411 434.585 441.34 434.443C429.041 410.261 443.084 376.324 471.992 360.354C506.547 341.231 560.733 349.799 609.27 430.915C612.322 436.025 610.751 442.626 605.721 445.8L522.699 498.251C520.935 499.377 518.907 499.944 516.849 499.944H516.859ZM460.767 424.334C473.797 447.473 494.096 466.687 515.855 476.684L584.814 433.105C551.719 382.235 513.929 362.189 482.577 379.508C464.448 389.525 454.116 410.839 460.757 424.334H460.767Z" fill="#592832"/>
<path d="M1153.89 405.303C1101.2 362.301 1025.08 400.983 974.434 407.706C926.494 369.419 870.028 343.523 807.842 336.689C602.375 314.118 410.546 525.881 390.622 707.287C376.711 833.97 531.997 954.954 737.464 977.525C942.93 1000.1 1120.77 915.684 1134.69 789.011C1141.97 722.76 1130.97 653.061 1105.52 588.706C1204.4 553.603 1224.77 463.138 1153.89 405.313V405.303Z" fill="#EAAC71"/>
<path d="M1157.38 408.324C1167.26 455.067 1138.19 505.146 1072.6 532.046C1101.56 596.056 1116.12 666.191 1111.99 733.73C1104.08 862.867 927.884 957.154 718.442 944.328C617.281 938.132 526.867 908.079 461.315 864.114C524.048 921.777 622.959 964.941 737.474 977.514C942.941 1000.08 1120.78 915.673 1134.7 789.001C1141.98 722.749 1130.98 653.051 1105.53 588.695C1202.71 554.201 1223.99 466.23 1157.39 408.324H1157.38Z" fill="#D6823C"/>
<path d="M832.542 473.683C845.409 472.831 851.685 471.757 866.509 469.232C903.833 462.783 950.667 437.789 969.952 418.504C964.497 401.105 949.46 405.17 944.816 387.244C944.745 387.132 944.705 386.99 944.675 386.848C903.61 360.293 857.698 342.143 807.832 336.698C751.122 330.463 695.578 342.549 644.282 366.468C637.154 375.381 629.914 384.009 623.07 393.49C627.025 397.201 630.979 400.729 635.014 404.187C638.969 407.614 643.177 410.139 647.243 413.272C651.268 416.476 655.233 420.258 659.572 423.391C660.637 424.172 661.742 424.851 662.817 425.602C666.274 427.954 669.702 430.276 674.863 433.51C675.501 433.906 676.181 434.291 676.82 434.687C679.101 436.076 681.382 437.465 683.704 438.783C685.803 440.03 687.912 441.277 691.512 443.204C693.043 444.025 694.645 444.806 696.47 445.739C698.498 446.773 700.495 447.837 704.379 449.693C708.516 451.619 712.653 453.475 717.246 455.391C719.781 456.426 722.346 457.318 724.871 458.241C726.899 459.021 728.937 459.843 731.005 460.563C732.181 460.958 733.357 461.13 734.534 461.526C740.06 463.341 745.728 464.699 751.325 466.16C758.848 468.045 766.402 469.759 773.996 470.976C779.776 471.898 785.586 472.578 791.467 473.075C799.234 473.784 807.082 474.109 815.031 474.109C820.841 474.109 826.651 474.068 832.532 473.683H832.542Z" fill="#D6823C"/>
<path d="M1153.89 405.302C1101.2 362.301 1025.08 400.983 974.434 407.705C966.373 401.267 958.059 395.214 949.531 389.515L945.242 395.923C980.913 433.764 1009.22 432.77 1055.1 417.47C1108.18 399.766 1191.93 425.064 1194.89 497.764C1199.88 465.764 1186.65 432.05 1153.88 405.313L1153.89 405.302Z" fill="#F5D7BB"/>
<path d="M421.619 710.684C441.046 533.81 623.902 328.111 823.487 338.869C818.306 338.017 813.104 337.256 807.842 336.678C602.375 314.108 410.546 525.871 390.622 707.277C376.711 833.96 531.997 954.944 737.464 977.515C742.655 978.082 747.826 978.569 752.987 979.005C555.267 952.217 408.062 834.162 421.629 710.684H421.619Z" fill="#F5D7BB"/>
<path d="M803.837 992.135C781.611 992.135 759.031 990.909 736.267 988.414C634.903 977.271 542.137 942.361 475.054 890.081C406.42 836.626 372.574 771.267 379.732 706.09C400.62 515.965 603.075 303.319 809.039 325.798C868.547 332.338 926.687 356.653 977.506 396.187C988.508 394.372 1000.89 391.178 1013.92 387.812C1059.85 375.908 1117.06 361.114 1160.8 396.826C1195.75 425.328 1212.04 463.32 1205.48 501.07C1198.52 541.364 1167.45 575.159 1119.64 594.982C1143.54 659.753 1152.5 727.018 1145.56 790.197C1138.39 855.374 1091.18 911.82 1012.6 949.113C953.019 977.403 880.603 992.135 803.837 992.135ZM778.032 346.006C593.807 346.006 420.331 537.014 401.512 708.483C395.205 765.842 426.11 824.195 488.509 872.814C552.438 922.629 641.271 955.937 738.66 966.635C835.989 977.403 929.992 964.12 1003.21 929.331C1074.68 895.415 1117.49 845.153 1123.79 787.815C1130.72 724.787 1120.88 657.329 1095.35 592.721C1094.24 589.963 1094.33 586.87 1095.56 584.163C1096.79 581.456 1099.06 579.367 1101.87 578.373C1147.92 562.028 1177.83 532.492 1183.93 497.328C1189.08 467.599 1175.6 437.16 1146.98 413.789C1111.79 385.094 1062.71 397.799 1019.4 408.993C1003.91 413.008 989.278 416.78 975.894 418.565C972.933 419.011 969.922 418.118 967.62 416.263C918.484 377.013 864.319 353.895 806.656 347.568C797.104 346.513 787.553 345.996 778.032 345.996V346.006Z" fill="#592832"/>
<path d="M1195.96 485.039C1200.72 517.323 1165.11 567.189 1106.65 588.31C1090.13 549.983 1069.44 512.903 1042.72 477.637C1042.72 477.637 1182.99 397.039 1195.96 485.039Z" fill="white"/>
<path d="M1195.96 485.039C1200.72 517.323 1165.11 567.189 1106.65 588.31C1090.13 549.983 1069.44 512.903 1042.72 477.637C1042.72 477.637 1182.99 397.039 1195.96 485.039Z" fill="#EE857B"/>
<path d="M1195.96 485.039C1192.11 458.859 1176.98 447.604 1157.62 444.705C1162.8 451.214 1166.32 459.954 1167.55 471.493C1170.58 499.965 1142.02 540.705 1094.94 562.941C1099.05 571.337 1102.97 579.793 1106.64 588.32C1165.11 567.2 1200.71 517.334 1195.95 485.05L1195.96 485.039Z" fill="#FFBAB0"/>
<path d="M1106.65 599.271C1102.39 599.271 1098.37 596.756 1096.6 592.639C1079.28 552.446 1058.8 516.979 1033.99 484.238C1032.11 481.724 1031.38 478.54 1032 475.447C1032.61 472.355 1034.54 469.688 1037.27 468.126C1046.65 462.763 1129.98 416.364 1177.27 439.269C1193.72 447.239 1203.66 462.104 1206.81 483.437C1212.25 520.274 1174.78 575.331 1110.38 598.612C1109.16 599.058 1107.89 599.271 1106.66 599.271H1106.65ZM1059.03 481.298C1079.58 509.85 1097.15 540.451 1112.41 574.226C1162.51 552.375 1188.54 509.668 1185.13 486.641C1183.08 472.699 1177.38 463.665 1167.72 458.981C1140.37 445.688 1087.31 466.981 1059.04 481.298H1059.03Z" fill="#592832"/>
<path d="M1041.78 1063.44C1051.63 1076.08 1093.59 1129.22 1109.6 1155.91C1152 1226.56 1160.24 1327.82 1103.71 1406.71C1047.19 1485.6 932.973 1487.96 881.718 1423.2C805.875 1327.36 834.641 1241 855.376 1201.76C946.013 1189.44 991.833 1123.61 1041.77 1063.44H1041.78Z" fill="#EAAC71"/>
<path d="M1109.6 1155.92C1093.59 1129.23 1051.63 1076.09 1041.78 1063.45C1026.3 1082.1 1011.2 1101.31 995.058 1119.3C1000.84 1127.49 1005.95 1135.1 1009.66 1141.3C1052.05 1211.95 1060.3 1313.21 1003.77 1392.1C980.71 1424.28 948.051 1443.72 913.992 1451.06C971.412 1484.73 1057.14 1471.73 1103.71 1406.73C1160.23 1327.83 1151.99 1226.57 1109.6 1155.93V1155.92Z" fill="#D6823C"/>
<path d="M718.716 1219.9C719.04 1220.31 719.365 1220.73 719.689 1221.14C719.365 1220.74 719.04 1220.32 718.716 1219.9Z" fill="#D6823C"/>
<path d="M715.4 1215.07C715.907 1215.88 716.424 1216.67 716.952 1217.45C716.424 1216.67 715.897 1215.91 715.4 1215.07Z" fill="#D6823C"/>
<path d="M1105.26 1388.21C1140.87 1304.04 1107.44 1209.45 1030.59 1176.93C953.739 1144.42 862.573 1186.31 826.965 1270.48C791.356 1354.65 824.79 1449.24 901.64 1481.76C978.49 1514.27 1069.66 1472.38 1105.26 1388.21Z" fill="#E8AB71"/>
<path d="M893.886 1450.26C832.876 1393.33 833.951 1293.01 896.309 1226.19C918.139 1202.78 944.583 1186.66 972.355 1177.98C979.118 1175.87 977.415 1165.81 970.327 1166.1C910.95 1168.47 853.5 1207.62 826.945 1270.4C791.345 1354.58 824.785 1449.17 901.632 1481.67C930.925 1494.06 962.287 1495.58 991.874 1488.13C955.99 1488.01 921.07 1475.62 893.886 1450.26Z" fill="#F4D6BA"/>
<path d="M720.49 779.622C715.339 840.317 675.877 879.851 639.466 876.961C596.231 873.524 573.336 817.361 573.336 771.034C573.336 724.707 602.943 749.853 639.466 749.853C675.988 749.853 724.404 733.467 720.49 779.622Z" fill="#592832"/>
<path d="M1026.62 1174.71C1069.21 1295.37 906.854 1405.79 813.003 1350.12C816.461 1407.61 848.775 1459.32 901.622 1481.67C978.48 1514.18 1069.64 1472.29 1105.24 1388.11C1136.68 1313.79 1147.28 1190.93 1026.62 1174.71Z" fill="#D6813A"/>
<path d="M950.342 1502.27C932.375 1502.27 914.499 1499.01 897.374 1491.76C815.082 1456.95 778.955 1355.73 816.846 1266.13C846.484 1196.04 913.435 1152.01 984.097 1155.08C990.14 1155.4 994.774 1160.55 994.47 1166.6C994.145 1172.66 989.126 1177.34 982.951 1176.97C921.607 1173.62 863.072 1213.04 837.013 1274.66C803.827 1353.15 834.732 1441.49 905.881 1471.59C972.061 1499.67 1057.42 1455.18 1095.59 1396.11C1142.06 1324.21 1148.25 1252.83 1114 1183.9C1101.17 1158.11 1082.61 1135 1064.66 1112.64C1047.13 1090.82 1029.02 1068.28 1015.55 1042.65C1012.73 1037.29 1014.8 1030.68 1020.15 1027.86C1025.52 1025.01 1032.15 1027.11 1034.95 1032.46C1047.42 1056.22 1064.09 1076.96 1081.73 1098.94C1100.43 1122.18 1119.74 1146.25 1133.61 1174.18C1171.01 1249.41 1164.23 1330.28 1113.99 1408.01C1080.5 1459.85 1015.02 1502.29 950.342 1502.29V1502.27Z" fill="#592832"/>
<path d="M916.172 1490.08C948.416 1462.16 972.599 1369.04 908.122 1308.29C843.655 1247.56 745.292 1251.4 705.484 1295.71C685.357 1314.59 716.201 1373.41 774.382 1427.08C832.562 1480.75 896.045 1508.96 916.172 1490.07V1490.08Z" fill="#AD6746"/>
<path d="M916.172 1490.08C948.416 1462.16 972.599 1369.04 908.122 1308.29C843.655 1247.56 745.292 1251.4 705.484 1295.71C685.357 1314.59 716.201 1373.41 774.382 1427.08C832.562 1480.75 896.045 1508.96 916.172 1490.07V1490.08Z" fill="#AD6746"/>
<path d="M916.172 1490.08C944.482 1465.57 966.556 1390.81 927.894 1331.82C944.715 1395.48 907.057 1387.49 884.953 1363.27C874.144 1351.42 813.48 1288.45 734.067 1285.62H716.718C712.642 1288.74 708.799 1292.03 705.484 1295.72C685.357 1314.6 716.201 1373.42 774.382 1427.09C832.562 1480.76 896.045 1508.97 916.172 1490.08Z" fill="#924921"/>
<path d="M710.858 1320.91C750.665 1276.6 849.029 1272.76 913.496 1333.49C930.794 1349.79 941.663 1368.42 947.747 1387.49C944.644 1360.02 933.004 1331.75 908.122 1308.31C843.655 1247.57 745.292 1251.41 705.484 1295.72C697.291 1303.41 697.666 1317.77 704.754 1335.63C705.068 1329.5 707.045 1324.49 710.848 1320.91H710.858Z" fill="#C08A71"/>
<path d="M898.225 1509.02C862.403 1509.02 809.13 1476.99 765.479 1436.72C717.459 1392.41 686.34 1343.63 686.219 1312.42C686.168 1298.75 691.775 1290.59 696.521 1286.15C715.684 1264.75 748.455 1251.13 785.687 1249.58C833.738 1247.25 881.81 1265.5 917.115 1298.75C946.753 1326.68 962.601 1364.91 961.729 1406.37C960.948 1443.8 946.165 1481.33 924.923 1499.84C918.058 1506.17 908.912 1509.02 898.225 1509.02ZM793.028 1275.66C790.94 1275.66 788.861 1275.71 786.772 1275.78C756.567 1277.05 730.488 1287.51 715.228 1304.49C713.109 1306.56 712.429 1308.91 712.45 1312.32C712.521 1332.17 736.866 1374.65 783.264 1417.45C845.642 1475 897.83 1489.18 907.209 1480.5C907.331 1480.39 907.463 1480.27 907.584 1480.17C920.522 1468.98 934.778 1440.94 935.508 1405.83C936.005 1381.82 930.104 1347.05 899.118 1317.87C870.453 1290.85 832.106 1275.67 793.038 1275.67L793.028 1275.66Z" fill="#592832"/>
<path d="M917.175 1489C935.63 1468.59 902.979 1408.99 844.247 1355.88C785.514 1302.78 722.94 1276.27 704.484 1296.68C686.028 1317.09 718.679 1376.69 777.412 1429.8C836.145 1482.9 898.719 1509.41 917.175 1489Z" fill="#924921"/>
<path d="M898.225 1509.02C862.403 1509.02 809.13 1476.99 765.479 1436.72C717.459 1392.41 686.34 1343.63 686.219 1312.42C686.168 1298.75 691.775 1290.59 696.521 1286.15C726.219 1258.23 799.325 1296.64 856.167 1349.07C904.198 1393.38 935.316 1442.18 935.448 1473.37C935.498 1487.03 929.891 1495.2 925.146 1499.64C918.261 1506.11 909.034 1509.02 898.236 1509.02H898.225ZM723.238 1302.91C719.081 1302.91 716.11 1303.75 714.467 1305.28C713.109 1306.57 712.44 1308.92 712.44 1312.32C712.531 1332.17 736.876 1374.65 783.274 1417.45C845.652 1475 897.84 1489.18 907.219 1480.5C908.558 1479.24 909.237 1476.88 909.217 1473.48C909.146 1453.64 884.78 1411.15 838.382 1368.35C787.036 1320.98 742.564 1302.9 723.248 1302.9L723.238 1302.91Z" fill="#592832"/>
<path d="M874.753 1334.53C872.137 1334.53 869.531 1333.63 867.371 1331.82C850.854 1317.81 817.627 1313.19 801.474 1322.67C796.111 1325.88 789.104 1324.06 785.88 1318.63C782.686 1313.21 784.511 1306.23 789.926 1303.03C814.24 1288.66 858.185 1294.14 882.124 1314.46C886.92 1318.53 887.508 1325.72 883.422 1330.52C881.181 1333.16 877.967 1334.54 874.742 1334.54L874.753 1334.53Z" fill="#592832"/>
<path d="M861.267 1005.79C861.267 1005.79 910.129 936.643 960.817 894.452C990.181 870.006 969.202 837.783 993.547 827.45C1017.89 817.118 1026.78 843.704 1026.78 843.704C1026.78 843.704 1080.08 791.192 1112 833.179C1143.92 875.167 1132.18 922.447 1062.67 966.493C1005.69 1002.6 937.506 1101.92 937.506 1101.92" fill="#EAAC71"/>
<path d="M1056.66 857.808C1090.1 840.307 1100.75 837.276 1111.41 844.87C1113.26 846.229 1114.09 842.406 1114.3 836.85C1113.45 835.633 1112.91 834.386 1112.02 833.179C1080.08 791.192 1026.78 843.694 1026.78 843.694C1026.78 843.694 1017.91 817.139 993.527 827.44C969.212 837.783 990.181 870.006 960.806 894.452C910.119 936.653 861.277 1005.81 861.277 1005.81L863.376 1008.45C893.146 1002.97 895.498 1003.56 930.53 965.145C966.038 926.219 1023.17 875.319 1056.64 857.808H1056.66Z" fill="#D6813A"/>
<path d="M1112.02 833.179C1080.08 791.192 1026.78 843.694 1026.78 843.694C1026.78 843.694 1017.91 817.139 993.527 827.44C969.212 837.783 990.181 870.006 960.806 894.452C960.239 894.949 959.671 895.486 959.093 895.953C976.35 932.242 1007.68 961.292 1046.57 978.509C1051.98 974.199 1057.41 969.849 1062.68 966.493C1132.18 922.437 1143.92 875.167 1112.02 833.179Z" fill="#AD6746"/>
<path d="M974.495 921.616C1003.69 894.635 1035.03 869.144 1056.67 857.808C1090.11 840.307 1100.76 837.276 1111.42 844.87C1113.27 846.229 1114.1 842.406 1114.31 836.85C1113.46 835.633 1112.95 834.386 1112.03 833.179C1080.09 791.192 1026.79 843.694 1026.79 843.694C1026.79 843.694 1017.92 817.139 993.537 827.44C969.222 837.783 990.191 870.006 960.817 894.452C960.249 894.919 959.681 895.486 959.103 895.983C963.412 904.997 968.583 913.555 974.505 921.616H974.495Z" fill="#924921"/>
<path d="M960.806 1105.28C959.073 1105.28 957.308 1104.86 955.656 1103.98C950.322 1101.14 948.315 1094.5 951.164 1089.16C953.141 1085.47 1000.2 998.189 1056.25 957.641C1091.41 932.211 1111.9 906.062 1115.45 882.031C1117.62 867.278 1113.65 853.478 1103.28 839.83C1097.63 832.398 1091.09 828.515 1083.26 827.947C1064.85 826.679 1041.65 844.505 1034.46 851.531C1031.75 854.168 1027.92 855.252 1024.21 854.36C1020.56 853.468 1017.6 850.781 1016.38 847.192C1015.63 845.052 1012.57 838.867 1007.82 836.768C1006.86 836.342 1003.81 835.004 997.805 837.549C992.472 839.79 991.529 843.217 990.069 855.688C988.497 869.093 986.348 887.445 967.803 902.868C918.535 943.882 872.39 999.821 871.934 1000.38C868.081 1005.08 861.166 1005.72 856.512 1001.89C851.837 998.037 851.168 991.142 855.001 986.468C856.948 984.115 902.89 928.399 953.8 886.036C965.613 876.201 966.921 865.007 968.31 853.133C969.79 840.53 971.625 824.844 989.248 817.361C1001.5 812.19 1011.03 814.167 1016.89 816.824C1022.37 819.298 1026.55 823.08 1029.65 826.913C1041.9 817.534 1063.02 804.829 1084.76 806.076C1099.06 807.11 1111.14 813.985 1120.7 826.558C1134.64 844.9 1140.14 864.632 1137.09 885.235C1132.58 915.664 1109.69 945.991 1069.06 975.385C1017.06 1012.99 970.916 1098.62 970.459 1099.49C968.482 1103.18 964.7 1105.28 960.786 1105.28H960.806Z" fill="#592832"/>
<path d="M734.145 760.377C737.218 734.988 716.593 711.609 688.079 708.158C659.566 704.707 633.96 722.492 630.888 747.882C627.815 773.271 648.439 796.651 676.953 800.101C705.467 803.552 731.073 785.767 734.145 760.377Z" fill="#FFE4BF"/>
<path d="M640.764 746.824C643.488 724.314 628.363 703.969 606.982 701.381C585.601 698.794 566.06 714.944 563.336 737.454C560.612 759.964 575.736 780.309 597.118 782.896C618.499 785.484 638.04 769.334 640.764 746.824Z" fill="#FFE4BF"/>
<path d="M631.78 766.005C600.307 763.42 587.318 706.851 606.289 701.842C625.26 696.844 672.571 704.915 673.048 721.067C673.524 737.219 657.859 768.155 631.78 766.005Z" fill="#DAAA7A"/>
<path d="M633.068 750.4C601.595 747.815 587.511 704.56 606.35 701.132C625.189 697.705 672.581 704.773 673.382 717.062C674.183 729.351 659.146 752.55 633.068 750.4Z" fill="#592832"/>
<path d="M682.903 811.693C680.439 811.693 677.986 811.531 675.491 811.227C656.176 808.895 640.358 800.641 630.969 787.987C622.056 775.972 618.994 760.215 622.107 742.43C623.192 736.215 629.286 731.987 635.278 733.183C641.483 734.248 645.62 740.169 644.525 746.354C642.497 758.015 644.079 767.455 649.25 774.431C654.878 782.005 665.169 787.054 678.229 788.636C697.707 790.847 715.644 778.476 720.257 759.586C721.768 753.452 728.024 749.782 734.037 751.232C740.151 752.732 743.892 758.897 742.392 765.011C735.618 792.672 710.777 811.703 682.893 811.703L682.903 811.693Z" fill="#592832"/>
<path d="M603.683 793.99C600.246 793.99 596.768 793.635 593.27 792.865C567.252 787.217 550.694 761.442 556.362 735.424C557.701 729.28 563.703 725.356 569.909 726.725C576.053 728.063 579.947 734.116 578.608 740.271C575.627 754.01 584.388 767.627 598.127 770.629C608.388 772.788 618.893 768.672 624.774 759.881C628.251 754.639 635.329 753.219 640.561 756.748C645.803 760.246 647.192 767.313 643.694 772.535C634.568 786.183 619.582 793.99 603.683 793.99Z" fill="#592832"/>
<path d="M595.693 781.751C595.693 781.751 596.028 783.485 596.616 786.375C599.364 799.911 607.628 838.705 612.9 841.595C619.288 845.093 660.272 851.876 665.291 847.942C670.31 844.008 682.052 800.286 682.052 800.286C682.052 800.286 651.623 802.436 634.751 768.509C634.751 768.509 612.069 789.985 595.693 781.772V781.751Z" fill="white"/>
<path d="M682.052 800.277C682.052 800.277 651.623 802.426 634.751 768.5C634.751 768.5 612.069 789.975 595.693 781.762C595.693 781.762 596.028 783.496 596.616 786.386C597.579 791.131 599.222 798.989 601.179 807.314C610.953 807.455 623.678 805.793 633.199 797.894C640.703 813.346 660.88 820.13 675.735 822.056C679.212 810.842 682.052 800.277 682.052 800.277Z" fill="#C5ADA7"/>
<path d="M656.084 860.353C637.641 860.353 611.612 853.884 607.425 851.562C602.811 849.027 597.072 845.874 585.463 788.626L584.52 783.922C583.678 779.663 585.361 775.293 588.819 772.677C592.276 770.061 596.931 769.615 600.814 771.572C607.141 774.766 621.012 765.782 626.964 760.205C629.57 757.742 633.128 756.586 636.789 757.295C640.338 757.924 643.369 760.205 644.971 763.43C658.021 789.681 680.49 789.002 681.382 788.9C685.033 788.941 688.581 790.289 690.863 793.128C693.144 795.967 693.996 799.709 693.053 803.237C680.348 850.609 674.923 854.868 672.328 856.906C669.134 859.42 663.162 860.363 656.094 860.363L656.084 860.353ZM620.17 832.246C627.978 834.639 649.95 838.077 658.761 837.773C660.262 833.798 663.963 822.178 667.532 809.919C657.017 807.283 643.004 800.845 631.658 785.301C625.808 789.154 618.152 793.088 609.97 794.497C614.35 814.654 618.061 827.43 620.18 832.246H620.17Z" fill="#592832"/>
<path d="M635.298 846.928C632.895 846.928 630.847 845.093 630.644 842.649C630.482 840.763 626.781 795.917 630.127 767.932C630.431 765.386 632.763 763.511 635.319 763.845C637.884 764.15 639.719 766.461 639.405 769.037C636.18 796.079 639.922 841.402 639.952 841.859C640.165 844.424 638.259 846.685 635.694 846.898C635.572 846.918 635.43 846.918 635.298 846.918V846.928Z" fill="#592832"/>
<path d="M911.042 752.144H910.951C902.88 752.093 896.39 745.513 896.441 737.462C896.583 714.557 880.431 694.44 858.012 689.604C834.326 684.574 811.066 697.107 802.387 719.515C799.467 727.069 791 730.78 783.497 727.86C775.974 724.94 772.252 716.494 775.152 708.97C789.054 673.076 826.397 653 864.167 661.061C900.03 668.777 925.886 701 925.643 737.645C925.592 745.685 919.062 752.154 911.042 752.154V752.144Z" fill="#592832"/>
<path d="M545.412 686.004C544.57 686.004 543.739 685.913 542.877 685.751C535.962 684.361 531.47 677.619 532.859 670.704C537.138 649.39 526.623 629.233 509.406 625.786C494.42 622.612 478.41 633.877 472.205 651.662C469.852 658.313 462.542 661.73 455.91 659.499C449.259 657.167 445.751 649.877 448.073 643.205C458.658 613 486.532 595.245 514.425 600.711C545.442 606.926 564.951 640.579 557.914 675.712C556.697 681.776 551.353 685.974 545.402 685.974L545.412 686.004Z" fill="#592832"/>
<path d="M832.146 134.821C832.146 134.821 850.103 58.2072 915.665 15.6821C968.34 34.2577 977.121 83.5559 977.121 83.5559C977.121 83.5559 897.871 94.5572 852.334 137.569L832.146 134.821Z" fill="#FA5455"/>
<path d="M933.004 25.2737C935.884 26.4499 938.571 27.7376 941.176 29.076C934.089 23.8745 925.683 19.2204 915.665 15.6919C850.103 58.2169 832.146 134.831 832.146 134.831L845.125 136.595C850.408 121.011 874.367 59.4742 933.004 25.2737Z" fill="#FB8182"/>
<path d="M955.808 42.5415C896.177 61.0258 858.479 110.01 841.972 136.159L852.334 137.569C897.871 94.5571 977.121 83.5557 977.121 83.5557C977.121 83.5557 973.258 62.3743 955.808 42.5415Z" fill="#C92021"/>
<path d="M852.334 148.965C851.817 148.965 851.3 148.925 850.783 148.854L830.585 146.096C827.411 145.67 824.562 143.906 822.747 141.27C820.932 138.633 820.324 135.338 821.054 132.215C821.824 128.899 840.856 50.6326 909.46 6.13038C912.441 4.20388 916.122 3.77802 919.437 4.93392C977.719 25.4867 987.919 79.2767 988.325 81.5581C988.873 84.61 988.142 87.7431 986.327 90.2375C984.512 92.7521 981.744 94.4048 978.682 94.8408C977.932 94.9523 902.433 105.923 860.162 145.873C858.022 147.87 855.224 148.976 852.334 148.976V148.965ZM846.97 125.351L848.613 125.563C885.308 93.5328 938.175 79.6011 962.5 74.6024C957.298 61.5528 944.877 40.1484 917.105 28.4373C874.671 58.2372 854.524 103.794 846.97 125.34V125.351Z" fill="#592832"/>
<path d="M829.115 142.385C829.115 142.385 775.761 104.342 768.055 55.3986C783.507 8.17896 838.788 12.2855 838.788 12.2855C838.788 12.2855 829.794 86.6079 844.223 128.413L829.115 142.385Z" fill="#FA5455"/>
<path d="M782.95 43.7984C787.289 32.8782 793.708 25.0403 800.927 19.3115C787.644 25.2026 774.443 35.8794 768.055 55.398C775.761 104.341 829.115 142.385 829.115 142.385L838.119 134.06C834.093 130.714 787.421 90.9977 782.96 43.7883L782.95 43.7984Z" fill="#FB8182"/>
<path d="M844.223 128.423C829.794 86.6175 838.788 12.295 838.788 12.295C838.788 12.295 827.847 11.5042 814.352 14.7589C803.462 72.8278 828.081 123.089 835.523 136.473L844.223 128.433V128.423Z" fill="#C92021"/>
<path d="M829.105 153.782C826.783 153.782 824.491 153.082 822.494 151.663C820.162 150.01 765.155 110.222 756.8 57.1828C756.516 55.3982 756.658 53.563 757.226 51.8494C771.624 7.82373 817.434 -0.886092 839.619 0.928877C842.722 1.16209 845.612 2.64245 847.589 5.04551C849.546 7.44857 850.458 10.5513 850.083 13.6539C850.012 14.3637 841.586 85.8877 854.981 124.692C856.461 128.97 855.264 133.706 851.949 136.778L836.831 150.75C834.661 152.768 831.873 153.782 829.094 153.782H829.105ZM779.786 56.3615C786.184 88.5138 814.919 115.961 828.537 127.409L831.244 124.915C822.281 91.8903 824.4 46.3335 826.205 24.1078C812.04 25.7504 789.074 32.2193 779.796 56.3716L779.786 56.3615Z" fill="#592832"/>
<path d="M650.467 367.624C740.323 459.792 844.294 471.331 960.441 413.414C933.065 318.072 897.475 225.945 852.344 137.569C848.441 129.914 837.977 128.494 832.157 134.821C765.925 206.842 705.241 284.318 650.477 367.624H650.467Z" fill="#FA5455"/>
<path d="M672.946 385.226C727.71 301.91 788.395 224.434 854.626 152.423C855.721 151.237 857.008 150.405 858.357 149.756C856.339 145.701 854.392 141.614 852.334 137.579C848.43 129.924 837.966 128.504 832.146 134.831C765.915 206.852 705.23 284.328 650.467 367.634C664.764 382.295 679.456 394.696 694.462 405.322C687.213 399.056 680.024 392.486 672.946 385.226Z" fill="#FB8182"/>
<path d="M960.431 413.424C933.055 318.083 897.465 225.955 852.334 137.579C848.877 130.806 840.299 128.941 834.337 132.976C854.555 186.594 884.284 307.436 865.759 351.066C842.894 404.948 739.37 426.038 683.42 397.272C765.449 461.496 858.225 464.385 960.431 413.424Z" fill="#C92021"/>
<path d="M690.264 309.615C753.565 304.211 830.747 289.407 905.425 254.071C896.634 232.403 887.336 210.938 877.521 189.675C836.182 205.817 794.863 216.291 756.242 222.872C733.469 251.019 711.466 279.927 690.264 309.615Z" fill="#FFA726"/>
<path d="M756.242 222.862C756.242 222.862 756.232 222.872 756.222 222.882C745.575 236.043 735.132 249.407 724.83 262.892C723.623 264.464 722.417 266.036 721.22 267.617C710.726 281.448 700.394 295.42 690.264 309.605C702.584 308.551 715.542 307.009 728.795 305.164C751.913 273.792 775.913 243.303 800.815 213.686C785.667 217.356 770.762 220.388 756.242 222.852V222.862Z" fill="#FFDC8E"/>
<path d="M854.21 198.132C860.06 221.331 865.161 246.274 868.304 269.757C880.694 264.991 893.095 259.901 905.424 254.071C901.044 243.283 896.542 232.535 891.909 221.848C891.868 221.767 891.838 221.686 891.797 221.594C887.163 210.907 882.408 200.271 877.521 189.685C877.521 189.685 877.521 189.685 877.521 189.675C869.744 192.707 861.977 195.485 854.21 198.132Z" fill="#F57C00"/>
<path d="M922.672 298.452C827.148 349.383 724.729 364.247 650.802 367.107C650.69 367.279 650.568 367.451 650.457 367.624C681.646 399.614 714.579 421.677 749.094 434.707C811.604 423.107 880.451 401.185 944.451 361.378C937.617 340.237 930.378 319.248 922.672 298.452Z" fill="#FFA726"/>
<path d="M694.462 405.312C687.213 399.046 680.024 392.476 672.946 385.216C677.458 378.361 682.062 371.598 686.655 364.825C674.143 365.91 662.117 366.671 650.812 367.107C650.7 367.279 650.579 367.451 650.467 367.624C654.077 371.325 657.717 374.863 661.377 378.301C672.206 388.43 683.258 397.363 694.472 405.312H694.462Z" fill="#FFDC8E"/>
<path d="M933.998 330.128C933.886 329.793 933.764 329.469 933.653 329.134C930.094 318.863 926.444 308.642 922.672 298.452C905.678 307.507 888.471 315.375 871.244 322.29C870.626 333.636 868.943 343.553 865.759 351.056C842.925 404.856 739.684 425.956 683.674 397.383C683.978 397.627 684.282 397.88 684.586 398.113C688.439 401.094 692.323 403.893 696.216 406.61C699.4 408.821 702.614 410.899 705.829 412.927C707.765 414.154 709.692 415.411 711.639 416.577C714.954 418.544 718.28 420.39 721.626 422.174C722.67 422.732 723.705 423.29 724.749 423.827C728.511 425.764 732.283 427.619 736.085 429.323C736.227 429.383 736.379 429.444 736.521 429.515C740.688 431.381 744.876 433.115 749.094 434.707C811.604 423.107 880.451 401.185 944.451 361.378C941.075 350.914 937.587 340.501 933.998 330.118V330.128Z" fill="#F57C00"/>
<path d="M825.85 460.198C758.676 460.198 697.271 431.969 642.305 375.573C638.584 371.741 638.006 365.84 640.946 361.368C695.162 278.863 756.668 200.049 823.761 127.095C829.023 121.397 836.821 118.608 844.527 119.663C852.243 120.727 858.965 125.493 862.474 132.408C906.601 218.817 943.245 312.303 971.372 410.271C972.883 415.543 970.429 421.14 965.511 423.604C916.608 448 869.957 460.198 825.85 460.198ZM665.098 366.144C746.001 445.009 838.342 458.525 946.814 407.351C919.458 314.138 884.274 225.164 842.195 142.761C776.43 212.287 717.398 287.471 665.098 366.144Z" fill="#592832"/>
<path d="M1408.81 914.497C1408.81 914.497 1436.18 957.631 1460.08 964.009C1507.33 934.523 1513.1 877.042 1511.21 866.01L1463.38 843.785C1463.38 843.785 1461.87 900.87 1408.81 914.508V914.497Z" fill="#FFA726"/>
<path d="M1492.2 857.169C1493 872.581 1485.31 924.485 1440.92 952.176C1440.64 952.105 1440.34 951.882 1440.06 951.801C1446.57 957.53 1453.42 962.244 1460.06 964.009C1507.31 934.523 1513.09 877.042 1511.19 866.011L1492.19 857.179L1492.2 857.169Z" fill="#F57C00"/>
<path d="M1460.08 974.959C1459.13 974.959 1458.19 974.848 1457.26 974.604C1430 967.314 1402.59 925.164 1399.56 920.368C1397.69 917.407 1397.33 913.737 1398.64 910.472C1399.93 907.207 1402.71 904.774 1406.09 903.891C1450.29 892.535 1452.38 845.447 1452.45 843.45C1452.57 839.779 1454.54 836.393 1457.65 834.466C1460.76 832.54 1464.64 832.296 1468 833.838L1515.82 856.063C1519.09 857.574 1521.38 860.586 1521.99 864.124C1524.55 878.877 1517.35 941.154 1465.86 973.296C1464.12 974.401 1462.1 974.949 1460.08 974.949V974.959ZM1425.98 919.993C1435.39 932.525 1448.15 946.548 1458.69 951.79C1492.34 927.942 1499.7 887.983 1500.5 873.098L1472.21 859.957C1467.54 880.51 1454.46 906.832 1425.98 919.983V919.993Z" fill="#592832"/>
<path d="M1353.63 1176.58L1317.17 1215.2C1317.17 1215.2 1318.61 1298.95 1401.79 1302.74L1423.26 1269.65C1423.26 1269.65 1358.23 1252.51 1353.64 1176.59L1353.63 1176.58Z" fill="#AB69F3"/>
<path d="M1334.02 1204.98L1354.72 1183.07C1354.45 1180.8 1353.77 1178.98 1353.63 1176.58L1317.17 1215.2C1317.17 1215.2 1318.62 1298.95 1401.79 1302.73C1405.11 1297.61 1407.1 1294.56 1409.47 1290.9C1336.16 1281.15 1334.03 1204.97 1334.03 1204.97L1334.02 1204.98Z" fill="#CAA0F7"/>
<path d="M1401.79 1313.67H1401.3C1327.38 1310.3 1306.78 1247.9 1306.23 1215.39C1306.18 1212.52 1307.24 1209.76 1309.21 1207.67L1345.67 1169.07C1348.7 1165.92 1353.25 1164.84 1357.38 1166.31C1361.48 1167.79 1364.32 1171.57 1364.56 1175.93C1368.59 1242.64 1423.74 1258.44 1426.09 1259.08C1429.45 1259.99 1432.22 1262.46 1433.47 1265.74C1434.72 1269 1434.34 1272.68 1432.43 1275.6L1410.98 1308.67C1408.96 1311.79 1405.5 1313.66 1401.8 1313.66L1401.79 1313.67ZM1328.41 1219.24C1329.92 1234.57 1339.23 1285.35 1396.15 1291.32L1406.84 1274.83C1388.48 1265.97 1356.89 1244.75 1346.14 1200.49L1328.42 1219.24H1328.41Z" fill="#592832"/>
<path d="M1070.74 871.343C1068.1 871.343 1065.48 870.208 1063.66 868.007C1060.46 864.104 1061.03 858.334 1064.93 855.12C1065.59 854.583 1081.4 841.624 1103.38 827.318C1107.55 824.61 1113.27 825.746 1116.03 829.994C1118.79 834.223 1117.6 839.891 1113.36 842.648C1092.29 856.387 1076.71 869.133 1076.55 869.275C1074.84 870.664 1072.79 871.343 1070.74 871.343Z" fill="#592832"/>
<path d="M1088.59 901.935C1085.16 901.935 1081.87 899.988 1080.32 896.692C1078.16 892.13 1080.13 886.675 1084.67 884.515C1084.78 884.464 1095.63 879.222 1114.79 863.861C1118.75 860.728 1124.51 861.316 1127.64 865.27C1130.82 869.204 1130.18 874.964 1126.23 878.117C1105.09 895.08 1092.95 900.839 1092.44 901.073C1091.19 901.661 1089.87 901.924 1088.58 901.924L1088.59 901.935Z" fill="#592832"/>
</g>
<defs>
<clipPath id="clip0_971_2142">
<rect width="1547.8" height="1525.29" fill="white" transform="translate(0.353241 0.706055)"/>
</clipPath>
</defs>
</svg>
