<svg width="1337" height="1281" viewBox="0 0 1337 1281" fill="none" xmlns="http://www.w3.org/2000/svg">
<path fill-rule="evenodd" clip-rule="evenodd" d="M229.291 1065.44C225.794 1067.13 223.475 1070.63 223.254 1074.49C223.033 1078.36 224.91 1082.08 228.186 1084.18C238.125 1090.54 250.567 1098.53 259.144 1104.05C261.721 1105.71 264.886 1106.19 267.868 1105.38C270.85 1104.57 273.316 1102.51 274.641 1099.75C280.273 1088.19 289.439 1069.49 297.169 1053.7C299.194 1049.57 298.384 1044.6 295.108 1041.33C291.868 1038.09 286.899 1037.24 282.739 1039.27C265.512 1047.7 243.978 1058.22 229.254 1065.44H229.291Z" fill="#66BB6A"/>
<path fill-rule="evenodd" clip-rule="evenodd" d="M295.145 1041.36C291.869 1038.09 286.936 1037.28 282.777 1039.3L281.304 1040.04C281.304 1041.55 281.378 1043.09 280.641 1044.53C272.911 1060.29 263.746 1079.02 258.077 1090.54C256.715 1093.34 254.248 1095.37 251.304 1096.21C249.316 1096.76 247.365 1095.92 245.414 1095.29C250.347 1098.46 255.169 1101.59 259.144 1104.09C261.721 1105.75 264.887 1106.22 267.868 1105.38C270.813 1104.57 273.279 1102.51 274.641 1099.75C280.31 1088.19 289.476 1069.45 297.206 1053.7C299.194 1049.57 298.384 1044.6 295.145 1041.33V1041.36Z" fill="#388E3C"/>
<path fill-rule="evenodd" clip-rule="evenodd" d="M1144.21 109.142C1141.3 108.075 1138.03 109.142 1136.3 111.756C1130.92 119.817 1119.48 137.045 1113.03 146.726C1111.89 148.419 1111.6 150.554 1112.22 152.505C1112.85 154.456 1114.32 156.002 1116.24 156.775C1125.44 160.346 1140.38 166.125 1148 169.106C1150.84 170.211 1154.08 169.254 1155.88 166.787C1161.66 158.873 1174.21 141.683 1181.35 131.854C1182.61 130.124 1182.97 127.953 1182.35 125.891C1181.72 123.867 1180.18 122.247 1178.19 121.511C1168.29 117.94 1152.27 112.087 1144.18 109.179L1144.21 109.142Z" fill="#FA5455"/>
<path fill-rule="evenodd" clip-rule="evenodd" d="M1177.31 126.996C1174.69 126.076 1171.12 124.75 1167.88 123.609C1160.74 133.438 1148.26 150.518 1142.52 158.432C1140.72 160.898 1137.48 161.819 1134.64 160.714C1129.16 158.616 1120.4 155.229 1112.26 152.027C1112.26 152.101 1112.15 152.174 1112.11 152.211C1110.97 153.904 1110.68 156.039 1111.3 157.953C1111.93 159.941 1113.4 161.487 1115.32 162.223C1124.52 165.794 1139.46 171.573 1147.08 174.555C1149.92 175.659 1153.16 174.702 1154.96 172.236C1160.7 164.358 1173.26 147.131 1180.43 137.303C1181.69 135.573 1182.09 133.401 1181.47 131.376C1180.8 129.352 1179.29 127.732 1177.31 126.959V126.996Z" fill="#C92021"/>
<path d="M9.97559 309.833C9.97559 309.833 39.6079 370.644 103.511 366.742C167.413 362.84 175.99 285.686 175.99 285.686L127.658 259.182C127.658 259.182 111.278 305.158 92.9829 309.833C70.7495 304.385 62.9825 280.974 62.9825 280.974L9.97559 309.833Z" fill="#FFA726"/>
<path d="M109.841 295.035L109.767 294.925C109.436 295.403 109.104 295.882 108.736 296.324C109.068 295.845 109.472 295.551 109.841 295.035Z" fill="#417812"/>
<path d="M103.325 302.765C100.013 306.152 96.5891 308.949 93.0185 309.833C70.8219 304.385 63.0181 280.974 63.0181 280.974L10.0112 309.833C27.1649 333.539 71.0059 340.938 103.362 302.765H103.325Z" fill="#F57C00"/>
<path d="M9.97559 309.833C9.97559 309.833 39.6079 370.644 103.511 366.742C167.413 362.84 175.99 285.686 175.99 285.686L127.658 259.182C127.658 259.182 111.278 305.158 92.9829 309.833C70.7495 304.385 62.9825 280.974 62.9825 280.974L9.97559 309.833V309.833Z" stroke="#592832" stroke-width="19.8776" stroke-linecap="round" stroke-linejoin="round"/>
<path d="M9.97559 309.834C28.3071 335.123 77.1544 342.558 109.842 295.036" stroke="#592832" stroke-width="19.8776" stroke-linecap="round" stroke-linejoin="round"/>
<path d="M243.059 93.9034L266.433 132.113C266.433 132.113 321.796 132.113 345.944 79.8786L316.311 47.9272C316.311 47.9272 290.581 94.7132 243.022 93.9034H243.059Z" fill="#66BB6A"/>
<path d="M334.681 67.6948C309.502 115.401 257.636 115.806 257.636 115.806L244.164 93.7934C243.796 93.7934 243.464 93.9038 243.06 93.9038L266.434 132.113C266.434 132.113 321.76 132.113 345.945 79.8791C341.086 74.6152 338.067 71.3759 334.681 67.6948Z" fill="#388E3C"/>
<path d="M243.059 93.9034L266.433 132.113C266.433 132.113 321.796 132.113 345.944 79.8786L316.311 47.9272C316.311 47.9272 290.581 94.7132 243.022 93.9034H243.059Z" stroke="#592832" stroke-width="19.8776" stroke-linecap="round" stroke-linejoin="round"/>
<path d="M1146.24 257.048L1118.44 284.287C1118.44 284.287 1129.23 331.147 1178.15 341.417L1199.43 310.091C1199.43 310.091 1154.81 297.428 1146.2 257.011L1146.24 257.048Z" fill="#FFA726"/>
<path d="M1186.25 329.49C1140.97 317.453 1130.52 273.649 1130.52 273.649L1146.53 257.931C1146.46 257.6 1146.27 257.342 1146.24 257.011L1118.44 284.25C1118.44 284.25 1129.23 331.11 1178.15 341.38C1181.65 336.227 1183.82 333.061 1186.25 329.453V329.49Z" fill="#F57C00"/>
<path d="M1146.24 257.048L1118.44 284.287C1118.44 284.287 1129.23 331.147 1178.15 341.417L1199.43 310.091C1199.43 310.091 1154.81 297.428 1146.2 257.011L1146.24 257.048Z" stroke="#592832" stroke-width="17.2641" stroke-linecap="round" stroke-linejoin="round"/>
<path d="M94.0128 491.309L57.7545 523.076C57.7545 523.076 51.9017 598.868 126.737 609.396L148.971 581.347C148.971 581.347 91.6937 560.291 94.0128 491.309Z" fill="#AB69F3"/>
<path d="M73.8775 515.309L94.4545 497.272C94.4177 495.21 93.9391 493.48 94.0128 491.309L57.7545 523.076C57.7545 523.076 51.9017 598.868 126.737 609.396C130.16 605.053 132.222 602.476 134.688 599.347C69.2762 584.292 73.8775 515.272 73.8775 515.272V515.309Z" fill="#CAA0F7"/>
<path d="M94.0128 491.309L57.7545 523.076C57.7545 523.076 51.9017 598.868 126.737 609.396L148.971 581.347C148.971 581.347 91.6937 560.291 94.0128 491.309V491.309Z" stroke="#592832" stroke-width="19.8776" stroke-linecap="round" stroke-linejoin="round"/>
<path d="M589.96 28.4171L579.064 90.0008C579.064 90.0008 657.801 173.413 732.637 139.879C807.472 106.345 768.49 13.5825 768.49 13.5825L714.71 29.1901C714.71 29.1901 744.342 95.7432 688.207 99.9028C632.071 104.026 634.427 28.4171 589.997 28.4171H589.96Z" fill="#AB69F3"/>
<path d="M682.354 100.012C684.157 100.159 685.777 99.8278 687.544 99.8647C685.519 99.9751 684.01 99.3861 682.133 99.3125L682.354 100.012Z" fill="#FA5455"/>
<path d="M688.575 99.7917C738.048 100.16 769.226 58.4537 768.453 13.6187L714.673 29.2262C714.673 29.2262 744.048 95.3376 688.575 99.8285V99.7917Z" fill="#933FDE"/>
<path d="M589.96 28.4171L579.064 90.0008C579.064 90.0008 657.801 173.413 732.637 139.879C807.472 106.345 768.49 13.5825 768.49 13.5825L714.71 29.1901C714.71 29.1901 744.342 95.7432 688.207 99.9028C632.071 104.026 634.427 28.4171 589.997 28.4171H589.96Z" stroke="#592832" stroke-width="19.8776" stroke-linecap="round" stroke-linejoin="round"/>
<path d="M682.354 100.013C735.545 104.246 769.263 60.4046 768.453 13.6187" stroke="#592832" stroke-width="19.8776" stroke-linecap="round" stroke-linejoin="round"/>
<path d="M589.959 28.4176L579.063 90.0013C579.063 90.0013 657.801 173.414 732.636 139.879C807.472 106.345 768.489 13.583 768.489 13.583L714.71 29.1906C714.71 29.1906 744.342 95.7437 688.206 99.9033C632.07 104.026 634.426 28.4176 589.996 28.4176H589.959Z" fill="#AB69F3"/>
<path d="M700.978 93.3149C704.438 93.7566 707.604 94.6768 711.616 94.3824C767.752 90.2596 738.156 23.7065 738.156 23.7065L765.249 15.8291C764.329 13.1419 763.666 11.5591 763.666 11.5591L709.849 27.1667C709.849 27.1667 732.156 77.5232 700.978 93.3149Z" fill="#CAA0F7"/>
<path d="M602.474 84.4793L610.793 37.7302C603.983 30.9571 595.959 26.3926 585.1 26.3926L574.204 87.9763C574.204 87.9763 644.07 160.75 714.672 141.351C654.855 138.922 602.474 84.5161 602.474 84.5161V84.4793Z" fill="#CAA0F7"/>
<path d="M682.354 100.014C684.157 100.161 685.777 99.8298 687.544 99.8666C685.519 99.977 684.01 99.3881 682.133 99.3145L682.354 100.014Z" fill="#FA5455"/>
<path d="M688.575 99.7936C738.048 100.162 769.226 58.4556 768.453 13.6206L714.673 29.2282C714.673 29.2282 744.048 95.3396 688.575 99.8304V99.7936Z" fill="#933FDE"/>
<path d="M589.959 28.4176L579.063 90.0013C579.063 90.0013 657.801 173.414 732.636 139.879C807.472 106.345 768.489 13.583 768.489 13.583L714.71 29.1906C714.71 29.1906 744.342 95.7437 688.206 99.9033C632.07 104.026 634.426 28.4176 589.996 28.4176H589.959Z" stroke="#592832" stroke-width="19.8776" stroke-linecap="round" stroke-linejoin="round"/>
<path d="M682.354 100.014C735.545 104.248 769.263 60.4066 768.453 13.6206" stroke="#592832" stroke-width="19.8776" stroke-linecap="round" stroke-linejoin="round"/>
<path d="M1127.13 410.547C1127.13 410.547 1145.5 475.628 1095.18 515.272C1044.86 554.917 987.107 503.014 987.107 503.014L1005.55 451.075C1005.55 451.075 1048.36 474.523 1065.14 465.799C1078.1 446.952 1068.35 424.314 1068.35 424.314L1127.1 410.547H1127.13Z" fill="#AB69F3"/>
<path d="M1020.46 476.695C1020.46 476.695 1061.09 499.186 1096.17 471.652C1109.13 452.805 1083.25 449.971 1083.25 449.971L1130.15 438.964C1130.15 422.547 1127.1 410.547 1127.1 410.547L1068.35 424.314C1068.35 424.314 1078.1 446.952 1065.14 465.836C1048.36 474.523 1005.51 451.112 1005.51 451.112L987.069 503.051C987.069 503.051 994.652 509.677 1006.36 516.377L1020.42 476.732L1020.46 476.695Z" fill="#CAA0F7"/>
<path d="M1042.73 465.946V465.798C1043.28 465.946 1043.83 466.056 1044.38 466.166C1043.79 466.019 1043.32 466.056 1042.73 465.946Z" fill="#417812"/>
<path d="M1052.78 467.382C1057.52 467.713 1061.9 467.492 1065.18 465.799C1078.14 446.952 1068.38 424.314 1068.38 424.314L1127.13 410.547C1130.11 439.664 1102.32 474.339 1052.78 467.382Z" fill="#933FDE"/>
<path d="M1127.13 410.547C1127.13 410.547 1145.5 475.628 1095.18 515.272C1044.86 554.917 987.107 503.014 987.107 503.014L1005.55 451.075C1005.55 451.075 1048.36 474.523 1065.14 465.799C1078.1 446.952 1068.35 424.314 1068.35 424.314L1127.1 410.547H1127.13Z" stroke="#592832" stroke-width="19.8776" stroke-linecap="round" stroke-linejoin="round"/>
<path d="M1127.13 410.547C1130.3 441.615 1098.75 479.714 1042.76 465.946" stroke="#592832" stroke-width="19.8776" stroke-linecap="round" stroke-linejoin="round"/>
<path d="M908.148 140.469C908.148 140.469 958.063 138.113 977.94 184.899L1013.39 150.592C1013.39 150.592 1004.04 101.745 940.099 83.7075C911.24 104.616 908.148 140.469 908.148 140.469Z" fill="#66BB6A"/>
<path d="M987.033 167.893C967.192 121.108 917.24 123.463 917.24 123.463C917.24 123.463 918.418 113.377 923.498 100.862C910.062 119.93 908.148 140.507 908.148 140.507C908.148 140.507 958.063 138.151 977.94 184.937L1013.39 150.629C1013.39 150.629 1012.8 148.053 1011.44 144.298C1006.17 149.378 999.18 156.151 987.033 167.93V167.893Z" fill="#388E3C"/>
<path d="M908.148 140.469C908.148 140.469 958.063 138.113 977.94 184.899L1013.39 150.592C1013.39 150.592 1004.04 101.745 940.099 83.7075C911.24 104.616 908.148 140.469 908.148 140.469V140.469Z" stroke="#592832" stroke-width="19.8776" stroke-linecap="round" stroke-linejoin="round"/>
<path d="M76.2339 748.687C76.2339 748.687 97.2894 789.988 118.345 797.792C163.548 775.19 173.708 723.729 172.898 713.607L131.597 689.459C131.597 689.459 125.376 740.92 76.2339 748.687Z" fill="#FA5455"/>
<path d="M156.481 704.036C155.892 718.024 144.518 764.257 102.038 785.497C101.781 785.387 101.56 785.202 101.302 785.092C106.713 790.834 112.493 795.657 118.345 797.828C163.549 775.227 173.671 723.766 172.898 713.643L156.481 704.036Z" fill="#C92021"/>
<path d="M76.2339 748.687C76.2339 748.687 97.2894 789.988 118.345 797.792C163.548 775.19 173.708 723.729 172.898 713.607L131.597 689.459C131.597 689.459 125.376 740.92 76.2339 748.687Z" stroke="#592832" stroke-width="19.8776" stroke-linecap="round" stroke-linejoin="round"/>
<path d="M219.721 883.117C219.721 883.117 228.297 851.717 259.476 850.171L289.881 881.35C289.881 881.35 260.249 889.153 250.126 921.105C225.169 903.951 219.721 883.117 219.721 883.117Z" fill="#AB69F3"/>
<path d="M259.476 850.173C258.961 850.173 258.703 850.504 258.225 850.541C275.783 868.578 276.887 869.682 276.887 869.682C276.887 869.682 247.255 877.486 237.132 909.437C235.77 908.517 235.071 907.523 233.819 906.566C238.053 911.388 243.206 916.321 250.126 921.069C260.249 889.118 289.882 881.314 289.882 881.314L259.476 850.136V850.173Z" fill="#933FDE"/>
<path d="M219.721 883.117C219.721 883.117 228.297 851.717 259.476 850.171L289.881 881.35C289.881 881.35 260.249 889.154 250.126 921.105C225.169 903.951 219.721 883.117 219.721 883.117V883.117Z" stroke="#592832" stroke-width="19.8776" stroke-linecap="round" stroke-linejoin="round"/>
<path d="M1207.16 526.976C1207.16 526.976 1215.73 495.577 1246.91 494.031L1277.32 525.21C1277.32 525.21 1247.69 533.013 1237.56 564.965C1212.61 547.811 1207.16 526.976 1207.16 526.976Z" fill="#FA5455"/>
<path d="M1246.91 494.032C1246.4 494.032 1246.14 494.364 1245.66 494.401C1263.22 512.438 1264.32 513.542 1264.32 513.542C1264.32 513.542 1234.69 521.346 1224.57 553.297C1223.21 552.377 1222.51 551.383 1221.26 550.426C1225.49 555.248 1230.64 560.181 1237.56 564.929C1247.69 532.978 1277.32 525.174 1277.32 525.174L1246.91 493.996V494.032Z" fill="#C92021"/>
<path d="M1207.16 526.976C1207.16 526.976 1215.73 495.577 1246.91 494.031L1277.32 525.21C1277.32 525.21 1247.69 533.013 1237.56 564.965C1212.61 547.811 1207.16 526.976 1207.16 526.976V526.976Z" stroke="#592832" stroke-width="19.8776" stroke-linecap="round" stroke-linejoin="round"/>
<path fill-rule="evenodd" clip-rule="evenodd" d="M229.291 1065.44C225.794 1067.13 223.475 1070.63 223.254 1074.49C223.033 1078.36 224.91 1082.08 228.186 1084.18C238.125 1090.54 250.567 1098.53 259.144 1104.05C261.721 1105.71 264.886 1106.19 267.868 1105.38C270.85 1104.57 273.316 1102.51 274.641 1099.75C280.273 1088.19 289.439 1069.49 297.169 1053.7C299.194 1049.57 298.384 1044.6 295.108 1041.33C291.868 1038.09 286.899 1037.24 282.739 1039.27C265.512 1047.7 243.978 1058.22 229.254 1065.44H229.291Z" stroke="#592832" stroke-width="19.8776" stroke-linecap="round" stroke-linejoin="round"/>
<path fill-rule="evenodd" clip-rule="evenodd" d="M1145.24 109.142C1142.33 108.075 1139.06 109.142 1137.33 111.756C1131.95 119.817 1120.51 137.045 1114.06 146.726C1112.92 148.419 1112.63 150.554 1113.25 152.505C1113.88 154.456 1115.35 156.002 1117.27 156.775C1126.47 160.346 1141.41 166.125 1149.03 169.106C1151.87 170.211 1155.11 169.254 1156.91 166.787C1162.69 158.873 1175.24 141.683 1182.38 131.854C1183.64 130.124 1184 127.953 1183.38 125.891C1182.75 123.867 1181.21 122.247 1179.22 121.511C1169.32 117.94 1153.3 112.087 1145.21 109.179L1145.24 109.142Z" stroke="#592832" stroke-width="19.8776" stroke-linecap="round" stroke-linejoin="round"/>
<path d="M1229.13 715.962C1229.13 715.962 1250.19 757.263 1271.25 765.067C1316.45 742.465 1326.61 691.004 1325.8 680.881L1284.5 656.734C1284.5 656.734 1278.28 708.195 1229.13 715.962Z" fill="#FFA726"/>
<path d="M1309.38 671.311C1308.79 685.298 1297.42 731.532 1254.94 752.772C1254.68 752.661 1254.46 752.477 1254.2 752.367C1259.61 758.109 1265.39 762.932 1271.25 765.103C1316.45 742.502 1326.57 691.041 1325.8 680.918L1309.38 671.311Z" fill="#F57C00"/>
<path d="M1229.13 715.962C1229.13 715.962 1250.19 757.263 1271.25 765.067C1316.45 742.465 1326.61 691.004 1325.8 680.881L1284.5 656.734C1284.5 656.734 1278.28 708.195 1229.13 715.962V715.962Z" stroke="#592832" stroke-width="19.8776" stroke-linecap="round" stroke-linejoin="round"/>
<path d="M1148.78 1099.86L1188.68 1126.88C1188.68 1126.88 1263.48 1113.37 1254.75 1038.31L1221.99 1023.92C1221.99 1023.92 1216.1 1084.65 1148.78 1099.86Z" fill="#AB69F3"/>
<path d="M1177.08 1113.29L1154.45 1097.94C1152.46 1098.49 1150.91 1099.38 1148.78 1099.86L1188.68 1126.87C1188.68 1126.87 1263.48 1113.37 1254.75 1038.31C1249.67 1036.1 1246.66 1034.74 1243.05 1033.16C1245 1100.26 1177.08 1113.25 1177.08 1113.25V1113.29Z" fill="#CAA0F7"/>
<path d="M1148.78 1099.86L1188.68 1126.88C1188.68 1126.88 1263.48 1113.37 1254.75 1038.31L1221.99 1023.92C1221.99 1023.92 1216.1 1084.65 1148.78 1099.86V1099.86Z" stroke="#592832" stroke-width="19.8776" stroke-linecap="round" stroke-linejoin="round"/>
<path d="M863.459 1133.43C988.835 1125.25 1005.03 1010.48 956.001 873.987C907.006 737.494 944.626 636.34 1049.35 624.744C1154.08 613.149 1252.25 739.482 1216.25 900.454C1180.25 1061.46 1028.19 1209.66 824.735 1216.51L863.496 1133.43H863.459Z" fill="#EAAC71"/>
<path d="M863.459 1133.43C988.835 1125.25 1005.03 1010.48 956.001 873.987C907.006 737.494 944.626 636.34 1049.35 624.744C1154.08 613.149 1252.25 739.482 1216.25 900.454C1180.25 1061.46 1028.19 1209.66 824.735 1216.51L863.496 1133.43H863.459Z" fill="#AE6745"/>
<path d="M894.271 1133.43C1019.65 1125.26 1031.35 1001.35 982.358 864.859C933.658 729.176 975.033 637.629 1078.29 625.003C1068.75 623.788 1059.11 623.678 1049.35 624.745C944.627 636.341 907.007 737.495 956.002 873.988C1005 1010.48 988.8 1125.26 863.461 1133.43L824.699 1216.51C835.485 1216.14 846.086 1215.37 856.577 1214.23L894.271 1133.43Z" fill="#C18B71"/>
<path d="M1145.28 870.012C1143.04 867.656 1139.39 867.619 1137.07 869.828C1129.93 876.748 1122.57 884.073 1115.17 891.803C1103.94 871.595 1090.88 850.797 1077.33 830.698C1090.1 816.71 1103.54 802.649 1117.08 789.434C1122.42 798.968 1127.39 808.575 1131.85 818.072C1132.84 820.207 1134.94 821.422 1137.11 821.422C1137.92 821.422 1138.77 821.238 1139.58 820.87C1142.45 819.471 1143.7 816.048 1142.34 813.14C1137.33 802.501 1131.7 791.79 1125.73 781.115C1130.81 776.329 1135.86 771.691 1140.94 767.237C1143.33 765.102 1143.55 761.421 1141.45 759.065C1139.32 756.673 1135.64 756.452 1133.28 758.55C1128.83 762.525 1124.3 766.611 1119.81 770.845C1106.52 748.206 1091.76 726.157 1077.44 706.132C1082.41 701.236 1087.53 696.414 1092.68 691.666C1095.04 689.531 1095.18 685.849 1093.05 683.457C1090.84 681.064 1087.19 680.954 1084.84 683.126C1080.02 687.58 1075.23 692.107 1070.52 696.635C1061.54 684.414 1052.85 673.076 1044.94 663.064C1042.95 660.561 1039.34 660.119 1036.8 662.144C1034.3 664.131 1033.89 667.739 1035.88 670.279C1044.02 680.586 1052.96 692.255 1062.24 704.917C1046.78 720.378 1032.27 736.169 1019.35 750.967C996.715 721.813 980.15 702.341 979.708 701.825C977.647 699.396 973.966 699.101 971.573 701.199C969.144 703.298 968.849 706.905 970.91 709.334C971.352 709.85 988.469 729.948 1011.62 759.912C996.015 778.243 983.168 794.477 974.371 805.962C966.825 796.685 962.186 791.311 961.965 791.09C959.867 788.661 956.223 788.366 953.794 790.465C951.401 792.563 951.107 796.207 953.205 798.6C953.426 798.857 958.689 805.005 967.193 815.459C963.475 820.428 961.413 823.336 961.34 823.483C959.462 826.097 960.088 829.704 962.702 831.545C963.732 832.281 964.874 832.612 966.051 832.612C967.855 832.612 969.659 831.766 970.763 830.183C970.837 830.072 972.199 828.158 974.665 824.809C986.334 839.496 1001.65 859.373 1017.77 882.049C1003.52 899.386 991.855 914.368 983.941 924.638C981.254 920.92 978.604 917.35 976.027 913.926C974.113 911.423 970.469 910.908 967.892 912.859C965.352 914.81 964.874 918.454 966.824 920.994C969.99 925.117 973.266 929.608 976.616 934.283C974.223 937.485 972.898 939.289 972.788 939.436C970.874 941.976 971.426 945.62 974.039 947.534C975.07 948.27 976.248 948.675 977.426 948.675C979.23 948.675 980.996 947.829 982.138 946.283C982.211 946.209 982.69 945.473 983.61 944.295C995.279 961.412 1007.5 980.921 1019.02 1000.91C1007.06 1015.41 996.383 1028.63 987.77 1039.45C986.849 1038.27 986.224 1037.54 986.076 1037.35C984.052 1034.89 980.371 1034.55 977.941 1036.58C975.475 1038.6 975.107 1042.25 977.131 1044.71C977.205 1044.79 978.42 1046.26 980.334 1048.8C970.616 1061.06 964.837 1068.57 964.616 1068.9C962.665 1071.44 963.143 1075.08 965.647 1077.03C966.714 1077.84 967.966 1078.25 969.18 1078.25C970.91 1078.25 972.641 1077.44 973.782 1075.97C973.966 1075.67 978.972 1069.23 987.365 1058.59C994.395 1068.93 1002.71 1083.18 1004.37 1094.44C1004.81 1097.32 1007.24 1099.41 1010.08 1099.41C1010.37 1099.41 1010.63 1099.41 1010.92 1099.34C1014.09 1098.9 1016.26 1095.95 1015.82 1092.79C1013.68 1078.17 1002.86 1060.54 994.874 1049.17C1003.16 1038.75 1013.5 1025.94 1025.13 1011.77C1035.03 1029.44 1044.27 1047.11 1051.97 1063.49C1052.96 1065.62 1055.06 1066.84 1057.19 1066.84C1058.04 1066.84 1058.85 1066.65 1059.7 1066.28C1062.57 1064.89 1063.82 1061.46 1062.46 1058.55C1054.07 1040.74 1043.91 1021.38 1033.01 1002.2C1043.98 988.946 1055.91 974.848 1068.31 960.565C1075.16 972.639 1081.53 984.749 1087.16 996.713C1088.15 998.848 1090.21 1000.06 1092.42 1000.06C1093.23 1000.06 1094.08 999.879 1094.85 999.51C1097.76 998.112 1099.01 994.688 1097.61 991.78C1091.32 978.418 1084.1 964.835 1076.37 951.363C1088.22 937.853 1100.41 924.307 1112.48 911.46C1114.88 916.098 1117.16 920.7 1119.26 925.227C1120.25 927.325 1122.35 928.577 1124.48 928.577C1125.33 928.577 1126.14 928.393 1126.99 928.025C1129.86 926.663 1131.11 923.203 1129.75 920.331C1126.99 914.515 1124.04 908.589 1120.88 902.589C1129.12 894.012 1137.22 885.84 1145.06 878.257C1147.34 876.012 1147.42 872.331 1145.21 870.085L1145.28 870.012ZM1069.08 714.414C1083.44 734.476 1098.09 756.525 1111.19 779.053C1097.39 792.415 1083.73 806.624 1070.67 820.87C1055.61 798.968 1040.26 778.207 1026.57 760.317C1039.34 745.593 1053.7 729.875 1069.08 714.378V714.414ZM981.88 815.238C990.273 804.195 1003.08 787.925 1018.87 769.299C1032.53 787.225 1047.81 807.949 1062.68 829.704C1049.32 844.539 1036.73 859.226 1025.43 872.809C1008.97 849.766 993.438 829.704 981.88 815.238ZM1026.94 991.412C1015.16 971.24 1002.79 951.583 991.009 934.54C998.408 924.822 1010.15 909.73 1024.73 891.877C1037.39 910.135 1050.35 929.865 1062.2 949.927C1049.87 964.099 1037.91 978.16 1026.9 991.412H1026.94ZM1070.22 940.761C1058.19 920.552 1045.08 900.785 1032.35 882.601C1043.54 869.128 1056.02 854.441 1069.34 839.606C1082.85 859.742 1095.81 880.503 1106.78 900.601C1094.59 913.521 1082.26 927.105 1070.22 940.761Z" fill="#924921"/>
<path d="M999.697 923.275C998.592 918.563 997.451 913.778 996.163 908.993C991.488 914.919 987.402 920.257 983.979 924.637C981.291 920.919 978.641 917.349 976.064 913.925C974.224 911.533 970.8 910.98 968.297 912.637C969.733 917.901 971.058 923.091 972.273 928.208C973.709 930.232 975.181 932.22 976.653 934.318C975.696 935.607 974.923 936.6 974.334 937.447C975.144 941.202 975.88 944.92 976.506 948.637C976.837 948.711 977.169 948.711 977.463 948.711C979.267 948.711 981.034 947.864 982.175 946.318C982.249 946.245 982.727 945.509 983.647 944.331C991.893 956.404 1000.36 969.693 1008.72 983.497C1008.24 974.994 1007.35 966.27 1006.1 957.325C1001.02 949.41 995.979 941.717 991.009 934.576C993.439 931.373 996.384 927.582 999.697 923.275Z" fill="#A66A49"/>
<path d="M969.991 707.824C970.801 705.321 971.721 702.855 972.678 700.462C972.273 700.646 971.868 700.904 971.537 701.199C969.586 702.892 969.034 705.542 969.991 707.824Z" fill="#A66A49"/>
<path d="M1008.79 1013.42C1000.95 1023.03 993.844 1031.83 987.807 1039.45C986.887 1038.27 986.261 1037.53 986.114 1037.35C984.31 1035.14 981.181 1034.66 978.825 1036.03C978.273 1038.9 977.721 1041.73 977.058 1044.53C977.058 1044.6 977.132 1044.68 977.169 1044.71C977.206 1044.75 978.457 1046.26 980.371 1048.8C977.684 1052.22 975.292 1055.24 973.23 1057.85C970.985 1064.41 968.298 1070.63 965.132 1076.48C965.316 1076.66 965.463 1076.85 965.684 1077.03C966.751 1077.84 968.003 1078.25 969.218 1078.25C970.948 1078.25 972.678 1077.44 973.819 1075.96C974.003 1075.67 979.009 1069.23 987.402 1058.59C989.979 1062.38 992.74 1066.69 995.243 1071.14C997.267 1066.84 999.071 1062.34 1000.62 1057.63C998.666 1054.54 996.752 1051.67 994.911 1049.09C998.372 1044.75 1002.2 1039.96 1006.29 1034.88C1007.5 1027.96 1008.31 1020.82 1008.79 1013.42Z" fill="#A66A49"/>
<path d="M967.193 815.458C963.475 820.428 961.413 823.336 961.34 823.483C959.462 826.097 960.088 829.704 962.702 831.545C963.732 832.281 964.874 832.612 966.051 832.612C967.855 832.612 969.659 831.765 970.763 830.183C970.763 830.109 970.984 829.851 971.352 829.336C968.223 817.041 965.867 805.188 964.321 793.814C962.886 792.121 962.076 791.164 961.965 791.053C959.867 788.624 956.223 788.329 953.794 790.427C951.401 792.526 951.107 796.17 953.205 798.563C953.426 798.82 958.689 804.968 967.193 815.422V815.458Z" fill="#A66A49"/>
<path d="M1049.39 624.744C1042.73 625.481 1037.13 627.616 1031.02 629.051C1126.84 629.898 1211.83 746.513 1178.59 895.079C1145.87 1041.51 1013.28 1175.46 834.011 1196.7L824.735 1216.54C1028.22 1209.66 1180.29 1061.5 1216.29 900.491C1252.29 739.482 1154.11 613.149 1049.39 624.744Z" fill="#924921"/>
<path d="M1049.39 624.744C1042.73 625.481 1037.61 626.769 1031.5 628.204C1127.1 623.161 1211.83 746.513 1178.63 895.08C1145.91 1041.51 1013.32 1175.46 834.049 1196.7L824.773 1216.54C1028.26 1209.66 1180.32 1061.5 1216.32 900.491C1252.33 739.482 1154.15 613.149 1049.43 624.744H1049.39Z" stroke="#592832" stroke-width="19.8776" stroke-linecap="round" stroke-linejoin="round"/>
<path d="M863.459 1133.43C988.835 1125.25 1005.03 1010.48 956.001 873.987C907.006 737.494 944.626 636.34 1049.35 624.744C1154.08 613.149 1252.25 739.482 1216.25 900.454C1180.25 1061.46 1028.19 1209.66 824.735 1216.51L863.496 1133.43H863.459Z" stroke="#592832" stroke-width="19.8776" stroke-linecap="round" stroke-linejoin="round"/>
<path d="M804.859 732.969C746.478 763.963 670.538 782.663 587.457 782.663C533.972 782.663 483.431 774.896 438.633 761.092C446.658 797.166 453.099 856.872 428.768 914.665C390.301 1006.03 327.76 1205.61 609.102 1205.61C786.233 1205.61 921.658 1033.3 878.001 900.235C857.13 846.86 805.779 800.258 804.859 732.969Z" fill="#EAAC71"/>
<path d="M450.78 914.665C473.713 860.223 469.296 804.087 462.008 767.608C454.057 765.62 446.253 763.448 438.633 761.092C446.658 797.166 453.099 856.873 428.768 914.665C390.301 1006.03 327.76 1205.61 609.102 1205.61C612.083 1205.61 615.028 1205.54 617.973 1205.47C351.761 1199.28 412.902 1004.59 450.78 914.665Z" fill="#F5D7BB"/>
<path d="M768.49 1155.15C717.803 1113.4 679.741 1045.78 671.9 963.181C658.906 826.247 479.75 807.216 438.081 887.352C435.651 896.444 432.596 905.573 428.768 914.665C390.301 1006.03 327.76 1205.61 609.102 1205.61C668.698 1205.61 723.545 1186.1 768.454 1155.15H768.49Z" fill="#FFE5C0"/>
<path d="M673.741 1197.85C677.753 1196.89 681.692 1195.78 685.631 1194.64C686.735 1194.31 687.839 1193.98 688.944 1193.65C691.778 1192.8 694.576 1191.88 697.337 1190.96C698.588 1190.52 699.876 1190.08 701.128 1189.64C703.852 1188.68 706.539 1187.65 709.226 1186.62C710.331 1186.18 711.435 1185.77 712.539 1185.33C719.975 1182.31 727.226 1179 734.331 1175.43C735.398 1174.88 736.466 1174.32 737.497 1173.77C740 1172.48 742.466 1171.16 744.895 1169.8C746.073 1169.13 747.251 1168.47 748.429 1167.77C750.822 1166.37 753.215 1164.97 755.534 1163.54C756.564 1162.91 757.632 1162.29 758.626 1161.62C761.939 1159.53 765.215 1157.39 768.417 1155.18C765.509 1152.79 762.638 1150.29 759.841 1147.71C759.031 1146.97 758.221 1146.16 757.411 1145.39C755.423 1143.51 753.399 1141.64 751.448 1139.69C750.564 1138.8 749.681 1137.88 748.797 1136.96C746.957 1135.05 745.116 1133.1 743.313 1131.11C742.429 1130.15 741.583 1129.16 740.736 1128.2C738.969 1126.18 737.202 1124.15 735.472 1122.05C708.196 1089 687.361 1046.96 677.201 998.481C661.667 1021.27 636.379 1070.89 650.955 1137.77C653.054 1147.38 646.796 1156.88 637.188 1159.05C552.377 1178.34 464.327 1162.84 403.222 1106.41L402.338 1106.26C421.148 1162.03 477.542 1205.65 609.029 1205.65C631.336 1205.65 652.943 1202.93 673.631 1197.88L673.741 1197.85Z" fill="#DBAB7A"/>
<path d="M450.78 914.665C458.842 895.524 463.48 876.198 465.836 857.572C454.093 865.118 444.449 875.057 438.081 887.352C437.529 889.487 436.903 891.585 436.277 893.72C436.13 894.235 435.946 894.788 435.799 895.303C435.32 896.849 434.805 898.432 434.289 899.978C434.068 900.64 433.848 901.34 433.59 902.002C433.075 903.512 432.522 904.984 431.97 906.493C431.749 907.119 431.492 907.745 431.271 908.371C430.461 910.469 429.651 912.53 428.768 914.628C390.301 1005.99 327.76 1205.58 609.102 1205.58C611.899 1205.58 614.66 1205.5 617.458 1205.39C351.871 1198.99 412.939 1004.48 450.78 914.628V914.665Z" fill="#FFF7EC"/>
<path d="M878.002 900.234C860.959 856.651 823.633 817.632 809.976 768.159C809.277 765.619 808.651 763.042 808.099 760.429C807.989 759.987 807.915 759.582 807.805 759.14C807.252 756.49 806.737 753.803 806.332 751.079C806.332 751.042 806.332 750.968 806.332 750.932C805.964 748.392 805.669 745.815 805.449 743.201C805.375 742.539 805.338 741.876 805.301 741.214C805.08 738.526 804.933 735.802 804.896 733.005C746.515 763.999 670.576 782.699 587.495 782.699C534.009 782.699 483.469 774.932 438.67 761.128C439.039 762.821 439.407 764.588 439.775 766.355C439.885 766.87 439.996 767.386 440.106 767.938C440.4 769.373 440.658 770.809 440.953 772.282C441.026 772.76 441.137 773.239 441.21 773.754C441.542 775.631 441.873 777.582 442.204 779.533C442.278 780.012 442.351 780.527 442.425 781.006C442.646 782.331 442.83 783.693 443.014 785.091C497.125 812.037 583.482 823.264 679.484 812.147C690.269 810.27 700.834 808.098 711.141 805.595C736.172 799.521 761.976 812.073 772.356 835.706C789.289 874.32 817.522 907.449 831.694 943.707C853.744 1010.89 830.112 1088.04 778.54 1148C860.848 1086.09 905.941 985.193 878.075 900.271L878.002 900.234Z" fill="#D6823C"/>
<path d="M804.859 732.969C746.478 763.963 670.538 782.663 587.457 782.663C533.972 782.663 483.431 774.896 438.633 761.092C446.658 797.166 453.099 856.872 428.768 914.665C390.301 1006.03 327.76 1205.61 609.102 1205.61C786.233 1205.61 921.658 1033.3 878.001 900.235C857.13 846.86 805.779 800.258 804.859 732.969Z" stroke="#592832" stroke-width="19.8776" stroke-linecap="round" stroke-linejoin="round"/>
<path d="M857.203 859.043C866.148 870.527 904.21 918.749 918.75 942.97C957.216 1007.09 964.689 1099.01 913.412 1170.61C862.099 1242.2 758.441 1244.34 711.949 1185.55C643.114 1098.57 669.212 1020.2 688.022 984.566C770.294 973.376 811.889 913.632 857.203 859.006V859.043Z" fill="#EAAC71"/>
<path d="M713.606 1152.75C676.17 1080.49 688.059 1022.48 706.98 984.346C710.955 976.358 704.624 967.229 695.716 967.671H695.495C673.74 1001.57 641.163 1077.51 702.416 1169.94C732.821 1215.81 796.613 1231.49 851.019 1210.14C796.319 1222.44 738.011 1199.87 713.606 1152.75Z" fill="#F5D7BB"/>
<path d="M918.751 942.971C904.211 918.75 866.149 870.528 857.204 859.043C843.142 875.976 829.449 893.424 814.798 909.731C820.025 917.167 824.7 924.087 828.05 929.683C866.517 993.806 873.989 1085.72 822.713 1157.32C801.804 1186.51 772.135 1204.18 741.214 1210.84C793.338 1241.39 871.118 1229.61 913.413 1170.61C964.727 1099.01 957.217 1007.09 918.751 942.971Z" fill="#D6823C"/>
<path d="M700.758 964.357C700.758 964.357 618.082 1066.98 711.948 1185.59C758.477 1244.37 862.135 1242.24 913.411 1170.64C964.725 1099.05 957.216 1007.13 918.749 943.007C880.282 878.884 860.92 871.19 842.183 835.595" stroke="#592832" stroke-width="19.8776" stroke-linecap="round" stroke-linejoin="round"/>
<path d="M877.08 1268.93H622.72C622.72 1268.93 629.088 1202.67 711.912 1185.55C794.772 1168.43 881.497 1217.61 886.209 1239C890.92 1260.39 877.043 1268.93 877.043 1268.93H877.08Z" fill="#AE6745"/>
<path d="M877.08 1268.93H622.72C622.72 1268.93 629.088 1202.67 711.912 1185.55C794.772 1168.43 881.497 1217.61 886.209 1239C890.92 1260.39 877.043 1268.93 877.043 1268.93H877.08Z" fill="#AE6745"/>
<path d="M723.287 1198.58C789.399 1184.93 857.903 1213.45 885.327 1236.42C874.836 1213.97 791.644 1169.13 711.95 1185.59C629.09 1202.7 622.758 1268.96 622.758 1268.96H637.114C643.63 1248.75 663.618 1210.95 723.287 1198.62V1198.58Z" fill="#C18B71"/>
<path d="M886.247 1239C884.664 1231.86 873.915 1221.63 857.277 1211.8C854.516 1212.09 851.755 1212.42 848.995 1212.79C817.522 1217.17 797.129 1226.3 783.877 1235.94C772.208 1244.45 758.183 1249.01 743.754 1249.01H628.243C623.531 1260.53 622.685 1268.89 622.685 1268.89H877.044C877.044 1268.89 890.922 1260.35 886.21 1238.96L886.247 1239Z" fill="#924921"/>
<path d="M877.08 1268.93H622.72C622.72 1268.93 629.088 1202.67 711.912 1185.55C794.772 1168.43 881.497 1217.61 886.209 1239C890.92 1260.39 877.043 1268.93 877.043 1268.93H877.08Z" stroke="#592832" stroke-width="19.8776" stroke-linecap="round" stroke-linejoin="round"/>
<path d="M714.379 1268.93C714.379 1268.93 726.085 1232.19 754.981 1222.88" stroke="#592832" stroke-width="19.8776" stroke-linecap="round" stroke-linejoin="round"/>
<path d="M658.206 1268.93C658.206 1268.93 669.912 1232.19 698.808 1222.88" stroke="#592832" stroke-width="19.8776" stroke-linecap="round" stroke-linejoin="round"/>
<path d="M530.842 1199.21C529.37 1198.95 527.897 1198.65 526.462 1198.36C524.768 1198.03 523.075 1197.66 521.382 1197.29C519.983 1197 518.548 1196.67 517.186 1196.37C515.566 1196 513.946 1195.6 512.363 1195.19C511.001 1194.86 509.639 1194.53 508.314 1194.16C506.768 1193.76 505.222 1193.32 503.713 1192.88C502.425 1192.51 501.099 1192.14 499.848 1191.73C498.339 1191.29 496.903 1190.81 495.431 1190.34C494.216 1189.93 492.964 1189.53 491.75 1189.12C490.314 1188.61 488.915 1188.09 487.516 1187.58C486.375 1187.13 485.197 1186.73 484.056 1186.29C482.657 1185.73 481.295 1185.15 479.934 1184.59C478.866 1184.15 477.798 1183.71 476.768 1183.27C475.295 1182.64 473.897 1181.94 472.461 1181.28C471.578 1180.88 470.694 1180.47 469.811 1180.07C467.602 1179 465.467 1177.89 463.406 1176.75C462.449 1176.24 461.528 1175.69 460.571 1175.13C459.43 1174.47 458.289 1173.84 457.185 1173.18C456.191 1172.59 455.234 1171.97 454.277 1171.34C453.283 1170.72 452.289 1170.09 451.369 1169.46C450.412 1168.8 449.455 1168.14 448.534 1167.48C447.651 1166.85 446.731 1166.23 445.884 1165.6C444.964 1164.9 444.043 1164.2 443.16 1163.5C442.35 1162.88 441.504 1162.21 440.694 1161.55C439.81 1160.81 438.964 1160.08 438.08 1159.34C437.307 1158.68 436.571 1158.05 435.835 1157.35C434.988 1156.58 434.178 1155.81 433.368 1155.03C432.669 1154.37 431.97 1153.71 431.307 1153.05C430.497 1152.24 429.724 1151.43 428.951 1150.62C428.325 1149.95 427.7 1149.26 427.074 1148.59C426.338 1147.75 425.565 1146.94 424.865 1146.09C424.276 1145.43 423.724 1144.73 423.172 1144.07C422.473 1143.18 421.773 1142.3 421.074 1141.41C420.558 1140.75 420.043 1140.05 419.565 1139.39C418.902 1138.47 418.239 1137.55 417.577 1136.63C417.135 1135.97 416.693 1135.3 416.252 1134.61C415.626 1133.65 414.963 1132.69 414.374 1131.7C413.969 1131.07 413.601 1130.41 413.233 1129.75C412.607 1128.72 412.018 1127.72 411.429 1126.65C411.098 1126.07 410.804 1125.51 410.509 1124.92C409.92 1123.78 409.294 1122.68 408.742 1121.54C408.558 1121.17 408.411 1120.8 408.227 1120.43C405.981 1115.76 404.031 1111.01 402.374 1106.11C383.306 1049.65 402.742 980.738 421.7 931.927C342.962 977.057 310.127 1153.38 459.209 1199.06C491.418 1207.45 516.376 1206.31 535.738 1199.94C534.082 1199.69 532.425 1199.39 530.805 1199.1L530.842 1199.21Z" fill="#EAAC71"/>
<path d="M413.196 955.595C415.846 947.681 418.607 940.135 421.368 932.957C420.3 932.662 419.196 932.331 418.128 932.037C339.391 977.166 306.556 1153.49 455.638 1199.17C476.583 1204.62 494.473 1206.05 509.749 1204.65C500.179 1203.84 489.835 1202.11 478.608 1199.17C348.814 1159.38 356.949 1020.57 413.196 955.558V955.595Z" fill="#F5D7BB"/>
<path d="M530.842 1199.21C529.37 1198.95 527.897 1198.65 526.462 1198.36C524.768 1198.03 523.075 1197.66 521.382 1197.29C519.983 1197 518.548 1196.67 517.186 1196.37C515.566 1196 513.946 1195.6 512.363 1195.19C511.001 1194.86 509.639 1194.53 508.314 1194.16C506.768 1193.76 505.222 1193.32 503.713 1192.88C502.425 1192.51 501.099 1192.14 499.848 1191.73C498.339 1191.29 496.903 1190.81 495.431 1190.34C494.216 1189.93 492.964 1189.53 491.75 1189.12C490.314 1188.61 488.915 1188.09 487.516 1187.58C486.375 1187.13 485.197 1186.73 484.056 1186.29C482.657 1185.73 481.295 1185.15 479.934 1184.59C478.866 1184.15 477.798 1183.71 476.768 1183.27C475.295 1182.64 473.897 1181.94 472.461 1181.28C471.578 1180.88 470.694 1180.47 469.811 1180.07C467.602 1179 465.467 1177.89 463.406 1176.75C462.449 1176.24 461.528 1175.69 460.571 1175.13C459.43 1174.47 458.289 1173.84 457.185 1173.18C456.191 1172.59 455.234 1171.97 454.277 1171.34C453.283 1170.72 452.289 1170.09 451.369 1169.46C450.412 1168.8 449.455 1168.14 448.534 1167.48C447.651 1166.85 446.731 1166.23 445.884 1165.6C444.964 1164.9 444.043 1164.2 443.16 1163.5C442.35 1162.88 441.504 1162.21 440.694 1161.55C439.81 1160.81 438.964 1160.08 438.08 1159.34C437.307 1158.68 436.571 1158.05 435.835 1157.35C434.988 1156.58 434.178 1155.81 433.368 1155.03C432.669 1154.37 431.97 1153.71 431.307 1153.05C430.497 1152.24 429.724 1151.43 428.951 1150.62C428.325 1149.95 427.7 1149.26 427.074 1148.59C426.338 1147.75 425.565 1146.94 424.865 1146.09C424.276 1145.43 423.724 1144.73 423.172 1144.07C422.473 1143.18 421.773 1142.3 421.074 1141.41C420.558 1140.75 420.043 1140.05 419.565 1139.39C418.902 1138.47 418.239 1137.55 417.577 1136.63C417.135 1135.97 416.693 1135.3 416.252 1134.61C415.626 1133.65 414.963 1132.69 414.374 1131.7C413.969 1131.07 413.601 1130.41 413.233 1129.75C412.607 1128.72 412.018 1127.72 411.429 1126.65C411.098 1126.07 410.804 1125.51 410.509 1124.92C409.92 1123.78 409.294 1122.68 408.742 1121.54C408.558 1121.17 408.411 1120.8 408.227 1120.43C405.981 1115.76 404.031 1111.01 402.374 1106.11C383.306 1049.65 402.742 980.738 421.7 931.927C342.962 977.057 310.127 1153.38 459.209 1199.06C491.418 1207.45 516.376 1206.31 535.738 1199.94C534.082 1199.69 532.425 1199.39 530.805 1199.1L530.842 1199.21Z" stroke="#592832" stroke-width="19.8776" stroke-linecap="round" stroke-linejoin="round"/>
<path d="M577.482 1268.93H323.122C323.122 1268.93 329.49 1202.67 412.314 1185.55C495.174 1168.43 581.899 1217.61 586.61 1239C591.322 1260.39 577.445 1268.93 577.445 1268.93H577.482Z" fill="#AE6745"/>
<path d="M577.482 1268.93H323.122C323.122 1268.93 329.49 1202.67 412.314 1185.55C495.174 1168.43 581.899 1217.61 586.61 1239C591.322 1260.39 577.445 1268.93 577.445 1268.93H577.482Z" fill="#AE6745"/>
<path d="M423.651 1198.58C489.762 1184.92 558.267 1213.45 585.69 1236.42C575.199 1213.97 492.008 1169.13 412.314 1185.59C329.453 1202.7 323.122 1268.96 323.122 1268.96H337.478C343.994 1248.75 363.982 1210.95 423.651 1198.62V1198.58Z" fill="#C18B71"/>
<path d="M586.647 1239C585.064 1231.86 574.315 1221.62 557.677 1211.8C554.916 1212.09 552.155 1212.42 549.395 1212.79C517.922 1217.17 497.529 1226.3 484.277 1235.94C472.608 1244.45 458.583 1249.01 444.154 1249.01H328.643C323.931 1260.53 323.084 1268.89 323.084 1268.89H577.444C577.444 1268.89 591.321 1260.35 586.61 1238.96L586.647 1239Z" fill="#924921"/>
<path d="M414.78 1268.93C414.78 1268.93 426.485 1232.19 455.382 1222.88" stroke="#592832" stroke-width="19.8776" stroke-linecap="round" stroke-linejoin="round"/>
<path d="M358.606 1268.93C358.606 1268.93 370.312 1232.19 399.208 1222.88" stroke="#592832" stroke-width="19.8776" stroke-linecap="round" stroke-linejoin="round"/>
<path d="M533.088 1199.61C532.352 1199.46 531.579 1199.35 530.843 1199.21C529.37 1198.95 527.898 1198.65 526.462 1198.36C524.769 1198.03 523.076 1197.66 521.383 1197.29C519.984 1197 518.548 1196.67 517.186 1196.37C515.567 1196 513.947 1195.6 512.364 1195.19C511.002 1194.86 509.64 1194.53 508.315 1194.16C506.769 1193.76 505.223 1193.32 503.714 1192.88C502.425 1192.51 501.1 1192.14 499.849 1191.73C498.339 1191.29 496.904 1190.81 495.431 1190.34C494.217 1189.93 492.965 1189.53 491.75 1189.12C490.315 1188.61 488.916 1188.09 487.517 1187.57C486.376 1187.13 485.198 1186.73 484.057 1186.29C482.658 1185.73 481.296 1185.15 479.934 1184.59C479.861 1184.59 479.824 1184.56 479.75 1184.52C458.179 1181.17 435.099 1180.84 412.314 1185.51C329.453 1202.63 323.122 1268.89 323.122 1268.89H577.482C577.482 1268.89 591.359 1260.35 586.647 1238.96C584.402 1228.77 563.383 1212.2 533.088 1199.57V1199.61Z" stroke="#592832" stroke-width="19.8776" stroke-linecap="round" stroke-linejoin="round"/>
<path d="M520.239 225.169C446.766 252.777 349.955 163.438 281.819 225.169C233.229 269.157 287.524 348.005 346.31 363.797L520.239 225.169Z" fill="#EAAC71"/>
<path d="M272.838 249.206C332.655 195.058 414.521 257.194 483.319 254.581L520.24 225.169C446.767 252.777 349.955 163.438 281.819 225.169C270.592 235.329 264.924 247.329 263.451 259.992C266.028 256.237 269.083 252.593 272.838 249.206Z" fill="#F5D7BB"/>
<path d="M520.239 225.169C446.766 252.777 349.955 163.438 281.819 225.169C233.229 269.157 287.524 348.005 346.31 363.797L520.239 225.169Z" stroke="#592832" stroke-width="19.8776" stroke-linecap="round" stroke-linejoin="round"/>
<path d="M281.082 316.606C296.874 338.766 321.169 357.024 346.31 363.797L416.029 308.25C328.421 192.702 257.561 280.679 281.119 316.643L281.082 316.606Z" fill="#EE857B"/>
<path d="M310.127 303.354C300.593 288.777 306.556 265.66 322.826 251.01C286.458 255.501 267.095 295.219 281.083 316.606C296.875 338.766 321.17 357.024 346.311 363.797L366.52 347.674C344.618 339.428 324.078 322.9 310.127 303.354Z" fill="#FFBAB0"/>
<path d="M281.082 316.606C296.874 338.766 321.169 357.024 346.31 363.797L416.029 308.25C328.421 192.702 257.561 280.679 281.119 316.643L281.082 316.606Z" stroke="#592832" stroke-width="19.8776" stroke-linecap="round" stroke-linejoin="round"/>
<path d="M912.712 225.169C860.919 191.598 796.06 234.04 751.041 245.12C703.997 215.34 650.475 197.561 593.713 197.561C406.128 197.561 254.027 407.601 254.027 573.247C254.027 688.906 406.091 782.698 593.713 782.698C781.336 782.698 933.399 688.942 933.399 573.247C933.399 512.768 916.577 450.963 887.239 395.417C972.97 353.968 982.394 270.335 912.712 225.169Z" fill="#EAAC71"/>
<path d="M916.171 227.562C929.718 268.753 908.441 316.828 851.937 347.601C884.404 402.485 904.502 464.327 907.447 525.653C913.116 642.93 763.482 745.447 573.283 754.65C481.404 759.104 396.851 740.92 333.353 707.753C395.673 753.582 489.171 782.699 593.713 782.699C781.298 782.699 933.398 688.943 933.398 573.248C933.398 512.769 916.576 450.964 887.238 395.418C971.497 354.669 981.988 273.207 916.171 227.562Z" fill="#D6823C"/>
<path d="M912.711 225.17C860.919 191.599 796.059 234.041 751.04 245.121C743.126 240.115 735.027 235.477 726.782 231.17L723.542 237.354C759.469 267.944 784.905 264.263 824.808 245.894C870.931 224.655 949.006 239.195 958.871 304.497C960.196 275.122 944.92 246.042 912.711 225.17Z" fill="#F5D7BB"/>
<path d="M282.335 573.247C282.335 411.76 426.925 208.052 608.032 198.003C603.284 197.745 598.499 197.561 593.713 197.561C406.128 197.561 254.027 407.601 254.027 573.247C254.027 688.906 406.091 782.698 593.713 782.698C598.462 782.698 603.173 782.625 607.848 782.514C426.815 777.95 282.335 686.034 282.335 573.284V573.247Z" fill="#F5D7BB"/>
<path d="M541.442 283.366C509.712 250.936 478.975 239.525 453.723 237.353C431.821 250.163 411.134 265.623 391.992 283.108C406.974 321.097 473.122 343.809 541.405 283.366H541.442Z" fill="#D6823C"/>
<path d="M912.712 225.169C860.92 191.598 796.06 234.04 751.041 245.12C703.997 215.34 650.475 197.561 593.713 197.561C406.128 197.561 254.027 407.601 254.027 573.247C254.027 688.906 406.091 782.698 593.713 782.698C781.336 782.698 933.399 688.942 933.399 573.247C933.399 512.768 916.577 450.963 887.239 395.417C972.97 353.968 982.394 270.335 912.712 225.169V225.169Z" stroke="#592832" stroke-width="19.8776" stroke-linecap="round" stroke-linejoin="round"/>
<path d="M958.578 292.937C966.05 321.612 938.884 370.091 888.233 394.975C869.534 362.03 847.19 330.631 819.582 301.477C819.582 301.477 938.148 214.862 958.578 292.974V292.937Z" fill="white"/>
<path d="M958.578 292.937C966.05 321.612 938.884 370.091 888.233 394.975C869.534 362.03 847.19 330.631 819.582 301.477C819.582 301.477 938.148 214.862 958.578 292.974V292.937Z" fill="#EE857B"/>
<path d="M958.578 292.937C952.505 269.709 937.744 261.059 920.001 260.359C925.302 265.734 929.351 273.243 931.596 283.55C937.155 308.949 915.437 348.52 875.166 373.257C879.694 380.435 884.074 387.65 888.234 394.975C938.885 370.128 966.051 321.612 958.578 292.937Z" fill="#FFBAB0"/>
<path d="M958.578 292.937C966.05 321.612 938.884 370.091 888.233 394.975C869.534 362.03 847.19 330.631 819.582 301.477C819.582 301.477 938.148 214.862 958.578 292.974V292.937Z" stroke="#592832" stroke-width="19.8776" stroke-linecap="round" stroke-linejoin="round"/>
<path d="M707.641 222.077C696.487 217.329 682.463 212.065 665.824 207.206C521.528 172.567 467.969 69.5353 440.214 126.702C412.459 183.868 488.104 219.979 488.104 219.979C488.104 219.979 423.833 225.501 425.489 263.894C427.183 302.361 513.687 312.889 557.786 271.256C617.787 267.023 670.389 253.882 707.641 222.077Z" fill="#EAAC71"/>
<path d="M669.726 229.734C719.089 235.771 730.132 240.041 737.715 242.839C746.733 237.722 699.874 228.703 707.677 222.078C696.524 217.329 682.499 212.065 665.861 207.206C521.564 172.568 468.005 69.5723 440.25 126.702C437.048 133.217 435.281 139.475 434.508 145.438C463.146 100.677 517.699 202.531 669.763 229.734H669.726Z" fill="#F5D7BB"/>
<path d="M484.828 220.385C476.877 221.452 456.08 225.06 441.355 235.22C466.276 245.858 509.565 250.533 532.461 229.183C513.577 228.41 497.675 225.502 484.828 220.348V220.385Z" fill="#D6823C"/>
<path d="M738.414 237.464C738.414 237.464 712.316 220.752 665.824 207.206C521.528 172.567 467.969 69.5353 440.214 126.702C412.459 183.868 488.104 219.979 488.104 219.979C488.104 219.979 423.833 225.501 425.489 263.894C427.183 302.361 513.687 312.889 557.786 271.256" stroke="#592832" stroke-width="19.8776" stroke-linecap="round" stroke-linejoin="round"/>
<path d="M536.583 224.692C536.583 224.692 486.227 230.176 463.625 203.857" stroke="#592832" stroke-width="19.8776" stroke-linecap="round" stroke-linejoin="round"/>
<path d="M349.955 571.26C373.131 571.26 391.919 548.764 391.919 521.014C391.919 493.264 373.131 470.768 349.955 470.768C326.78 470.768 307.992 493.264 307.992 521.014C307.992 548.764 326.78 571.26 349.955 571.26Z" fill="#592832"/>
<path d="M363.464 523.039C369.563 523.039 374.508 517.667 374.508 511.039C374.508 504.412 369.563 499.039 363.464 499.039C357.366 499.039 352.421 504.412 352.421 511.039C352.421 517.667 357.366 523.039 363.464 523.039Z" fill="white"/>
<path d="M675.507 598.206C708.482 598.206 735.213 571.475 735.213 538.5C735.213 505.525 708.482 478.793 675.507 478.793C642.532 478.793 615.8 505.525 615.8 538.5C615.8 571.475 642.532 598.206 675.507 598.206Z" fill="#592832"/>
<path d="M652.058 540.413C660.17 540.413 666.745 533.837 666.745 525.725C666.745 517.614 660.17 511.038 652.058 511.038C643.946 511.038 637.371 517.614 637.371 525.725C637.371 533.837 643.946 540.413 652.058 540.413Z" fill="white"/>
<path d="M521.05 627.986C547.051 627.986 568.13 609.214 568.13 586.059C568.13 562.903 547.051 544.132 521.05 544.132C495.048 544.132 473.969 562.903 473.969 586.059C473.969 609.214 495.048 627.986 521.05 627.986Z" fill="#FFE5C0"/>
<path d="M447.43 621.211C466.926 621.211 482.731 604.566 482.731 584.033C482.731 563.5 466.926 546.854 447.43 546.854C427.933 546.854 412.128 563.5 412.128 584.033C412.128 604.566 427.933 621.211 447.43 621.211Z" fill="#FFE5C0"/>
<path d="M476.731 602.182C448.166 603.286 430.35 553.85 446.841 547.297C463.332 540.745 506.732 542.843 508.903 557.31C511.075 571.776 500.363 601.261 476.731 602.182Z" fill="#DBAB7A"/>
<path d="M476.179 588.046C447.615 589.151 430.24 551.825 446.805 546.672C463.369 541.555 506.732 542.733 508.757 553.702C510.781 564.672 499.812 587.126 476.179 588.046Z" fill="#592832"/>
<path d="M565.775 588.01C563.088 610.391 544.057 627.765 520.94 627.765C495.983 627.765 475.774 607.557 475.774 582.599" stroke="#592832" stroke-width="19.8776" stroke-linecap="round" stroke-linejoin="round"/>
<path d="M478.94 602.107C472.903 613.997 460.056 621.58 445.994 620.255C427.626 618.525 414.153 602.255 415.884 583.886" stroke="#592832" stroke-width="19.8776" stroke-linecap="round" stroke-linejoin="round"/>
<path d="M445.995 620.255C445.995 620.255 446.473 621.765 447.32 624.305C451.258 636.158 462.927 670.133 467.97 672.158C474.081 674.624 511.664 676.244 515.75 672.158C519.836 668.072 525.615 627.507 525.615 627.507C525.615 627.507 498.523 632.734 479.676 604.096C479.676 604.096 461.639 625.851 446.031 620.255H445.995Z" fill="white"/>
<path d="M525.615 627.507C525.615 627.507 498.522 632.734 479.675 604.096C479.675 604.096 461.638 625.851 446.031 620.255C446.031 620.255 446.509 621.765 447.356 624.305C448.755 628.464 451.074 635.348 453.724 642.599C462.522 641.679 473.786 638.771 481.479 630.673C489.909 643.74 508.756 647.642 522.339 647.753C524.253 637.299 525.651 627.507 525.651 627.507H525.615Z" fill="#C6AEA7"/>
<path d="M445.995 620.255C445.995 620.255 446.473 621.765 447.32 624.305C451.258 636.158 462.927 670.133 467.97 672.158C474.081 674.624 511.664 676.244 515.75 672.158C519.836 668.072 525.615 627.507 525.615 627.507C525.615 627.507 498.523 632.734 479.676 604.096C479.676 604.096 461.639 625.851 446.031 620.255H445.995Z" stroke="#592832" stroke-width="19.8776" stroke-linecap="round" stroke-linejoin="round"/>
<path d="M488.179 670.354C488.179 670.354 479.713 629.494 479.676 604.132" stroke="#592832" stroke-width="8.46638" stroke-linecap="round" stroke-linejoin="round"/>
<path d="M715.704 844.428C719.312 856.834 720.931 890.11 694.869 912.969C668.808 935.829 669.213 942.639 651.581 987.105C633.948 1031.57 570.23 1035.18 553.407 979.891C534.965 895.742 591.469 875.276 611.531 828.416C651.139 832.612 685.851 837.987 715.741 844.428H715.704Z" fill="#EAAC71"/>
<path d="M710.366 849.583C709.814 866.258 696.489 884.737 678.857 894.344C661.224 903.952 644.66 922.651 638.954 944.811C634.61 961.597 628.758 1007.98 605.53 1020.86C624.635 1020.01 643.298 1008.12 651.617 987.106C669.249 942.639 668.844 935.793 694.906 912.97C711.875 898.062 717.102 878.737 717.691 863.644C715.52 859.043 713.09 854.331 710.403 849.546L710.366 849.583Z" fill="#D6823C"/>
<path d="M579.1 982.393C564.045 913.631 599.015 887.385 623.236 854.551C630.745 844.354 624.377 829.777 611.788 828.452H611.53C591.505 875.312 535.001 895.741 553.406 979.927C563.124 1011.88 588.487 1024.14 611.604 1020.23C597.542 1014.82 585.247 1002.57 579.1 982.43V982.393Z" fill="#F5D7BB"/>
<path d="M585.358 917.938C574.094 917.938 563.198 919.594 553.001 922.613C548.952 938.073 548.253 956.552 553.406 979.927C570.229 1035.22 633.947 1031.61 651.579 987.142C657.8 971.387 661.813 960.38 665.494 951.693C645.911 931.006 617.272 917.938 585.358 917.938Z" fill="#AE6745"/>
<path d="M654.23 980.405C654.672 979.301 655.077 978.197 655.482 977.129C655.666 976.614 655.887 976.062 656.071 975.583C656.181 975.289 656.292 974.994 656.402 974.7C660.046 965.239 662.844 957.841 665.457 951.656C658.868 944.699 651.249 938.626 642.819 933.583C641.236 937.19 639.874 940.945 638.88 944.773C634.537 961.558 628.684 1007.94 605.457 1020.82C606.487 1020.79 607.555 1020.68 608.585 1020.57C608.769 1020.57 608.954 1020.57 609.138 1020.53C610.095 1020.42 611.015 1020.27 611.972 1020.09C612.23 1020.05 612.524 1020.01 612.782 1019.94C613.665 1019.76 614.512 1019.57 615.395 1019.35C615.727 1019.28 616.058 1019.2 616.389 1019.09C617.199 1018.87 618.009 1018.61 618.819 1018.36C619.187 1018.25 619.592 1018.1 619.96 1017.99C620.733 1017.73 621.469 1017.44 622.205 1017.14C622.61 1016.96 623.052 1016.81 623.457 1016.63C624.156 1016.33 624.856 1016 625.555 1015.63C625.997 1015.41 626.438 1015.19 626.88 1014.97C627.543 1014.64 628.168 1014.27 628.831 1013.9C629.273 1013.65 629.751 1013.35 630.193 1013.09C630.819 1012.72 631.408 1012.32 631.997 1011.91C632.475 1011.58 632.917 1011.25 633.359 1010.92C633.911 1010.52 634.463 1010.07 635.015 1009.67C635.494 1009.3 635.936 1008.9 636.414 1008.53C636.929 1008.09 637.445 1007.64 637.923 1007.2C638.402 1006.76 638.844 1006.32 639.285 1005.88C639.764 1005.4 640.205 1004.96 640.647 1004.48C641.126 1004 641.567 1003.45 642.009 1002.93C642.414 1002.45 642.856 1001.98 643.261 1001.46C643.702 1000.91 644.144 1000.32 644.586 999.731C644.954 999.252 645.322 998.737 645.653 998.258C646.095 997.596 646.537 996.933 646.942 996.234C647.236 995.755 647.568 995.277 647.862 994.761C648.304 993.988 648.745 993.142 649.15 992.332C649.371 991.89 649.629 991.485 649.813 991.044C650.439 989.755 651.028 988.467 651.543 987.105C652.242 985.338 652.905 983.681 653.531 982.025C653.752 981.473 653.936 980.957 654.157 980.405H654.23Z" fill="#924921"/>
<path d="M555.984 986.959C556.462 988.1 556.941 989.241 557.493 990.346C557.788 990.971 558.082 991.523 558.413 992.112C558.929 993.106 559.444 994.063 559.996 994.984C560.327 995.536 560.659 996.125 561.027 996.677C561.579 997.597 562.168 998.444 562.794 999.327C563.125 999.806 563.493 1000.32 563.861 1000.8C564.524 1001.68 565.223 1002.53 565.959 1003.38C566.291 1003.74 566.585 1004.11 566.916 1004.48C567.874 1005.55 568.867 1006.54 569.861 1007.5C569.972 1007.57 570.045 1007.68 570.119 1007.79C571.297 1008.86 572.475 1009.89 573.69 1010.85C573.763 1010.89 573.837 1010.96 573.91 1011C575.052 1011.84 576.193 1012.65 577.371 1013.43C577.591 1013.57 577.849 1013.72 578.107 1013.87C579.137 1014.49 580.168 1015.08 581.236 1015.63C581.493 1015.78 581.788 1015.89 582.045 1016.04C583.113 1016.55 584.217 1017.03 585.285 1017.47C585.506 1017.59 585.763 1017.66 585.984 1017.77C587.199 1018.25 588.414 1018.65 589.665 1019.02C589.776 1019.02 589.886 1019.09 589.997 1019.13C597.064 1021.16 604.5 1021.49 611.678 1020.31C597.616 1014.9 585.322 1002.64 579.174 982.505C573.248 955.486 575.088 935.056 580.904 918.197C571.26 918.565 561.91 920.075 553.076 922.688C552.597 924.529 552.155 926.406 551.787 928.357C551.714 928.725 551.64 929.13 551.567 929.498C551.272 931.081 551.014 932.664 550.794 934.283C550.72 934.872 550.646 935.424 550.573 936.013C550.389 937.486 550.241 938.995 550.131 940.504C550.094 941.204 550.021 941.903 549.984 942.639C549.91 944.075 549.873 945.547 549.836 947.057C549.836 947.866 549.836 948.676 549.836 949.486C549.836 950.958 549.873 952.468 549.947 953.977C549.984 954.86 550.02 955.707 550.057 956.627C550.168 958.173 550.315 959.756 550.462 961.339C550.536 962.259 550.609 963.143 550.72 964.063C550.941 965.793 551.198 967.56 551.456 969.364C551.567 970.21 551.677 971.02 551.824 971.867C552.266 974.517 552.781 977.241 553.407 980.002C553.996 981.879 554.622 983.683 555.284 985.413C555.505 985.965 555.763 986.517 555.984 987.069V986.959Z" fill="#C18B71"/>
<path d="M611.531 828.416C591.506 875.312 535.002 895.742 553.407 979.891C570.229 1035.18 633.948 1031.57 651.58 987.105C669.212 942.639 668.807 935.792 694.869 912.969C720.931 890.11 719.311 856.87 715.704 844.428" stroke="#592832" stroke-width="19.8776" stroke-linecap="round" stroke-linejoin="round"/>
<path d="M614.731 972.602C614.731 972.602 601.516 987.51 604.277 1013.68" stroke="#592832" stroke-width="16.6015" stroke-linecap="round" stroke-linejoin="round"/>
<path d="M580.903 963.178C580.903 963.178 567.688 978.086 570.449 1004.26" stroke="#592832" stroke-width="16.6015" stroke-linecap="round" stroke-linejoin="round"/>
<path d="M438.631 761.09C404.14 771.029 375.354 839.312 375.87 885.251C376.422 931.19 411.134 996.382 443.196 1014.57C475.258 1032.75 514.277 1009.74 513.209 973.412C512.289 941.608 496.203 891.84 443.159 856.613C448.128 826.833 445.846 794.735 438.631 761.09Z" fill="#EAAC71"/>
<path d="M465.392 1014.57C433.331 996.382 398.582 931.191 398.066 885.252C397.625 848.441 416.03 797.386 441.061 773.348C440.325 769.262 439.515 765.176 438.631 761.054C404.14 770.993 375.354 839.276 375.87 885.215C376.422 931.154 411.134 996.345 443.196 1014.53C454.607 1021.01 466.865 1022.22 477.908 1019.54C473.675 1018.51 469.478 1016.85 465.356 1014.53L465.392 1014.57Z" fill="#F5D7BB"/>
<path d="M403.292 970.32C415.145 990.235 429.391 1006.76 443.195 1014.57C475.257 1032.75 514.276 1009.74 513.208 973.412C512.767 958.725 509.085 940.172 500.03 920.994C494.067 919.669 487.919 918.97 481.551 918.97C446.508 918.97 416.434 940.099 403.292 970.32Z" fill="#AE6745"/>
<path d="M448.092 1017C449.196 1017.47 450.301 1017.92 451.442 1018.28C451.626 1018.36 451.846 1018.43 452.031 1018.5C453.356 1018.95 454.718 1019.31 456.043 1019.65C456.264 1019.68 456.485 1019.76 456.706 1019.79C457.92 1020.05 459.098 1020.27 460.313 1020.46C460.497 1020.46 460.681 1020.53 460.865 1020.53C463.7 1020.9 466.497 1021.01 469.258 1020.86C469.331 1020.86 469.442 1020.86 469.515 1020.86C472.35 1020.68 475.148 1020.27 477.871 1019.61C473.638 1018.58 469.442 1016.92 465.319 1014.6C447.208 1004.33 428.288 979.118 415.11 950.811C410.324 956.737 406.312 963.289 403.257 970.357C406.091 975.142 409.11 979.743 412.165 984.05C412.349 984.308 412.496 984.529 412.68 984.787C413.306 985.633 413.932 986.48 414.558 987.326C414.815 987.658 415.073 987.989 415.331 988.32C415.92 989.093 416.509 989.866 417.098 990.603C417.392 990.971 417.687 991.339 418.018 991.744C418.607 992.443 419.159 993.179 419.748 993.842C420.079 994.247 420.41 994.615 420.742 994.983C421.294 995.646 421.883 996.308 422.435 996.934C422.766 997.302 423.134 997.67 423.466 998.038C424.386 999.069 425.343 1000.06 426.263 1001.02C426.779 1001.54 427.257 1002.05 427.773 1002.57C428.214 1002.97 428.619 1003.38 429.061 1003.78C429.576 1004.26 430.092 1004.77 430.607 1005.25C431.012 1005.62 431.454 1005.99 431.859 1006.36C432.411 1006.84 432.926 1007.28 433.478 1007.72C433.883 1008.05 434.288 1008.38 434.693 1008.71C435.245 1009.15 435.834 1009.6 436.386 1010.04C436.754 1010.33 437.122 1010.63 437.527 1010.89C438.153 1011.33 438.779 1011.77 439.405 1012.21C439.699 1012.43 440.03 1012.65 440.325 1012.84C441.282 1013.46 442.202 1014.01 443.159 1014.57C444.448 1015.3 445.736 1015.93 447.024 1016.52C447.356 1016.66 447.724 1016.81 448.055 1016.96L448.092 1017Z" fill="#C18B71"/>
<path d="M438.631 761.09C404.14 771.029 375.354 839.312 375.87 885.251C376.422 931.19 411.134 996.382 443.196 1014.57C475.258 1032.75 514.277 1009.74 513.209 973.412C512.289 941.608 496.203 891.84 443.159 856.613C448.128 826.833 445.846 794.735 438.631 761.09V761.09Z" stroke="#592832" stroke-width="19.8776" stroke-linecap="round" stroke-linejoin="round"/>
<path d="M418.09 842.515C427.256 846.858 435.575 851.607 443.158 856.613" stroke="#592832" stroke-width="19.8776" stroke-linecap="round" stroke-linejoin="round"/>
<path d="M447.576 978.492C447.576 978.492 463.257 990.787 465.172 1017.03" stroke="#592832" stroke-width="16.6015" stroke-linecap="round" stroke-linejoin="round"/>
<path d="M479.196 963.18C479.196 963.18 494.877 975.475 496.791 1001.72" stroke="#592832" stroke-width="16.6015" stroke-linecap="round" stroke-linejoin="round"/>
</svg>
