<svg width="2158" height="1281" viewBox="0 0 2158 1281" fill="none" xmlns="http://www.w3.org/2000/svg">
<path d="M834.993 1180.37C561.335 1182.9 343.679 1155.7 308.461 1152.48C273.243 1149.27 12.3947 1144.47 13.9818 1112.47C15.5689 1080.46 52.374 1082.05 69.9831 1061.27C87.5921 1040.48 97.1901 1038.86 92.3911 1024.46C87.5921 1010.06 84.3801 994.041 111.587 982.856C138.794 971.671 209.23 793.994 297.238 754.014C230.014 760.401 217.204 771.246 217.204 771.246C217.204 771.246 202.807 749.593 220.416 732.589C238.025 715.584 316.434 710.785 316.434 710.785C316.434 710.785 322.82 632.376 340.429 608.343C358.038 584.348 382.033 608.343 382.033 608.343C382.033 608.343 365.331 644.544 366.502 669.635C366.502 669.635 463.654 589.109 558.086 574.712C558.086 574.712 526.08 534.695 497.285 529.103C511.682 501.102 532.201 504.314 532.201 504.314C532.201 504.314 577.32 528.309 588.542 542.706C599.728 486.705 622.136 453.074 622.136 453.074C622.136 453.074 644.544 446.688 660.528 453.074C639.707 483.493 636.533 529.103 636.533 529.103C636.533 529.103 747.364 456.286 916.01 465.884C892.582 425.867 862.2 421.068 862.2 421.068C862.2 421.068 870.211 398.66 889.407 398.66C908.603 398.66 958.219 441.889 972.616 459.46C1031.83 397.035 1103.85 398.66 1103.85 398.66L1123.05 422.655C1123.05 422.655 1047.81 433.84 1019.02 473.857C1019.02 473.857 1167.86 456.248 1263.88 504.276C1359.9 552.304 1423.91 560.277 1460.72 539.494C1483.13 557.103 1479.91 573.087 1479.91 573.087C1479.91 573.087 1444.7 585.897 1411.1 585.897C1529.53 608.305 1576.58 750.727 1668.78 732.551V771.208C1668.78 771.208 1611.15 763.575 1585.57 747.553C1652.79 797.168 1651.17 840.359 1647.99 854.794C1644.78 869.191 1635.18 902.066 1662.39 915.216C1689.6 928.404 1747.22 1021.21 1747.22 1072.45C1828.85 1099.66 1892.86 1171.83 1702.41 1173.34C1511.96 1174.86 834.993 1180.33 834.993 1180.33V1180.37Z" fill="#9B6234"/>
<path d="M1747.22 1072.45C1747.22 1021.25 1689.6 928.403 1662.39 915.216C1716.01 1020.45 1359.11 1046.57 838.167 1046.57C317.227 1046.57 111.89 982.893 211.044 835.521C164.565 899.571 129.121 975.6 111.587 982.818C84.3801 994.04 87.5921 1010.02 92.3911 1024.42C97.1901 1038.82 87.5921 1040.44 69.9831 1061.23C52.374 1082.05 15.5689 1080.42 13.9818 1112.43C12.3947 1144.44 273.243 1149.23 308.461 1152.45C343.679 1155.66 561.335 1182.87 834.993 1180.33C834.993 1180.33 1511.96 1174.85 1702.41 1173.34C1892.86 1171.83 1828.85 1099.66 1747.22 1072.45Z" fill="#7C4927"/>
<path d="M205.488 998.462C205.488 998.462 292.135 934.903 399.792 892.959C507.411 850.977 519.919 848.03 530.121 836.542C540.324 825.055 532.918 786.549 520.788 782.128C508.658 777.707 443.626 824.563 373.378 855.247C303.131 885.931 207.982 970.424 207.982 970.424C207.982 970.424 196.986 986.899 205.488 998.462Z" fill="#CC8C52"/>
<path d="M215.804 989.28C215.804 989.28 310.953 904.787 381.2 874.103C451.448 843.42 516.48 796.563 528.61 800.984C530.575 801.702 532.162 804.423 533.825 806.69C531.746 795.089 526.872 784.357 520.788 782.128C508.658 777.707 443.626 824.563 373.378 855.247C303.131 885.931 207.982 970.424 207.982 970.424C207.982 970.424 196.986 986.937 205.488 998.462C205.488 998.462 209.002 995.968 214.028 992.492C215.01 990.564 215.804 989.28 215.804 989.28Z" fill="#FFAF6E"/>
<path d="M205.488 998.462C205.488 998.462 292.135 934.903 399.792 892.959C507.411 850.977 519.919 848.03 530.121 836.542C540.324 825.055 532.918 786.549 520.788 782.128C508.658 777.707 443.625 824.563 373.378 855.247C303.131 885.931 207.982 970.424 207.982 970.424C207.982 970.424 196.986 986.899 205.488 998.462V998.462Z" stroke="#592832" stroke-width="20.4053" stroke-linecap="round" stroke-linejoin="round"/>
<path d="M1184.68 693.176C1259.08 733.986 1282.32 798.943 1349.51 835.295C1416.73 871.647 1619.99 976.47 1659.18 1062.1C1668.78 1089.3 1631.97 1085.3 1631.97 1085.3C1631.97 1085.3 1527.94 931.464 1359.9 900.668C1191.86 869.871 1159.25 867.377 1159.25 867.377C1159.25 867.377 1261.5 853.244 1309.49 862.049C1309.49 862.049 1281.49 826.868 1247.86 789.648C1214.27 752.427 1184.64 693.214 1184.64 693.214L1184.68 693.176Z" fill="#CC8C52"/>
<path d="M1184.68 693.176C1259.08 733.986 1282.32 798.943 1349.51 835.295C1416.73 871.647 1619.99 976.47 1659.18 1062.1C1668.78 1089.3 1631.97 1085.3 1631.97 1085.3C1631.97 1085.3 1527.94 931.464 1359.9 900.668C1191.86 869.871 1159.25 867.377 1159.25 867.377C1159.25 867.377 1261.5 853.244 1309.49 862.049C1309.49 862.049 1281.49 826.868 1247.86 789.648C1214.27 752.427 1184.64 693.214 1184.64 693.214L1184.68 693.176Z" stroke="#592832" stroke-width="20.4053" stroke-linecap="round" stroke-linejoin="round"/>
<path d="M834.993 1180.37C561.335 1182.9 343.679 1155.7 308.461 1152.48C273.243 1149.27 12.3947 1144.47 13.9818 1112.47C15.5689 1080.46 52.374 1082.05 69.9831 1061.27C87.5921 1040.48 97.1901 1038.86 92.3911 1024.46C87.5921 1010.06 84.3801 994.041 111.587 982.856C138.794 971.671 209.23 793.994 297.238 754.014C230.014 760.401 217.204 771.246 217.204 771.246C217.204 771.246 202.807 749.593 220.416 732.589C238.025 715.584 316.434 710.785 316.434 710.785C316.434 710.785 322.82 632.376 340.429 608.343C358.038 584.348 382.033 608.343 382.033 608.343C382.033 608.343 365.331 644.544 366.502 669.635C366.502 669.635 463.654 589.109 558.086 574.712C558.086 574.712 526.08 534.695 497.285 529.103C511.682 501.102 532.201 504.314 532.201 504.314C532.201 504.314 577.32 528.309 588.542 542.706C599.728 486.705 622.136 453.074 622.136 453.074C622.136 453.074 644.544 446.688 660.528 453.074C639.707 483.493 636.533 529.103 636.533 529.103C636.533 529.103 747.364 456.286 916.01 465.884C892.582 425.867 862.2 421.068 862.2 421.068C862.2 421.068 870.211 398.66 889.407 398.66C908.603 398.66 958.219 441.889 972.616 459.46C1031.83 397.035 1103.85 398.66 1103.85 398.66L1123.05 422.655C1123.05 422.655 1047.81 433.84 1019.02 473.857C1019.02 473.857 1167.86 456.248 1263.88 504.276C1359.9 552.304 1423.91 560.277 1460.72 539.494C1483.13 557.103 1479.91 573.087 1479.91 573.087C1479.91 573.087 1444.7 585.897 1411.1 585.897C1529.53 608.305 1576.58 750.727 1668.78 732.551V771.208C1668.78 771.208 1611.15 763.575 1585.57 747.553C1652.79 797.168 1651.17 840.359 1647.99 854.794C1644.78 869.191 1635.18 902.066 1662.39 915.216C1689.6 928.404 1747.22 1021.21 1747.22 1072.45C1828.85 1099.66 1892.86 1171.83 1702.41 1173.34C1511.96 1174.86 834.993 1180.33 834.993 1180.33V1180.37Z" stroke="#592832" stroke-width="20.4053" stroke-linecap="round" stroke-linejoin="round"/>
<path d="M749.065 1191.52C593.418 1195.94 428.777 1199.76 343.793 1175.04C319.609 1163.18 343.68 1132.16 353.656 1136.65C363.631 1141.15 557.898 1155.43 699.941 1138.35C772.72 1128.98 749.027 1191.48 749.027 1191.48L749.065 1191.52Z" fill="#CC8C52"/>
<path d="M749.066 1172.4C593.419 1176.82 428.778 1180.64 343.794 1155.92C340.128 1154.11 337.861 1151.81 336.198 1149.27C331.739 1158.04 331.513 1168.96 343.794 1175.01C428.778 1199.68 593.419 1195.87 749.066 1191.48C749.066 1191.48 754.998 1175.84 751.786 1161.37C750.691 1167.75 749.066 1172.4 749.066 1172.4Z" fill="#935C2E"/>
<path d="M749.065 1191.52C593.418 1195.94 428.777 1199.76 343.793 1175.04C319.609 1163.18 343.68 1132.16 353.656 1136.65C363.631 1141.15 557.898 1155.43 699.941 1138.35C772.72 1128.98 749.027 1191.48 749.027 1191.48L749.065 1191.52Z" stroke="#592832" stroke-width="20.4053" stroke-linecap="round" stroke-linejoin="round"/>
<path d="M987.053 1189.63C832.048 1204.29 668.012 1218.91 581.591 1199.87C556.689 1189.63 578.644 1157.09 588.922 1160.91C599.163 1164.73 793.958 1166.2 934.566 1139.83C1006.55 1125.69 987.053 1189.63 987.053 1189.63Z" fill="#CC8C52"/>
<path d="M987.054 1166.65C832.049 1181.32 668.013 1195.94 581.593 1176.89C578.192 1175.5 575.812 1173.64 574.036 1171.57C568.594 1181.01 567.385 1194.01 581.593 1199.83C668.013 1218.88 832.049 1204.21 987.054 1189.59C987.054 1189.59 991.211 1175.23 988.15 1161.63C987.583 1164.46 987.054 1166.62 987.054 1166.62V1166.65Z" fill="#935C2E"/>
<path d="M987.053 1189.63C832.048 1204.29 668.012 1218.91 581.591 1199.87C556.689 1189.63 578.644 1157.09 588.922 1160.91C599.163 1164.73 793.958 1166.2 934.566 1139.83C1006.55 1125.69 987.053 1189.63 987.053 1189.63Z" stroke="#592832" stroke-width="20.4053" stroke-linecap="round" stroke-linejoin="round"/>
<path d="M1330.01 1124.52C1177.05 1164.92 1101.89 1186.19 1053.75 1204.25C1005.61 1222.32 827.021 1280.28 795.998 1268.15C765.012 1256.02 972.315 1195.94 967.1 1174.67C961.885 1153.39 821.429 1142.28 800.986 1142.62C832.69 1116.17 925.76 1121.2 964.984 1130.3C1004.17 1139.41 1260.14 1117.65 1303.86 1090.93C1327.97 1097.81 1329.97 1124.52 1329.97 1124.52H1330.01Z" fill="#CC8C52"/>
<path d="M1330.01 1124.52C1177.05 1164.92 1101.89 1186.19 1053.75 1204.25C1005.61 1222.32 827.021 1280.28 795.998 1268.15C765.012 1256.02 972.315 1195.94 967.1 1174.67C961.885 1153.39 821.429 1142.28 800.986 1142.62C832.69 1116.17 925.76 1121.2 964.984 1130.3C1004.17 1139.41 1260.14 1117.65 1303.86 1090.93C1327.97 1097.81 1329.97 1124.52 1329.97 1124.52H1330.01Z" stroke="#592832" stroke-width="20.4053" stroke-linecap="round" stroke-linejoin="round"/>
<path d="M1330.01 1124.52C1177.05 1164.92 1101.89 1186.19 1053.75 1204.25C1005.61 1222.32 827.021 1280.28 795.998 1268.15C765.012 1256.02 972.315 1195.94 967.1 1174.67C961.885 1153.39 821.429 1142.28 800.986 1142.62C832.69 1116.17 925.76 1121.2 964.984 1130.3C1004.17 1139.41 1260.14 1117.65 1303.86 1090.93C1327.97 1097.81 1329.97 1124.52 1329.97 1124.52H1330.01Z" fill="#CC8C52"/>
<path d="M1330.01 1124.52C1177.05 1164.92 1101.89 1186.19 1053.75 1204.25C1005.61 1222.32 827.021 1280.28 795.998 1268.15C765.012 1256.02 972.315 1195.94 967.1 1174.67C961.885 1153.39 821.429 1142.28 800.986 1142.62C832.69 1116.17 925.76 1121.2 964.984 1130.3C1004.17 1139.41 1260.14 1117.65 1303.86 1090.93C1327.97 1097.81 1329.97 1124.52 1329.97 1124.52H1330.01Z" fill="#FFAF6E"/>
<path d="M1330.01 1124.52C1177.05 1164.92 1101.89 1186.19 1053.75 1204.25C1005.61 1222.32 827.021 1280.28 795.998 1268.15C765.012 1256.02 972.315 1195.94 967.1 1174.67C961.885 1153.39 821.429 1142.28 800.986 1142.62C832.69 1116.17 925.76 1121.2 964.984 1130.3C1004.17 1139.41 1260.14 1117.65 1303.86 1090.93C1327.97 1097.81 1329.97 1124.52 1329.97 1124.52H1330.01Z" fill="#CC8C52"/>
<path d="M965.021 1151.09C1004.21 1160.19 1260.18 1138.43 1303.9 1111.71C1313.46 1114.43 1318.86 1120.37 1322.76 1126.45C1325.29 1125.77 1327.44 1125.2 1330.01 1124.52C1330.01 1124.52 1328.01 1097.77 1303.9 1090.93C1260.18 1117.65 1004.21 1139.37 965.021 1130.3C925.835 1121.2 832.764 1116.17 801.061 1142.62C807.862 1142.51 828.419 1143.79 852.452 1146.17C891.751 1141.19 939.628 1145.23 965.059 1151.12L965.021 1151.09Z" fill="#FFAF6E"/>
<path d="M1330.01 1124.52C1177.05 1164.92 1101.89 1186.19 1053.75 1204.25C1005.61 1222.32 827.021 1280.28 795.998 1268.15C765.012 1256.02 972.315 1195.94 967.1 1174.67C961.885 1153.39 821.429 1142.28 800.986 1142.62C832.69 1116.17 925.76 1121.2 964.984 1130.3C1004.17 1139.41 1260.14 1117.65 1303.86 1090.93C1327.97 1097.81 1329.97 1124.52 1329.97 1124.52H1330.01Z" stroke="#592832" stroke-width="20.4053" stroke-linecap="round" stroke-linejoin="round"/>
<path d="M366.541 1084.32C366.541 1084.32 730.964 1184.49 1289.5 1093.27C1225.94 946.618 979.456 669.673 979.456 669.673C759.91 744.606 560.353 902.482 366.503 1084.32H366.541Z" fill="#3A1B22"/>
<path d="M866.773 1160.16C676.399 1161.93 475.066 1162.73 371.793 1130.57C342.507 1115.49 372.662 1078.16 384.754 1083.86C396.846 1089.57 634.001 1111.56 808.013 1094.03C897.192 1084.28 866.811 1160.16 866.811 1160.16H866.773Z" fill="#CC8C52"/>
<path d="M384.715 1107.86C396.807 1113.56 633.962 1135.56 807.974 1118.02C851.619 1113.26 866.469 1129.06 870.399 1146.36C874.367 1125.01 872.893 1086.92 807.974 1093.99C633.962 1111.52 396.807 1089.53 384.715 1083.82C374.323 1078.91 350.819 1105.82 362.987 1123.01C368.428 1112.69 378.745 1104.99 384.715 1107.82V1107.86Z" fill="#FFAF6E"/>
<path d="M866.773 1160.16C676.399 1161.93 475.066 1162.73 371.793 1130.57C342.507 1115.49 372.662 1078.16 384.754 1083.86C396.846 1089.57 634.001 1111.56 808.013 1094.03C897.192 1084.28 866.811 1160.16 866.811 1160.16H866.773Z" stroke="#592832" stroke-width="20.4053" stroke-linecap="round" stroke-linejoin="round"/>
<path d="M1305.22 1160.84C1305.22 1160.84 1408.46 1162.88 1395.23 1125.66C1382.04 1088.43 1123.95 793.162 1101.17 759.569C1078.34 725.975 1099.96 686.336 1101.17 652.743C1102.38 619.15 1075.96 584.31 1075.96 584.31C1075.96 584.31 1081.97 611.101 1062.78 635.512C1043.58 659.923 1044.79 686.336 1044.79 686.336C1044.79 686.336 1001.56 640.727 991.962 621.531C982.364 602.334 934.336 529.102 918.729 529.102C903.123 529.102 898.324 577.13 913.93 607.133C929.537 637.137 1073.58 801.589 1150.41 905.996C1227.23 1010.44 1302.84 1113.15 1305.26 1160.84H1305.22Z" fill="#CC8C52"/>
<path d="M1305.22 1160.84C1305.22 1160.84 1408.46 1162.88 1395.23 1125.66C1382.04 1088.43 1123.95 793.162 1101.17 759.569C1078.38 725.975 1099.96 686.336 1101.17 652.743C1102.38 619.15 1075.96 584.31 1075.96 584.31C1075.96 584.31 1081.97 611.101 1062.78 635.512C1043.58 659.923 1044.79 686.336 1044.79 686.336C1044.79 686.336 1001.56 640.727 991.962 621.531C982.364 602.334 934.336 529.102 918.73 529.102C917.747 529.102 916.954 529.82 916.047 530.16C918.805 548.563 924.776 570.971 937.85 590.318C965.473 631.129 1025.74 700.733 1044.83 715.13C1044.79 686.336 1073.51 630.108 1071.09 669.596C1068.67 709.122 1049.47 744.302 1139.52 844.931C1229.53 945.559 1271.55 1005.57 1301.56 1046.38C1331.56 1087.19 1386.96 1163.52 1305.26 1160.76L1305.22 1160.84Z" fill="#935C2E"/>
<path d="M1305.22 1160.84C1305.22 1160.84 1408.46 1162.88 1395.23 1125.66C1382.04 1088.43 1123.95 793.162 1101.17 759.569C1078.34 725.975 1099.96 686.336 1101.17 652.743C1102.38 619.15 1075.96 584.31 1075.96 584.31C1075.96 584.31 1081.97 611.101 1062.78 635.512C1043.58 659.923 1044.79 686.336 1044.79 686.336C1044.79 686.336 1001.56 640.727 991.962 621.531C982.364 602.334 934.336 529.102 918.729 529.102C903.123 529.102 898.324 577.13 913.93 607.133C929.537 637.137 1073.58 801.589 1150.41 905.996C1227.23 1010.44 1302.84 1113.15 1305.26 1160.84H1305.22Z" stroke="#592832" stroke-width="20.4053" stroke-linecap="round" stroke-linejoin="round"/>
<path d="M1052.54 732.589C1052.54 732.589 1040.18 703.379 1046.68 669.673" stroke="#592832" stroke-width="20.4053" stroke-linecap="round" stroke-linejoin="round"/>
<path d="M257.258 1150.9C257.258 1150.9 289.264 1173.3 329.281 1150.9C522.3 944.236 731.87 771.357 987.05 691.588C987.05 691.588 980.664 646.772 945.446 649.983C910.228 653.195 731.001 760.399 722.99 762.024C714.979 763.611 726.202 694.8 727.789 675.603C729.376 656.407 756.583 635.586 756.583 635.586C756.583 635.586 706.968 643.597 690.984 669.18C674.962 694.8 681.386 752.388 652.592 779.595C623.798 806.802 305.286 1053.25 257.296 1150.9H257.258Z" fill="#CC8C52"/>
<path d="M668.349 790.894C697.143 763.686 690.757 706.06 706.741 680.478C712.863 670.691 723.859 663.549 735.12 658.372C743.66 645.827 756.546 635.586 756.546 635.586C756.546 635.586 706.93 643.597 690.946 669.18C674.924 694.8 681.348 752.388 652.554 779.595C623.76 806.802 305.248 1053.25 257.258 1150.9C257.258 1150.9 264.211 1155.51 275.32 1158.45C328.941 1058.58 639.895 817.798 668.387 790.894H668.349Z" fill="#FFAF6E"/>
<path d="M703.152 730.774C701.338 746.38 697.143 786.586 733.76 764.972C733.76 764.972 737.349 759.568 741.96 752.124C731.417 757.943 724.388 761.684 722.952 761.987C714.941 763.574 726.164 694.762 727.751 675.566C729.338 656.37 756.546 635.549 756.546 635.549C756.546 635.549 739.239 638.459 721.781 646.017C702.774 669.18 704.436 719.665 703.152 730.774Z" fill="#935C2E"/>
<path d="M979.492 669.671C725.938 749.97 517.388 922.017 325.276 1127.69C303.51 1147.34 280.422 1138.43 267.385 1134.12C263.455 1140.01 259.79 1145.76 257.258 1150.9C257.258 1150.9 289.264 1173.3 329.281 1150.9C522.3 944.236 731.87 771.357 987.05 691.588C987.05 691.588 985.463 680.44 979.492 669.671Z" fill="#935C2E"/>
<path d="M257.258 1150.9C257.258 1150.9 289.264 1173.3 329.281 1150.9C522.3 944.236 731.87 771.357 987.05 691.588C987.05 691.588 980.664 646.772 945.446 649.983C910.228 653.195 731.001 760.399 722.99 762.024C714.979 763.611 726.202 694.8 727.789 675.603C729.376 656.407 756.583 635.586 756.583 635.586C756.583 635.586 706.968 643.597 690.984 669.18C674.962 694.8 681.386 752.388 652.592 779.595C623.798 806.802 305.286 1053.25 257.296 1150.9H257.258Z" stroke="#592832" stroke-width="20.4053" stroke-linecap="round" stroke-linejoin="round"/>
<path d="M138.417 1033.27C138.417 1033.27 164.83 1063.27 197.214 1033.27C229.636 1003.26 317.228 830.421 418.083 781.184C518.938 731.947 635.324 694.764 671.335 623.95C610.119 664.76 494.905 695.973 448.086 732.589C528.498 659.961 538.096 635.551 538.096 635.551C538.096 635.551 490.068 644.355 473.29 658.752C456.475 673.149 419.292 719.968 374.854 748.762C330.453 777.556 155.194 976.81 138.379 1033.23L138.417 1033.27Z" fill="#CC8C52"/>
<path d="M153.418 1042.98C170.233 986.559 345.454 787.305 389.893 758.511C434.293 729.716 471.514 682.898 488.329 668.501C496.831 661.208 513.345 655.35 527.553 651.345C535.942 640.462 538.133 635.55 538.133 635.55C538.133 635.55 490.105 644.354 473.328 658.751C456.512 673.148 419.329 719.967 374.891 748.761C330.49 777.556 155.232 976.81 138.416 1033.23C138.416 1033.23 144.538 1039.95 154.287 1043.84C153.871 1043.43 153.418 1042.98 153.418 1042.98Z" fill="#FFAF6E"/>
<path d="M138.417 1033.27C138.417 1033.27 164.83 1063.27 197.214 1033.27C229.636 1003.26 317.228 830.421 418.083 781.184C518.938 731.947 635.324 694.764 671.335 623.95C610.119 664.76 494.905 695.973 448.086 732.589C528.498 659.961 538.096 635.551 538.096 635.551C538.096 635.551 490.068 644.355 473.291 658.752C456.475 673.149 419.292 719.968 374.854 748.762C330.453 777.556 155.194 976.81 138.379 1033.23L138.417 1033.27Z" stroke="#592832" stroke-width="20.4053" stroke-linecap="round" stroke-linejoin="round"/>
<path d="M1075.85 529.14C1075.85 529.14 1110.84 506.317 1150.37 529.14C1189.89 551.964 1296.72 682.785 1353.14 724.805C1409.55 766.825 1553.6 847.237 1564.41 860.424C1575.21 873.612 1580.01 916.086 1574 915.254C1568 914.423 1423.95 795.619 1409.55 813.606C1395.16 831.592 1504.36 987.655 1546.38 1026.05C1569.21 1048.87 1504.36 1055.11 1487.58 1046.6C1470.77 1038.06 1384.35 852.036 1359.14 807.597C1333.94 763.197 1164.69 572.332 1075.89 529.14H1075.85Z" fill="#CC8C52"/>
<path d="M1564.41 860.424C1553.6 847.236 1409.55 766.787 1353.14 724.805C1296.72 682.785 1189.89 551.964 1150.37 529.14C1110.84 506.354 1075.85 529.14 1075.85 529.14C1077.02 529.707 1078.53 530.916 1079.7 531.521C1093.61 528.007 1113.37 526.986 1134.69 539.267C1174.21 562.053 1281.04 692.912 1337.45 734.932C1393.87 776.951 1537.92 857.363 1548.72 870.551C1554.51 877.618 1558.51 892.959 1560.1 905.694C1567.35 911.06 1572.98 915.141 1573.97 915.254C1579.98 916.085 1575.18 873.612 1564.37 860.424H1564.41Z" fill="#935C2E"/>
<path d="M1075.85 529.14C1075.85 529.14 1110.84 506.317 1150.37 529.14C1189.89 551.964 1296.72 682.785 1353.14 724.805C1409.55 766.825 1553.6 847.237 1564.41 860.424C1575.21 873.612 1580.01 916.086 1574 915.254C1568 914.423 1423.95 795.619 1409.55 813.606C1395.16 831.592 1504.36 987.655 1546.38 1026.05C1569.21 1048.87 1504.36 1055.11 1487.58 1046.6C1470.77 1038.06 1384.35 852.036 1359.14 807.597C1333.94 763.197 1164.69 572.332 1075.89 529.14H1075.85Z" stroke="#592832" stroke-width="20.4053" stroke-linecap="round" stroke-linejoin="round"/>
<path d="M1744.05 1110.88C1744.05 1110.88 1754.29 1069.2 1739.71 1033.91" stroke="#592832" stroke-width="20.4053" stroke-linecap="round" stroke-linejoin="round"/>
<path d="M799.588 569.804C825.652 565.109 844.748 550.015 842.24 536.09C839.732 522.164 816.57 514.681 790.506 519.375C764.442 524.069 745.346 539.164 747.854 553.089C750.362 567.015 773.524 574.498 799.588 569.804Z" fill="#CC8C52"/>
<path d="M806.898 635.489C823.557 632.498 835.763 622.846 834.163 613.931C832.562 605.016 817.76 600.214 801.101 603.206C784.442 606.197 772.235 615.849 773.836 624.764C775.437 633.678 790.239 638.48 806.898 635.489Z" fill="#CC8C52"/>
<path d="M578.124 787.383C594.783 784.392 606.99 774.74 605.389 765.825C603.788 756.91 588.986 752.108 572.327 755.1C555.669 758.091 543.462 767.743 545.063 776.658C546.663 785.573 561.466 790.374 578.124 787.383Z" fill="#CC8C52"/>
<path d="M324.486 993.702C335.717 991.776 343.989 985.363 342.962 979.377C341.936 973.391 332 970.1 320.769 972.026C309.538 973.952 301.266 980.365 302.292 986.351C303.318 992.336 313.255 995.628 324.486 993.702Z" fill="#CC8C52"/>
<path d="M1241.23 536.761C1241.67 531.625 1234.24 526.799 1224.63 525.982C1215.02 525.165 1206.88 528.667 1206.44 533.803C1206.01 538.939 1213.44 543.765 1223.05 544.582C1232.66 545.399 1240.8 541.897 1241.23 536.761Z" fill="#CC8C52"/>
<path d="M1302.97 569.753C1303.61 562.246 1292.75 555.191 1278.72 553.995C1264.68 552.799 1252.78 557.915 1252.14 565.422C1251.5 572.929 1262.36 579.984 1276.4 581.18C1290.44 582.375 1302.33 577.26 1302.97 569.753Z" fill="#CC8C52"/>
<path d="M1467.76 691.989C1468.66 681.446 1453.41 671.538 1433.69 669.859C1413.98 668.179 1397.27 675.364 1396.37 685.907C1395.47 696.449 1410.73 706.357 1430.44 708.037C1450.15 709.716 1466.86 702.532 1467.76 691.989Z" fill="#CC8C52"/>
<path d="M1539.36 743.453C1540.04 735.53 1528.6 728.083 1513.82 726.818C1499.04 725.553 1486.5 730.95 1485.82 738.872C1485.15 746.794 1496.58 754.242 1511.36 755.507C1526.15 756.772 1538.68 751.375 1539.36 743.453Z" fill="#CC8C52"/>
<path d="M1164.27 749.364C1164.69 744.415 1157.52 739.76 1148.25 738.967C1138.97 738.173 1131.11 741.542 1130.69 746.491C1130.26 751.44 1137.44 756.095 1146.71 756.888C1155.99 757.682 1163.85 754.313 1164.27 749.364Z" fill="#CC8C52"/>
<path d="M1774.39 1061.49C1903.1 1053.1 1919.72 935.28 1869.39 795.164C1819.09 655.047 1857.71 551.207 1965.22 539.304C2072.73 527.401 2173.5 657.088 2136.55 822.333C2099.59 987.616 1943.49 1139.75 1734.64 1146.78L1774.43 1061.49H1774.39Z" fill="#EAAC71"/>
<path d="M1774.39 1061.49C1903.1 1053.1 1919.72 935.28 1869.39 795.164C1819.09 655.047 1857.71 551.207 1965.22 539.304C2072.73 527.401 2173.5 657.088 2136.55 822.333C2099.59 987.616 1943.49 1139.75 1734.64 1146.78L1774.43 1061.49H1774.39Z" fill="#AE6745"/>
<path d="M1806.02 1061.49C1934.73 1053.1 1946.74 925.91 1896.45 785.793C1846.45 646.508 1888.93 552.53 1994.92 539.569C1985.13 538.322 1975.23 538.209 1965.22 539.305C1857.71 551.208 1819.1 655.048 1869.39 795.165C1919.69 935.281 1903.06 1053.1 1774.39 1061.49L1734.6 1146.78C1745.67 1146.4 1756.56 1145.61 1767.33 1144.44L1806.02 1061.49Z" fill="#C18B71"/>
<path d="M2063.7 791.083C2061.39 788.665 2057.65 788.627 2055.27 790.894C2047.94 797.998 2040.38 805.518 2032.79 813.453C2021.26 792.708 2007.85 771.358 1993.94 750.726C2007.05 736.367 2020.84 721.932 2034.75 708.366C2040.23 718.153 2045.33 728.016 2049.9 737.765C2050.92 739.957 2053.08 741.204 2055.31 741.204C2056.14 741.204 2057.01 741.015 2057.84 740.637C2060.79 739.201 2062.07 735.687 2060.67 732.701C2055.53 721.781 2049.75 710.785 2043.63 699.826C2048.85 694.914 2054.02 690.152 2059.24 685.58C2061.69 683.388 2061.92 679.61 2059.77 677.191C2057.57 674.735 2053.8 674.508 2051.38 676.662C2046.8 680.743 2042.16 684.938 2037.55 689.283C2023.91 666.044 2008.75 643.409 1994.05 622.853C1999.15 617.827 2004.41 612.877 2009.7 608.002C2012.12 605.811 2012.27 602.032 2010.08 599.576C2007.81 597.119 2004.07 597.006 2001.65 599.236C1996.7 603.808 1991.79 608.456 1986.95 613.104C1977.73 600.558 1968.81 588.92 1960.69 578.641C1958.65 576.072 1954.94 575.618 1952.34 577.697C1949.77 579.737 1949.35 583.44 1951.39 586.048C1959.74 596.628 1968.92 608.607 1978.45 621.606C1962.58 637.477 1947.69 653.687 1934.42 668.878C1911.19 638.95 1894.18 618.961 1893.73 618.432C1891.61 615.938 1887.83 615.635 1885.38 617.789C1882.88 619.943 1882.58 623.646 1884.7 626.14C1885.15 626.669 1902.72 647.301 1926.49 678.06C1910.47 696.879 1897.28 713.543 1888.25 725.333C1880.5 715.81 1875.74 710.293 1875.51 710.067C1873.36 707.573 1869.62 707.27 1867.12 709.424C1864.67 711.578 1864.37 715.319 1866.52 717.775C1866.75 718.04 1872.15 724.35 1880.88 735.082C1877.06 740.183 1874.95 743.169 1874.87 743.32C1872.94 746.003 1873.59 749.706 1876.27 751.595C1877.33 752.351 1878.5 752.691 1879.71 752.691C1881.56 752.691 1883.41 751.822 1884.55 750.197C1884.62 750.084 1886.02 748.119 1888.55 744.68C1900.53 759.757 1916.25 780.163 1932.8 803.44C1918.18 821.238 1906.2 836.617 1898.07 847.16C1895.31 843.344 1892.59 839.678 1889.95 836.164C1887.98 833.594 1884.24 833.065 1881.6 835.068C1878.99 837.071 1878.5 840.812 1880.5 843.419C1883.75 847.651 1887.11 852.261 1890.55 857.06C1888.1 860.348 1886.74 862.2 1886.62 862.351C1884.66 864.958 1885.23 868.699 1887.91 870.664C1888.97 871.42 1890.18 871.835 1891.38 871.835C1893.24 871.835 1895.05 870.966 1896.22 869.379C1896.3 869.304 1896.79 868.548 1897.73 867.339C1909.71 884.91 1922.26 904.937 1934.08 925.456C1921.8 940.344 1910.85 953.91 1902 965.02C1901.06 963.81 1900.42 963.055 1900.26 962.866C1898.19 960.334 1894.41 959.994 1891.91 962.072C1889.38 964.151 1889 967.891 1891.08 970.423C1891.16 970.499 1892.4 972.01 1894.37 974.618C1884.39 987.201 1878.46 994.91 1878.23 995.25C1876.23 997.857 1876.72 1001.6 1879.29 1003.6C1880.39 1004.43 1881.67 1004.85 1882.92 1004.85C1884.7 1004.85 1886.47 1004.02 1887.64 1002.5C1887.83 1002.2 1892.97 995.59 1901.59 984.669C1908.8 995.287 1917.34 1009.91 1919.05 1021.47C1919.5 1024.42 1921.99 1026.58 1924.9 1026.58C1925.2 1026.58 1925.47 1026.58 1925.77 1026.5C1929.02 1026.05 1931.25 1023.02 1930.8 1019.77C1928.61 1004.77 1917.5 986.672 1909.3 974.995C1917.8 964.302 1928.42 951.151 1940.36 936.603C1950.52 954.741 1960.01 972.879 1967.9 989.695C1968.92 991.887 1971.08 993.134 1973.27 993.134C1974.14 993.134 1974.97 992.945 1975.84 992.567C1978.79 991.131 1980.07 987.617 1978.67 984.631C1970.06 966.342 1959.63 946.466 1948.44 926.779C1959.7 913.175 1971.95 898.702 1984.68 884.041C1991.71 896.435 1998.25 908.867 2004.03 921.148C2005.05 923.34 2007.17 924.587 2009.43 924.587C2010.26 924.587 2011.13 924.398 2011.93 924.02C2014.91 922.584 2016.2 919.07 2014.76 916.085C2008.3 902.368 2000.89 888.424 1992.96 874.594C2005.13 860.726 2017.63 846.82 2030.03 833.632C2032.48 838.393 2034.83 843.117 2036.98 847.765C2038 849.919 2040.15 851.203 2042.35 851.203C2043.22 851.203 2044.05 851.014 2044.92 850.637C2047.86 849.238 2049.15 845.686 2047.75 842.739C2044.92 836.768 2041.89 830.685 2038.64 824.525C2047.11 815.721 2055.42 807.332 2063.47 799.548C2065.81 797.243 2065.89 793.464 2063.62 791.159L2063.7 791.083ZM1985.48 631.355C2000.21 651.949 2015.25 674.584 2028.7 697.71C2014.53 711.427 2000.52 726.013 1987.1 740.637C1971.65 718.153 1955.89 696.841 1941.83 678.476C1954.94 663.361 1969.68 647.226 1985.48 631.317V631.355ZM1895.96 734.855C1904.57 723.519 1917.72 706.817 1933.93 687.696C1947.95 706.099 1963.63 727.373 1978.9 749.706C1965.18 764.934 1952.26 780.011 1940.66 793.955C1923.77 770.3 1907.82 749.706 1895.96 734.855ZM1942.21 915.707C1930.12 894.999 1917.42 874.821 1905.33 857.325C1912.92 847.349 1924.98 831.856 1939.94 813.529C1952.94 832.272 1966.24 852.526 1978.41 873.12C1965.75 887.668 1953.47 902.103 1942.17 915.707H1942.21ZM1986.65 863.711C1974.29 842.966 1960.84 822.674 1947.76 804.007C1959.25 790.176 1972.06 775.099 1985.74 759.871C1999.61 780.54 2012.91 801.853 2024.17 822.485C2011.66 835.748 1999 849.692 1986.65 863.711Z" fill="#924921"/>
<path d="M1914.24 845.76C1913.11 840.923 1911.94 836.011 1910.62 831.099C1905.82 837.182 1901.62 842.662 1898.11 847.158C1895.35 843.342 1892.63 839.676 1889.98 836.162C1888.09 833.706 1884.58 833.139 1882.01 834.84C1883.48 840.243 1884.84 845.571 1886.09 850.824C1887.57 852.902 1889.08 854.943 1890.59 857.097C1889.61 858.419 1888.81 859.439 1888.21 860.308C1889.04 864.163 1889.8 867.979 1890.44 871.796C1890.78 871.871 1891.12 871.871 1891.42 871.871C1893.27 871.871 1895.09 871.002 1896.26 869.415C1896.33 869.34 1896.82 868.584 1897.77 867.375C1906.23 879.769 1914.92 893.41 1923.5 907.581C1923.01 898.852 1922.1 889.896 1920.82 880.714C1915.6 872.589 1910.43 864.692 1905.33 857.361C1907.82 854.073 1910.84 850.181 1914.24 845.76Z" fill="#A66A49"/>
<path d="M1883.75 624.59C1884.58 622.02 1885.53 619.488 1886.51 617.032C1886.09 617.221 1885.68 617.486 1885.34 617.788C1883.34 619.526 1882.77 622.247 1883.75 624.59Z" fill="#A66A49"/>
<path d="M1923.58 938.303C1915.53 948.165 1908.24 957.197 1902.04 965.019C1901.1 963.809 1900.45 963.054 1900.3 962.865C1898.45 960.597 1895.24 960.106 1892.82 961.504C1892.25 964.452 1891.69 967.361 1891.01 970.233C1891.01 970.309 1891.08 970.384 1891.12 970.422C1891.16 970.46 1892.44 972.009 1894.41 974.617C1891.65 978.131 1889.19 981.229 1887.08 983.912C1884.77 990.639 1882.01 997.025 1878.76 1003.03C1878.95 1003.22 1879.1 1003.41 1879.33 1003.6C1880.43 1004.43 1881.71 1004.85 1882.96 1004.85C1884.73 1004.85 1886.51 1004.02 1887.68 1002.5C1887.87 1002.2 1893.01 995.589 1901.62 984.668C1904.27 988.56 1907.1 992.981 1909.67 997.554C1911.75 993.133 1913.6 988.523 1915.19 983.686C1913.19 980.512 1911.22 977.564 1909.33 974.919C1912.88 970.46 1916.81 965.548 1921.01 960.333C1922.26 953.229 1923.09 945.898 1923.58 938.303Z" fill="#A66A49"/>
<path d="M1880.88 735.081C1877.06 740.182 1874.95 743.168 1874.87 743.319C1872.94 746.002 1873.59 749.705 1876.27 751.594C1877.33 752.35 1878.5 752.69 1879.71 752.69C1881.56 752.69 1883.41 751.821 1884.54 750.196C1884.54 750.121 1884.77 749.856 1885.15 749.327C1881.94 736.706 1879.52 724.538 1877.93 712.862C1876.46 711.124 1875.63 710.141 1875.51 710.028C1873.36 707.534 1869.62 707.232 1867.12 709.386C1864.67 711.539 1864.37 715.28 1866.52 717.737C1866.75 718.001 1872.15 724.312 1880.88 735.043V735.081Z" fill="#A66A49"/>
<path d="M1965.26 539.304C1958.42 540.06 1952.67 542.251 1946.4 543.725C2044.76 544.594 2132.01 664.305 2097.89 816.816C2064.3 967.135 1928.19 1104.64 1744.16 1126.45L1734.64 1146.82C1943.53 1139.75 2099.63 987.654 2136.59 822.371C2173.54 657.088 2072.76 527.401 1965.26 539.304Z" fill="#924921"/>
<path d="M1965.26 539.304C1958.42 540.06 1953.16 541.382 1946.89 542.856C2045.03 537.679 2132.01 664.305 2097.93 816.816C2064.34 967.135 1928.22 1104.64 1744.2 1126.45L1734.68 1146.82C1943.57 1139.75 2099.67 987.654 2136.62 822.371C2173.58 657.088 2072.8 527.401 1965.29 539.304H1965.26Z" stroke="#592832" stroke-width="20.4053" stroke-linecap="round" stroke-linejoin="round"/>
<path d="M1774.39 1061.49C1903.1 1053.1 1919.72 935.28 1869.39 795.164C1819.09 655.047 1857.71 551.207 1965.22 539.304C2072.73 527.401 2173.5 657.088 2136.55 822.333C2099.59 987.616 1943.49 1139.75 1734.64 1146.78L1774.43 1061.49H1774.39Z" stroke="#592832" stroke-width="20.4053" stroke-linecap="round" stroke-linejoin="round"/>
<path d="M1714.24 650.401C1654.3 682.218 1576.35 701.414 1491.06 701.414C1436.16 701.414 1384.27 693.441 1338.29 679.271C1346.52 716.302 1353.14 777.594 1328.16 836.921C1288.67 930.709 1224.47 1135.59 1513.28 1135.59C1695.12 1135.59 1834.14 958.71 1789.32 822.108C1767.89 767.316 1715.18 719.477 1714.24 650.401Z" fill="#EAAC71"/>
<path d="M1350.76 836.921C1374.3 781.033 1369.76 723.407 1362.28 685.959C1354.12 683.919 1346.11 681.689 1338.29 679.271C1346.52 716.303 1353.14 777.594 1328.16 836.921C1288.67 930.71 1224.47 1135.59 1513.28 1135.59C1516.34 1135.59 1519.37 1135.52 1522.39 1135.44C1249.11 1129.09 1311.87 929.236 1350.76 836.921Z" fill="#F5D7BB"/>
<path d="M1676.9 1083.79C1624.87 1040.94 1585.8 971.521 1577.75 886.725C1564.41 746.155 1380.5 726.619 1337.72 808.883C1335.23 818.216 1332.09 827.588 1328.16 836.921C1288.67 930.71 1224.47 1135.59 1513.28 1135.59C1574.46 1135.59 1630.76 1115.57 1676.86 1083.79H1676.9Z" fill="#FFE5C0"/>
<path d="M1579.63 1127.62C1583.75 1126.64 1587.8 1125.5 1591.84 1124.33C1592.97 1123.99 1594.11 1123.65 1595.24 1123.31C1598.15 1122.44 1601.02 1121.5 1603.86 1120.55C1605.14 1120.1 1606.46 1119.65 1607.75 1119.19C1610.54 1118.21 1613.3 1117.15 1616.06 1116.09C1617.2 1115.64 1618.33 1115.23 1619.46 1114.77C1627.1 1111.67 1634.54 1108.27 1641.83 1104.61C1642.93 1104.04 1644.02 1103.47 1645.08 1102.91C1647.65 1101.58 1650.18 1100.22 1652.68 1098.83C1653.89 1098.15 1655.1 1097.47 1656.31 1096.75C1658.76 1095.31 1661.22 1093.88 1663.6 1092.4C1664.66 1091.76 1665.75 1091.12 1666.77 1090.44C1670.17 1088.28 1673.54 1086.09 1676.82 1083.82C1673.84 1081.37 1670.89 1078.8 1668.02 1076.15C1667.19 1075.4 1666.36 1074.57 1665.53 1073.77C1663.49 1071.85 1661.41 1069.92 1659.4 1067.92C1658.5 1067.01 1657.59 1066.06 1656.68 1065.12C1654.79 1063.15 1652.9 1061.15 1651.05 1059.11C1650.15 1058.13 1649.28 1057.11 1648.41 1056.13C1646.59 1054.05 1644.78 1051.97 1643 1049.82C1615 1015.88 1593.62 972.729 1583.19 922.962C1567.24 946.353 1541.28 997.291 1556.24 1065.95C1558.4 1075.81 1551.97 1085.56 1542.11 1087.79C1455.05 1107.59 1364.66 1091.68 1301.93 1033.76L1301.03 1033.6C1320.34 1090.85 1378.23 1135.63 1513.2 1135.63C1536.1 1135.63 1558.28 1132.83 1579.52 1127.66L1579.63 1127.62Z" fill="#DBAB7A"/>
<path d="M1350.76 836.921C1359.03 817.271 1363.79 797.433 1366.21 778.312C1354.16 786.058 1344.26 796.261 1337.72 808.882C1337.15 811.074 1336.51 813.228 1335.87 815.419C1335.72 815.948 1335.53 816.515 1335.38 817.044C1334.89 818.631 1334.36 820.256 1333.83 821.843C1333.6 822.524 1333.37 823.241 1333.11 823.922C1332.58 825.471 1332.01 826.982 1331.45 828.532C1331.22 829.174 1330.96 829.817 1330.73 830.459C1329.9 832.613 1329.07 834.729 1328.16 836.883C1288.67 930.672 1224.47 1135.56 1513.28 1135.56C1516.15 1135.56 1518.99 1135.48 1521.86 1135.37C1249.22 1128.79 1311.91 929.122 1350.76 836.883V836.921Z" fill="#FFF7EC"/>
<path d="M1789.32 822.107C1771.82 777.366 1733.51 737.311 1719.49 686.525C1718.77 683.917 1718.13 681.272 1717.56 678.589C1717.45 678.136 1717.37 677.72 1717.26 677.267C1716.69 674.546 1716.16 671.787 1715.75 668.991C1715.75 668.953 1715.75 668.878 1715.75 668.84C1715.37 666.233 1715.07 663.588 1714.84 660.905C1714.76 660.224 1714.73 659.544 1714.69 658.864C1714.46 656.106 1714.31 653.309 1714.27 650.438C1654.34 682.255 1576.39 701.451 1491.1 701.451C1436.19 701.451 1384.31 693.478 1338.32 679.307C1338.7 681.045 1339.08 682.859 1339.46 684.673C1339.57 685.202 1339.68 685.731 1339.8 686.298C1340.1 687.772 1340.36 689.245 1340.67 690.757C1340.74 691.248 1340.85 691.739 1340.93 692.268C1341.27 694.196 1341.61 696.198 1341.95 698.201C1342.03 698.692 1342.1 699.221 1342.18 699.713C1342.4 701.073 1342.59 702.471 1342.78 703.907C1398.33 731.567 1486.98 743.093 1585.53 731.681C1596.6 729.754 1607.45 727.524 1618.03 724.955C1643.72 718.72 1670.21 731.605 1680.87 755.865C1698.25 795.504 1727.23 829.513 1741.78 866.734C1764.42 935.696 1740.16 1014.9 1687.22 1076.45C1771.71 1012.9 1818 909.32 1789.39 822.144L1789.32 822.107Z" fill="#D6823C"/>
<path d="M1714.24 650.401C1654.3 682.218 1576.35 701.414 1491.06 701.414C1436.16 701.414 1384.27 693.441 1338.29 679.271C1346.52 716.302 1353.14 777.594 1328.16 836.921C1288.67 930.709 1224.47 1135.59 1513.28 1135.59C1695.12 1135.59 1834.14 958.71 1789.32 822.108C1767.89 767.316 1715.18 719.477 1714.24 650.401Z" stroke="#592832" stroke-width="20.4053" stroke-linecap="round" stroke-linejoin="round"/>
<path d="M1767.97 779.822C1777.15 791.612 1816.22 841.113 1831.15 865.978C1870.64 931.804 1878.31 1026.16 1825.67 1099.66C1772.99 1173.15 1666.58 1175.34 1618.86 1115C1548.19 1025.71 1574.99 945.256 1594.3 908.678C1678.75 897.19 1721.45 835.861 1767.97 779.784V779.822Z" fill="#EAAC71"/>
<path d="M1620.56 1081.33C1582.13 1007.15 1594.33 947.6 1613.76 908.452C1617.84 900.253 1611.34 890.881 1602.19 891.335H1601.97C1579.63 926.137 1546.19 1004.09 1609.07 1098.98C1640.28 1146.06 1705.77 1162.16 1761.62 1140.24C1705.47 1152.86 1645.61 1129.7 1620.56 1081.33Z" fill="#F5D7BB"/>
<path d="M1831.15 865.979C1816.22 841.115 1777.15 791.613 1767.97 779.823C1753.53 797.206 1739.48 815.117 1724.44 831.857C1729.8 839.49 1734.6 846.594 1738.04 852.338C1777.53 918.164 1785.2 1012.52 1732.56 1086.02C1711.1 1115.98 1680.64 1134.12 1648.9 1140.96C1702.41 1172.32 1782.25 1160.23 1825.67 1099.66C1878.34 1026.16 1870.64 931.805 1831.15 865.979Z" fill="#D6823C"/>
<path d="M1607.37 887.933C1607.37 887.933 1522.5 993.285 1618.86 1115.04C1666.62 1175.38 1773.03 1173.19 1825.67 1099.69C1878.34 1026.2 1870.64 931.842 1831.15 866.016C1791.66 800.19 1771.78 792.293 1752.55 755.752" stroke="#592832" stroke-width="20.4053" stroke-linecap="round" stroke-linejoin="round"/>
<path d="M1788.37 1200.59H1527.26C1527.26 1200.59 1533.8 1132.57 1618.82 1115C1703.88 1097.43 1792.91 1147.91 1797.74 1169.87C1802.58 1191.82 1788.33 1200.59 1788.33 1200.59H1788.37Z" fill="#AE6745"/>
<path d="M1788.37 1200.59H1527.26C1527.26 1200.59 1533.8 1132.57 1618.82 1115C1703.88 1097.43 1792.91 1147.91 1797.74 1169.87C1802.58 1191.82 1788.33 1200.59 1788.33 1200.59H1788.37Z" fill="#AE6745"/>
<path d="M1630.49 1128.38C1698.36 1114.36 1768.68 1143.64 1796.83 1167.22C1786.07 1144.17 1700.67 1098.15 1618.86 1115.04C1533.8 1132.61 1527.3 1200.63 1527.3 1200.63H1542.03C1548.72 1179.88 1569.24 1141.07 1630.49 1128.41V1128.38Z" fill="#C18B71"/>
<path d="M1797.78 1169.87C1796.16 1162.54 1785.12 1152.03 1768.04 1141.94C1765.21 1142.24 1762.37 1142.58 1759.54 1142.96C1727.23 1147.46 1706.3 1156.83 1692.69 1166.73C1680.71 1175.46 1666.32 1180.15 1651.51 1180.15H1532.93C1528.09 1191.97 1527.22 1200.55 1527.22 1200.55H1788.33C1788.33 1200.55 1802.58 1191.78 1797.74 1169.83L1797.78 1169.87Z" fill="#924921"/>
<path d="M1788.37 1200.59H1527.26C1527.26 1200.59 1533.8 1132.57 1618.82 1115C1703.88 1097.43 1792.91 1147.91 1797.74 1169.87C1802.58 1191.82 1788.33 1200.59 1788.33 1200.59H1788.37Z" stroke="#592832" stroke-width="20.4053" stroke-linecap="round" stroke-linejoin="round"/>
<path d="M1621.35 1200.59C1621.35 1200.59 1633.37 1162.88 1663.03 1153.32" stroke="#592832" stroke-width="20.4053" stroke-linecap="round" stroke-linejoin="round"/>
<path d="M1563.69 1200.59C1563.69 1200.59 1575.7 1162.88 1605.37 1153.32" stroke="#592832" stroke-width="20.4053" stroke-linecap="round" stroke-linejoin="round"/>
<path d="M1432.94 1129.02C1431.43 1128.75 1429.92 1128.45 1428.44 1128.15C1426.71 1127.81 1424.97 1127.43 1423.23 1127.05C1421.79 1126.75 1420.32 1126.41 1418.92 1126.11C1417.26 1125.73 1415.6 1125.31 1413.97 1124.9C1412.57 1124.56 1411.18 1124.22 1409.82 1123.84C1408.23 1123.43 1406.64 1122.97 1405.09 1122.52C1403.77 1122.14 1402.41 1121.76 1401.12 1121.35C1399.57 1120.89 1398.1 1120.4 1396.59 1119.91C1395.34 1119.5 1394.06 1119.08 1392.81 1118.66C1391.34 1118.14 1389.9 1117.61 1388.47 1117.08C1387.29 1116.62 1386.08 1116.21 1384.91 1115.75C1383.48 1115.19 1382.08 1114.58 1380.68 1114.02C1379.59 1113.56 1378.49 1113.11 1377.43 1112.66C1375.92 1112.01 1374.48 1111.3 1373.01 1110.62C1372.1 1110.2 1371.2 1109.78 1370.29 1109.37C1368.02 1108.27 1365.83 1107.14 1363.71 1105.97C1362.73 1105.44 1361.79 1104.87 1360.8 1104.3C1359.63 1103.62 1358.46 1102.98 1357.33 1102.3C1356.31 1101.7 1355.33 1101.06 1354.34 1100.41C1353.32 1099.77 1352.3 1099.13 1351.36 1098.49C1350.38 1097.81 1349.39 1097.13 1348.45 1096.45C1347.54 1095.8 1346.6 1095.16 1345.73 1094.52C1344.78 1093.8 1343.84 1093.08 1342.93 1092.36C1342.1 1091.72 1341.23 1091.04 1340.4 1090.36C1339.49 1089.61 1338.62 1088.85 1337.72 1088.09C1336.92 1087.41 1336.17 1086.77 1335.41 1086.05C1334.54 1085.26 1333.71 1084.47 1332.88 1083.67C1332.16 1082.99 1331.44 1082.31 1330.76 1081.63C1329.93 1080.8 1329.14 1079.97 1328.35 1079.14C1327.7 1078.46 1327.06 1077.74 1326.42 1077.06C1325.66 1076.19 1324.87 1075.36 1324.15 1074.49C1323.55 1073.81 1322.98 1073.09 1322.41 1072.41C1321.69 1071.51 1320.98 1070.6 1320.26 1069.69C1319.73 1069.01 1319.2 1068.29 1318.71 1067.61C1318.03 1066.67 1317.35 1065.72 1316.67 1064.78C1316.22 1064.1 1315.76 1063.42 1315.31 1062.7C1314.67 1061.72 1313.99 1060.74 1313.38 1059.72C1312.97 1059.07 1312.59 1058.39 1312.21 1057.71C1311.57 1056.65 1310.96 1055.63 1310.36 1054.54C1310.02 1053.93 1309.72 1053.37 1309.41 1052.76C1308.81 1051.59 1308.17 1050.46 1307.6 1049.29C1307.41 1048.91 1307.26 1048.53 1307.07 1048.15C1304.77 1043.35 1302.76 1038.48 1301.06 1033.45C1281.49 975.487 1301.44 904.748 1320.9 854.642C1240.07 900.97 1206.37 1081.97 1359.41 1128.87C1392.47 1137.48 1418.09 1136.31 1437.97 1129.77C1436.27 1129.51 1434.57 1129.21 1432.9 1128.9L1432.94 1129.02Z" fill="#EAAC71"/>
<path d="M1312.17 878.939C1314.89 870.815 1317.73 863.068 1320.56 855.7C1319.47 855.397 1318.33 855.057 1317.24 854.755C1236.41 901.082 1202.7 1082.09 1355.74 1128.98C1377.24 1134.57 1395.61 1136.05 1411.29 1134.61C1401.47 1133.78 1390.85 1132 1379.32 1128.98C1246.08 1088.13 1254.43 945.634 1312.17 878.901V878.939Z" fill="#F5D7BB"/>
<path d="M1432.94 1129.02C1431.43 1128.75 1429.92 1128.45 1428.44 1128.15C1426.71 1127.81 1424.97 1127.43 1423.23 1127.05C1421.79 1126.75 1420.32 1126.41 1418.92 1126.11C1417.26 1125.73 1415.6 1125.31 1413.97 1124.9C1412.57 1124.56 1411.18 1124.22 1409.82 1123.84C1408.23 1123.43 1406.64 1122.97 1405.09 1122.52C1403.77 1122.14 1402.41 1121.76 1401.12 1121.35C1399.57 1120.89 1398.1 1120.4 1396.59 1119.91C1395.34 1119.5 1394.06 1119.08 1392.81 1118.66C1391.34 1118.14 1389.9 1117.61 1388.47 1117.08C1387.29 1116.62 1386.08 1116.21 1384.91 1115.75C1383.48 1115.19 1382.08 1114.58 1380.68 1114.02C1379.59 1113.56 1378.49 1113.11 1377.43 1112.66C1375.92 1112.01 1374.48 1111.3 1373.01 1110.62C1372.1 1110.2 1371.2 1109.78 1370.29 1109.37C1368.02 1108.27 1365.83 1107.14 1363.71 1105.97C1362.73 1105.44 1361.79 1104.87 1360.8 1104.3C1359.63 1103.62 1358.46 1102.98 1357.33 1102.3C1356.31 1101.7 1355.33 1101.06 1354.34 1100.41C1353.32 1099.77 1352.3 1099.13 1351.36 1098.49C1350.38 1097.81 1349.39 1097.13 1348.45 1096.45C1347.54 1095.8 1346.6 1095.16 1345.73 1094.52C1344.78 1093.8 1343.84 1093.08 1342.93 1092.36C1342.1 1091.72 1341.23 1091.04 1340.4 1090.36C1339.49 1089.61 1338.62 1088.85 1337.72 1088.09C1336.92 1087.41 1336.17 1086.77 1335.41 1086.05C1334.54 1085.26 1333.71 1084.47 1332.88 1083.67C1332.16 1082.99 1331.44 1082.31 1330.76 1081.63C1329.93 1080.8 1329.14 1079.97 1328.35 1079.14C1327.7 1078.46 1327.06 1077.74 1326.42 1077.06C1325.66 1076.19 1324.87 1075.36 1324.15 1074.49C1323.55 1073.81 1322.98 1073.09 1322.41 1072.41C1321.69 1071.51 1320.98 1070.6 1320.26 1069.69C1319.73 1069.01 1319.2 1068.29 1318.71 1067.61C1318.03 1066.67 1317.35 1065.72 1316.67 1064.78C1316.22 1064.1 1315.76 1063.42 1315.31 1062.7C1314.67 1061.72 1313.99 1060.74 1313.38 1059.72C1312.97 1059.07 1312.59 1058.39 1312.21 1057.71C1311.57 1056.65 1310.96 1055.63 1310.36 1054.54C1310.02 1053.93 1309.72 1053.37 1309.41 1052.76C1308.81 1051.59 1308.17 1050.46 1307.6 1049.29C1307.41 1048.91 1307.26 1048.53 1307.07 1048.15C1304.77 1043.35 1302.76 1038.48 1301.06 1033.45C1281.49 975.487 1301.44 904.748 1320.9 854.642C1240.07 900.97 1206.37 1081.97 1359.41 1128.87C1392.47 1137.48 1418.09 1136.31 1437.97 1129.77C1436.27 1129.51 1434.57 1129.21 1432.9 1128.9L1432.94 1129.02Z" stroke="#592832" stroke-width="20.4053" stroke-linecap="round" stroke-linejoin="round"/>
<path d="M1480.82 1200.59H1219.71C1219.71 1200.59 1226.24 1132.57 1311.27 1115C1396.33 1097.43 1485.35 1147.91 1490.19 1169.87C1495.03 1191.82 1480.78 1200.59 1480.78 1200.59H1480.82Z" fill="#AE6745"/>
<path d="M1480.82 1200.59H1219.71C1219.71 1200.59 1226.24 1132.57 1311.27 1115C1396.33 1097.43 1485.35 1147.91 1490.19 1169.87C1495.03 1191.82 1480.78 1200.59 1480.78 1200.59H1480.82Z" fill="#AE6745"/>
<path d="M1322.9 1128.37C1390.77 1114.35 1461.09 1143.64 1489.25 1167.22C1478.48 1144.17 1393.08 1098.14 1311.27 1115.04C1226.21 1132.61 1219.71 1200.62 1219.71 1200.62H1234.44C1241.13 1179.88 1261.65 1141.07 1322.9 1128.41V1128.37Z" fill="#C18B71"/>
<path d="M1490.23 1169.87C1488.6 1162.53 1477.57 1152.03 1460.49 1141.94C1457.66 1142.24 1454.82 1142.58 1451.99 1142.96C1419.68 1147.46 1398.74 1156.83 1385.14 1166.73C1373.16 1175.46 1358.77 1180.14 1343.95 1180.14H1225.37C1220.54 1191.97 1219.67 1200.55 1219.67 1200.55H1480.78C1480.78 1200.55 1495.03 1191.78 1490.19 1169.83L1490.23 1169.87Z" fill="#924921"/>
<path d="M1313.8 1200.59C1313.8 1200.59 1325.82 1162.88 1355.48 1153.32" stroke="#592832" stroke-width="20.4053" stroke-linecap="round" stroke-linejoin="round"/>
<path d="M1256.14 1200.59C1256.14 1200.59 1268.15 1162.88 1297.82 1153.32" stroke="#592832" stroke-width="20.4053" stroke-linecap="round" stroke-linejoin="round"/>
<path d="M1435.25 1129.43C1434.49 1129.28 1433.7 1129.17 1432.94 1129.02C1431.43 1128.75 1429.92 1128.45 1428.44 1128.15C1426.71 1127.81 1424.97 1127.43 1423.23 1127.05C1421.79 1126.75 1420.32 1126.41 1418.92 1126.11C1417.26 1125.73 1415.6 1125.31 1413.97 1124.9C1412.57 1124.56 1411.18 1124.22 1409.82 1123.84C1408.23 1123.42 1406.64 1122.97 1405.09 1122.52C1403.77 1122.14 1402.41 1121.76 1401.12 1121.35C1399.58 1120.89 1398.1 1120.4 1396.59 1119.91C1395.34 1119.49 1394.06 1119.08 1392.81 1118.66C1391.34 1118.13 1389.9 1117.61 1388.47 1117.08C1387.29 1116.62 1386.08 1116.21 1384.91 1115.75C1383.48 1115.19 1382.08 1114.58 1380.68 1114.02C1380.61 1114.02 1380.57 1113.98 1380.49 1113.94C1358.35 1110.5 1334.66 1110.16 1311.27 1114.96C1226.21 1132.53 1219.71 1200.55 1219.71 1200.55H1480.82C1480.82 1200.55 1495.06 1191.78 1490.23 1169.83C1487.92 1159.36 1466.35 1142.36 1435.25 1129.4V1129.43Z" stroke="#592832" stroke-width="20.4053" stroke-linecap="round" stroke-linejoin="round"/>
<path d="M1422.06 129.12C1346.64 157.461 1247.25 65.7505 1177.31 129.12C1127.43 174.277 1183.17 255.218 1243.51 271.429L1422.06 129.12Z" fill="#EAAC71"/>
<path d="M1168.09 153.796C1229.49 98.2101 1313.53 161.996 1384.16 159.313L1422.06 129.12C1346.63 157.461 1247.25 65.7505 1177.31 129.12C1165.78 139.55 1159.96 151.868 1158.45 164.867C1161.1 161.013 1164.23 157.272 1168.09 153.796Z" fill="#F5D7BB"/>
<path d="M1422.06 129.12C1346.64 157.461 1247.25 65.7505 1177.31 129.12C1127.43 174.277 1183.17 255.218 1243.51 271.429L1422.06 129.12Z" stroke="#592832" stroke-width="20.4053" stroke-linecap="round" stroke-linejoin="round"/>
<path d="M1176.56 222.985C1192.77 245.733 1217.71 264.476 1243.52 271.429L1315.08 214.407C1225.15 95.7917 1152.41 186.104 1176.59 223.023L1176.56 222.985Z" fill="#EE857B"/>
<path d="M1206.37 209.381C1196.58 194.417 1202.7 170.686 1219.41 155.647C1182.07 160.257 1162.2 201.03 1176.56 222.984C1192.77 245.733 1217.71 264.475 1243.51 271.428L1264.26 254.877C1241.78 246.413 1220.69 229.446 1206.37 209.381Z" fill="#FFBAB0"/>
<path d="M1176.56 222.985C1192.77 245.733 1217.71 264.476 1243.52 271.429L1315.08 214.407C1225.15 95.7917 1152.41 186.104 1176.59 223.023L1176.56 222.985Z" stroke="#592832" stroke-width="20.4053" stroke-linecap="round" stroke-linejoin="round"/>
<path d="M1824.95 129.12C1771.78 94.6577 1705.2 138.227 1658.99 149.601C1610.7 119.031 1555.75 100.779 1497.48 100.779C1304.92 100.779 1148.78 316.395 1148.78 486.44C1148.78 605.168 1304.88 701.451 1497.48 701.451C1690.09 701.451 1846.19 605.206 1846.19 486.44C1846.19 424.355 1828.92 360.909 1798.8 303.888C1886.81 261.339 1896.48 175.485 1824.95 129.12Z" fill="#EAAC71"/>
<path d="M1828.5 131.578C1842.41 173.862 1820.57 223.213 1762.56 254.803C1795.89 311.144 1816.52 374.628 1819.55 437.582C1825.37 557.973 1671.76 663.212 1476.51 672.658C1382.19 677.231 1295.4 658.564 1230.21 624.517C1294.19 671.563 1390.17 701.453 1497.48 701.453C1690.05 701.453 1846.19 605.208 1846.19 486.441C1846.19 424.356 1828.92 360.911 1798.8 303.889C1885.3 262.058 1896.07 178.434 1828.5 131.578Z" fill="#D6823C"/>
<path d="M1824.95 129.122C1771.78 94.6594 1705.2 138.228 1658.99 149.603C1650.86 144.463 1642.55 139.702 1634.09 135.281L1630.76 141.629C1667.64 173.031 1693.75 169.252 1734.71 150.396C1782.06 128.593 1862.21 143.519 1872.34 210.554C1873.7 180.399 1858.02 150.547 1824.95 129.122Z" fill="#F5D7BB"/>
<path d="M1177.84 486.44C1177.84 320.665 1326.27 111.549 1512.18 101.233C1507.31 100.968 1502.4 100.779 1497.48 100.779C1304.92 100.779 1148.78 316.395 1148.78 486.44C1148.78 605.168 1304.88 701.451 1497.48 701.451C1502.36 701.451 1507.2 701.376 1511.99 701.262C1326.16 696.577 1177.84 602.221 1177.84 486.477V486.44Z" fill="#F5D7BB"/>
<path d="M1443.83 188.862C1411.25 155.572 1379.7 143.857 1353.78 141.628C1331.3 154.778 1310.06 170.649 1290.41 188.598C1305.79 227.595 1373.69 250.91 1443.79 188.862H1443.83Z" fill="#D6823C"/>
<path d="M1824.95 129.12C1771.78 94.6577 1705.2 138.227 1658.99 149.601C1610.7 119.031 1555.75 100.779 1497.48 100.779C1304.92 100.779 1148.78 316.395 1148.78 486.44C1148.78 605.168 1304.88 701.451 1497.48 701.451C1690.09 701.451 1846.19 605.206 1846.19 486.44C1846.19 424.355 1828.92 360.909 1798.8 303.888C1886.81 261.339 1896.48 175.485 1824.95 129.12V129.12Z" stroke="#592832" stroke-width="20.4053" stroke-linecap="round" stroke-linejoin="round"/>
<path d="M1872.03 198.687C1879.7 228.124 1851.82 277.89 1799.82 303.434C1780.63 269.614 1757.69 237.382 1729.35 207.454C1729.35 207.454 1851.06 118.54 1872.03 198.725V198.687Z" fill="white"/>
<path d="M1872.03 198.687C1879.7 228.124 1851.82 277.89 1799.82 303.434C1780.63 269.614 1757.69 237.382 1729.35 207.454C1729.35 207.454 1851.06 118.54 1872.03 198.725V198.687Z" fill="#EE857B"/>
<path d="M1872.04 198.687C1865.8 174.843 1850.65 165.963 1832.43 165.245C1837.88 170.762 1842.03 178.471 1844.34 189.051C1850.04 215.125 1827.75 255.746 1786.41 281.14C1791.06 288.508 1795.55 295.915 1799.82 303.434C1851.82 277.928 1879.71 228.124 1872.04 198.687Z" fill="#FFBAB0"/>
<path d="M1872.03 198.687C1879.7 228.124 1851.82 277.89 1799.82 303.434C1780.63 269.614 1757.69 237.382 1729.35 207.454C1729.35 207.454 1851.06 118.54 1872.03 198.725V198.687Z" stroke="#592832" stroke-width="20.4053" stroke-linecap="round" stroke-linejoin="round"/>
<path d="M1614.44 125.947C1602.99 121.072 1588.59 115.669 1571.51 110.681C1423.38 75.1225 1368.4 -30.645 1339.91 28.0391C1311.42 86.7233 1389.07 123.793 1389.07 123.793C1389.07 123.793 1323.09 129.461 1324.79 168.874C1326.53 208.362 1415.33 219.169 1460.6 176.431C1522.2 172.086 1576.19 158.595 1614.44 125.947Z" fill="#EAAC71"/>
<path d="M1575.52 133.806C1626.19 140.004 1637.53 144.387 1645.31 147.259C1654.57 142.006 1606.46 132.748 1614.48 125.947C1603.03 121.072 1588.63 115.668 1571.55 110.68C1423.42 75.1223 1368.44 -30.6075 1339.95 28.0389C1336.66 34.7273 1334.85 41.1512 1334.05 47.2728C1363.45 1.32308 1419.45 105.881 1575.55 133.806H1575.52Z" fill="#F5D7BB"/>
<path d="M1385.71 124.209C1377.55 125.305 1356.2 129.008 1341.08 139.438C1366.66 150.358 1411.1 155.157 1434.6 133.24C1415.22 132.447 1398.9 129.462 1385.71 124.171V124.209Z" fill="#D6823C"/>
<path d="M1646.03 141.742C1646.03 141.742 1619.24 124.586 1571.51 110.681C1423.38 75.1225 1368.4 -30.645 1339.91 28.0391C1311.42 86.7233 1389.07 123.793 1389.07 123.793C1389.07 123.793 1323.09 129.461 1324.79 168.874C1326.53 208.362 1415.33 219.169 1460.6 176.431" stroke="#592832" stroke-width="20.4053" stroke-linecap="round" stroke-linejoin="round"/>
<path d="M1438.84 128.63C1438.84 128.63 1387.15 134.261 1363.94 107.243" stroke="#592832" stroke-width="20.4053" stroke-linecap="round" stroke-linejoin="round"/>
<path d="M1247.26 484.4C1271.05 484.4 1290.33 461.307 1290.33 432.82C1290.33 404.333 1271.05 381.24 1247.26 381.24C1223.46 381.24 1204.18 404.333 1204.18 432.82C1204.18 461.307 1223.46 484.4 1247.26 484.4Z" fill="#592832"/>
<path d="M1261.12 434.899C1267.39 434.899 1272.46 429.383 1272.46 422.58C1272.46 415.777 1267.39 410.261 1261.12 410.261C1254.86 410.261 1249.79 415.777 1249.79 422.58C1249.79 429.383 1254.86 434.899 1261.12 434.899Z" fill="white"/>
<path d="M1581.45 512.061C1615.3 512.061 1642.74 484.62 1642.74 450.769C1642.74 416.919 1615.3 389.478 1581.45 389.478C1547.6 389.478 1520.16 416.919 1520.16 450.769C1520.16 484.62 1547.6 512.061 1581.45 512.061Z" fill="#592832"/>
<path d="M1557.38 452.734C1565.71 452.734 1572.46 445.983 1572.46 437.656C1572.46 429.329 1565.71 422.579 1557.38 422.579C1549.05 422.579 1542.3 429.329 1542.3 437.656C1542.3 445.983 1549.05 452.734 1557.38 452.734Z" fill="white"/>
<path d="M1422.89 542.631C1449.58 542.631 1471.22 523.362 1471.22 499.591C1471.22 475.821 1449.58 456.551 1422.89 456.551C1396.2 456.551 1374.56 475.821 1374.56 499.591C1374.56 523.362 1396.2 542.631 1422.89 542.631Z" fill="#FFE5C0"/>
<path d="M1347.32 535.677C1367.33 535.677 1383.55 518.59 1383.55 497.512C1383.55 476.433 1367.33 459.346 1347.32 459.346C1327.3 459.346 1311.08 476.433 1311.08 497.512C1311.08 518.59 1327.3 535.677 1347.32 535.677Z" fill="#FFE5C0"/>
<path d="M1377.4 516.142C1348.07 517.276 1329.78 466.527 1346.71 459.801C1363.64 453.075 1408.19 455.229 1410.42 470.079C1412.65 484.93 1401.66 515.198 1377.4 516.142Z" fill="#DBAB7A"/>
<path d="M1376.83 501.632C1347.51 502.765 1329.67 464.448 1346.67 459.158C1363.68 453.906 1408.19 455.115 1410.27 466.376C1412.35 477.636 1401.09 500.687 1376.83 501.632Z" fill="#592832"/>
<path d="M1468.8 501.595C1466.05 524.57 1446.51 542.405 1422.78 542.405C1397.16 542.405 1376.41 521.66 1376.41 496.04" stroke="#592832" stroke-width="20.4053" stroke-linecap="round" stroke-linejoin="round"/>
<path d="M1379.66 516.066C1373.47 528.271 1360.28 536.055 1345.84 534.695C1326.99 532.919 1313.16 516.217 1314.93 497.361" stroke="#592832" stroke-width="20.4053" stroke-linecap="round" stroke-linejoin="round"/>
<path d="M1345.84 534.696C1345.84 534.696 1346.33 536.245 1347.2 538.853C1351.25 551.02 1363.23 585.898 1368.4 587.977C1374.68 590.509 1413.26 592.171 1417.45 587.977C1421.65 583.782 1427.58 542.14 1427.58 542.14C1427.58 542.14 1399.77 547.506 1380.42 518.107C1380.42 518.107 1361.9 540.44 1345.88 534.696H1345.84Z" fill="white"/>
<path d="M1427.58 542.14C1427.58 542.14 1399.76 547.506 1380.42 518.107C1380.42 518.107 1361.9 540.44 1345.88 534.696C1345.88 534.696 1346.37 536.245 1347.24 538.853C1348.68 543.123 1351.06 550.189 1353.78 557.633C1362.81 556.689 1374.37 553.703 1382.27 545.39C1390.92 558.805 1410.27 562.81 1424.21 562.924C1426.18 552.192 1427.61 542.14 1427.61 542.14H1427.58Z" fill="#C6AEA7"/>
<path d="M1345.84 534.696C1345.84 534.696 1346.33 536.245 1347.2 538.853C1351.25 551.02 1363.23 585.898 1368.4 587.977C1374.68 590.509 1413.26 592.171 1417.45 587.977C1421.65 583.782 1427.58 542.14 1427.58 542.14C1427.58 542.14 1399.77 547.506 1380.42 518.107C1380.42 518.107 1361.9 540.44 1345.88 534.696H1345.84Z" stroke="#592832" stroke-width="20.4053" stroke-linecap="round" stroke-linejoin="round"/>
<path d="M1389.15 586.124C1389.15 586.124 1380.45 544.18 1380.42 518.144" stroke="#592832" stroke-width="8.69115" stroke-linecap="round" stroke-linejoin="round"/>
<path d="M1622.71 764.82C1626.42 777.555 1628.08 811.715 1601.33 835.181C1574.57 858.647 1574.99 865.638 1556.89 911.285C1538.79 956.933 1473.38 960.636 1456.11 903.879C1437.18 817.496 1495.18 796.486 1515.77 748.383C1556.43 752.691 1592.07 758.208 1622.75 764.82H1622.71Z" fill="#EAAC71"/>
<path d="M1617.23 770.112C1616.67 787.229 1602.99 806.199 1584.89 816.061C1566.79 825.924 1549.78 845.12 1543.93 867.868C1539.47 885.099 1533.46 932.712 1509.61 945.937C1529.23 945.068 1548.38 932.863 1556.92 911.286C1575.02 865.639 1574.61 858.61 1601.36 835.182C1618.78 819.878 1624.15 800.039 1624.75 784.546C1622.52 779.823 1620.03 774.986 1617.27 770.074L1617.23 770.112Z" fill="#D6823C"/>
<path d="M1482.49 906.448C1467.03 835.86 1502.93 808.918 1527.79 775.211C1535.5 764.744 1528.96 749.78 1516.04 748.42H1515.78C1495.22 796.524 1437.22 817.496 1456.11 903.916C1466.09 936.716 1492.12 949.299 1515.85 945.293C1501.42 939.739 1488.8 927.155 1482.49 906.486V906.448Z" fill="#F5D7BB"/>
<path d="M1488.91 840.282C1477.35 840.282 1466.16 841.982 1455.69 845.081C1451.54 860.952 1450.82 879.921 1456.11 903.916C1473.38 960.673 1538.79 956.97 1556.89 911.323C1563.27 895.149 1567.39 883.851 1571.17 874.933C1551.07 853.696 1521.67 840.282 1488.91 840.282Z" fill="#AE6745"/>
<path d="M1559.61 904.407C1560.06 903.274 1560.48 902.14 1560.89 901.044C1561.08 900.515 1561.31 899.948 1561.5 899.457C1561.61 899.155 1561.73 898.852 1561.84 898.55C1565.58 888.839 1568.45 881.243 1571.13 874.895C1564.37 867.753 1556.55 861.518 1547.9 856.341C1546.27 860.044 1544.87 863.899 1543.85 867.829C1539.39 885.06 1533.38 932.672 1509.54 945.898C1510.6 945.86 1511.69 945.747 1512.75 945.633C1512.94 945.633 1513.13 945.633 1513.32 945.596C1514.3 945.482 1515.25 945.331 1516.23 945.142C1516.49 945.104 1516.8 945.067 1517.06 944.991C1517.97 944.802 1518.84 944.613 1519.74 944.387C1520.08 944.311 1520.42 944.235 1520.76 944.122C1521.6 943.895 1522.43 943.631 1523.26 943.366C1523.64 943.253 1524.05 943.102 1524.43 942.988C1525.22 942.724 1525.98 942.422 1526.73 942.119C1527.15 941.93 1527.6 941.779 1528.02 941.59C1528.74 941.288 1529.46 940.948 1530.17 940.57C1530.63 940.343 1531.08 940.117 1531.53 939.89C1532.21 939.55 1532.86 939.172 1533.54 938.794C1533.99 938.529 1534.48 938.227 1534.93 937.963C1535.58 937.585 1536.18 937.169 1536.79 936.753C1537.28 936.413 1537.73 936.073 1538.18 935.733C1538.75 935.317 1539.32 934.864 1539.88 934.448C1540.38 934.07 1540.83 933.655 1541.32 933.277C1541.85 932.823 1542.38 932.37 1542.87 931.917C1543.36 931.463 1543.81 931.01 1544.27 930.556C1544.76 930.065 1545.21 929.612 1545.67 929.12C1546.16 928.629 1546.61 928.062 1547.06 927.533C1547.48 927.042 1547.93 926.551 1548.35 926.022C1548.8 925.455 1549.26 924.85 1549.71 924.246C1550.09 923.754 1550.46 923.225 1550.81 922.734C1551.26 922.054 1551.71 921.374 1552.13 920.656C1552.43 920.165 1552.77 919.673 1553.07 919.144C1553.53 918.351 1553.98 917.482 1554.39 916.65C1554.62 916.197 1554.89 915.781 1555.08 915.328C1555.72 914.005 1556.32 912.683 1556.85 911.285C1557.57 909.471 1558.25 907.77 1558.89 906.07C1559.12 905.503 1559.31 904.974 1559.53 904.407H1559.61Z" fill="#924921"/>
<path d="M1458.75 911.135C1459.24 912.306 1459.74 913.477 1460.3 914.611C1460.6 915.253 1460.91 915.82 1461.25 916.425C1461.78 917.445 1462.3 918.428 1462.87 919.372C1463.21 919.939 1463.55 920.544 1463.93 921.111C1464.5 922.055 1465.1 922.924 1465.74 923.831C1466.08 924.323 1466.46 924.852 1466.84 925.343C1467.52 926.25 1468.24 927.119 1468.99 927.988C1469.33 928.366 1469.64 928.744 1469.98 929.122C1470.96 930.217 1471.98 931.238 1473 932.22C1473.11 932.296 1473.19 932.409 1473.26 932.522C1474.47 933.618 1475.68 934.676 1476.93 935.659C1477 935.697 1477.08 935.772 1477.16 935.81C1478.33 936.679 1479.5 937.51 1480.71 938.304C1480.93 938.455 1481.2 938.606 1481.46 938.757C1482.52 939.4 1483.58 940.004 1484.68 940.571C1484.94 940.722 1485.24 940.836 1485.51 940.987C1486.6 941.516 1487.74 942.007 1488.83 942.461C1489.06 942.574 1489.32 942.649 1489.55 942.763C1490.8 943.254 1492.04 943.67 1493.33 944.048C1493.44 944.048 1493.56 944.123 1493.67 944.161C1500.92 946.239 1508.56 946.579 1515.93 945.37C1501.49 939.815 1488.87 927.232 1482.56 906.562C1476.48 878.826 1478.36 857.854 1484.34 840.547C1474.43 840.925 1464.84 842.475 1455.77 845.157C1455.28 847.047 1454.82 848.974 1454.45 850.977C1454.37 851.355 1454.29 851.77 1454.22 852.148C1453.92 853.773 1453.65 855.398 1453.42 857.061C1453.35 857.665 1453.27 858.232 1453.2 858.837C1453.01 860.348 1452.86 861.897 1452.74 863.447C1452.71 864.165 1452.63 864.883 1452.59 865.638C1452.52 867.112 1452.48 868.624 1452.44 870.173C1452.44 871.004 1452.44 871.836 1452.44 872.667C1452.44 874.178 1452.48 875.728 1452.56 877.277C1452.59 878.184 1452.63 879.053 1452.67 879.998C1452.78 881.585 1452.93 883.21 1453.08 884.834C1453.16 885.779 1453.24 886.686 1453.35 887.631C1453.58 889.407 1453.84 891.221 1454.11 893.072C1454.22 893.941 1454.33 894.773 1454.48 895.642C1454.94 898.362 1455.47 901.159 1456.11 903.993C1456.71 905.92 1457.35 907.772 1458.03 909.548C1458.26 910.114 1458.53 910.681 1458.75 911.248V911.135Z" fill="#C18B71"/>
<path d="M1515.78 748.383C1495.22 796.524 1437.22 817.496 1456.11 903.879C1473.38 960.636 1538.79 956.933 1556.89 911.285C1574.99 865.638 1574.57 858.609 1601.33 835.181C1628.08 811.715 1626.42 777.593 1622.71 764.82" stroke="#592832" stroke-width="20.4053" stroke-linecap="round" stroke-linejoin="round"/>
<path d="M1519.06 896.396C1519.06 896.396 1505.5 911.7 1508.33 938.567" stroke="#592832" stroke-width="17.0422" stroke-linecap="round" stroke-linejoin="round"/>
<path d="M1484.34 886.723C1484.34 886.723 1470.77 902.027 1473.6 928.894" stroke="#592832" stroke-width="17.0422" stroke-linecap="round" stroke-linejoin="round"/>
<path d="M1338.29 679.269C1302.88 689.472 1273.33 759.568 1273.86 806.727C1274.43 853.886 1310.06 920.807 1342.97 939.475C1375.89 958.142 1415.94 934.524 1414.84 897.228C1413.9 864.58 1397.39 813.491 1342.93 777.328C1348.04 746.758 1345.69 713.807 1338.29 679.269Z" fill="#EAAC71"/>
<path d="M1365.76 939.475C1332.85 920.808 1297.17 853.886 1296.64 806.727C1296.19 768.94 1315.08 716.528 1340.78 691.853C1340.02 687.659 1339.19 683.464 1338.29 679.232C1302.88 689.435 1273.33 759.531 1273.86 806.69C1274.43 853.848 1310.06 920.77 1342.97 939.437C1354.69 946.088 1367.27 947.335 1378.61 944.577C1374.26 943.518 1369.95 941.818 1365.72 939.437L1365.76 939.475Z" fill="#F5D7BB"/>
<path d="M1302.01 894.054C1314.18 914.497 1328.8 931.464 1342.97 939.475C1375.89 958.142 1415.94 934.525 1414.85 897.228C1414.39 882.151 1410.61 863.106 1401.32 843.419C1395.2 842.058 1388.89 841.34 1382.35 841.34C1346.37 841.34 1315.5 863.03 1302.01 894.054Z" fill="#AE6745"/>
<path d="M1348 941.969C1349.13 942.46 1350.26 942.913 1351.43 943.291C1351.62 943.367 1351.85 943.442 1352.04 943.518C1353.4 943.971 1354.8 944.349 1356.16 944.689C1356.38 944.727 1356.61 944.803 1356.84 944.84C1358.09 945.105 1359.29 945.332 1360.54 945.521C1360.73 945.521 1360.92 945.596 1361.11 945.596C1364.02 945.974 1366.89 946.087 1369.72 945.936C1369.8 945.936 1369.91 945.936 1369.99 945.936C1372.9 945.747 1375.77 945.332 1378.57 944.651C1374.22 943.593 1369.91 941.893 1365.68 939.512C1347.09 928.97 1327.67 903.085 1314.14 874.026C1309.23 880.11 1305.11 886.836 1301.97 894.092C1304.88 899.004 1307.98 903.727 1311.12 908.149C1311.3 908.413 1311.46 908.64 1311.64 908.904C1312.29 909.773 1312.93 910.643 1313.57 911.512C1313.84 911.852 1314.1 912.192 1314.37 912.532C1314.97 913.325 1315.57 914.119 1316.18 914.875C1316.48 915.253 1316.78 915.631 1317.12 916.046C1317.73 916.764 1318.29 917.52 1318.9 918.2C1319.24 918.616 1319.58 918.994 1319.92 919.372C1320.49 920.052 1321.09 920.732 1321.66 921.374C1322 921.752 1322.38 922.13 1322.72 922.508C1323.66 923.566 1324.64 924.586 1325.59 925.569C1326.12 926.098 1326.61 926.627 1327.14 927.156C1327.59 927.571 1328.01 927.987 1328.46 928.403C1328.99 928.894 1329.52 929.423 1330.05 929.914C1330.46 930.292 1330.92 930.67 1331.33 931.048C1331.9 931.539 1332.43 931.993 1332.99 932.446C1333.41 932.786 1333.83 933.126 1334.24 933.466C1334.81 933.92 1335.41 934.373 1335.98 934.827C1336.36 935.129 1336.74 935.431 1337.15 935.696C1337.79 936.149 1338.44 936.603 1339.08 937.056C1339.38 937.283 1339.72 937.51 1340.02 937.699C1341.01 938.341 1341.95 938.908 1342.93 939.475C1344.26 940.23 1345.58 940.873 1346.9 941.477C1347.24 941.628 1347.62 941.78 1347.96 941.931L1348 941.969Z" fill="#C18B71"/>
<path d="M1338.29 679.269C1302.88 689.472 1273.33 759.568 1273.86 806.727C1274.43 853.886 1310.06 920.807 1342.97 939.475C1375.89 958.142 1415.94 934.524 1414.84 897.228C1413.9 864.58 1397.39 813.491 1342.93 777.328C1348.04 746.758 1345.69 713.807 1338.29 679.269V679.269Z" stroke="#592832" stroke-width="20.4053" stroke-linecap="round" stroke-linejoin="round"/>
<path d="M1317.2 762.855C1326.61 767.314 1335.15 772.189 1342.93 777.328" stroke="#592832" stroke-width="20.4053" stroke-linecap="round" stroke-linejoin="round"/>
<path d="M1347.47 902.443C1347.47 902.443 1363.57 915.064 1365.53 942.007" stroke="#592832" stroke-width="17.0422" stroke-linecap="round" stroke-linejoin="round"/>
<path d="M1379.93 886.724C1379.93 886.724 1396.03 899.345 1397.99 926.288" stroke="#592832" stroke-width="17.0422" stroke-linecap="round" stroke-linejoin="round"/>
</svg>
