<svg width="110" height="93" viewBox="0 0 110 93" fill="none" xmlns="http://www.w3.org/2000/svg">
<path d="M80.5727 81.4706C90.45 80.8268 91.726 71.7847 87.8632 61.0317C84.0034 50.2787 86.9671 42.3096 95.2175 41.3961C103.468 40.4826 111.202 50.4353 108.366 63.1168C105.53 75.8012 93.55 87.4764 77.522 88.0158L80.5756 81.4706H80.5727Z" fill="#EAAC71"/>
<path d="M80.5727 81.4706C90.45 80.8268 91.726 71.7847 87.8632 61.0317C84.0034 50.2787 86.9671 42.3096 95.2175 41.3961C103.468 40.4826 111.202 50.4353 108.366 63.1168C105.53 75.8012 93.55 87.4764 77.522 88.0158L80.5756 81.4706H80.5727Z" fill="#AE6745"/>
<path d="M83.0009 81.4711C92.8782 80.8273 93.8004 71.066 89.9405 60.313C86.1039 49.6238 89.3634 42.4116 97.4978 41.4169C96.7467 41.3212 95.9869 41.3125 95.2184 41.3966C86.9681 42.3101 84.0043 50.2791 87.8642 61.0322C91.724 71.7852 90.448 80.8273 80.5737 81.4711L77.52 88.0163C78.3697 87.9873 79.2049 87.9264 80.0314 87.8365L83.0009 81.4711Z" fill="#C18B71"/>
<path d="M102.775 60.7188C102.598 60.5332 102.311 60.5303 102.128 60.7043C101.566 61.2494 100.986 61.8265 100.403 62.4355C99.5183 60.8435 98.4888 59.205 97.4216 57.6216C98.4279 56.5196 99.4864 55.4118 100.554 54.3708C100.974 55.1218 101.366 55.8787 101.716 56.6269C101.795 56.7951 101.96 56.8908 102.131 56.8908C102.195 56.8908 102.262 56.8763 102.325 56.8473C102.552 56.7371 102.65 56.4674 102.543 56.2383C102.149 55.4002 101.705 54.5564 101.235 53.7154C101.635 53.3384 102.033 52.973 102.433 52.6221C102.621 52.4539 102.639 52.1639 102.473 51.9783C102.305 51.7898 102.015 51.7724 101.83 51.9377C101.479 52.2509 101.122 52.5728 100.768 52.9063C99.7213 51.1228 98.5584 49.3857 97.4303 47.8082C97.8218 47.4225 98.2249 47.0426 98.6309 46.6685C98.8165 46.5003 98.8281 46.2103 98.6599 46.0218C98.4859 45.8333 98.1988 45.8246 98.0132 45.9957C97.6333 46.3466 97.2563 46.7033 96.8851 47.06C96.1775 46.0972 95.4932 45.204 94.8697 44.4152C94.7131 44.218 94.4289 44.1832 94.2288 44.3427C94.0316 44.4993 93.9997 44.7835 94.1563 44.9836C94.7972 45.7956 95.5019 46.7149 96.2326 47.7125C95.0147 48.9304 93.8721 50.1745 92.8542 51.3403C91.0707 49.0435 89.7657 47.5095 89.7309 47.4689C89.5685 47.2775 89.2786 47.2543 89.0901 47.4196C88.8987 47.5849 88.8755 47.8691 89.0379 48.0605C89.0727 48.1011 90.4211 49.6844 92.2452 52.045C91.0156 53.4892 90.0035 54.768 89.3105 55.6728C88.716 54.942 88.3506 54.5186 88.3332 54.5012C88.1679 54.3099 87.8808 54.2867 87.6894 54.452C87.5009 54.6173 87.4777 54.9043 87.643 55.0928C87.6604 55.1131 88.0751 55.5974 88.745 56.421C88.4521 56.8125 88.2897 57.0416 88.2839 57.0532C88.136 57.2591 88.1853 57.5433 88.3912 57.6883C88.4724 57.7463 88.5623 57.7724 88.6551 57.7724C88.7972 57.7724 88.9393 57.7057 89.0263 57.581C89.0321 57.5723 89.1394 57.4215 89.3337 57.1576C90.2529 58.3147 91.4593 59.8807 92.7295 61.667C91.6072 63.0329 90.6879 64.2132 90.0644 65.0223C89.8527 64.7294 89.6439 64.4481 89.441 64.1784C89.2902 63.9812 89.0031 63.9406 88.8001 64.0943C88.6 64.248 88.5623 64.5351 88.716 64.7352C88.9654 65.06 89.2235 65.4138 89.4874 65.7821C89.2989 66.0344 89.1945 66.1765 89.1858 66.1881C89.035 66.3882 89.0785 66.6753 89.2844 66.8261C89.3655 66.8841 89.4584 66.916 89.5512 66.916C89.6932 66.916 89.8324 66.8493 89.9223 66.7275C89.9281 66.7217 89.9658 66.6637 90.0383 66.5709C90.9576 67.9193 91.9204 69.4563 92.8281 71.031C91.8856 72.1736 91.0446 73.2147 90.366 74.0672C90.2935 73.9744 90.2442 73.9165 90.2326 73.902C90.0731 73.7077 89.7832 73.6816 89.5918 73.8411C89.3975 74.0005 89.3685 74.2877 89.528 74.4819C89.5338 74.4877 89.6295 74.6037 89.7802 74.8038C89.0147 75.7695 88.5594 76.3611 88.542 76.3872C88.3883 76.5873 88.426 76.8744 88.6232 77.0281C88.7073 77.0919 88.8059 77.1238 88.9016 77.1238C89.0379 77.1238 89.1742 77.06 89.2641 76.944C89.2786 76.9208 89.673 76.4133 90.3341 75.5752C90.888 76.3901 91.5434 77.5124 91.6739 78.3998C91.7087 78.626 91.9001 78.7913 92.1234 78.7913C92.1466 78.7913 92.1669 78.7913 92.1901 78.7855C92.4395 78.7507 92.6106 78.5187 92.5758 78.2693C92.4076 77.118 91.555 75.7289 90.9257 74.8328C91.5782 74.0122 92.3931 73.003 93.3095 71.8865C94.0896 73.2785 94.8175 74.6704 95.4236 75.9609C95.5019 76.1291 95.6672 76.2248 95.8354 76.2248C95.9021 76.2248 95.9659 76.2103 96.0326 76.1813C96.2587 76.0711 96.3573 75.8014 96.25 75.5723C95.5889 74.1687 94.7885 72.6434 93.9301 71.1325C94.7943 70.0885 95.7338 68.9778 96.7111 67.8526C97.2505 68.8038 97.7522 69.7579 98.1959 70.7004C98.2742 70.8686 98.4366 70.9643 98.6106 70.9643C98.6744 70.9643 98.7411 70.9498 98.802 70.9208C99.0311 70.8106 99.1297 70.5409 99.0195 70.3118C98.5236 69.2591 97.9552 68.189 97.3462 67.1277C98.28 66.0634 99.2399 64.9962 100.191 63.9841C100.38 64.3495 100.559 64.712 100.725 65.0687C100.803 65.234 100.968 65.3326 101.136 65.3326C101.203 65.3326 101.267 65.3181 101.334 65.2891C101.56 65.1818 101.658 64.9092 101.551 64.683C101.334 64.2248 101.102 63.7579 100.852 63.2852C101.502 62.6095 102.14 61.9657 102.758 61.3683C102.937 61.1915 102.943 60.9015 102.769 60.7246L102.775 60.7188ZM96.772 48.4606C97.903 50.0411 99.0572 51.7782 100.09 53.553C99.0021 54.6057 97.9262 55.725 96.8967 56.8473C95.7107 55.1218 94.5014 53.4863 93.4226 52.0769C94.4289 50.9169 95.5599 49.6786 96.772 48.4577V48.4606ZM89.902 56.4036C90.5632 55.5336 91.5724 54.2519 92.8165 52.7845C93.8924 54.1968 95.0959 55.8294 96.2674 57.5433C95.2148 58.712 94.223 59.8691 93.3327 60.9392C92.0364 59.1238 90.8126 57.5433 89.902 56.4036ZM93.4516 70.2828C92.5236 68.6936 91.5492 67.1451 90.6212 65.8024C91.2041 65.0368 92.1292 63.8478 93.2776 62.4413C94.2752 63.8797 95.296 65.4341 96.2297 67.0146C95.2583 68.131 94.3158 69.2388 93.4487 70.2828H93.4516ZM96.8619 66.2925C95.9136 64.7004 94.8813 63.1431 93.8779 61.7105C94.7595 60.6492 95.7426 59.4921 96.7923 58.3234C97.8566 59.9097 98.8774 61.5452 99.7416 63.1286C98.7817 64.1465 97.8102 65.2166 96.8619 66.2925Z" fill="#924921"/>
<path d="M91.3042 64.9152C91.2172 64.544 91.1273 64.167 91.0258 63.79C90.6575 64.2569 90.3356 64.6774 90.066 65.0225C89.8543 64.7296 89.6455 64.4483 89.4425 64.1786C89.2975 63.9901 89.0278 63.9466 88.8306 64.0771C88.9437 64.4918 89.0481 64.9007 89.1438 65.3038C89.2569 65.4633 89.3729 65.6199 89.4889 65.7852C89.4135 65.8867 89.3526 65.965 89.3062 66.0317C89.37 66.3275 89.428 66.6204 89.4773 66.9133C89.5034 66.9191 89.5295 66.9191 89.5527 66.9191C89.6948 66.9191 89.834 66.8524 89.9239 66.7306C89.9297 66.7248 89.9674 66.6668 90.0399 66.574C90.6894 67.5252 91.3564 68.5721 92.0147 69.6596C91.977 68.9897 91.9074 68.3024 91.8088 67.5977C91.4086 66.9742 91.0113 66.3681 90.6198 65.8055C90.8112 65.5532 91.0432 65.2545 91.3042 64.9152Z" fill="#A66A49"/>
<path d="M88.9649 47.9413C89.0287 47.7441 89.1011 47.5498 89.1765 47.3613C89.1446 47.3758 89.1127 47.3961 89.0866 47.4193C88.933 47.5527 88.8895 47.7615 88.9649 47.9413Z" fill="#A66A49"/>
<path d="M92.0228 72.0166C91.4051 72.7735 90.8455 73.4666 90.3699 74.0669C90.2974 73.9741 90.2481 73.9161 90.2365 73.9016C90.0944 73.7276 89.8479 73.6899 89.6623 73.7972C89.6188 74.0234 89.5753 74.2467 89.5231 74.4671C89.5231 74.4729 89.5289 74.4787 89.5318 74.4816C89.5347 74.4845 89.6333 74.6034 89.7841 74.8035C89.5724 75.0731 89.3839 75.3109 89.2215 75.5168C89.0446 76.033 88.8329 76.5231 88.5835 76.9842C88.598 76.9987 88.6096 77.0132 88.627 77.0277C88.7111 77.0915 88.8097 77.1234 88.9054 77.1234C89.0417 77.1234 89.178 77.0596 89.2679 76.9436C89.2824 76.9204 89.6768 76.4129 90.338 75.5748C90.541 75.8735 90.7585 76.2128 90.9557 76.5637C91.1152 76.2244 91.2573 75.8706 91.379 75.4994C91.2254 75.2558 91.0746 75.0296 90.9296 74.8266C91.2022 74.4845 91.5037 74.1075 91.8256 73.7073C91.9213 73.1621 91.9851 72.5995 92.0228 72.0166Z" fill="#A66A49"/>
<path d="M88.7445 56.4204C88.4516 56.8118 88.2892 57.0409 88.2834 57.0525C88.1355 57.2584 88.1848 57.5426 88.3907 57.6876C88.4719 57.7456 88.5618 57.7717 88.6546 57.7717C88.7967 57.7717 88.9388 57.705 89.0258 57.5803C89.0258 57.5745 89.0432 57.5542 89.0722 57.5136C88.8257 56.545 88.6401 55.6113 88.5183 54.7152C88.4052 54.5818 88.3414 54.5064 88.3327 54.4977C88.1674 54.3063 87.8803 54.2831 87.6889 54.4484C87.5004 54.6137 87.4772 54.9008 87.6425 55.0893C87.6599 55.1096 88.0746 55.5939 88.7445 56.4175V56.4204Z" fill="#A66A49"/>
<path d="M95.2204 41.3961C94.6955 41.4541 94.2547 41.6223 93.7733 41.7354C101.322 41.8021 108.018 50.9892 105.399 62.6934C102.821 74.2294 92.3755 84.7823 78.2528 86.4556L77.522 88.0187C93.5529 87.4764 105.533 75.8041 108.369 63.1197C111.205 50.4353 103.471 40.4826 95.2204 41.3961Z" fill="#924921"/>
<path d="M95.2209 41.3961C94.696 41.4541 94.2929 41.5556 93.8115 41.6687C101.343 41.2714 108.018 50.9892 105.403 62.6934C102.825 74.2294 92.379 84.7823 78.2562 86.4556L77.5254 88.0187C93.5563 87.4764 105.536 75.8041 108.372 63.1197C111.208 50.4353 103.474 40.4826 95.2238 41.3961H95.2209Z" stroke="#592832" stroke-width="1.56598" stroke-linecap="round" stroke-linejoin="round"/>
<path d="M80.5727 81.4706C90.45 80.8268 91.726 71.7847 87.8632 61.0317C84.0034 50.2787 86.9671 42.3096 95.2175 41.3961C103.468 40.4826 111.202 50.4353 108.366 63.1168C105.53 75.8012 93.55 87.4764 77.522 88.0158L80.5756 81.4706H80.5727Z" stroke="#592832" stroke-width="1.56598" stroke-linecap="round" stroke-linejoin="round"/>
<path d="M75.9559 49.9229C71.3566 52.3646 65.374 53.8378 58.8288 53.8378C54.6151 53.8378 50.6335 53.2259 47.1043 52.1384C47.7364 54.9804 48.2439 59.6841 46.3271 64.237C43.2966 71.4347 38.3696 87.1583 60.5339 87.1583C74.4885 87.1583 85.1575 73.5836 81.7181 63.1002C80.0738 58.8953 76.0284 55.224 75.9559 49.9229Z" fill="#EAAC71"/>
<path d="M48.0612 64.2373C49.8679 59.9483 49.5199 55.5258 48.9457 52.652C48.3193 52.4954 47.7045 52.3243 47.1043 52.1387C47.7364 54.9806 48.2439 59.6844 46.3271 64.2373C43.2966 71.435 38.3696 87.1585 60.5339 87.1585C60.7688 87.1585 61.0008 87.1527 61.2328 87.1469C40.2604 86.6597 45.0772 71.3219 48.0612 64.2373Z" fill="#F5D7BB"/>
<path d="M73.0907 83.1828C69.0975 79.8942 66.099 74.567 65.4813 68.0595C64.4576 57.2717 50.3435 55.7724 47.0608 62.0856C46.8694 62.8019 46.6287 63.5211 46.3271 64.2374C43.2966 71.4351 38.3696 87.1586 60.5339 87.1586C65.229 87.1586 69.5499 85.6217 73.0879 83.1828H73.0907Z" fill="#FFE5C0"/>
<path d="M65.6265 86.546C65.9426 86.4706 66.2529 86.3836 66.5632 86.2937C66.6502 86.2676 66.7372 86.2415 66.8242 86.2154C67.0475 86.1487 67.2679 86.0762 67.4854 86.0037C67.584 85.9689 67.6855 85.9341 67.7841 85.8993C67.9987 85.8239 68.2104 85.7427 68.422 85.6615C68.509 85.6267 68.596 85.5948 68.683 85.56C69.2688 85.3222 69.8401 85.0612 70.3998 84.7799C70.4839 84.7364 70.568 84.6929 70.6492 84.6494C70.8464 84.5479 71.0407 84.4435 71.2321 84.3362C71.3249 84.284 71.4177 84.2318 71.5105 84.1767C71.699 84.0665 71.8875 83.9563 72.0702 83.8432C72.1514 83.794 72.2355 83.7446 72.3138 83.6924C72.5748 83.5271 72.8329 83.359 73.0852 83.185C72.8561 82.9965 72.6299 82.7993 72.4095 82.5963C72.3457 82.5383 72.2819 82.4745 72.2181 82.4136C72.0615 82.2657 71.902 82.1178 71.7483 81.9641C71.6787 81.8945 71.6091 81.822 71.5395 81.7495C71.3945 81.5987 71.2495 81.445 71.1074 81.2884C71.0378 81.213 70.9711 81.1347 70.9044 81.0593C70.7652 80.8998 70.626 80.7403 70.4897 80.575C68.3408 77.9708 66.6995 74.6591 65.8991 70.8398C64.6753 72.6349 62.683 76.5441 63.8314 81.8133C63.9967 82.5702 63.5037 83.3184 62.7468 83.4895C56.0653 85.009 49.1286 83.7881 44.3147 79.3425L44.2451 79.3309C45.727 83.7244 50.1697 87.1608 60.5284 87.1608C62.2857 87.1608 63.988 86.9462 65.6178 86.5489L65.6265 86.546Z" fill="#DBAB7A"/>
<path d="M48.0612 64.2371C48.6963 62.7291 49.0617 61.2066 49.2473 59.7393C48.3222 60.3337 47.5625 61.1167 47.0608 62.0853C47.0173 62.2535 46.968 62.4188 46.9187 62.587C46.9071 62.6276 46.8926 62.6711 46.881 62.7117C46.8433 62.8335 46.8027 62.9582 46.7621 63.08C46.7447 63.1322 46.7273 63.1873 46.707 63.2395C46.6664 63.3584 46.6229 63.4744 46.5794 63.5933C46.562 63.6426 46.5417 63.6919 46.5243 63.7412C46.4605 63.9065 46.3967 64.0689 46.3271 64.2342C43.2966 71.4319 38.3696 87.1554 60.5339 87.1554C60.7543 87.1554 60.9718 87.1496 61.1922 87.1409C40.2691 86.6363 45.0801 71.313 48.0612 64.2342V64.2371Z" fill="#FFF7EC"/>
<path d="M81.7189 63.1003C80.3762 59.6667 77.4356 56.5928 76.3598 52.6952C76.3047 52.4951 76.2554 52.2921 76.2119 52.0863C76.2032 52.0515 76.1974 52.0196 76.1887 51.9848C76.1452 51.776 76.1046 51.5643 76.0727 51.3497C76.0727 51.3468 76.0727 51.341 76.0727 51.3381C76.0437 51.138 76.0205 50.935 76.0031 50.7291C75.9973 50.6769 75.9944 50.6247 75.9915 50.5725C75.9741 50.3608 75.9625 50.1462 75.9596 49.9258C71.3602 52.3675 65.3776 53.8407 58.8324 53.8407C54.6188 53.8407 50.6372 53.2288 47.1079 52.1414C47.1369 52.2747 47.1659 52.4139 47.1949 52.5531C47.2036 52.5937 47.2123 52.6343 47.221 52.6778C47.2442 52.7909 47.2645 52.904 47.2877 53.02C47.2935 53.0577 47.3022 53.0954 47.308 53.136C47.3341 53.2839 47.3602 53.4376 47.3863 53.5913C47.3921 53.629 47.3979 53.6696 47.4037 53.7073C47.4211 53.8117 47.4356 53.919 47.4501 54.0292C51.713 56.152 58.5163 57.0365 66.0794 56.1607C66.9291 56.0128 67.7614 55.8417 68.5734 55.6445C70.5453 55.166 72.5782 56.1549 73.396 58.0167C74.73 61.0587 76.9542 63.6687 78.0707 66.5251C79.8078 71.8175 77.946 77.8959 73.8832 82.6199C80.3675 77.7422 83.9199 69.7934 81.7247 63.1032L81.7189 63.1003Z" fill="#D6823C"/>
<path d="M75.9559 49.9229C71.3566 52.3646 65.374 53.8378 58.8288 53.8378C54.6151 53.8378 50.6335 53.2259 47.1043 52.1384C47.7364 54.9804 48.2439 59.6841 46.3271 64.237C43.2966 71.4347 38.3696 87.1583 60.5339 87.1583C74.4885 87.1583 85.1575 73.5836 81.7181 63.1002C80.0738 58.8953 76.0284 55.224 75.9559 49.9229V49.9229Z" stroke="#592832" stroke-width="1.56598" stroke-linecap="round" stroke-linejoin="round"/>
<path d="M80.0779 59.8554C80.7826 60.7602 83.7812 64.5592 84.9267 66.4673C87.9571 71.5191 88.5458 78.7602 84.5062 84.4007C80.4636 90.0411 72.2974 90.2093 68.6347 85.578C63.2118 78.7254 65.2679 72.5514 66.7497 69.7443C73.2311 68.8627 76.5081 64.1561 80.0779 59.8525V59.8554Z" fill="#EAAC71"/>
<path d="M68.7657 82.9933C65.8164 77.3007 66.7531 72.7304 68.2437 69.726C68.5569 69.0967 68.0581 68.3775 67.3563 68.4123H67.3389C65.625 71.0832 63.0586 77.0658 67.8841 84.3476C70.2795 87.9609 75.3051 89.1963 79.5912 87.5144C75.2819 88.4829 70.6884 86.7053 68.7657 82.9933Z" fill="#F5D7BB"/>
<path d="M84.9269 66.4674C83.7814 64.5592 80.7829 60.7603 80.0782 59.8555C78.9704 61.1894 77.8916 62.564 76.7374 63.8487C77.1492 64.4345 77.5175 64.9797 77.7814 65.4205C80.8119 70.4722 81.4006 77.7134 77.3609 83.3538C75.7138 85.6535 73.3764 87.0454 70.9404 87.5703C75.0468 89.9773 81.1744 89.0493 84.5064 84.4007C88.549 78.7603 87.9574 71.5191 84.9269 66.4674Z" fill="#D6823C"/>
<path d="M67.7528 68.1519C67.7528 68.1519 61.2395 76.2369 68.6344 85.5806C72.2999 90.2118 80.4662 90.0436 84.5058 84.4032C88.5484 78.7628 87.9568 71.5216 84.9263 66.4699C81.8959 61.4182 80.3705 60.8121 78.8944 58.0078" stroke="#592832" stroke-width="1.56598" stroke-linecap="round" stroke-linejoin="round"/>
<path d="M81.6432 92.146H61.6045C61.6045 92.146 62.1062 86.9261 68.6311 85.5776C75.1589 84.2291 81.9912 88.1035 82.3624 89.7884C82.7336 91.4732 81.6403 92.146 81.6403 92.146H81.6432Z" fill="#AE6745"/>
<path d="M81.6432 92.146H61.6045C61.6045 92.146 62.1062 86.9261 68.6311 85.5776C75.1589 84.2291 81.9912 88.1035 82.3624 89.7884C82.7336 91.4732 81.6403 92.146 81.6403 92.146H81.6432Z" fill="#AE6745"/>
<path d="M69.5277 86.6041C74.736 85.5282 80.1328 87.7757 82.2933 89.5853C81.4668 87.8163 74.9129 84.2842 68.6345 85.5804C62.1067 86.9289 61.6079 92.1488 61.6079 92.1488H62.7389C63.2522 90.5568 64.8269 87.5785 69.5277 86.607V86.6041Z" fill="#C18B71"/>
<path d="M82.3662 89.7886C82.2415 89.226 81.3947 88.4198 80.084 87.6455C79.8665 87.6687 79.649 87.6948 79.4315 87.7238C76.952 88.0689 75.3454 88.7881 74.3014 89.5479C73.3822 90.2178 72.2773 90.5774 71.1405 90.5774H62.0404C61.6692 91.4851 61.6025 92.1433 61.6025 92.1433H81.6412C81.6412 92.1433 82.7345 91.4706 82.3633 89.7857L82.3662 89.7886Z" fill="#924921"/>
<path d="M81.6432 92.146H61.6045C61.6045 92.146 62.1062 86.9261 68.6311 85.5776C75.1589 84.2291 81.9912 88.1035 82.3624 89.7884C82.7336 91.4732 81.6403 92.146 81.6403 92.146H81.6432Z" stroke="#592832" stroke-width="1.56598" stroke-linecap="round" stroke-linejoin="round"/>
<path d="M68.8262 92.1464C68.8262 92.1464 69.7484 89.2522 72.0248 88.5186" stroke="#592832" stroke-width="1.56598" stroke-linecap="round" stroke-linejoin="round"/>
<path d="M64.4019 92.1464C64.4019 92.1464 65.324 89.2522 67.6005 88.5186" stroke="#592832" stroke-width="1.56598" stroke-linecap="round" stroke-linejoin="round"/>
<path d="M54.3647 86.6533C54.2487 86.633 54.1327 86.6098 54.0196 86.5866C53.8862 86.5605 53.7528 86.5315 53.6194 86.5025C53.5092 86.4793 53.3961 86.4532 53.2888 86.43C53.1612 86.401 53.0336 86.3691 52.9089 86.3372C52.8016 86.3111 52.6943 86.285 52.5899 86.256C52.4681 86.2241 52.3463 86.1893 52.2274 86.1545C52.1259 86.1255 52.0215 86.0965 51.9229 86.0646C51.804 86.0298 51.6909 85.9921 51.5749 85.9544C51.4792 85.9225 51.3806 85.8906 51.2849 85.8587C51.1718 85.8181 51.0616 85.7775 50.9514 85.7369C50.8615 85.7021 50.7687 85.6702 50.6788 85.6354C50.5686 85.5919 50.4613 85.5455 50.354 85.502C50.2699 85.4672 50.1858 85.4324 50.1046 85.3976C49.9886 85.3483 49.8785 85.2932 49.7654 85.241C49.6958 85.2091 49.6262 85.1772 49.5566 85.1453C49.3826 85.0612 49.2144 84.9742 49.052 84.8843C48.9766 84.8437 48.9041 84.8002 48.8287 84.7567C48.7388 84.7045 48.6489 84.6552 48.5619 84.603C48.4836 84.5566 48.4082 84.5073 48.3328 84.458C48.2545 84.4087 48.1762 84.3594 48.1037 84.3101C48.0283 84.2579 47.9529 84.2057 47.8804 84.1535C47.8108 84.1042 47.7383 84.0549 47.6716 84.0056C47.5991 83.9505 47.5266 83.8954 47.457 83.8403C47.3932 83.791 47.3265 83.7388 47.2627 83.6866C47.1931 83.6286 47.1264 83.5706 47.0568 83.5126C46.9959 83.4604 46.9379 83.4111 46.8799 83.356C46.8132 83.2951 46.7494 83.2342 46.6856 83.1733C46.6305 83.1211 46.5754 83.0689 46.5232 83.0167C46.4594 82.9529 46.3985 82.8891 46.3376 82.8253C46.2883 82.7731 46.239 82.718 46.1897 82.6658C46.1317 82.5991 46.0708 82.5353 46.0157 82.4686C45.9693 82.4164 45.9258 82.3613 45.8823 82.3091C45.8272 82.2395 45.7721 82.1699 45.717 82.1003C45.6764 82.0481 45.6358 81.993 45.5981 81.9408C45.5459 81.8683 45.4937 81.7958 45.4415 81.7233C45.4067 81.6711 45.3719 81.6189 45.3371 81.5638C45.2878 81.4884 45.2356 81.413 45.1892 81.3347C45.1573 81.2854 45.1283 81.2332 45.0993 81.181C45.05 81.0998 45.0036 81.0215 44.9572 80.9374C44.9311 80.891 44.9079 80.8475 44.8847 80.8011C44.8383 80.7112 44.789 80.6243 44.7455 80.5344C44.731 80.5054 44.7194 80.4763 44.7049 80.4473C44.528 80.0791 44.3743 79.705 44.2438 79.3193C42.7417 74.8707 44.2728 69.442 45.7663 65.5967C39.5633 69.152 36.9765 83.0428 48.7214 86.6417C51.2588 87.3028 53.225 87.2129 54.7504 86.7113C54.6199 86.691 54.4894 86.6678 54.3618 86.6446L54.3647 86.6533Z" fill="#EAAC71"/>
<path d="M45.096 67.4614C45.3048 66.8379 45.5223 66.2435 45.7398 65.678C45.6557 65.6548 45.5687 65.6287 45.4846 65.6055C39.2816 69.1608 36.6948 83.0516 48.4396 86.6504C50.0897 87.0796 51.4991 87.1927 52.7026 87.0825C51.9486 87.0187 51.1337 86.8824 50.2492 86.6504C40.024 83.5156 40.6648 72.5799 45.096 67.4585V67.4614Z" fill="#F5D7BB"/>
<path d="M54.3647 86.6533C54.2487 86.633 54.1327 86.6098 54.0196 86.5866C53.8862 86.5605 53.7528 86.5315 53.6194 86.5025C53.5092 86.4793 53.3961 86.4532 53.2888 86.43C53.1612 86.401 53.0336 86.3691 52.9089 86.3372C52.8016 86.3111 52.6943 86.285 52.5899 86.256C52.4681 86.2241 52.3463 86.1893 52.2274 86.1545C52.1259 86.1255 52.0215 86.0965 51.9229 86.0646C51.804 86.0298 51.6909 85.9921 51.5749 85.9544C51.4792 85.9225 51.3806 85.8906 51.2849 85.8587C51.1718 85.8181 51.0616 85.7775 50.9514 85.7369C50.8615 85.7021 50.7687 85.6702 50.6788 85.6354C50.5686 85.5919 50.4613 85.5455 50.354 85.502C50.2699 85.4672 50.1858 85.4324 50.1046 85.3976C49.9886 85.3483 49.8785 85.2932 49.7654 85.241C49.6958 85.2091 49.6262 85.1772 49.5566 85.1453C49.3826 85.0612 49.2144 84.9742 49.052 84.8843C48.9766 84.8437 48.9041 84.8002 48.8287 84.7567C48.7388 84.7045 48.6489 84.6552 48.5619 84.603C48.4836 84.5566 48.4082 84.5073 48.3328 84.458C48.2545 84.4087 48.1762 84.3594 48.1037 84.3101C48.0283 84.2579 47.9529 84.2057 47.8804 84.1535C47.8108 84.1042 47.7383 84.0549 47.6716 84.0056C47.5991 83.9505 47.5266 83.8954 47.457 83.8403C47.3932 83.791 47.3265 83.7388 47.2627 83.6866C47.1931 83.6286 47.1264 83.5706 47.0568 83.5126C46.9959 83.4604 46.9379 83.4111 46.8799 83.356C46.8132 83.2951 46.7494 83.2342 46.6856 83.1733C46.6305 83.1211 46.5754 83.0689 46.5232 83.0167C46.4594 82.9529 46.3985 82.8891 46.3376 82.8253C46.2883 82.7731 46.239 82.718 46.1897 82.6658C46.1317 82.5991 46.0708 82.5353 46.0157 82.4686C45.9693 82.4164 45.9258 82.3613 45.8823 82.3091C45.8272 82.2395 45.7721 82.1699 45.717 82.1003C45.6764 82.0481 45.6358 81.993 45.5981 81.9408C45.5459 81.8683 45.4937 81.7958 45.4415 81.7233C45.4067 81.6711 45.3719 81.6189 45.3371 81.5638C45.2878 81.4884 45.2356 81.413 45.1892 81.3347C45.1573 81.2854 45.1283 81.2332 45.0993 81.181C45.05 81.0998 45.0036 81.0215 44.9572 80.9374C44.9311 80.891 44.9079 80.8475 44.8847 80.8011C44.8383 80.7112 44.789 80.6243 44.7455 80.5344C44.731 80.5054 44.7194 80.4763 44.7049 80.4473C44.528 80.0791 44.3743 79.705 44.2438 79.3193C42.7417 74.8707 44.2728 69.442 45.7663 65.5967C39.5633 69.152 36.9765 83.0428 48.7214 86.6417C51.2588 87.3028 53.225 87.2129 54.7504 86.7113C54.6199 86.691 54.4894 86.6678 54.3618 86.6446L54.3647 86.6533Z" stroke="#592832" stroke-width="1.56598" stroke-linecap="round" stroke-linejoin="round"/>
<path d="M58.0377 92.146H37.999C37.999 92.146 38.5007 86.9261 45.0256 85.5776C51.5534 84.2291 58.3857 88.1035 58.7569 89.7884C59.1281 91.4732 58.0348 92.146 58.0348 92.146H58.0377Z" fill="#AE6745"/>
<path d="M58.0377 92.146H37.999C37.999 92.146 38.5007 86.9261 45.0256 85.5776C51.5534 84.2291 58.3857 88.1035 58.7569 89.7884C59.1281 91.4732 58.0348 92.146 58.0348 92.146H58.0377Z" fill="#AE6745"/>
<path d="M45.9188 86.6041C51.1271 85.5282 56.5239 87.7757 58.6844 89.5853C57.8579 87.8163 51.304 84.2842 45.0256 85.5804C38.4978 86.9289 37.999 92.1488 37.999 92.1488H39.13C39.6433 90.5568 41.218 87.5785 45.9188 86.607V86.6041Z" fill="#C18B71"/>
<path d="M58.7607 89.7886C58.6361 89.226 57.7893 88.4198 56.4785 87.6455C56.261 87.6687 56.0435 87.6948 55.826 87.7238C53.3465 88.0689 51.74 88.7881 50.696 89.5479C49.7767 90.2178 48.6718 90.5774 47.535 90.5774H38.435C38.0638 91.4851 37.9971 92.1433 37.9971 92.1433H58.0358C58.0358 92.1433 59.129 91.4706 58.7578 89.7857L58.7607 89.7886Z" fill="#924921"/>
<path d="M45.2207 92.1464C45.2207 92.1464 46.1429 89.2522 48.4194 88.5186" stroke="#592832" stroke-width="1.56598" stroke-linecap="round" stroke-linejoin="round"/>
<path d="M40.7964 92.1464C40.7964 92.1464 41.7186 89.2522 43.995 88.5186" stroke="#592832" stroke-width="1.56598" stroke-linecap="round" stroke-linejoin="round"/>
<path d="M54.5404 86.6852C54.4824 86.6736 54.4215 86.6649 54.3635 86.6533C54.2475 86.633 54.1315 86.6098 54.0184 86.5866C53.885 86.5605 53.7516 86.5315 53.6182 86.5025C53.508 86.4793 53.3949 86.4532 53.2876 86.43C53.16 86.401 53.0324 86.3691 52.9077 86.3372C52.8004 86.3111 52.6931 86.285 52.5887 86.256C52.4669 86.2241 52.3451 86.1893 52.2262 86.1545C52.1247 86.1255 52.0203 86.0965 51.9217 86.0646C51.8028 86.0298 51.6897 85.9921 51.5737 85.9544C51.478 85.9225 51.3794 85.8906 51.2837 85.8587C51.1706 85.8181 51.0604 85.7775 50.9502 85.7369C50.8603 85.7021 50.7675 85.6702 50.6776 85.6354C50.5674 85.5919 50.4601 85.5455 50.3528 85.502C50.347 85.502 50.3441 85.4991 50.3383 85.4962C48.639 85.2323 46.8207 85.2062 45.0256 85.5745C38.4978 86.923 37.999 92.1429 37.999 92.1429H58.0377C58.0377 92.1429 59.131 91.4701 58.7598 89.7852C58.5829 88.9819 56.927 87.6769 54.5404 86.6823V86.6852Z" stroke="#592832" stroke-width="1.56598" stroke-linecap="round" stroke-linejoin="round"/>
<path d="M53.5175 9.89462C47.7292 12.0696 40.1023 5.0314 34.7345 9.89462C30.9066 13.3601 35.184 19.5718 39.8152 20.8159L53.5175 9.89462Z" fill="#EAAC71"/>
<path d="M34.0261 11.7907C38.7385 7.5249 45.188 12.42 50.6081 12.2141L53.5167 9.89706C47.7284 12.072 40.1015 5.03384 34.7337 9.89706C33.8492 10.6974 33.4026 11.6428 33.2866 12.6404C33.4896 12.3446 33.7303 12.0575 34.0261 11.7907Z" fill="#F5D7BB"/>
<path d="M53.5175 9.89462C47.7292 12.0696 40.1023 5.0314 34.7345 9.89462C30.9066 13.3601 35.184 19.5718 39.8152 20.8159L53.5175 9.89462V9.89462Z" stroke="#592832" stroke-width="1.56598" stroke-linecap="round" stroke-linejoin="round"/>
<path d="M34.6757 17.1005C35.9198 18.8463 37.8337 20.2847 39.8144 20.8183L45.3069 16.4422C38.405 7.33927 32.8226 14.2702 34.6786 17.1034L34.6757 17.1005Z" fill="#EE857B"/>
<path d="M36.9601 16.0568C36.209 14.9085 36.6788 13.0873 37.9606 11.9331C35.0954 12.2869 33.5701 15.416 34.672 17.1008C35.9161 18.8466 37.8301 20.285 39.8108 20.8186L41.4028 19.5484C39.6774 18.8988 38.0592 17.5967 36.9601 16.0568Z" fill="#FFBAB0"/>
<path d="M34.6757 17.1005C35.9198 18.8463 37.8337 20.2847 39.8144 20.8183L45.3069 16.4422C38.405 7.33927 32.8226 14.2702 34.6786 17.1034L34.6757 17.1005Z" stroke="#592832" stroke-width="1.56598" stroke-linecap="round" stroke-linejoin="round"/>
<path d="M84.4353 9.89469C80.355 7.24993 75.2453 10.5936 71.6987 11.4665C67.9925 9.12041 63.776 7.71973 59.3042 7.71973C44.5261 7.71973 32.5435 24.2669 32.5435 37.3167C32.5435 46.4283 44.5232 53.8174 59.3042 53.8174C74.0853 53.8174 86.065 46.4312 86.065 37.3167C86.065 32.552 84.7398 27.683 82.4285 23.307C89.1825 20.0416 89.9249 13.4529 84.4353 9.89469Z" fill="#EAAC71"/>
<path d="M84.7089 10.083C85.7761 13.3281 84.0999 17.1154 79.6485 19.5398C82.2063 23.8636 83.7896 28.7355 84.0216 33.5668C84.4682 42.8061 72.6799 50.8825 57.6958 51.6075C50.4576 51.9584 43.7964 50.5258 38.7939 47.9129C43.7036 51.5234 51.0694 53.8172 59.3053 53.8172C74.0835 53.8172 86.0661 46.431 86.0661 37.3165C86.0661 32.5519 84.7408 27.6828 82.4296 23.3068C89.0676 20.0966 89.894 13.679 84.7089 10.083Z" fill="#D6823C"/>
<path d="M84.4356 9.89427C80.3553 7.24951 75.2456 10.5932 71.699 11.466C71.0755 11.0717 70.4375 10.7063 69.7879 10.367L69.5327 10.8542C72.3631 13.264 74.3669 12.974 77.5105 11.5269C81.1441 9.85367 87.2949 10.9992 88.0721 16.1437C88.1765 13.8295 86.973 11.5385 84.4356 9.89427Z" fill="#F5D7BB"/>
<path d="M34.7735 37.3167C34.7735 24.5946 46.1645 8.54621 60.4323 7.75453C60.0582 7.73423 59.6812 7.71973 59.3042 7.71973C44.5261 7.71973 32.5435 24.2669 32.5435 37.3167C32.5435 46.4283 44.5232 53.8174 59.3042 53.8174C59.6783 53.8174 60.0495 53.8116 60.4178 53.8029C46.1559 53.4433 34.7735 46.2021 34.7735 37.3196V37.3167Z" fill="#F5D7BB"/>
<path d="M55.183 14.4819C52.6832 11.927 50.2618 11.028 48.2724 10.8569C46.5469 11.8661 44.9172 13.0841 43.4092 14.4616C44.5895 17.4543 49.8007 19.2436 55.1801 14.4819H55.183Z" fill="#D6823C"/>
<path d="M84.4353 9.89469C80.355 7.24993 75.2453 10.5936 71.6987 11.4665C67.9925 9.12041 63.776 7.71973 59.3042 7.71973C44.5261 7.71973 32.5435 24.2669 32.5435 37.3167C32.5435 46.4283 44.5232 53.8174 59.3042 53.8174C74.0853 53.8174 86.065 46.4312 86.065 37.3167C86.065 32.552 84.7398 27.683 82.4285 23.307C89.1825 20.0416 89.9249 13.4529 84.4353 9.89469V9.89469Z" stroke="#592832" stroke-width="1.56598" stroke-linecap="round" stroke-linejoin="round"/>
<path d="M88.0503 15.2331C88.639 17.4922 86.4988 21.3114 82.5085 23.2718C81.0353 20.6764 79.2751 18.2027 77.1001 15.9059C77.1001 15.9059 86.4409 9.08234 88.0503 15.236V15.2331Z" fill="white"/>
<path d="M88.0503 15.2331C88.639 17.4922 86.4988 21.3114 82.5085 23.2718C81.0353 20.6764 79.2751 18.2027 77.1001 15.9059C77.1001 15.9059 86.4409 9.08234 88.0503 15.236V15.2331Z" fill="#EE857B"/>
<path d="M88.0488 15.233C87.5703 13.4031 86.4075 12.7216 85.0097 12.6665C85.4273 13.0899 85.7463 13.6815 85.9232 14.4935C86.3611 16.4944 84.6501 19.6119 81.4775 21.5607C81.8342 22.1262 82.1793 22.6945 82.507 23.2716C86.4974 21.3142 88.6375 17.492 88.0488 15.233Z" fill="#FFBAB0"/>
<path d="M88.0503 15.2331C88.639 17.4922 86.4988 21.3114 82.5085 23.2718C81.0353 20.6764 79.2751 18.2027 77.1001 15.9059C77.1001 15.9059 86.4409 9.08234 88.0503 15.236V15.2331Z" stroke="#592832" stroke-width="1.56598" stroke-linecap="round" stroke-linejoin="round"/>
<path d="M68.279 9.65088C67.4003 9.27679 66.2954 8.86209 64.9846 8.4793C53.6168 5.75044 49.3974 -2.36654 47.2108 2.13709C45.0242 6.64073 50.9836 9.48558 50.9836 9.48558C50.9836 9.48558 45.9203 9.92058 46.0508 12.9452C46.1842 15.9757 52.9991 16.8051 56.4733 13.5252C61.2002 13.1917 65.3442 12.1564 68.279 9.65088Z" fill="#EAAC71"/>
<path d="M65.2915 10.2568C69.1803 10.7324 70.0503 11.0688 70.6477 11.2892C71.3582 10.8861 67.6665 10.1756 68.2813 9.65365C67.4026 9.27955 66.2977 8.86486 64.987 8.48206C53.6191 5.75321 49.3997 -2.36087 47.2131 2.13986C46.9608 2.65315 46.8216 3.14615 46.7607 3.61594C49.0169 0.0895944 53.3146 8.11377 65.2944 10.2568H65.2915Z" fill="#F5D7BB"/>
<path d="M50.7266 9.51755C50.1002 9.60165 48.4617 9.88584 47.3018 10.6862C49.265 11.5243 52.6754 11.8926 54.4791 10.2106C52.9915 10.1497 51.7387 9.92064 50.7266 9.51465V9.51755Z" fill="#D6823C"/>
<path d="M70.7033 10.866C70.7033 10.866 68.6473 9.54941 64.9846 8.48223C53.6168 5.75337 49.3974 -2.36361 47.2108 2.14002C45.0242 6.64365 50.9836 9.48851 50.9836 9.48851C50.9836 9.48851 45.9203 9.9235 46.0508 12.9482C46.1842 15.9786 52.9991 16.808 56.4733 13.5281" stroke="#592832" stroke-width="1.56598" stroke-linecap="round" stroke-linejoin="round"/>
<path d="M54.8004 9.85964C54.8004 9.85964 50.8333 10.2917 49.0527 8.21826" stroke="#592832" stroke-width="1.56598" stroke-linecap="round" stroke-linejoin="round"/>
<path d="M40.0999 37.1625C41.9257 37.1625 43.4058 35.3902 43.4058 33.204C43.4058 31.0179 41.9257 29.2456 40.0999 29.2456C38.2741 29.2456 36.7939 31.0179 36.7939 33.204C36.7939 35.3902 38.2741 37.1625 40.0999 37.1625Z" fill="#592832"/>
<path d="M41.1639 33.3605C41.6444 33.3605 42.0339 32.9372 42.0339 32.4151C42.0339 31.893 41.6444 31.4697 41.1639 31.4697C40.6835 31.4697 40.2939 31.893 40.2939 32.4151C40.2939 32.9372 40.6835 33.3605 41.1639 33.3605Z" fill="white"/>
<path d="M65.7457 39.2825C68.3435 39.2825 70.4494 37.1765 70.4494 34.5787C70.4494 31.9809 68.3435 29.875 65.7457 29.875C63.1479 29.875 61.042 31.9809 61.042 34.5787C61.042 37.1765 63.1479 39.2825 65.7457 39.2825Z" fill="#592832"/>
<path d="M63.9012 34.7292C64.5403 34.7292 65.0583 34.2112 65.0583 33.5721C65.0583 32.9331 64.5403 32.415 63.9012 32.415C63.2622 32.415 62.7441 32.9331 62.7441 33.5721C62.7441 34.2112 63.2622 34.7292 63.9012 34.7292Z" fill="white"/>
<path d="M53.5801 41.6286C55.6286 41.6286 57.2892 40.1497 57.2892 38.3255C57.2892 36.5013 55.6286 35.0225 53.5801 35.0225C51.5317 35.0225 49.8711 36.5013 49.8711 38.3255C49.8711 40.1497 51.5317 41.6286 53.5801 41.6286Z" fill="#FFE5C0"/>
<path d="M47.7786 41.0952C49.3145 41.0952 50.5597 39.7839 50.5597 38.1663C50.5597 36.5486 49.3145 35.2373 47.7786 35.2373C46.2427 35.2373 44.9976 36.5486 44.9976 38.1663C44.9976 39.7839 46.2427 41.0952 47.7786 41.0952Z" fill="#FFE5C0"/>
<path d="M50.0866 39.5984C47.8363 39.6854 46.4327 35.7908 47.7319 35.2746C49.0311 34.7584 52.4501 34.9237 52.6212 36.0634C52.7923 37.2031 51.9484 39.5259 50.0866 39.5984Z" fill="#DBAB7A"/>
<path d="M50.0429 38.482C47.7926 38.569 46.4238 35.6285 47.7288 35.2225C49.0338 34.8194 52.4499 34.9122 52.6094 35.7764C52.7718 36.6406 51.9047 38.4095 50.0429 38.482Z" fill="#592832"/>
<path d="M55.8788 41.2862C54.4491 41.7821 52.4974 41.4834 51.2592 40.5786C50.4327 39.9754 50.1398 39.6767 50.0093 38.0557" stroke="#592832" stroke-width="1.56598" stroke-linecap="round" stroke-linejoin="round"/>
<path d="M50.2209 39.4888C49.7018 40.7184 47.9908 41.5013 46.3784 41.0866" stroke="#592832" stroke-width="1.56598" stroke-linecap="round" stroke-linejoin="round"/>
<path d="M47.666 41.0226C47.666 41.0226 47.7037 41.1415 47.7704 41.3416C48.0807 42.2754 49 44.952 49.3973 45.1115C49.8787 45.3058 52.8395 45.4334 53.1614 45.1115C53.4833 44.7896 53.9386 41.5939 53.9386 41.5939C53.9386 41.5939 51.8042 42.0057 50.3195 39.7495C50.3195 39.7495 48.8985 41.4634 47.6689 41.0226H47.666Z" fill="white"/>
<path d="M53.9396 41.5939C53.9396 41.5939 51.8053 42.0057 50.3205 39.7495C50.3205 39.7495 48.8995 41.4634 47.6699 41.0226C47.6699 41.0226 47.7076 41.1415 47.7743 41.3416C47.8845 41.6693 48.0672 42.2116 48.276 42.7829C48.9691 42.7104 49.8565 42.4813 50.4626 41.8433C51.1267 42.8728 52.6114 43.1802 53.6815 43.1889C53.8323 42.3653 53.9425 41.5939 53.9425 41.5939H53.9396Z" fill="#C6AEA7"/>
<path d="M47.6914 41.185C47.6914 41.185 47.7059 41.1415 47.7726 41.3416C48.0829 42.2754 49.0022 44.952 49.3995 45.1115C49.8809 45.3058 52.8417 45.4334 53.1636 45.1115C53.4855 44.7896 53.9176 41.6577 53.9176 41.6577C53.9176 41.6577 51.5918 41.2343 50.3217 39.7495C50.3217 39.7495 49.6605 41.1879 47.6943 41.1879L47.6914 41.185Z" stroke="#592832" stroke-width="1.56598" stroke-linecap="round" stroke-linejoin="round"/>
<path d="M50.9897 44.9665C50.9897 44.9665 50.3227 41.7476 50.3198 39.7495" stroke="#592832" stroke-width="0.66699" stroke-linecap="round" stroke-linejoin="round"/>
<path d="M64.7837 58.6667C61.0515 59.2205 58.8417 58.8523 55.8026 58.6667C52.7634 58.4811 46.5459 59.8179 46.0848 61.5231C45.6237 63.2283 47.6508 63.3182 47.6508 63.3182C47.6508 63.3182 48.4338 68.338 53.1781 68.338C55.9882 68.338 57.415 67.3259 57.415 67.3259C57.415 67.3259 64.0471 69.6285 67.8258 66.0354C68.2173 63.2341 67.5503 60.6937 64.7866 58.6667H64.7837Z" fill="#EAAC71"/>
<path d="M61.124 65.7921C60.0336 65.1918 58.0123 64.4262 55.066 65.7921C52.3429 67.0535 49.6721 65.5195 50.3245 64.751C49.7388 65.1918 49.1733 65.6326 48.7847 66.056C49.5938 67.2304 50.948 68.3382 53.1781 68.3382C55.9882 68.3382 57.4149 67.3261 57.4149 67.3261C57.4149 67.3261 64.0471 69.6287 67.8258 66.0357C67.8461 65.8849 67.8635 65.7341 67.878 65.5833C65.732 66.8912 62.0375 66.2909 61.124 65.7921Z" fill="#D6823C"/>
<path d="M50.3252 64.7511C50.4006 64.6931 50.4789 64.6351 50.5543 64.5771C50.4528 64.6293 50.3774 64.6873 50.3252 64.7511Z" fill="#D6823C"/>
<path d="M47.1827 63.0543C47.6438 61.3491 53.8613 60.0151 56.9004 60.1978C59.8729 60.3776 62.1029 60.7314 66.2673 60.0267C65.8584 59.5511 65.3741 59.0987 64.7854 58.6667C61.0532 59.2205 58.8434 58.8523 55.8042 58.6667C52.7651 58.4811 46.5476 59.8179 46.0865 61.5231C45.7791 62.6628 46.5824 63.0804 47.1479 63.2312C47.1595 63.1732 47.1653 63.1152 47.1827 63.0543Z" fill="#F5D7BB"/>
<path d="M53.993 58.7012C50.7886 58.9535 46.4647 60.1106 46.0848 61.5228C45.6237 63.228 47.6508 63.3179 47.6508 63.3179C47.6508 63.3179 48.4338 68.3377 53.1781 68.3377C55.7475 68.3377 57.1569 67.4938 57.3802 67.3488C57.5832 63.9559 56.1419 60.6035 53.993 58.7012Z" fill="#AE6745"/>
<path d="M57.2743 65.1045C56.6044 65.206 55.8707 65.4148 55.0616 65.7889C52.7706 66.8502 50.5145 65.931 50.2477 65.1567L48.9717 66.3137C48.992 66.3398 49.0152 66.3688 49.0355 66.3949C49.0645 66.4326 49.0935 66.4674 49.1225 66.5051C49.1544 66.5428 49.1863 66.5776 49.2182 66.6153C49.2501 66.653 49.282 66.6878 49.3139 66.7255C49.3458 66.7603 49.3806 66.7951 49.4154 66.8299C49.4502 66.8647 49.485 66.9024 49.5227 66.9372C49.5575 66.972 49.5952 67.0039 49.63 67.0358C49.6677 67.0706 49.7054 67.1054 49.746 67.1402C49.7837 67.1721 49.8214 67.204 49.8591 67.233C49.8997 67.2678 49.9432 67.2997 49.9867 67.3316C50.0273 67.3606 50.0679 67.3896 50.1085 67.4186C50.152 67.4505 50.1984 67.4824 50.2448 67.5114C50.2854 67.5404 50.3289 67.5665 50.3724 67.5926C50.4217 67.6216 50.471 67.6506 50.5203 67.6796C50.5638 67.7057 50.6102 67.7289 50.6537 67.7521C50.7059 67.7782 50.7581 67.8072 50.8132 67.8304C50.8596 67.8536 50.906 67.8739 50.9553 67.8971C51.0104 67.9203 51.0684 67.9435 51.1264 67.9667C51.1757 67.987 51.2249 68.0044 51.2742 68.0247C51.3351 68.045 51.3989 68.0653 51.4598 68.0856C51.5091 68.1001 51.5613 68.1175 51.6135 68.132C51.6802 68.1494 51.7469 68.1668 51.8165 68.1813C51.8687 68.1929 51.918 68.2074 51.9731 68.219C52.0456 68.2335 52.121 68.2451 52.1964 68.2567C52.2486 68.2654 52.2979 68.2741 52.3501 68.2828C52.4371 68.2944 52.5241 68.3031 52.614 68.3089C52.6604 68.3118 52.7039 68.3176 52.7503 68.3205C52.8866 68.3292 53.0258 68.335 53.1708 68.335C53.339 68.335 53.5043 68.3321 53.6609 68.3234C53.7131 68.3234 53.7595 68.3176 53.8088 68.3147C53.9161 68.3089 54.0205 68.3031 54.122 68.2944C54.1771 68.2886 54.2293 68.2828 54.2815 68.277C54.3743 68.2683 54.4671 68.2567 54.557 68.2451C54.6092 68.2393 54.6585 68.2306 54.7078 68.2248C54.7948 68.2132 54.8818 68.1987 54.963 68.1842C55.0094 68.1755 55.0529 68.1668 55.0964 68.1581C55.1805 68.1436 55.2617 68.1262 55.34 68.1088C55.3806 68.1001 55.4183 68.0914 55.456 68.0827C55.5372 68.0653 55.6155 68.045 55.6909 68.0247C55.7228 68.016 55.7547 68.0073 55.7866 67.9986C55.8649 67.9783 55.9403 67.9551 56.0128 67.9319C56.036 67.9232 56.0621 67.9174 56.0853 67.9087C56.1636 67.8826 56.239 67.8594 56.3086 67.8333C56.3231 67.8275 56.3376 67.8217 56.3521 67.8188C56.4333 67.7898 56.5116 67.7608 56.5841 67.7318C56.5841 67.7318 56.587 67.7318 56.5899 67.7318C56.819 67.639 57.0017 67.552 57.1351 67.4795C57.1409 67.4766 57.1467 67.4737 57.1554 67.4679C57.1902 67.4505 57.2192 67.4331 57.2453 67.4186C57.2598 67.4099 57.2714 67.4041 57.283 67.3983C57.2975 67.3896 57.312 67.3809 57.3236 67.3722C57.3381 67.3635 57.3555 67.3519 57.3642 67.3461C57.3642 67.3461 57.3642 67.3461 57.3671 67.3461C57.4135 66.5892 57.3729 65.8382 57.2656 65.1016L57.2743 65.1045Z" fill="#924921"/>
<path d="M46.0247 61.8534C46.0102 62.0187 46.0218 62.1666 46.0537 62.2971C46.0566 62.3116 46.0624 62.329 46.0653 62.3435C46.0827 62.4073 46.1059 62.4653 46.132 62.5204C46.161 62.5784 46.1929 62.6277 46.2306 62.677C46.2393 62.6886 46.248 62.7002 46.2596 62.7118C46.2944 62.7553 46.3292 62.7959 46.3698 62.8307C46.3727 62.8336 46.3756 62.8365 46.3785 62.8394C46.4191 62.8771 46.4626 62.9119 46.509 62.9438C46.5235 62.9554 46.5409 62.967 46.5554 62.9757C46.5902 62.9989 46.6279 63.0192 46.6627 63.0395C46.6859 63.0511 46.7091 63.0627 46.7323 63.0743C46.7642 63.0917 46.799 63.1062 46.8309 63.1207C46.857 63.1323 46.8831 63.141 46.9063 63.1526C46.9266 63.1613 46.944 63.1671 46.9643 63.1729C47.0252 63.1932 47.0861 63.2135 47.1441 63.228C47.1557 63.17 47.1615 63.112 47.1789 63.0511C47.5704 61.604 52.1117 60.4237 55.3365 60.212C54.9305 59.6436 54.481 59.1332 53.9938 58.6982C53.3935 58.7446 52.7555 58.8258 52.1117 58.9302C52.1088 58.9302 52.103 58.9302 52.1001 58.9302C51.581 59.0172 51.0561 59.1216 50.5458 59.2405C50.5197 59.2463 50.4965 59.2521 50.4704 59.2579C50.3892 59.2782 50.3051 59.2985 50.2239 59.3188C50.192 59.3275 50.1601 59.3362 50.1282 59.342C50.0499 59.3623 49.9716 59.3826 49.8933 59.4029C49.8614 59.4116 49.8295 59.4203 49.8005 59.429C49.5569 59.4957 49.3191 59.5653 49.09 59.6378C49.0436 59.6523 49.0001 59.6668 48.9537 59.6813C48.8986 59.6987 48.8435 59.719 48.7884 59.7364C48.7391 59.7538 48.6898 59.7712 48.6405 59.7886C48.5883 59.806 48.5361 59.8263 48.4868 59.8437C48.4346 59.8611 48.3853 59.8814 48.336 59.9017C48.2896 59.9191 48.2432 59.9365 48.1968 59.9568C48.1388 59.98 48.0808 60.0032 48.0228 60.0264C47.988 60.0409 47.9503 60.0554 47.9155 60.0699C47.8285 60.1076 47.7415 60.1453 47.6603 60.1859C47.6313 60.2004 47.6023 60.2149 47.5704 60.2294C47.5153 60.2555 47.4602 60.2845 47.408 60.3106C47.3761 60.328 47.3442 60.3454 47.3123 60.3599C47.263 60.386 47.2166 60.4121 47.1702 60.4382C47.1412 60.4556 47.1093 60.473 47.0803 60.4904C47.0339 60.5194 46.9875 60.5455 46.944 60.5745C46.9208 60.589 46.8947 60.6064 46.8715 60.6209C46.8164 60.6586 46.7642 60.6934 46.7149 60.7311C46.7033 60.7398 46.6946 60.7456 46.683 60.7543C46.625 60.7978 46.5699 60.8442 46.5206 60.8906C46.5061 60.9051 46.4916 60.9196 46.4771 60.9312C46.4423 60.9631 46.4104 60.995 46.3785 61.0298C46.364 61.0472 46.3495 61.0646 46.3321 61.082C46.306 61.1139 46.2799 61.1429 46.2596 61.1748C46.248 61.1922 46.2335 61.2096 46.2219 61.227C46.2016 61.2589 46.1813 61.2937 46.1639 61.3256C46.1552 61.3401 46.1465 61.3575 46.1378 61.372C46.1146 61.4213 46.0972 61.4706 46.0827 61.5199C46.0566 61.6156 46.0421 61.7026 46.0305 61.7896C46.0305 61.8099 46.0247 61.8302 46.0247 61.8505V61.8534Z" fill="#C18B71"/>
<path d="M64.7837 58.6667C61.0515 59.2205 58.8417 58.8523 55.8026 58.6667C52.7634 58.4811 46.5459 59.8179 46.0848 61.5231C45.6237 63.2283 47.6508 63.3182 47.6508 63.3182C47.6508 63.3182 48.4338 68.338 53.1781 68.338C55.9882 68.338 57.415 67.3259 57.415 67.3259C57.415 67.3259 64.0471 69.6285 67.8229 66.0354" stroke="#592832" stroke-width="1.56598" stroke-linecap="round" stroke-linejoin="round"/>
<path d="M50.5539 61.6533C48.8546 61.6533 47.2074 62.7176 47.8802 64.2024" stroke="#592832" stroke-width="1.56598" stroke-linecap="round" stroke-linejoin="round"/>
<path d="M51.3887 64.4551C49.6198 64.3681 48.9557 66.2328 49.7618 67.1318" stroke="#592832" stroke-width="1.56598" stroke-linecap="round" stroke-linejoin="round"/>
<path d="M47.4061 53.7538C44.8976 53.632 41.8962 53.4377 40.2519 53.168C37.0794 52.646 31.5085 48.731 29.4612 50.8451C28.0083 52.5184 31.2707 54.9486 31.2707 54.9486C31.2707 54.9486 29.6149 56.9582 30.7372 59.1854C31.8594 61.4126 33.9213 61.1835 33.9213 61.1835C33.9213 61.1835 35.3771 63.3033 38.2016 61.6765C39.7705 62.0592 43.5927 62.9756 46.5448 63.6803C47.902 60.0844 47.8179 56.4507 47.4061 53.7538Z" fill="#EAAC71"/>
<path d="M38.2018 61.6768C39.7707 62.0596 43.5928 62.976 46.545 63.6807C47.27 61.758 47.5831 59.8266 47.6527 58.0316C46.7915 61.5521 39.3241 59.2408 39.3241 59.2408C39.3241 59.2408 38.3149 59.873 36.1312 59.2408C33.9476 58.6086 33.4575 56.4888 30.6706 54.4414C31.0099 54.7575 31.2709 54.9489 31.2709 54.9489C31.2709 54.9489 29.615 56.9586 30.7373 59.1857C31.8596 61.4129 33.9215 61.1838 33.9215 61.1838C33.9215 61.1838 35.3772 63.3037 38.2018 61.6768Z" fill="#D6823C"/>
<path d="M29.461 52.5416C31.5112 50.4275 37.0791 54.3424 40.2517 54.8644C41.896 55.1341 44.8974 55.3284 47.4059 55.4502C47.5248 56.2361 47.6176 57.1061 47.6524 58.0283C47.7162 56.4652 47.5973 55.0065 47.4059 53.7508C44.8974 53.629 41.896 53.4347 40.2517 53.1651C37.0791 52.6431 31.5083 48.7281 29.461 50.8422C28.9564 51.4251 29.0202 52.0979 29.3218 52.7272C29.3624 52.6634 29.4088 52.6025 29.461 52.5387V52.5416Z" fill="#F5D7BB"/>
<path d="M39.1006 52.8749C35.873 51.8396 31.2794 48.9657 29.4612 50.842C28.0083 52.5153 31.2707 54.9455 31.2707 54.9455C31.2707 54.9455 29.6149 56.9551 30.7372 59.1823C31.8594 61.4095 33.9213 61.1804 33.9213 61.1804C33.9213 61.1804 35.3771 63.3002 38.2016 61.6734C38.2016 61.6734 40.8667 58.2137 39.1006 52.872V52.8749Z" fill="#AE6745"/>
<path d="M36.1308 59.2408C33.9471 58.6086 33.457 56.4888 30.6702 54.4414C30.7108 54.4791 30.7514 54.5168 30.7891 54.5516C30.7978 54.5574 30.8036 54.5661 30.8123 54.5719C30.8413 54.598 30.8703 54.6241 30.8993 54.6473C30.9109 54.656 30.9196 54.6647 30.9312 54.6734C30.9544 54.6937 30.9776 54.7111 30.9979 54.7314C31.0095 54.7401 31.0182 54.7488 31.0298 54.7575C31.0501 54.772 31.0675 54.7894 31.0849 54.8039C31.0936 54.8126 31.1052 54.8184 31.1139 54.8271C31.1313 54.8416 31.1458 54.8532 31.1603 54.8648C31.1661 54.8706 31.1748 54.8764 31.1806 54.8822C31.1951 54.8938 31.2067 54.9025 31.2183 54.9112C31.2212 54.9112 31.227 54.917 31.2299 54.9199C31.2415 54.9286 31.2473 54.9344 31.256 54.9402C31.256 54.9402 31.2618 54.9431 31.2647 54.946C31.2705 54.9518 31.2763 54.9547 31.2763 54.9547C31.2763 54.9547 29.6204 56.9644 30.7427 59.1915C31.865 61.4187 33.9268 61.1896 33.9268 61.1896C33.9268 61.1896 35.3826 63.3095 38.2072 61.6826C38.2072 61.6826 38.8829 60.801 39.3294 59.2466C39.3294 59.2466 38.3203 59.8788 36.1366 59.2466L36.1308 59.2408Z" fill="#924921"/>
<path d="M29.2788 51.1004C29.2469 51.1555 29.2208 51.2077 29.1976 51.2628C29.1918 51.2773 29.1831 51.2947 29.1773 51.3092C29.1512 51.3788 29.1309 51.4484 29.1164 51.5209C29.1164 51.5325 29.1135 51.547 29.1106 51.5615C29.099 51.6224 29.0932 51.6804 29.0903 51.7413C29.0903 51.7587 29.0903 51.7761 29.0903 51.7935C29.0903 51.9413 29.1077 52.0893 29.1425 52.2342C29.1454 52.2487 29.1483 52.2603 29.1541 52.2748C29.1715 52.3415 29.1918 52.4053 29.215 52.472C29.2179 52.4807 29.2208 52.4923 29.2266 52.501C29.2556 52.5764 29.2875 52.6547 29.3223 52.7301C29.3629 52.6663 29.4093 52.6054 29.4615 52.5416C31.3668 50.5726 36.3228 53.8263 39.5563 54.7079C39.4606 54.125 39.3127 53.5131 39.101 52.8722C37.4654 52.3473 35.4789 51.3527 33.681 50.7408C33.6752 50.7408 33.6723 50.7379 33.6665 50.735C33.5534 50.6973 33.4403 50.6596 33.3301 50.6248C33.3098 50.619 33.2866 50.6132 33.2663 50.6045C33.1706 50.5755 33.0749 50.5465 32.9821 50.5204C32.9531 50.5117 32.9241 50.503 32.898 50.4972C32.811 50.474 32.724 50.4508 32.6399 50.4305C32.608 50.4218 32.579 50.416 32.5471 50.4073C32.463 50.387 32.3789 50.3696 32.2977 50.3522C32.2687 50.3464 32.2397 50.3406 32.2107 50.3348C32.1208 50.3174 32.0338 50.3029 31.9468 50.2884C31.9265 50.2855 31.9062 50.2797 31.8859 50.2768C31.6713 50.2449 31.4625 50.2246 31.2624 50.2217C31.2392 50.2217 31.216 50.2217 31.1928 50.2217C31.1203 50.2217 31.0478 50.2217 30.9753 50.2246C30.9434 50.2246 30.9115 50.2304 30.8796 50.2333C30.8187 50.2391 30.7607 50.2449 30.6998 50.2507C30.665 50.2565 30.6302 50.2623 30.5983 50.2681C30.5432 50.2768 30.491 50.2884 30.4388 50.3C30.404 50.3087 30.3692 50.3174 30.3373 50.3261C30.288 50.3406 30.2387 50.358 30.1894 50.3754C30.1575 50.387 30.1256 50.3986 30.0937 50.4131C30.0444 50.4334 29.998 50.4566 29.9516 50.4798C29.9226 50.4943 29.8936 50.5088 29.8646 50.5262C29.8153 50.5552 29.7689 50.5871 29.7225 50.6219C29.6993 50.6393 29.6761 50.6509 29.6558 50.6683C29.5891 50.7205 29.5253 50.7785 29.4644 50.8394C29.4064 50.9032 29.36 50.9699 29.3165 51.0395C29.3049 51.0569 29.2933 51.0772 29.2817 51.0975L29.2788 51.1004Z" fill="#C18B71"/>
<path d="M35.5405 56.2334C35.6362 57.6602 32.7884 60.2962 34.54 61.7723" stroke="#592832" stroke-width="1.56598" stroke-linecap="round" stroke-linejoin="round"/>
<path d="M34.3041 59.2408C34.6955 57.4921 30.6704 54.4385 30.6704 54.4385" stroke="#592832" stroke-width="1.56598" stroke-linecap="round" stroke-linejoin="round"/>
<path d="M47.4061 53.7538C44.8976 53.632 41.8962 53.4377 40.2519 53.168C37.0794 52.646 31.5085 48.731 29.4612 50.8451C28.0083 52.5184 31.2707 54.9486 31.2707 54.9486C31.2707 54.9486 29.6149 56.9582 30.7372 59.1854C31.8594 61.4126 33.9213 61.1835 33.9213 61.1835C33.9213 61.1835 35.3771 63.3033 38.2016 61.6765C39.7705 62.0592 43.5927 62.9756 46.5448 63.6803C47.902 60.0844 47.8179 56.4507 47.4061 53.7538V53.7538Z" stroke="#592832" stroke-width="1.56598" stroke-linecap="round" stroke-linejoin="round"/>
<g opacity="0.6">
<path d="M58.7173 79.7837H22.0068C20.7279 79.7837 19.6056 78.9398 19.2489 77.7132L12.1498 53.2172C11.6162 51.3816 12.9966 49.5459 14.9077 49.5459H51.6182C52.8971 49.5459 54.0194 50.3898 54.3761 51.6165L61.4751 76.1124C62.0087 77.9481 60.6284 79.7837 58.7173 79.7837Z" fill="#CCF2F2"/>
</g>
<path d="M58.7183 79.7837H22.0077C20.7289 79.7837 19.6066 78.9398 19.2499 77.7132L12.1508 53.2172C11.6172 51.3816 12.9976 49.5459 14.9086 49.5459H51.6192C52.8981 49.5459 54.0203 50.3898 54.377 51.6165L61.4761 76.1124C62.0097 77.9481 60.6293 79.7837 58.7183 79.7837V79.7837Z" stroke="url(#paint0_linear_2099_1083)" stroke-width="1.56598" stroke-linecap="round" stroke-linejoin="round"/>
<path opacity="0.6" d="M9.75393 49.9807H31.1846C32.4809 49.9807 33.4292 48.7598 33.1073 47.5042L29.868 34.785C29.6447 33.9063 28.853 33.2886 27.9453 33.2886H6.51468C5.2184 33.2886 4.27011 34.5095 4.59201 35.7651L7.83126 48.4843C8.05456 49.363 8.84624 49.9807 9.75393 49.9807Z" fill="#CCF2F2"/>
<path d="M9.75393 49.9807H31.1846C32.4809 49.9807 33.4292 48.7598 33.1073 47.5042L29.868 34.785C29.6447 33.9063 28.853 33.2886 27.9453 33.2886H6.51468C5.2184 33.2886 4.27011 34.5095 4.59201 35.7651L7.83126 48.4843C8.05456 49.363 8.84624 49.9807 9.75393 49.9807V49.9807Z" stroke="url(#paint1_linear_2099_1083)" stroke-width="1.56598" stroke-linecap="round" stroke-linejoin="round"/>
<path opacity="0.6" d="M12.8226 46.7475H17.506C18.1672 46.7475 18.6573 46.1327 18.5094 45.486L16.6737 37.4474C16.5664 36.9776 16.1488 36.647 15.6703 36.647H10.9869C10.3257 36.647 9.83563 37.2618 9.98352 37.9085L11.8192 45.9471C11.9265 46.4169 12.3441 46.7475 12.8226 46.7475Z" fill="#CCF2F2"/>
<path d="M12.8226 46.7475H17.506C18.1672 46.7475 18.6573 46.1327 18.5094 45.486L16.6737 37.4474C16.5664 36.9776 16.1488 36.647 15.6703 36.647H10.9869C10.3257 36.647 9.83563 37.2618 9.98352 37.9085L11.8192 45.9471C11.9265 46.4169 12.3441 46.7475 12.8226 46.7475Z" stroke="url(#paint2_linear_2099_1083)" stroke-width="0.579991" stroke-linecap="round" stroke-linejoin="round"/>
<path opacity="0.6" d="M22.0335 46.7475H26.7169C27.3781 46.7475 27.8682 46.1327 27.7203 45.486L25.8847 37.4474C25.7774 36.9776 25.3598 36.647 24.8813 36.647H20.1978C19.5367 36.647 19.0466 37.2618 19.1945 37.9085L21.0301 45.9471C21.1374 46.4169 21.555 46.7475 22.0335 46.7475Z" fill="#CCF2F2"/>
<path d="M22.0335 46.7475H26.7169C27.3781 46.7475 27.8682 46.1327 27.7203 45.486L25.8847 37.4474C25.7774 36.9776 25.3598 36.647 24.8813 36.647H20.1978C19.5367 36.647 19.0466 37.2618 19.1945 37.9085L21.0301 45.9471C21.1374 46.4169 21.555 46.7475 22.0335 46.7475Z" stroke="url(#paint3_linear_2099_1083)" stroke-width="0.579991" stroke-linecap="round" stroke-linejoin="round"/>
<g opacity="0.6">
<path d="M47.3362 73.4469H10.9911C9.6368 73.4469 8.44201 72.5508 8.06502 71.2487L1.06743 47.1037C0.50194 45.1549 1.96352 43.2119 3.99348 43.2119H40.3386C41.6929 43.2119 42.8877 44.108 43.2647 45.4101L50.2623 69.5551C50.8278 71.5039 49.3662 73.4469 47.3362 73.4469Z" fill="#CCF2F2"/>
</g>
<path d="M47.3367 73.4469H10.9916C9.63729 73.4469 8.4425 72.5508 8.06551 71.2487L1.06792 47.1037C0.502428 45.1549 1.964 43.2119 3.99397 43.2119H40.3391C41.6934 43.2119 42.8882 44.108 43.2652 45.4101L50.2628 69.5551C50.8282 71.5039 49.3667 73.4469 47.3367 73.4469V73.4469Z" stroke="url(#paint4_linear_2099_1083)" stroke-width="1.56598" stroke-linecap="round" stroke-linejoin="round"/>
<path d="M1.20703 46.4863H43.4246" stroke="url(#paint5_linear_2099_1083)" stroke-width="1.56598" stroke-linecap="round" stroke-linejoin="round"/>
<path opacity="0.5" d="M11.8042 68.2936H23.8216C24.2943 68.2936 24.6336 67.8383 24.4973 67.3859L20.0198 52.4744C19.9299 52.1757 19.6544 51.9727 19.3441 51.9727H7.32669C6.85399 51.9727 6.5147 52.428 6.65099 52.8803L11.1285 67.7919C11.2184 68.0906 11.4939 68.2936 11.8042 68.2936Z" fill="#CCF2F2"/>
<path d="M11.8042 68.2936H23.8216C24.2943 68.2936 24.6336 67.8383 24.4973 67.3859L20.0198 52.4744C19.9299 52.1757 19.6544 51.9727 19.3441 51.9727H7.32669C6.85399 51.9727 6.5147 52.428 6.65099 52.8803L11.1285 67.7919C11.2184 68.0906 11.4939 68.2936 11.8042 68.2936Z" stroke="url(#paint6_linear_2099_1083)" stroke-width="0.579991" stroke-linecap="round" stroke-linejoin="round"/>
<path d="M10.958 57.4365H13.336" stroke="url(#paint7_linear_2099_1083)" stroke-width="0.579991" stroke-linecap="round" stroke-linejoin="round"/>
<path d="M14.4404 57.4365H19.1616" stroke="url(#paint8_linear_2099_1083)" stroke-width="0.579991" stroke-linecap="round" stroke-linejoin="round"/>
<path d="M17.459 59.9102H19.7645" stroke="url(#paint9_linear_2099_1083)" stroke-width="0.579991" stroke-linecap="round" stroke-linejoin="round"/>
<path d="M11.6646 59.9102H16.2175" stroke="url(#paint10_linear_2099_1083)" stroke-width="0.579991" stroke-linecap="round" stroke-linejoin="round"/>
<path d="M16.1841 55.2178H18.4895" stroke="url(#paint11_linear_2099_1083)" stroke-width="0.579991" stroke-linecap="round" stroke-linejoin="round"/>
<path d="M10.3877 55.2178H14.9406" stroke="url(#paint12_linear_2099_1083)" stroke-width="0.579991" stroke-linecap="round" stroke-linejoin="round"/>
<path d="M12.0825 62.7979H13.9414" stroke="url(#paint13_linear_2099_1083)" stroke-width="0.579991" stroke-linecap="round" stroke-linejoin="round"/>
<path d="M15.1885 62.7979H20.4229" stroke="url(#paint14_linear_2099_1083)" stroke-width="0.579991" stroke-linecap="round" stroke-linejoin="round"/>
<path d="M12.9146 65.6836H14.9532" stroke="url(#paint15_linear_2099_1083)" stroke-width="0.579991" stroke-linecap="round" stroke-linejoin="round"/>
<path d="M15.9717 65.6836H21.2844" stroke="url(#paint16_linear_2099_1083)" stroke-width="0.579991" stroke-linecap="round" stroke-linejoin="round"/>
<path d="M11.5962 39.0215H13.5276" stroke="url(#paint17_linear_2099_1083)" stroke-width="0.408894" stroke-linecap="round" stroke-linejoin="round"/>
<path d="M11.8032 40.0713H14.2711" stroke="url(#paint18_linear_2099_1083)" stroke-width="0.408894" stroke-linecap="round" stroke-linejoin="round"/>
<path d="M12.0483 41.1211H13.1938" stroke="url(#paint19_linear_2099_1083)" stroke-width="0.408894" stroke-linecap="round" stroke-linejoin="round"/>
<path d="M13.7852 41.1211H16.3052" stroke="url(#paint20_linear_2099_1083)" stroke-width="0.408894" stroke-linecap="round" stroke-linejoin="round"/>
<path d="M14.9312 40.0713H16.1665" stroke="url(#paint21_linear_2099_1083)" stroke-width="0.408894" stroke-linecap="round" stroke-linejoin="round"/>
<path d="M20.7935 39.0215H22.7248" stroke="url(#paint22_linear_2099_1083)" stroke-width="0.408894" stroke-linecap="round" stroke-linejoin="round"/>
<path d="M21.0005 40.0713H23.4683" stroke="url(#paint23_linear_2099_1083)" stroke-width="0.408894" stroke-linecap="round" stroke-linejoin="round"/>
<path d="M21.2456 41.1211H22.3882" stroke="url(#paint24_linear_2099_1083)" stroke-width="0.408894" stroke-linecap="round" stroke-linejoin="round"/>
<path d="M22.9839 41.1211H25.501" stroke="url(#paint25_linear_2099_1083)" stroke-width="0.408894" stroke-linecap="round" stroke-linejoin="round"/>
<path d="M24.1284 40.0713H25.3638" stroke="url(#paint26_linear_2099_1083)" stroke-width="0.408894" stroke-linecap="round" stroke-linejoin="round"/>
<path opacity="0.5" d="M29.0203 68.0038H44.1987C44.5206 68.0038 44.741 67.6819 44.625 67.3803L43.1228 63.5205C43.0532 63.3436 42.885 63.2305 42.6965 63.2305H27.5182C27.1963 63.2305 26.9759 63.5524 27.0919 63.854L28.594 67.7138C28.6636 67.8907 28.8318 68.0038 29.0203 68.0038Z" fill="#CCF2F2" stroke="url(#paint27_linear_2099_1083)" stroke-width="0.289995" stroke-miterlimit="10"/>
<path opacity="0.5" d="M27.244 62.1259H42.4223C42.7442 62.1259 42.9646 61.804 42.8486 61.5024L41.3465 57.6425C41.2769 57.4656 41.1087 57.3525 40.9202 57.3525H25.7418C25.4199 57.3525 25.1995 57.6744 25.3155 57.976L26.8177 61.8359C26.8873 62.0128 27.0555 62.1259 27.244 62.1259Z" fill="#CCF2F2" stroke="url(#paint28_linear_2099_1083)" stroke-width="0.289995" stroke-miterlimit="10"/>
<path opacity="0.5" d="M31.6806 52.6783C32.2599 51.4445 31.5295 49.881 30.0493 49.186C28.5691 48.4911 26.8995 48.9279 26.3203 50.1616C25.7411 51.3954 26.4714 52.9589 27.9516 53.6538C29.4319 54.3488 31.1014 53.912 31.6806 52.6783Z" fill="#CCF2F2" stroke="url(#paint29_linear_2099_1083)" stroke-width="0.289995" stroke-miterlimit="10"/>
<defs>
<linearGradient id="paint0_linear_2099_1083" x1="12.0352" y1="49.5459" x2="65.6575" y2="61.7654" gradientUnits="userSpaceOnUse">
<stop stop-color="#33CCCC"/>
<stop offset="1" stop-color="#009999"/>
</linearGradient>
<linearGradient id="paint1_linear_2099_1083" x1="4.52881" y1="33.2886" x2="35.3739" y2="40.6477" gradientUnits="userSpaceOnUse">
<stop stop-color="#33CCCC"/>
<stop offset="1" stop-color="#009999"/>
</linearGradient>
<linearGradient id="paint2_linear_2099_1083" x1="9.95703" y1="36.647" x2="19.5874" y2="37.7843" gradientUnits="userSpaceOnUse">
<stop stop-color="#33CCCC"/>
<stop offset="1" stop-color="#009999"/>
</linearGradient>
<linearGradient id="paint3_linear_2099_1083" x1="19.168" y1="36.647" x2="28.7984" y2="37.7843" gradientUnits="userSpaceOnUse">
<stop stop-color="#33CCCC"/>
<stop offset="1" stop-color="#009999"/>
</linearGradient>
<linearGradient id="paint4_linear_2099_1083" x1="0.945312" y1="43.2119" x2="54.4534" y2="55.3778" gradientUnits="userSpaceOnUse">
<stop stop-color="#33CCCC"/>
<stop offset="1" stop-color="#009999"/>
</linearGradient>
<linearGradient id="paint5_linear_2099_1083" x1="1.20703" y1="46.4863" x2="2.56222" y2="54.4415" gradientUnits="userSpaceOnUse">
<stop stop-color="#33CCCC"/>
<stop offset="1" stop-color="#009999"/>
</linearGradient>
<linearGradient id="paint6_linear_2099_1083" x1="6.62061" y1="51.9727" x2="26.5394" y2="55.0114" gradientUnits="userSpaceOnUse">
<stop stop-color="#33CCCC"/>
<stop offset="1" stop-color="#009999"/>
</linearGradient>
<linearGradient id="paint7_linear_2099_1083" x1="10.958" y1="57.4365" x2="13.3979" y2="58.2433" gradientUnits="userSpaceOnUse">
<stop stop-color="#33CCCC"/>
<stop offset="1" stop-color="#009999"/>
</linearGradient>
<linearGradient id="paint8_linear_2099_1083" x1="14.4404" y1="57.4365" x2="18.1959" y2="59.9018" gradientUnits="userSpaceOnUse">
<stop stop-color="#33CCCC"/>
<stop offset="1" stop-color="#009999"/>
</linearGradient>
<linearGradient id="paint9_linear_2099_1083" x1="17.459" y1="59.9102" x2="19.8386" y2="60.673" gradientUnits="userSpaceOnUse">
<stop stop-color="#33CCCC"/>
<stop offset="1" stop-color="#009999"/>
</linearGradient>
<linearGradient id="paint10_linear_2099_1083" x1="11.6646" y1="59.9102" x2="15.3642" y2="62.2522" gradientUnits="userSpaceOnUse">
<stop stop-color="#33CCCC"/>
<stop offset="1" stop-color="#009999"/>
</linearGradient>
<linearGradient id="paint11_linear_2099_1083" x1="16.1841" y1="55.2178" x2="18.5637" y2="55.9806" gradientUnits="userSpaceOnUse">
<stop stop-color="#33CCCC"/>
<stop offset="1" stop-color="#009999"/>
</linearGradient>
<linearGradient id="paint12_linear_2099_1083" x1="10.3877" y1="55.2178" x2="14.0873" y2="57.5599" gradientUnits="userSpaceOnUse">
<stop stop-color="#33CCCC"/>
<stop offset="1" stop-color="#009999"/>
</linearGradient>
<linearGradient id="paint13_linear_2099_1083" x1="12.0825" y1="62.7979" x2="14.0658" y2="63.3105" gradientUnits="userSpaceOnUse">
<stop stop-color="#33CCCC"/>
<stop offset="1" stop-color="#009999"/>
</linearGradient>
<linearGradient id="paint14_linear_2099_1083" x1="15.1885" y1="62.7979" x2="19.0833" y2="65.6326" gradientUnits="userSpaceOnUse">
<stop stop-color="#33CCCC"/>
<stop offset="1" stop-color="#009999"/>
</linearGradient>
<linearGradient id="paint15_linear_2099_1083" x1="12.9146" y1="65.6836" x2="15.0624" y2="66.2924" gradientUnits="userSpaceOnUse">
<stop stop-color="#33CCCC"/>
<stop offset="1" stop-color="#009999"/>
</linearGradient>
<linearGradient id="paint16_linear_2099_1083" x1="15.9717" y1="65.6836" x2="19.8839" y2="68.5736" gradientUnits="userSpaceOnUse">
<stop stop-color="#33CCCC"/>
<stop offset="1" stop-color="#009999"/>
</linearGradient>
<linearGradient id="paint17_linear_2099_1083" x1="11.5962" y1="39.0215" x2="13.6467" y2="39.5721" gradientUnits="userSpaceOnUse">
<stop stop-color="#33CCCC"/>
<stop offset="1" stop-color="#009999"/>
</linearGradient>
<linearGradient id="paint18_linear_2099_1083" x1="11.8032" y1="40.0713" x2="14.3163" y2="40.9336" gradientUnits="userSpaceOnUse">
<stop stop-color="#33CCCC"/>
<stop offset="1" stop-color="#009999"/>
</linearGradient>
<linearGradient id="paint19_linear_2099_1083" x1="12.0483" y1="41.1211" x2="13.3199" y2="41.3236" gradientUnits="userSpaceOnUse">
<stop stop-color="#33CCCC"/>
<stop offset="1" stop-color="#009999"/>
</linearGradient>
<linearGradient id="paint20_linear_2099_1083" x1="13.7852" y1="41.1211" x2="16.3399" y2="42.0163" gradientUnits="userSpaceOnUse">
<stop stop-color="#33CCCC"/>
<stop offset="1" stop-color="#009999"/>
</linearGradient>
<linearGradient id="paint21_linear_2099_1083" x1="14.9312" y1="40.0713" x2="16.297" y2="40.3059" gradientUnits="userSpaceOnUse">
<stop stop-color="#33CCCC"/>
<stop offset="1" stop-color="#009999"/>
</linearGradient>
<linearGradient id="paint22_linear_2099_1083" x1="20.7935" y1="39.0215" x2="22.8439" y2="39.5721" gradientUnits="userSpaceOnUse">
<stop stop-color="#33CCCC"/>
<stop offset="1" stop-color="#009999"/>
</linearGradient>
<linearGradient id="paint23_linear_2099_1083" x1="21.0005" y1="40.0713" x2="23.5136" y2="40.9336" gradientUnits="userSpaceOnUse">
<stop stop-color="#33CCCC"/>
<stop offset="1" stop-color="#009999"/>
</linearGradient>
<linearGradient id="paint24_linear_2099_1083" x1="21.2456" y1="41.1211" x2="22.5141" y2="41.3226" gradientUnits="userSpaceOnUse">
<stop stop-color="#33CCCC"/>
<stop offset="1" stop-color="#009999"/>
</linearGradient>
<linearGradient id="paint25_linear_2099_1083" x1="22.9839" y1="41.1211" x2="25.5363" y2="42.0144" gradientUnits="userSpaceOnUse">
<stop stop-color="#33CCCC"/>
<stop offset="1" stop-color="#009999"/>
</linearGradient>
<linearGradient id="paint26_linear_2099_1083" x1="24.1284" y1="40.0713" x2="25.4943" y2="40.3059" gradientUnits="userSpaceOnUse">
<stop stop-color="#33CCCC"/>
<stop offset="1" stop-color="#009999"/>
</linearGradient>
<linearGradient id="paint27_linear_2099_1083" x1="27.0605" y1="63.2305" x2="42.9216" y2="71.3602" gradientUnits="userSpaceOnUse">
<stop stop-color="#33CCCC"/>
<stop offset="1" stop-color="#009999"/>
</linearGradient>
<linearGradient id="paint28_linear_2099_1083" x1="25.2842" y1="57.3525" x2="41.1453" y2="65.4823" gradientUnits="userSpaceOnUse">
<stop stop-color="#33CCCC"/>
<stop offset="1" stop-color="#009999"/>
</linearGradient>
<linearGradient id="paint29_linear_2099_1083" x1="25.2715" y1="52.3955" x2="28.209" y2="47.6505" gradientUnits="userSpaceOnUse">
<stop stop-color="#33CCCC"/>
<stop offset="1" stop-color="#009999"/>
</linearGradient>
</defs>
</svg>
