<svg width="214" height="193" viewBox="0 0 214 193" fill="none" xmlns="http://www.w3.org/2000/svg">
<g clip-path="url(#clip0_2603_1611)">
<path d="M150.039 167.569C170.035 166.266 172.618 147.96 164.798 126.191C156.984 104.422 162.984 88.2882 179.687 86.4389C196.39 84.5896 212.047 104.739 206.306 130.412C200.564 156.092 176.311 179.728 143.862 180.82L150.044 167.569H150.039Z" fill="#EAAC71"/>
<path d="M150.039 167.569C170.035 166.266 172.618 147.96 164.798 126.191C156.984 104.422 162.984 88.2882 179.687 86.4389C196.39 84.5896 212.047 104.739 206.306 130.412C200.564 156.092 176.311 179.728 143.862 180.82L150.044 167.569H150.039Z" fill="#AE6745"/>
<path d="M154.953 167.569C174.95 166.266 176.817 146.504 169.003 124.735C161.235 103.095 167.834 88.4936 184.302 86.4799C182.782 86.2862 181.244 86.2686 179.688 86.4388C162.985 88.2882 156.985 104.421 164.799 126.191C172.613 147.96 170.03 166.266 150.04 167.569L143.857 180.82C145.578 180.761 147.268 180.638 148.942 180.456L154.953 167.569Z" fill="#C18B71"/>
<path d="M194.987 125.557C194.629 125.181 194.047 125.175 193.677 125.527C192.538 126.631 191.364 127.799 190.184 129.032C188.394 125.809 186.309 122.492 184.149 119.287C186.186 117.056 188.329 114.813 190.49 112.705C191.341 114.226 192.133 115.758 192.844 117.273C193.002 117.613 193.337 117.807 193.683 117.807C193.812 117.807 193.948 117.778 194.077 117.719C194.535 117.496 194.734 116.95 194.517 116.486C193.719 114.789 192.82 113.081 191.869 111.378C192.679 110.615 193.484 109.875 194.294 109.165C194.676 108.825 194.711 108.237 194.376 107.862C194.036 107.48 193.448 107.445 193.073 107.78C192.362 108.414 191.64 109.065 190.924 109.74C188.805 106.13 186.45 102.613 184.167 99.4193C184.959 98.6385 185.775 97.8694 186.597 97.1121C186.973 96.7715 186.996 96.1845 186.656 95.8028C186.304 95.4212 185.722 95.4036 185.347 95.75C184.578 96.4604 183.814 97.1825 183.063 97.9046C181.63 95.9555 180.245 94.1472 178.983 92.5504C178.665 92.1511 178.09 92.0807 177.685 92.4036C177.286 92.7206 177.221 93.296 177.538 93.7011C178.836 95.3449 180.262 97.206 181.742 99.2256C179.276 101.691 176.963 104.21 174.902 106.57C171.292 101.92 168.65 98.8146 168.579 98.7324C168.25 98.345 167.663 98.298 167.282 98.6326C166.894 98.9673 166.847 99.5426 167.176 99.9301C167.247 100.012 169.977 103.218 173.669 107.997C171.18 110.92 169.131 113.51 167.728 115.341C166.524 113.862 165.785 113.005 165.749 112.969C165.415 112.582 164.834 112.535 164.446 112.87C164.064 113.204 164.018 113.786 164.352 114.167C164.387 114.208 165.227 115.189 166.583 116.856C165.99 117.649 165.661 118.112 165.65 118.136C165.35 118.553 165.45 119.128 165.867 119.422C166.031 119.539 166.213 119.592 166.401 119.592C166.689 119.592 166.976 119.457 167.153 119.204C167.164 119.187 167.382 118.881 167.775 118.347C169.636 120.69 172.078 123.86 174.65 127.477C172.378 130.242 170.517 132.631 169.254 134.269C168.826 133.676 168.403 133.107 167.992 132.561C167.687 132.162 167.106 132.079 166.695 132.39C166.29 132.702 166.213 133.283 166.524 133.688C167.029 134.346 167.552 135.062 168.086 135.807C167.704 136.318 167.493 136.606 167.475 136.629C167.17 137.034 167.258 137.616 167.675 137.921C167.839 138.038 168.027 138.103 168.215 138.103C168.503 138.103 168.785 137.968 168.967 137.721C168.978 137.71 169.055 137.592 169.202 137.404C171.063 140.134 173.012 143.246 174.849 146.434C172.941 148.747 171.239 150.855 169.865 152.581C169.718 152.393 169.618 152.275 169.595 152.246C169.272 151.853 168.685 151.8 168.297 152.123C167.904 152.446 167.845 153.027 168.168 153.42C168.18 153.432 168.374 153.667 168.679 154.072C167.129 156.027 166.207 157.225 166.172 157.277C165.861 157.682 165.937 158.264 166.337 158.575C166.507 158.704 166.706 158.769 166.9 158.769C167.176 158.769 167.452 158.639 167.634 158.405C167.663 158.358 168.462 157.33 169.8 155.634C170.922 157.283 172.249 159.555 172.513 161.352C172.583 161.81 172.971 162.144 173.423 162.144C173.47 162.144 173.511 162.144 173.558 162.133C174.063 162.062 174.409 161.593 174.339 161.088C173.998 158.757 172.272 155.945 170.998 154.131C172.319 152.469 173.969 150.426 175.824 148.166C177.403 150.984 178.877 153.802 180.104 156.414C180.262 156.755 180.597 156.949 180.938 156.949C181.073 156.949 181.202 156.919 181.337 156.861C181.795 156.637 181.994 156.091 181.777 155.628C180.439 152.786 178.818 149.698 177.08 146.639C178.83 144.526 180.732 142.277 182.711 139.999C183.803 141.925 184.818 143.856 185.716 145.764C185.875 146.105 186.204 146.299 186.556 146.299C186.685 146.299 186.82 146.269 186.943 146.211C187.407 145.988 187.607 145.442 187.384 144.978C186.38 142.847 185.229 140.68 183.996 138.531C185.887 136.377 187.83 134.216 189.756 132.167C190.137 132.907 190.501 133.641 190.836 134.363C190.994 134.698 191.329 134.897 191.67 134.897C191.805 134.897 191.934 134.868 192.069 134.809C192.527 134.592 192.726 134.04 192.509 133.582C192.069 132.655 191.599 131.709 191.094 130.753C192.409 129.385 193.701 128.081 194.951 126.872C195.315 126.514 195.327 125.927 194.975 125.568L194.987 125.557ZM182.834 100.74C185.123 103.94 187.46 107.457 189.55 111.05C187.349 113.181 185.17 115.447 183.086 117.719C180.685 114.226 178.237 110.915 176.053 108.061C178.09 105.713 180.38 103.206 182.834 100.734V100.74ZM168.926 116.821C170.264 115.059 172.307 112.465 174.826 109.494C177.004 112.353 179.44 115.658 181.812 119.128C179.681 121.494 177.673 123.837 175.871 126.003C173.247 122.328 170.769 119.128 168.926 116.821ZM176.112 144.919C174.233 141.702 172.26 138.567 170.382 135.848C171.562 134.299 173.434 131.891 175.759 129.044C177.779 131.956 179.846 135.103 181.736 138.303C179.769 140.563 177.861 142.806 176.106 144.919H176.112ZM183.016 136.841C181.096 133.618 179.006 130.465 176.975 127.565C178.759 125.416 180.75 123.073 182.875 120.707C185.03 123.919 187.096 127.23 188.846 130.435C186.902 132.496 184.936 134.663 183.016 136.841Z" fill="#924921"/>
<path d="M171.768 134.052C171.592 133.301 171.41 132.538 171.204 131.774C170.458 132.72 169.807 133.571 169.261 134.269C168.832 133.676 168.41 133.107 167.999 132.561C167.705 132.179 167.159 132.091 166.76 132.356C166.989 133.195 167.2 134.023 167.394 134.839C167.623 135.162 167.858 135.479 168.092 135.813C167.94 136.019 167.817 136.177 167.723 136.313C167.852 136.911 167.969 137.504 168.069 138.097C168.122 138.109 168.175 138.109 168.222 138.109C168.509 138.109 168.791 137.974 168.973 137.727C168.985 137.716 169.061 137.598 169.208 137.41C170.523 139.336 171.873 141.455 173.206 143.657C173.13 142.301 172.989 140.909 172.789 139.483C171.979 138.221 171.175 136.994 170.382 135.855C170.77 135.344 171.239 134.739 171.768 134.052Z" fill="#A66A49"/>
<path d="M167.03 99.6896C167.159 99.2903 167.306 98.897 167.459 98.5154C167.394 98.5447 167.33 98.5858 167.277 98.6328C166.966 98.9029 166.878 99.3256 167.03 99.6896Z" fill="#A66A49"/>
<path d="M173.218 148.43C171.967 149.963 170.834 151.366 169.871 152.581C169.725 152.393 169.625 152.276 169.601 152.246C169.314 151.894 168.815 151.818 168.439 152.035C168.351 152.493 168.263 152.945 168.157 153.391C168.157 153.403 168.169 153.415 168.175 153.421C168.181 153.426 168.38 153.667 168.685 154.072C168.257 154.618 167.875 155.1 167.546 155.516C167.188 156.562 166.76 157.554 166.255 158.487C166.284 158.517 166.308 158.546 166.343 158.575C166.513 158.704 166.713 158.769 166.907 158.769C167.182 158.769 167.458 158.64 167.64 158.405C167.67 158.358 168.468 157.331 169.807 155.634C170.218 156.239 170.658 156.926 171.057 157.636C171.38 156.949 171.668 156.233 171.914 155.481C171.603 154.988 171.298 154.53 171.004 154.119C171.556 153.426 172.167 152.663 172.819 151.853C173.012 150.749 173.141 149.61 173.218 148.43Z" fill="#A66A49"/>
<path d="M166.584 116.856C165.991 117.649 165.662 118.112 165.65 118.136C165.351 118.553 165.451 119.128 165.868 119.422C166.032 119.539 166.214 119.592 166.402 119.592C166.69 119.592 166.977 119.457 167.153 119.204C167.153 119.193 167.189 119.151 167.247 119.069C166.748 117.108 166.372 115.218 166.126 113.404C165.897 113.134 165.768 112.981 165.75 112.963C165.416 112.576 164.834 112.529 164.447 112.864C164.065 113.198 164.018 113.78 164.353 114.161C164.388 114.202 165.228 115.183 166.584 116.85V116.856Z" fill="#A66A49"/>
<path d="M179.693 86.4389C178.63 86.5563 177.738 86.8968 176.763 87.1258C192.045 87.2608 205.601 105.86 200.3 129.555C195.08 152.91 173.933 174.274 145.342 177.661L143.862 180.826C176.317 179.728 200.57 156.097 206.311 130.418C212.053 104.739 196.395 84.5896 179.693 86.4389Z" fill="#924921"/>
<path d="M179.692 86.4389C178.63 86.5563 177.814 86.7618 176.839 86.9908C192.086 86.1865 205.601 105.86 200.305 129.555C195.086 152.91 173.939 174.274 145.348 177.661L143.868 180.826C176.323 179.728 200.575 156.097 206.317 130.418C212.059 104.739 196.401 84.5896 179.698 86.4389H179.692Z" stroke="#592832" stroke-width="3.1703" stroke-linecap="round" stroke-linejoin="round"/>
<path d="M150.039 167.569C170.035 166.266 172.618 147.96 164.798 126.191C156.984 104.422 162.984 88.2882 179.687 86.4389C196.39 84.5896 212.047 104.739 206.306 130.412C200.564 156.092 176.311 179.728 143.862 180.82L150.044 167.569H150.039Z" stroke="#592832" stroke-width="3.1703" stroke-linecap="round" stroke-linejoin="round"/>
<path d="M140.694 103.7C131.383 108.643 119.271 111.626 106.02 111.626C97.4898 111.626 89.429 110.387 82.2841 108.185C83.5639 113.939 84.5914 123.461 80.7107 132.679C74.5756 147.25 64.6008 179.083 109.472 179.083C137.723 179.083 159.322 151.601 152.36 130.377C149.031 121.864 140.841 114.432 140.694 103.7Z" fill="#EAAC71"/>
<path d="M84.2215 132.678C87.8791 123.995 87.1746 115.042 86.0121 109.224C84.744 108.907 83.4994 108.561 82.2841 108.185C83.5639 113.938 84.5914 123.461 80.7107 132.678C74.5756 147.25 64.6008 179.082 109.472 179.082C109.948 179.082 110.418 179.071 110.887 179.059C68.4287 178.072 78.1803 147.021 84.2215 132.678Z" fill="#F5D7BB"/>
<path d="M134.893 171.033C126.809 164.376 120.739 153.591 119.488 140.416C117.416 118.577 88.8419 115.541 82.196 128.322C81.8085 129.772 81.3213 131.228 80.7107 132.679C74.5756 147.25 64.6008 179.082 109.472 179.082C118.977 179.082 127.725 175.971 134.888 171.033H134.893Z" fill="#FFE5C0"/>
<path d="M119.781 177.843C120.421 177.691 121.05 177.515 121.678 177.333C121.854 177.28 122.03 177.227 122.206 177.174C122.658 177.039 123.104 176.892 123.545 176.746C123.744 176.675 123.95 176.605 124.149 176.534C124.584 176.382 125.013 176.217 125.441 176.053C125.617 175.982 125.793 175.918 125.969 175.847C127.155 175.366 128.312 174.838 129.445 174.268C129.615 174.18 129.786 174.092 129.95 174.004C130.349 173.798 130.743 173.587 131.13 173.37C131.318 173.264 131.506 173.158 131.694 173.047C132.075 172.824 132.457 172.601 132.827 172.372C132.991 172.272 133.161 172.172 133.32 172.066C133.848 171.732 134.371 171.391 134.882 171.039C134.418 170.657 133.96 170.258 133.514 169.847C133.384 169.73 133.255 169.601 133.126 169.477C132.809 169.178 132.486 168.879 132.175 168.567C132.034 168.426 131.893 168.28 131.752 168.133C131.459 167.828 131.165 167.516 130.878 167.199C130.737 167.047 130.602 166.888 130.467 166.736C130.185 166.413 129.903 166.09 129.627 165.755C125.277 160.483 121.954 153.778 120.333 146.046C117.856 149.681 113.822 157.595 116.147 168.262C116.482 169.794 115.484 171.309 113.952 171.655C100.425 174.732 86.3818 172.26 76.636 163.26L76.4951 163.237C79.4952 172.131 88.4894 179.088 109.46 179.088C113.018 179.088 116.464 178.654 119.764 177.849L119.781 177.843Z" fill="#DBAB7A"/>
<path d="M84.2215 132.679C85.5072 129.626 86.2469 126.543 86.6227 123.573C84.7499 124.776 83.2117 126.361 82.196 128.322C82.108 128.663 82.0081 128.997 81.9083 129.338C81.8848 129.42 81.8555 129.508 81.832 129.59C81.7557 129.837 81.6735 130.089 81.5913 130.336C81.5561 130.442 81.5209 130.553 81.4798 130.659C81.3976 130.9 81.3095 131.134 81.2214 131.375C81.1862 131.475 81.1451 131.575 81.1099 131.675C80.9807 132.009 80.8516 132.338 80.7107 132.673C74.5756 147.244 64.6008 179.076 109.472 179.076C109.919 179.076 110.359 179.065 110.805 179.047C68.4463 178.026 78.1862 147.004 84.2215 132.673V132.679Z" fill="#FFF7EC"/>
<path d="M152.359 130.377C149.641 123.426 143.688 117.203 141.51 109.312C141.398 108.907 141.298 108.496 141.21 108.079C141.193 108.009 141.181 107.944 141.163 107.874C141.075 107.451 140.993 107.023 140.928 106.588C140.928 106.582 140.928 106.57 140.928 106.565C140.87 106.16 140.823 105.749 140.787 105.332C140.776 105.226 140.77 105.12 140.764 105.015C140.729 104.586 140.705 104.152 140.699 103.705C131.388 108.649 119.276 111.631 106.026 111.631C97.4952 111.631 89.4344 110.392 82.2895 108.191C82.3482 108.461 82.4069 108.743 82.4656 109.025C82.4832 109.107 82.5008 109.189 82.5184 109.277C82.5654 109.506 82.6065 109.735 82.6535 109.97C82.6652 110.046 82.6828 110.122 82.6946 110.205C82.7474 110.504 82.8003 110.815 82.8531 111.126C82.8648 111.203 82.8766 111.285 82.8883 111.361C82.9235 111.573 82.9529 111.79 82.9823 112.013C91.6125 116.31 105.386 118.101 120.697 116.328C122.417 116.029 124.102 115.682 125.746 115.283C129.738 114.314 133.854 116.316 135.509 120.085C138.21 126.244 142.713 131.528 144.973 137.311C148.49 148.025 144.721 160.331 136.496 169.894C149.623 160.019 156.815 143.927 152.371 130.383L152.359 130.377Z" fill="#D6823C"/>
<path d="M140.694 103.7C131.383 108.643 119.271 111.626 106.02 111.626C97.4898 111.626 89.429 110.387 82.2841 108.185C83.5639 113.939 84.5914 123.461 80.7107 132.679C74.5756 147.25 64.6008 179.083 109.472 179.083C137.723 179.083 159.322 151.601 152.36 130.377C149.031 121.864 140.841 114.432 140.694 103.7V103.7Z" stroke="#592832" stroke-width="3.1703" stroke-linecap="round" stroke-linejoin="round"/>
<path d="M149.041 123.808C150.468 125.64 156.538 133.331 158.857 137.194C164.993 147.421 166.184 162.081 158.006 173.5C149.822 184.919 133.29 185.259 125.875 175.883C114.896 162.01 119.058 149.511 122.058 143.828C135.18 142.043 141.814 132.515 149.041 123.802V123.808Z" fill="#EAAC71"/>
<path d="M126.14 170.652C120.169 159.127 122.065 149.875 125.083 143.792C125.717 142.518 124.707 141.062 123.287 141.133H123.251C119.782 146.54 114.586 158.652 124.355 173.394C129.205 180.709 139.379 183.21 148.056 179.805C139.332 181.766 130.032 178.167 126.14 170.652Z" fill="#F5D7BB"/>
<path d="M158.856 137.194C156.537 133.331 150.467 125.64 149.04 123.808C146.798 126.509 144.614 129.291 142.277 131.892C143.111 133.078 143.856 134.182 144.39 135.074C150.526 145.301 151.717 159.961 143.539 171.38C140.205 176.036 135.473 178.854 130.541 179.916C138.854 184.789 151.259 182.911 158.005 173.5C166.189 162.081 164.992 147.421 158.856 137.194Z" fill="#D6823C"/>
<path d="M124.089 140.605C124.089 140.605 110.903 156.973 125.874 175.889C133.295 185.265 149.827 184.924 158.005 173.505C166.19 162.086 164.992 147.427 158.857 137.2C152.722 126.972 149.634 125.745 146.645 120.068" stroke="#592832" stroke-width="3.1703" stroke-linecap="round" stroke-linejoin="round"/>
<path d="M152.212 189.181H111.644C111.644 189.181 112.659 178.613 125.869 175.883C139.084 173.153 152.916 180.997 153.668 184.408C154.419 187.819 152.206 189.181 152.206 189.181H152.212Z" fill="#AE6745"/>
<path d="M152.212 189.181H111.644C111.644 189.181 112.659 178.613 125.869 175.883C139.084 173.153 152.916 180.997 153.668 184.408C154.419 187.819 152.206 189.181 152.206 189.181H152.212Z" fill="#AE6745"/>
<path d="M127.683 177.962C138.228 175.784 149.153 180.334 153.527 183.997C151.854 180.416 138.586 173.265 125.875 175.889C112.66 178.619 111.65 189.187 111.65 189.187H113.94C114.979 185.964 118.167 179.934 127.683 177.968V177.962Z" fill="#C18B71"/>
<path d="M153.674 184.408C153.422 183.269 151.707 181.637 149.054 180.069C148.613 180.116 148.173 180.169 147.733 180.228C142.713 180.927 139.461 182.383 137.347 183.921C135.486 185.277 133.249 186.005 130.948 186.005H112.525C111.773 187.843 111.638 189.175 111.638 189.175H152.206C152.206 189.175 154.42 187.813 153.668 184.402L153.674 184.408Z" fill="#924921"/>
<path d="M152.212 189.181H111.644C111.644 189.181 112.659 178.613 125.869 175.883C139.084 173.153 152.916 180.997 153.668 184.408C154.419 187.819 152.206 189.181 152.206 189.181H152.212Z" stroke="#592832" stroke-width="3.1703" stroke-linecap="round" stroke-linejoin="round"/>
<path d="M126.262 189.181C126.262 189.181 128.129 183.322 132.738 181.836" stroke="#592832" stroke-width="3.1703" stroke-linecap="round" stroke-linejoin="round"/>
<path d="M117.304 189.181C117.304 189.181 119.171 183.322 123.78 181.836" stroke="#592832" stroke-width="3.1703" stroke-linecap="round" stroke-linejoin="round"/>
<path d="M96.9886 178.061C96.7537 178.02 96.5189 177.973 96.2899 177.926C96.0199 177.873 95.7498 177.815 95.4798 177.756C95.2567 177.709 95.0277 177.656 94.8105 177.609C94.5521 177.55 94.2938 177.486 94.0414 177.421C93.8241 177.368 93.6069 177.316 93.3956 177.257C93.149 177.192 92.9024 177.122 92.6617 177.051C92.4562 176.993 92.2449 176.934 92.0453 176.869C91.8045 176.799 91.5756 176.723 91.3407 176.646C91.147 176.582 90.9474 176.517 90.7536 176.452C90.5247 176.37 90.3016 176.288 90.0785 176.206C89.8965 176.135 89.7086 176.071 89.5266 176C89.3035 175.912 89.0863 175.818 88.8691 175.73C88.6988 175.66 88.5286 175.589 88.3642 175.519C88.1293 175.419 87.9062 175.308 87.6773 175.202C87.5364 175.137 87.3955 175.073 87.2546 175.008C86.9023 174.838 86.5618 174.662 86.233 174.48C86.0804 174.398 85.9336 174.31 85.781 174.222C85.599 174.116 85.417 174.016 85.2409 173.91C85.0823 173.816 84.9297 173.717 84.777 173.617C84.6185 173.517 84.46 173.417 84.3132 173.317C84.1606 173.212 84.008 173.106 83.8612 173C83.7203 172.901 83.5735 172.801 83.4385 172.701C83.2917 172.589 83.1449 172.478 83.004 172.366C82.8749 172.267 82.7398 172.161 82.6107 172.055C82.4698 171.938 82.3347 171.82 82.1938 171.703C82.0705 171.597 81.9531 171.497 81.8357 171.386C81.7007 171.263 81.5715 171.139 81.4424 171.016C81.3308 170.91 81.2193 170.805 81.1136 170.699C80.9844 170.57 80.8611 170.441 80.7378 170.312C80.638 170.206 80.5382 170.094 80.4384 169.989C80.321 169.854 80.1977 169.724 80.0862 169.589C79.9922 169.484 79.9042 169.372 79.8161 169.266C79.7046 169.126 79.593 168.985 79.4815 168.844C79.3993 168.738 79.3171 168.627 79.2408 168.521C79.1351 168.374 79.0294 168.227 78.9237 168.081C78.8533 167.975 78.7828 167.869 78.7124 167.758C78.6126 167.605 78.5069 167.452 78.413 167.294C78.3484 167.194 78.2897 167.088 78.231 166.983C78.1312 166.818 78.0372 166.66 77.9433 166.49C77.8904 166.396 77.8435 166.308 77.7965 166.214C77.7026 166.032 77.6028 165.855 77.5147 165.673C77.4854 165.615 77.4619 165.556 77.4325 165.497C77.0744 164.752 76.7632 163.994 76.499 163.214C73.4579 154.208 76.5577 143.217 79.5813 135.432C67.0233 142.63 61.7865 170.752 85.5637 178.038C90.7008 179.376 94.6813 179.194 97.7694 178.179C97.5052 178.137 97.241 178.09 96.9827 178.044L96.9886 178.061Z" fill="#EAAC71"/>
<path d="M78.2249 139.208C78.6476 137.945 79.088 136.742 79.5283 135.597C79.358 135.55 79.1819 135.497 79.0116 135.45C66.4537 142.648 61.2168 170.77 84.9941 178.056C88.3347 178.924 91.1879 179.153 93.6244 178.93C92.0979 178.801 90.4482 178.525 88.6576 178.056C67.9567 171.709 69.2541 149.57 78.2249 139.202V139.208Z" fill="#F5D7BB"/>
<path d="M96.9886 178.061C96.7537 178.02 96.5189 177.973 96.2899 177.926C96.0199 177.873 95.7498 177.815 95.4798 177.756C95.2567 177.709 95.0277 177.656 94.8105 177.609C94.5521 177.55 94.2938 177.486 94.0414 177.421C93.8241 177.368 93.6069 177.316 93.3956 177.257C93.149 177.192 92.9024 177.122 92.6617 177.051C92.4562 176.993 92.2449 176.934 92.0453 176.869C91.8045 176.799 91.5756 176.723 91.3407 176.646C91.147 176.582 90.9474 176.517 90.7536 176.453C90.5247 176.37 90.3016 176.288 90.0785 176.206C89.8965 176.135 89.7086 176.071 89.5266 176C89.3035 175.912 89.0863 175.818 88.8691 175.73C88.6988 175.66 88.5286 175.589 88.3642 175.519C88.1293 175.419 87.9062 175.308 87.6773 175.202C87.5364 175.137 87.3955 175.073 87.2546 175.008C86.9023 174.838 86.5618 174.662 86.233 174.48C86.0804 174.398 85.9336 174.31 85.781 174.222C85.599 174.116 85.417 174.016 85.2409 173.91C85.0823 173.816 84.9297 173.717 84.777 173.617C84.6185 173.517 84.46 173.417 84.3132 173.317C84.1606 173.212 84.008 173.106 83.8612 173C83.7203 172.901 83.5735 172.801 83.4385 172.701C83.2917 172.589 83.1449 172.478 83.004 172.366C82.8749 172.267 82.7398 172.161 82.6107 172.055C82.4698 171.938 82.3347 171.82 82.1938 171.703C82.0705 171.597 81.9531 171.497 81.8357 171.386C81.7007 171.263 81.5715 171.139 81.4424 171.016C81.3308 170.91 81.2193 170.805 81.1136 170.699C80.9844 170.57 80.8611 170.441 80.7378 170.312C80.638 170.206 80.5382 170.094 80.4384 169.989C80.321 169.854 80.1977 169.724 80.0862 169.589C79.9922 169.484 79.9042 169.372 79.8161 169.266C79.7046 169.126 79.593 168.985 79.4815 168.844C79.3993 168.738 79.3171 168.627 79.2408 168.521C79.1351 168.374 79.0294 168.227 78.9237 168.081C78.8533 167.975 78.7828 167.869 78.7124 167.758C78.6126 167.605 78.5069 167.452 78.413 167.294C78.3484 167.194 78.2897 167.088 78.231 166.983C78.1312 166.818 78.0372 166.66 77.9433 166.49C77.8904 166.396 77.8435 166.308 77.7965 166.214C77.7026 166.032 77.6028 165.855 77.5147 165.673C77.4854 165.615 77.4619 165.556 77.4325 165.497C77.0744 164.752 76.7632 163.994 76.499 163.214C73.4579 154.208 76.5577 143.217 79.5813 135.432C67.0233 142.63 61.7865 170.752 85.5637 178.038C90.7008 179.376 94.6813 179.194 97.7694 178.179C97.5052 178.137 97.241 178.09 96.9827 178.044L96.9886 178.061Z" stroke="#592832" stroke-width="3.1703" stroke-linecap="round" stroke-linejoin="round"/>
<path d="M104.427 189.181H63.8591C63.8591 189.181 64.8747 178.613 78.0843 175.883C91.2998 173.153 105.132 180.997 105.883 184.408C106.635 187.819 104.421 189.181 104.421 189.181H104.427Z" fill="#AE6745"/>
<path d="M104.427 189.181H63.8591C63.8591 189.181 64.8747 178.613 78.0843 175.883C91.2998 173.153 105.132 180.997 105.883 184.408C106.635 187.819 104.421 189.181 104.421 189.181H104.427Z" fill="#AE6745"/>
<path d="M79.8926 177.962C90.4368 175.784 101.363 180.334 105.736 183.997C104.063 180.416 90.7949 173.265 78.0843 175.889C64.8689 178.619 63.8591 189.187 63.8591 189.187H66.1487C67.1879 185.964 70.3758 179.935 79.8926 177.968V177.962Z" fill="#C18B71"/>
<path d="M105.89 184.408C105.637 183.269 103.923 181.637 101.269 180.07C100.829 180.117 100.389 180.169 99.9482 180.228C94.9286 180.927 91.6761 182.383 89.5626 183.921C87.7015 185.277 85.4647 186.005 83.1633 186.005H64.7403C63.9888 187.843 63.8538 189.175 63.8538 189.175H104.422C104.422 189.175 106.635 187.813 105.884 184.402L105.89 184.408Z" fill="#924921"/>
<path d="M78.4779 189.181C78.4779 189.181 80.3449 183.322 84.9535 181.836" stroke="#592832" stroke-width="3.1703" stroke-linecap="round" stroke-linejoin="round"/>
<path d="M69.5196 189.181C69.5196 189.181 71.3865 183.322 75.9952 181.836" stroke="#592832" stroke-width="3.1703" stroke-linecap="round" stroke-linejoin="round"/>
<path d="M97.3469 178.126C97.2294 178.103 97.1061 178.085 96.9887 178.062C96.7539 178.021 96.5191 177.974 96.2901 177.927C96.02 177.874 95.75 177.815 95.4799 177.756C95.2568 177.709 95.0278 177.657 94.8106 177.61C94.5523 177.551 94.294 177.486 94.0415 177.422C93.8243 177.369 93.6071 177.316 93.3957 177.257C93.1491 177.193 92.9026 177.122 92.6619 177.052C92.4564 176.993 92.245 176.934 92.0454 176.87C91.8047 176.799 91.5757 176.723 91.3409 176.647C91.1472 176.582 90.9475 176.518 90.7538 176.453C90.5248 176.371 90.3017 176.289 90.0786 176.206C89.8966 176.136 89.7088 176.071 89.5268 176.001C89.3037 175.913 89.0865 175.819 88.8692 175.731C88.8575 175.731 88.8516 175.725 88.8399 175.719C85.3995 175.185 81.7184 175.132 78.0843 175.878C64.8689 178.608 63.8591 189.175 63.8591 189.175H104.427C104.427 189.175 106.641 187.813 105.889 184.402C105.531 182.776 102.179 180.134 97.3469 178.12V178.126Z" stroke="#592832" stroke-width="3.1703" stroke-linecap="round" stroke-linejoin="round"/>
<path d="M95.1771 22.6633C83.4587 27.0665 68.0182 12.8177 57.1511 22.6633C49.4014 29.679 58.0611 42.2546 67.4369 44.7732L95.1771 22.6633Z" fill="#EAAC71"/>
<path d="M55.7187 26.5027C65.259 17.8666 78.3159 27.7767 89.2887 27.3599L95.1772 22.669C83.4589 27.0722 68.0183 12.8234 57.1512 22.669C55.3606 24.2894 54.4565 26.2033 54.2216 28.2229C54.6326 27.6241 55.1199 27.0428 55.7187 26.5027Z" fill="#F5D7BB"/>
<path d="M95.1771 22.6633C83.4587 27.0665 68.0182 12.8177 57.1511 22.6633C49.4014 29.679 58.0611 42.2546 67.4369 44.7732L95.1771 22.6633V22.6633Z" stroke="#592832" stroke-width="3.1703" stroke-linecap="round" stroke-linejoin="round"/>
<path d="M57.0323 37.2523C59.551 40.7866 63.4258 43.6985 67.4356 44.7788L78.5552 35.9196C64.5824 17.4907 53.2808 31.5222 57.0382 37.2581L57.0323 37.2523Z" fill="#EE857B"/>
<path d="M61.6595 35.1388C60.1389 32.8139 61.09 29.127 63.685 26.7904C57.8845 27.5066 54.7964 33.8414 57.0273 37.2524C59.546 40.7867 63.4208 43.6986 67.4306 44.7789L70.6538 42.2074C67.1606 40.8924 63.8846 38.2563 61.6595 35.1388Z" fill="#FFBAB0"/>
<path d="M57.0323 37.2523C59.551 40.7866 63.4258 43.6985 67.4356 44.7788L78.5552 35.9196C64.5824 17.4907 53.2808 31.5222 57.0382 37.2581L57.0323 37.2523Z" stroke="#592832" stroke-width="3.1703" stroke-linecap="round" stroke-linejoin="round"/>
<path d="M157.772 22.6635C149.512 17.3092 139.167 24.0784 131.987 25.8456C124.484 21.096 115.948 18.2603 106.895 18.2603C76.9765 18.2603 52.7178 51.7598 52.7178 78.179C52.7178 96.6255 76.9706 111.585 106.895 111.585C136.819 111.585 161.072 96.6314 161.072 78.179C161.072 68.5331 158.389 58.6758 153.71 49.8166C167.383 43.2059 168.886 29.8671 157.772 22.6635Z" fill="#EAAC71"/>
<path d="M158.325 23.0448C160.485 29.6144 157.092 37.2818 148.08 42.1899C153.258 50.9434 156.464 60.8066 156.933 70.5876C157.838 89.2924 133.972 105.643 103.637 107.111C88.9833 107.821 75.4978 104.921 65.3704 99.6311C75.3099 106.94 90.2221 111.584 106.896 111.584C136.814 111.584 161.072 96.631 161.072 78.1787C161.072 68.5327 158.389 58.6755 153.71 49.8162C167.149 43.3171 168.822 30.3247 158.325 23.0448Z" fill="#D6823C"/>
<path d="M157.773 22.6632C149.512 17.3089 139.168 24.0781 131.987 25.8452C130.725 25.0468 129.434 24.307 128.118 23.6201L127.602 24.6064C133.332 29.4852 137.389 28.8981 143.753 25.9685C151.109 22.581 163.561 24.9 165.135 35.315C165.346 30.63 162.91 25.992 157.773 22.6632Z" fill="#F5D7BB"/>
<path d="M57.2325 78.179C57.2325 52.4233 80.2935 19.9335 109.179 18.3308C108.421 18.2897 107.658 18.2603 106.895 18.2603C76.9765 18.2603 52.7178 51.7598 52.7178 78.179C52.7178 96.6255 76.9706 111.585 106.895 111.585C107.652 111.585 108.404 111.573 109.149 111.555C80.2759 110.827 57.2325 96.1676 57.2325 78.1849V78.179Z" fill="#F5D7BB"/>
<path d="M98.5527 31.951C93.492 26.7787 88.5898 24.9587 84.5623 24.6123C81.0691 26.6554 77.7696 29.1212 74.7167 31.9099C77.1062 37.9687 87.6563 41.591 98.5468 31.951H98.5527Z" fill="#D6823C"/>
<path d="M157.772 22.6635C149.512 17.3092 139.167 24.0784 131.987 25.8456C124.484 21.096 115.948 18.2603 106.895 18.2603C76.9765 18.2603 52.7178 51.7598 52.7178 78.179C52.7178 96.6255 76.9706 111.585 106.895 111.585C136.819 111.585 161.072 96.6314 161.072 78.179C161.072 68.5331 158.389 58.6758 153.71 49.8166C167.383 43.2059 168.886 29.8671 157.772 22.6635V22.6635Z" stroke="#592832" stroke-width="3.1703" stroke-linecap="round" stroke-linejoin="round"/>
<path d="M165.088 33.4719C166.279 38.0453 161.947 45.7773 153.868 49.7461C150.886 44.4916 147.322 39.4837 142.919 34.8339C142.919 34.8339 161.829 21.0196 165.088 33.4777V33.4719Z" fill="white"/>
<path d="M165.088 33.4719C166.279 38.0453 161.947 45.7773 153.868 49.7461C150.886 44.4916 147.322 39.4837 142.919 34.8339C142.919 34.8339 161.829 21.0196 165.088 33.4777V33.4719Z" fill="#EE857B"/>
<path d="M165.088 33.4716C164.119 29.767 161.765 28.3873 158.935 28.2758C159.78 29.1329 160.426 30.3306 160.784 31.9745C161.671 36.0254 158.207 42.3367 151.784 46.2819C152.506 47.4268 153.205 48.5775 153.868 49.7458C161.947 45.7829 166.28 38.045 165.088 33.4716Z" fill="#FFBAB0"/>
<path d="M165.088 33.4719C166.279 38.0453 161.947 45.7773 153.868 49.7461C150.886 44.4916 147.322 39.4837 142.919 34.8339C142.919 34.8339 161.829 21.0196 165.088 33.4777V33.4719Z" stroke="#592832" stroke-width="3.1703" stroke-linecap="round" stroke-linejoin="round"/>
<path d="M125.066 22.1702C123.287 21.4129 121.05 20.5733 118.397 19.7984C95.3828 14.2738 86.8406 -2.15892 82.4139 6.95863C77.9872 16.0762 90.052 21.8356 90.052 21.8356C90.052 21.8356 79.8013 22.7162 80.0655 28.8396C80.3356 34.9747 94.1323 36.6538 101.166 30.0138C110.735 29.3386 119.125 27.2427 125.066 22.1702Z" fill="#EAAC71"/>
<path d="M119.018 23.3972C126.891 24.36 128.652 25.041 129.862 25.4872C131.3 24.6712 123.826 23.2328 125.071 22.176C123.292 21.4187 121.055 20.5791 118.401 19.8042C95.3874 14.2796 86.8452 -2.14726 82.4186 6.96443C81.9078 8.00358 81.626 9.00164 81.5027 9.95273C86.0703 2.81368 94.771 19.0585 119.024 23.3972H119.018Z" fill="#F5D7BB"/>
<path d="M89.5288 21.8999C88.2607 22.0702 84.9436 22.6455 82.5953 24.2659C86.5699 25.9626 93.4741 26.7082 97.1258 23.3031C94.114 23.1798 91.5778 22.716 89.5288 21.894V21.8999Z" fill="#D6823C"/>
<path d="M129.974 24.63C129.974 24.63 125.812 21.9646 118.397 19.8041C95.3828 14.2795 86.8406 -2.15322 82.4139 6.96434C77.9872 16.0819 90.052 21.8413 90.052 21.8413C90.052 21.8413 79.8013 22.7219 80.0655 28.8453C80.3356 34.9804 94.1323 36.6595 101.166 30.0195" stroke="#592832" stroke-width="3.1703" stroke-linecap="round" stroke-linejoin="round"/>
<path d="M97.777 22.5929C97.777 22.5929 89.7456 23.4677 86.1408 19.27" stroke="#592832" stroke-width="3.1703" stroke-linecap="round" stroke-linejoin="round"/>
<path d="M68.0187 77.8672C71.715 77.8672 74.7115 74.2793 74.7115 69.8533C74.7115 65.4274 71.715 61.8395 68.0187 61.8395C64.3223 61.8395 61.3258 65.4274 61.3258 69.8533C61.3258 74.2793 64.3223 77.8672 68.0187 77.8672Z" fill="#592832"/>
<path d="M70.1737 70.1702C71.1464 70.1702 71.935 69.3133 71.935 68.2563C71.935 67.1993 71.1464 66.3424 70.1737 66.3424C69.201 66.3424 68.4124 67.1993 68.4124 68.2563C68.4124 69.3133 69.201 70.1702 70.1737 70.1702Z" fill="white"/>
<path d="M119.935 82.1589C125.195 82.1589 129.458 77.8955 129.458 72.6363C129.458 67.3771 125.195 63.1136 119.935 63.1136C114.676 63.1136 110.413 67.3771 110.413 72.6363C110.413 77.8955 114.676 82.1589 119.935 82.1589Z" fill="#592832"/>
<path d="M116.201 72.9414C117.495 72.9414 118.543 71.8926 118.543 70.5989C118.543 69.3052 117.495 68.2564 116.201 68.2564C114.907 68.2564 113.858 69.3052 113.858 70.5989C113.858 71.8926 114.907 72.9414 116.201 72.9414Z" fill="white"/>
<path d="M95.3067 86.9085C99.4537 86.9085 102.816 83.9146 102.816 80.2215C102.816 76.5284 99.4537 73.5345 95.3067 73.5345C91.1596 73.5345 87.7977 76.5284 87.7977 80.2215C87.7977 83.9146 91.1596 86.9085 95.3067 86.9085Z" fill="#FFE5C0"/>
<path d="M83.5641 85.8284C86.6735 85.8284 89.1943 83.1736 89.1943 79.8987C89.1943 76.6239 86.6735 73.9691 83.5641 73.9691C80.4546 73.9691 77.9338 76.6239 77.9338 79.8987C77.9338 83.1736 80.4546 85.8284 83.5641 85.8284Z" fill="#FFE5C0"/>
<path d="M88.2368 82.799C83.6809 82.9751 80.8394 75.0905 83.4696 74.0454C86.0998 73.0004 93.0216 73.3351 93.368 75.6423C93.7144 77.9496 92.0059 82.6522 88.2368 82.799Z" fill="#DBAB7A"/>
<path d="M88.1495 80.5385C83.5937 80.7147 80.8226 74.7615 83.4645 73.9396C86.1065 73.1236 93.0224 73.3114 93.3453 75.061C93.6741 76.8105 91.9187 80.3918 88.1495 80.5385Z" fill="#592832"/>
<path d="M99.9611 86.2159C97.0667 87.2198 93.1156 86.6151 90.6087 84.7834C88.9355 83.5622 88.3425 82.9575 88.0783 79.6757" stroke="#592832" stroke-width="3.1703" stroke-linecap="round" stroke-linejoin="round"/>
<path d="M88.5069 82.5761C87.4561 85.0653 83.9922 86.6505 80.728 85.8109" stroke="#592832" stroke-width="3.1703" stroke-linecap="round" stroke-linejoin="round"/>
<path d="M83.334 85.6815C83.334 85.6815 83.4103 85.9222 83.5453 86.3273C84.1735 88.2177 86.0346 93.6366 86.8389 93.9595C87.8135 94.3528 93.8077 94.6112 94.4594 93.9595C95.1111 93.3078 96.0328 86.8381 96.0328 86.8381C96.0328 86.8381 91.7118 87.6717 88.7059 83.1041C88.7059 83.1041 85.8291 86.5739 83.3398 85.6815H83.334Z" fill="white"/>
<path d="M96.0343 86.8381C96.0343 86.8381 91.7133 87.6717 88.7074 83.1041C88.7074 83.1041 85.8306 86.5739 83.3414 85.6815C83.3414 85.6815 83.4177 85.9222 83.5527 86.3273C83.7758 86.9907 84.1457 88.0886 84.5684 89.2451C85.9715 89.0984 87.7681 88.6346 88.9951 87.343C90.3395 89.4271 93.3454 90.0495 95.5118 90.0671C95.8171 88.3997 96.0402 86.8381 96.0402 86.8381H96.0343Z" fill="#C6AEA7"/>
<path d="M83.3871 86.0103C83.3871 86.0103 83.4164 85.9222 83.5515 86.3273C84.1797 88.2177 86.0407 93.6366 86.8451 93.9595C87.8196 94.3528 93.8139 94.6112 94.4655 93.9595C95.1172 93.3078 95.992 86.9672 95.992 86.9672C95.992 86.9672 91.2835 86.1101 88.712 83.1041C88.712 83.1041 87.3734 86.0161 83.3929 86.0161L83.3871 86.0103Z" stroke="#592832" stroke-width="3.1703" stroke-linecap="round" stroke-linejoin="round"/>
<path d="M90.0626 93.6659C90.0626 93.6659 88.7123 87.1492 88.7064 83.1041" stroke="#592832" stroke-width="1.35031" stroke-linecap="round" stroke-linejoin="round"/>
<path d="M82.8933 111.455C77.8149 111.208 71.7385 110.815 68.4097 110.269C61.9869 109.212 50.7089 101.286 46.564 105.566C43.6226 108.954 50.2274 113.873 50.2274 113.873C50.2274 113.873 46.8751 117.942 49.1472 122.451C51.4192 126.96 55.5935 126.496 55.5935 126.496C55.5935 126.496 58.5407 130.788 64.259 127.494C67.4351 128.269 75.173 130.124 81.1496 131.551C83.8972 124.271 83.727 116.915 82.8933 111.455Z" fill="#EAAC71"/>
<path d="M64.2584 127.494C67.4346 128.269 75.1725 130.124 81.1491 131.551C82.6168 127.659 83.2509 123.748 83.3918 120.114C81.6481 127.242 66.5305 122.563 66.5305 122.563C66.5305 122.563 64.4874 123.842 60.0666 122.563C55.6458 121.283 54.6536 116.991 49.0116 112.846C49.6985 113.486 50.2269 113.874 50.2269 113.874C50.2269 113.874 46.8746 117.942 49.1466 122.451C51.4187 126.96 55.5929 126.496 55.5929 126.496C55.5929 126.496 58.5401 130.788 64.2584 127.494Z" fill="#D6823C"/>
<path d="M46.5636 109.001C50.7143 104.721 61.9865 112.647 68.4093 113.703C71.7381 114.249 77.8145 114.643 82.8929 114.889C83.1336 116.48 83.3214 118.242 83.3919 120.109C83.5211 116.944 83.2804 113.991 82.8929 111.449C77.8145 111.202 71.7381 110.809 68.4093 110.263C61.9865 109.206 50.7084 101.281 46.5636 105.56C45.542 106.741 45.6712 108.103 46.2818 109.377C46.3639 109.247 46.4579 109.124 46.5636 108.995V109.001Z" fill="#F5D7BB"/>
<path d="M66.079 109.676C59.5446 107.58 50.2451 101.762 46.564 105.561C43.6226 108.948 50.2274 113.868 50.2274 113.868C50.2274 113.868 46.8751 117.937 49.1472 122.445C51.4192 126.954 55.5935 126.491 55.5935 126.491C55.5935 126.491 58.5407 130.782 64.259 127.489C64.259 127.489 69.6543 120.485 66.079 109.67V109.676Z" fill="#AE6745"/>
<path d="M60.0665 122.563C55.6457 121.283 54.6535 116.991 49.0115 112.846C49.0937 112.922 49.1759 112.999 49.2522 113.069C49.2698 113.081 49.2816 113.099 49.2992 113.11C49.3579 113.163 49.4166 113.216 49.4753 113.263C49.4988 113.281 49.5164 113.298 49.5399 113.316C49.5869 113.357 49.6338 113.392 49.6749 113.433C49.6984 113.451 49.716 113.468 49.7395 113.486C49.7806 113.515 49.8159 113.551 49.8511 113.58C49.8687 113.598 49.8922 113.609 49.9098 113.627C49.945 113.656 49.9744 113.68 50.0037 113.703C50.0155 113.715 50.0331 113.727 50.0448 113.739C50.0742 113.762 50.0977 113.78 50.1211 113.797C50.127 113.797 50.1388 113.809 50.1446 113.815C50.1681 113.832 50.1799 113.844 50.1975 113.856C50.1975 113.856 50.2092 113.862 50.2151 113.868C50.2268 113.879 50.2385 113.885 50.2385 113.885C50.2385 113.885 46.8862 117.954 49.1583 122.463C51.4303 126.972 55.6046 126.508 55.6046 126.508C55.6046 126.508 58.5518 130.799 64.2701 127.506C64.2701 127.506 65.638 125.721 66.5421 122.574C66.5421 122.574 64.499 123.854 60.0782 122.574L60.0665 122.563Z" fill="#924921"/>
<path d="M46.194 106.083C46.1295 106.195 46.0766 106.3 46.0297 106.412C46.0179 106.441 46.0003 106.476 45.9886 106.506C45.9357 106.647 45.8946 106.788 45.8653 106.934C45.8653 106.958 45.8594 106.987 45.8535 107.017C45.83 107.14 45.8183 107.257 45.8124 107.381C45.8124 107.416 45.8124 107.451 45.8124 107.486C45.8124 107.786 45.8477 108.085 45.9181 108.379C45.924 108.408 45.9299 108.431 45.9416 108.461C45.9768 108.596 46.0179 108.725 46.0649 108.86C46.0708 108.878 46.0766 108.901 46.0884 108.919C46.1471 109.071 46.2117 109.23 46.2821 109.383C46.3643 109.253 46.4582 109.13 46.5639 109.001C50.4211 105.015 60.4545 111.602 67.0006 113.386C66.8069 112.206 66.5075 110.968 66.0789 109.67C62.7677 108.608 58.7461 106.594 55.1061 105.355C55.0944 105.355 55.0885 105.349 55.0768 105.343C54.8478 105.267 54.6188 105.191 54.3957 105.12C54.3546 105.108 54.3077 105.097 54.2666 105.079C54.0728 105.02 53.8791 104.962 53.6912 104.909C53.6325 104.891 53.5738 104.874 53.521 104.862C53.3448 104.815 53.1687 104.768 52.9985 104.727C52.9339 104.709 52.8752 104.698 52.8106 104.68C52.6403 104.639 52.4701 104.604 52.3057 104.568C52.247 104.557 52.1883 104.545 52.1295 104.533C51.9475 104.498 51.7714 104.469 51.5953 104.439C51.5542 104.433 51.5131 104.422 51.472 104.416C51.0376 104.351 50.6149 104.31 50.2098 104.304C50.1628 104.304 50.1158 104.304 50.0689 104.304C49.9221 104.304 49.7753 104.304 49.6285 104.31C49.564 104.31 49.4994 104.322 49.4348 104.328C49.3115 104.339 49.1941 104.351 49.0708 104.363C49.0003 104.375 48.9299 104.386 48.8653 104.398C48.7538 104.416 48.6481 104.439 48.5424 104.463C48.472 104.48 48.4015 104.498 48.3369 104.516C48.2371 104.545 48.1373 104.58 48.0375 104.615C47.9729 104.639 47.9084 104.662 47.8438 104.692C47.744 104.733 47.65 104.78 47.5561 104.827C47.4974 104.856 47.4387 104.885 47.38 104.921C47.2802 104.979 47.1862 105.044 47.0923 105.114C47.0453 105.15 46.9984 105.173 46.9573 105.208C46.8222 105.314 46.6931 105.431 46.5698 105.555C46.4524 105.684 46.3584 105.819 46.2704 105.96C46.2469 105.995 46.2234 106.036 46.1999 106.077L46.194 106.083Z" fill="#C18B71"/>
<path d="M58.8701 116.475C59.0638 119.363 53.2986 124.7 56.8446 127.688" stroke="#592832" stroke-width="3.1703" stroke-linecap="round" stroke-linejoin="round"/>
<path d="M56.3677 122.563C57.1603 119.022 49.0115 112.84 49.0115 112.84" stroke="#592832" stroke-width="3.1703" stroke-linecap="round" stroke-linejoin="round"/>
<path d="M82.8933 111.455C77.815 111.208 71.7385 110.815 68.4097 110.269C61.9869 109.212 50.7089 101.286 46.564 105.566C43.6226 108.954 50.2274 113.873 50.2274 113.873C50.2274 113.873 46.8751 117.942 49.1472 122.451C51.4192 126.96 55.5935 126.496 55.5935 126.496C55.5935 126.496 58.5407 130.788 64.259 127.494C67.4351 128.269 75.173 130.124 81.1496 131.551C83.8972 124.271 83.727 116.915 82.8933 111.455V111.455Z" stroke="#592832" stroke-width="3.1703" stroke-linecap="round" stroke-linejoin="round"/>
<path d="M110.604 120.731C104.551 125.387 100.283 126.913 94.7289 129.585C89.175 132.256 79.4997 140.751 80.3628 144.221C81.2317 147.691 84.901 145.853 84.901 145.853C84.901 145.853 91.2357 153.961 99.6253 149.288C104.592 146.516 106.119 143.317 106.119 143.317C106.119 143.317 120.115 140.851 123.25 130.771C121.177 125.434 117.491 121.588 110.604 120.731Z" fill="#EAAC71"/>
<path d="M111.162 136.947C108.644 136.965 104.317 137.599 100.454 142.918C96.8842 147.832 90.6493 147.755 91.0485 145.753C90.4497 147.109 89.8802 148.448 89.616 149.581C92.2051 150.861 95.6924 151.489 99.6377 149.288C104.605 146.517 106.131 143.317 106.131 143.317C106.131 143.317 120.127 140.851 123.262 130.771C123.151 130.483 123.027 130.195 122.91 129.919C120.409 134.346 113.282 136.929 111.18 136.947H111.162Z" fill="#D6823C"/>
<path d="M91.0423 145.753C91.1186 145.577 91.2008 145.395 91.2771 145.219C91.148 145.407 91.0717 145.589 91.0423 145.753Z" fill="#D6823C"/>
<path d="M83.8154 145.847C82.9465 142.377 92.6218 133.882 98.1816 131.217C103.618 128.604 107.904 127.037 114.567 121.677C113.381 121.242 112.072 120.913 110.61 120.731C104.557 125.387 100.289 126.913 94.7353 129.585C89.1814 132.256 79.5061 140.751 80.375 144.221C80.9562 146.54 82.788 146.487 83.9387 146.199C83.8976 146.088 83.8565 145.976 83.8213 145.853L83.8154 145.847Z" fill="#F5D7BB"/>
<path d="M91.5648 131.434C86.1518 135.039 79.6468 141.35 80.3631 144.221C81.232 147.691 84.9013 145.853 84.9013 145.853C84.9013 145.853 91.236 153.961 99.6256 149.288C104.164 146.757 105.825 143.875 106.078 143.393C103.089 137.188 97.2302 132.685 91.5648 131.434Z" fill="#AE6745"/>
<path d="M103.688 139.524C102.608 140.364 101.516 141.462 100.453 142.918C97.4471 147.057 92.5566 147.656 91.3179 146.546L90.2024 149.851C90.267 149.881 90.3316 149.904 90.3961 149.928C90.4842 149.963 90.5664 149.998 90.6603 150.033C90.7484 150.069 90.8423 150.098 90.9363 150.133C91.0302 150.168 91.1183 150.198 91.2181 150.233C91.312 150.262 91.4059 150.292 91.4999 150.315C91.5997 150.344 91.6936 150.374 91.7934 150.397C91.8873 150.421 91.9872 150.444 92.0811 150.468C92.1809 150.491 92.2866 150.515 92.3864 150.538C92.4862 150.556 92.5801 150.573 92.6799 150.591C92.7856 150.609 92.8913 150.626 93.0028 150.644C93.1026 150.656 93.2024 150.667 93.3022 150.679C93.4138 150.691 93.5253 150.703 93.6369 150.708C93.7367 150.714 93.8424 150.72 93.9422 150.726C94.0596 150.726 94.1711 150.732 94.2886 150.732C94.3942 150.732 94.4941 150.732 94.5997 150.732C94.7171 150.732 94.8404 150.72 94.9578 150.714C95.0635 150.708 95.1692 150.703 95.2749 150.691C95.3982 150.679 95.5215 150.661 95.6448 150.644C95.7504 150.632 95.8561 150.615 95.9618 150.597C96.0909 150.573 96.2201 150.55 96.3493 150.521C96.4549 150.497 96.5606 150.479 96.6663 150.45C96.8013 150.415 96.9363 150.38 97.0772 150.339C97.1829 150.309 97.2827 150.28 97.3884 150.251C97.5352 150.204 97.6761 150.151 97.8229 150.098C97.9227 150.063 98.0225 150.027 98.1223 149.992C98.2867 149.928 98.4511 149.851 98.6154 149.781C98.6976 149.746 98.7857 149.71 98.8679 149.669C99.1203 149.552 99.3728 149.423 99.6252 149.282C99.9247 149.117 100.206 148.947 100.482 148.777C100.57 148.724 100.653 148.671 100.735 148.613C100.917 148.495 101.099 148.384 101.269 148.266C101.363 148.202 101.445 148.143 101.533 148.078C101.692 147.967 101.844 147.861 101.991 147.75C102.073 147.685 102.156 147.626 102.238 147.562C102.379 147.456 102.52 147.344 102.649 147.239C102.719 147.18 102.79 147.121 102.86 147.063C102.989 146.951 103.118 146.845 103.242 146.734C103.3 146.681 103.365 146.628 103.418 146.575C103.541 146.464 103.659 146.352 103.776 146.241C103.823 146.194 103.87 146.147 103.917 146.1C104.034 145.982 104.146 145.871 104.252 145.759C104.287 145.724 104.322 145.683 104.357 145.648C104.469 145.524 104.58 145.407 104.68 145.295C104.704 145.272 104.721 145.248 104.745 145.225C104.862 145.09 104.968 144.961 105.068 144.838C105.068 144.838 105.068 144.832 105.073 144.826C105.39 144.432 105.625 144.098 105.79 143.845C105.801 143.834 105.807 143.822 105.813 143.804C105.854 143.74 105.89 143.681 105.925 143.622C105.942 143.593 105.954 143.569 105.966 143.546C105.983 143.517 106.001 143.487 106.013 143.458C106.03 143.423 106.048 143.393 106.06 143.37C106.06 143.37 106.06 143.37 106.06 143.364C105.396 141.984 104.58 140.693 103.664 139.495L103.688 139.524Z" fill="#924921"/>
<path d="M80.5854 144.867C80.7204 145.178 80.8848 145.425 81.0727 145.624C81.0962 145.648 81.1196 145.671 81.1373 145.695C81.2312 145.789 81.331 145.871 81.4308 145.941C81.5365 146.012 81.6422 146.07 81.7537 146.117C81.7831 146.129 81.8124 146.141 81.8359 146.153C81.9357 146.194 82.0414 146.229 82.1471 146.252C82.1588 146.252 82.1647 146.258 82.1764 146.258C82.288 146.282 82.3995 146.299 82.5111 146.311C82.5522 146.311 82.5874 146.317 82.6285 146.323C82.7165 146.329 82.7987 146.329 82.8809 146.329C82.9338 146.329 82.9866 146.329 83.0395 146.329C83.1158 146.329 83.1862 146.317 83.2567 146.311C83.3154 146.305 83.3682 146.299 83.4211 146.293C83.4622 146.288 83.5032 146.282 83.5443 146.276C83.6735 146.252 83.7968 146.229 83.9142 146.2C83.8731 146.088 83.832 145.976 83.7968 145.853C83.0629 142.906 89.926 136.336 95.4154 132.79C94.1414 132.186 92.838 131.722 91.5464 131.44C90.5366 132.115 89.4857 132.884 88.4466 133.706C88.4466 133.706 88.4348 133.718 88.429 133.718C87.5953 134.381 86.7734 135.086 85.9867 135.796C85.9514 135.831 85.9103 135.867 85.8751 135.902C85.7459 136.019 85.6227 136.137 85.4994 136.248C85.4524 136.295 85.3996 136.342 85.3526 136.389C85.2352 136.501 85.1178 136.612 85.0003 136.73C84.9534 136.777 84.9064 136.824 84.8594 136.865C84.4954 137.223 84.1432 137.581 83.8085 137.933C83.744 138.004 83.6735 138.074 83.6089 138.145C83.5267 138.233 83.4504 138.321 83.3682 138.409C83.2978 138.485 83.2273 138.567 83.1569 138.644C83.0805 138.726 83.0101 138.808 82.9396 138.896C82.8692 138.978 82.7987 139.066 82.7283 139.149C82.6637 139.225 82.5991 139.301 82.5345 139.383C82.4524 139.483 82.376 139.583 82.2997 139.677C82.2527 139.736 82.1999 139.8 82.1529 139.859C82.0355 140.012 81.924 140.164 81.8124 140.317C81.7713 140.37 81.7361 140.428 81.695 140.481C81.6246 140.581 81.5541 140.687 81.4836 140.787C81.4425 140.851 81.4015 140.91 81.3662 140.969C81.3075 141.062 81.2488 141.156 81.196 141.244C81.1607 141.303 81.1255 141.362 81.0903 141.426C81.0375 141.52 80.9846 141.614 80.9318 141.708C80.9024 141.761 80.8731 141.814 80.8496 141.861C80.7909 141.978 80.7322 142.096 80.6852 142.213C80.6735 142.237 80.6617 142.26 80.65 142.284C80.5913 142.419 80.5384 142.554 80.4973 142.683C80.4856 142.724 80.4738 142.759 80.4621 142.8C80.4328 142.894 80.4093 142.982 80.3858 143.07C80.374 143.117 80.3682 143.158 80.3564 143.205C80.3388 143.288 80.3271 143.364 80.3153 143.44C80.3153 143.481 80.3036 143.528 80.3036 143.569C80.2977 143.652 80.2977 143.728 80.3036 143.804C80.3036 143.839 80.3036 143.875 80.3036 143.91C80.3095 144.016 80.3271 144.121 80.3506 144.221C80.3975 144.415 80.4562 144.585 80.5267 144.749C80.5443 144.791 80.556 144.826 80.5737 144.867H80.5854Z" fill="#C18B71"/>
<path d="M110.604 120.731C104.551 125.387 100.283 126.913 94.7289 129.585C89.175 132.256 79.4997 140.751 80.3628 144.221C81.2317 147.691 84.901 145.853 84.901 145.853C84.901 145.853 91.2357 153.961 99.6253 149.288C104.592 146.516 106.119 143.317 106.119 143.317C106.119 143.317 120.115 140.851 123.25 130.771" stroke="#592832" stroke-width="3.1703" stroke-linecap="round" stroke-linejoin="round"/>
<path d="M88.3993 140.047C85.3934 141.72 83.5382 145.225 86.1859 147.192" stroke="#592832" stroke-width="3.1703" stroke-linecap="round" stroke-linejoin="round"/>
<path d="M92.638 144.18C89.4266 145.771 90.09 149.728 92.4031 150.521" stroke="#592832" stroke-width="3.1703" stroke-linecap="round" stroke-linejoin="round"/>
<g opacity="0.7">
<g opacity="0.6">
<path d="M99.0915 119.446V117.89C99.796 117.966 100.465 117.931 101.082 117.796L102.18 119.287C102.684 119.974 103.495 120.268 104 119.951L104.915 119.369C105.42 119.052 105.42 118.236 104.915 117.549L103.847 116.093C104.223 115.612 104.516 115.037 104.71 114.391L106.195 114.931C106.906 115.189 107.481 114.825 107.481 114.115V112.817C107.481 112.107 106.906 111.32 106.195 111.062L104.763 110.54C104.581 109.729 104.299 108.925 103.923 108.144L104.921 107.51C105.426 107.193 105.426 106.377 104.921 105.69L104.005 104.44C103.501 103.753 102.69 103.459 102.185 103.776L101.217 104.393C100.565 103.765 99.8547 103.201 99.1032 102.731V101.375C99.1032 100.665 98.5278 99.878 97.8175 99.6196L96.52 99.15C95.8096 98.8916 95.2343 99.2556 95.2343 99.966V101.322C94.4828 101.24 93.7665 101.287 93.1207 101.44L92.152 100.119C91.6471 99.4318 90.8369 99.1382 90.332 99.4552L89.4162 100.036C88.9113 100.354 88.9113 101.17 89.4162 101.856L90.4142 103.213C90.0385 103.718 89.7508 104.316 89.5747 104.992L88.1422 104.469C87.4318 104.211 86.8564 104.575 86.8564 105.285V106.583C86.8564 107.293 87.4318 108.08 88.1422 108.338L89.6275 108.878C89.8213 109.665 90.1148 110.451 90.4906 111.209L89.422 111.89C88.9171 112.207 88.9171 113.023 89.422 113.71L90.3379 114.96C90.8428 115.647 91.653 115.941 92.1579 115.624L93.2558 114.925C93.8722 115.506 94.5356 116.029 95.246 116.463V118.019C95.246 118.73 95.8213 119.516 96.5317 119.775L97.8292 120.244C98.5396 120.503 99.1149 120.139 99.1149 119.428L99.0915 119.446ZM93.1677 108.162C93.1677 105.96 94.9583 104.821 97.1599 105.626C99.3615 106.424 101.152 108.866 101.152 111.068C101.152 113.27 99.3615 114.409 97.1599 113.604C94.9583 112.8 93.1677 110.363 93.1677 108.162Z" fill="#99E5E5"/>
</g>
<g opacity="0.6">
<path d="M17.4438 150.866V149.311C18.1483 149.387 18.8176 149.352 19.434 149.217L20.5319 150.708C21.0368 151.395 21.847 151.688 22.3519 151.371L23.2677 150.79C23.7726 150.473 23.7726 149.657 23.2677 148.97L22.1992 147.514C22.575 147.033 22.8685 146.457 23.0622 145.812L24.5476 146.352C25.258 146.61 25.8333 146.246 25.8333 145.536V144.238C25.8333 143.528 25.258 142.741 24.5476 142.483L23.1151 141.96C22.9331 141.15 22.6513 140.346 22.2755 139.565L23.2736 138.931C23.7785 138.614 23.7785 137.798 23.2736 137.111L22.3577 135.86C21.8528 135.173 21.0426 134.88 20.5377 135.197L19.569 135.813C18.9174 135.185 18.207 134.622 17.4555 134.152V132.796C17.4555 132.085 16.8801 131.299 16.1698 131.04L14.8723 130.571C14.1619 130.312 13.5866 130.676 13.5866 131.387V132.743C12.8351 132.661 12.1188 132.708 11.473 132.86L10.5043 131.539C9.99941 130.852 9.18923 130.559 8.68433 130.876L7.76847 131.457C7.26357 131.774 7.26357 132.59 7.76847 133.277L8.76652 134.633C8.39078 135.138 8.1031 135.737 7.92698 136.412L6.49448 135.89C5.78409 135.631 5.20874 135.995 5.20874 136.706V138.003C5.20874 138.714 5.78409 139.5 6.49448 139.759L7.97982 140.299C8.17356 141.085 8.46711 141.872 8.84285 142.63L7.77433 143.311C7.26943 143.628 7.26943 144.444 7.77433 145.131L8.6902 146.381C9.1951 147.068 10.0053 147.362 10.5102 147.044L11.6081 146.346C12.2245 146.927 12.8879 147.45 13.5983 147.884V149.44C13.5983 150.15 14.1736 150.937 14.884 151.195L16.1815 151.665C16.8919 151.923 17.4672 151.559 17.4672 150.849L17.4438 150.866ZM11.52 139.583C11.52 137.381 13.3106 136.242 15.5122 137.046C17.7138 137.845 19.5045 140.287 19.5045 142.489C19.5045 144.69 17.7138 145.829 15.5122 145.025C13.3106 144.226 11.52 141.784 11.52 139.583Z" fill="#99E5E5"/>
</g>
<path d="M58.5171 125.381C67.1944 118.923 74.2277 117.972 81.6134 124.406C88.999 130.847 88.4706 140.146 85.3649 143.123C82.6173 145.753 72.5898 147.027 62.3861 132.767L59.7911 129.226L56.6443 132.226C56.6443 132.226 64.2941 145.735 74.7327 149.534C85.1712 153.332 92.8914 149.851 92.8914 139.06C92.8914 128.269 84.314 118.424 75.8775 115.353C67.441 112.283 60.7951 114.508 53.0043 122.328C45.2136 130.142 40.7458 133.107 29.1977 126.314C25.0528 123.878 21.0489 117.772 21.8356 111.408C22.6223 105.044 28.1997 102.643 34.4874 105.649C40.7811 108.655 47.8438 117.291 49.5699 120.649L53.2157 117.402C53.2157 117.402 44.7792 103.611 33.554 99.5253C22.3287 95.4392 16.2523 102.52 16.2523 110.745C16.2523 118.964 22.8982 130.177 33.6244 134.082C44.3447 137.986 51.2078 132.473 53.7852 130.125C56.3566 127.77 58.5171 125.393 58.5171 125.393V125.381Z" fill="#008484"/>
<path opacity="0.6" d="M42.6077 86.3394V60.9007C42.6077 59.3449 41.6272 57.9593 40.1595 57.4427L13.4996 48.0786C11.116 47.2449 8.62671 49.012 8.62671 51.5365V76.2003C8.62671 77.7209 9.56606 79.0829 10.9868 79.6231L37.6467 89.7622C40.0421 90.6722 42.6135 88.905 42.6135 86.3394H42.6077Z" fill="#99E5E5"/>
<path d="M42.6076 86.3394V60.9007C42.6076 59.3449 41.6272 57.9593 40.1595 57.4427L13.4996 48.0786C11.116 47.2449 8.62671 49.012 8.62671 51.5365V76.2003C8.62671 77.7209 9.56606 79.0829 10.9868 79.6231L37.6467 89.7622C40.0421 90.6722 42.6135 88.905 42.6135 86.3394H42.6076Z" stroke="#008484" stroke-width="4.10965" stroke-miterlimit="10"/>
<path d="M8.62659 56.486L42.6075 68.8443" stroke="#008484" stroke-width="4.10965" stroke-miterlimit="10"/>
<path d="M27.0848 66.4135C27.0379 66.3959 26.9909 66.3783 26.938 66.3665C26.5036 66.2609 25.94 66.3019 25.7521 67.1356C25.2531 69.3255 24.7541 71.5153 24.255 73.7052L24.12 74.2805L23.4037 77.4156C23.3392 77.6974 23.2746 77.9792 23.21 78.2669C23.1278 78.6309 23.0456 78.989 22.9693 79.353C22.8284 80.0223 23.2335 80.8208 23.938 81.2611C24.0378 81.3257 24.1435 81.3726 24.2433 81.4137C24.6014 81.5429 24.9361 81.5077 25.1768 81.3315C25.3235 81.2259 25.4351 81.0673 25.4997 80.8619C25.5349 80.7562 25.5584 80.6505 25.576 80.5566L25.7051 79.993C26.4097 76.9107 27.1142 73.8285 27.8128 70.7521C27.9361 70.2002 28.0653 69.6484 28.1827 69.12L28.3529 68.3744V68.3216C28.3647 67.8988 28.2179 67.4644 27.9537 67.0945C27.7247 66.7775 27.4136 66.5309 27.0848 66.4135Z" fill="#008484"/>
<path d="M22.16 75.4372C22.0191 75.2552 21.8723 75.0732 21.7256 74.903C21.6668 74.8325 21.6081 74.7621 21.5553 74.6975C21.4672 74.5918 21.3792 74.4862 21.2911 74.3805L18.8194 71.3804L19.7764 70.9166C20.5514 70.5409 21.3263 70.1652 22.0954 69.7835C22.7177 69.4783 22.8234 68.7385 22.3596 67.9929C22.113 67.5937 21.7608 67.2943 21.3792 67.1592C21.0504 67.0418 20.7275 67.0477 20.4398 67.1827C18.978 67.8872 17.7392 68.4861 16.5885 69.0555C16.4065 69.1495 16.2186 69.2375 16.0425 69.3256C15.6022 69.5487 15.5082 69.9127 15.5082 70.1828C15.5082 70.4528 15.5963 70.8755 16.0249 71.4039C17.3047 72.9715 18.6668 74.6329 20.4574 76.7876C20.6981 77.0811 20.9682 77.2983 21.25 77.4275C21.2911 77.4451 21.3322 77.4627 21.3674 77.4745C21.7314 77.6095 22.0719 77.5743 22.3303 77.3747C22.8117 77.0048 22.7354 76.1887 22.1541 75.4431L22.16 75.4372Z" fill="#008484"/>
<path d="M35.5866 76.3763C34.6708 75.2549 33.7138 74.0925 32.6923 72.8537C32.2343 72.3018 31.7647 71.7324 31.2832 71.1453C30.978 70.7754 30.6374 70.5171 30.3028 70.3938C29.927 70.2588 29.5807 70.2999 29.3341 70.5112C28.8585 70.9222 28.9701 71.7382 29.6218 72.5308C29.9799 72.9711 30.3439 73.4114 30.702 73.8459C30.9016 74.0866 31.1012 74.3273 31.3009 74.568L32.8743 76.4819L31.9173 76.9457C31.1482 77.3215 30.385 77.6914 29.6218 78.0671C29.2871 78.2315 29.0875 78.525 29.0582 78.889C29.0347 79.2061 29.1403 79.5701 29.3634 79.9047C29.6159 80.2922 29.9564 80.574 30.3145 80.709C30.6492 80.8323 30.9956 80.8147 31.3009 80.6679C33.0328 79.8284 34.3596 79.1826 35.6042 78.572C35.9917 78.3841 36.1855 78.0847 36.1855 77.6914C36.1855 77.2921 35.9859 76.8518 35.5925 76.3704L35.5866 76.3763Z" fill="#008484"/>
<path opacity="0.6" d="M59.1353 168.814V150.321C59.1353 149.188 58.4191 148.184 57.3564 147.808L37.9706 141.003C36.2387 140.393 34.4246 141.679 34.4246 143.516V161.446C34.4246 162.55 35.1056 163.542 36.1389 163.935L55.5247 171.309C57.2683 171.973 59.1353 170.687 59.1353 168.82V168.814Z" fill="#99E5E5"/>
<path d="M59.1353 168.814V150.321C59.1353 149.188 58.419 148.184 57.3564 147.808L37.9706 141.003C36.2387 140.393 34.4246 141.679 34.4246 143.516V161.446C34.4246 162.55 35.1056 163.542 36.1389 163.935L55.5247 171.309C57.2683 171.973 59.1353 170.687 59.1353 168.82V168.814Z" stroke="#008484" stroke-width="4.10965" stroke-miterlimit="10"/>
<path d="M34.4246 147.103L59.1353 156.091" stroke="#008484" stroke-width="4.10965" stroke-miterlimit="10"/>
<path d="M47.7517 154.817C47.7223 154.806 47.6871 154.794 47.6578 154.788C47.3701 154.718 46.9943 154.747 46.8711 155.299C46.5423 156.749 46.2076 158.205 45.8789 159.655L45.7908 160.037L45.3153 162.115C45.2742 162.303 45.2272 162.491 45.1861 162.679C45.1333 162.919 45.0804 163.16 45.0276 163.401C44.9337 163.847 45.2037 164.375 45.6675 164.663C45.7321 164.704 45.8026 164.739 45.873 164.763C46.1137 164.851 46.3309 164.827 46.4895 164.704C46.5834 164.634 46.6597 164.528 46.7008 164.393C46.7243 164.322 46.7419 164.252 46.7537 164.187L46.8358 163.812C47.2996 161.769 47.7693 159.726 48.2331 157.682C48.3153 157.318 48.3975 156.949 48.4797 156.596L48.5912 156.103V156.068C48.5971 155.786 48.5032 155.498 48.3271 155.258C48.1744 155.046 47.9689 154.888 47.7517 154.806V154.817Z" fill="#008484"/>
<path d="M44.4803 160.8C44.3863 160.677 44.2865 160.559 44.1926 160.442C44.1574 160.395 44.1163 160.348 44.0811 160.307C44.0224 160.236 43.9637 160.166 43.9049 160.095L42.267 158.105L42.901 157.794C43.4118 157.542 43.9284 157.295 44.4392 157.043C44.8502 156.837 44.9206 156.35 44.6153 155.857C44.4509 155.592 44.222 155.393 43.9637 155.305C43.7464 155.223 43.5292 155.228 43.3413 155.322C42.3726 155.786 41.5507 156.185 40.7875 156.567C40.6642 156.626 40.5468 156.69 40.4235 156.749C40.1299 156.896 40.0712 157.137 40.0712 157.319C40.0712 157.501 40.1299 157.776 40.4176 158.129C41.263 159.168 42.173 160.272 43.3531 161.698C43.5116 161.892 43.6936 162.033 43.8756 162.121C43.8991 162.133 43.9284 162.144 43.9578 162.156C44.1985 162.244 44.4275 162.221 44.5977 162.092C44.9147 161.845 44.8678 161.305 44.4803 160.812V160.8Z" fill="#008484"/>
<path d="M53.3815 161.422C52.7709 160.677 52.1369 159.908 51.4617 159.086C51.1564 158.716 50.8511 158.34 50.5282 157.953C50.3286 157.706 50.0996 157.536 49.8765 157.454C49.6241 157.366 49.401 157.389 49.2366 157.53C48.9196 157.806 48.9959 158.34 49.4245 158.869C49.6593 159.162 49.9 159.45 50.1407 159.743C50.2699 159.902 50.4049 160.06 50.5341 160.225L51.5732 161.493L50.9392 161.804C50.4284 162.051 49.9235 162.297 49.4186 162.55C49.1955 162.661 49.0605 162.855 49.0429 163.096C49.0253 163.307 49.0957 163.548 49.2425 163.771C49.4127 164.029 49.6358 164.217 49.8765 164.305C50.0996 164.387 50.3286 164.376 50.5341 164.276C51.6848 163.718 52.5596 163.289 53.3874 162.884C53.6457 162.761 53.7748 162.561 53.7748 162.303C53.7748 162.039 53.6457 161.745 53.3815 161.428V161.422Z" fill="#008484"/>
<path d="M99.0915 119.446V117.89C99.796 117.966 100.465 117.931 101.082 117.796L102.18 119.287C102.684 119.974 103.495 120.268 104 119.951L104.915 119.369C105.42 119.052 105.42 118.236 104.915 117.549L103.847 116.093C104.223 115.612 104.516 115.037 104.71 114.391L106.195 114.931C106.906 115.189 107.481 114.825 107.481 114.115V112.817C107.481 112.107 106.906 111.32 106.195 111.062L104.763 110.539C104.581 109.729 104.299 108.925 103.923 108.144L104.921 107.51C105.426 107.193 105.426 106.377 104.921 105.69L104.005 104.44C103.501 103.753 102.69 103.459 102.185 103.776L101.217 104.393C100.565 103.764 99.8547 103.201 99.1032 102.731V101.375C99.1032 100.665 98.5278 99.8778 97.8175 99.6195L96.52 99.1498C95.8096 98.8915 95.2343 99.2555 95.2343 99.9659V101.322C94.4828 101.24 93.7665 101.287 93.1207 101.439L92.152 100.119C91.6471 99.4316 90.8369 99.1381 90.332 99.4551L89.4162 100.036C88.9113 100.353 88.9113 101.169 89.4162 101.856L90.4142 103.212C90.0385 103.717 89.7508 104.316 89.5747 104.991L88.1422 104.469C87.4318 104.211 86.8564 104.575 86.8564 105.285V106.582C86.8564 107.293 87.4318 108.08 88.1422 108.338L89.6275 108.878C89.8213 109.665 90.1148 110.451 90.4906 111.209L89.422 111.89C88.9171 112.207 88.9171 113.023 89.422 113.71L90.3379 114.96C90.8428 115.647 91.653 115.941 92.1579 115.624L93.2558 114.925C93.8722 115.506 94.5356 116.029 95.246 116.463V118.019C95.246 118.729 95.8213 119.516 96.5317 119.774L97.8292 120.244C98.5396 120.502 99.1149 120.138 99.1149 119.428L99.0915 119.446ZM93.1677 108.162C93.1677 105.96 94.9583 104.821 97.1599 105.625C99.3615 106.424 101.152 108.866 101.152 111.068C101.152 113.269 99.3615 114.408 97.1599 113.604C94.9583 112.8 93.1677 110.363 93.1677 108.162Z" stroke="#008484" stroke-width="2.34837" stroke-linecap="round" stroke-linejoin="round"/>
<path d="M17.4438 150.867V149.311C18.1483 149.387 18.8176 149.352 19.434 149.217L20.5319 150.708C21.0368 151.395 21.847 151.689 22.3519 151.371L23.2677 150.79C23.7726 150.473 23.7726 149.657 23.2677 148.97L22.1992 147.514C22.575 147.033 22.8685 146.458 23.0622 145.812L24.5476 146.352C25.258 146.61 25.8333 146.246 25.8333 145.536V144.238C25.8333 143.528 25.258 142.741 24.5476 142.483L23.1151 141.96C22.9331 141.15 22.6513 140.346 22.2755 139.565L23.2736 138.931C23.7785 138.614 23.7785 137.798 23.2736 137.111L22.3577 135.86C21.8528 135.174 21.0426 134.88 20.5377 135.197L19.569 135.814C18.9174 135.185 18.207 134.622 17.4555 134.152V132.796C17.4555 132.085 16.8802 131.299 16.1698 131.04L14.8723 130.571C14.1619 130.312 13.5866 130.676 13.5866 131.387V132.743C12.8351 132.661 12.1188 132.708 11.473 132.86L10.5043 131.539C9.99941 130.853 9.18923 130.559 8.68433 130.876L7.76847 131.457C7.26357 131.774 7.26357 132.59 7.76847 133.277L8.76652 134.633C8.39078 135.138 8.1031 135.737 7.92698 136.412L6.49448 135.89C5.78409 135.632 5.20874 135.996 5.20874 136.706V138.003C5.20874 138.714 5.78409 139.5 6.49448 139.759L7.97982 140.299C8.17356 141.086 8.46711 141.872 8.84285 142.63L7.77433 143.311C7.26943 143.628 7.26943 144.444 7.77433 145.131L8.6902 146.381C9.1951 147.068 10.0053 147.362 10.5102 147.045L11.6081 146.346C12.2245 146.927 12.8879 147.45 13.5983 147.884V149.44C13.5983 150.15 14.1736 150.937 14.884 151.195L16.1815 151.665C16.8919 151.923 17.4672 151.559 17.4672 150.849L17.4438 150.867ZM11.52 139.583C11.52 137.381 13.3106 136.242 15.5122 137.046C17.7138 137.845 19.5045 140.287 19.5045 142.489C19.5045 144.69 17.7138 145.829 15.5122 145.025C13.3106 144.227 11.52 141.784 11.52 139.583Z" stroke="#008484" stroke-width="2.34837" stroke-linecap="round" stroke-linejoin="round"/>
</g>
</g>
<defs>
<clipPath id="clip0_2603_1611">
<rect width="205.16" height="188.278" fill="white" transform="translate(4 2.6319)"/>
</clipPath>
</defs>
</svg>
