<svg width="1218" height="1281" viewBox="0 0 1218 1281" fill="none" xmlns="http://www.w3.org/2000/svg">
<path d="M812.376 1121.01C948.298 1112.15 965.857 987.726 912.701 839.752C859.586 691.779 900.37 582.116 1013.9 569.545C1127.44 556.975 1233.87 693.934 1194.84 868.445C1155.81 1043 990.958 1203.66 770.395 1211.08L812.416 1121.01H812.376Z" fill="#EAAC71"/>
<path d="M812.376 1121.01C948.298 1112.15 965.857 987.726 912.701 839.752C859.586 691.779 900.37 582.116 1013.9 569.545C1127.44 556.975 1233.87 693.934 1194.84 868.445C1155.81 1043 990.958 1203.66 770.395 1211.08L812.416 1121.01H812.376Z" fill="#AE6745"/>
<path d="M845.779 1121.01C981.701 1112.16 994.391 977.83 941.275 829.857C888.479 682.761 933.334 583.513 1045.27 569.825C1034.94 568.509 1024.48 568.389 1013.91 569.546C900.371 582.117 859.586 691.78 912.702 839.753C965.818 987.727 948.259 1112.16 812.377 1121.01L770.355 1211.08C782.048 1210.68 793.541 1209.85 804.915 1208.61L845.779 1121.01Z" fill="#C18B71"/>
<path d="M1117.9 835.443C1115.47 832.889 1111.52 832.849 1109 835.243C1101.26 842.745 1093.28 850.687 1085.26 859.067C1073.09 837.159 1058.92 814.611 1044.24 792.822C1058.08 777.658 1072.65 762.414 1087.33 748.087C1093.12 758.423 1098.51 768.839 1103.34 779.134C1104.41 781.449 1106.69 782.766 1109.04 782.766C1109.92 782.766 1110.84 782.566 1111.72 782.167C1114.83 780.651 1116.19 776.94 1114.71 773.787C1109.28 762.254 1103.18 750.641 1096.71 739.068C1102.22 733.88 1107.69 728.852 1113.19 724.023C1115.79 721.709 1116.03 717.718 1113.75 715.164C1111.44 712.57 1107.45 712.331 1104.89 714.606C1100.06 718.915 1095.16 723.345 1090.29 727.934C1075.88 703.392 1059.88 679.488 1044.36 657.779C1049.74 652.471 1055.29 647.243 1060.88 642.095C1063.43 639.781 1063.59 635.79 1061.28 633.196C1058.88 630.602 1054.93 630.483 1052.38 632.837C1047.15 637.666 1041.96 642.574 1036.85 647.483C1027.12 634.234 1017.7 621.943 1009.12 611.088C1006.96 608.374 1003.05 607.895 1000.3 610.09C997.585 612.245 997.146 616.156 999.301 618.91C1008.12 630.083 1017.82 642.734 1027.87 656.462C1011.11 673.222 995.39 690.342 981.383 706.385C956.84 674.779 938.882 653.668 938.403 653.11C936.168 650.476 932.178 650.157 929.584 652.431C926.95 654.706 926.631 658.617 928.866 661.25C929.345 661.809 947.901 683.598 973.002 716.082C956.082 735.956 942.155 753.554 932.617 766.005C924.436 755.949 919.408 750.122 919.168 749.883C916.894 747.249 912.943 746.93 910.309 749.205C907.715 751.479 907.396 755.43 909.671 758.024C909.91 758.303 915.617 764.968 924.835 776.301C920.805 781.688 918.57 784.841 918.49 785.001C916.455 787.834 917.133 791.745 919.966 793.74C921.084 794.538 922.321 794.898 923.598 794.898C925.553 794.898 927.509 793.98 928.706 792.264C928.786 792.144 930.262 790.069 932.936 786.437C945.586 802.36 962.188 823.91 979.667 848.492C964.223 867.288 951.572 883.53 942.992 894.664C940.079 890.633 937.206 886.762 934.413 883.051C932.337 880.337 928.387 879.779 925.593 881.894C922.84 884.009 922.321 887.96 924.436 890.713C927.868 895.183 931.42 900.051 935.051 905.119C932.457 908.591 931.021 910.547 930.901 910.706C928.826 913.46 929.424 917.411 932.258 919.486C933.375 920.284 934.652 920.723 935.929 920.723C937.885 920.723 939.8 919.805 941.037 918.129C941.117 918.049 941.636 917.251 942.633 915.974C955.284 934.531 968.533 955.681 981.023 977.35C968.054 993.073 956.481 1007.4 947.143 1019.13C946.145 1017.86 945.467 1017.06 945.307 1016.86C943.112 1014.18 939.122 1013.82 936.488 1016.02C933.814 1018.21 933.415 1022.17 935.61 1024.84C935.69 1024.92 937.007 1026.52 939.082 1029.27C928.546 1042.56 922.281 1050.7 922.042 1051.06C919.927 1053.81 920.445 1057.76 923.159 1059.88C924.316 1060.75 925.673 1061.19 926.99 1061.19C928.866 1061.19 930.741 1060.32 931.978 1058.72C932.178 1058.4 937.605 1051.42 946.704 1039.88C954.326 1051.1 963.345 1066.54 965.141 1078.75C965.62 1081.87 968.253 1084.14 971.326 1084.14C971.645 1084.14 971.925 1084.14 972.244 1084.06C975.676 1083.58 978.03 1080.39 977.552 1076.96C975.237 1061.11 963.504 1042 954.845 1029.67C963.824 1018.37 975.037 1004.49 987.648 989.123C998.383 1008.28 1008.4 1027.43 1016.74 1045.19C1017.82 1047.51 1020.09 1048.82 1022.41 1048.82C1023.32 1048.82 1024.2 1048.62 1025.12 1048.22C1028.23 1046.71 1029.59 1043 1028.11 1039.84C1019.01 1020.53 1008 999.538 996.188 978.747C1008.08 964.381 1021.01 949.096 1034.46 933.613C1041.88 946.702 1048.78 959.831 1054.89 972.801C1055.97 975.115 1058.2 976.432 1060.6 976.432C1061.48 976.432 1062.39 976.233 1063.23 975.834C1066.38 974.317 1067.74 970.606 1066.22 967.453C1059.4 952.967 1051.58 938.242 1043.2 923.636C1056.05 908.99 1069.26 894.305 1082.35 880.377C1084.94 885.406 1087.41 890.394 1089.69 895.302C1090.77 897.577 1093.04 898.934 1095.36 898.934C1096.27 898.934 1097.15 898.734 1098.07 898.335C1101.18 896.859 1102.54 893.108 1101.06 889.995C1098.07 883.69 1094.88 877.265 1091.44 870.76C1100.38 861.462 1109.16 852.602 1117.66 844.382C1120.14 841.947 1120.22 837.957 1117.82 835.522L1117.9 835.443ZM1035.3 666.758C1050.86 688.507 1066.74 712.411 1080.95 736.833C1065.98 751.32 1051.18 766.723 1037.01 782.167C1020.69 758.423 1004.05 735.916 989.204 716.521C1003.05 700.558 1018.62 683.518 1035.3 666.718V666.758ZM940.758 776.062C949.856 764.09 963.744 746.451 980.864 726.258C995.669 745.693 1012.23 768.16 1028.35 791.745C1013.87 807.827 1000.22 823.75 987.967 838.475C970.129 813.494 953.288 791.745 940.758 776.062ZM989.603 967.054C976.833 945.186 963.425 923.875 950.655 905.399C958.676 894.863 971.406 878.502 987.209 859.147C1000.94 878.941 1014.98 900.331 1027.83 922.08C1014.47 937.444 1001.5 952.688 989.563 967.054H989.603ZM1036.53 912.143C1023.48 890.234 1009.28 868.804 995.47 849.091C1007.6 834.485 1021.13 818.562 1035.58 802.48C1050.22 824.309 1064.27 846.816 1076.16 868.605C1062.95 882.612 1049.58 897.338 1036.53 912.143Z" fill="#924921"/>
<path d="M960.072 893.185C958.874 888.077 957.637 882.89 956.241 877.702C951.172 884.127 946.743 889.913 943.031 894.662C940.118 890.631 937.245 886.76 934.452 883.049C932.456 880.455 928.745 879.857 926.031 881.652C927.588 887.359 929.024 892.986 930.341 898.533C931.898 900.728 933.494 902.883 935.09 905.157C934.053 906.554 933.214 907.632 932.576 908.549C933.454 912.62 934.252 916.65 934.93 920.681C935.29 920.761 935.649 920.761 935.968 920.761C937.923 920.761 939.839 919.843 941.076 918.167C941.156 918.087 941.675 917.289 942.672 916.012C951.611 929.101 960.79 943.508 969.849 958.472C969.33 949.254 968.372 939.796 967.015 930.099C961.508 921.519 956.041 913.179 950.654 905.437C953.287 901.965 956.48 897.854 960.072 893.185Z" fill="#A66A49"/>
<path d="M927.868 659.613C928.746 656.899 929.744 654.226 930.782 651.632C930.343 651.831 929.904 652.111 929.544 652.43C927.429 654.266 926.831 657.139 927.868 659.613Z" fill="#A66A49"/>
<path d="M969.93 990.917C961.43 1001.33 953.728 1010.87 947.183 1019.13C946.185 1017.85 945.507 1017.06 945.347 1016.86C943.392 1014.46 940 1013.94 937.446 1015.42C936.847 1018.53 936.249 1021.61 935.53 1024.64C935.53 1024.72 935.61 1024.8 935.65 1024.84C935.69 1024.88 937.047 1026.51 939.122 1029.27C936.209 1032.98 933.615 1036.25 931.38 1039.08C928.946 1046.19 926.033 1052.93 922.601 1059.28C922.8 1059.48 922.96 1059.68 923.199 1059.88C924.356 1060.75 925.713 1061.19 927.03 1061.19C928.906 1061.19 930.781 1060.31 932.018 1058.72C932.218 1058.4 937.645 1051.42 946.744 1039.88C949.537 1043.99 952.53 1048.66 955.244 1053.49C957.439 1048.82 959.394 1043.95 961.07 1038.84C958.955 1035.49 956.88 1032.38 954.885 1029.59C958.636 1024.88 962.786 1019.69 967.216 1014.18C968.533 1006.68 969.411 998.938 969.93 990.917Z" fill="#A66A49"/>
<path d="M924.835 776.3C920.805 781.687 918.57 784.84 918.49 785C916.455 787.833 917.133 791.744 919.966 793.739C921.084 794.537 922.321 794.896 923.598 794.896C925.553 794.896 927.509 793.979 928.706 792.263C928.706 792.183 928.945 791.903 929.345 791.345C925.952 778.016 923.398 765.166 921.722 752.835C920.166 750.999 919.288 749.962 919.168 749.842C916.894 747.208 912.943 746.889 910.309 749.164C907.715 751.438 907.396 755.389 909.671 757.983C909.91 758.262 915.617 764.927 924.835 776.26V776.3Z" fill="#A66A49"/>
<path d="M1013.94 569.545C1006.72 570.343 1000.66 572.658 994.031 574.214C1097.91 575.132 1190.05 701.556 1154.02 862.619C1118.54 1021.37 974.796 1166.59 780.451 1189.61L770.395 1211.12C990.998 1203.66 1155.85 1043.04 1194.88 868.485C1233.91 693.934 1127.48 556.975 1013.94 569.545Z" fill="#924921"/>
<path d="M1013.94 569.545C1006.72 570.343 1001.17 571.74 994.549 573.296C1098.19 567.829 1190.05 701.556 1154.06 862.619C1118.58 1021.37 974.835 1166.59 780.49 1189.61L770.434 1211.12C991.037 1203.66 1155.89 1043.04 1194.92 868.485C1233.95 693.934 1127.52 556.975 1013.98 569.545H1013.94Z" stroke="#592832" stroke-width="21.5495" stroke-linecap="round" stroke-linejoin="round"/>
<path d="M812.376 1121.01C948.298 1112.15 965.857 987.726 912.701 839.752C859.586 691.779 900.37 582.116 1013.9 569.545C1127.44 556.975 1233.87 693.934 1194.84 868.445C1155.81 1043 990.958 1203.66 770.395 1211.08L812.416 1121.01H812.376Z" stroke="#592832" stroke-width="21.5495" stroke-linecap="round" stroke-linejoin="round"/>
<path d="M748.847 686.872C685.556 720.473 603.228 740.746 513.159 740.746C455.175 740.746 400.383 732.326 351.817 717.361C360.517 756.469 367.5 821.197 341.122 883.851C299.42 982.899 231.619 1199.27 536.624 1199.27C728.655 1199.27 875.471 1012.47 828.142 868.207C805.515 810.343 749.845 759.821 748.847 686.872Z" fill="#EAAC71"/>
<path d="M364.986 883.851C389.848 824.829 385.059 763.972 377.158 724.424C368.538 722.269 360.078 719.915 351.817 717.361C360.517 756.469 367.501 821.198 341.122 883.851C299.42 982.899 231.619 1199.27 536.624 1199.27C539.857 1199.27 543.049 1199.19 546.242 1199.11C257.638 1192.41 323.922 981.343 364.986 883.851Z" fill="#F5D7BB"/>
<path d="M709.42 1144.56C654.468 1099.31 613.205 1026 604.705 936.448C590.618 787.996 396.393 767.364 351.219 854.241C348.585 864.098 345.273 873.994 341.122 883.851C299.42 982.899 231.619 1199.27 536.624 1199.27C601.233 1199.27 660.694 1178.12 709.38 1144.56H709.42Z" fill="#FFE5C0"/>
<path d="M606.699 1190.85C611.049 1189.81 615.319 1188.62 619.589 1187.38C620.786 1187.02 621.983 1186.66 623.18 1186.3C626.253 1185.38 629.286 1184.39 632.279 1183.39C633.636 1182.91 635.032 1182.43 636.389 1181.95C639.342 1180.91 642.256 1179.8 645.169 1178.68C646.366 1178.2 647.563 1177.76 648.76 1177.28C656.821 1174.01 664.683 1170.42 672.385 1166.55C673.542 1165.95 674.7 1165.35 675.817 1164.75C678.531 1163.36 681.204 1161.92 683.838 1160.44C685.115 1159.72 686.392 1159.01 687.669 1158.25C690.263 1156.73 692.857 1155.21 695.371 1153.66C696.488 1152.98 697.646 1152.3 698.723 1151.58C702.315 1149.31 705.867 1146.99 709.338 1144.6C706.186 1142.01 703.073 1139.29 700.04 1136.5C699.162 1135.7 698.284 1134.82 697.406 1133.98C695.251 1131.95 693.057 1129.91 690.942 1127.8C689.984 1126.84 689.026 1125.84 688.068 1124.85C686.073 1122.77 684.078 1120.66 682.122 1118.5C681.164 1117.46 680.247 1116.39 679.329 1115.35C677.413 1113.15 675.498 1110.96 673.622 1108.68C644.051 1072.85 621.464 1027.27 610.45 974.717C593.609 999.419 566.194 1053.21 581.997 1125.72C584.271 1136.14 577.487 1146.44 567.072 1148.79C475.127 1169.7 379.67 1152.9 313.426 1091.72L312.468 1091.56C332.86 1152.02 393.997 1199.31 536.543 1199.31C560.726 1199.31 584.152 1196.36 606.579 1190.89L606.699 1190.85Z" fill="#DBAB7A"/>
<path d="M364.986 883.851C373.726 863.1 378.754 842.149 381.308 821.956C368.578 830.137 358.122 840.912 351.219 854.24C350.62 856.555 349.942 858.83 349.263 861.144C349.104 861.703 348.904 862.302 348.744 862.86C348.226 864.536 347.667 866.252 347.108 867.928C346.869 868.647 346.629 869.405 346.35 870.123C345.791 871.759 345.193 873.356 344.594 874.992C344.355 875.67 344.075 876.349 343.836 877.027C342.958 879.302 342.08 881.537 341.122 883.811C299.42 982.859 231.619 1199.23 536.624 1199.23C539.657 1199.23 542.65 1199.15 545.683 1199.03C257.757 1192.09 323.962 981.223 364.986 883.811V883.851Z" fill="#FFF7EC"/>
<path d="M828.14 868.206C809.663 820.957 769.198 778.656 754.393 725.021C753.634 722.268 752.956 719.474 752.357 716.641C752.238 716.162 752.158 715.723 752.038 715.244C751.44 712.371 750.881 709.458 750.442 706.505C750.442 706.465 750.442 706.385 750.442 706.345C750.043 703.592 749.724 700.798 749.484 697.965C749.404 697.246 749.364 696.528 749.325 695.81C749.085 692.897 748.926 689.944 748.886 686.911C685.594 720.512 603.267 740.784 513.198 740.784C455.213 740.784 400.422 732.364 351.855 717.399C352.255 719.235 352.654 721.15 353.053 723.066C353.172 723.625 353.292 724.183 353.412 724.782C353.731 726.338 354.01 727.895 354.33 729.491C354.409 730.01 354.529 730.528 354.609 731.087C354.968 733.122 355.327 735.237 355.686 737.353C355.766 737.871 355.846 738.43 355.926 738.949C356.165 740.385 356.365 741.862 356.564 743.378C415.227 772.59 508.848 784.761 612.924 772.71C624.617 770.674 636.07 768.32 647.244 765.606C674.38 759.022 702.355 772.63 713.608 798.25C731.965 840.112 762.574 876.028 777.938 915.336C801.842 988.165 776.222 1071.81 720.312 1136.82C809.544 1069.69 858.429 960.31 828.22 868.246L828.14 868.206Z" fill="#D6823C"/>
<path d="M748.847 686.872C685.556 720.473 603.228 740.746 513.159 740.746C455.175 740.746 400.383 732.326 351.817 717.361C360.517 756.469 367.501 821.197 341.122 883.851C299.42 982.899 231.619 1199.27 536.624 1199.27C728.655 1199.27 875.471 1012.47 828.142 868.207C805.515 810.343 749.845 759.821 748.847 686.872Z" stroke="#592832" stroke-width="21.5495" stroke-linecap="round" stroke-linejoin="round"/>
<path d="M805.591 823.551C815.289 836.001 856.552 888.279 872.315 914.538C914.018 984.055 922.119 1083.7 866.529 1161.32C810.899 1238.94 698.522 1241.25 648.12 1177.52C573.495 1083.22 601.789 998.261 622.181 959.632C711.372 947.5 756.467 882.732 805.591 823.511V823.551Z" fill="#EAAC71"/>
<path d="M649.914 1141.97C609.329 1063.63 622.219 1000.74 642.731 959.394C647.041 950.734 640.177 940.837 630.52 941.316H630.28C606.695 978.07 571.378 1060.4 637.783 1160.6C670.745 1210.33 739.903 1227.33 798.885 1204.18C739.584 1217.51 676.372 1193.05 649.914 1141.97Z" fill="#F5D7BB"/>
<path d="M872.315 914.539C856.552 888.28 815.289 836.003 805.591 823.552C790.347 841.909 775.502 860.824 759.619 878.503C765.286 886.564 770.354 894.067 773.985 900.132C815.688 969.65 823.789 1069.3 768.199 1146.91C745.532 1178.56 713.367 1197.72 679.846 1204.94C736.353 1238.06 820.676 1225.29 866.529 1161.32C922.158 1083.7 914.017 984.056 872.315 914.539Z" fill="#D6823C"/>
<path d="M635.988 937.724C635.988 937.724 546.358 1048.98 648.12 1177.56C698.562 1241.29 810.938 1238.98 866.528 1161.36C922.158 1083.74 914.017 984.095 872.315 914.578C830.612 845.061 809.621 836.72 789.309 798.131" stroke="#592832" stroke-width="21.5495" stroke-linecap="round" stroke-linejoin="round"/>
<path d="M827.139 1267.91H551.385C551.385 1267.91 558.289 1196.08 648.078 1177.52C737.908 1158.97 831.928 1212.28 837.036 1235.47C842.144 1258.65 827.099 1267.91 827.099 1267.91H827.139Z" fill="#AE6745"/>
<path d="M827.139 1267.91H551.385C551.385 1267.91 558.289 1196.08 648.078 1177.52C737.908 1158.97 831.928 1212.28 837.036 1235.47C842.144 1258.65 827.099 1267.91 827.099 1267.91H827.139Z" fill="#AE6745"/>
<path d="M660.409 1191.65C732.081 1176.84 806.347 1207.77 836.077 1232.67C824.704 1208.33 734.515 1159.72 648.117 1177.56C558.288 1196.12 551.424 1267.95 551.424 1267.95H566.987C574.051 1246.04 595.72 1205.06 660.409 1191.69V1191.65Z" fill="#C18B71"/>
<path d="M837.077 1235.47C835.361 1227.73 823.708 1216.63 805.67 1205.98C802.677 1206.3 799.684 1206.65 796.691 1207.05C762.571 1211.8 740.463 1221.7 726.096 1232.16C713.446 1241.37 698.242 1246.32 682.598 1246.32H557.372C552.264 1258.81 551.346 1267.87 551.346 1267.87H827.1C827.1 1267.87 842.145 1258.61 837.037 1235.43L837.077 1235.47Z" fill="#924921"/>
<path d="M827.139 1267.91H551.385C551.385 1267.91 558.289 1196.08 648.078 1177.52C737.908 1158.97 831.928 1212.28 837.036 1235.47C842.144 1258.65 827.099 1267.91 827.099 1267.91H827.139Z" stroke="#592832" stroke-width="21.5495" stroke-linecap="round" stroke-linejoin="round"/>
<path d="M650.753 1267.91C650.753 1267.91 663.443 1228.08 694.77 1217.99" stroke="#592832" stroke-width="21.5495" stroke-linecap="round" stroke-linejoin="round"/>
<path d="M589.856 1267.91C589.856 1267.91 602.547 1228.08 633.873 1217.99" stroke="#592832" stroke-width="21.5495" stroke-linecap="round" stroke-linejoin="round"/>
<path d="M451.78 1192.33C450.184 1192.05 448.588 1191.73 447.032 1191.41C445.196 1191.05 443.36 1190.65 441.525 1190.25C440.008 1189.93 438.452 1189.57 436.975 1189.25C435.219 1188.86 433.463 1188.42 431.747 1187.98C430.271 1187.62 428.794 1187.26 427.358 1186.86C425.682 1186.42 424.006 1185.94 422.369 1185.46C420.973 1185.06 419.536 1184.67 418.179 1184.23C416.543 1183.75 414.987 1183.23 413.39 1182.71C412.073 1182.27 410.717 1181.83 409.4 1181.39C407.843 1180.83 406.327 1180.28 404.811 1179.72C403.573 1179.24 402.296 1178.8 401.059 1178.32C399.543 1177.72 398.066 1177.08 396.59 1176.48C395.432 1176.01 394.275 1175.53 393.158 1175.05C391.561 1174.37 390.045 1173.61 388.489 1172.89C387.531 1172.45 386.573 1172.01 385.615 1171.58C383.221 1170.42 380.907 1169.22 378.672 1167.98C377.634 1167.43 376.636 1166.83 375.599 1166.23C374.362 1165.51 373.125 1164.83 371.928 1164.11C370.85 1163.47 369.812 1162.8 368.775 1162.12C367.697 1161.44 366.62 1160.76 365.622 1160.08C364.585 1159.36 363.547 1158.65 362.549 1157.93C361.592 1157.25 360.594 1156.57 359.676 1155.89C358.679 1155.13 357.681 1154.38 356.723 1153.62C355.845 1152.94 354.927 1152.22 354.049 1151.5C353.092 1150.7 352.174 1149.91 351.216 1149.11C350.378 1148.39 349.58 1147.71 348.782 1146.95C347.864 1146.12 346.986 1145.28 346.108 1144.44C345.35 1143.72 344.592 1143 343.873 1142.28C342.995 1141.41 342.157 1140.53 341.319 1139.65C340.641 1138.93 339.962 1138.17 339.284 1137.46C338.486 1136.54 337.648 1135.66 336.89 1134.74C336.251 1134.02 335.652 1133.27 335.054 1132.55C334.296 1131.59 333.537 1130.63 332.779 1129.67C332.221 1128.96 331.662 1128.2 331.143 1127.48C330.425 1126.48 329.706 1125.48 328.988 1124.49C328.509 1123.77 328.03 1123.05 327.551 1122.29C326.873 1121.25 326.155 1120.22 325.516 1119.14C325.077 1118.46 324.678 1117.74 324.279 1117.02C323.601 1115.91 322.962 1114.83 322.324 1113.67C321.964 1113.03 321.645 1112.43 321.326 1111.8C320.687 1110.56 320.009 1109.36 319.411 1108.12C319.211 1107.73 319.051 1107.33 318.852 1106.93C316.417 1101.86 314.302 1096.71 312.507 1091.4C291.835 1030.19 312.906 955.482 333.458 902.566C248.097 951.491 212.501 1142.64 374.122 1192.17C409.041 1201.27 436.097 1200.03 457.088 1193.13C455.292 1192.85 453.497 1192.53 451.741 1192.21L451.78 1192.33Z" fill="#EAAC71"/>
<path d="M324.24 928.225C327.113 919.645 330.106 911.464 333.099 903.682C331.942 903.363 330.745 903.004 329.587 902.685C244.227 951.61 208.631 1142.76 370.252 1192.29C392.959 1198.19 412.354 1199.75 428.915 1198.23C418.539 1197.35 407.325 1195.48 395.154 1192.29C254.443 1149.15 263.263 998.66 324.24 928.185V928.225Z" fill="#F5D7BB"/>
<path d="M451.78 1192.33C450.184 1192.05 448.588 1191.73 447.032 1191.41C445.196 1191.05 443.36 1190.65 441.525 1190.25C440.008 1189.93 438.452 1189.57 436.975 1189.25C435.219 1188.86 433.463 1188.42 431.747 1187.98C430.271 1187.62 428.794 1187.26 427.358 1186.86C425.682 1186.42 424.006 1185.94 422.369 1185.46C420.973 1185.06 419.536 1184.67 418.179 1184.23C416.543 1183.75 414.987 1183.23 413.39 1182.71C412.073 1182.27 410.717 1181.83 409.4 1181.39C407.843 1180.83 406.327 1180.28 404.81 1179.72C403.573 1179.24 402.296 1178.8 401.059 1178.32C399.543 1177.72 398.066 1177.08 396.59 1176.48C395.432 1176.01 394.275 1175.53 393.158 1175.05C391.561 1174.37 390.045 1173.61 388.489 1172.89C387.531 1172.45 386.573 1172.01 385.615 1171.58C383.221 1170.42 380.907 1169.22 378.672 1167.98C377.634 1167.43 376.636 1166.83 375.599 1166.23C374.362 1165.51 373.125 1164.83 371.928 1164.11C370.85 1163.47 369.812 1162.8 368.775 1162.12C367.697 1161.44 366.62 1160.76 365.622 1160.08C364.585 1159.36 363.547 1158.65 362.549 1157.93C361.592 1157.25 360.594 1156.57 359.676 1155.89C358.679 1155.13 357.681 1154.38 356.723 1153.62C355.845 1152.94 354.927 1152.22 354.049 1151.5C353.092 1150.7 352.174 1149.91 351.216 1149.11C350.378 1148.39 349.58 1147.71 348.782 1146.95C347.864 1146.12 346.986 1145.28 346.108 1144.44C345.35 1143.72 344.592 1143 343.873 1142.28C342.995 1141.41 342.157 1140.53 341.319 1139.65C340.641 1138.93 339.962 1138.17 339.284 1137.46C338.486 1136.54 337.648 1135.66 336.89 1134.74C336.251 1134.02 335.652 1133.27 335.054 1132.55C334.296 1131.59 333.537 1130.63 332.779 1129.67C332.221 1128.96 331.662 1128.2 331.143 1127.48C330.425 1126.48 329.706 1125.48 328.988 1124.49C328.509 1123.77 328.03 1123.05 327.551 1122.29C326.873 1121.25 326.155 1120.22 325.516 1119.14C325.077 1118.46 324.678 1117.74 324.279 1117.02C323.601 1115.91 322.962 1114.83 322.324 1113.67C321.964 1113.03 321.645 1112.43 321.326 1111.8C320.687 1110.56 320.009 1109.36 319.411 1108.12C319.211 1107.73 319.051 1107.33 318.852 1106.93C316.417 1101.86 314.302 1096.71 312.507 1091.4C291.835 1030.19 312.906 955.482 333.458 902.566C248.097 951.491 212.501 1142.64 374.122 1192.17C409.041 1201.27 436.097 1200.03 457.088 1193.13C455.292 1192.85 453.497 1192.53 451.741 1192.21L451.78 1192.33Z" stroke="#592832" stroke-width="21.5495" stroke-linecap="round" stroke-linejoin="round"/>
<path d="M502.34 1267.91H226.586C226.586 1267.91 233.49 1196.08 323.28 1177.52C413.109 1158.96 507.129 1212.28 512.237 1235.47C517.345 1258.65 502.3 1267.91 502.3 1267.91H502.34Z" fill="#AE6745"/>
<path d="M502.34 1267.91H226.586C226.586 1267.91 233.49 1196.08 323.28 1177.52C413.109 1158.96 507.129 1212.28 512.237 1235.47C517.345 1258.65 502.3 1267.91 502.3 1267.91H502.34Z" fill="#AE6745"/>
<path d="M335.571 1191.65C407.243 1176.84 481.509 1207.77 511.239 1232.67C499.866 1208.33 409.677 1159.72 323.28 1177.56C233.45 1196.12 226.586 1267.95 226.586 1267.95H242.149C249.213 1246.04 270.882 1205.06 335.571 1191.69V1191.65Z" fill="#C18B71"/>
<path d="M512.278 1235.46C510.562 1227.72 498.909 1216.63 480.871 1205.97C477.878 1206.29 474.885 1206.65 471.892 1207.05C437.772 1211.8 415.664 1221.7 401.298 1232.15C388.647 1241.37 373.443 1246.32 357.8 1246.32H232.573C227.465 1258.81 226.547 1267.87 226.547 1267.87H502.301C502.301 1267.87 517.346 1258.61 512.238 1235.43L512.278 1235.46Z" fill="#924921"/>
<path d="M325.955 1267.91C325.955 1267.91 338.645 1228.08 369.972 1217.99" stroke="#592832" stroke-width="21.5495" stroke-linecap="round" stroke-linejoin="round"/>
<path d="M265.059 1267.91C265.059 1267.91 277.749 1228.08 309.076 1217.99" stroke="#592832" stroke-width="21.5495" stroke-linecap="round" stroke-linejoin="round"/>
<path d="M454.213 1192.77C453.415 1192.61 452.577 1192.49 451.779 1192.33C450.182 1192.05 448.586 1191.73 447.03 1191.41C445.194 1191.05 443.358 1190.65 441.523 1190.25C440.006 1189.93 438.45 1189.57 436.973 1189.25C435.217 1188.85 433.461 1188.42 431.745 1187.98C430.269 1187.62 428.792 1187.26 427.356 1186.86C425.68 1186.42 424.004 1185.94 422.367 1185.46C420.971 1185.06 419.534 1184.66 418.177 1184.23C416.541 1183.75 414.985 1183.23 413.388 1182.71C412.072 1182.27 410.715 1181.83 409.398 1181.39C407.841 1180.83 406.325 1180.27 404.809 1179.72C403.571 1179.24 402.294 1178.8 401.057 1178.32C399.541 1177.72 398.064 1177.08 396.588 1176.48C396.508 1176.48 396.468 1176.44 396.388 1176.4C373.003 1172.77 347.982 1172.41 323.28 1177.48C233.45 1196.04 226.586 1267.87 226.586 1267.87H502.34C502.34 1267.87 517.385 1258.61 512.277 1235.43C509.843 1224.37 487.056 1206.41 454.213 1192.73V1192.77Z" stroke="#592832" stroke-width="21.5495" stroke-linecap="round" stroke-linejoin="round"/>
<path d="M440.288 136.361C360.634 166.291 255.68 69.4377 181.813 136.361C129.136 184.049 187.999 269.529 251.729 286.649L440.288 136.361Z" fill="#EAAC71"/>
<path d="M172.075 162.42C236.923 103.717 325.675 171.08 400.26 168.246L440.286 136.361C360.633 166.291 255.679 69.4377 181.812 136.361C169.64 147.375 163.495 160.385 161.898 174.113C164.692 170.042 168.004 166.091 172.075 162.42Z" fill="#F5D7BB"/>
<path d="M440.288 136.361C360.634 166.291 255.68 69.4377 181.813 136.361C129.136 184.049 187.999 269.529 251.729 286.649L440.288 136.361Z" stroke="#592832" stroke-width="21.5495" stroke-linecap="round" stroke-linejoin="round"/>
<path d="M181.017 235.489C198.137 259.513 224.475 279.306 251.731 286.649L327.314 226.43C232.337 101.163 155.516 196.54 181.057 235.529L181.017 235.489Z" fill="#EE857B"/>
<path d="M212.502 221.122C202.167 205.319 208.632 180.258 226.27 164.375C186.843 169.244 165.852 212.303 181.016 235.488C198.136 259.512 224.474 279.306 251.731 286.649L273.639 269.17C249.895 260.23 227.627 242.312 212.502 221.122Z" fill="#FFBAB0"/>
<path d="M181.017 235.489C198.137 259.513 224.475 279.306 251.731 286.649L327.314 226.43C232.337 101.163 155.516 196.54 181.057 235.529L181.017 235.489Z" stroke="#592832" stroke-width="21.5495" stroke-linecap="round" stroke-linejoin="round"/>
<path d="M865.771 136.361C809.623 99.9658 739.307 145.978 690.502 157.99C639.501 125.706 581.477 106.431 519.941 106.431C316.577 106.431 151.684 334.137 151.684 513.717C151.684 639.103 316.538 740.785 519.941 740.785C723.345 740.785 888.199 639.143 888.199 513.717C888.199 448.15 869.961 381.147 838.156 320.928C931.098 275.994 941.314 185.326 865.771 136.361Z" fill="#EAAC71"/>
<path d="M869.522 138.956C884.208 183.611 861.142 235.729 799.885 269.091C835.083 328.592 856.872 395.635 860.064 462.119C866.21 589.262 703.99 700.401 497.792 710.378C398.186 715.207 306.52 695.493 237.682 659.537C305.243 709.221 406.606 740.787 519.941 740.787C723.304 740.787 888.198 639.145 888.198 513.718C888.198 448.152 869.961 381.149 838.155 320.93C929.501 276.753 940.875 188.44 869.522 138.956Z" fill="#D6823C"/>
<path d="M865.77 136.362C809.622 99.9673 739.306 145.98 690.501 157.991C681.921 152.564 673.141 147.536 664.202 142.867L660.69 149.571C699.639 182.733 727.215 178.743 770.473 158.829C820.476 135.803 905.118 151.566 915.813 222.361C917.25 190.515 900.688 158.989 865.77 136.362Z" fill="#F5D7BB"/>
<path d="M182.372 513.717C182.372 338.647 339.125 117.804 535.465 106.91C530.317 106.63 525.129 106.431 519.941 106.431C316.577 106.431 151.684 334.137 151.684 513.717C151.684 639.103 316.538 740.785 519.941 740.785C525.089 740.785 530.197 740.705 535.265 740.586C339.005 735.637 182.372 635.99 182.372 513.757V513.717Z" fill="#F5D7BB"/>
<path d="M463.275 199.453C428.876 164.295 395.554 151.924 368.178 149.57C344.434 163.457 322.006 180.218 301.255 199.174C317.497 240.357 389.209 264.98 463.236 199.453H463.275Z" fill="#D6823C"/>
<path d="M865.771 136.361C809.623 99.9658 739.307 145.978 690.502 157.99C639.501 125.706 581.477 106.431 519.941 106.431C316.577 106.431 151.684 334.137 151.684 513.717C151.684 639.103 316.538 740.785 519.941 740.785C723.345 740.785 888.199 639.143 888.199 513.717C888.199 448.15 869.961 381.147 838.156 320.928C931.098 275.994 941.314 185.326 865.771 136.361V136.361Z" stroke="#592832" stroke-width="21.5495" stroke-linecap="round" stroke-linejoin="round"/>
<path d="M915.494 209.829C923.595 240.916 894.144 293.473 839.232 320.45C818.96 284.733 794.737 250.693 764.807 219.087C764.807 219.087 893.346 125.187 915.494 209.868V209.829Z" fill="white"/>
<path d="M915.494 209.829C923.595 240.916 894.144 293.473 839.232 320.45C818.96 284.733 794.737 250.693 764.807 219.087C764.807 219.087 893.346 125.187 915.494 209.868V209.829Z" fill="#EE857B"/>
<path d="M915.496 209.829C908.911 184.647 892.908 175.269 873.674 174.511C879.42 180.338 883.81 188.479 886.244 199.652C892.27 227.188 868.725 270.087 825.067 296.905C829.976 304.686 834.725 312.508 839.234 320.449C894.146 293.513 923.597 240.916 915.496 209.829Z" fill="#FFBAB0"/>
<path d="M915.494 209.829C923.595 240.916 894.144 293.473 839.232 320.45C818.96 284.733 794.737 250.693 764.807 219.087C764.807 219.087 893.346 125.187 915.494 209.868V209.829Z" stroke="#592832" stroke-width="21.5495" stroke-linecap="round" stroke-linejoin="round"/>
<path d="M643.451 133.009C631.359 127.861 616.155 122.155 598.117 116.887C441.684 79.3348 383.619 -32.3636 353.53 29.6113C323.44 91.5861 405.448 130.734 405.448 130.734C405.448 130.734 335.772 136.72 337.567 178.343C339.403 220.045 433.183 231.459 480.991 186.324C546.039 181.735 603.066 167.488 643.451 133.009Z" fill="#EAAC71"/>
<path d="M602.349 141.31C655.864 147.854 667.836 152.483 676.057 155.516C685.834 149.969 635.033 140.192 643.493 133.009C631.401 127.861 616.197 122.154 598.159 116.887C441.726 79.3348 383.662 -32.3237 353.572 29.6112C350.1 36.6747 348.185 43.4588 347.347 49.9236C378.394 1.3973 437.535 111.819 602.389 141.31H602.349Z" fill="#F5D7BB"/>
<path d="M401.896 131.174C393.276 132.331 370.729 136.242 354.767 147.257C381.783 158.79 428.713 163.858 453.535 140.712C433.063 139.874 415.824 136.721 401.896 131.134V131.174Z" fill="#D6823C"/>
<path d="M676.813 149.69C676.813 149.69 648.519 131.572 598.117 116.887C441.684 79.3348 383.619 -32.3636 353.53 29.6113C323.44 91.5861 405.448 130.734 405.448 130.734C405.448 130.734 335.772 136.72 337.567 178.343C339.403 220.045 433.183 231.459 480.991 186.324" stroke="#592832" stroke-width="21.5495" stroke-linecap="round" stroke-linejoin="round"/>
<path d="M458.008 135.843C458.008 135.843 403.416 141.79 378.913 113.256" stroke="#592832" stroke-width="21.5495" stroke-linecap="round" stroke-linejoin="round"/>
<path d="M255.681 511.563C280.806 511.563 301.174 487.174 301.174 457.09C301.174 427.006 280.806 402.618 255.681 402.618C230.556 402.618 210.188 427.006 210.188 457.09C210.188 487.174 230.556 511.563 255.681 511.563Z" fill="#592832"/>
<path d="M270.327 459.286C276.939 459.286 282.299 453.461 282.299 446.276C282.299 439.091 276.939 433.267 270.327 433.267C263.715 433.267 258.355 439.091 258.355 446.276C258.355 453.461 263.715 459.286 270.327 459.286Z" fill="white"/>
<path d="M608.614 540.775C644.363 540.775 673.343 511.795 673.343 476.046C673.343 440.298 644.363 411.318 608.614 411.318C572.866 411.318 543.886 440.298 543.886 476.046C543.886 511.795 572.866 540.775 608.614 540.775Z" fill="#592832"/>
<path d="M583.195 478.12C591.989 478.12 599.118 470.992 599.118 462.198C599.118 453.404 591.989 446.275 583.195 446.275C574.401 446.275 567.272 453.404 567.272 462.198C567.272 470.992 574.401 478.12 583.195 478.12Z" fill="white"/>
<path d="M441.165 573.059C469.354 573.059 492.206 552.709 492.206 527.605C492.206 502.502 469.354 482.152 441.165 482.152C412.977 482.152 390.125 502.502 390.125 527.605C390.125 552.709 412.977 573.059 441.165 573.059Z" fill="#FFE5C0"/>
<path d="M361.353 565.715C382.49 565.715 399.624 547.67 399.624 525.41C399.624 503.149 382.49 485.104 361.353 485.104C340.217 485.104 323.083 503.149 323.083 525.41C323.083 547.67 340.217 565.715 361.353 565.715Z" fill="#FFE5C0"/>
<path d="M393.119 545.085C362.152 546.282 342.837 492.687 360.715 485.584C378.593 478.481 425.643 480.755 427.998 496.439C430.352 512.122 418.739 544.087 393.119 545.085Z" fill="#DBAB7A"/>
<path d="M392.522 529.76C361.554 530.957 342.718 490.492 360.676 484.905C378.634 479.358 425.644 480.635 427.839 492.527C430.034 504.42 418.142 528.763 392.522 529.76Z" fill="#592832"/>
<path d="M489.654 529.721C486.74 553.984 466.109 572.82 441.047 572.82C413.991 572.82 392.082 550.912 392.082 523.855" stroke="#592832" stroke-width="21.5495" stroke-linecap="round" stroke-linejoin="round"/>
<path d="M395.514 545.004C388.97 557.894 375.042 566.115 359.798 564.678C339.885 562.803 325.279 545.164 327.154 525.25" stroke="#592832" stroke-width="21.5495" stroke-linecap="round" stroke-linejoin="round"/>
<path d="M359.798 564.679C359.798 564.679 360.317 566.315 361.234 569.069C365.504 581.919 378.155 618.753 383.622 620.947C390.247 623.621 430.991 625.377 435.421 620.947C439.85 616.518 446.116 572.541 446.116 572.541C446.116 572.541 416.744 578.207 396.312 547.16C396.312 547.16 376.758 570.745 359.838 564.679H359.798Z" fill="white"/>
<path d="M446.115 572.541C446.115 572.541 416.744 578.207 396.311 547.16C396.311 547.16 376.757 570.745 359.837 564.679C359.837 564.679 360.356 566.315 361.273 569.069C362.79 573.578 365.304 581.041 368.177 588.902C377.715 587.905 389.926 584.752 398.267 575.973C407.405 590.14 427.838 594.37 442.563 594.489C444.638 583.156 446.155 572.541 446.155 572.541H446.115Z" fill="#C6AEA7"/>
<path d="M359.798 564.679C359.798 564.679 360.317 566.315 361.234 569.069C365.504 581.919 378.155 618.753 383.622 620.947C390.247 623.621 430.991 625.377 435.421 620.947C439.85 616.518 446.116 572.541 446.116 572.541C446.116 572.541 416.744 578.207 396.312 547.16C396.312 547.16 376.758 570.745 359.838 564.679H359.798Z" stroke="#592832" stroke-width="21.5495" stroke-linecap="round" stroke-linejoin="round"/>
<path d="M405.529 618.991C405.529 618.991 396.35 574.695 396.311 547.199" stroke="#592832" stroke-width="9.1785" stroke-linecap="round" stroke-linejoin="round"/>
<path d="M487.736 977.512C488.056 977.911 488.375 978.31 488.694 978.709C488.375 978.31 488.056 977.911 487.736 977.512Z" fill="#D6823C"/>
<path d="M484.463 972.763C484.982 973.561 485.461 974.319 485.979 975.077C485.461 974.319 484.942 973.561 484.463 972.763Z" fill="#D6823C"/>
<path d="M594.527 852.884C594.527 852.884 610.49 809.905 594.447 782.369" stroke="#592832" stroke-width="21.5495" stroke-linecap="round" stroke-linejoin="round"/>
<path d="M552.864 1002.49C573.416 995.909 577.925 952.69 562.96 905.959C547.995 859.229 519.222 826.665 498.671 833.21L444.278 849.372C423.726 855.956 419.217 899.175 434.182 945.906C449.147 992.636 477.919 1025.2 498.471 1018.66L552.864 1002.49Z" fill="#AB69F3"/>
<path d="M519.821 1008.36C499.987 1014.74 472.093 983.218 457.607 937.964C443.081 892.67 447.47 850.848 467.344 844.463L506.572 832.81C504.497 832.81 502.262 831.453 500.346 832.092L445.954 848.254C425.402 854.799 420.892 898.057 435.857 944.788C450.822 991.558 479.595 1024.12 500.147 1017.54L554.579 1001.38C556.774 1000.66 558.051 998.063 559.927 996.507L519.861 1008.4L519.821 1008.36Z" fill="#CAA0F7"/>
<path d="M552.864 1002.49C573.416 995.909 577.925 952.69 562.96 905.959C547.995 859.229 519.222 826.665 498.671 833.21L444.278 849.372C423.726 855.956 419.217 899.175 434.182 945.906C449.147 992.636 477.919 1025.2 498.471 1018.66L552.864 1002.49V1002.49Z" stroke="#592832" stroke-width="21.5495" stroke-linecap="round" stroke-linejoin="round"/>
<path d="M552.816 1002.61C573.366 996.027 577.895 952.799 562.931 906.053C547.968 859.307 519.178 826.745 498.629 833.323C478.079 839.901 473.55 883.129 488.514 929.875C503.477 976.621 532.267 1009.18 552.816 1002.61Z" fill="#933FDE"/>
<path d="M552.816 1002.61C573.366 996.027 577.895 952.799 562.931 906.053C547.968 859.307 519.178 826.745 498.629 833.323C478.079 839.901 473.55 883.129 488.514 929.875C503.477 976.621 532.267 1009.18 552.816 1002.61Z" stroke="#592832" stroke-width="21.5495" stroke-linecap="round" stroke-linejoin="round"/>
<path d="M644.005 852.244L529.653 890.927C518.442 894.72 512.428 906.883 516.221 918.094L517.973 923.273C521.765 934.484 533.928 940.498 545.139 936.706L659.491 898.022C670.702 894.23 676.716 882.066 672.924 870.855L671.172 865.676C667.379 854.465 655.216 848.451 644.005 852.244Z" fill="#7123A5"/>
<path d="M644.005 852.244L529.653 890.927C518.442 894.72 512.428 906.883 516.221 918.094L517.973 923.273C521.765 934.484 533.928 940.498 545.139 936.706L659.491 898.022C670.702 894.23 676.716 882.066 672.924 870.855L671.172 865.676C667.379 854.465 655.216 848.451 644.005 852.244Z" stroke="#592832" stroke-width="21.5495" stroke-linecap="round" stroke-linejoin="round"/>
<path d="M651.145 951.768C690.532 933.761 708.836 889.362 692.029 852.601C675.222 815.84 629.668 800.637 590.281 818.645C550.894 836.653 532.59 881.052 549.397 917.813C566.204 954.574 611.758 969.776 651.145 951.768Z" fill="#AE6745"/>
<path d="M651.145 951.768C690.532 933.761 708.836 889.362 692.029 852.601C675.222 815.84 629.668 800.637 590.281 818.645C550.894 836.653 532.59 881.052 549.397 917.813C566.204 954.574 611.758 969.776 651.145 951.768Z" fill="#924921"/>
<path d="M639.534 926.518C672.604 911.391 687.968 874.107 673.85 843.241C659.731 812.376 621.477 799.617 588.407 814.744C555.337 829.871 539.973 867.155 554.092 898.02C568.21 928.886 606.464 941.645 639.534 926.518Z" fill="#AE6745"/>
<path d="M651.145 951.768C690.532 933.761 708.836 889.362 692.029 852.601C675.222 815.84 629.668 800.637 590.281 818.645C550.894 836.653 532.59 881.052 549.397 917.813C566.204 954.574 611.758 969.776 651.145 951.768Z" stroke="#592832" stroke-width="21.5495" stroke-linecap="round" stroke-linejoin="round"/>
<path d="M635.988 884.171C635.988 884.171 609.29 846.739 629.882 811.222" stroke="#592832" stroke-width="21.5495" stroke-linecap="round" stroke-linejoin="round"/>
<path d="M586.744 897.659C586.744 897.659 560.046 860.226 580.638 824.709" stroke="#592832" stroke-width="21.5495" stroke-linecap="round" stroke-linejoin="round"/>
<path d="M784.52 932.737C804.793 925.314 807.546 881.976 790.706 835.844C773.865 789.752 743.775 758.385 723.503 765.768L669.789 784.125C649.516 791.548 646.763 834.886 663.603 881.018C680.444 927.11 710.533 958.477 730.806 951.094L784.52 932.737Z" fill="#AB69F3"/>
<path d="M688.983 874.233C672.143 828.141 674.936 784.763 695.169 777.34L731.244 765.049C729.648 765.169 727.852 764.091 726.336 764.61L672.622 783.007C652.349 790.39 649.596 833.808 666.436 879.9C683.277 925.992 713.366 957.398 733.639 949.976L751.238 943.95C731.244 945.626 704.587 916.973 688.944 874.273L688.983 874.233Z" fill="#CAA0F7"/>
<path d="M784.52 932.737C804.793 925.314 807.546 881.976 790.706 835.844C773.865 789.752 743.775 758.385 723.503 765.768L669.789 784.125C649.516 791.548 646.763 834.886 663.603 881.018C680.444 927.11 710.533 958.477 730.806 951.094L784.52 932.737V932.737Z" stroke="#592832" stroke-width="21.5495" stroke-linecap="round" stroke-linejoin="round"/>
<path d="M784.575 932.596C804.841 925.188 807.608 881.812 790.756 835.713C773.905 789.614 743.816 758.249 723.55 765.657C703.285 773.065 700.517 816.441 717.369 862.54C734.221 908.639 764.31 940.004 784.575 932.596Z" fill="#933FDE"/>
<path d="M784.575 932.596C804.841 925.188 807.608 881.812 790.756 835.713C773.905 789.614 743.816 758.249 723.55 765.657C703.285 773.065 700.517 816.441 717.369 862.54C734.221 908.639 764.31 940.004 784.575 932.596Z" stroke="#592832" stroke-width="21.5495" stroke-linecap="round" stroke-linejoin="round"/>
<path d="M341.121 883.851C342.597 880.339 343.914 876.868 345.191 873.356C345.471 872.558 345.75 871.799 346.029 871.001C347.226 867.609 348.344 864.217 349.342 860.825C349.541 860.187 349.701 859.588 349.86 858.95C361.992 816.888 361.034 775.585 356.485 743.34C356.325 742.143 356.126 740.946 355.966 739.749C355.806 738.671 355.647 737.634 355.447 736.556C334.377 753.277 291.397 790.829 261.068 840.712C269.968 872.358 304.966 891.034 334.018 901.33C336.412 895.185 338.806 889.358 341.121 883.851Z" fill="#EAAC71"/>
<path d="M359.238 771.754C358.719 761.697 357.761 752.16 356.524 743.34C356.364 742.143 356.165 740.946 356.005 739.749C355.846 738.671 355.686 737.634 355.486 736.556C334.416 753.277 291.436 790.829 261.107 840.712C266.694 860.665 282.857 875.231 301.174 886.006C293.751 878.264 287.446 869.684 284.533 859.309C307.319 821.876 336.93 791.667 359.278 771.794L359.238 771.754Z" fill="#F5D7BB"/>
<path d="M341.121 883.851C342.597 880.339 343.914 876.868 345.191 873.356C345.471 872.558 345.75 871.799 346.029 871.001C347.226 867.609 348.344 864.217 349.342 860.825C349.541 860.187 349.701 859.588 349.86 858.95C361.992 816.888 361.034 775.585 356.485 743.34C356.325 742.143 356.126 740.946 355.966 739.749C355.806 738.671 355.647 737.634 355.447 736.556C334.377 753.277 291.397 790.829 261.068 840.712C269.968 872.358 304.966 891.034 334.018 901.33C336.412 895.185 338.806 889.358 341.121 883.851V883.851Z" stroke="#592832" stroke-width="21.5495" stroke-linecap="round" stroke-linejoin="round"/>
<path d="M227.067 960.831C272.006 960.831 308.436 924.4 308.436 879.461C308.436 834.522 272.006 798.092 227.067 798.092C182.128 798.092 145.697 834.522 145.697 879.461C145.697 924.4 182.128 960.831 227.067 960.831Z" fill="#D6823C"/>
<path d="M227.067 960.831C272.006 960.831 308.436 924.4 308.436 879.461C308.436 834.522 272.006 798.092 227.067 798.092C182.128 798.092 145.697 834.522 145.697 879.461C145.697 924.4 182.128 960.831 227.067 960.831Z" stroke="#592832" stroke-width="21.5495" stroke-linecap="round" stroke-linejoin="round"/>
<path d="M71.9115 861.862C90.4282 872.916 125.865 847.775 151.046 805.634C176.227 763.492 181.655 720.393 163.138 709.299L115.05 679.13C96.5339 668.076 61.0969 693.217 35.9159 735.358C10.7348 777.499 5.30755 820.598 23.8242 831.692L71.9115 861.862Z" fill="#AB69F3"/>
<path d="M43.1789 838.117C25.4604 827.502 30.6482 786.159 54.7917 745.814C78.9751 705.428 112.896 681.365 130.614 691.94L166.809 714.647C165.452 713.01 164.934 710.417 163.178 709.299L115.09 679.13C96.5738 668.076 61.1368 693.217 35.9159 735.358C10.7348 777.499 5.30755 820.638 23.8242 831.692L71.9115 861.822C74.9843 863.698 79.0948 863.139 82.9657 863.059L43.1789 838.117Z" fill="#CAA0F7"/>
<path d="M71.9115 861.862C90.4282 872.916 125.865 847.775 151.046 805.634C176.227 763.492 181.655 720.393 163.138 709.299L115.05 679.13C96.5339 668.076 61.0969 693.217 35.9159 735.358C10.7348 777.499 5.30755 820.598 23.8242 831.692L71.9115 861.862V861.862Z" stroke="#592832" stroke-width="21.5495" stroke-linecap="round" stroke-linejoin="round"/>
<path d="M151.082 805.721C176.281 763.601 181.698 720.475 163.181 709.398C144.665 698.32 109.227 723.486 84.0284 765.606C58.8299 807.727 53.4128 850.852 71.9292 861.93C90.4455 873.007 125.884 847.842 151.082 805.721Z" fill="#933FDE"/>
<path d="M151.082 805.721C176.281 763.601 181.698 720.475 163.181 709.398C144.665 698.32 109.227 723.486 84.0284 765.606C58.8299 807.727 53.4128 850.852 71.9292 861.93C90.4455 873.007 125.884 847.842 151.082 805.721Z" stroke="#592832" stroke-width="21.5495" stroke-linecap="round" stroke-linejoin="round"/>
<path d="M244.681 831.095L140.095 770.809C129.841 764.898 116.737 768.419 110.826 778.673L108.096 783.41C102.186 793.664 105.707 806.767 115.96 812.678L220.547 872.964C230.801 878.874 243.904 875.353 249.815 865.099L252.545 860.363C258.456 850.109 254.935 837.005 244.681 831.095Z" fill="#7123A5"/>
<path d="M244.681 831.095L140.095 770.809C129.841 764.898 116.737 768.419 110.826 778.673L108.096 783.41C102.186 793.664 105.707 806.767 115.96 812.678L220.547 872.964C230.801 878.874 243.904 875.353 249.815 865.099L252.545 860.363C258.456 850.109 254.935 837.005 244.681 831.095Z" stroke="#592832" stroke-width="21.5495" stroke-linecap="round" stroke-linejoin="round"/>
<path d="M276.457 867.369C292.949 830.465 274.265 786.225 234.726 768.555C195.187 750.884 149.764 766.476 133.272 803.379C116.78 840.283 135.463 884.523 175.002 902.194C214.542 919.864 259.964 904.272 276.457 867.369Z" fill="#AE6745"/>
<path d="M276.457 867.369C292.949 830.465 274.265 786.225 234.726 768.555C195.187 750.884 149.764 766.476 133.272 803.379C116.78 840.283 135.463 884.523 175.002 902.194C214.542 919.864 259.964 904.272 276.457 867.369Z" fill="#924921"/>
<path d="M271.478 847.329C285.316 816.337 269.614 779.194 236.408 764.368C203.202 749.542 165.066 762.647 151.228 793.64C137.39 824.632 153.092 861.775 186.298 876.601C219.504 891.427 257.641 878.322 271.478 847.329Z" fill="#AE6745"/>
<path d="M276.457 867.369C292.949 830.465 274.265 786.225 234.726 768.555C195.187 750.884 149.764 766.476 133.272 803.379C116.78 840.283 135.463 884.523 175.002 902.194C214.542 919.864 259.964 904.272 276.457 867.369Z" stroke="#592832" stroke-width="21.5495" stroke-linecap="round" stroke-linejoin="round"/>
<path d="M215.655 846.101C215.655 846.101 226.111 801.325 266.376 793.304" stroke="#592832" stroke-width="21.5495" stroke-linecap="round" stroke-linejoin="round"/>
<path d="M172.997 818.045C172.997 818.045 183.453 773.27 223.718 765.249" stroke="#592832" stroke-width="21.5495" stroke-linecap="round" stroke-linejoin="round"/>
<path d="M277.351 989.642C296.306 999.938 330.666 973.36 354.131 930.261C377.596 887.162 381.268 843.824 362.312 833.528L313.027 805.354C294.072 795.058 259.712 821.636 236.247 864.735C212.782 907.834 209.111 951.172 228.066 961.468L277.351 989.642Z" fill="#AB69F3"/>
<path d="M247.781 970.567C229.105 960.391 232.736 917.811 255.842 875.43C277.99 834.725 309.756 809.824 328.752 816.807L309.676 805.913C290.721 795.617 256.361 822.195 232.896 865.294C209.391 908.393 205.76 951.731 224.675 962.027L273.96 990.241C276.594 991.678 280.066 990.8 283.178 990.88L247.741 970.607L247.781 970.567Z" fill="#CAA0F7"/>
<path d="M277.351 989.642C296.306 999.938 330.666 973.36 354.131 930.261C377.596 887.162 381.268 843.824 362.312 833.528L313.027 805.354C294.072 795.058 259.712 821.636 236.247 864.735C212.782 907.834 209.111 951.172 228.066 961.468L277.351 989.642Z" stroke="#592832" stroke-width="21.5495" stroke-linecap="round" stroke-linejoin="round"/>
<path d="M354.122 930.169C377.587 887.059 381.246 843.749 362.295 833.433C343.344 823.118 308.958 849.703 285.493 892.813C262.027 935.923 258.368 979.233 277.319 989.548C296.271 999.864 330.656 973.279 354.122 930.169Z" fill="#933FDE"/>
<path d="M354.122 930.169C377.587 887.059 381.246 843.749 362.295 833.433C343.344 823.118 308.958 849.703 285.493 892.813C262.027 935.923 258.368 979.233 277.319 989.548C296.271 999.864 330.656 973.279 354.122 930.169Z" stroke="#592832" stroke-width="21.5495" stroke-linecap="round" stroke-linejoin="round"/>
</svg>
