<svg width="1549" height="1530" viewBox="0 0 1549 1530" fill="none" xmlns="http://www.w3.org/2000/svg">
<g clip-path="url(#clip0_971_2980)">
<path d="M667.026 739.067C667.026 739.067 605.762 807.867 547.644 840.004C556.093 918.54 645.684 935.47 645.684 935.47C678.278 883.829 686.416 818.922 667.036 739.067H667.026Z" fill="#E9AB71"/>
<path d="M565.55 862.986C608.648 839.153 653.428 795.214 673.711 774.07C672.03 762.703 669.943 751.119 667.016 739.078C667.016 739.078 605.752 807.878 547.634 840.015C550.468 866.38 562.519 885.677 577.186 899.846C571.332 889.393 567.076 877.228 565.55 862.997V862.986Z" fill="#F4D6BA"/>
<path d="M645.685 946.691C644.99 946.691 644.294 946.64 643.609 946.494C642.623 946.307 545.714 927.021 536.486 841.208C536.008 836.724 538.271 832.375 542.216 830.185C597.937 799.366 658.048 732.279 658.65 731.604C661.442 728.48 665.781 727.244 669.747 728.179C673.795 729.196 676.95 732.372 677.936 736.431C697.607 817.407 689.946 886.383 655.183 941.47C653.107 944.771 649.505 946.702 645.696 946.702L645.685 946.691ZM559.852 845.931C569.599 897.936 620.794 917.108 640.319 922.599C665.428 878.712 672.217 824.922 660.55 762.36C639.717 783.816 599.95 822.046 559.852 845.931Z" fill="#592832"/>
<path d="M839.44 1329.72H539.765C539.765 1329.72 547.249 1245.71 644.864 1224.03C742.479 1202.34 844.672 1264.68 850.235 1291.78C855.799 1318.88 839.43 1329.72 839.43 1329.72H839.44Z" fill="#AD6745"/>
<path d="M839.44 1329.72H539.765C539.765 1329.72 547.249 1245.71 644.864 1224.03C742.479 1202.34 844.672 1264.68 850.235 1291.78C855.799 1318.88 839.43 1329.72 839.43 1329.72H839.44Z" fill="#AD6745"/>
<path d="M658.222 1240.54C736.094 1223.25 816.821 1259.4 849.145 1288.5C836.803 1260.01 738.752 1203.18 644.874 1224.04C547.259 1245.72 539.774 1329.73 539.774 1329.73H556.684C564.355 1304.13 587.897 1256.17 658.222 1240.54Z" fill="#C08A71"/>
<path d="M850.246 1291.78C848.388 1282.73 835.724 1269.76 816.095 1257.3C812.846 1257.66 809.597 1258.08 806.358 1258.55C769.291 1264.1 745.24 1275.68 729.639 1287.93C715.916 1298.71 699.37 1304.52 682.378 1304.52H546.304C540.74 1319.12 539.765 1329.71 539.765 1329.71H839.44C839.44 1329.71 855.81 1318.87 850.246 1291.77V1291.78Z" fill="#914921"/>
<path d="M839.44 1340.94H539.765C536.609 1340.94 533.62 1339.62 531.481 1337.29C529.364 1334.97 528.305 1331.85 528.585 1328.71C528.679 1327.8 538 1236.26 642.445 1213.09C711.723 1197.67 783.418 1222.72 823.725 1248.84C836.295 1256.97 857.865 1273.09 861.259 1289.53C868.266 1323.67 846.571 1338.46 845.658 1339.08C843.81 1340.31 841.661 1340.94 839.451 1340.94H839.44ZM553.394 1318.5H835.101C837.893 1315.2 842.056 1307.68 839.243 1294.05C838.693 1291.35 832.641 1281.37 811.507 1267.69C774.834 1243.93 709.833 1221.09 647.293 1234.99C580.05 1249.94 559.487 1296.15 553.394 1318.51V1318.5Z" fill="#592832"/>
<path d="M647.75 1340.94C646.692 1340.94 645.612 1340.79 644.553 1340.48C638.606 1338.71 635.232 1332.47 636.986 1326.52C637.63 1324.4 652.899 1274.28 691.908 1260.72C697.783 1258.73 704.167 1261.78 706.191 1267.63C708.236 1273.49 705.132 1279.89 699.278 1281.92C671.469 1291.59 658.629 1332.48 658.515 1332.9C657.051 1337.76 652.598 1340.92 647.75 1340.92V1340.94Z" fill="#592832"/>
<path d="M581.545 1340.94C580.487 1340.94 579.407 1340.79 578.348 1340.48C572.401 1338.71 569.027 1332.47 570.781 1326.52C571.425 1324.4 586.694 1274.28 625.703 1260.72C631.557 1258.73 637.962 1261.78 639.986 1267.63C642.031 1273.49 638.927 1279.89 633.073 1281.92C605.264 1291.59 592.424 1332.48 592.31 1332.9C590.846 1337.76 586.393 1340.92 581.545 1340.92V1340.94Z" fill="#592832"/>
<path d="M1130.09 1166.34C1271.65 1157.1 1289.94 1027.49 1234.6 873.355C1179.27 719.22 1221.76 604.997 1340 591.897C1458.25 578.798 1569.1 721.442 1528.46 903.24C1487.81 1085.04 1316.11 1252.4 1086.32 1260.15L1130.08 1166.34H1130.09Z" fill="#E9AB71"/>
<path d="M1130.09 1166.34C1271.65 1157.1 1289.94 1027.49 1234.6 873.355C1179.27 719.22 1221.76 604.997 1340 591.897C1458.25 578.798 1569.1 721.442 1528.46 903.24C1487.81 1085.04 1316.11 1252.4 1086.32 1260.15L1130.08 1166.34H1130.09Z" fill="#AD6745"/>
<path d="M1164.86 1166.34C1306.42 1157.1 1319.66 1017.18 1264.32 863.048C1209.32 709.847 1256.05 606.429 1372.67 592.198C1361.93 590.818 1351 590.683 1340 591.908C1221.75 605.007 1179.27 719.231 1234.6 873.366C1289.94 1027.5 1271.65 1157.11 1130.09 1166.35L1086.33 1260.16C1098.5 1259.75 1110.49 1258.86 1122.31 1257.59L1164.86 1166.35V1166.34Z" fill="#C08A71"/>
<path d="M1448.31 868.881C1445.79 866.234 1441.67 866.193 1439.04 868.694C1430.99 876.49 1422.68 884.794 1414.32 893.524C1401.63 870.708 1386.87 847.228 1371.6 824.537C1386.04 808.718 1401.19 792.878 1416.5 777.951C1422.51 788.715 1428.12 799.552 1433.18 810.285C1434.3 812.683 1436.66 814.053 1439.12 814.053C1440.05 814.053 1440.98 813.866 1441.91 813.451C1445.17 811.884 1446.57 807.991 1445.04 804.732C1439.38 792.722 1433.03 780.608 1426.28 768.567C1432 763.169 1437.72 757.928 1443.44 752.883C1446.16 750.485 1446.41 746.333 1444.01 743.644C1441.62 740.925 1437.46 740.676 1434.78 743.074C1429.73 747.547 1424.64 752.177 1419.57 756.941C1404.58 731.385 1387.91 706.494 1371.71 683.865C1377.33 678.332 1383.08 672.904 1388.93 667.537C1391.57 665.108 1391.77 660.956 1389.34 658.268C1386.85 655.579 1382.73 655.455 1380.07 657.883C1374.61 662.897 1369.2 668.015 1363.9 673.153C1353.77 659.347 1343.96 646.538 1335.01 635.224C1332.78 632.411 1328.69 631.902 1325.81 634.165C1323 636.397 1322.52 640.486 1324.76 643.331C1333.92 654.956 1344.05 668.16 1354.51 682.443C1337.03 699.923 1320.67 717.746 1306.1 734.458C1280.55 701.511 1261.82 679.537 1261.34 678.955C1259.01 676.205 1254.86 675.893 1252.15 678.249C1249.4 680.616 1249.08 684.706 1251.41 687.446C1251.89 688.017 1271.26 710.739 1297.38 744.548C1279.75 765.256 1265.28 783.556 1255.33 796.531C1246.8 786.047 1241.56 779.985 1241.34 779.726C1238.97 776.975 1234.85 776.664 1232.1 779.02C1229.38 781.387 1229.07 785.508 1231.43 788.217C1231.69 788.507 1237.62 795.473 1247.22 807.264C1243.03 812.891 1240.7 816.15 1240.6 816.306C1238.5 819.243 1239.2 823.333 1242.14 825.409C1243.29 826.239 1244.6 826.623 1245.94 826.623C1247.98 826.623 1250 825.668 1251.27 823.873C1251.37 823.748 1252.9 821.568 1255.69 817.8C1268.85 834.388 1286.13 856.809 1304.38 882.438C1288.31 902.025 1275.11 918.924 1266.2 930.529C1263.17 926.315 1260.19 922.287 1257.25 918.446C1255.08 915.602 1250.96 915.031 1248.09 917.232C1245.21 919.433 1244.67 923.553 1246.87 926.429C1250.45 931.089 1254.16 936.145 1257.93 941.449C1255.21 945.061 1253.71 947.106 1253.61 947.262C1251.47 950.137 1252.07 954.258 1255.01 956.396C1256.16 957.227 1257.5 957.673 1258.84 957.673C1260.89 957.673 1262.87 956.718 1264.15 954.985C1264.21 954.891 1264.79 954.092 1265.81 952.753C1278.97 972.081 1292.77 994.128 1305.78 1016.68C1292.27 1033.04 1280.23 1047.96 1270.48 1060.2C1269.42 1058.89 1268.72 1058.03 1268.56 1057.83C1266.25 1055.05 1262.1 1054.67 1259.36 1056.97C1256.58 1059.27 1256.16 1063.36 1258.47 1066.17C1258.53 1066.23 1259.94 1067.92 1262.08 1070.76C1251.12 1084.6 1244.57 1093.1 1244.32 1093.45C1242.12 1096.32 1242.66 1100.41 1245.5 1102.61C1246.72 1103.54 1248.12 1103.98 1249.5 1103.98C1251.45 1103.98 1253.4 1103.09 1254.71 1101.4C1254.94 1101.08 1260.55 1093.79 1270.04 1081.78C1277.96 1093.48 1287.39 1109.55 1289.25 1122.26C1289.72 1125.52 1292.5 1127.86 1295.7 1127.86C1296.02 1127.86 1296.35 1127.82 1296.66 1127.76C1300.24 1127.25 1302.7 1123.93 1302.19 1120.35C1299.79 1103.87 1287.55 1083.93 1278.54 1071.09C1287.91 1059.33 1299.56 1044.86 1312.74 1028.85C1323.92 1048.79 1334.34 1068.76 1343.06 1087.26C1344.18 1089.66 1346.54 1091.03 1348.96 1091.03C1349.92 1091.03 1350.85 1090.84 1351.78 1090.42C1355.03 1088.86 1356.44 1084.96 1354.91 1081.71C1345.42 1061.58 1333.95 1039.72 1321.65 1018.05C1334.05 1003.1 1347.5 987.194 1361.49 971.053C1369.22 984.693 1376.41 998.374 1382.77 1011.86C1383.89 1014.26 1386.22 1015.63 1388.72 1015.63C1389.61 1015.63 1390.58 1015.44 1391.47 1015.02C1394.76 1013.46 1396.16 1009.56 1394.6 1006.3C1387.51 991.222 1379.37 975.89 1370.61 960.642C1384 945.373 1397.73 930.093 1411.38 915.592C1414.07 920.834 1416.65 926.045 1419.05 931.152C1420.17 933.518 1422.54 934.92 1424.96 934.92C1425.91 934.92 1426.84 934.691 1427.77 934.276C1431.03 932.74 1432.43 928.847 1430.9 925.588C1427.8 919.007 1424.45 912.332 1420.87 905.554C1430.17 895.87 1439.3 886.642 1448.19 878.078C1450.77 875.556 1450.83 871.404 1448.34 868.84L1448.31 868.881ZM1362.27 693.186C1378.47 715.836 1395.02 740.728 1409.81 766.19C1394.22 781.273 1378.78 797.341 1364.02 813.41C1347.02 788.684 1329.71 765.225 1314.24 745.035C1328.65 728.417 1344.88 710.656 1362.26 693.176L1362.27 693.186ZM1263.79 807.026C1273.28 794.569 1287.72 776.197 1305.55 755.166C1320.99 775.428 1338.21 798.815 1355.01 823.385C1339.93 840.128 1325.71 856.705 1312.96 872.047C1294.37 846.003 1276.86 823.385 1263.79 807.026ZM1314.69 1005.98C1301.4 983.198 1287.4 961.026 1274.11 941.76C1282.48 930.768 1295.71 913.744 1312.2 893.576C1326.51 914.18 1341.15 936.456 1354.53 959.137C1340.6 975.143 1327.11 991.025 1314.69 1005.97V1005.98ZM1363.57 948.788C1349.96 925.972 1335.2 903.644 1320.78 883.092C1333.4 867.885 1347.52 851.297 1362.57 834.523C1377.81 857.276 1392.44 880.725 1404.84 903.406C1391.06 917.979 1377.17 933.342 1363.56 948.777L1363.57 948.788Z" fill="#914921"/>
<path d="M1283.92 929.003C1282.67 923.667 1281.37 918.301 1279.92 912.872C1274.65 919.578 1270.02 925.588 1266.18 930.539C1263.15 926.325 1260.17 922.297 1257.23 918.457C1255.16 915.737 1251.28 915.135 1248.45 916.983C1250.08 922.93 1251.59 928.774 1252.96 934.556C1254.58 936.83 1256.25 939.092 1257.91 941.459C1256.82 942.902 1255.96 944.044 1255.29 944.978C1256.18 949.223 1257.01 953.417 1257.75 957.6C1258.13 957.663 1258.49 957.694 1258.84 957.694C1260.89 957.694 1262.87 956.739 1264.14 955.005C1264.21 954.912 1264.79 954.112 1265.81 952.773C1275.11 966.413 1284.69 981.433 1294.11 996.993C1293.57 987.37 1292.58 977.53 1291.14 967.441C1285.42 958.493 1279.7 949.836 1274.11 941.75C1276.86 938.137 1280.18 933.861 1283.92 929.003Z" fill="#A56A49"/>
<path d="M1250.37 685.734C1251.3 682.89 1252.32 680.108 1253.4 677.43C1252.96 677.658 1252.51 677.907 1252.13 678.26C1249.93 680.18 1249.31 683.18 1250.37 685.734Z" fill="#A56A49"/>
<path d="M1294.18 1030.83C1285.32 1041.66 1277.31 1051.63 1270.47 1060.23C1269.41 1058.92 1268.71 1058.06 1268.55 1057.86C1266.5 1055.37 1262.98 1054.83 1260.31 1056.36C1259.7 1059.62 1259.06 1062.81 1258.32 1065.98C1258.35 1066.04 1258.38 1066.14 1258.45 1066.21C1258.51 1066.27 1259.92 1067.96 1262.06 1070.81C1259.03 1074.67 1256.31 1078.09 1253.97 1081.03C1251.45 1088.44 1248.41 1095.47 1244.84 1102.05C1245.03 1102.24 1245.22 1102.47 1245.48 1102.65C1246.7 1103.58 1248.1 1104.02 1249.48 1104.02C1251.43 1104.02 1253.38 1103.13 1254.69 1101.44C1254.92 1101.12 1260.53 1093.83 1270.02 1081.82C1272.93 1086.1 1276.03 1090.95 1278.88 1096.01C1281.15 1091.15 1283.19 1086.08 1284.95 1080.77C1282.75 1077.28 1280.57 1074.03 1278.52 1071.12C1282.43 1066.23 1286.73 1060.83 1291.36 1055.08C1292.73 1047.29 1293.67 1039.2 1294.18 1030.83Z" fill="#A56A49"/>
<path d="M1247.21 807.275C1243.02 812.901 1240.69 816.16 1240.59 816.316C1238.49 819.254 1239.19 823.343 1242.13 825.419C1243.28 826.25 1244.59 826.634 1245.93 826.634C1247.97 826.634 1249.99 825.679 1251.26 823.883C1251.3 823.821 1251.52 823.499 1251.94 822.928C1248.39 809.06 1245.74 795.67 1243.99 782.83C1242.36 780.909 1241.43 779.83 1241.34 779.726C1238.97 776.975 1234.85 776.664 1232.1 779.02C1229.38 781.387 1229.07 785.508 1231.43 788.217C1231.69 788.508 1237.62 795.473 1247.22 807.265L1247.21 807.275Z" fill="#A56A49"/>
<path d="M1340.02 591.887C1332.48 592.717 1326.18 595.115 1319.28 596.745C1427.46 597.7 1523.44 729.403 1485.93 897.147C1448.97 1062.49 1299.24 1213.78 1096.8 1237.75L1086.31 1260.15C1316.11 1252.39 1487.81 1085.06 1528.46 903.261C1569.09 721.462 1458.26 578.797 1340 591.897L1340.02 591.887Z" fill="#914921"/>
<path d="M1086.31 1271.36C1082.56 1271.36 1079.04 1269.48 1076.95 1266.33C1074.8 1263.06 1074.49 1258.92 1076.15 1255.38L1086.62 1232.99C1088.26 1229.48 1091.61 1227.06 1095.48 1226.6C1280.11 1204.74 1436.18 1068.26 1474.99 894.697C1494.9 805.676 1477.42 717.798 1428.24 659.607C1397.82 623.629 1359.28 605.1 1320.39 606.979C1314.1 607.249 1309.51 603.097 1308.69 597.367C1307.87 591.617 1311.57 586.177 1317.23 584.849C1325.46 582.918 1331.3 581.548 1338.78 580.728C1390.57 574.946 1442.82 597.035 1482.42 641.265C1540.61 706.203 1561.92 805.043 1539.42 905.668C1500.19 1081.12 1332.08 1263.06 1086.71 1271.34H1086.32L1086.31 1271.36ZM1418.6 618.802C1428 626.39 1436.98 635.193 1445.37 645.137C1499.07 708.653 1518.33 803.766 1496.88 899.596C1456.67 1079.48 1297.06 1221.5 1107.03 1247.76C1329.55 1230.54 1481.3 1062.76 1517.53 900.8C1538.43 807.233 1519.06 715.815 1465.71 656.264C1451.51 640.424 1435.56 627.833 1418.61 618.802H1418.6Z" fill="#592832"/>
<path d="M1086.33 1271.38C1082.58 1271.38 1079.06 1269.5 1076.97 1266.35C1074.82 1263.1 1074.51 1258.96 1076.17 1255.42L1119.92 1161.59C1121.64 1157.86 1125.27 1155.4 1129.36 1155.13C1176.29 1152.07 1210.28 1134.99 1230.39 1104.33C1261.74 1056.54 1259.47 975.859 1224.04 877.144C1190.64 784.137 1191.14 702.695 1225.41 647.784C1249.31 609.481 1288.51 586.291 1338.76 580.748C1390.67 574.998 1442.84 597.118 1482.43 641.306C1540.62 706.245 1561.91 805.064 1539.42 905.679C1500.19 1081.11 1332.08 1263.07 1086.73 1271.37H1086.34L1086.33 1271.38ZM1137.5 1177.02L1104.4 1247.98C1328.34 1231.86 1481.14 1063.39 1517.52 900.8C1538.42 807.254 1519.06 715.836 1465.72 656.295C1430.98 617.525 1385.3 598.146 1341.24 603.055C1298.05 607.841 1264.58 627.418 1244.47 659.669C1213.91 708.622 1214.15 783.182 1245.18 869.556C1283.06 975.07 1284.47 1062.82 1249.16 1116.65C1225.99 1151.97 1188.45 1172.26 1137.51 1177.01L1137.5 1177.02Z" fill="#592832"/>
<path d="M631.235 938.906C538.489 996.121 499.771 1219.7 675.413 1277.62C805.736 1314.2 836.202 1208.27 839.732 1181.08C851.067 1093.67 729.245 965.635 631.235 938.896V938.906Z" fill="#E9AB71"/>
<path d="M698.26 1277.62C528.264 1221.56 559.062 1010.35 645.29 944.947C639.124 942.57 633.021 940.546 627 938.906C534.253 996.121 495.535 1219.7 671.178 1277.62C695.852 1284.54 716.934 1286.36 734.943 1284.57C723.681 1283.56 711.495 1281.34 698.25 1277.62H698.26Z" fill="#F4D6BA"/>
<path d="M726.006 1296.47C709.388 1296.47 691.482 1293.79 672.382 1288.43C597.718 1263.83 551.941 1208.4 542.983 1132.21C533.454 1051.41 568.871 964.213 625.35 929.356C627.997 927.747 631.204 927.259 634.204 928.1C735.048 955.597 863.014 1088.94 850.88 1182.53C850.039 1188.91 841.372 1245.85 793.81 1277.27C774.451 1290.06 751.749 1296.48 726.027 1296.48L726.006 1296.47ZM633.062 951.123C586.684 983.001 557.08 1060.09 565.259 1129.57C569.837 1168.4 590.68 1237.87 678.932 1266.96C720.557 1278.62 755.216 1275.83 781.426 1258.53C821.348 1232.15 828.334 1181.75 828.614 1179.63C839.036 1099.31 724.169 979.015 633.073 951.113L633.062 951.123Z" fill="#592832"/>
<path d="M1063.9 714.113C997.989 749.094 912.207 770.239 818.412 770.239C757.999 770.239 700.929 761.457 650.336 745.866C659.398 786.619 666.685 854.017 639.209 919.277C595.768 1022.46 525.162 1247.83 842.857 1247.83C1042.88 1247.83 1195.8 1053.23 1146.5 902.991C1122.93 842.703 1064.92 790.106 1063.9 714.113Z" fill="#E9AB71"/>
<path d="M664.069 919.277C689.957 857.785 684.985 794.414 676.743 753.205C667.765 750.952 658.952 748.513 650.336 745.855C659.398 786.608 666.685 854.006 639.209 919.266C595.768 1022.45 525.162 1247.82 842.857 1247.82C846.21 1247.82 849.542 1247.76 852.864 1247.64C552.265 1240.68 621.313 1020.81 664.069 919.266V919.277Z" fill="#F4D6BA"/>
<path d="M1022.81 1190.84C965.582 1143.71 922.598 1067.35 913.754 974.084C899.087 819.451 696.788 797.964 649.724 888.438C646.994 898.704 643.537 909.021 639.209 919.287C595.768 1022.47 525.162 1247.84 842.857 1247.84C910.152 1247.84 972.09 1225.79 1022.81 1190.85V1190.84Z" fill="#FFE4BF"/>
<path d="M915.82 1239.06C920.345 1237.96 924.819 1236.73 929.262 1235.45C930.507 1235.08 931.743 1234.69 932.988 1234.3C936.165 1233.34 939.331 1232.33 942.465 1231.26C943.898 1230.78 945.32 1230.29 946.742 1229.78C949.815 1228.69 952.866 1227.55 955.897 1226.36C957.143 1225.88 958.399 1225.41 959.645 1224.9C968.042 1221.51 976.253 1217.77 984.256 1213.72C985.46 1213.11 986.643 1212.47 987.848 1211.85C990.661 1210.39 993.442 1208.89 996.204 1207.36C997.543 1206.61 998.882 1205.85 1000.21 1205.08C1002.92 1203.53 1005.6 1201.92 1008.24 1200.29C1009.42 1199.57 1010.59 1198.87 1011.75 1198.13C1015.49 1195.76 1019.19 1193.35 1022.82 1190.85C1019.53 1188.14 1016.3 1185.33 1013.11 1182.42C1012.18 1181.57 1011.28 1180.68 1010.35 1179.82C1008.09 1177.7 1005.84 1175.56 1003.64 1173.35C1002.63 1172.35 1001.64 1171.3 1000.65 1170.27C998.56 1168.11 996.484 1165.92 994.439 1163.68C993.453 1162.6 992.487 1161.49 991.512 1160.39C989.508 1158.11 987.536 1155.8 985.585 1153.43C954.787 1116.11 931.244 1068.65 919.795 1013.9C902.242 1039.62 873.718 1095.66 890.17 1171.19C892.537 1182.05 885.478 1192.74 874.641 1195.21C778.874 1216.99 679.442 1199.48 610.456 1135.79L609.47 1135.61C630.728 1198.6 694.369 1247.83 842.868 1247.83C868.04 1247.83 892.464 1244.75 915.83 1239.05L915.82 1239.06Z" fill="#DAAA7A"/>
<path d="M664.069 919.277C673.163 897.666 678.394 875.847 681.072 854.816C667.806 863.349 656.938 874.57 649.724 888.427C649.091 890.825 648.406 893.223 647.679 895.621C647.503 896.223 647.306 896.825 647.119 897.417C646.579 899.181 646.008 900.946 645.416 902.71C645.157 903.479 644.897 904.247 644.627 905.015C644.046 906.696 643.434 908.388 642.811 910.07C642.541 910.786 642.292 911.492 642.012 912.208C641.109 914.565 640.174 916.921 639.188 919.267C595.747 1022.45 525.141 1247.82 842.837 1247.82C845.992 1247.82 849.127 1247.73 852.262 1247.62C552.348 1240.39 621.324 1020.74 664.049 919.267L664.069 919.277Z" fill="#FFF6EB"/>
<path d="M1146.5 902.99C1127.27 853.778 1085.1 809.693 1069.68 753.827C1068.9 750.952 1068.19 748.035 1067.55 745.098C1067.44 744.61 1067.33 744.122 1067.22 743.634C1066.59 740.634 1066.03 737.603 1065.56 734.52C1065.56 734.458 1065.55 734.396 1065.54 734.333C1065.12 731.458 1064.8 728.531 1064.53 725.593C1064.46 724.856 1064.4 724.109 1064.34 723.362C1064.11 720.31 1063.93 717.227 1063.89 714.103C997.979 749.084 912.197 770.228 818.402 770.228C757.989 770.228 700.919 761.446 650.326 745.855C650.752 747.765 651.167 749.748 651.582 751.762C651.696 752.343 651.821 752.935 651.935 753.526C652.257 755.135 652.568 756.775 652.88 758.447C652.984 758.997 653.087 759.537 653.181 760.087C653.565 762.215 653.928 764.405 654.291 766.626C654.374 767.176 654.457 767.747 654.551 768.308C654.779 769.823 655.008 771.359 655.226 772.917C716.313 803.362 813.866 816.036 922.245 803.455C934.411 801.337 946.348 798.888 957.984 796.054C986.27 789.182 1015.41 803.382 1027.1 830.039C1046.23 873.635 1078.1 911.045 1094.11 951.995C1119 1027.84 1092.33 1114.98 1034.1 1182.7C1127.05 1112.8 1177.96 998.862 1146.49 902.97L1146.5 902.99Z" fill="#D5813C"/>
<path d="M842.857 1259.05C729.641 1259.05 653.263 1230.47 615.832 1174.11C576.803 1115.34 581.204 1028.14 628.86 914.917C654.602 853.789 648.789 790.573 639.385 748.305C638.513 744.403 639.79 740.333 642.727 737.614C645.665 734.915 649.921 734.022 653.637 735.133C705.091 750.994 760.522 759.018 818.422 759.018C906.716 759.018 992.02 739.545 1058.65 704.21C1062.12 702.384 1066.28 702.498 1069.63 704.47C1072.99 706.463 1075.07 710.075 1075.12 713.978C1075.73 759.942 1099.3 797.86 1122.07 834.533C1134.93 855.211 1148.22 876.594 1156.94 898.911C1179.79 968.489 1163.4 1048.58 1112.22 1119.25C1048.82 1206.8 948.112 1259.05 842.847 1259.05H842.857ZM664.879 761.748C672.435 806.144 674.034 865.497 649.547 923.647C604.975 1029.49 599.92 1109.6 634.527 1161.71C667.515 1211.41 737.623 1236.61 842.847 1236.61C940.939 1236.61 1034.84 1187.82 1094.05 1106.08C1140.95 1041.31 1156.19 968.552 1135.83 906.499C1128.05 886.683 1115.9 867.106 1103.02 846.377C1081.39 811.583 1059.13 775.761 1053.84 731.749C944.333 784.075 790.624 795.743 664.868 761.748H664.879Z" fill="#592832"/>
<path d="M1123.02 856.488C1133.11 869.442 1176.11 923.917 1192.52 951.269C1235.96 1023.68 1244.41 1127.46 1186.49 1208.31C1128.57 1289.16 1011.5 1291.58 958.979 1225.21C881.242 1126.98 910.732 1038.47 931.98 998.26C1024.87 985.638 1071.83 918.167 1123.02 856.488Z" fill="#E9AB71"/>
<path d="M960.846 1188.17C918.568 1106.55 931.979 1041.07 953.383 997.991C957.867 988.97 950.715 978.642 940.657 979.171H940.387C915.838 1017.47 879.009 1103.19 948.224 1207.6C982.551 1259.37 1054.6 1277.1 1116.03 1252.97C1054.27 1266.84 988.406 1241.37 960.846 1188.17Z" fill="#F4D6BA"/>
<path d="M1192.52 951.259C1176.11 923.908 1133.11 869.443 1123.02 856.478C1107.15 875.609 1091.68 895.279 1075.12 913.714C1081.04 922.112 1086.29 929.918 1090.09 936.26C1133.53 1008.67 1141.98 1112.45 1084.06 1193.3C1060.44 1226.28 1026.96 1246.2 992.051 1253.74C1050.9 1288.24 1138.76 1274.93 1186.49 1208.3C1244.41 1127.45 1235.97 1023.66 1192.52 951.259Z" fill="#D5813C"/>
<path d="M1062.11 1283.42C1016.69 1283.42 976.075 1264.89 950.187 1232.17C839.908 1092.82 936.61 969.58 937.596 968.366C941.468 963.549 948.526 962.802 953.363 966.674C958.18 970.545 958.948 977.604 955.097 982.441C951.516 986.915 868.848 1093.23 967.781 1218.24C990.047 1246.34 1026.5 1261.41 1065.58 1260.95C1110.45 1259.87 1151.21 1238.31 1177.38 1201.77C1234.68 1121.82 1221.44 1021.24 1182.92 957.03C1159.93 918.728 1142.88 898.351 1129.18 881.961C1116.98 867.367 1106.43 854.755 1096.14 835.178C1093.25 829.707 1095.35 822.919 1100.86 820.033C1106.35 817.116 1113.11 819.244 1116 824.746C1125.2 842.205 1134.56 853.395 1146.4 867.574C1160.61 884.546 1178.28 905.669 1202.17 945.508C1244.48 1015.99 1258.86 1126.62 1195.64 1214.84C1165.33 1257.15 1118.13 1282.16 1066.14 1283.39C1064.79 1283.43 1063.47 1283.43 1062.13 1283.43L1062.11 1283.42Z" fill="#592832"/>
<path d="M1145.46 1319.34H858.239C858.239 1319.34 865.412 1244.52 958.968 1225.21C1052.52 1205.9 1150.47 1261.42 1155.81 1285.55C1161.14 1309.69 1145.45 1319.34 1145.45 1319.34H1145.46Z" fill="#AD6745"/>
<path d="M1145.46 1319.34H858.239C858.239 1319.34 865.412 1244.52 958.968 1225.21C1052.52 1205.9 1150.47 1261.42 1155.81 1285.55C1161.14 1309.69 1145.45 1319.34 1145.45 1319.34H1145.46Z" fill="#AD6745"/>
<path d="M971.767 1239.91C1046.4 1224.51 1123.77 1256.71 1154.75 1282.62C1142.93 1257.25 1048.94 1206.64 958.968 1225.21C865.412 1244.52 858.239 1319.34 858.239 1319.34H874.453C881.802 1296.53 904.369 1253.82 971.767 1239.91Z" fill="#C08A71"/>
<path d="M1155.82 1285.54C1154.03 1277.49 1141.9 1265.93 1123.08 1254.84C1119.97 1255.16 1116.85 1255.53 1113.75 1255.96C1078.23 1260.9 1055.16 1271.22 1040.22 1282.13C1027.06 1291.73 1011.22 1296.9 994.926 1296.9H864.509C859.174 1309.9 858.25 1319.33 858.25 1319.33H1145.47C1145.47 1319.33 1161.15 1309.68 1155.83 1285.54H1155.82Z" fill="#914921"/>
<path d="M1145.46 1330.56H858.24C855.084 1330.56 852.053 1329.23 849.936 1326.9C847.798 1324.54 846.759 1321.43 847.071 1318.27C847.144 1317.45 856.195 1234.96 956.717 1214.23C1053.02 1194.34 1159.38 1249.61 1166.79 1283.13C1172.35 1308.35 1159.69 1323.77 1151.33 1328.91C1149.56 1330 1147.54 1330.57 1145.46 1330.57V1330.56ZM872.243 1308.12H1141.32C1143.78 1305.31 1147.32 1299.09 1144.86 1287.97C1140.93 1271.21 1051.25 1217.61 961.242 1236.18C898.858 1249.07 878.627 1287.95 872.232 1308.11L872.243 1308.12Z" fill="#592832"/>
<path d="M961.73 1330.56C960.599 1330.56 959.446 1330.39 958.315 1330.03C952.398 1328.15 949.16 1321.84 951.038 1315.92C951.661 1314 966.453 1268.81 1004.13 1256.66C1010.13 1254.74 1016.36 1258.01 1018.26 1263.89C1020.18 1269.78 1016.93 1276.12 1011.04 1278.02C984.629 1286.54 972.536 1322.39 972.422 1322.75C970.906 1327.52 966.494 1330.56 961.73 1330.56Z" fill="#592832"/>
<path d="M898.287 1330.56C897.155 1330.56 895.993 1330.37 894.861 1330.01C888.965 1328.11 885.716 1321.82 887.595 1315.92C888.218 1314 903.03 1268.81 940.69 1256.66C946.544 1254.69 952.918 1257.99 954.817 1263.89C956.737 1269.78 953.488 1276.12 947.592 1278.02C920.988 1286.61 909.092 1322.43 908.978 1322.78C907.432 1327.54 903.03 1330.57 898.287 1330.57V1330.56Z" fill="#592832"/>
<path d="M797.869 1036.3C798.212 1036.78 798.565 1037.26 798.907 1037.73C798.554 1037.27 798.212 1036.79 797.869 1036.3Z" fill="#D5813C"/>
<path d="M794.319 1030.76C794.859 1031.69 795.42 1032.61 795.98 1033.49C795.42 1032.6 794.859 1031.74 794.319 1030.76Z" fill="#D5813C"/>
<path d="M964.199 1040.97C964.199 940.069 779.495 858.273 551.64 858.273C323.785 858.273 139.08 940.069 139.08 1040.97C139.08 1040.97 138.032 1085.51 139.08 1100.23C140.129 1114.95 127.506 1203.3 131.71 1225.95C135.925 1248.6 126.448 1285.98 109.611 1296.17C92.7743 1306.36 2.25927 1372.05 11.7364 1400.37C21.2135 1428.68 65.4122 1389.04 85.4044 1400.37C105.397 1411.69 171.705 1427.55 210.641 1367.52C238.003 1416.23 287.465 1426.42 323.255 1421.89C347.462 1459.26 391.661 1459.26 415.867 1455.86C441.122 1488.7 496.905 1492.1 539.007 1489.83C581.109 1487.57 642.145 1529.48 657.933 1515.88C673.721 1502.29 598.994 1421.87 562.155 1415.08C658.981 1429.79 706.128 1426.4 734.123 1412.81C794.743 1466.04 882.103 1430.94 936.827 1384.5C1018.91 1463.78 1036.81 1426.4 1075.76 1420.73C1114.69 1415.07 1159.95 1443.38 1176.79 1416.21C1193.62 1389.02 1099.96 1324.47 1079.96 1313.14C1063.12 1255.38 989.444 1250.85 989.444 1250.85C989.444 1250.85 956.819 1163.65 961.023 1119.47C965.237 1075.3 964.179 1040.96 964.179 1040.96L964.199 1040.97Z" fill="#996739"/>
<path d="M964.199 1040.97C964.199 940.069 779.495 858.273 551.64 858.273C323.785 858.273 139.08 940.069 139.08 1040.97C139.08 1040.97 138.032 1085.51 139.08 1100.23C140.129 1114.95 127.506 1203.3 131.71 1225.95C135.925 1248.6 126.448 1285.98 109.611 1296.17C92.7743 1306.36 2.25927 1372.05 11.7364 1400.37C21.2135 1428.68 65.4122 1389.04 85.4044 1400.37C105.397 1411.69 171.705 1427.55 210.641 1367.52C238.003 1416.23 287.465 1426.42 323.255 1421.89C347.462 1459.26 391.661 1459.26 415.867 1455.86C441.122 1488.7 496.905 1492.1 539.007 1489.83C581.109 1487.57 642.145 1529.48 657.933 1515.88C673.721 1502.29 598.994 1421.87 562.155 1415.08C658.981 1429.79 706.128 1426.4 734.123 1412.81C794.743 1466.04 882.103 1430.94 936.827 1384.5C1018.91 1463.78 1036.81 1426.4 1075.76 1420.73C1114.69 1415.07 1159.95 1443.38 1176.79 1416.21C1193.62 1389.02 1099.96 1324.47 1079.96 1313.14C1063.12 1255.38 989.444 1250.85 989.444 1250.85C989.444 1250.85 956.819 1163.65 961.023 1119.47C965.237 1075.3 964.179 1040.96 964.179 1040.96L964.199 1040.97Z" fill="#A96E34"/>
<path d="M142.174 1297.18C142.174 1297.18 167.149 1283.32 160.132 1219.14C160.838 1129.29 169.952 1110.41 169.952 1110.41L138.614 1077.55C138.614 1086.61 138.718 1095.17 139.081 1100.21C140.129 1114.93 127.507 1203.28 131.711 1225.93C135.925 1248.58 126.448 1285.96 109.612 1296.15C101.609 1300.99 77.018 1318.38 54.3892 1338.31L52.7803 1345.98C81.6579 1311.11 111.21 1289.93 142.174 1297.18Z" fill="#C79457"/>
<path d="M657.943 1515.88C673.732 1502.29 599.005 1421.87 562.166 1415.08C563.525 1415.28 564.761 1415.45 566.1 1415.65C556.685 1411.81 549.118 1406.01 546.678 1397.17C529.011 1332.97 440.438 1321.07 440.438 1321.07C440.438 1321.07 524.745 1360.05 509.517 1411.92L497.124 1413.46C497.124 1413.46 613.942 1451.33 628.485 1514.31C641.844 1518.63 652.556 1520.51 657.933 1515.88H657.943Z" fill="#C79457"/>
<path d="M955.574 1267.52C948.982 1266.82 944.727 1266.71 944.727 1266.71C944.727 1266.71 940.523 1275.9 955.574 1267.52Z" fill="#C98750"/>
<path d="M1176.8 1416.21C1193.63 1389.02 1099.97 1324.47 1079.97 1313.14C1063.13 1255.38 989.455 1250.85 989.455 1250.85C989.455 1250.85 956.83 1163.65 961.034 1119.47C965.248 1075.3 964.19 1040.96 964.19 1040.96C964.19 1017.69 954.266 995.468 936.36 974.999L925.243 1118.5C925.243 1118.5 933.859 1227.03 964.19 1262.18C960.733 1264.5 957.951 1266.19 955.564 1267.52C977.372 1269.85 1025.94 1278.93 1040.65 1314.27L1013.22 1317.76C1013.22 1317.76 1112.75 1345.86 1162.82 1426.67C1168.48 1425.01 1173.27 1421.85 1176.78 1416.2L1176.8 1416.21Z" fill="#C79457"/>
<path d="M1067.35 1373.17C1048.4 1386.76 989.466 1398.08 955.793 1355.05C922.12 1312.01 872.648 1337.84 872.648 1337.84C872.648 1337.84 849.5 1370.9 824.858 1345.99C800.392 1337.68 773.725 1333.53 740.052 1361.84C715.845 1381.09 699.009 1349.38 699.009 1349.38C699.009 1349.38 679.016 1381.09 660.415 1349.38C651.291 1381.09 586.394 1406.01 516.328 1349.38C534.846 1373.34 548.891 1395.59 551.839 1413.63L562.188 1415.08C659.014 1429.8 706.161 1426.4 734.156 1412.81C794.776 1466.04 882.135 1430.94 936.86 1384.5C1018.95 1463.78 1036.84 1426.4 1075.79 1420.74C1106.62 1416.26 1141.36 1432.98 1162.87 1426.69C1135.6 1364.45 1084.29 1361.04 1067.37 1373.18L1067.35 1373.17Z" fill="#844E18"/>
<path d="M445.814 1411.22C424.182 1360.94 395.885 1345.24 333.791 1361.85C292.748 1375.43 247.138 1342.22 216.039 1279.17C205.991 1329.38 148.537 1299.47 148.537 1299.47C148.537 1299.47 154.515 1376.94 106.808 1366.71C59.101 1356.48 11.7363 1400.35 11.7363 1400.35C21.203 1428.66 65.4122 1389.02 85.4044 1400.35C105.397 1411.67 171.705 1427.53 210.641 1367.5C238.003 1416.21 287.475 1426.4 323.255 1421.86C347.462 1459.24 391.661 1459.24 415.867 1455.84C441.122 1488.68 496.905 1492.08 539.007 1489.81C566.722 1488.32 602.575 1505.91 628.391 1514.27C610.236 1435.38 466.439 1459.17 445.804 1411.21L445.814 1411.22Z" fill="#844E18"/>
<path d="M551.641 1223.68C779.491 1223.68 964.2 1141.88 964.2 1040.97C964.2 940.072 779.491 858.273 551.641 858.273C323.79 858.273 139.081 940.072 139.081 1040.97C139.081 1141.88 323.79 1223.68 551.641 1223.68Z" fill="#CFA36F"/>
<path d="M555.231 1188.44C766.622 1188.44 937.989 1120.93 937.989 1037.66C937.989 954.394 766.622 886.892 555.231 886.892C343.839 886.892 172.473 954.394 172.473 1037.66C172.473 1120.93 343.839 1188.44 555.231 1188.44Z" fill="#EAC9AB"/>
<path d="M648.966 1529.06C636.853 1529.06 621.376 1523.21 603.408 1516.42C582.149 1508.39 557.756 1499.18 539.58 1500.29C477.891 1503.42 434.751 1492.39 411.51 1466.94C385.383 1469.61 344.122 1467.25 318.213 1432.91C282.557 1435.75 238.545 1424.31 210.062 1385.83C168.24 1435.08 105.876 1423.99 80.237 1409.46C75.8046 1406.93 63.2654 1411.31 54.1309 1414.52C40.263 1419.4 25.9383 1424.42 14.2295 1418.68C8.35434 1415.81 4.17113 1410.76 1.80445 1403.68C-11.97 1362.5 103.032 1287.94 104.205 1287.23C115.841 1280.18 125.183 1248.01 121.425 1227.88C118.758 1213.58 121.592 1181.36 125.567 1140.72C127.249 1123.53 128.982 1105.74 128.65 1100.97C127.571 1085.94 128.577 1042.56 128.629 1040.73C128.629 932.668 314.434 847.821 551.631 847.821C788.828 847.821 974.457 932.575 974.654 1040.81C974.748 1043.63 975.568 1077.17 971.457 1120.48C968.135 1155.34 989.996 1221.03 997.075 1241.18C1016.75 1243.92 1071.55 1255.98 1088.76 1306.33C1106.05 1317.26 1179.1 1365.38 1188.25 1401.16C1190.71 1410.77 1188.21 1417.65 1185.67 1421.72C1171.73 1444.23 1145.82 1439.42 1120.83 1434.72C1106.14 1431.97 1090.95 1429.17 1077.27 1431.1C1069.79 1432.19 1063.02 1434.68 1055.85 1437.32C1023.41 1449.22 995.487 1453.41 936.331 1398.44C875.586 1446.57 791.963 1471.73 732.423 1425C706.13 1435.52 668.45 1437.86 612.22 1432.1C639.157 1454.34 664.516 1484.74 669.498 1503.18C672.675 1514.86 667.889 1521.12 664.754 1523.82C660.447 1527.52 655.142 1529.05 648.956 1529.05L648.966 1529.06ZM542.393 1479.29C564.285 1479.29 588.917 1488.59 610.819 1496.84C623.576 1501.66 641.69 1508.59 649.413 1508.26C645.198 1490.18 588.813 1430.64 560.278 1425.36C554.662 1424.32 550.915 1418.98 551.87 1413.34C552.815 1407.69 558.202 1404.02 563.745 1404.73C649.672 1417.77 700.774 1417.41 729.589 1403.4C733.326 1401.54 737.914 1402.14 741.049 1404.94C793.832 1451.31 874.05 1424.11 930.082 1376.51C934.172 1373.05 940.265 1373.21 944.116 1376.97C1003.49 1434.3 1024.44 1426.58 1048.65 1417.66C1056.52 1414.77 1064.66 1411.79 1074.29 1410.39C1091.32 1407.87 1109.09 1411.19 1124.71 1414.13C1147.52 1418.42 1161.79 1420.54 1167.93 1410.69C1168.48 1409.77 1168.51 1408.31 1168.01 1406.33C1161.93 1382.57 1099.16 1336.02 1074.82 1322.25C1072.45 1320.9 1070.7 1318.69 1069.93 1316.06C1055.39 1266.19 989.487 1261.34 988.834 1261.28C984.723 1261.02 981.131 1258.37 979.689 1254.52C978.318 1250.86 946.265 1164.52 950.655 1118.49C954.745 1075.56 953.78 1041.62 953.78 1041.28V1040.96C953.78 947.595 769.636 868.716 551.663 868.716C333.689 868.716 149.566 947.595 149.566 1040.96C149.566 1041.66 148.549 1085.41 149.545 1099.48C149.981 1105.7 148.705 1119.27 146.411 1142.74C143.587 1171.78 139.695 1211.51 142.03 1224.03C146.94 1250.37 135.989 1292.41 115.062 1305.1C81.9497 1325.17 16.4924 1381.53 21.6825 1397.02C22.0458 1398.1 22.6478 1399.47 23.4575 1399.87C27.4538 1401.75 39.3184 1397.51 47.2281 1394.76C62.2481 1389.45 77.8495 1383.98 90.586 1391.24C104.859 1399.31 165.489 1417.97 201.903 1361.82C203.896 1358.73 206.979 1357.24 211.006 1357.05C214.67 1357.16 218.013 1359.19 219.798 1362.38C249.973 1416.15 305.59 1413.57 321.981 1411.49C326.05 1410.99 329.921 1412.81 332.07 1416.19C353.163 1448.77 392.773 1448.55 414.437 1445.49C418.34 1444.96 421.9 1446.5 424.184 1449.47C441.612 1472.1 481.15 1482.53 538.48 1479.37C539.777 1479.32 541.085 1479.28 542.424 1479.28L542.393 1479.29Z" fill="#592832"/>
<path d="M551.641 1234.13C314.433 1234.13 128.639 1149.28 128.639 1040.97C128.639 932.668 314.444 847.821 551.641 847.821C788.838 847.821 974.664 932.668 974.664 1040.97C974.664 1149.28 788.859 1234.13 551.641 1234.13ZM551.641 868.726C333.688 868.726 149.544 947.605 149.544 1040.97C149.544 1134.34 333.688 1213.22 551.641 1213.22C769.593 1213.22 953.758 1134.34 953.758 1040.97C953.758 947.605 769.614 868.726 551.641 868.726Z" fill="#592832"/>
<path d="M175.401 1356.45C169.671 1356.45 165 1351.83 164.949 1346.1C164.762 1327.97 157.869 1315.21 144.987 1309.24C131.026 1302.71 111.761 1305.51 99.294 1315.83C94.8201 1319.52 88.2391 1318.89 84.5645 1314.46C80.8588 1310.01 81.4816 1303.43 85.9347 1299.73C104.577 1284.24 132.531 1280.35 153.79 1290.26C165.613 1295.73 185.522 1310.27 185.844 1345.88C185.896 1351.66 181.266 1356.39 175.495 1356.45H175.381H175.401Z" fill="#592832"/>
<path d="M445.814 1488.63C444.444 1488.63 443.064 1488.36 441.725 1487.79C398.294 1469.39 381.53 1406.41 380.835 1403.75C379.392 1398.17 382.734 1392.46 388.329 1390.99C393.945 1389.66 399.643 1392.92 401.086 1398.48C401.232 1399.04 415.992 1454.19 449.894 1468.52C455.208 1470.76 457.7 1476.92 455.437 1482.25C453.745 1486.22 449.873 1488.63 445.804 1488.63H445.814Z" fill="#592832"/>
<path d="M597.717 1444.38C595.403 1444.38 593.088 1443.63 591.147 1442.06C551.463 1410.02 490.376 1425.42 489.732 1425.59C484.148 1426.96 478.418 1423.69 476.975 1418.11C475.512 1412.52 478.833 1406.81 484.418 1405.34C487.314 1404.57 556.259 1386.99 604.278 1425.8C608.783 1429.43 609.478 1436.01 605.845 1440.51C603.779 1443.08 600.759 1444.39 597.707 1444.39L597.717 1444.38Z" fill="#592832"/>
<path d="M546.679 1423.27C540.918 1423.27 536.226 1418.61 536.226 1412.83C536.205 1409.68 534.856 1335.27 432.642 1331.09C426.861 1330.85 422.366 1325.98 422.605 1320.21C422.844 1314.43 427.546 1309.86 433.483 1310.17C531.119 1314.17 557.069 1379.04 557.142 1412.79C557.163 1418.55 552.492 1423.27 546.71 1423.27H546.689H546.679Z" fill="#592832"/>
<path d="M289.936 1315.66C284.154 1315.66 279.483 1310.99 279.483 1305.21V1188.44C279.483 1182.65 284.154 1177.98 289.936 1177.98C295.718 1177.98 300.389 1182.65 300.389 1188.44V1305.21C300.389 1310.99 295.718 1315.66 289.936 1315.66Z" fill="#592832"/>
<path d="M333.782 1315.66C328 1315.66 323.329 1310.99 323.329 1305.21V1266.71C323.329 1260.93 328 1256.26 333.782 1256.26C339.564 1256.26 344.235 1260.93 344.235 1266.71V1305.21C344.235 1310.99 339.564 1315.66 333.782 1315.66Z" fill="#592832"/>
<path d="M660.393 1398.73C654.612 1398.73 649.94 1394.06 649.94 1388.27V1250.11C649.94 1244.33 654.612 1239.66 660.393 1239.66C666.175 1239.66 670.846 1244.33 670.846 1250.11V1388.27C670.846 1394.06 666.175 1398.73 660.393 1398.73Z" fill="#592832"/>
<path d="M698.987 1394.97C694.441 1394.97 690.268 1391.99 688.929 1387.41C685.202 1374.58 687.683 1327.71 688.545 1313.64C688.887 1307.88 694.275 1303.5 699.6 1303.84C705.381 1304.18 709.762 1309.14 709.419 1314.9C707.8 1341.99 707.177 1375.18 709.035 1381.57C710.644 1387.11 707.447 1392.93 701.904 1394.54C700.918 1394.81 699.952 1394.96 698.987 1394.96V1394.97Z" fill="#592832"/>
<path d="M938.925 1289.58C937.244 1289.58 935.552 1289.17 933.984 1288.32C928.95 1285.58 927.019 1279.37 929.697 1274.29C930.777 1272.24 957.049 1224.38 1033.83 1251.3C1039.29 1253.22 1042.16 1259.18 1040.24 1264.64C1038.32 1270.1 1032.41 1272.97 1026.9 1271.04C967.907 1250.33 948.911 1282.79 948.143 1284.18C946.222 1287.61 942.631 1289.58 938.925 1289.58Z" fill="#592832"/>
<path d="M984.67 1341.16C981.203 1341.16 977.809 1339.45 975.816 1336.3C972.733 1331.43 974.155 1324.96 979.023 1321.87C981.743 1320.14 1046.15 1280.07 1102.2 1314.91C1107.11 1317.96 1108.61 1324.41 1105.56 1329.32C1102.51 1334.23 1096.05 1335.78 1091.14 1332.68C1046.29 1304.8 990.805 1339.2 990.234 1339.54C988.501 1340.63 986.57 1341.16 984.649 1341.16H984.67Z" fill="#592832"/>
<path d="M201.186 1390.42C198.175 1390.42 195.186 1389.13 193.1 1386.61C189.435 1382.16 190.069 1375.56 194.542 1371.88C213.061 1356.65 220.451 1312 200.085 1266.45C197.708 1261.18 200.085 1254.99 205.359 1252.64C210.58 1250.26 216.798 1252.62 219.175 1257.91C241.71 1308.23 236.821 1364.18 207.829 1388.05C205.898 1389.66 203.542 1390.42 201.186 1390.42Z" fill="#592832"/>
<path d="M565.84 904.081C572.183 904.081 577.31 909.022 577.31 915.094C577.31 921.166 572.183 926.087 565.84 926.087C376.776 926.087 249.764 980.479 249.764 1031.28C249.764 1082.08 376.776 1136.49 565.84 1136.49C572.183 1136.49 577.31 1141.41 577.31 1147.49C577.31 1153.56 572.183 1158.48 565.84 1158.48C375.738 1158.48 226.824 1102.62 226.824 1031.28C226.824 959.936 375.738 904.081 565.84 904.081Z" fill="#CFA36F"/>
<path d="M730.927 969.891C731.456 969.891 731.986 969.933 732.525 970.005C787.914 977.842 880.827 997.149 880.827 1038.64C880.827 1089.88 733.688 1116.69 588.334 1116.69C442.981 1116.69 295.853 1089.88 295.853 1038.64C295.853 1001.74 368.036 982.233 428.604 972.372C434.542 971.49 440.168 975.247 441.175 980.936C442.182 986.624 438.185 992.022 432.248 992.997C341.608 1007.77 317.661 1029.3 317.661 1038.64C317.661 1061.93 423.113 1095.75 588.345 1095.75C753.576 1095.75 859.039 1061.93 859.039 1038.64C859.039 1026.72 824.504 1004.15 729.37 990.714C723.412 989.873 719.291 984.548 720.173 978.839C720.962 973.638 725.633 969.891 730.947 969.891H730.927Z" fill="#CFA36F"/>
<path d="M542.412 1070.57C480.39 1070.57 375.437 1060.55 375.437 1023.04C375.437 985.524 480.39 975.507 542.412 975.507C604.433 975.507 709.387 985.524 709.387 1023.04C709.387 1060.55 604.433 1070.57 542.412 1070.57ZM542.412 995.831C451.565 995.831 398.626 1013.67 395.73 1023.26C398.626 1032.4 451.565 1050.24 542.412 1050.24C633.259 1050.24 685.409 1032.65 689.021 1023.04C685.409 1013.43 632.584 995.831 542.412 995.831Z" fill="#B59275"/>
<path d="M742.159 141.409C659.263 172.56 550.095 71.7997 473.219 141.409C418.412 191.037 479.665 279.953 545.984 297.786L742.169 141.409H742.159Z" fill="#EAAC71"/>
<path d="M463.087 168.532C530.558 107.434 622.9 177.563 700.523 174.584L742.148 141.398C659.252 172.549 550.083 71.789 473.208 141.398C460.565 152.848 454.16 166.404 452.51 180.677C455.406 176.431 458.862 172.352 463.087 168.522V168.532Z" fill="#F5D7BB"/>
<path d="M545.973 308.976C545.008 308.976 544.022 308.851 543.056 308.592C496.927 296.198 454.067 253.359 443.355 208.963C436.255 179.514 444.195 152.567 465.703 133.094C513.691 89.6532 571.145 105.711 626.71 121.198C667.203 132.492 705.495 143.204 738.214 130.904C743.373 128.952 749.165 131.07 751.895 135.866C754.625 140.661 753.441 146.723 749.144 150.149L552.959 306.516C550.955 308.124 548.485 308.965 545.973 308.965V308.976ZM541.084 127.551C519.223 127.551 498.857 133.302 480.744 149.702C461.344 167.297 461.551 188.784 465.163 203.71C473.54 238.432 507.369 273.289 543.586 285.34L702.454 158.712C675.58 158.11 647.844 150.377 620.689 142.779C592.954 135.046 566.038 127.541 541.084 127.541V127.551Z" fill="#592832"/>
<path d="M472.419 244.556C490.242 269.531 517.635 290.156 545.973 297.775L624.593 235.11C525.763 104.766 445.867 204.011 472.409 244.556H472.419Z" fill="#EE857B"/>
<path d="M505.148 229.609C494.394 213.177 501.11 187.113 519.493 170.587C478.46 175.643 456.641 220.464 472.419 244.556C490.242 269.531 517.635 290.157 545.973 297.776L568.768 279.6C544.052 270.278 520.874 251.646 505.137 229.599L505.148 229.609Z" fill="#FFBAB0"/>
<path d="M545.973 308.975C545.007 308.975 544.021 308.851 543.077 308.591C513.099 300.547 483.266 279.029 463.305 251.064C463.212 250.94 463.139 250.805 463.046 250.701C447.828 227.46 458.302 191.368 485.944 171.874C518.932 148.571 575.037 151.187 633.54 228.342C637.204 233.2 636.353 240.093 631.588 243.871L552.969 306.546C550.966 308.135 548.495 308.975 545.983 308.975H545.973ZM481.688 238.255C497.29 260.002 520.572 277.627 543.575 285.35L608.877 233.294C569.463 185.192 528.752 169.03 498.847 190.195C481.512 202.423 473.374 225.27 481.678 238.255H481.688Z" fill="#592832"/>
<path d="M1184.86 141.409C1126.43 103.542 1053.3 151.415 1002.51 163.902C949.449 130.292 889.089 110.258 825.043 110.258C613.433 110.258 441.891 347.185 441.891 534.018C441.891 664.486 613.433 770.249 825.043 770.249C1036.65 770.249 1208.2 664.486 1208.2 534.018C1208.2 465.778 1189.22 396.086 1156.13 333.442C1252.83 286.679 1263.45 192.334 1184.86 141.419V141.409Z" fill="#EAAC71"/>
<path d="M1188.75 144.086C1204.03 190.558 1180.05 244.753 1116.31 279.465C1152.93 341.372 1175.58 411.106 1178.92 480.3C1185.31 612.595 1016.55 728.23 801.979 738.59C698.343 743.593 602.981 723.113 531.357 685.703C601.642 737.375 707.114 770.239 825.054 770.239C1036.66 770.239 1208.21 664.475 1208.21 534.007C1208.21 465.768 1189.23 396.075 1156.14 333.431C1251.18 287.468 1263 195.572 1188.76 144.086H1188.75Z" fill="#D6823C"/>
<path d="M1184.86 141.409C1126.43 103.542 1053.3 151.415 1002.51 163.903C993.596 158.256 984.451 153.024 975.14 148.177L971.497 155.173C1012.02 189.687 1040.72 185.524 1085.71 164.826C1137.75 140.879 1225.79 157.259 1236.94 230.906C1238.44 197.794 1221.21 164.961 1184.88 141.409H1184.86Z" fill="#F5D7BB"/>
<path d="M473.83 534.007C473.83 351.846 636.924 122.091 841.216 110.725C835.849 110.445 830.472 110.248 825.043 110.248C613.433 110.248 441.891 347.175 441.891 534.007C441.891 664.476 613.433 770.239 825.043 770.239C830.389 770.239 835.714 770.156 841.008 770.021C636.809 764.862 473.82 661.175 473.82 534.007H473.83Z" fill="#F5D7BB"/>
<path d="M766.064 207.053C730.263 170.484 695.614 157.602 667.131 155.163C642.405 169.612 619.101 187.061 597.511 206.773C614.389 249.632 689.022 275.24 766.064 207.053Z" fill="#D6823C"/>
<path d="M825.044 781.45C607.579 781.45 430.681 670.455 430.681 534.008C430.681 338.207 612.655 99.0479 825.044 99.0479C886.349 99.0479 948.225 117.275 1004.33 151.821C1015.33 148.758 1027.57 144.098 1040.45 139.209C1085.91 121.998 1142.43 100.543 1190.94 131.984C1229.68 157.094 1250.51 193.954 1248.06 233.087C1245.46 274.888 1217.62 312.734 1171.2 338.259C1202.77 401.484 1219.39 468.924 1219.39 534.008C1219.39 670.455 1042.49 781.45 825.023 781.45H825.044ZM825.044 121.459C624.738 121.459 453.091 348.296 453.091 534.008C453.091 658.082 619.953 759.039 825.044 759.039C1030.14 759.039 1197 658.082 1197 534.008C1197 469.09 1179.42 401.536 1146.22 338.664C1144.79 335.985 1144.52 332.83 1145.47 329.923C1146.41 327.038 1148.5 324.65 1151.25 323.332C1196.28 301.544 1223.41 268.151 1225.7 231.696C1227.62 200.857 1210.52 171.377 1178.77 150.814C1139.76 125.528 1091.22 143.973 1048.41 160.177C1033.08 166 1018.61 171.491 1005.19 174.792C1002.21 175.56 999.078 175.01 996.503 173.37C942.132 138.918 884.45 121.459 825.044 121.459Z" fill="#592832"/>
<path d="M1236.59 217.849C1245.04 250.172 1214.37 304.897 1157.24 332.923C1136.14 295.762 1110.94 260.345 1079.83 227.44C1079.83 227.44 1213.56 129.742 1236.59 217.849Z" fill="white"/>
<path d="M1236.59 217.849C1245.04 250.172 1214.37 304.897 1157.24 332.923C1136.14 295.762 1110.94 260.345 1079.83 227.44C1079.83 227.44 1213.56 129.742 1236.59 217.849Z" fill="#EE857B"/>
<path d="M1236.59 217.848C1229.73 191.639 1213.09 181.871 1193.07 181.092C1199.06 187.134 1203.63 195.635 1206.17 207.24C1212.44 235.879 1187.92 280.524 1142.5 308.415C1147.62 316.502 1152.55 324.66 1157.24 332.933C1214.37 304.907 1245.04 250.183 1236.59 217.859V217.848Z" fill="#FFBAB0"/>
<path d="M1157.24 344.123C1153.34 344.123 1149.54 342.078 1147.49 338.445C1125.36 299.467 1100.56 265.68 1071.68 235.131C1069.46 232.796 1068.35 229.619 1068.65 226.412C1068.94 223.204 1070.6 220.277 1073.2 218.388C1082.11 211.869 1161.73 155.183 1212.46 173.369C1230.09 179.649 1241.86 193.642 1247.42 215.004C1257.08 251.885 1225.11 312.09 1162.18 342.981C1160.59 343.749 1158.9 344.113 1157.24 344.113V344.123ZM1096.85 229.349C1120.93 256.12 1142.23 285.278 1161.53 317.955C1210.06 290.115 1231.78 243.747 1225.76 220.661C1222.11 206.741 1215.31 198.178 1204.96 194.482C1175.87 184.154 1124.03 211.62 1096.85 229.349Z" fill="#592832"/>
<path d="M953.55 137.9C940.969 132.544 925.15 126.617 906.372 121.147C743.622 82.0759 683.209 -34.1196 651.892 30.3516C620.575 94.8228 705.931 135.555 705.931 135.555C705.931 135.555 633.415 141.793 635.315 185.078C637.225 228.478 734.788 240.342 784.52 193.372C852.177 188.597 911.542 173.764 953.55 137.9Z" fill="#EAAC71"/>
<path d="M910.784 146.568C966.442 153.387 978.899 158.183 987.462 161.339C997.645 155.578 944.789 145.405 953.561 137.911C940.97 132.534 925.171 126.627 906.393 121.147C743.632 82.0757 683.209 -34.1199 651.913 30.3409C648.311 37.7005 646.287 44.7694 645.446 51.4853C677.729 0.996215 739.262 115.894 910.794 146.568H910.784Z" fill="#F5D7BB"/>
<path d="M702.236 135.99C693.278 137.184 669.829 141.274 653.2 152.734C681.32 164.754 730.138 169.985 755.974 145.935C734.664 145.073 716.737 141.772 702.236 135.98V135.99Z" fill="#D6823C"/>
<path d="M702.289 234.716C686.231 234.716 671.055 232.017 658.568 226.941C637.455 218.388 624.905 203.316 624.116 185.576C622.746 154.737 649.444 137.9 676.027 129.928C661.682 119.019 645.136 102.629 637.724 81.4634C631.299 63.1112 632.669 44.2608 641.793 25.4624C648.312 12.0304 656.606 4.09998 667.173 1.2143C687.643 -4.40137 709.503 10.0686 742.637 31.9188C781.189 57.371 833.982 92.238 908.968 110.248C962.883 125.942 993.027 145.042 994.293 145.841C999.494 149.184 1001.01 156.097 997.667 161.318C994.366 166.539 987.484 168.065 982.19 164.733C981.92 164.546 953.25 146.485 903.218 131.911C824.9 113.112 770.217 77.0103 730.274 50.6446C705.31 34.1713 683.833 19.992 673.09 22.8362C671.626 23.241 667.194 24.4451 661.962 35.2405C655.443 48.6309 654.447 61.3154 658.858 73.9792C669.81 105.431 710.354 125.237 710.749 125.434C715.306 127.624 717.828 132.586 716.935 137.547C716.022 142.509 711.922 146.267 706.877 146.703C706.254 146.755 645.094 153.055 646.496 184.58C647.004 196.351 659.544 203.15 666.955 206.16C696.445 218.108 746.841 213.499 776.798 185.192C781.303 180.936 788.403 181.144 792.659 185.649C796.915 190.154 796.707 197.254 792.202 201.51C767.84 224.502 733.409 234.695 702.268 234.695L702.289 234.716Z" fill="#592832"/>
<path d="M748.136 152.63C728.05 152.63 690.713 149.049 669.766 124.718C665.738 120.005 666.257 112.947 670.949 108.898C675.641 104.829 682.72 105.39 686.769 110.082C704.539 130.738 745.157 131.289 759.367 129.731C765.429 129.202 771.066 133.531 771.72 139.676C772.374 145.821 767.941 151.353 761.776 152.028C761.059 152.101 755.88 152.63 748.126 152.63H748.136Z" fill="#592832"/>
<path d="M791.91 1016.83C792.242 1017.26 792.574 1017.68 792.907 1018.1C792.574 1017.69 792.242 1017.26 791.91 1016.83Z" fill="#D5813C"/>
<path d="M788.505 1011.9C789.024 1012.73 789.553 1013.54 790.103 1014.33C789.564 1013.54 789.024 1012.76 788.505 1011.9Z" fill="#D5813C"/>
<path d="M876.363 980.489L875.896 998.426C875.782 1002.72 873.311 1006.62 869.46 1008.54L628.775 1128.81C626.045 1130.17 622.89 1130.41 619.994 1129.48L297.399 1025.2C292.489 1023.61 289.209 1018.98 289.344 1013.81L290.288 977.572C290.413 972.964 293.236 968.864 297.492 967.109L539.911 867.179C542.443 866.131 545.277 866.017 547.893 866.847L868.287 969.082C873.218 970.659 876.519 975.299 876.384 980.479L876.363 980.489Z" fill="#923FDD"/>
<path d="M868.267 969.092L619.756 889.788V1129.4L619.995 1129.48C622.901 1130.41 626.057 1130.17 628.787 1128.81L869.471 1008.54C873.323 1006.62 875.793 1002.72 875.907 998.426L876.374 980.489C876.509 975.31 873.208 970.67 868.278 969.092H868.267Z" fill="#923FDD"/>
<path d="M623.585 1141.31C621.197 1141.31 618.8 1140.93 616.506 1140.18L293.942 1035.9C284.361 1032.79 277.832 1023.6 278.081 1013.55L279.026 977.292C279.244 968.282 284.787 960.196 293.163 956.729L535.582 856.789C540.544 854.713 546.107 854.474 551.287 856.166L871.66 958.379C881.293 961.442 887.843 970.638 887.594 980.749V980.769L887.117 998.727C886.898 1007.18 882.061 1014.79 874.494 1018.57L633.768 1138.87C630.54 1140.48 627.052 1141.3 623.564 1141.3L623.585 1141.31ZM544.447 877.58L301.769 977.52L300.565 1014.12L623.429 1118.8L864.425 998.509L865.121 980.23C865.121 980.043 865.007 979.887 864.851 979.825L544.447 877.591V877.58Z" fill="#592832"/>
<path d="M539.889 867.19L297.481 967.12C294.959 968.158 293.039 970.067 291.793 972.372C293.132 975.216 295.478 977.531 298.613 978.548L621.207 1082.83C624.114 1083.76 627.269 1083.52 629.999 1082.16L860.937 966.756L547.882 866.857C545.266 866.027 542.443 866.141 539.9 867.19H539.889Z" fill="#923FDD"/>
<path d="M550.602 892.912L369.79 967.452C367.89 968.23 366.448 969.673 365.503 971.396C366.51 973.535 368.274 975.278 370.631 976.036L611.523 1053.91C614.866 1054.99 618.488 1054.72 621.623 1053.14L783.491 972.247C787.207 970.389 786.782 964.961 782.827 963.694L559.768 892.517C556.757 891.562 553.508 891.687 550.592 892.891L550.602 892.912Z" fill="#B683ED"/>
<path d="M771.377 942.689L554.182 1049.42L555.761 1052.63L772.956 945.903L771.377 942.689Z" fill="#923FDD"/>
<path d="M727.619 925.925L510.424 1032.66L512.003 1035.87L729.199 929.139L727.619 925.925Z" fill="#923FDD"/>
<path d="M683.646 908.406L466.451 1015.14L468.031 1018.35L685.226 911.62L683.646 908.406Z" fill="#923FDD"/>
<path d="M639.311 896.973L422.116 1003.71L423.696 1006.92L640.891 900.188L639.311 896.973Z" fill="#923FDD"/>
<path d="M606.707 884.108L364.784 991.617L366.234 994.88L608.157 887.371L606.707 884.108Z" fill="#923FDD"/>
<path d="M800.224 994.637L510.565 897.614L511.697 894.23L801.345 991.243L800.224 994.637Z" fill="#923FDD"/>
<path d="M764.009 1011.62L474.36 914.606L475.492 911.212L765.14 1008.22L764.009 1011.62Z" fill="#923FDD"/>
<path d="M735.276 1027.93L445.628 930.913L446.749 927.519L736.407 1024.54L735.276 1027.93Z" fill="#923FDD"/>
<path d="M688.794 1043.33L399.146 946.318L400.277 942.923L689.925 1039.94L688.794 1043.33Z" fill="#923FDD"/>
<path d="M624.789 1094.63C622.433 1094.63 620.066 1094.27 617.762 1093.54L295.126 989.23C289.157 987.309 284.361 983.012 281.6 977.137C280.085 973.908 280.199 970.172 281.891 967.026C284.465 962.262 288.368 958.702 293.205 956.719L535.593 856.799C540.575 854.723 546.118 854.485 551.298 856.177L864.312 956.055C868.671 957.446 871.754 961.349 872.107 965.885C872.47 970.442 870.031 974.77 865.921 976.815L634.993 1092.2C631.786 1093.81 628.277 1094.63 624.779 1094.63H624.789ZM315.315 971.926L624.665 1072.14L831.137 969.061L544.447 877.57C544.447 877.57 544.187 877.57 544.177 877.591L315.315 971.926Z" fill="#592832"/>
<path d="M946.303 891.281C944.819 905.813 932.394 941.314 895.451 954.185C858.508 967.056 856.037 974.354 818.731 1013.45C781.425 1052.54 713.196 1029.31 719.019 964.295C735.389 868.393 803.192 870.946 844.038 830.35C883.721 851.546 917.778 871.85 946.314 891.281H946.303Z" fill="#E9AB71"/>
<path d="M938.53 894.396C930.911 911.616 909.092 925.308 886.557 927.903C864.021 930.498 838.756 943.058 823.404 963.818C811.767 979.544 785.983 1025.62 756.182 1029.25C776.548 1036.47 801.097 1031.93 818.733 1013.45C856.039 974.354 858.509 967.057 895.452 954.185C919.545 945.788 933.205 927.778 940.201 912.229C939.859 906.488 939.319 900.541 938.53 894.396Z" fill="#D5813C"/>
<path d="M744.845 977.821C758.215 899.461 805.922 886.828 845.211 862.684C857.408 855.189 856.92 837.242 844.287 830.495L844.028 830.35C803.182 870.936 735.378 868.393 719.009 964.295C715.646 1001.86 737.008 1025.43 762.844 1031.14C750.43 1019.54 742.728 1001.46 744.845 977.821Z" fill="#F4D6BA"/>
<path d="M778.727 912.976C766.924 908.201 754.852 905.305 742.894 904.142C732.088 918.622 723.566 937.649 719.02 964.295C713.207 1029.32 781.425 1052.54 818.732 1013.45C831.925 999.619 840.758 989.778 848.305 982.253C836.575 952.306 812.14 926.501 778.716 912.976H778.727Z" fill="#AD6745"/>
<path d="M824.316 1007.57C825.24 1006.58 826.143 1005.63 827.026 1004.7C827.451 1004.24 827.898 1003.76 828.323 1003.31C828.572 1003.05 828.801 1002.81 829.05 1002.55C836.866 994.201 842.928 987.64 848.315 982.274C844.371 972.195 838.952 962.614 832.268 953.78C829.071 956.884 826.081 960.226 823.413 963.839C811.777 979.565 785.993 1025.64 756.191 1029.28C757.302 1029.67 758.434 1030.01 759.565 1030.33C759.762 1030.39 759.959 1030.46 760.157 1030.51C761.195 1030.79 762.243 1031.03 763.291 1031.25C763.603 1031.31 763.904 1031.39 764.215 1031.46C765.201 1031.65 766.188 1031.8 767.184 1031.94C767.568 1031.99 767.963 1032.06 768.347 1032.11C769.291 1032.22 770.236 1032.3 771.18 1032.37C771.637 1032.4 772.083 1032.44 772.54 1032.46C773.443 1032.5 774.346 1032.51 775.249 1032.51C775.758 1032.51 776.267 1032.51 776.765 1032.5C777.637 1032.48 778.498 1032.43 779.37 1032.37C779.92 1032.33 780.471 1032.29 781.021 1032.23C781.851 1032.15 782.682 1032.05 783.522 1031.92C784.114 1031.84 784.706 1031.75 785.287 1031.64C786.086 1031.51 786.875 1031.35 787.674 1031.17C788.297 1031.04 788.92 1030.88 789.532 1030.73C790.29 1030.53 791.058 1030.33 791.816 1030.11C792.47 1029.91 793.114 1029.7 793.757 1029.48C794.484 1029.24 795.2 1028.99 795.916 1028.73C796.591 1028.47 797.255 1028.19 797.93 1027.91C798.615 1027.61 799.29 1027.33 799.965 1027.02C800.66 1026.7 801.345 1026.34 802.03 1025.98C802.674 1025.65 803.307 1025.34 803.94 1024.99C804.656 1024.58 805.352 1024.15 806.058 1023.71C806.649 1023.35 807.241 1023.01 807.822 1022.61C808.57 1022.11 809.296 1021.57 810.023 1021.04C810.542 1020.66 811.071 1020.31 811.59 1019.9C812.4 1019.27 813.189 1018.59 813.978 1017.91C814.393 1017.56 814.819 1017.22 815.234 1016.85C816.428 1015.78 817.59 1014.65 818.722 1013.46C820.195 1011.91 821.597 1010.44 822.967 1008.98C823.413 1008.5 823.86 1008.04 824.306 1007.57H824.316Z" fill="#914921"/>
<path d="M718.719 972.776C718.729 974.188 718.76 975.589 718.854 976.949C718.906 977.707 718.978 978.454 719.051 979.191C719.165 980.437 719.3 981.661 719.476 982.865C719.58 983.602 719.705 984.329 719.84 985.056C720.058 986.249 720.297 987.412 720.566 988.564C720.722 989.229 720.878 989.893 721.054 990.536C721.386 991.761 721.75 992.945 722.144 994.118C722.321 994.637 722.476 995.166 722.663 995.675C723.213 997.19 723.815 998.654 724.469 1000.08C724.532 1000.21 724.584 1000.35 724.646 1000.48C725.404 1002.11 726.224 1003.68 727.106 1005.18C727.158 1005.27 727.21 1005.34 727.262 1005.42C728.082 1006.8 728.954 1008.14 729.867 1009.42C730.054 1009.68 730.251 1009.93 730.438 1010.18C731.248 1011.28 732.088 1012.33 732.971 1013.35C733.199 1013.61 733.427 1013.87 733.656 1014.12C734.559 1015.13 735.483 1016.09 736.448 1017.02C736.656 1017.21 736.853 1017.41 737.06 1017.61C738.14 1018.61 739.251 1019.57 740.393 1020.47C740.486 1020.55 740.59 1020.63 740.683 1020.71C747.243 1025.83 754.842 1029.34 762.876 1031.11C750.461 1019.51 742.759 1001.43 744.877 977.79C750.129 947.002 760.696 926.387 773.952 911.211C763.686 907.516 753.264 905.128 742.915 904.122C741.628 905.845 740.382 907.64 739.168 909.498C738.929 909.862 738.701 910.246 738.472 910.609C737.507 912.125 736.552 913.682 735.628 915.291C735.306 915.862 734.995 916.443 734.673 917.024C733.863 918.488 733.074 919.993 732.317 921.539C731.964 922.256 731.621 922.982 731.279 923.709C730.583 925.193 729.909 926.719 729.244 928.276C728.891 929.107 728.538 929.947 728.196 930.809C727.583 932.345 726.992 933.944 726.421 935.553C726.089 936.487 725.756 937.411 725.435 938.366C724.885 940.027 724.366 941.739 723.857 943.473C723.566 944.459 723.265 945.424 722.985 946.431C722.466 948.331 721.989 950.303 721.521 952.296C721.303 953.22 721.065 954.112 720.857 955.057C720.203 958.026 719.601 961.078 719.051 964.264C718.854 966.475 718.76 968.624 718.729 970.731C718.729 971.416 718.75 972.07 718.76 972.745L718.719 972.776Z" fill="#C08A71"/>
<path d="M774.959 1043.7C765.492 1043.7 756.005 1041.75 747.119 1037.7C719.882 1025.37 704.841 996.848 707.83 963.299C720.089 891.261 759.69 869.545 794.629 850.373C809.94 841.965 824.431 834.025 836.108 822.399C840.489 818.018 847.599 818.018 851.98 822.44C856.36 826.842 856.339 833.952 851.938 838.312C837.997 852.179 821.431 861.262 805.424 870.044C771.98 888.396 740.393 905.731 730.065 966.185C728.02 989.426 737.818 1008.87 756.378 1017.28C774.699 1025.6 795.968 1021.05 810.604 1005.71L825.095 990.329C849.488 964.254 857.699 955.462 891.746 943.598C924.008 932.356 933.983 901.215 935.114 890.171C935.737 883.984 941.207 879.604 947.415 880.133C953.581 880.756 958.075 886.268 957.452 892.434C955.553 911.097 940.917 950.22 899.116 964.794C870.301 974.832 865.339 980.136 841.496 1005.65L826.839 1021.21C812.846 1035.87 793.923 1043.7 774.948 1043.7H774.959Z" fill="#592832"/>
<path d="M757.956 1030.58C757.094 1030.58 756.243 1030.47 755.361 1030.22C750.379 1028.8 747.514 1023.6 748.936 1018.61C758.164 986.468 781.156 974.728 782.142 974.261C786.719 971.925 792.397 973.845 794.691 978.496C796.985 983.115 795.107 988.71 790.508 991.035C789.595 991.512 773.744 1000.12 766.956 1023.81C765.772 1027.92 762.025 1030.59 757.946 1030.59L757.956 1030.58Z" fill="#592832"/>
<path d="M726.494 1006.39C725.633 1006.39 724.781 1006.27 723.899 1006.02C718.917 1004.6 716.052 999.401 717.474 994.419C726.702 962.25 749.694 950.521 750.68 950.043C755.258 947.729 760.936 949.628 763.23 954.279C765.524 958.898 763.645 964.493 759.046 966.818C758.154 967.295 742.293 975.89 735.494 999.609C734.31 1003.72 730.563 1006.4 726.484 1006.4L726.494 1006.39Z" fill="#592832"/>
<path d="M290.278 977.583L185.822 703.806C182.905 696.145 184.732 687.488 190.514 681.675L205.119 666.988C210.112 661.964 217.316 659.815 224.239 661.289L542.578 728.905C549.73 730.421 555.564 735.58 557.951 742.482L668.738 1062.8L630 1082.16L290.288 977.583H290.278Z" fill="#AA69F2"/>
<path d="M668.728 1062.79L557.94 742.472C556.393 737.988 553.3 734.376 549.428 731.884L516.658 793.117L458.249 904.143L512.413 1045.96L629.989 1082.15L668.728 1062.79Z" fill="#AA69F2"/>
<path d="M631.297 1072.75L632.677 1072.06L529.582 773.965C527.184 767.021 521.319 761.841 514.126 760.315L194.105 692.335C191.002 691.671 187.856 691.848 184.856 692.564L289.79 967.607L631.297 1072.74V1072.75Z" fill="#923FDD"/>
<path d="M629.989 1093.37C628.878 1093.37 627.768 1093.21 626.688 1092.89L286.977 988.316C283.676 987.298 281.029 984.807 279.783 981.579L175.327 707.792C170.843 696.062 173.687 682.703 182.552 673.765L197.126 659.077C204.901 651.282 215.924 648.054 226.574 650.296L544.903 717.912C555.812 720.227 564.864 728.22 568.528 738.808L679.316 1059.12C681.163 1064.44 678.765 1070.31 673.731 1072.82L634.992 1092.18C633.425 1092.97 631.712 1093.36 629.979 1093.36L629.989 1093.37ZM298.82 968.458L628.993 1070.11L654.901 1057.16L547.342 746.146C546.252 742.97 543.533 740.583 540.263 739.887L221.903 672.271C218.696 671.554 215.405 672.561 213.07 674.897L198.496 689.585C195.828 692.263 194.977 696.28 196.327 699.799L298.831 968.458H298.82Z" fill="#592832"/>
<path d="M436.264 894.757C444.25 880.189 435.258 859.901 416.181 849.443C397.103 838.985 375.163 842.318 367.178 856.886C359.192 871.455 368.183 891.742 387.261 902.2C406.339 912.658 428.278 909.325 436.264 894.757Z" fill="#C99FF6"/>
<path d="M629.989 1140.06C623.781 1140.06 618.747 1135.03 618.747 1128.82V1082.15C618.747 1075.95 623.781 1070.91 629.989 1070.91C636.196 1070.91 641.23 1075.95 641.23 1082.15V1128.82C641.23 1135.03 636.196 1140.06 629.989 1140.06Z" fill="#592832"/>
<path d="M826.456 1389.7C820.674 1389.7 816.003 1385.03 816.003 1379.24V1295.35C816.003 1289.57 820.674 1284.9 826.456 1284.9C832.238 1284.9 836.909 1289.57 836.909 1295.35V1379.24C836.909 1385.03 832.238 1389.7 826.456 1389.7Z" fill="#592832"/>
<path d="M863.387 1356.23C857.606 1356.23 852.935 1351.56 852.935 1345.78V1202.73C852.935 1196.95 857.606 1192.28 863.387 1192.28C869.169 1192.28 873.84 1196.95 873.84 1202.73V1345.78C873.84 1351.56 869.169 1356.23 863.387 1356.23Z" fill="#592832"/>
<path d="M743.793 595.593C773.225 595.444 796.977 574.076 796.844 547.866C796.711 521.656 772.744 500.529 743.313 500.678C713.881 500.827 690.129 522.195 690.262 548.405C690.394 574.615 714.361 595.742 743.793 595.593Z" fill="#FFE5C0"/>
<path d="M660.395 588.334C682.471 588.222 700.273 569.291 700.155 546.051C700.037 522.81 682.045 504.061 659.969 504.173C637.892 504.284 620.09 523.215 620.208 546.456C620.326 569.696 638.318 588.446 660.395 588.334Z" fill="#FFE5C0"/>
<path d="M693.455 566.653C661.121 568.054 640.651 512.209 659.294 504.694C677.937 497.168 727.076 499.307 729.64 515.666C732.204 532.025 720.236 565.491 693.445 566.653H693.455Z" fill="#DBAB7A"/>
<path d="M692.759 550.626C660.425 552.027 640.547 509.863 659.262 503.957C677.977 498.05 727.076 499.161 729.463 511.545C731.851 523.938 719.54 549.453 692.759 550.626Z" fill="#592832"/>
<path d="M753.701 606.834C736.875 606.834 720.329 602.423 707.374 593.838C690.496 582.638 681.133 565.137 681.03 544.533C680.988 538.346 685.971 533.291 692.178 533.27H692.23C698.396 533.27 703.42 538.232 703.43 544.418C703.503 557.663 708.994 568.012 719.758 575.144C735.505 585.596 761.081 587.278 780.534 579.213C786.17 576.836 792.814 579.524 795.191 585.254C797.578 590.963 794.858 597.534 789.149 599.911C778.022 604.561 765.773 606.824 753.701 606.824V606.834Z" fill="#592832"/>
<path d="M652.432 603.803C646.63 603.803 640.775 602.983 635.025 601.25C629.098 599.475 625.735 593.226 627.53 587.288C629.326 581.351 635.523 577.967 641.492 579.794C660.737 585.627 679.192 575.05 685.919 561.525C688.69 555.982 695.385 553.719 700.97 556.511C706.503 559.283 708.745 566.019 705.984 571.562C695.946 591.638 674.677 603.803 652.432 603.803Z" fill="#592832"/>
<path d="M658.774 587.299C658.774 587.299 659.335 589.022 660.3 591.876C664.826 605.288 678.216 643.673 683.946 645.926C690.891 648.666 733.439 650.296 738.037 645.656C742.636 641.006 748.968 595.042 748.968 595.042C748.968 595.042 718.305 601.135 696.797 568.801C696.797 568.801 676.493 593.548 658.785 587.299H658.774Z" fill="white"/>
<path d="M748.967 595.053C748.967 595.053 718.304 601.146 696.796 568.812C696.796 568.812 676.493 593.558 658.784 587.309C658.784 587.309 659.345 589.033 660.31 591.887C661.898 596.589 664.576 604.375 667.628 612.585C677.583 611.475 690.309 608.153 698.976 598.904C708.588 613.654 729.971 617.962 745.334 618.014C747.431 606.17 748.967 595.053 748.967 595.053Z" fill="#C6AEA7"/>
<path d="M715.202 659.877C699.455 659.877 683.252 657.707 679.836 656.368C674.449 654.23 671.813 649.528 670.38 646.985C667.92 642.677 666.072 638.68 664.339 634.705C661.474 628.03 658.848 621.252 656.346 614.453L654.976 610.55C654.374 608.817 653.793 607.083 653.097 605.402C652.474 603.813 652.007 602.298 651.509 600.73C651.457 600.533 651.198 599.599 650.98 598.779C649.558 596.485 648.955 593.672 649.485 590.828C650.616 584.766 656.367 580.884 662.491 581.828C662.543 581.901 662.678 581.849 662.761 581.849C666.114 581.849 675.788 576.649 680.885 571.427C682.67 569.6 684.258 567.576 685.681 565.438C685.556 565.874 684.622 570.452 687.227 574.666C684.03 569.507 685.546 562.718 690.653 559.397C695.832 556.023 702.746 557.497 706.129 562.625C721.71 586.25 747.09 585.524 748.024 585.742C751.491 585.721 754.522 586.987 756.722 589.427C758.923 591.866 759.992 595.156 759.546 598.405C753.235 646.206 748.325 651.157 745.948 653.545C741.204 658.34 728.343 659.856 715.171 659.856L715.202 659.877ZM689.874 635.919C698.178 637.414 721.855 638.016 730.398 636.594C731.436 632.4 733.741 619.861 735.713 606.959C725.187 604.986 710.147 599.9 697.14 586.904C697.068 586.977 696.995 587.029 696.943 587.101C693.663 590.454 685.193 597.45 675.56 601.405C675.778 602.007 675.975 602.63 676.203 603.253L677.428 606.72C679.785 613.124 682.245 619.529 684.944 625.788C686.345 629.016 687.788 632.245 689.542 635.317C689.687 635.556 689.801 635.753 689.884 635.919H689.874ZM687.321 574.811C687.321 574.811 687.362 574.853 687.362 574.863C687.362 574.842 687.341 574.822 687.321 574.811ZM687.279 574.759L687.321 574.801L687.279 574.759ZM687.238 574.707C687.238 574.707 687.258 574.728 687.279 574.749C687.258 574.728 687.258 574.707 687.238 574.707Z" fill="#592832"/>
<path d="M706.814 648.522C704.603 648.522 702.62 646.975 702.143 644.722C701.738 642.823 692.219 597.721 692.032 568.833C692.012 566.186 694.129 564.037 696.755 564.017H696.797C699.423 564.017 701.561 566.134 701.561 568.76C701.748 596.693 711.381 642.273 711.485 642.75C712.035 645.324 710.395 647.857 707.8 648.407C707.468 648.48 707.146 648.522 706.814 648.522Z" fill="#592832"/>
<path d="M958.72 441.385C957.35 440.752 955.927 440.358 954.454 440.254C944.572 439.569 934.866 439.185 924.953 439.777C913.379 440.472 901.868 442.06 890.481 444.25C880.536 446.16 859.517 449.679 854.181 460.142C851.69 465.021 849.821 470.222 848.648 475.578C840.677 511.898 863.689 547.844 900.01 555.816C936.371 563.788 972.276 540.776 980.248 504.455C982.957 492.113 981.909 479.169 977.331 467.398C974.28 459.551 967.584 445.496 958.709 441.385H958.72Z" fill="#592832"/>
<path d="M883.39 510.725C892.545 510.725 899.967 503.303 899.967 494.147C899.967 484.992 892.545 477.57 883.39 477.57C874.234 477.57 866.812 484.992 866.812 494.147C866.812 503.303 874.234 510.725 883.39 510.725Z" fill="white"/>
<path d="M598.653 447.499C592.259 440.098 581.328 434.15 572.173 431.171C558.264 426.645 526.459 417.5 514.075 430.725C508.698 436.475 505.885 445.838 504.442 453.364C502.532 463.287 503.01 473.564 505.574 483.259C514.2 515.852 543.513 535.305 570.367 526.098C585.242 521.001 595.144 508.015 600.293 493.618C605.255 479.74 609.24 459.727 598.663 447.489L598.653 447.499Z" fill="#592832"/>
<path d="M577.186 490.297C570.397 492.352 563.058 488.044 560.806 480.602C558.564 473.201 562.27 465.54 569.048 463.475C575.836 461.419 583.175 465.727 585.417 473.128C587.67 480.56 583.974 488.231 577.186 490.286V490.297Z" fill="white"/>
</g>
<defs>
<clipPath id="clip0_971_2980">
<rect width="1547.54" height="1529.06" fill="white" transform="translate(0.662109)"/>
</clipPath>
</defs>
</svg>
