<svg width="1090" height="1281" viewBox="0 0 1090 1281" fill="none" xmlns="http://www.w3.org/2000/svg">
<path d="M684.676 1121.01C820.597 1112.15 838.156 987.726 785.001 839.752C731.885 691.779 772.67 582.116 886.204 569.545C999.738 556.975 1106.17 693.934 1067.14 868.445C1028.11 1043 863.257 1203.66 642.694 1211.08L684.715 1121.01H684.676Z" fill="#EAAC71"/>
<path d="M684.676 1121.01C820.597 1112.15 838.156 987.726 785.001 839.752C731.885 691.779 772.67 582.116 886.204 569.545C999.738 556.975 1106.17 693.934 1067.14 868.445C1028.11 1043 863.257 1203.66 642.694 1211.08L684.715 1121.01H684.676Z" fill="#AE6745"/>
<path d="M718.079 1121.01C854 1112.16 866.691 977.83 813.575 829.857C760.779 682.761 805.634 583.513 917.571 569.825C907.236 568.509 896.78 568.389 886.205 569.546C772.671 582.117 731.886 691.78 785.002 839.753C838.117 987.727 820.559 1112.16 684.677 1121.01L642.655 1211.08C654.348 1210.68 665.841 1209.85 677.214 1208.61L718.079 1121.01Z" fill="#C18B71"/>
<path d="M990.202 835.443C987.768 832.889 983.817 832.849 981.303 835.243C973.561 842.745 965.58 850.687 957.559 859.067C945.387 837.159 931.22 814.611 916.535 792.822C930.382 777.658 944.948 762.414 959.634 748.087C965.42 758.423 970.808 768.839 975.636 779.134C976.714 781.449 978.988 782.766 981.343 782.766C982.221 782.766 983.139 782.566 984.017 782.167C987.13 780.651 988.486 776.94 987.01 773.787C981.582 762.254 975.477 750.641 969.012 739.068C974.519 733.88 979.986 728.852 985.493 724.023C988.087 721.709 988.327 717.718 986.052 715.164C983.737 712.57 979.747 712.331 977.193 714.606C972.364 718.915 967.456 723.345 962.587 727.934C948.181 703.392 932.178 679.488 916.655 657.779C922.042 652.471 927.589 647.243 933.176 642.095C935.73 639.781 935.889 635.79 933.575 633.196C931.18 630.602 927.23 630.483 924.676 632.837C919.448 637.666 914.26 642.574 909.152 647.483C899.415 634.234 889.997 621.943 881.417 611.088C879.262 608.374 875.351 607.895 872.598 610.09C869.884 612.245 869.445 616.156 871.6 618.91C880.419 630.083 890.117 642.734 900.173 656.462C883.412 673.222 867.689 690.342 853.682 706.385C829.139 674.779 811.181 653.668 810.703 653.11C808.468 650.476 804.477 650.157 801.883 652.431C799.249 654.706 798.93 658.617 801.165 661.25C801.644 661.809 820.2 683.598 845.302 716.082C828.381 735.956 814.454 753.554 804.916 766.005C796.735 755.949 791.707 750.122 791.468 749.883C789.193 747.249 785.242 746.93 782.608 749.205C780.014 751.479 779.695 755.43 781.97 758.024C782.209 758.303 787.916 764.968 797.134 776.301C793.104 781.688 790.869 784.841 790.789 785.001C788.754 787.834 789.432 791.745 792.266 793.74C793.383 794.538 794.62 794.898 795.897 794.898C797.853 794.898 799.808 793.98 801.005 792.264C801.085 792.144 802.562 790.069 805.235 786.437C817.886 802.36 834.487 823.91 851.966 848.492C836.522 867.288 823.872 883.53 815.292 894.664C812.379 890.633 809.505 886.762 806.712 883.051C804.637 880.337 800.686 879.779 797.893 881.894C795.139 884.009 794.62 887.96 796.735 890.713C800.167 895.183 803.719 900.051 807.35 905.119C804.757 908.591 803.32 910.547 803.2 910.706C801.125 913.46 801.724 917.411 804.557 919.486C805.674 920.284 806.951 920.723 808.228 920.723C810.184 920.723 812.099 919.805 813.336 918.129C813.416 918.049 813.935 917.251 814.933 915.974C827.583 934.531 840.832 955.681 853.323 977.35C840.353 993.073 828.78 1007.4 819.442 1019.13C818.444 1017.86 817.766 1017.06 817.606 1016.86C815.412 1014.18 811.421 1013.82 808.787 1016.02C806.113 1018.21 805.714 1022.17 807.909 1024.84C807.989 1024.92 809.306 1026.52 811.381 1029.27C800.846 1042.56 794.58 1050.7 794.341 1051.06C792.226 1053.81 792.745 1057.76 795.458 1059.88C796.616 1060.75 797.972 1061.19 799.289 1061.19C801.165 1061.19 803.041 1060.32 804.278 1058.72C804.477 1058.4 809.905 1051.42 819.003 1039.88C826.625 1051.1 835.644 1066.54 837.44 1078.75C837.919 1081.87 840.553 1084.14 843.625 1084.14C843.945 1084.14 844.224 1084.14 844.543 1084.06C847.975 1083.58 850.33 1080.39 849.851 1076.96C847.536 1061.11 835.804 1042 827.144 1029.67C836.123 1018.37 847.337 1004.49 859.947 989.123C870.682 1008.28 880.699 1027.43 889.039 1045.19C890.117 1047.51 892.391 1048.82 894.706 1048.82C895.624 1048.82 896.502 1048.62 897.42 1048.22C900.532 1046.71 901.889 1043 900.413 1039.84C891.314 1020.53 880.3 999.538 868.487 978.747C880.379 964.381 893.309 949.096 906.758 933.613C914.18 946.702 921.084 959.831 927.19 972.801C928.267 975.115 930.502 976.432 932.897 976.432C933.774 976.432 934.692 976.233 935.53 975.834C938.683 974.317 940.04 970.606 938.523 967.453C931.699 952.967 923.877 938.242 915.497 923.636C928.347 908.99 941.556 894.305 954.645 880.377C957.239 885.406 959.714 890.394 961.988 895.302C963.066 897.577 965.34 898.934 967.655 898.934C968.573 898.934 969.451 898.734 970.369 898.335C973.481 896.859 974.838 893.108 973.362 889.995C970.369 883.69 967.176 877.265 963.744 870.76C972.683 861.462 981.463 852.602 989.963 844.382C992.437 841.947 992.517 837.957 990.122 835.522L990.202 835.443ZM907.596 666.758C923.159 688.507 939.042 712.411 953.249 736.833C938.284 751.32 923.478 766.723 909.312 782.167C892.99 758.423 876.349 735.916 861.504 716.521C875.351 700.558 890.915 683.518 907.596 666.718V666.758ZM813.057 776.062C822.156 764.09 836.043 746.451 853.163 726.258C867.969 745.693 884.53 768.16 900.652 791.745C886.166 807.827 872.518 823.75 860.267 838.475C842.428 813.494 825.588 791.745 813.057 776.062ZM861.903 967.054C849.133 945.186 835.724 923.875 822.954 905.399C830.975 894.863 843.705 878.502 859.508 859.147C873.236 878.941 887.283 900.331 900.133 922.08C886.764 937.444 873.795 952.688 861.863 967.054H861.903ZM908.833 912.143C895.783 890.234 881.577 868.804 867.769 849.091C879.901 834.485 893.429 818.562 907.875 802.48C922.521 824.309 936.568 846.816 948.46 868.605C935.251 882.612 921.882 897.338 908.833 912.143Z" fill="#924921"/>
<path d="M832.372 893.186C831.175 888.078 829.938 882.89 828.541 877.702C823.473 884.127 819.043 889.914 815.332 894.662C812.419 890.632 809.545 886.761 806.752 883.05C804.757 880.456 801.045 879.857 798.332 881.653C799.888 887.359 801.325 892.986 802.642 898.533C804.198 900.728 805.794 902.883 807.39 905.158C806.353 906.555 805.515 907.632 804.876 908.55C805.754 912.62 806.552 916.651 807.231 920.681C807.59 920.761 807.949 920.761 808.268 920.761C810.224 920.761 812.139 919.843 813.376 918.167C813.456 918.088 813.975 917.289 814.973 916.012C823.912 929.102 833.09 943.508 842.149 958.473C841.63 949.255 840.672 939.797 839.316 930.099C833.809 921.52 828.341 913.179 822.954 905.437C825.588 901.965 828.78 897.855 832.372 893.186Z" fill="#A66A49"/>
<path d="M800.168 659.614C801.046 656.9 802.043 654.226 803.081 651.632C802.642 651.832 802.203 652.111 801.844 652.431C799.729 654.266 799.13 657.139 800.168 659.614Z" fill="#A66A49"/>
<path d="M842.229 990.917C833.729 1001.33 826.027 1010.87 819.482 1019.13C818.485 1017.85 817.806 1017.06 817.647 1016.86C815.691 1014.46 812.299 1013.94 809.745 1015.42C809.147 1018.53 808.548 1021.61 807.83 1024.64C807.83 1024.72 807.909 1024.8 807.949 1024.84C807.989 1024.88 809.346 1026.51 811.421 1029.27C808.508 1032.98 805.914 1036.25 803.679 1039.08C801.245 1046.19 798.332 1052.93 794.9 1059.28C795.099 1059.48 795.259 1059.68 795.498 1059.88C796.656 1060.75 798.013 1061.19 799.329 1061.19C801.205 1061.19 803.081 1060.31 804.318 1058.72C804.517 1058.4 809.945 1051.42 819.043 1039.88C821.837 1043.99 824.83 1048.66 827.543 1053.49C829.738 1048.82 831.694 1043.95 833.37 1038.85C831.255 1035.49 829.18 1032.38 827.184 1029.59C830.935 1024.88 835.086 1019.69 839.515 1014.18C840.832 1006.68 841.71 998.939 842.229 990.917Z" fill="#A66A49"/>
<path d="M797.134 776.3C793.104 781.688 790.869 784.841 790.789 785C788.754 787.833 789.432 791.744 792.266 793.74C793.383 794.538 794.62 794.897 795.897 794.897C797.853 794.897 799.808 793.979 801.005 792.263C801.005 792.183 801.245 791.904 801.644 791.345C798.252 778.016 795.698 765.167 794.022 752.835C792.465 751 791.587 749.962 791.468 749.842C789.193 747.209 785.242 746.889 782.608 749.164C780.014 751.439 779.695 755.389 781.97 757.983C782.209 758.263 787.916 764.927 797.134 776.261V776.3Z" fill="#A66A49"/>
<path d="M886.244 569.545C879.021 570.343 872.955 572.658 866.33 574.214C970.207 575.132 1062.35 701.556 1026.32 862.619C990.839 1021.37 847.095 1166.59 652.75 1189.61L642.694 1211.12C863.297 1203.66 1028.15 1043.04 1067.18 868.485C1106.21 693.934 999.778 556.975 886.244 569.545Z" fill="#924921"/>
<path d="M886.245 569.545C879.022 570.343 873.474 571.74 866.85 573.296C970.487 567.829 1062.35 701.556 1026.36 862.619C990.88 1021.37 847.136 1166.59 652.791 1189.61L642.735 1211.12C863.338 1203.66 1028.19 1043.04 1067.22 868.485C1106.25 693.934 999.819 556.975 886.285 569.545H886.245Z" stroke="#592832" stroke-width="21.5495" stroke-linecap="round" stroke-linejoin="round"/>
<path d="M684.676 1121.01C820.597 1112.15 838.156 987.726 785.001 839.752C731.885 691.779 772.67 582.116 886.204 569.545C999.738 556.975 1106.17 693.934 1067.14 868.445C1028.11 1043 863.257 1203.66 642.694 1211.08L684.715 1121.01H684.676Z" stroke="#592832" stroke-width="21.5495" stroke-linecap="round" stroke-linejoin="round"/>
<path d="M621.146 686.872C557.854 720.473 475.527 740.746 385.458 740.746C327.474 740.746 272.682 732.326 224.116 717.361C232.816 756.469 239.799 821.197 213.421 883.851C171.719 982.899 103.918 1199.27 408.923 1199.27C600.953 1199.27 747.77 1012.47 700.44 868.207C677.813 810.343 622.144 759.821 621.146 686.872Z" fill="#EAAC71"/>
<path d="M237.285 883.851C262.147 824.829 257.358 763.972 249.457 724.424C240.837 722.269 232.377 719.915 224.116 717.361C232.816 756.469 239.799 821.198 213.421 883.851C171.719 982.899 103.918 1199.27 408.923 1199.27C412.156 1199.27 415.348 1199.19 418.541 1199.11C129.937 1192.41 196.221 981.343 237.285 883.851Z" fill="#F5D7BB"/>
<path d="M581.719 1144.56C526.767 1099.31 485.504 1026 477.004 936.448C462.917 787.996 268.692 767.364 223.517 854.241C220.884 864.098 217.571 873.994 213.421 883.851C171.719 982.899 103.918 1199.27 408.923 1199.27C473.532 1199.27 532.993 1178.12 581.679 1144.56H581.719Z" fill="#FFE5C0"/>
<path d="M479 1190.85C483.349 1189.81 487.619 1188.62 491.889 1187.38C493.087 1187.02 494.284 1186.66 495.481 1186.3C498.554 1185.38 501.587 1184.39 504.58 1183.39C505.936 1182.91 507.333 1182.43 508.69 1181.95C511.643 1180.91 514.556 1179.8 517.47 1178.68C518.667 1178.2 519.864 1177.76 521.061 1177.28C529.122 1174.01 536.984 1170.42 544.686 1166.55C545.843 1165.95 547 1165.35 548.118 1164.75C550.831 1163.36 553.505 1161.92 556.139 1160.44C557.416 1159.72 558.693 1159.01 559.97 1158.25C562.564 1156.73 565.158 1155.21 567.672 1153.66C568.789 1152.98 569.947 1152.3 571.024 1151.58C574.616 1149.31 578.167 1146.99 581.639 1144.6C578.487 1142.01 575.374 1139.29 572.341 1136.5C571.463 1135.7 570.585 1134.82 569.707 1133.98C567.552 1131.95 565.357 1129.91 563.242 1127.8C562.285 1126.84 561.327 1125.84 560.369 1124.85C558.374 1122.77 556.378 1120.66 554.423 1118.5C553.465 1117.46 552.547 1116.39 551.629 1115.35C549.714 1113.15 547.798 1110.96 545.923 1108.68C516.352 1072.85 493.765 1027.27 482.751 974.717C465.91 999.419 438.494 1053.21 454.297 1125.72C456.572 1136.14 449.788 1146.44 439.372 1148.79C347.428 1169.7 251.971 1152.9 185.726 1091.72L184.769 1091.56C205.161 1152.02 266.298 1199.31 408.844 1199.31C433.027 1199.31 456.452 1196.36 478.88 1190.89L479 1190.85Z" fill="#DBAB7A"/>
<path d="M237.285 883.851C246.025 863.1 251.053 842.149 253.607 821.956C240.877 830.137 230.421 840.912 223.517 854.24C222.919 856.555 222.24 858.83 221.562 861.144C221.402 861.703 221.203 862.302 221.043 862.86C220.524 864.536 219.966 866.252 219.407 867.928C219.168 868.647 218.928 869.405 218.649 870.123C218.09 871.759 217.492 873.356 216.893 874.992C216.654 875.67 216.374 876.349 216.135 877.027C215.257 879.302 214.379 881.537 213.421 883.811C171.719 982.859 103.918 1199.23 408.923 1199.23C411.956 1199.23 414.949 1199.15 417.982 1199.03C130.056 1192.09 196.261 981.223 237.285 883.811V883.851Z" fill="#FFF7EC"/>
<path d="M700.441 868.206C681.964 820.957 641.499 778.656 626.694 725.021C625.936 722.268 625.257 719.474 624.659 716.641C624.539 716.162 624.459 715.723 624.34 715.244C623.741 712.371 623.182 709.458 622.743 706.505C622.743 706.465 622.743 706.385 622.743 706.345C622.344 703.592 622.025 700.798 621.785 697.965C621.706 697.246 621.666 696.528 621.626 695.81C621.386 692.897 621.227 689.944 621.187 686.911C557.895 720.512 475.568 740.784 385.499 740.784C327.515 740.784 272.723 732.364 224.157 717.399C224.556 719.235 224.955 721.15 225.354 723.066C225.474 723.625 225.593 724.183 225.713 724.782C226.032 726.338 226.312 727.895 226.631 729.491C226.711 730.01 226.83 730.528 226.91 731.087C227.269 733.122 227.629 735.237 227.988 737.353C228.068 737.871 228.147 738.43 228.227 738.949C228.467 740.385 228.666 741.862 228.866 743.378C287.528 772.59 381.149 784.761 485.225 772.71C496.918 770.674 508.371 768.32 519.545 765.606C546.681 759.022 574.656 772.63 585.909 798.25C604.267 840.112 634.875 876.028 650.239 915.336C674.143 988.165 648.523 1071.81 592.614 1136.82C681.845 1069.69 730.73 960.31 700.521 868.246L700.441 868.206Z" fill="#D6823C"/>
<path d="M621.146 686.872C557.854 720.473 475.527 740.746 385.458 740.746C327.474 740.746 272.682 732.326 224.116 717.361C232.816 756.469 239.799 821.197 213.421 883.851C171.719 982.899 103.918 1199.27 408.923 1199.27C600.953 1199.27 747.77 1012.47 700.44 868.207C677.813 810.343 622.144 759.821 621.146 686.872Z" stroke="#592832" stroke-width="21.5495" stroke-linecap="round" stroke-linejoin="round"/>
<path d="M677.893 823.551C687.59 836.001 728.853 888.279 744.616 914.538C786.319 984.055 794.42 1083.7 738.83 1161.32C683.2 1238.94 570.824 1241.25 520.422 1177.52C445.796 1083.22 474.09 998.261 494.482 959.632C583.673 947.5 628.768 882.732 677.893 823.511V823.551Z" fill="#EAAC71"/>
<path d="M522.217 1141.97C481.632 1063.63 494.522 1000.74 515.034 959.394C519.344 950.734 512.48 940.837 502.823 941.316H502.583C478.999 978.07 443.681 1060.4 510.086 1160.6C543.049 1210.33 612.207 1227.33 671.189 1204.18C611.887 1217.51 548.675 1193.05 522.217 1141.97Z" fill="#F5D7BB"/>
<path d="M744.618 914.539C728.855 888.28 687.591 836.003 677.894 823.552C662.65 841.909 647.805 860.824 631.922 878.503C637.588 886.564 642.657 894.067 646.288 900.132C687.99 969.65 696.091 1069.3 640.502 1146.91C617.835 1178.56 585.67 1197.72 552.148 1204.94C608.656 1238.06 692.979 1225.29 738.831 1161.32C794.461 1083.7 786.32 984.056 744.618 914.539Z" fill="#D6823C"/>
<path d="M508.289 937.724C508.289 937.724 418.659 1048.98 520.421 1177.56C570.863 1241.29 683.24 1238.98 738.829 1161.36C794.459 1083.74 786.318 984.095 744.616 914.578C702.913 845.061 681.923 836.72 661.61 798.131" stroke="#592832" stroke-width="21.5495" stroke-linecap="round" stroke-linejoin="round"/>
<path d="M699.442 1267.91H423.688C423.688 1267.91 430.591 1196.08 520.381 1177.52C610.211 1158.97 704.23 1212.28 709.338 1235.47C714.447 1258.65 699.402 1267.91 699.402 1267.91H699.442Z" fill="#AE6745"/>
<path d="M699.442 1267.91H423.688C423.688 1267.91 430.591 1196.08 520.381 1177.52C610.211 1158.97 704.23 1212.28 709.338 1235.47C714.447 1258.65 699.402 1267.91 699.402 1267.91H699.442Z" fill="#AE6745"/>
<path d="M532.713 1191.65C604.385 1176.84 678.652 1207.77 708.382 1232.67C697.009 1208.33 606.82 1159.72 520.422 1177.56C430.592 1196.12 423.729 1267.95 423.729 1267.95H439.292C446.356 1246.04 468.025 1205.06 532.713 1191.69V1191.65Z" fill="#C18B71"/>
<path d="M709.379 1235.47C707.663 1227.73 696.011 1216.63 677.973 1205.98C674.98 1206.3 671.987 1206.65 668.994 1207.05C634.874 1211.8 612.766 1221.7 598.399 1232.16C585.749 1241.37 570.544 1246.32 554.901 1246.32H429.674C424.566 1258.81 423.648 1267.87 423.648 1267.87H699.403C699.403 1267.87 714.447 1258.61 709.339 1235.43L709.379 1235.47Z" fill="#924921"/>
<path d="M699.442 1267.91H423.688C423.688 1267.91 430.591 1196.08 520.381 1177.52C610.211 1158.97 704.23 1212.28 709.338 1235.47C714.447 1258.65 699.402 1267.91 699.402 1267.91H699.442Z" stroke="#592832" stroke-width="21.5495" stroke-linecap="round" stroke-linejoin="round"/>
<path d="M523.056 1267.91C523.056 1267.91 535.746 1228.08 567.073 1217.99" stroke="#592832" stroke-width="21.5495" stroke-linecap="round" stroke-linejoin="round"/>
<path d="M462.158 1267.91C462.158 1267.91 474.848 1228.08 506.175 1217.99" stroke="#592832" stroke-width="21.5495" stroke-linecap="round" stroke-linejoin="round"/>
<path d="M324.081 1192.33C322.485 1192.05 320.889 1191.73 319.332 1191.41C317.497 1191.05 315.661 1190.65 313.825 1190.25C312.309 1189.93 310.752 1189.57 309.276 1189.25C307.52 1188.86 305.764 1188.42 304.048 1187.98C302.572 1187.62 301.095 1187.26 299.658 1186.86C297.982 1186.42 296.306 1185.94 294.67 1185.46C293.273 1185.06 291.837 1184.67 290.48 1184.23C288.844 1183.75 287.287 1183.23 285.691 1182.71C284.374 1182.27 283.017 1181.83 281.701 1181.39C280.144 1180.83 278.628 1180.28 277.111 1179.72C275.874 1179.24 274.597 1178.8 273.36 1178.32C271.844 1177.72 270.367 1177.08 268.891 1176.48C267.733 1176.01 266.576 1175.53 265.459 1175.05C263.862 1174.37 262.346 1173.61 260.79 1172.89C259.832 1172.45 258.874 1172.01 257.916 1171.58C255.522 1170.42 253.207 1169.22 250.973 1167.98C249.935 1167.43 248.937 1166.83 247.9 1166.23C246.663 1165.51 245.426 1164.83 244.228 1164.11C243.151 1163.47 242.113 1162.8 241.076 1162.12C239.998 1161.44 238.921 1160.76 237.923 1160.08C236.885 1159.36 235.848 1158.65 234.85 1157.93C233.893 1157.25 232.895 1156.57 231.977 1155.89C230.979 1155.13 229.982 1154.38 229.024 1153.62C228.146 1152.94 227.228 1152.22 226.35 1151.5C225.392 1150.7 224.475 1149.91 223.517 1149.11C222.679 1148.39 221.881 1147.71 221.082 1146.95C220.165 1146.12 219.287 1145.28 218.409 1144.44C217.651 1143.72 216.892 1143 216.174 1142.28C215.296 1141.41 214.458 1140.53 213.62 1139.65C212.942 1138.93 212.263 1138.17 211.585 1137.46C210.787 1136.54 209.949 1135.66 209.19 1134.74C208.552 1134.02 207.953 1133.27 207.355 1132.55C206.596 1131.59 205.838 1130.63 205.08 1129.67C204.521 1128.96 203.963 1128.2 203.444 1127.48C202.726 1126.48 202.007 1125.48 201.289 1124.49C200.81 1123.77 200.331 1123.05 199.852 1122.29C199.174 1121.25 198.456 1120.22 197.817 1119.14C197.378 1118.46 196.979 1117.74 196.58 1117.02C195.902 1115.91 195.263 1114.83 194.624 1113.67C194.265 1113.03 193.946 1112.43 193.627 1111.8C192.988 1110.56 192.31 1109.36 191.711 1108.12C191.512 1107.73 191.352 1107.33 191.153 1106.93C188.718 1101.86 186.603 1096.71 184.807 1091.4C164.136 1030.19 185.207 955.482 205.758 902.566C120.398 951.491 84.8017 1142.64 246.423 1192.17C281.341 1201.27 308.398 1200.03 329.389 1193.13C327.593 1192.85 325.797 1192.53 324.041 1192.21L324.081 1192.33Z" fill="#EAAC71"/>
<path d="M196.539 928.225C199.412 919.645 202.405 911.464 205.398 903.682C204.241 903.363 203.044 903.004 201.886 902.685C116.526 951.61 80.9296 1142.76 242.551 1192.29C265.258 1198.19 284.653 1199.75 301.214 1198.23C290.838 1197.35 279.624 1195.48 267.453 1192.29C126.742 1149.15 135.562 998.66 196.539 928.185V928.225Z" fill="#F5D7BB"/>
<path d="M324.081 1192.33C322.485 1192.05 320.889 1191.73 319.332 1191.41C317.497 1191.05 315.661 1190.65 313.825 1190.25C312.309 1189.93 310.752 1189.57 309.276 1189.25C307.52 1188.86 305.764 1188.42 304.048 1187.98C302.572 1187.62 301.095 1187.26 299.658 1186.86C297.982 1186.42 296.306 1185.94 294.67 1185.46C293.273 1185.06 291.837 1184.67 290.48 1184.23C288.844 1183.75 287.287 1183.23 285.691 1182.71C284.374 1182.27 283.017 1181.83 281.701 1181.39C280.144 1180.83 278.628 1180.28 277.111 1179.72C275.874 1179.24 274.597 1178.8 273.36 1178.32C271.844 1177.72 270.367 1177.08 268.891 1176.48C267.733 1176.01 266.576 1175.53 265.459 1175.05C263.862 1174.37 262.346 1173.61 260.79 1172.89C259.832 1172.45 258.874 1172.01 257.916 1171.58C255.522 1170.42 253.207 1169.22 250.973 1167.98C249.935 1167.43 248.937 1166.83 247.9 1166.23C246.663 1165.51 245.426 1164.83 244.228 1164.11C243.151 1163.47 242.113 1162.8 241.076 1162.12C239.998 1161.44 238.921 1160.76 237.923 1160.08C236.885 1159.36 235.848 1158.65 234.85 1157.93C233.893 1157.25 232.895 1156.57 231.977 1155.89C230.979 1155.13 229.982 1154.38 229.024 1153.62C228.146 1152.94 227.228 1152.22 226.35 1151.5C225.392 1150.7 224.475 1149.91 223.517 1149.11C222.679 1148.39 221.881 1147.71 221.082 1146.95C220.165 1146.12 219.287 1145.28 218.409 1144.44C217.651 1143.72 216.892 1143 216.174 1142.28C215.296 1141.41 214.458 1140.53 213.62 1139.65C212.942 1138.93 212.263 1138.17 211.585 1137.46C210.787 1136.54 209.949 1135.66 209.19 1134.74C208.552 1134.02 207.953 1133.27 207.355 1132.55C206.596 1131.59 205.838 1130.63 205.08 1129.67C204.521 1128.96 203.963 1128.2 203.444 1127.48C202.726 1126.48 202.007 1125.48 201.289 1124.49C200.81 1123.77 200.331 1123.05 199.852 1122.29C199.174 1121.25 198.456 1120.22 197.817 1119.14C197.378 1118.46 196.979 1117.74 196.58 1117.02C195.902 1115.91 195.263 1114.83 194.624 1113.67C194.265 1113.03 193.946 1112.43 193.627 1111.8C192.988 1110.56 192.31 1109.36 191.711 1108.12C191.512 1107.73 191.352 1107.33 191.153 1106.93C188.718 1101.86 186.603 1096.71 184.807 1091.4C164.136 1030.19 185.207 955.482 205.758 902.566C120.398 951.491 84.8017 1142.64 246.423 1192.17C281.341 1201.27 308.398 1200.03 329.389 1193.13C327.593 1192.85 325.797 1192.53 324.041 1192.21L324.081 1192.33Z" stroke="#592832" stroke-width="21.5495" stroke-linecap="round" stroke-linejoin="round"/>
<path d="M374.644 1267.91H98.8896C98.8896 1267.91 105.794 1196.08 195.583 1177.52C285.413 1158.96 379.433 1212.28 384.541 1235.47C389.649 1258.65 374.604 1267.91 374.604 1267.91H374.644Z" fill="#AE6745"/>
<path d="M374.644 1267.91H98.8896C98.8896 1267.91 105.794 1196.08 195.583 1177.52C285.413 1158.96 379.433 1212.28 384.541 1235.47C389.649 1258.65 374.604 1267.91 374.604 1267.91H374.644Z" fill="#AE6745"/>
<path d="M207.874 1191.65C279.547 1176.84 353.813 1207.77 383.543 1232.67C372.17 1208.33 281.981 1159.72 195.583 1177.56C105.754 1196.12 98.8896 1267.95 98.8896 1267.95H114.453C121.517 1246.04 143.186 1205.06 207.874 1191.69V1191.65Z" fill="#C18B71"/>
<path d="M384.579 1235.47C382.864 1227.72 371.211 1216.63 353.173 1205.97C350.18 1206.29 347.187 1206.65 344.194 1207.05C310.074 1211.8 287.966 1221.7 273.599 1232.15C260.949 1241.37 245.745 1246.32 230.101 1246.32H104.875C99.7665 1258.81 98.8486 1267.87 98.8486 1267.87H374.603C374.603 1267.87 389.648 1258.61 384.54 1235.43L384.579 1235.47Z" fill="#924921"/>
<path d="M198.256 1267.91C198.256 1267.91 210.947 1228.08 242.273 1217.99" stroke="#592832" stroke-width="21.5495" stroke-linecap="round" stroke-linejoin="round"/>
<path d="M137.358 1267.91C137.358 1267.91 150.048 1228.08 181.375 1217.99" stroke="#592832" stroke-width="21.5495" stroke-linecap="round" stroke-linejoin="round"/>
<path d="M326.517 1192.77C325.718 1192.61 324.88 1192.49 324.082 1192.33C322.486 1192.05 320.89 1191.73 319.333 1191.41C317.498 1191.05 315.662 1190.65 313.826 1190.25C312.31 1189.93 310.753 1189.57 309.277 1189.25C307.521 1188.86 305.765 1188.42 304.049 1187.98C302.573 1187.62 301.096 1187.26 299.659 1186.86C297.983 1186.42 296.307 1185.94 294.671 1185.46C293.274 1185.06 291.838 1184.67 290.481 1184.23C288.845 1183.75 287.288 1183.23 285.692 1182.71C284.375 1182.27 283.018 1181.83 281.702 1181.39C280.145 1180.83 278.629 1180.28 277.112 1179.72C275.875 1179.24 274.598 1178.8 273.361 1178.32C271.845 1177.72 270.368 1177.08 268.892 1176.48C268.812 1176.48 268.772 1176.44 268.692 1176.4C245.307 1172.77 220.285 1172.41 195.583 1177.48C105.754 1196.04 98.8896 1267.87 98.8896 1267.87H374.644C374.644 1267.87 389.689 1258.61 384.581 1235.43C382.146 1224.37 359.36 1206.41 326.517 1192.73V1192.77Z" stroke="#592832" stroke-width="21.5495" stroke-linecap="round" stroke-linejoin="round"/>
<path d="M312.587 136.361C232.933 166.291 127.979 69.4377 54.1119 136.361C1.43526 184.049 60.2974 269.529 124.028 286.649L312.587 136.361Z" fill="#EAAC71"/>
<path d="M44.3753 162.42C109.223 103.717 197.976 171.08 272.561 168.246L312.587 136.361C232.934 166.291 127.98 69.4377 54.1125 136.361C41.941 147.375 35.7955 160.385 34.1992 174.113C36.9927 170.042 40.3049 166.091 44.3753 162.42Z" fill="#F5D7BB"/>
<path d="M312.587 136.361C232.933 166.291 127.979 69.4377 54.1119 136.361C1.43526 184.049 60.2974 269.529 124.028 286.649L312.587 136.361Z" stroke="#592832" stroke-width="21.5495" stroke-linecap="round" stroke-linejoin="round"/>
<path d="M53.3135 235.489C70.4335 259.513 96.7718 279.306 124.028 286.649L199.611 226.43C104.633 101.163 27.8133 196.54 53.3535 235.529L53.3135 235.489Z" fill="#EE857B"/>
<path d="M84.8013 221.122C74.4655 205.319 80.9304 180.258 98.5691 164.375C59.1414 169.244 38.1505 212.303 53.3149 235.488C70.4349 259.512 96.7732 279.306 124.029 286.649L145.938 269.17C122.194 260.23 99.9258 242.312 84.8013 221.122Z" fill="#FFBAB0"/>
<path d="M53.3135 235.489C70.4335 259.513 96.7718 279.306 124.028 286.649L199.611 226.43C104.633 101.163 27.8133 196.54 53.3535 235.529L53.3135 235.489Z" stroke="#592832" stroke-width="21.5495" stroke-linecap="round" stroke-linejoin="round"/>
<path d="M738.071 136.361C681.922 99.9658 611.607 145.978 562.801 157.99C511.8 125.706 453.776 106.431 392.24 106.431C188.877 106.431 23.9829 334.137 23.9829 513.717C23.9829 639.103 188.837 740.785 392.24 740.785C595.644 740.785 760.498 639.143 760.498 513.717C760.498 448.15 742.261 381.147 710.455 320.928C803.398 275.994 813.614 185.326 738.071 136.361Z" fill="#EAAC71"/>
<path d="M741.821 138.956C756.506 183.611 733.44 235.729 672.184 269.091C707.381 328.592 729.17 395.635 732.363 462.119C738.508 589.262 576.288 700.401 370.091 710.378C270.485 715.207 178.819 695.493 109.98 659.537C177.542 709.221 278.905 740.787 392.239 740.787C595.603 740.787 760.497 639.145 760.497 513.718C760.497 448.152 742.26 381.149 710.454 320.93C801.8 276.753 813.174 188.44 741.821 138.956Z" fill="#D6823C"/>
<path d="M738.07 136.362C681.922 99.9673 611.606 145.98 562.8 157.991C554.221 152.564 545.441 147.536 536.502 142.867L532.99 149.571C571.939 182.733 599.514 178.743 642.773 158.829C692.776 135.803 777.418 151.566 788.113 222.361C789.549 190.515 772.988 158.989 738.07 136.362Z" fill="#F5D7BB"/>
<path d="M54.6711 513.717C54.6711 338.647 211.424 117.804 407.764 106.91C402.616 106.63 397.428 106.431 392.24 106.431C188.877 106.431 23.9829 334.137 23.9829 513.717C23.9829 639.103 188.837 740.785 392.24 740.785C397.388 740.785 402.496 740.705 407.565 740.586C211.304 735.637 54.6711 635.99 54.6711 513.757V513.717Z" fill="#F5D7BB"/>
<path d="M335.573 199.453C301.174 164.295 267.852 151.924 240.476 149.57C216.732 163.457 194.304 180.218 173.553 199.174C189.795 240.357 261.507 264.98 335.533 199.453H335.573Z" fill="#D6823C"/>
<path d="M738.071 136.361C681.922 99.9658 611.607 145.978 562.801 157.99C511.8 125.706 453.776 106.431 392.24 106.431C188.877 106.431 23.9829 334.137 23.9829 513.717C23.9829 639.103 188.837 740.785 392.24 740.785C595.644 740.785 760.498 639.143 760.498 513.717C760.498 448.15 742.261 381.147 710.455 320.928C803.398 275.994 813.614 185.326 738.071 136.361V136.361Z" stroke="#592832" stroke-width="21.5495" stroke-linecap="round" stroke-linejoin="round"/>
<path d="M787.795 209.829C795.896 240.916 766.445 293.473 711.533 320.45C691.261 284.733 667.037 250.693 637.107 219.087C637.107 219.087 765.646 125.187 787.795 209.868V209.829Z" fill="white"/>
<path d="M787.795 209.829C795.896 240.916 766.445 293.473 711.533 320.45C691.261 284.733 667.037 250.693 637.107 219.087C637.107 219.087 765.646 125.187 787.795 209.868V209.829Z" fill="#EE857B"/>
<path d="M787.795 209.829C781.21 184.647 765.208 175.269 745.973 174.511C751.719 180.338 756.109 188.479 758.543 199.652C764.569 227.188 741.024 270.087 697.367 296.905C702.275 304.686 707.024 312.508 711.533 320.449C766.445 293.513 795.896 240.916 787.795 209.829Z" fill="#FFBAB0"/>
<path d="M787.795 209.829C795.896 240.916 766.445 293.473 711.533 320.45C691.261 284.733 667.037 250.693 637.107 219.087C637.107 219.087 765.646 125.187 787.795 209.868V209.829Z" stroke="#592832" stroke-width="21.5495" stroke-linecap="round" stroke-linejoin="round"/>
<path d="M515.751 133.009C503.659 127.861 488.455 122.155 470.417 116.887C313.983 79.3348 255.919 -32.3636 225.83 29.6113C195.74 91.5861 277.748 130.734 277.748 130.734C277.748 130.734 208.071 136.72 209.867 178.343C211.703 220.045 305.483 231.459 353.291 186.324C418.339 181.735 475.365 167.488 515.751 133.009Z" fill="#EAAC71"/>
<path d="M474.647 141.31C528.161 147.854 540.133 152.483 548.354 155.516C558.131 149.969 507.33 140.192 515.79 133.009C503.699 127.861 488.494 122.154 470.457 116.887C314.023 79.3348 255.959 -32.3237 225.869 29.6112C222.398 36.6747 220.482 43.4588 219.644 49.9236C250.691 1.3973 309.833 111.819 474.687 141.31H474.647Z" fill="#F5D7BB"/>
<path d="M274.197 131.174C265.578 132.331 243.03 136.242 227.068 147.257C254.085 158.79 301.015 163.858 325.837 140.712C305.365 139.874 288.125 136.721 274.197 131.134V131.174Z" fill="#D6823C"/>
<path d="M549.113 149.69C549.113 149.69 520.819 131.572 470.417 116.887C313.983 79.3348 255.919 -32.3636 225.83 29.6113C195.74 91.5861 277.748 130.734 277.748 130.734C277.748 130.734 208.071 136.72 209.867 178.343C211.703 220.045 305.483 231.459 353.291 186.324" stroke="#592832" stroke-width="21.5495" stroke-linecap="round" stroke-linejoin="round"/>
<path d="M330.305 135.843C330.305 135.843 275.713 141.79 251.21 113.256" stroke="#592832" stroke-width="21.5495" stroke-linecap="round" stroke-linejoin="round"/>
<path d="M127.98 511.563C153.105 511.563 173.473 487.174 173.473 457.09C173.473 427.006 153.105 402.618 127.98 402.618C102.854 402.618 82.4863 427.006 82.4863 457.09C82.4863 487.174 102.854 511.563 127.98 511.563Z" fill="#592832"/>
<path d="M142.625 459.286C149.237 459.286 154.597 453.461 154.597 446.276C154.597 439.091 149.237 433.267 142.625 433.267C136.013 433.267 130.653 439.091 130.653 446.276C130.653 453.461 136.013 459.286 142.625 459.286Z" fill="white"/>
<path d="M480.914 540.775C516.662 540.775 545.642 511.795 545.642 476.046C545.642 440.298 516.662 411.318 480.914 411.318C445.165 411.318 416.186 440.298 416.186 476.046C416.186 511.795 445.165 540.775 480.914 540.775Z" fill="#592832"/>
<path d="M455.493 478.121C464.287 478.121 471.416 470.992 471.416 462.198C471.416 453.404 464.287 446.275 455.493 446.275C446.699 446.275 439.57 453.404 439.57 462.198C439.57 470.992 446.699 478.121 455.493 478.121Z" fill="white"/>
<path d="M313.465 573.059C341.654 573.059 364.505 552.709 364.505 527.605C364.505 502.502 341.654 482.152 313.465 482.152C285.276 482.152 262.424 502.502 262.424 527.605C262.424 552.709 285.276 573.059 313.465 573.059Z" fill="#FFE5C0"/>
<path d="M233.653 565.715C254.789 565.715 271.923 547.67 271.923 525.41C271.923 503.149 254.789 485.104 233.653 485.104C212.517 485.104 195.382 503.149 195.382 525.41C195.382 547.67 212.517 565.715 233.653 565.715Z" fill="#FFE5C0"/>
<path d="M265.419 545.085C234.451 546.282 215.136 492.687 233.014 485.584C250.893 478.481 297.942 480.755 300.297 496.439C302.651 512.122 291.039 544.087 265.419 545.085Z" fill="#DBAB7A"/>
<path d="M264.82 529.76C233.853 530.957 215.017 490.492 232.975 484.905C250.933 479.358 297.943 480.635 300.138 492.527C302.333 504.42 290.44 528.763 264.82 529.76Z" fill="#592832"/>
<path d="M361.952 529.721C359.039 553.984 338.407 572.82 313.346 572.82C286.29 572.82 264.381 550.912 264.381 523.855" stroke="#592832" stroke-width="21.5495" stroke-linecap="round" stroke-linejoin="round"/>
<path d="M267.813 545.004C261.268 557.894 247.341 566.115 232.097 564.678C212.183 562.803 197.578 545.164 199.453 525.25" stroke="#592832" stroke-width="21.5495" stroke-linecap="round" stroke-linejoin="round"/>
<path d="M232.097 564.679C232.097 564.679 232.616 566.315 233.534 569.069C237.804 581.919 250.454 618.753 255.921 620.947C262.546 623.621 303.29 625.377 307.72 620.947C312.15 616.518 318.415 572.541 318.415 572.541C318.415 572.541 289.044 578.207 268.612 547.16C268.612 547.16 249.057 570.745 232.137 564.679H232.097Z" fill="white"/>
<path d="M318.414 572.541C318.414 572.541 289.043 578.207 268.611 547.16C268.611 547.16 249.057 570.745 232.136 564.679C232.136 564.679 232.655 566.315 233.573 569.069C235.089 573.578 237.603 581.041 240.477 588.902C250.014 587.905 262.226 584.752 270.566 575.973C279.705 590.14 300.137 594.37 314.862 594.489C316.938 583.156 318.454 572.541 318.454 572.541H318.414Z" fill="#C6AEA7"/>
<path d="M232.097 564.679C232.097 564.679 232.616 566.315 233.534 569.069C237.804 581.919 250.454 618.753 255.921 620.947C262.546 623.621 303.29 625.377 307.72 620.947C312.15 616.518 318.415 572.541 318.415 572.541C318.415 572.541 289.044 578.207 268.612 547.16C268.612 547.16 249.057 570.745 232.137 564.679H232.097Z" stroke="#592832" stroke-width="21.5495" stroke-linecap="round" stroke-linejoin="round"/>
<path d="M277.83 618.991C277.83 618.991 268.651 574.695 268.611 547.199" stroke="#592832" stroke-width="9.1785" stroke-linecap="round" stroke-linejoin="round"/>
<path d="M391.204 755.989H54.0337V828.26H391.204V755.989Z" fill="#E0E8EA"/>
<path d="M391.204 806.95H54.0337V828.22H391.204V806.95Z" fill="#B7C3D1"/>
<path d="M391.204 755.989H54.0337V776.621H391.204V755.989Z" fill="white"/>
<path d="M378.594 828.259H66.6445V996.825H378.594V828.259Z" fill="#E0E8EA"/>
<path d="M378.594 973.081H66.6445V996.825H378.594V973.081Z" fill="#B7C3D1"/>
<path d="M378.594 828.259H66.6445V857.112H378.594V828.259Z" fill="#B7C3D1"/>
<path d="M172.237 755.709C172.237 755.709 147.694 672.863 103.677 679.488C68.2802 684.796 85.0808 733.003 147.734 750.921L172.277 755.709H172.237Z" fill="#7123A5"/>
<path d="M220.765 756.708L172.238 755.67C172.238 755.67 152.205 685.794 113.576 679.608C87.317 675.657 85.4015 701.038 85.4015 701.038C85.4015 701.038 55.2322 657.939 108.468 640.181C161.703 622.422 213.462 722.228 220.765 756.708Z" fill="#AB69F3"/>
<path d="M96.0563 653.27C143.585 637.427 189.717 715.006 204.283 756.389L220.764 756.748C213.461 722.269 161.702 622.502 108.467 640.221C93.0233 645.369 85.0819 652.712 80.9316 660.453C85.042 657.82 89.8707 655.345 96.0563 653.27Z" fill="#CAA0F7"/>
<path d="M82.9658 696.808C84.2827 699.282 85.4001 701.078 85.4001 701.078C85.4001 701.078 86.0386 697.925 87.3954 694.214C85.5996 694.892 84.3226 695.81 82.9658 696.848V696.808Z" fill="#F98585"/>
<path d="M220.764 756.707C220.764 756.707 176.068 623.3 108.467 640.18C40.8651 657.101 78.8961 752.358 185.367 756.707H220.764Z" stroke="#592832" stroke-width="21.5495" stroke-linecap="round" stroke-linejoin="round"/>
<path d="M172.237 755.709C172.237 755.709 147.694 672.863 103.677 679.488C68.2802 684.796 85.0808 733.003 147.734 750.921L172.277 755.709H172.237Z" stroke="#592832" stroke-width="21.5495" stroke-linecap="round" stroke-linejoin="round"/>
<path d="M272.961 755.709C272.961 755.709 297.504 672.863 341.521 679.488C376.918 684.796 360.117 733.003 297.464 750.921L272.921 755.709H272.961Z" fill="#7123A5"/>
<path d="M224.436 756.708L272.962 755.67C272.962 755.67 292.995 685.794 331.625 679.608C357.883 675.657 359.799 701.038 359.799 701.038C359.799 701.038 389.968 657.939 336.733 640.181C283.497 622.422 231.738 722.228 224.436 756.708Z" fill="#AB69F3"/>
<path d="M347.867 656.423C356.766 659.376 362.672 663.207 367.421 667.237C364.907 657.061 356.686 646.845 336.733 640.181C283.497 622.422 231.738 722.228 224.436 756.708L240.717 756.348C256.56 714.247 301.615 640.979 347.867 656.423Z" fill="#CAA0F7"/>
<path d="M359.319 698.524C359.518 699.602 359.798 701.039 359.798 701.039C359.798 701.039 360.237 700.32 360.636 699.682C360.117 699.323 359.878 698.844 359.319 698.524Z" fill="#F98585"/>
<path d="M224.436 756.707C224.436 756.707 269.131 623.3 336.733 640.18C404.334 657.061 366.303 752.358 259.833 756.707H224.436Z" stroke="#592832" stroke-width="21.5495" stroke-linecap="round" stroke-linejoin="round"/>
<path d="M272.961 755.709C272.961 755.709 297.504 672.863 341.521 679.488C376.918 684.796 360.117 733.003 297.464 750.921L272.921 755.709H272.961Z" stroke="#592832" stroke-width="21.5495" stroke-linecap="round" stroke-linejoin="round"/>
<path d="M220.764 792.105C240.313 792.105 256.161 776.257 256.161 756.708C256.161 737.158 240.313 721.311 220.764 721.311C201.215 721.311 185.367 737.158 185.367 756.708C185.367 776.257 201.215 792.105 220.764 792.105Z" fill="#AB69F3"/>
<path d="M220.764 792.105C240.313 792.105 256.161 776.257 256.161 756.708C256.161 737.158 240.313 721.311 220.764 721.311C201.215 721.311 185.367 737.158 185.367 756.708C185.367 776.257 201.215 792.105 220.764 792.105Z" stroke="#592832" stroke-width="21.5495" stroke-linecap="round" stroke-linejoin="round"/>
<path d="M260.948 755.989H184.248V996.825H260.948V755.989Z" fill="#AB69F3"/>
<path d="M260.948 806.95H184.248V828.22H260.948V806.95Z" fill="#933FDE"/>
<path d="M260.948 828.259H184.248V857.112H260.948V828.259Z" fill="#933FDE"/>
<path d="M260.948 755.989H184.248V776.621H260.948V755.989Z" fill="#CAA0F7"/>
<path d="M260.948 755.989H184.248V996.825H260.948V755.989Z" stroke="#592832" stroke-width="21.5495" stroke-linecap="round" stroke-linejoin="round"/>
<path d="M391.204 755.989H54.0337V828.26H391.204V755.989Z" stroke="#592832" stroke-width="21.5495" stroke-linecap="round" stroke-linejoin="round"/>
<path d="M378.594 828.259H66.6445V996.825H378.594V828.259Z" stroke="#592832" stroke-width="21.5495" stroke-linecap="round" stroke-linejoin="round"/>
<path d="M122.715 920.759C128.167 884.537 108.082 851.484 77.853 846.934C47.6243 842.384 18.6993 868.059 13.2471 904.281C7.79489 940.503 27.8801 973.556 58.1088 978.106C88.3374 982.656 117.263 956.981 122.715 920.759Z" fill="#AE6745"/>
<path d="M122.715 920.759C128.167 884.537 108.082 851.484 77.853 846.934C47.6243 842.384 18.6993 868.059 13.2471 904.281C7.79489 940.503 27.8801 973.556 58.1088 978.106C88.3374 982.656 117.263 956.981 122.715 920.759Z" fill="#924921"/>
<path d="M28.3346 959.712C31.7267 961.268 34.8793 963.343 38.6704 963.942C64.9688 967.892 90.1099 945.585 94.8588 914.059C99.6077 882.572 82.1286 853.8 55.8302 849.849C55.1518 849.729 54.5133 850.088 53.8349 850.008C33.6421 857.671 17.1608 878.023 13.21 904.321C9.93769 926.03 16.5622 945.744 28.2947 959.712H28.3346Z" fill="#AE6745"/>
<path d="M74.3061 975.754C46.2918 971.564 27.6554 940.876 32.6437 907.235C37.6719 873.594 64.4493 849.769 92.4637 853.96C95.2172 854.359 97.3722 856.114 99.9262 856.992C93.4613 851.924 86.1584 848.173 77.8179 846.936C47.5688 842.387 18.6764 868.086 13.2092 904.282C7.74204 940.517 27.8549 973.559 58.0642 978.109C66.3647 979.346 74.4259 977.949 82.088 975.036C79.4541 975.116 76.9399 976.113 74.2662 975.714L74.3061 975.754Z" fill="#C18B71"/>
<path d="M122.715 920.759C128.167 884.537 108.082 851.484 77.853 846.934C47.6243 842.384 18.6993 868.059 13.2471 904.281C7.79489 940.503 27.8801 973.556 58.1088 978.106C88.3374 982.656 117.263 956.981 122.715 920.759Z" stroke="#592832" stroke-width="21.5495" stroke-linecap="round" stroke-linejoin="round"/>
<path d="M67.9619 892.909C67.9619 892.909 100.845 909.869 123.312 903.085" stroke="#592832" stroke-width="21.5495" stroke-linecap="round" stroke-linejoin="round"/>
<path d="M58.145 936.208C58.145 936.208 91.028 953.168 113.495 946.384" stroke="#592832" stroke-width="21.5495" stroke-linecap="round" stroke-linejoin="round"/>
<path d="M542.411 903.603C536.505 916.333 514.117 944.667 476.565 944.747C439.013 944.866 434.464 950.733 388.371 974.517C342.279 998.301 287.647 955.881 313.267 898.695C358.162 816.766 418.9 840.311 468.663 816.288C498.035 847.933 522.577 877.025 542.411 903.603Z" fill="#EAAC71"/>
<path d="M534.39 904.003C522.059 917.252 497.995 922.839 476.725 918.13C455.455 913.421 428.598 916.932 408.165 930.94C392.682 941.555 354.85 975.316 326.676 969.29C342.918 982.22 366.583 985.771 388.412 974.518C434.504 950.733 439.053 944.867 476.605 944.747C501.108 944.668 519.146 932.616 530.359 920.684C531.836 915.376 533.233 909.789 534.43 903.963L534.39 904.003Z" fill="#D6823C"/>
<path d="M332.502 919.047C369.176 852.124 416.426 855.596 459.645 845.978C473.053 842.985 478.241 826.544 468.903 816.487L468.703 816.288C418.94 840.351 358.202 816.806 313.307 898.695C298.502 931.737 310.514 959.831 332.143 973.08C324.521 958.674 323.204 939.838 332.502 919.047Z" fill="#F5D7BB"/>
<path d="M383.543 870.84C374.324 862.819 364.268 856.394 353.772 851.605C339.446 861.382 325.758 875.948 313.267 898.735C287.647 955.921 342.279 998.381 388.371 974.557C404.693 966.137 415.787 959.991 424.966 955.522C423.689 924.674 409.602 893.587 383.503 870.88L383.543 870.84Z" fill="#AE6745"/>
<path d="M395.316 970.926C396.473 970.327 397.59 969.728 398.668 969.17C399.186 968.89 399.745 968.611 400.264 968.332C400.583 968.172 400.863 968.013 401.142 967.853C410.839 962.745 418.382 958.674 424.966 955.482C424.527 945.106 422.612 934.691 419.339 924.594C415.468 926.39 411.717 928.505 408.165 930.939C392.682 941.555 354.85 975.316 326.676 969.29C327.554 970.008 328.472 970.646 329.39 971.325C329.55 971.444 329.709 971.564 329.869 971.684C330.707 972.283 331.585 972.801 332.463 973.32C332.742 973.48 332.982 973.639 333.221 973.799C334.059 974.278 334.897 974.717 335.775 975.156C336.094 975.315 336.453 975.515 336.773 975.675C337.571 976.074 338.409 976.433 339.247 976.792C339.646 976.952 340.045 977.151 340.444 977.311C341.242 977.63 342.08 977.909 342.878 978.229C343.357 978.388 343.796 978.548 344.275 978.708C345.073 978.947 345.871 979.186 346.669 979.386C347.188 979.506 347.707 979.665 348.226 979.785C349.024 979.984 349.782 980.144 350.58 980.304C351.139 980.423 351.698 980.503 352.256 980.583C353.015 980.703 353.813 980.822 354.571 980.902C355.17 980.982 355.768 981.022 356.407 981.062C357.165 981.142 357.923 981.182 358.681 981.222C359.32 981.222 359.998 981.222 360.637 981.262C361.355 981.262 362.113 981.262 362.832 981.262C363.51 981.262 364.228 981.182 364.907 981.142C365.625 981.102 366.304 981.062 367.022 980.982C367.74 980.902 368.498 980.783 369.217 980.703C369.895 980.623 370.574 980.503 371.252 980.384C372.01 980.264 372.808 980.064 373.566 979.905C374.205 979.745 374.844 979.625 375.522 979.466C376.36 979.266 377.198 978.987 377.996 978.747C378.595 978.548 379.193 978.388 379.792 978.189C380.71 977.869 381.668 977.51 382.585 977.111C383.064 976.912 383.583 976.752 384.062 976.553C385.459 975.954 386.895 975.276 388.292 974.557C390.128 973.599 391.844 972.722 393.56 971.844C394.118 971.564 394.677 971.245 395.196 970.966L395.316 970.926Z" fill="#924921"/>
<path d="M310.354 906.316C309.915 907.593 309.516 908.87 309.157 910.147C308.957 910.865 308.797 911.544 308.638 912.262C308.358 913.419 308.079 914.577 307.88 915.734C307.76 916.452 307.64 917.131 307.52 917.849C307.361 919.006 307.201 920.124 307.082 921.241C307.002 921.88 306.962 922.558 306.882 923.196C306.802 924.394 306.762 925.591 306.762 926.788C306.762 927.307 306.762 927.826 306.762 928.384C306.762 929.941 306.882 931.457 307.002 932.934C307.002 933.053 307.002 933.213 307.002 933.373C307.161 935.089 307.441 936.765 307.76 938.401C307.76 938.481 307.8 938.56 307.84 938.68C308.159 940.197 308.518 941.673 308.957 943.11C309.037 943.389 309.157 943.668 309.236 943.988C309.635 945.225 310.074 946.462 310.553 947.659C310.673 947.978 310.793 948.258 310.952 948.577C311.471 949.774 311.99 950.931 312.589 952.089C312.708 952.328 312.828 952.568 312.948 952.807C313.626 954.044 314.305 955.281 315.063 956.439C315.143 956.558 315.183 956.638 315.262 956.758C319.612 963.462 325.399 969.009 332.143 973.159C324.521 958.753 323.204 939.917 332.502 919.126C346.908 892.828 362.951 877.424 379.751 867.806C371.57 861.222 362.871 855.794 353.812 851.644C352.096 852.801 350.42 854.038 348.744 855.355C348.425 855.595 348.105 855.874 347.746 856.153C346.389 857.231 345.033 858.348 343.716 859.506C343.237 859.905 342.758 860.344 342.319 860.783C341.122 861.86 339.925 862.977 338.767 864.135C338.209 864.654 337.69 865.212 337.131 865.771C336.054 866.888 334.936 868.086 333.859 869.283C333.26 869.921 332.701 870.6 332.103 871.238C331.065 872.435 330.028 873.712 328.99 874.989C328.392 875.748 327.793 876.466 327.234 877.224C326.197 878.541 325.199 879.938 324.201 881.374C323.643 882.173 323.044 882.971 322.485 883.769C321.408 885.325 320.37 886.961 319.333 888.637C318.854 889.396 318.335 890.154 317.856 890.912C316.34 893.386 314.823 895.98 313.347 898.694C312.469 900.649 311.711 902.565 311.032 904.44C310.793 905.039 310.633 905.678 310.434 906.276L310.354 906.316Z" fill="#C18B71"/>
<path d="M468.663 816.288C418.9 840.351 358.162 816.806 313.267 898.695C287.647 955.881 342.279 998.341 388.371 974.517C434.464 950.733 439.013 944.866 476.565 944.747C514.117 944.627 536.505 916.293 542.411 903.603" stroke="#592832" stroke-width="21.5495" stroke-linecap="round" stroke-linejoin="round"/>
<path d="M368.617 936.446C368.617 936.446 347.187 939.199 330.786 962.545" stroke="#592832" stroke-width="17.9979" stroke-linecap="round" stroke-linejoin="round"/>
<path d="M347.666 904.6C347.666 904.6 326.237 907.354 309.835 930.699" stroke="#592832" stroke-width="17.9979" stroke-linecap="round" stroke-linejoin="round"/>
</svg>
