<svg width="1078" height="1281" viewBox="0 0 1078 1281" fill="none" xmlns="http://www.w3.org/2000/svg">
<path d="M672.705 1121.01C808.627 1112.15 826.185 987.726 773.03 839.752C719.914 691.779 760.699 582.116 874.233 569.545C987.767 556.975 1094.2 693.934 1055.17 868.445C1016.14 1043 851.287 1203.66 630.723 1211.08L672.745 1121.01H672.705Z" fill="#EAAC71"/>
<path d="M672.705 1121.01C808.627 1112.15 826.185 987.726 773.03 839.752C719.914 691.779 760.699 582.116 874.233 569.545C987.767 556.975 1094.2 693.934 1055.17 868.445C1016.14 1043 851.287 1203.66 630.723 1211.08L672.745 1121.01H672.705Z" fill="#AE6745"/>
<path d="M706.106 1121.01C842.028 1112.16 854.718 977.83 801.603 829.857C748.806 682.761 793.661 583.513 905.599 569.825C895.263 568.509 884.808 568.389 874.233 569.546C760.699 582.117 719.914 691.78 773.03 839.753C826.145 987.727 808.586 1112.16 672.705 1121.01L630.683 1211.08C642.376 1210.68 653.869 1209.85 665.242 1208.61L706.106 1121.01Z" fill="#C18B71"/>
<path d="M978.229 835.443C975.795 832.889 971.844 832.849 969.33 835.243C961.588 842.745 953.607 850.687 945.586 859.067C933.414 837.159 919.247 814.611 904.562 792.822C918.409 777.658 932.975 762.414 947.661 748.087C953.447 758.423 958.834 768.839 963.663 779.134C964.741 781.449 967.015 782.766 969.37 782.766C970.248 782.766 971.166 782.566 972.044 782.167C975.156 780.651 976.513 776.94 975.037 773.787C969.609 762.254 963.504 750.641 957.039 739.068C962.546 733.88 968.013 728.852 973.52 724.023C976.114 721.709 976.354 717.718 974.079 715.164C971.764 712.57 967.774 712.331 965.22 714.606C960.391 718.915 955.482 723.345 950.614 727.934C936.208 703.392 920.205 679.488 904.681 657.779C910.069 652.471 915.616 647.243 921.203 642.095C923.757 639.781 923.916 635.79 921.602 633.196C919.207 630.602 915.257 630.483 912.703 632.837C907.475 637.666 902.287 642.574 897.179 647.483C887.442 634.234 878.024 621.943 869.444 611.088C867.289 608.374 863.378 607.895 860.624 610.09C857.911 612.245 857.472 616.156 859.627 618.91C868.446 630.083 878.144 642.734 888.2 656.462C871.439 673.222 855.716 690.342 841.709 706.385C817.166 674.779 799.208 653.668 798.729 653.11C796.495 650.476 792.504 650.157 789.91 652.431C787.276 654.706 786.957 658.617 789.192 661.25C789.671 661.809 808.227 683.598 833.328 716.082C816.408 735.956 802.481 753.554 792.943 766.005C784.762 755.949 779.734 750.122 779.494 749.883C777.22 747.249 773.269 746.93 770.635 749.205C768.041 751.479 767.722 755.43 769.997 758.024C770.236 758.303 775.943 764.968 785.161 776.301C781.131 781.688 778.896 784.841 778.816 785.001C776.781 787.834 777.459 791.745 780.293 793.74C781.41 794.538 782.647 794.898 783.924 794.898C785.88 794.898 787.835 793.98 789.032 792.264C789.112 792.144 790.589 790.069 793.262 786.437C805.913 802.36 822.514 823.91 839.993 848.492C824.549 867.288 811.899 883.53 803.319 894.664C800.405 890.633 797.532 886.762 794.739 883.051C792.664 880.337 788.713 879.779 785.919 881.894C783.166 884.009 782.647 887.96 784.762 890.713C788.194 895.183 791.746 900.051 795.377 905.119C792.783 908.591 791.347 910.547 791.227 910.706C789.152 913.46 789.75 917.411 792.584 919.486C793.701 920.284 794.978 920.723 796.255 920.723C798.211 920.723 800.126 919.805 801.363 918.129C801.443 918.049 801.962 917.251 802.96 915.974C815.61 934.531 828.859 955.681 841.35 977.35C828.38 993.073 816.807 1007.4 807.469 1019.13C806.471 1017.86 805.793 1017.06 805.633 1016.86C803.438 1014.18 799.448 1013.82 796.814 1016.02C794.14 1018.21 793.741 1022.17 795.936 1024.84C796.016 1024.92 797.333 1026.52 799.408 1029.27C788.873 1042.56 782.607 1050.7 782.368 1051.06C780.253 1053.81 780.771 1057.76 783.485 1059.88C784.642 1060.75 785.999 1061.19 787.316 1061.19C789.192 1061.19 791.067 1060.32 792.305 1058.72C792.504 1058.4 797.931 1051.42 807.03 1039.88C814.652 1051.1 823.671 1066.54 825.467 1078.75C825.946 1081.87 828.58 1084.14 831.652 1084.14C831.972 1084.14 832.251 1084.14 832.57 1084.06C836.002 1083.58 838.357 1080.39 837.878 1076.96C835.563 1061.11 823.831 1042 815.171 1029.67C824.15 1018.37 835.364 1004.49 847.974 989.123C858.709 1008.28 868.726 1027.43 877.066 1045.19C878.144 1047.51 880.418 1048.82 882.733 1048.82C883.651 1048.82 884.529 1048.62 885.446 1048.22C888.559 1046.71 889.916 1043 888.439 1039.84C879.341 1020.53 868.326 999.538 856.514 978.747C868.406 964.381 881.336 949.096 894.784 933.613C902.207 946.702 909.111 959.831 915.217 972.801C916.294 975.115 918.529 976.432 920.923 976.432C921.801 976.432 922.719 976.233 923.557 975.834C926.71 974.317 928.067 970.606 926.55 967.453C919.726 952.967 911.904 938.242 903.524 923.636C916.374 908.99 929.583 894.305 942.672 880.377C945.266 885.406 947.74 890.394 950.015 895.302C951.093 897.577 953.367 898.934 955.682 898.934C956.6 898.934 957.478 898.734 958.395 898.335C961.508 896.859 962.865 893.108 961.388 889.995C958.395 883.69 955.203 877.265 951.771 870.76C960.71 861.462 969.49 852.602 977.99 844.382C980.464 841.947 980.544 837.957 978.149 835.522L978.229 835.443ZM895.623 666.758C911.186 688.507 927.069 712.411 941.276 736.833C926.311 751.32 911.505 766.723 897.338 782.167C881.017 758.423 864.376 735.916 849.531 716.521C863.378 700.558 878.942 683.518 895.623 666.718V666.758ZM801.084 776.062C810.183 764.09 824.07 746.451 841.19 726.258C855.995 745.693 872.557 768.16 888.679 791.745C874.193 807.827 860.545 823.75 848.293 838.475C830.455 813.494 813.615 791.745 801.084 776.062ZM849.929 967.054C837.159 945.186 823.751 923.875 810.981 905.399C819.002 894.863 831.732 878.502 847.535 859.147C861.263 878.941 875.31 900.331 888.16 922.08C874.791 937.444 861.822 952.688 849.89 967.054H849.929ZM896.86 912.143C883.81 890.234 869.604 868.804 855.796 849.091C867.927 834.485 881.456 818.562 895.902 802.48C910.548 824.309 924.595 846.816 936.487 868.605C923.278 882.612 909.909 897.338 896.86 912.143Z" fill="#924921"/>
<path d="M820.399 893.186C819.202 888.078 817.965 882.89 816.568 877.702C811.5 884.127 807.07 889.914 803.359 894.662C800.446 890.632 797.572 886.761 794.779 883.05C792.784 880.456 789.072 879.857 786.359 881.653C787.915 887.359 789.352 892.986 790.669 898.533C792.225 900.728 793.821 902.883 795.418 905.158C794.38 906.555 793.542 907.632 792.903 908.55C793.781 912.62 794.579 916.651 795.258 920.681C795.617 920.761 795.976 920.761 796.295 920.761C798.251 920.761 800.166 919.843 801.403 918.167C801.483 918.088 802.002 917.289 803 916.012C811.939 929.102 821.117 943.508 830.176 958.473C829.657 949.255 828.7 939.797 827.343 930.099C821.836 921.52 816.368 913.179 810.981 905.437C813.615 901.965 816.807 897.855 820.399 893.186Z" fill="#A66A49"/>
<path d="M788.195 659.614C789.073 656.9 790.07 654.226 791.108 651.632C790.669 651.832 790.23 652.111 789.871 652.431C787.756 654.266 787.157 657.139 788.195 659.614Z" fill="#A66A49"/>
<path d="M830.255 990.917C821.755 1001.33 814.053 1010.87 807.509 1019.13C806.511 1017.85 805.833 1017.06 805.673 1016.86C803.718 1014.46 800.326 1013.94 797.772 1015.42C797.173 1018.53 796.574 1021.61 795.856 1024.64C795.856 1024.72 795.936 1024.8 795.976 1024.84C796.016 1024.88 797.372 1026.51 799.448 1029.27C796.534 1032.98 793.941 1036.25 791.706 1039.08C789.271 1046.19 786.358 1052.93 782.926 1059.28C783.126 1059.48 783.285 1059.68 783.525 1059.88C784.682 1060.75 786.039 1061.19 787.356 1061.19C789.231 1061.19 791.107 1060.31 792.344 1058.72C792.544 1058.4 797.971 1051.42 807.07 1039.88C809.863 1043.99 812.856 1048.66 815.57 1053.49C817.765 1048.82 819.72 1043.95 821.396 1038.85C819.281 1035.49 817.206 1032.38 815.211 1029.59C818.962 1024.88 823.112 1019.69 827.542 1014.18C828.859 1006.68 829.737 998.939 830.255 990.917Z" fill="#A66A49"/>
<path d="M785.161 776.3C781.131 781.688 778.896 784.841 778.816 785C776.781 787.833 777.459 791.744 780.293 793.74C781.41 794.538 782.647 794.897 783.924 794.897C785.88 794.897 787.835 793.979 789.032 792.263C789.032 792.183 789.272 791.904 789.671 791.345C786.279 778.016 783.725 765.167 782.049 752.835C780.492 751 779.614 749.962 779.494 749.842C777.22 747.209 773.269 746.889 770.635 749.164C768.041 751.439 767.722 755.389 769.997 757.983C770.236 758.263 775.943 764.927 785.161 776.261V776.3Z" fill="#A66A49"/>
<path d="M874.273 569.545C867.05 570.343 860.984 572.658 854.36 574.214C958.236 575.132 1050.38 701.556 1014.34 862.619C978.868 1021.37 835.125 1166.59 640.78 1189.61L630.723 1211.12C851.327 1203.66 1016.18 1043.04 1055.21 868.485C1094.24 693.934 987.807 556.975 874.273 569.545Z" fill="#924921"/>
<path d="M874.273 569.545C867.05 570.343 861.502 571.74 854.878 573.296C958.515 567.829 1050.38 701.556 1014.38 862.619C978.908 1021.37 835.164 1166.59 640.819 1189.61L630.763 1211.12C851.366 1203.66 1016.22 1043.04 1055.25 868.485C1094.28 693.934 987.847 556.975 874.313 569.545H874.273Z" stroke="#592832" stroke-width="21.5495" stroke-linecap="round" stroke-linejoin="round"/>
<path d="M672.705 1121.01C808.627 1112.15 826.185 987.726 773.03 839.752C719.914 691.779 760.699 582.116 874.233 569.545C987.767 556.975 1094.2 693.934 1055.17 868.445C1016.14 1043 851.287 1203.66 630.723 1211.08L672.745 1121.01H672.705Z" stroke="#592832" stroke-width="21.5495" stroke-linecap="round" stroke-linejoin="round"/>
<path d="M609.173 686.872C545.881 720.473 463.554 740.746 373.485 740.746C315.501 740.746 260.709 732.326 212.143 717.361C220.843 756.469 227.826 821.197 201.448 883.851C159.746 982.899 91.9446 1199.27 396.95 1199.27C588.981 1199.27 735.797 1012.47 688.468 868.207C665.841 810.343 610.171 759.821 609.173 686.872Z" fill="#EAAC71"/>
<path d="M225.312 883.851C250.174 824.829 245.385 763.972 237.484 724.424C228.864 722.269 220.404 719.915 212.143 717.361C220.843 756.469 227.826 821.198 201.448 883.851C159.746 982.899 91.9446 1199.27 396.95 1199.27C400.183 1199.27 403.375 1199.19 406.568 1199.11C117.964 1192.41 184.248 981.343 225.312 883.851Z" fill="#F5D7BB"/>
<path d="M569.746 1144.56C514.794 1099.31 473.531 1026 465.031 936.448C450.944 787.996 256.719 767.364 211.545 854.241C208.911 864.098 205.598 873.994 201.448 883.851C159.746 982.899 91.9446 1199.27 396.95 1199.27C461.559 1199.27 521.02 1178.12 569.706 1144.56H569.746Z" fill="#FFE5C0"/>
<path d="M467.026 1190.85C471.376 1189.81 475.646 1188.62 479.916 1187.38C481.113 1187.02 482.311 1186.66 483.508 1186.3C486.581 1185.38 489.613 1184.39 492.607 1183.39C493.963 1182.91 495.36 1182.43 496.717 1181.95C499.67 1180.91 502.583 1179.8 505.496 1178.68C506.694 1178.2 507.891 1177.76 509.088 1177.28C517.149 1174.01 525.011 1170.42 532.713 1166.55C533.87 1165.95 535.027 1165.35 536.145 1164.75C538.858 1163.36 541.532 1161.92 544.166 1160.44C545.443 1159.72 546.72 1159.01 547.997 1158.25C550.591 1156.73 553.185 1155.21 555.699 1153.66C556.816 1152.98 557.973 1152.3 559.051 1151.58C562.642 1149.31 566.194 1146.99 569.666 1144.6C566.513 1142.01 563.401 1139.29 560.368 1136.5C559.49 1135.7 558.612 1134.82 557.734 1133.98C555.579 1131.95 553.384 1129.91 551.269 1127.8C550.311 1126.84 549.354 1125.84 548.396 1124.85C546.401 1122.77 544.405 1120.66 542.45 1118.5C541.492 1117.46 540.574 1116.39 539.656 1115.35C537.741 1113.15 535.825 1110.96 533.95 1108.68C504.379 1072.85 481.792 1027.27 470.778 974.717C453.937 999.419 426.521 1053.21 442.324 1125.72C444.599 1136.14 437.815 1146.44 427.399 1148.79C335.455 1169.7 239.998 1152.9 173.753 1091.72L172.795 1091.56C193.188 1152.02 254.325 1199.31 396.871 1199.31C421.054 1199.31 444.479 1196.36 466.907 1190.89L467.026 1190.85Z" fill="#DBAB7A"/>
<path d="M225.312 883.851C234.052 863.1 239.08 842.149 241.634 821.956C228.904 830.137 218.448 840.912 211.545 854.24C210.946 856.555 210.267 858.83 209.589 861.144C209.429 861.703 209.23 862.302 209.07 862.86C208.552 864.536 207.993 866.252 207.434 867.928C207.195 868.647 206.955 869.405 206.676 870.123C206.117 871.759 205.519 873.356 204.92 874.992C204.681 875.67 204.401 876.349 204.162 877.027C203.284 879.302 202.406 881.537 201.448 883.811C159.746 982.859 91.9446 1199.23 396.95 1199.23C399.983 1199.23 402.976 1199.15 406.009 1199.03C118.083 1192.09 184.288 981.223 225.312 883.811V883.851Z" fill="#FFF7EC"/>
<path d="M688.467 868.206C669.991 820.957 629.525 778.656 614.72 725.021C613.962 722.268 613.283 719.474 612.685 716.641C612.565 716.162 612.485 715.723 612.366 715.244C611.767 712.371 611.208 709.458 610.769 706.505C610.769 706.465 610.769 706.385 610.769 706.345C610.37 703.592 610.051 700.798 609.812 697.965C609.732 697.246 609.692 696.528 609.652 695.81C609.412 692.897 609.253 689.944 609.213 686.911C545.921 720.512 463.594 740.784 373.525 740.784C315.541 740.784 260.749 732.364 212.183 717.399C212.582 719.235 212.981 721.15 213.38 723.066C213.5 723.625 213.619 724.183 213.739 724.782C214.058 726.338 214.338 727.895 214.657 729.491C214.737 730.01 214.856 730.528 214.936 731.087C215.295 733.122 215.655 735.237 216.014 737.353C216.094 737.871 216.173 738.43 216.253 738.949C216.493 740.385 216.692 741.862 216.892 743.378C275.554 772.59 369.175 784.761 473.251 772.71C484.944 770.674 496.397 768.32 507.571 765.606C534.707 759.022 562.682 772.63 573.936 798.25C592.293 840.112 622.901 876.028 638.265 915.336C662.169 988.165 636.549 1071.81 580.64 1136.82C669.871 1069.69 718.756 960.31 688.547 868.246L688.467 868.206Z" fill="#D6823C"/>
<path d="M609.173 686.872C545.881 720.473 463.554 740.746 373.485 740.746C315.501 740.746 260.709 732.326 212.143 717.361C220.843 756.469 227.826 821.197 201.448 883.851C159.746 982.899 91.9446 1199.27 396.95 1199.27C588.981 1199.27 735.797 1012.47 688.468 868.207C665.841 810.343 610.171 759.821 609.173 686.872Z" stroke="#592832" stroke-width="21.5495" stroke-linecap="round" stroke-linejoin="round"/>
<path d="M665.921 823.551C675.618 836.001 716.882 888.279 732.645 914.538C774.347 984.055 782.448 1083.7 726.858 1161.32C671.228 1238.94 558.852 1241.25 508.45 1177.52C433.824 1083.22 462.118 998.261 482.51 959.632C571.702 947.5 616.796 882.732 665.921 823.511V823.551Z" fill="#EAAC71"/>
<path d="M510.245 1141.97C469.661 1063.63 482.55 1000.74 503.062 959.394C507.372 950.734 500.508 940.837 490.851 941.316H490.612C467.027 978.07 431.709 1060.4 498.114 1160.6C531.077 1210.33 600.235 1227.33 659.217 1204.18C599.916 1217.51 536.703 1193.05 510.245 1141.97Z" fill="#F5D7BB"/>
<path d="M732.645 914.539C716.882 888.28 675.618 836.003 665.921 823.552C650.677 841.909 635.831 860.824 619.949 878.503C625.615 886.564 630.683 894.067 634.315 900.132C676.017 969.65 684.118 1069.3 628.528 1146.91C605.862 1178.56 573.697 1197.72 540.175 1204.94C596.683 1238.06 681.006 1225.29 726.858 1161.32C782.488 1083.7 774.347 984.056 732.645 914.539Z" fill="#D6823C"/>
<path d="M496.318 937.724C496.318 937.724 406.688 1048.98 508.45 1177.56C558.892 1241.29 671.269 1238.98 726.859 1161.36C782.488 1083.74 774.347 984.095 732.645 914.578C690.943 845.061 669.952 836.72 649.639 798.131" stroke="#592832" stroke-width="21.5495" stroke-linecap="round" stroke-linejoin="round"/>
<path d="M687.471 1267.91H411.717C411.717 1267.91 418.62 1196.08 508.41 1177.52C598.24 1158.97 692.259 1212.28 697.368 1235.47C702.476 1258.65 687.431 1267.91 687.431 1267.91H687.471Z" fill="#AE6745"/>
<path d="M687.471 1267.91H411.717C411.717 1267.91 418.62 1196.08 508.41 1177.52C598.24 1158.97 692.259 1212.28 697.368 1235.47C702.476 1258.65 687.431 1267.91 687.431 1267.91H687.471Z" fill="#AE6745"/>
<path d="M520.741 1191.65C592.413 1176.84 666.679 1207.77 696.41 1232.67C685.036 1208.33 594.848 1159.72 508.45 1177.56C418.62 1196.12 411.756 1267.95 411.756 1267.95H427.32C434.383 1246.04 456.053 1205.06 520.741 1191.69V1191.65Z" fill="#C18B71"/>
<path d="M697.407 1235.47C695.691 1227.73 684.039 1216.63 666.001 1205.98C663.008 1206.3 660.015 1206.65 657.022 1207.05C622.902 1211.8 600.794 1221.7 586.427 1232.16C573.777 1241.37 558.572 1246.32 542.929 1246.32H417.702C412.594 1258.81 411.677 1267.87 411.677 1267.87H687.431C687.431 1267.87 702.475 1258.61 697.367 1235.43L697.407 1235.47Z" fill="#924921"/>
<path d="M687.471 1267.91H411.717C411.717 1267.91 418.62 1196.08 508.41 1177.52C598.24 1158.97 692.259 1212.28 697.368 1235.47C702.476 1258.65 687.431 1267.91 687.431 1267.91H687.471Z" stroke="#592832" stroke-width="21.5495" stroke-linecap="round" stroke-linejoin="round"/>
<path d="M511.083 1267.91C511.083 1267.91 523.774 1228.08 555.1 1217.99" stroke="#592832" stroke-width="21.5495" stroke-linecap="round" stroke-linejoin="round"/>
<path d="M450.186 1267.91C450.186 1267.91 462.876 1228.08 494.203 1217.99" stroke="#592832" stroke-width="21.5495" stroke-linecap="round" stroke-linejoin="round"/>
<path d="M312.109 1192.33C310.513 1192.05 308.917 1191.73 307.36 1191.41C305.525 1191.05 303.689 1190.65 301.853 1190.25C300.337 1189.93 298.781 1189.57 297.304 1189.25C295.548 1188.86 293.792 1188.42 292.076 1187.98C290.6 1187.62 289.123 1187.26 287.687 1186.86C286.01 1186.42 284.334 1185.94 282.698 1185.46C281.301 1185.06 279.865 1184.67 278.508 1184.23C276.872 1183.75 275.316 1183.23 273.719 1182.71C272.402 1182.27 271.046 1181.83 269.729 1181.39C268.172 1180.83 266.656 1180.28 265.139 1179.72C263.902 1179.24 262.625 1178.8 261.388 1178.32C259.872 1177.72 258.395 1177.08 256.919 1176.48C255.761 1176.01 254.604 1175.53 253.487 1175.05C251.89 1174.37 250.374 1173.61 248.818 1172.89C247.86 1172.45 246.902 1172.01 245.944 1171.58C243.55 1170.42 241.235 1169.22 239.001 1167.98C237.963 1167.43 236.965 1166.83 235.928 1166.23C234.691 1165.51 233.454 1164.83 232.256 1164.11C231.179 1163.47 230.141 1162.8 229.104 1162.12C228.026 1161.44 226.949 1160.76 225.951 1160.08C224.914 1159.36 223.876 1158.65 222.878 1157.93C221.921 1157.25 220.923 1156.57 220.005 1155.89C219.007 1155.13 218.01 1154.38 217.052 1153.62C216.174 1152.94 215.256 1152.22 214.378 1151.5C213.42 1150.7 212.503 1149.91 211.545 1149.11C210.707 1148.39 209.909 1147.71 209.111 1146.95C208.193 1146.12 207.315 1145.28 206.437 1144.44C205.679 1143.72 204.92 1143 204.202 1142.28C203.324 1141.41 202.486 1140.53 201.648 1139.65C200.97 1138.93 200.291 1138.17 199.613 1137.46C198.815 1136.54 197.977 1135.66 197.218 1134.74C196.58 1134.02 195.981 1133.27 195.383 1132.55C194.624 1131.59 193.866 1130.63 193.108 1129.67C192.549 1128.96 191.991 1128.2 191.472 1127.48C190.754 1126.48 190.035 1125.48 189.317 1124.49C188.838 1123.77 188.359 1123.05 187.88 1122.29C187.202 1121.25 186.484 1120.22 185.845 1119.14C185.406 1118.46 185.007 1117.74 184.608 1117.02C183.93 1115.91 183.291 1114.83 182.652 1113.67C182.293 1113.03 181.974 1112.43 181.655 1111.8C181.016 1110.56 180.338 1109.36 179.739 1108.12C179.54 1107.73 179.38 1107.33 179.181 1106.93C176.746 1101.86 174.631 1096.71 172.836 1091.4C152.164 1030.19 173.235 955.482 193.786 902.566C108.426 951.491 72.8297 1142.64 234.451 1192.17C269.369 1201.27 296.426 1200.03 317.417 1193.13C315.621 1192.85 313.825 1192.53 312.069 1192.21L312.109 1192.33Z" fill="#EAAC71"/>
<path d="M184.568 928.225C187.441 919.645 190.434 911.464 193.427 903.682C192.27 903.363 191.073 903.004 189.916 902.685C104.556 951.61 68.9589 1142.76 230.58 1192.29C253.287 1198.19 272.682 1199.75 289.243 1198.23C278.867 1197.35 267.654 1195.48 255.482 1192.29C114.772 1149.15 123.591 998.66 184.568 928.185V928.225Z" fill="#F5D7BB"/>
<path d="M312.109 1192.33C310.513 1192.05 308.917 1191.73 307.36 1191.41C305.525 1191.05 303.689 1190.65 301.853 1190.25C300.337 1189.93 298.781 1189.57 297.304 1189.25C295.548 1188.86 293.792 1188.42 292.076 1187.98C290.6 1187.62 289.123 1187.26 287.687 1186.86C286.01 1186.42 284.334 1185.94 282.698 1185.46C281.301 1185.06 279.865 1184.67 278.508 1184.23C276.872 1183.75 275.316 1183.23 273.719 1182.71C272.402 1182.27 271.046 1181.83 269.729 1181.39C268.172 1180.83 266.656 1180.28 265.139 1179.72C263.902 1179.24 262.625 1178.8 261.388 1178.32C259.872 1177.72 258.395 1177.08 256.919 1176.48C255.761 1176.01 254.604 1175.53 253.487 1175.05C251.89 1174.37 250.374 1173.61 248.818 1172.89C247.86 1172.45 246.902 1172.01 245.944 1171.58C243.55 1170.42 241.235 1169.22 239.001 1167.98C237.963 1167.43 236.965 1166.83 235.928 1166.23C234.691 1165.51 233.454 1164.83 232.256 1164.11C231.179 1163.47 230.141 1162.8 229.104 1162.12C228.026 1161.44 226.949 1160.76 225.951 1160.08C224.914 1159.36 223.876 1158.65 222.878 1157.93C221.921 1157.25 220.923 1156.57 220.005 1155.89C219.007 1155.13 218.01 1154.38 217.052 1153.62C216.174 1152.94 215.256 1152.22 214.378 1151.5C213.42 1150.7 212.503 1149.91 211.545 1149.11C210.707 1148.39 209.909 1147.71 209.111 1146.95C208.193 1146.12 207.315 1145.28 206.437 1144.44C205.679 1143.72 204.92 1143 204.202 1142.28C203.324 1141.41 202.486 1140.53 201.648 1139.65C200.97 1138.93 200.291 1138.17 199.613 1137.46C198.815 1136.54 197.977 1135.66 197.218 1134.74C196.58 1134.02 195.981 1133.27 195.383 1132.55C194.624 1131.59 193.866 1130.63 193.108 1129.67C192.549 1128.96 191.991 1128.2 191.472 1127.48C190.754 1126.48 190.035 1125.48 189.317 1124.49C188.838 1123.77 188.359 1123.05 187.88 1122.29C187.202 1121.25 186.484 1120.22 185.845 1119.14C185.406 1118.46 185.007 1117.74 184.608 1117.02C183.93 1115.91 183.291 1114.83 182.652 1113.67C182.293 1113.03 181.974 1112.43 181.655 1111.8C181.016 1110.56 180.338 1109.36 179.739 1108.12C179.54 1107.73 179.38 1107.33 179.181 1106.93C176.746 1101.86 174.631 1096.71 172.836 1091.4C152.164 1030.19 173.235 955.482 193.786 902.566C108.426 951.491 72.8297 1142.64 234.451 1192.17C269.369 1201.27 296.426 1200.03 317.417 1193.13C315.621 1192.85 313.825 1192.53 312.069 1192.21L312.109 1192.33Z" stroke="#592832" stroke-width="21.5495" stroke-linecap="round" stroke-linejoin="round"/>
<path d="M362.671 1267.91H86.9165C86.9165 1267.91 93.8204 1196.08 183.61 1177.52C273.44 1158.96 367.459 1212.28 372.567 1235.47C377.676 1258.65 362.631 1267.91 362.631 1267.91H362.671Z" fill="#AE6745"/>
<path d="M362.671 1267.91H86.9165C86.9165 1267.91 93.8204 1196.08 183.61 1177.52C273.44 1158.96 367.459 1212.28 372.567 1235.47C377.676 1258.65 362.631 1267.91 362.631 1267.91H362.671Z" fill="#AE6745"/>
<path d="M195.901 1191.65C267.573 1176.84 341.839 1207.77 371.57 1232.67C360.196 1208.33 270.008 1159.72 183.61 1177.56C93.7805 1196.12 86.9165 1267.95 86.9165 1267.95H102.48C109.543 1246.04 131.213 1205.06 195.901 1191.69V1191.65Z" fill="#C18B71"/>
<path d="M372.608 1235.47C370.892 1227.72 359.239 1216.63 341.201 1205.97C338.208 1206.29 335.215 1206.65 332.222 1207.05C298.102 1211.8 275.994 1221.7 261.627 1232.15C248.977 1241.37 233.773 1246.32 218.129 1246.32H92.9026C87.7946 1258.81 86.8767 1267.87 86.8767 1267.87H362.631C362.631 1267.87 377.676 1258.61 372.568 1235.43L372.608 1235.47Z" fill="#924921"/>
<path d="M186.283 1267.91C186.283 1267.91 198.974 1228.08 230.3 1217.99" stroke="#592832" stroke-width="21.5495" stroke-linecap="round" stroke-linejoin="round"/>
<path d="M125.386 1267.91C125.386 1267.91 138.076 1228.08 169.403 1217.99" stroke="#592832" stroke-width="21.5495" stroke-linecap="round" stroke-linejoin="round"/>
<path d="M314.543 1192.77C313.745 1192.61 312.907 1192.49 312.109 1192.33C310.513 1192.05 308.917 1191.73 307.36 1191.41C305.525 1191.05 303.689 1190.65 301.853 1190.25C300.337 1189.93 298.78 1189.57 297.304 1189.25C295.548 1188.86 293.792 1188.42 292.076 1187.98C290.6 1187.62 289.123 1187.26 287.686 1186.86C286.01 1186.42 284.334 1185.94 282.698 1185.46C281.301 1185.06 279.865 1184.67 278.508 1184.23C276.872 1183.75 275.315 1183.23 273.719 1182.71C272.402 1182.27 271.045 1181.83 269.728 1181.39C268.172 1180.83 266.656 1180.28 265.139 1179.72C263.902 1179.24 262.625 1178.8 261.388 1178.32C259.871 1177.72 258.395 1177.08 256.918 1176.48C256.839 1176.48 256.799 1176.44 256.719 1176.4C233.334 1172.77 208.312 1172.41 183.61 1177.48C93.7805 1196.04 86.9165 1267.87 86.9165 1267.87H362.671C362.671 1267.87 377.715 1258.61 372.607 1235.43C370.173 1224.37 347.387 1206.41 314.543 1192.73V1192.77Z" stroke="#592832" stroke-width="21.5495" stroke-linecap="round" stroke-linejoin="round"/>
<path d="M300.616 136.361C220.962 166.291 116.008 69.4377 42.1409 136.361C-10.5357 184.049 48.3264 269.529 112.057 286.649L300.616 136.361Z" fill="#EAAC71"/>
<path d="M32.4044 162.42C97.2525 103.717 186.005 171.08 260.59 168.246L300.616 136.361C220.963 166.291 116.009 69.4377 42.1416 136.361C29.9701 147.375 23.8245 160.385 22.2283 174.113C25.0217 170.042 28.3339 166.091 32.4044 162.42Z" fill="#F5D7BB"/>
<path d="M300.616 136.361C220.962 166.291 116.008 69.4377 42.1409 136.361C-10.5357 184.049 48.3264 269.529 112.057 286.649L300.616 136.361Z" stroke="#592832" stroke-width="21.5495" stroke-linecap="round" stroke-linejoin="round"/>
<path d="M41.3436 235.489C58.4635 259.513 84.8018 279.306 112.058 286.649L187.641 226.43C92.6634 101.163 15.8433 196.54 41.3835 235.529L41.3436 235.489Z" fill="#EE857B"/>
<path d="M72.8293 221.122C62.4935 205.319 68.9585 180.258 86.5971 164.375C47.1695 169.244 26.1785 212.303 41.343 235.488C58.4629 259.512 84.8013 279.306 112.057 286.649L133.966 269.17C110.222 260.23 87.9539 242.312 72.8293 221.122Z" fill="#FFBAB0"/>
<path d="M41.3436 235.489C58.4635 259.513 84.8018 279.306 112.058 286.649L187.641 226.43C92.6634 101.163 15.8433 196.54 41.3835 235.529L41.3436 235.489Z" stroke="#592832" stroke-width="21.5495" stroke-linecap="round" stroke-linejoin="round"/>
<path d="M726.1 136.361C669.951 99.9658 599.636 145.978 550.83 157.99C499.829 125.706 441.805 106.431 380.27 106.431C176.906 106.431 12.012 334.137 12.012 513.717C12.012 639.103 176.866 740.785 380.27 740.785C583.673 740.785 748.527 639.143 748.527 513.717C748.527 448.15 730.29 381.147 698.484 320.928C791.427 275.994 801.643 185.326 726.1 136.361Z" fill="#EAAC71"/>
<path d="M729.851 138.956C744.537 183.611 721.471 235.729 660.214 269.091C695.412 328.592 717.201 395.635 720.393 462.119C726.539 589.262 564.319 700.401 358.122 710.378C258.515 715.207 166.85 695.493 98.0107 659.537C165.573 709.221 266.935 740.787 380.27 740.787C583.633 740.787 748.527 639.145 748.527 513.718C748.527 448.152 730.29 381.149 698.484 320.93C789.831 276.753 801.204 188.44 729.851 138.956Z" fill="#D6823C"/>
<path d="M726.1 136.362C669.951 99.9673 599.636 145.98 550.83 157.991C542.25 152.564 533.471 147.536 524.532 142.867L521.02 149.571C559.969 182.733 587.544 178.743 630.803 158.829C680.806 135.803 765.448 151.566 776.143 222.361C777.579 190.515 761.018 158.989 726.1 136.362Z" fill="#F5D7BB"/>
<path d="M42.7001 513.717C42.7001 338.647 199.453 117.804 395.793 106.91C390.645 106.63 385.457 106.431 380.27 106.431C176.906 106.431 12.012 334.137 12.012 513.717C12.012 639.103 176.866 740.785 380.27 740.785C385.417 740.785 390.525 740.705 395.594 740.586C199.333 735.637 42.7001 635.99 42.7001 513.757V513.717Z" fill="#F5D7BB"/>
<path d="M323.602 199.453C289.203 164.295 255.881 151.924 228.505 149.57C204.761 163.457 182.333 180.218 161.582 199.174C177.824 240.357 249.536 264.98 323.562 199.453H323.602Z" fill="#D6823C"/>
<path d="M726.1 136.361C669.951 99.9658 599.636 145.978 550.83 157.99C499.829 125.706 441.805 106.431 380.27 106.431C176.906 106.431 12.012 334.137 12.012 513.717C12.012 639.103 176.866 740.785 380.27 740.785C583.673 740.785 748.527 639.143 748.527 513.717C748.527 448.15 730.29 381.147 698.484 320.928C791.427 275.994 801.643 185.326 726.1 136.361V136.361Z" stroke="#592832" stroke-width="21.5495" stroke-linecap="round" stroke-linejoin="round"/>
<path d="M775.823 209.829C783.924 240.916 754.473 293.473 699.561 320.45C679.289 284.733 655.066 250.693 625.136 219.087C625.136 219.087 753.675 125.187 775.823 209.868V209.829Z" fill="white"/>
<path d="M775.823 209.829C783.924 240.916 754.473 293.473 699.561 320.45C679.289 284.733 655.066 250.693 625.136 219.087C625.136 219.087 753.675 125.187 775.823 209.868V209.829Z" fill="#EE857B"/>
<path d="M775.823 209.829C769.238 184.647 753.236 175.269 734.001 174.511C739.747 180.338 744.137 188.479 746.571 199.652C752.597 227.188 729.053 270.087 685.395 296.905C690.303 304.686 695.052 312.508 699.562 320.449C754.473 293.513 783.924 240.916 775.823 209.829Z" fill="#FFBAB0"/>
<path d="M775.823 209.829C783.924 240.916 754.473 293.473 699.561 320.45C679.289 284.733 655.066 250.693 625.136 219.087C625.136 219.087 753.675 125.187 775.823 209.868V209.829Z" stroke="#592832" stroke-width="21.5495" stroke-linecap="round" stroke-linejoin="round"/>
<path d="M503.781 133.009C491.689 127.861 476.485 122.155 458.447 116.887C302.013 79.3348 243.949 -32.3636 213.86 29.6113C183.77 91.5861 265.778 130.734 265.778 130.734C265.778 130.734 196.101 136.72 197.897 178.343C199.733 220.045 293.513 231.459 341.321 186.324C406.369 181.735 463.395 167.488 503.781 133.009Z" fill="#EAAC71"/>
<path d="M462.677 141.31C516.191 147.854 528.163 152.483 536.384 155.516C546.161 149.969 495.36 140.192 503.82 133.009C491.729 127.861 476.524 122.154 458.486 116.887C302.053 79.3348 243.989 -32.3237 213.899 29.6112C210.427 36.6747 208.512 43.4588 207.674 49.9236C238.721 1.3973 297.863 111.819 462.717 141.31H462.677Z" fill="#F5D7BB"/>
<path d="M262.226 131.174C253.606 132.331 231.059 136.242 215.096 147.257C242.113 158.79 289.043 163.858 313.865 140.712C293.393 139.874 276.153 136.721 262.226 131.134V131.174Z" fill="#D6823C"/>
<path d="M537.142 149.69C537.142 149.69 508.849 131.572 458.447 116.887C302.013 79.3348 243.949 -32.3636 213.86 29.6113C183.77 91.5861 265.778 130.734 265.778 130.734C265.778 130.734 196.101 136.72 197.897 178.343C199.733 220.045 293.513 231.459 341.321 186.324" stroke="#592832" stroke-width="21.5495" stroke-linecap="round" stroke-linejoin="round"/>
<path d="M318.334 135.843C318.334 135.843 263.742 141.79 239.24 113.256" stroke="#592832" stroke-width="21.5495" stroke-linecap="round" stroke-linejoin="round"/>
<path d="M116.008 511.563C141.133 511.563 161.502 487.174 161.502 457.09C161.502 427.006 141.133 402.618 116.008 402.618C90.8827 402.618 70.5146 427.006 70.5146 457.09C70.5146 487.174 90.8827 511.563 116.008 511.563Z" fill="#592832"/>
<path d="M130.654 459.286C137.266 459.286 142.626 453.461 142.626 446.276C142.626 439.091 137.266 433.267 130.654 433.267C124.042 433.267 118.682 439.091 118.682 446.276C118.682 453.461 124.042 459.286 130.654 459.286Z" fill="white"/>
<path d="M468.942 540.775C504.691 540.775 533.67 511.795 533.67 476.046C533.67 440.298 504.691 411.318 468.942 411.318C433.194 411.318 404.214 440.298 404.214 476.046C404.214 511.795 433.194 540.775 468.942 540.775Z" fill="#592832"/>
<path d="M443.521 478.121C452.315 478.121 459.444 470.992 459.444 462.198C459.444 453.404 452.315 446.275 443.521 446.275C434.727 446.275 427.598 453.404 427.598 462.198C427.598 470.992 434.727 478.121 443.521 478.121Z" fill="white"/>
<path d="M301.494 573.059C329.683 573.059 352.534 552.709 352.534 527.605C352.534 502.502 329.683 482.152 301.494 482.152C273.305 482.152 250.454 502.502 250.454 527.605C250.454 552.709 273.305 573.059 301.494 573.059Z" fill="#FFE5C0"/>
<path d="M221.681 565.715C242.817 565.715 259.951 547.67 259.951 525.41C259.951 503.149 242.817 485.104 221.681 485.104C200.545 485.104 183.41 503.149 183.41 525.41C183.41 547.67 200.545 565.715 221.681 565.715Z" fill="#FFE5C0"/>
<path d="M253.447 545.085C222.479 546.282 203.164 492.687 221.043 485.584C238.921 478.481 285.97 480.755 288.325 496.439C290.679 512.122 279.067 544.087 253.447 545.085Z" fill="#DBAB7A"/>
<path d="M252.848 529.76C221.88 530.957 203.044 490.492 221.002 484.905C238.96 479.358 285.97 480.635 288.165 492.527C290.36 504.42 278.468 528.763 252.848 529.76Z" fill="#592832"/>
<path d="M349.98 529.721C347.067 553.984 326.436 572.82 301.374 572.82C274.318 572.82 252.409 550.912 252.409 523.855" stroke="#592832" stroke-width="21.5495" stroke-linecap="round" stroke-linejoin="round"/>
<path d="M255.841 545.004C249.296 557.894 235.369 566.115 220.125 564.678C200.211 562.803 185.606 545.164 187.481 525.25" stroke="#592832" stroke-width="21.5495" stroke-linecap="round" stroke-linejoin="round"/>
<path d="M220.124 564.679C220.124 564.679 220.643 566.315 221.561 569.069C225.831 581.919 238.481 618.753 243.948 620.947C250.573 623.621 291.317 625.377 295.747 620.947C300.176 616.518 306.442 572.541 306.442 572.541C306.442 572.541 277.071 578.207 256.638 547.16C256.638 547.16 237.084 570.745 220.164 564.679H220.124Z" fill="white"/>
<path d="M306.442 572.541C306.442 572.541 277.071 578.207 256.639 547.16C256.639 547.16 237.084 570.745 220.164 564.679C220.164 564.679 220.683 566.315 221.601 569.069C223.117 573.578 225.631 581.041 228.505 588.902C238.042 587.905 250.253 584.752 258.594 575.973C267.733 590.14 288.165 594.37 302.89 594.489C304.965 583.156 306.482 572.541 306.482 572.541H306.442Z" fill="#C6AEA7"/>
<path d="M220.124 564.679C220.124 564.679 220.643 566.315 221.561 569.069C225.831 581.919 238.481 618.753 243.948 620.947C250.573 623.621 291.317 625.377 295.747 620.947C300.176 616.518 306.442 572.541 306.442 572.541C306.442 572.541 277.071 578.207 256.638 547.16C256.638 547.16 237.084 570.745 220.164 564.679H220.124Z" stroke="#592832" stroke-width="21.5495" stroke-linecap="round" stroke-linejoin="round"/>
<path d="M265.858 618.991C265.858 618.991 256.679 574.695 256.639 547.199" stroke="#592832" stroke-width="9.1785" stroke-linecap="round" stroke-linejoin="round"/>
<path opacity="0.4" d="M80.4115 366.142C126.344 363.109 176.147 363.828 197.777 381.187C219.406 398.546 210.028 460.721 197.777 498.353C185.525 535.985 162.02 549.832 90.5079 546.081C54.2328 544.165 22.1081 527.844 19.554 481.233C17 434.622 16.0822 370.332 80.4115 366.102V366.142Z" fill="#F5D7BB"/>
<path d="M43.4578 494.442C41.1033 451.103 40.2653 391.323 100.045 387.413C142.027 384.659 187.201 385.417 207.873 400.781C206.157 389.647 202.725 380.349 196.34 375.241C174.71 357.882 124.907 357.124 78.9347 360.156C14.6452 364.387 15.5631 428.676 18.0772 475.287C19.9129 508.569 37.1126 525.968 59.8594 534.149C51.04 524.811 44.4953 512.559 43.4977 494.442H43.4578Z" fill="white"/>
<path d="M80.4115 366.142C126.344 363.109 176.147 363.828 197.777 381.187C219.406 398.546 210.028 460.721 197.777 498.353C185.525 535.985 162.02 549.832 90.5079 546.081C54.2328 544.165 22.1081 527.844 19.554 481.233C17 434.622 16.0822 370.332 80.4115 366.102V366.142Z" stroke="#592832" stroke-width="28.7327" stroke-linecap="round" stroke-linejoin="round"/>
<path opacity="0.4" d="M590.856 446.116C586.865 519.743 570.424 575.533 480.515 571.383C388.69 567.152 358.999 540.216 347.147 497.476C335.813 456.571 338.527 393.519 365.544 379.991C391.922 366.782 453.657 364.627 505.616 371.331C557.175 377.995 594.168 385.378 590.856 446.116Z" fill="#F5D7BB"/>
<path d="M376.198 511.043C365.703 473.252 368.217 414.948 393.198 402.418C417.621 390.166 474.687 388.211 522.735 394.436C550.829 398.068 573.975 402.178 587.822 416.265C578.404 382.983 546.878 376.718 505.615 371.37C453.617 364.626 391.921 366.781 365.583 379.99C338.486 393.558 335.813 456.611 347.146 497.475C355.766 528.602 374.243 551.229 418.898 562.922C394.475 551.07 382.463 533.511 376.198 511.043Z" fill="white"/>
<path d="M590.856 446.116C586.865 519.743 570.424 575.533 480.515 571.383C388.69 567.152 358.999 540.216 347.147 497.476C335.813 456.571 338.527 393.519 365.544 379.991C391.922 366.782 453.657 364.627 505.616 371.331C557.175 377.995 594.168 385.378 590.856 446.116V446.116Z" stroke="#592832" stroke-width="28.7327" stroke-linecap="round" stroke-linejoin="round"/>
<path d="M216.213 424.566C216.213 424.566 269.169 396.911 333.379 430.712" stroke="#592832" stroke-width="28.7327" stroke-linecap="round" stroke-linejoin="round"/>
<path d="M591.573 444.878L740.026 466.667" stroke="#592832" stroke-width="28.7327" stroke-linecap="round" stroke-linejoin="round"/>
<path d="M512.519 807.707C516.43 821.156 518.186 857.232 489.932 882.013C461.678 906.795 462.117 914.178 443.002 962.385C423.887 1010.59 354.808 1014.5 336.571 954.564C316.578 863.337 377.835 841.149 399.584 790.348C442.523 794.897 480.155 800.724 512.559 807.707H512.519Z" fill="#EAAC71"/>
<path d="M506.733 813.295C506.135 831.373 491.688 851.406 472.573 861.822C453.458 872.237 435.5 892.51 429.314 916.534C424.605 934.731 418.26 985.013 393.079 998.98C413.791 998.063 434.023 985.173 443.042 962.386C462.158 914.179 461.719 906.756 489.972 882.014C508.369 865.852 514.036 844.901 514.675 828.54C512.32 823.551 509.686 818.443 506.773 813.255L506.733 813.295Z" fill="#D6823C"/>
<path d="M364.427 957.276C348.105 882.731 386.016 854.278 412.274 818.681C420.415 807.627 413.512 791.824 399.864 790.387H399.584C377.875 841.188 316.618 863.336 336.572 954.603C347.107 989.241 374.603 1002.53 399.664 998.3C384.42 992.434 371.091 979.145 364.427 957.316V957.276Z" fill="#F5D7BB"/>
<path d="M371.21 887.4C358.999 887.4 347.186 889.196 336.132 892.469C331.743 909.229 330.984 929.262 336.571 954.603C354.809 1014.54 423.887 1010.63 443.002 962.425C449.746 945.345 454.096 933.413 458.087 923.995C436.856 901.567 405.809 887.4 371.21 887.4Z" fill="#AE6745"/>
<path d="M445.876 955.121C446.355 953.924 446.794 952.727 447.232 951.57C447.432 951.011 447.671 950.413 447.871 949.894C447.991 949.574 448.11 949.255 448.23 948.936C452.181 938.68 455.214 930.659 458.047 923.954C450.904 916.412 442.643 909.828 433.505 904.36C431.789 908.271 430.312 912.342 429.235 916.492C424.526 934.689 418.181 984.972 393 998.939C394.117 998.899 395.274 998.779 396.391 998.66C396.591 998.66 396.791 998.659 396.99 998.62C398.028 998.5 399.025 998.34 400.063 998.141C400.342 998.101 400.662 998.061 400.941 997.981C401.899 997.782 402.816 997.582 403.774 997.343C404.133 997.263 404.493 997.183 404.852 997.063C405.73 996.824 406.608 996.544 407.485 996.265C407.885 996.145 408.324 995.986 408.723 995.866C409.561 995.587 410.359 995.268 411.157 994.948C411.596 994.749 412.075 994.589 412.514 994.39C413.272 994.07 414.03 993.711 414.788 993.312C415.267 993.073 415.746 992.833 416.225 992.594C416.943 992.235 417.622 991.836 418.34 991.436C418.819 991.157 419.338 990.838 419.817 990.559C420.495 990.159 421.134 989.72 421.772 989.281C422.291 988.922 422.77 988.563 423.249 988.204C423.847 987.765 424.446 987.286 425.044 986.847C425.563 986.448 426.042 986.009 426.561 985.61C427.12 985.131 427.678 984.652 428.197 984.173C428.716 983.695 429.195 983.216 429.674 982.737C430.192 982.218 430.671 981.739 431.15 981.22C431.669 980.702 432.148 980.103 432.627 979.544C433.066 979.025 433.545 978.507 433.983 977.948C434.462 977.349 434.941 976.711 435.42 976.072C435.819 975.554 436.218 974.995 436.577 974.476C437.056 973.758 437.535 973.04 437.974 972.281C438.293 971.763 438.653 971.244 438.972 970.685C439.451 969.847 439.93 968.929 440.369 968.051C440.608 967.572 440.887 967.133 441.087 966.655C441.765 965.258 442.404 963.861 442.962 962.384C443.721 960.469 444.439 958.673 445.117 956.877C445.357 956.279 445.556 955.72 445.796 955.121H445.876Z" fill="#924921"/>
<path d="M339.365 962.226C339.884 963.463 340.402 964.7 341.001 965.898C341.32 966.576 341.64 967.174 341.999 967.813C342.557 968.89 343.116 969.928 343.715 970.926C344.074 971.524 344.433 972.163 344.832 972.761C345.431 973.759 346.069 974.677 346.748 975.635C347.107 976.153 347.506 976.712 347.905 977.231C348.623 978.189 349.381 979.106 350.18 980.024C350.539 980.423 350.858 980.823 351.217 981.222C352.255 982.379 353.332 983.456 354.41 984.494C354.529 984.574 354.609 984.693 354.689 984.813C355.966 985.97 357.243 987.088 358.56 988.125C358.64 988.165 358.72 988.245 358.799 988.285C360.036 989.203 361.274 990.081 362.551 990.919C362.79 991.078 363.069 991.238 363.349 991.398C364.466 992.076 365.583 992.715 366.741 993.313C367.02 993.473 367.339 993.593 367.619 993.752C368.776 994.311 369.973 994.83 371.13 995.309C371.37 995.428 371.649 995.508 371.889 995.628C373.206 996.147 374.523 996.586 375.879 996.985C375.999 996.985 376.119 997.064 376.238 997.104C383.901 999.299 391.962 999.658 399.743 998.381C384.499 992.515 371.17 979.226 364.506 957.397C358.081 928.106 360.076 905.958 366.382 887.681C355.926 888.08 345.79 889.716 336.212 892.549C335.693 894.545 335.215 896.58 334.815 898.695C334.736 899.094 334.656 899.533 334.576 899.932C334.257 901.648 333.977 903.364 333.738 905.12C333.658 905.758 333.578 906.357 333.499 906.995C333.299 908.592 333.139 910.228 333.02 911.864C332.98 912.622 332.9 913.38 332.86 914.179C332.78 915.735 332.74 917.331 332.7 918.967C332.7 919.845 332.7 920.723 332.7 921.601C332.7 923.197 332.74 924.834 332.82 926.47C332.86 927.428 332.9 928.345 332.94 929.343C333.06 931.019 333.219 932.735 333.379 934.451C333.459 935.449 333.538 936.407 333.658 937.404C333.898 939.28 334.177 941.195 334.456 943.151C334.576 944.069 334.696 944.946 334.855 945.864C335.334 948.738 335.893 951.691 336.571 954.684C337.21 956.719 337.888 958.674 338.607 960.55C338.846 961.149 339.125 961.747 339.365 962.346V962.226Z" fill="#C18B71"/>
<path d="M399.584 790.348C377.875 841.189 316.618 863.337 336.572 954.564C354.809 1014.5 423.887 1010.59 443.002 962.385C462.118 914.178 461.679 906.756 489.932 882.013C518.186 857.232 516.43 821.196 512.52 807.707" stroke="#592832" stroke-width="21.5495" stroke-linecap="round" stroke-linejoin="round"/>
<path d="M403.056 946.662C403.056 946.662 388.729 962.824 391.722 991.198" stroke="#592832" stroke-width="17.9979" stroke-linecap="round" stroke-linejoin="round"/>
<path d="M366.382 936.446C366.382 936.446 352.055 952.608 355.048 980.982" stroke="#592832" stroke-width="17.9979" stroke-linecap="round" stroke-linejoin="round"/>
<path d="M212.143 717.359C174.751 728.134 143.544 802.16 144.103 851.964C144.701 901.767 182.333 972.442 217.092 992.155C251.85 1011.87 294.151 986.928 292.994 947.54C291.996 913.061 274.557 859.107 217.052 820.916C222.439 788.632 219.965 753.833 212.143 717.359Z" fill="#EAAC71"/>
<path d="M241.155 992.157C206.397 972.443 168.725 901.768 168.166 851.965C167.687 812.058 187.641 756.708 214.777 730.649C213.979 726.219 213.101 721.79 212.143 717.32C174.751 728.095 143.544 802.122 144.103 851.925C144.701 901.728 182.333 972.403 217.092 992.117C229.463 999.14 242.752 1000.46 254.724 997.544C250.134 996.427 245.585 994.631 241.116 992.117L241.155 992.157Z" fill="#F5D7BB"/>
<path d="M173.833 944.188C186.683 965.778 202.127 983.696 217.092 992.156C251.851 1011.87 294.152 986.928 292.994 947.54C292.515 931.618 288.525 911.505 278.708 890.713C272.243 889.277 265.578 888.519 258.675 888.519C220.684 888.519 188.08 911.425 173.833 944.188Z" fill="#AE6745"/>
<path d="M222.399 994.79C223.597 995.308 224.794 995.787 226.031 996.186C226.231 996.266 226.47 996.346 226.669 996.426C228.106 996.905 229.583 997.304 231.019 997.663C231.259 997.703 231.498 997.783 231.738 997.823C233.055 998.102 234.331 998.341 235.648 998.541C235.848 998.541 236.048 998.621 236.247 998.621C239.32 999.02 242.353 999.139 245.346 998.98C245.426 998.98 245.545 998.98 245.625 998.98C248.698 998.78 251.731 998.341 254.684 997.623C250.095 996.506 245.545 994.71 241.076 992.196C221.442 981.062 200.93 953.726 186.643 923.038C181.455 929.463 177.105 936.566 173.793 944.228C176.866 949.416 180.138 954.404 183.451 959.073C183.65 959.353 183.81 959.592 184.009 959.871C184.688 960.789 185.366 961.707 186.045 962.625C186.324 962.984 186.603 963.343 186.883 963.702C187.521 964.54 188.16 965.378 188.798 966.177C189.117 966.576 189.437 966.975 189.796 967.414C190.434 968.172 191.033 968.97 191.671 969.688C192.031 970.127 192.39 970.526 192.749 970.925C193.347 971.644 193.986 972.362 194.585 973.04C194.944 973.44 195.343 973.839 195.702 974.238C196.7 975.355 197.737 976.433 198.735 977.47C199.293 978.029 199.812 978.587 200.371 979.146C200.85 979.585 201.289 980.024 201.768 980.463C202.326 980.982 202.885 981.541 203.444 982.059C203.883 982.458 204.362 982.858 204.801 983.257C205.399 983.775 205.958 984.254 206.557 984.733C206.996 985.092 207.434 985.451 207.873 985.811C208.472 986.29 209.111 986.768 209.709 987.247C210.108 987.567 210.507 987.886 210.946 988.165C211.625 988.644 212.303 989.123 212.981 989.602C213.301 989.841 213.66 990.081 213.979 990.28C215.017 990.959 216.014 991.557 217.052 992.156C218.449 992.954 219.845 993.632 221.242 994.271C221.601 994.43 222 994.59 222.36 994.75L222.399 994.79Z" fill="#C18B71"/>
<path d="M212.143 717.359C174.751 728.134 143.544 802.16 144.103 851.964C144.701 901.767 182.333 972.442 217.092 992.155C251.85 1011.87 294.151 986.928 292.994 947.54C291.996 913.061 274.557 859.107 217.052 820.916C222.439 788.632 219.965 753.833 212.143 717.359V717.359Z" stroke="#592832" stroke-width="21.5495" stroke-linecap="round" stroke-linejoin="round"/>
<path d="M189.876 805.633C199.812 810.342 208.831 815.49 217.052 820.917" stroke="#592832" stroke-width="21.5495" stroke-linecap="round" stroke-linejoin="round"/>
<path d="M221.841 953.047C221.841 953.047 238.841 966.376 240.916 994.83" stroke="#592832" stroke-width="17.9979" stroke-linecap="round" stroke-linejoin="round"/>
<path d="M256.12 936.448C256.12 936.448 273.12 949.777 275.195 978.23" stroke="#592832" stroke-width="17.9979" stroke-linecap="round" stroke-linejoin="round"/>
</svg>
