<svg width="1483" height="1525" viewBox="0 0 1483 1525" fill="none" xmlns="http://www.w3.org/2000/svg">
<g clip-path="url(#clip0_971_2455)">
<path d="M852.104 1316.07C1008.53 1369.84 1086.53 1238.67 1096.38 1047.96C1106.23 857.265 1203.33 753.521 1336.43 792.646C1469.52 831.771 1524.55 1035.09 1399.02 1212.35C1273.48 1389.61 1013.48 1492.34 762.827 1397.29L852.116 1316.06L852.104 1316.07Z" fill="#EAAC71"/>
<path d="M852.104 1316.07C1008.53 1369.84 1086.53 1238.67 1096.38 1047.96C1106.23 857.265 1203.33 753.521 1336.43 792.646C1469.52 831.771 1524.55 1035.09 1399.02 1212.35C1273.48 1389.61 1013.48 1492.34 762.827 1397.29L852.116 1316.06L852.104 1316.07Z" fill="#AE6745"/>
<path d="M889.508 1331.72C1045.94 1385.5 1123.15 1240.96 1132.98 1050.26C1142.77 860.719 1239.58 770.509 1371.42 807.683C1360.48 801.358 1348.78 796.306 1336.41 792.658C1203.32 753.533 1106.22 857.265 1096.37 1047.97C1086.52 1238.67 1008.52 1369.84 852.092 1316.08L762.803 1397.31C776.071 1402.34 789.363 1406.79 802.667 1410.73L889.496 1331.74L889.508 1331.72Z" fill="#C18B71"/>
<path d="M1328.26 1139.33C1326.73 1135.35 1322.32 1133.46 1318.38 1134.96C1306.22 1139.72 1293.54 1144.92 1280.62 1150.53C1277.23 1120.29 1271.93 1088.38 1265.71 1057.11C1288.36 1046.59 1311.79 1036.36 1334.96 1027.2C1336.57 1041.49 1337.75 1055.67 1338.35 1069.49C1338.47 1072.57 1340.4 1075.11 1343.05 1076.22C1344.05 1076.63 1345.14 1076.85 1346.31 1076.81C1350.52 1076.59 1353.79 1073.03 1353.61 1068.84C1352.93 1053.36 1351.54 1037.48 1349.71 1021.5C1358.28 1018.26 1366.8 1015.2 1375.22 1012.35C1379.22 1010.99 1381.37 1006.64 1380 1002.68C1378.64 998.681 1374.29 996.536 1370.33 997.906C1362.89 1000.45 1355.34 1003.14 1347.73 1005.98C1343.11 971.733 1336.38 937.455 1329.13 905.83C1337.67 902.413 1346.3 899.166 1355 896.015C1358.95 894.597 1361.02 890.211 1359.62 886.237C1358.14 882.226 1353.76 880.239 1349.83 881.657C1341.7 884.589 1333.58 887.667 1325.57 890.805C1320.89 871.394 1316.11 853.206 1311.57 837.006C1310.43 832.971 1306.27 830.584 1302.15 831.735C1298.11 832.874 1295.76 837.055 1296.89 841.126C1301.52 857.762 1306.47 876.519 1311.28 896.585C1284.61 907.514 1259 919.328 1235.81 930.754C1223.13 883.814 1212.89 851.74 1212.64 850.916C1211.37 846.906 1207.04 844.7 1203.06 846.021C1199.03 847.33 1196.85 851.583 1198.12 855.593C1198.38 856.429 1208.98 889.581 1221.89 937.697C1193.59 952.031 1169.78 965.214 1153.27 974.69C1148.81 959.58 1145.9 950.686 1145.78 950.311C1144.47 946.288 1140.18 944.095 1136.16 945.403C1132.17 946.724 1129.98 951.013 1131.3 955C1131.45 955.424 1134.7 965.59 1139.71 982.59C1132.68 986.758 1128.69 989.206 1128.53 989.339C1124.94 991.556 1123.85 996.27 1126.08 999.82C1126.94 1001.23 1128.17 1002.23 1129.62 1002.84C1131.82 1003.76 1134.41 1003.64 1136.59 1002.28C1136.75 1002.18 1139.38 1000.53 1144.07 997.736C1150.77 1021.5 1159.27 1053.4 1167.36 1089.18C1141.26 1103.02 1119.46 1115.26 1104.65 1123.73C1103.29 1117.83 1101.9 1112.16 1100.46 1106.71C1099.41 1102.68 1095.23 1100.21 1091.14 1101.29C1087.06 1102.36 1084.63 1106.56 1085.69 1110.64C1087.44 1117.27 1089.16 1124.37 1090.83 1131.77C1086.29 1134.44 1083.75 1135.95 1083.57 1136.09C1079.97 1138.22 1078.77 1142.92 1080.97 1146.54C1081.83 1147.95 1083.07 1149.04 1084.52 1149.64C1086.72 1150.57 1089.28 1150.42 1091.44 1149.15C1091.54 1149.08 1092.53 1148.47 1094.23 1147.49C1099.7 1174.21 1104.62 1204.13 1108.46 1234.24C1086.56 1245.76 1066.89 1256.38 1050.89 1265.17C1050.35 1263.29 1049.98 1262.04 1049.9 1261.76C1048.68 1257.74 1044.39 1255.45 1040.39 1256.7C1036.36 1257.92 1034.07 1262.14 1035.29 1266.2C1035.32 1266.29 1036.07 1268.75 1037.1 1272.78C1019.09 1282.72 1008.22 1288.92 1007.78 1289.18C1004.11 1291.28 1002.86 1295.93 1004.92 1299.58C1005.81 1301.12 1007.13 1302.23 1008.6 1302.85C1010.7 1303.72 1013.2 1303.64 1015.37 1302.41C1015.75 1302.17 1025.07 1296.86 1040.69 1288.21C1043.95 1304.35 1046.86 1325.88 1043.13 1340.4C1042.18 1344.12 1044.12 1347.88 1047.55 1349.32C1047.89 1349.46 1048.25 1349.57 1048.63 1349.65C1052.71 1350.71 1056.84 1348.24 1057.91 1344.16C1062.75 1325.34 1058.56 1298.39 1054.65 1280.52C1070.01 1272.09 1089.07 1261.76 1110.43 1250.47C1113.49 1276.94 1115.71 1303.12 1116.76 1326.94C1116.88 1330.02 1118.81 1332.56 1121.42 1333.65C1122.45 1334.09 1123.53 1334.29 1124.72 1334.27C1128.92 1334.05 1132.2 1330.49 1132.01 1326.3C1130.86 1300.38 1128.37 1271.71 1124.88 1242.87C1144.94 1232.37 1166.57 1221.3 1188.89 1210.25C1191.07 1228.4 1192.65 1246.35 1193.42 1263.71C1193.54 1266.79 1195.43 1269.32 1198.12 1270.44C1199.08 1270.84 1200.21 1271.07 1201.35 1271.02C1205.59 1270.81 1208.86 1267.25 1208.64 1263.05C1207.79 1243.63 1205.94 1223.47 1203.38 1203.14C1224.66 1192.73 1246.31 1182.49 1267.5 1173.03C1268.04 1179.88 1268.47 1186.64 1268.75 1193.22C1268.89 1196.26 1270.8 1198.84 1273.42 1199.93C1274.45 1200.37 1275.55 1200.54 1276.73 1200.51C1280.92 1200.33 1284.19 1196.77 1284.01 1192.57C1283.63 1184.1 1283.04 1175.41 1282.23 1166.51C1296.59 1160.28 1310.57 1154.47 1323.98 1149.24C1327.9 1147.69 1329.83 1143.26 1328.31 1139.38L1328.26 1139.33ZM1314.77 911.622C1322.01 943.283 1328.6 977.501 1333.06 1011.55C1309.5 1020.76 1285.67 1031.09 1262.56 1041.74C1255.41 1007.49 1247.33 974.472 1239.78 945.791C1262.76 934.401 1288.21 922.599 1314.77 911.622ZM1157.62 989.763C1173.43 980.627 1197.24 967.371 1225.87 952.783C1233.36 981.512 1241.36 1014.42 1248.37 1048.42C1224.61 1059.64 1201.86 1071.08 1181.25 1081.84C1172.96 1045.46 1164.31 1013.25 1157.62 989.775V989.763ZM1122.83 1226.68C1118.78 1196.2 1113.71 1166.05 1108.08 1139.35C1122.03 1131.29 1143.93 1118.93 1170.74 1104.65C1176.86 1133.26 1182.58 1163.81 1186.77 1194.23C1164.58 1205.19 1142.93 1216.2 1122.83 1226.68ZM1201.15 1187.17C1196.78 1156.5 1190.95 1125.84 1184.7 1097.25C1205.12 1086.58 1227.77 1075.09 1251.51 1063.82C1257.67 1095.16 1262.85 1126.96 1265.98 1156.94C1244.6 1166.41 1222.75 1176.69 1201.15 1187.16V1187.17Z" fill="#924921"/>
<path d="M1124.38 1130.03C1125.45 1123.73 1126.45 1117.36 1127.35 1110.87C1118.66 1115.72 1110.97 1120.09 1104.62 1123.69C1103.25 1117.79 1101.87 1112.12 1100.43 1106.68C1099.42 1102.82 1095.53 1100.43 1091.64 1101.14C1090.72 1108.27 1089.7 1115.23 1088.58 1122.07C1089.3 1125.24 1090.08 1128.43 1090.79 1131.72C1088.98 1132.78 1087.53 1133.63 1086.39 1134.33C1085.45 1139.3 1084.46 1144.18 1083.37 1149.01C1083.75 1149.26 1084.12 1149.45 1084.49 1149.61C1086.7 1150.53 1089.25 1150.38 1091.41 1149.11C1091.52 1149.04 1092.5 1148.43 1094.21 1147.45C1098.08 1166.3 1101.63 1186.78 1104.76 1207.76C1108.51 1197.17 1111.88 1186.14 1114.87 1174.63C1112.75 1162.43 1110.48 1150.54 1108.11 1139.33C1112.69 1136.69 1118.19 1133.58 1124.39 1130.04L1124.38 1130.03Z" fill="#A66A49"/>
<path d="M1197.77 853.255C1200.05 850.613 1202.4 848.081 1204.78 845.682C1204.19 845.718 1203.6 845.791 1203.03 845.997C1199.8 847.063 1197.8 850.019 1197.77 853.243V853.255Z" fill="#A66A49"/>
<path d="M1089.58 1244.18C1075.19 1251.85 1062.08 1258.96 1050.86 1265.13C1050.31 1263.25 1049.95 1262 1049.86 1261.72C1048.78 1258.13 1045.25 1255.96 1041.67 1256.41C1039.55 1259.64 1037.43 1262.79 1035.21 1265.86C1035.21 1265.94 1035.21 1266.06 1035.25 1266.16C1035.29 1266.26 1036.04 1268.72 1037.07 1272.74C1032.06 1275.53 1027.6 1277.99 1023.77 1280.09C1017.73 1286.93 1011.29 1293.13 1004.48 1298.6C1004.61 1298.89 1004.72 1299.21 1004.9 1299.54C1005.78 1301.08 1007.1 1302.2 1008.58 1302.81C1010.68 1303.69 1013.17 1303.6 1015.34 1302.38C1015.73 1302.13 1025.05 1296.83 1040.67 1288.18C1041.87 1294.09 1043.02 1300.7 1043.8 1307.42C1048.43 1303.21 1052.92 1298.67 1057.19 1293.76C1056.39 1289.02 1055.52 1284.54 1054.62 1280.49C1061.02 1276.99 1068.09 1273.13 1075.66 1269.02C1080.65 1261.25 1085.28 1252.98 1089.59 1244.2L1089.58 1244.18Z" fill="#A66A49"/>
<path d="M1139.67 982.566C1132.64 986.734 1128.66 989.181 1128.49 989.315C1124.9 991.532 1123.81 996.245 1126.04 999.796C1126.9 1001.2 1128.14 1002.21 1129.58 1002.81C1131.78 1003.73 1134.38 1003.61 1136.56 1002.26C1136.62 1002.21 1137.01 1001.95 1137.71 1001.53C1140.13 985.013 1143.31 969.419 1147.2 954.818C1146.31 952.019 1145.8 950.432 1145.74 950.286C1144.43 946.264 1140.14 944.07 1136.12 945.379C1132.14 946.7 1129.94 950.989 1131.26 954.976C1131.41 955.4 1134.67 965.566 1139.67 982.566Z" fill="#A66A49"/>
<path d="M1336.43 792.646C1327.94 790.15 1320.09 789.896 1311.94 788.539C1427.87 838.254 1471.84 1023.12 1356.01 1186.67C1241.83 1347.89 1012.7 1443.25 784.153 1377.91L762.803 1397.29C1013.48 1492.36 1273.47 1389.64 1399 1212.37C1524.53 1035.1 1469.52 831.771 1336.43 792.646Z" fill="#924921"/>
<path d="M958.865 1446.79C893.774 1446.79 826.125 1435.31 758.162 1409.51C753.897 1407.92 750.795 1404.2 749.935 1399.71C749.099 1395.24 750.638 1390.66 754.006 1387.6L775.368 1368.21C778.736 1365.17 783.329 1364.02 787.764 1365.31C996.149 1424.9 1225.46 1348.34 1345.33 1179.11C1406.8 1092.32 1427.54 989.909 1400.84 905.212C1384.31 852.795 1351.54 815.463 1308.51 800.074C1302.12 797.772 1298.54 790.999 1300.24 784.444C1301.97 777.888 1308.59 773.647 1315.06 774.835C1324.87 776.458 1331.74 777.622 1340.11 780.069V780.094C1398.28 797.178 1444.67 844.482 1467.37 909.865C1500.73 1005.9 1479.17 1121.81 1409.67 1219.91C1319.3 1347.54 1150.12 1446.76 958.853 1446.76L958.865 1446.79ZM790.393 1393.19C1037.61 1474.98 1276.51 1362.78 1388.35 1204.8C1452.94 1113.57 1473.25 1006.53 1442.65 918.456C1434.52 895.022 1423.01 874.278 1408.84 856.938C1415.55 869.334 1421.23 882.844 1425.81 897.324C1454.96 989.8 1432.89 1100.79 1366.68 1194.23C1242.4 1369.72 1006.56 1450.55 790.393 1393.19Z" fill="#592832"/>
<path d="M958.841 1446.81C893.774 1446.81 826.15 1435.34 758.186 1409.54C753.921 1407.94 750.819 1404.23 749.959 1399.76C749.123 1395.29 750.662 1390.68 754.03 1387.64L843.319 1306.41C846.833 1303.18 851.801 1302.2 856.381 1303.71C908.241 1321.53 952.504 1318.43 987.897 1294.55C1043.13 1257.25 1077.02 1169.44 1083.29 1047.29C1089.25 932.256 1126.43 844.87 1187.99 801.225C1230.96 770.763 1283.55 763.457 1340.1 780.118C1398.27 797.202 1444.65 844.506 1467.38 909.889C1500.74 1005.93 1479.19 1121.84 1409.68 1219.93C1319.29 1347.56 1150.09 1446.81 958.841 1446.81ZM787.739 1392.33C1035.88 1475.83 1276.06 1363.35 1388.33 1204.81C1452.93 1113.58 1473.24 1006.54 1442.64 918.468C1422.72 861.167 1382.66 819.897 1332.72 805.199C1284.12 790.95 1239.3 796.911 1203.13 822.575C1148.21 861.494 1114.95 941.768 1109.43 1048.64C1102.68 1179.19 1064.72 1274.22 1002.53 1316.21C961.701 1343.79 912.179 1348.71 855.266 1330.86L787.727 1392.31L787.739 1392.33Z" fill="#592832"/>
<path d="M301.818 1068.35C198.171 1127.77 154.901 1359.94 351.194 1420.1C496.826 1458.09 530.887 1348.08 534.825 1319.85C547.487 1229.09 411.354 1096.12 301.818 1068.35Z" fill="#EAAC71"/>
<path d="M376.724 1420.1C186.757 1361.88 221.168 1142.56 317.533 1074.63C310.651 1072.17 303.817 1070.06 297.092 1068.35C193.445 1127.77 150.176 1359.94 346.468 1420.1C374.034 1427.3 397.602 1429.18 417.728 1427.31C405.15 1426.27 391.519 1423.96 376.724 1420.1Z" fill="#F5D7BB"/>
<path d="M407.768 1441.1C389.217 1441.1 369.236 1438.33 347.898 1432.78C233.443 1397.7 207.585 1313.44 202.302 1266.31C192.936 1182.75 232.934 1092.76 295.311 1057C298.292 1055.32 301.782 1054.92 305.041 1055.65C420.563 1084.97 561.712 1221.82 547.765 1321.66C546.893 1328.04 537.611 1385.11 487.448 1418.59C464.959 1433.59 438.29 1441.1 407.768 1441.1ZM303.829 1082.42C253.351 1114.71 220.405 1192.85 228.305 1263.37C232.861 1304.13 255.398 1377.04 355.035 1407.59C403.345 1420.15 443.233 1416.64 472.908 1396.82C514.287 1369.19 521.581 1320.12 521.872 1318.03C533.419 1235.32 405.32 1111.23 303.829 1082.42Z" fill="#592832"/>
<path d="M506.883 1511.91H171.998C171.998 1511.91 180.359 1424.67 289.459 1402.16C398.547 1379.65 512.748 1444.37 518.976 1472.51C525.192 1500.66 506.908 1511.91 506.908 1511.91H506.883Z" fill="#AE6745"/>
<path d="M506.883 1511.91H171.998C171.998 1511.91 180.359 1424.67 289.459 1402.16C398.547 1379.65 512.748 1444.37 518.976 1472.51C525.192 1500.66 506.908 1511.91 506.908 1511.91H506.883Z" fill="#AE6745"/>
<path d="M304.363 1419.3C391.386 1401.35 481.596 1438.9 517.716 1469.1C503.927 1439.52 394.342 1380.51 289.447 1402.16C180.359 1424.67 171.986 1511.91 171.986 1511.91H190.889C199.455 1485.33 225.761 1435.52 304.363 1419.3Z" fill="#C18B71"/>
<path d="M518.964 1472.51C516.892 1463.12 502.727 1449.65 480.796 1436.7C477.161 1437.08 473.538 1437.52 469.915 1438.01C428.487 1443.77 401.612 1455.8 384.188 1468.52C368.848 1479.72 350.37 1485.75 331.371 1485.75H179.305C173.077 1500.92 171.998 1511.91 171.998 1511.91H506.883C506.883 1511.91 525.18 1500.66 518.952 1472.51H518.964Z" fill="#924921"/>
<path d="M506.896 1525H171.986C168.303 1525 164.789 1523.45 162.293 1520.72C159.821 1518 158.609 1514.35 158.949 1510.67C159.058 1509.71 169.599 1413.54 286.805 1389.35C399.032 1366.27 523.072 1430.56 531.747 1469.69C538.242 1499.08 523.483 1517.08 513.754 1523.06C511.682 1524.33 509.319 1525 506.896 1525ZM188.308 1498.84H502.061C504.933 1495.56 509.064 1488.3 506.193 1475.35C501.613 1455.81 397.117 1393.3 292.088 1414.98C219.351 1429.99 195.747 1475.32 188.296 1498.84H188.308Z" fill="#592832"/>
<path d="M292.67 1525C291.349 1525 290.004 1524.78 288.671 1524.36C281.813 1522.16 278.021 1514.81 280.214 1507.94C280.917 1505.7 298.171 1453.01 342.107 1438.8C349.049 1436.63 356.392 1440.38 358.598 1447.23C360.815 1454.12 357.047 1461.48 350.164 1463.73C319.109 1473.73 305.271 1515.5 305.138 1515.92C303.345 1521.46 298.195 1525 292.682 1525H292.67Z" fill="#592832"/>
<path d="M218.697 1525C217.376 1525 216.031 1524.78 214.698 1524.36C207.84 1522.16 204.047 1514.81 206.241 1507.94C206.943 1505.7 224.198 1453.01 268.133 1438.8C275.161 1436.63 282.419 1440.38 284.624 1447.23C286.842 1454.12 283.073 1461.48 276.191 1463.73C245.136 1473.73 231.298 1515.5 231.165 1515.92C229.372 1521.46 224.222 1525 218.709 1525H218.697Z" fill="#592832"/>
<path d="M806.278 806.229C729.421 847.015 629.409 871.672 520.042 871.672C449.607 871.672 383.061 861.434 324.065 843.246C334.63 890.756 343.124 969.346 311.087 1045.44C260.427 1165.75 178.117 1428.53 548.541 1428.53C781.766 1428.53 960.077 1201.63 902.583 1026.44C875.114 956.139 807.466 894.815 806.278 806.205V806.229Z" fill="#EAAC71"/>
<path d="M340.071 1045.45C370.254 973.756 364.462 899.868 354.853 851.813C344.384 849.183 334.109 846.348 324.065 843.246C334.63 890.756 343.124 969.346 311.087 1045.44C260.427 1165.75 178.117 1428.53 548.541 1428.53C552.443 1428.53 556.332 1428.45 560.21 1428.32C209.718 1420.2 290.222 1163.83 340.071 1045.43V1045.45Z" fill="#F5D7BB"/>
<path d="M758.368 1362.09C691.641 1307.13 641.526 1218.1 631.214 1109.34C614.117 929.046 378.239 903.988 323.35 1009.48C320.163 1021.44 316.128 1033.48 311.087 1045.45C260.427 1165.76 178.117 1428.54 548.541 1428.54C626.997 1428.54 699.226 1402.84 758.368 1362.09Z" fill="#FFE5C0"/>
<path d="M633.613 1418.31C638.884 1417.03 644.106 1415.6 649.28 1414.1C650.734 1413.67 652.176 1413.21 653.63 1412.76C657.338 1411.64 661.022 1410.46 664.681 1409.21C666.353 1408.64 668.013 1408.07 669.661 1407.48C673.247 1406.21 676.798 1404.87 680.336 1403.49C681.79 1402.92 683.256 1402.38 684.698 1401.8C694.488 1397.83 704.061 1393.48 713.403 1388.76C714.808 1388.04 716.19 1387.3 717.583 1386.58C720.854 1384.87 724.114 1383.12 727.325 1381.33C728.888 1380.46 730.451 1379.57 732.002 1378.68C735.164 1376.86 738.279 1374.99 741.368 1373.09C742.737 1372.26 744.107 1371.43 745.464 1370.57C749.826 1367.82 754.139 1365 758.368 1362.09C754.539 1358.94 750.771 1355.64 747.051 1352.26C745.961 1351.28 744.906 1350.24 743.84 1349.23C741.199 1346.76 738.581 1344.28 736.001 1341.7C734.825 1340.52 733.674 1339.3 732.511 1338.1C730.075 1335.58 727.652 1333.03 725.277 1330.4C724.126 1329.14 722.999 1327.85 721.872 1326.56C719.534 1323.91 717.232 1321.21 714.966 1318.46C679.051 1274.93 651.607 1219.6 638.254 1155.76C617.789 1185.75 584.528 1251.09 603.709 1339.16C606.472 1351.83 598.244 1364.29 585.606 1367.17C473.95 1392.56 358.016 1372.15 277.56 1297.87L276.409 1297.66C301.188 1371.1 375.404 1428.51 548.541 1428.51C577.888 1428.51 606.375 1424.92 633.613 1418.28V1418.31Z" fill="#DBAB7A"/>
<path d="M340.071 1045.45C350.673 1020.26 356.78 994.816 359.894 970.292C344.421 980.239 331.759 993.313 323.35 1009.48C322.611 1012.28 321.811 1015.06 320.975 1017.86C320.769 1018.56 320.539 1019.26 320.321 1019.96C319.69 1022.02 319.024 1024.08 318.346 1026.14C318.043 1027.03 317.74 1027.93 317.437 1028.83C316.758 1030.79 316.055 1032.75 315.316 1034.72C315.013 1035.55 314.71 1036.38 314.395 1037.21C313.341 1039.96 312.263 1042.7 311.1 1045.44C260.439 1165.75 178.13 1428.53 548.553 1428.53C552.237 1428.53 555.884 1428.42 559.543 1428.3C209.851 1419.85 290.271 1163.75 340.083 1045.43L340.071 1045.45Z" fill="#FFF7EC"/>
<path d="M902.583 1026.47C880.166 969.08 830.984 917.68 813.027 852.552C812.106 849.196 811.282 845.803 810.531 842.374C810.41 841.805 810.277 841.235 810.155 840.666C809.416 837.164 808.762 833.626 808.217 830.039C808.217 829.966 808.205 829.894 808.192 829.821C807.696 826.465 807.32 823.06 807.005 819.631C806.932 818.77 806.86 817.898 806.787 817.038C806.52 813.475 827.979 757.665 827.931 754.018C751.074 794.803 585.909 866.705 476.543 866.705C406.108 866.705 383.061 861.446 324.064 843.271C324.561 845.488 325.046 847.802 325.531 850.165C325.664 850.844 325.809 851.534 325.943 852.225C326.318 854.091 326.682 856.005 327.033 857.956C327.154 858.598 327.275 859.229 327.384 859.871C327.833 862.355 328.257 864.899 328.681 867.504C328.778 868.147 328.875 868.813 328.984 869.455C329.25 871.212 332.716 900.632 332.97 902.449C404.193 937.939 621.957 906.084 654.672 880.639C668.861 878.179 669.212 905.103 682.783 901.807C715.765 893.786 749.741 910.362 763.372 941.441C785.679 992.283 822.854 1035.89 841.514 1083.64C870.534 1172.09 839.442 1273.7 771.551 1352.65C879.924 1271.14 939.284 1138.29 902.595 1026.49L902.583 1026.47Z" fill="#D6823C"/>
<path d="M548.529 1441.61C416.516 1441.61 327.469 1408.3 283.849 1342.59C238.338 1274.07 243.439 1172.39 299.031 1040.38C329.045 969.068 322.271 895.373 311.281 846.106C310.276 841.55 311.754 836.8 315.183 833.65C318.636 830.451 323.471 829.433 327.918 830.754C359.882 840.617 398.656 833.092 439.744 825.107C468.837 819.461 498.911 813.633 528.669 813.633C600.086 813.633 638.484 785.328 682.917 752.564C702.837 737.891 723.411 722.72 747.899 709.731C751.898 707.574 756.781 707.707 760.695 710.034C764.608 712.372 767.044 716.577 767.104 721.133C767.831 774.786 818.516 856.66 859.241 922.43C883.583 961.773 904.63 995.737 914.772 1021.7C941.417 1102.84 922.309 1196.21 862.633 1278.62C788.709 1380.68 671.285 1441.62 548.541 1441.62L548.529 1441.61ZM340.762 860.186C349.789 912.094 351.982 981.996 323.144 1050.52C271.199 1173.96 265.298 1267.36 305.635 1328.11C344.118 1386.07 425.846 1415.46 548.529 1415.46C662.9 1415.46 772.399 1358.55 841.429 1263.26C896.124 1187.74 913.888 1102.92 890.139 1030.57C881.112 1007.5 859.677 972.872 836.97 936.219C797.348 872.193 753.013 800.583 743.004 742.713C727.155 752.467 712.615 763.203 698.426 773.635C654.321 806.157 608.677 839.793 528.645 839.793C501.407 839.793 472.581 845.391 444.7 850.807C409.731 857.605 373.756 864.584 340.737 860.198L340.762 860.186Z" fill="#592832"/>
<path d="M875.199 972.23C886.964 987.34 937.116 1050.84 956.248 1082.74C1006.91 1167.17 1016.76 1288.18 949.208 1382.45C881.669 1476.73 745.173 1479.54 683.923 1402.15C593.289 1287.62 627.664 1184.42 652.443 1137.53C760.755 1122.81 815.511 1044.14 875.187 972.23H875.199Z" fill="#EAAC71"/>
<path d="M686.116 1358.98C636.824 1263.81 652.455 1187.46 677.416 1137.23C682.638 1126.71 674.314 1114.66 662.573 1115.28H662.258C633.625 1159.94 590.696 1259.9 671.394 1381.63C711.416 1442.01 795.434 1462.67 867.056 1434.54C795.046 1450.71 718.249 1421.01 686.116 1358.98Z" fill="#F5D7BB"/>
<path d="M956.248 1082.75C937.116 1050.86 886.964 987.352 875.199 972.243C856.696 994.538 838.654 1017.49 819.364 1038.98C826.271 1048.77 832.378 1057.87 836.812 1065.28C887.473 1149.71 897.324 1270.72 829.773 1364.99C802.219 1403.44 763.191 1426.67 722.49 1435.44C791.108 1475.68 893.556 1460.15 949.208 1382.47C1016.75 1288.19 1006.9 1167.18 956.248 1082.76V1082.75Z" fill="#D6823C"/>
<path d="M804.182 1470.05C751.207 1470.05 703.867 1448.43 673.659 1410.29C545.1 1247.82 657.835 1104.11 659.01 1102.69C663.53 1097.09 671.793 1096.2 677.367 1100.69C682.989 1105.21 683.91 1113.45 679.391 1119.07C675.235 1124.3 578.833 1248.3 694.197 1394.07C720.14 1426.83 762.585 1445.21 808.229 1443.84C860.562 1442.58 908.059 1417.45 938.582 1374.85C1005.37 1281.62 989.957 1164.35 945.04 1089.48C918.262 1044.86 898.39 1021.11 882.444 1002.01C868.195 985.001 855.884 970.279 843.877 947.403C840.508 940.993 842.98 933.093 849.378 929.724C855.787 926.32 863.688 928.828 867.056 935.225C877.767 955.63 888.697 968.704 902.522 985.232C919.074 1005.02 939.672 1029.66 967.505 1076.04C1016.81 1158.22 1033.58 1287.23 959.859 1390.12C924.526 1439.44 869.492 1468.56 808.895 1470.01C807.32 1470.06 805.769 1470.07 804.206 1470.07L804.182 1470.05Z" fill="#592832"/>
<path d="M901.371 1511.91H566.486C566.486 1511.91 574.847 1424.67 683.947 1402.16C793.035 1379.65 907.236 1444.37 913.464 1472.51C919.68 1500.66 901.395 1511.91 901.395 1511.91H901.371Z" fill="#AE6745"/>
<path d="M901.371 1511.91H566.486C566.486 1511.91 574.847 1424.67 683.947 1402.16C793.035 1379.65 907.236 1444.37 913.464 1472.51C919.68 1500.66 901.395 1511.91 901.395 1511.91H901.371Z" fill="#AE6745"/>
<path d="M698.851 1419.3C785.874 1401.35 876.084 1438.9 912.204 1469.1C898.415 1439.52 788.83 1380.51 683.935 1402.16C574.847 1424.67 566.474 1511.91 566.474 1511.91H585.377C593.943 1485.33 620.249 1435.52 698.851 1419.3Z" fill="#C18B71"/>
<path d="M913.452 1472.51C911.38 1463.12 897.215 1449.65 875.284 1436.7C871.648 1437.08 868.026 1437.52 864.403 1438.01C822.975 1443.77 796.1 1455.8 778.676 1468.52C763.336 1479.72 744.858 1485.75 725.859 1485.75H573.793C567.564 1500.92 566.486 1511.91 566.486 1511.91H901.383C901.383 1511.91 919.68 1500.66 913.452 1472.51Z" fill="#924921"/>
<path d="M901.371 1525H566.486C562.803 1525 559.289 1523.45 556.793 1520.72C554.321 1518 553.109 1514.35 553.448 1510.67C553.557 1509.71 564.075 1413.54 681.281 1389.35C793.483 1366.27 917.571 1430.56 926.223 1469.69C932.717 1499.08 917.959 1517.08 908.229 1523.06C906.157 1524.33 903.794 1525 901.371 1525ZM582.795 1498.84H896.536C899.408 1495.56 903.54 1488.3 900.668 1475.35C896.112 1455.81 791.641 1393.3 686.564 1414.98C613.827 1429.98 590.247 1475.32 582.795 1498.84Z" fill="#592832"/>
<path d="M687.146 1525C685.825 1525 684.468 1524.78 683.147 1524.36C676.289 1522.14 672.496 1514.81 674.69 1507.94C675.392 1505.7 692.671 1453.01 736.582 1438.8C743.634 1436.63 750.868 1440.38 753.073 1447.23C755.291 1454.12 751.522 1461.48 744.64 1463.73C713.609 1473.73 699.747 1515.5 699.614 1515.92C697.821 1521.46 692.671 1525 687.158 1525H687.146Z" fill="#592832"/>
<path d="M613.172 1525C611.852 1525 610.494 1524.78 609.174 1524.36C602.316 1522.14 598.523 1514.81 600.716 1507.94C601.419 1505.7 618.698 1453.01 662.609 1438.8C669.612 1436.63 676.883 1440.38 679.1 1447.23C681.317 1454.12 677.549 1461.48 670.667 1463.73C639.635 1473.73 625.774 1515.5 625.641 1515.92C623.847 1521.46 618.698 1525 613.184 1525H613.172Z" fill="#592832"/>
<path d="M324.064 843.259C278.651 856.345 240.725 946.252 241.428 1006.76C242.13 1067.27 287.859 1153.1 330.074 1177.03C372.289 1200.95 423.653 1170.69 422.235 1122.85C420.999 1080.99 399.843 1015.43 330.002 969.056C336.533 929.858 333.564 887.606 324.052 843.259H324.064Z" fill="#EAAC71"/>
<path d="M359.288 1177.02C317.073 1153.1 271.344 1067.26 270.641 1006.75C270.084 958.308 294.281 891.047 327.263 859.435C326.306 854.067 325.24 848.675 324.077 843.247C278.663 856.333 240.737 946.24 241.44 1006.75C242.143 1067.26 287.872 1153.09 330.087 1177.02C345.099 1185.52 361.263 1187.15 375.803 1183.6C370.23 1182.23 364.692 1180.07 359.288 1177.02Z" fill="#F5D7BB"/>
<path d="M277.548 1118.75C293.142 1144.99 311.935 1166.73 330.086 1177.02C372.301 1200.94 423.665 1170.68 422.247 1122.84C421.678 1103.49 416.831 1079.06 404.896 1053.81C397.056 1052.08 388.926 1051.14 380.577 1051.14C334.448 1051.14 294.826 1078.97 277.548 1118.75Z" fill="#AE6745"/>
<path d="M336.52 1180.19C337.987 1180.82 339.453 1181.4 340.931 1181.91C341.198 1182.01 341.452 1182.11 341.719 1182.2C343.476 1182.78 345.245 1183.28 347.014 1183.7C347.304 1183.78 347.607 1183.83 347.898 1183.9C349.485 1184.25 351.073 1184.54 352.66 1184.76C352.902 1184.8 353.145 1184.83 353.387 1184.87C357.107 1185.34 360.803 1185.47 364.45 1185.28C364.571 1185.28 364.692 1185.28 364.801 1185.26C368.533 1185.04 372.217 1184.48 375.803 1183.61C370.229 1182.24 364.692 1180.08 359.288 1177.03C335.466 1163.53 310.518 1130.31 293.179 1093.05C286.89 1100.84 281.595 1109.45 277.548 1118.76C281.292 1125.07 285.23 1131.11 289.301 1136.8C289.531 1137.13 289.762 1137.46 289.992 1137.77C290.804 1138.9 291.628 1140.01 292.452 1141.1C292.779 1141.55 293.118 1141.99 293.457 1142.42C294.233 1143.44 295.02 1144.45 295.796 1145.44C296.196 1145.94 296.583 1146.43 296.983 1146.92C297.735 1147.85 298.498 1148.78 299.261 1149.69C299.685 1150.2 300.122 1150.7 300.558 1151.21C301.309 1152.08 302.048 1152.95 302.799 1153.8C303.248 1154.3 303.696 1154.78 304.144 1155.27C305.368 1156.61 306.592 1157.91 307.828 1159.18C308.494 1159.86 309.161 1160.55 309.827 1161.2C310.384 1161.76 310.954 1162.28 311.523 1162.82C312.202 1163.46 312.881 1164.11 313.571 1164.73C314.129 1165.24 314.674 1165.72 315.231 1166.21C315.934 1166.83 316.637 1167.43 317.34 1168.03C317.873 1168.47 318.406 1168.91 318.939 1169.33C319.678 1169.93 320.429 1170.51 321.168 1171.07C321.665 1171.44 322.162 1171.82 322.659 1172.18C323.495 1172.79 324.319 1173.36 325.143 1173.91C325.555 1174.19 325.967 1174.48 326.379 1174.75C327.615 1175.55 328.863 1176.31 330.086 1177.02C331.771 1177.97 333.467 1178.81 335.175 1179.59C335.624 1179.79 336.072 1179.99 336.533 1180.18L336.52 1180.19Z" fill="#C18B71"/>
<path d="M361.36 1198.52C348.492 1198.52 335.551 1195.16 323.641 1188.38C276.312 1161.57 229.117 1071.69 228.366 1006.91C227.578 939.345 268.473 845.658 320.442 830.682C323.931 829.7 327.688 830.148 330.777 832.027C333.904 833.88 336.097 836.946 336.872 840.508C346.675 886.152 349.074 926.295 344.179 962.888C425.991 1021.06 434.655 1099.35 435.333 1122.47C436.121 1149.48 422.853 1173.87 399.831 1187.73C387.908 1194.93 374.677 1198.52 361.36 1198.52ZM314.504 862.428C281.535 885.862 253.957 956.721 254.526 1006.62C255.168 1061.68 297.335 1143.4 336.545 1165.61C352.418 1174.63 371.054 1174.52 386.321 1165.31C401.14 1156.38 409.682 1140.64 409.173 1123.23C408.555 1102.68 400.546 1031.58 322.78 979.949C318.479 977.089 316.261 971.988 317.11 966.887C322.308 935.686 321.46 901.395 314.492 862.416L314.504 862.428Z" fill="#592832"/>
<path d="M330.002 982.13C327.53 982.13 325.022 981.427 322.78 979.961C313.026 973.491 302.46 967.541 291.41 962.307C284.867 959.217 282.08 951.426 285.194 944.883C288.284 938.304 296.123 935.517 302.618 938.667C314.795 944.423 326.452 950.978 337.272 958.151C343.282 962.137 344.942 970.268 340.931 976.302C338.423 980.095 334.243 982.142 330.002 982.142V982.13Z" fill="#592832"/>
<path d="M358.985 1191.18C353.315 1191.18 348.529 1186.82 348.105 1181.06C345.996 1152.18 329.699 1138.59 328.996 1138.04C324.356 1134.24 323.592 1127.39 327.336 1122.7C331.129 1118 337.878 1117.22 342.591 1120.89C343.597 1121.68 367.067 1140.53 369.915 1179.44C370.363 1185.46 365.819 1190.71 359.822 1191.16C359.543 1191.18 359.264 1191.18 358.985 1191.18Z" fill="#592832"/>
<path d="M400.655 1171.04C394.984 1171.04 390.198 1166.68 389.774 1160.93C387.666 1132.03 371.369 1118.43 370.666 1117.87C366.025 1114.08 365.262 1107.22 369.006 1102.53C372.774 1097.83 379.548 1097.08 384.261 1100.73C385.267 1101.52 408.737 1120.37 411.584 1159.3C412.033 1165.32 407.489 1170.57 401.491 1171.02C401.212 1171.04 400.934 1171.04 400.655 1171.04Z" fill="#592832"/>
<path d="M489.132 1159.21C489.52 1159.7 489.908 1160.2 490.295 1160.68C489.908 1160.21 489.52 1159.71 489.132 1159.21Z" fill="#D6823C"/>
<path d="M485.17 1153.44C485.776 1154.41 486.394 1155.35 487.024 1156.27C486.394 1155.35 485.764 1154.44 485.17 1153.44Z" fill="#D6823C"/>
<path d="M948.881 464.935C933.408 389.956 883.002 309.646 812.664 242.628L815.633 240.216C859.665 204.653 901.371 126.306 842.701 66.7155C783.535 6.60386 677.695 65.7703 574.617 108.797C539.551 101.588 504.46 99.9883 470.557 105.659L392.816 118.685C358.331 124.464 324.998 137.793 293.494 156.574C181.183 149.704 60.0754 127.215 23.4099 203.999C-12.6134 279.463 52.3449 339.926 105.562 359.191L109.173 360.561C63.5166 447.014 43.0513 539.139 52.8659 615.075C76.0333 794.283 204.169 917.002 535.855 861.41L572.569 855.255C904.267 799.675 985.389 641.889 948.869 464.923L948.881 464.935Z" fill="#E8AB71"/>
<path d="M948.881 464.935C933.408 389.956 883.002 309.646 812.664 242.628L815.633 240.216C859.665 204.653 901.371 126.306 842.701 66.7155C783.535 6.60386 677.695 65.7703 574.617 108.797C539.551 101.588 504.46 99.9883 470.557 105.659L392.816 118.685C358.331 124.464 324.998 137.793 293.494 156.574C181.183 149.704 60.0754 127.215 23.4099 203.999C-12.6134 279.463 52.3449 339.926 105.562 359.191L109.173 360.561C63.5166 447.014 43.0513 539.139 52.8659 615.075C76.0333 794.283 204.169 917.002 535.855 861.41L572.569 855.255C904.267 799.675 985.389 641.889 948.869 464.923L948.881 464.935Z" fill="#E8AB71"/>
<path d="M948.905 464.959C933.396 389.943 883.026 309.621 812.7 242.615L815.657 240.228C859.665 204.653 901.395 126.305 842.726 66.7391C823.436 47.1219 798.79 41.0514 771.236 42.1419C772.836 43.5353 774.774 44.1654 776.289 45.7285C834.959 105.343 807.308 131.455 763.251 167.03L692.743 156.779C785.837 235.296 867.02 368.993 882.481 443.96C919.001 620.914 837.903 778.688 506.181 834.304L469.467 840.423C363.493 858.198 280.311 856.138 212.663 841.465C288.005 874.617 391.834 885.57 535.891 861.433L572.605 855.266C904.279 799.698 985.426 641.913 948.905 464.971V464.959Z" fill="#D6813A"/>
<path d="M190.162 232.776L64.3161 336.727C77.5841 346.614 91.9667 354.26 105.586 359.191L109.197 360.56C63.5407 447.014 43.0753 539.138 52.89 615.074C71.9861 762.839 162.571 872.072 379.657 874.75C65.1643 810.192 14.1646 588.975 190.162 232.776Z" fill="#F4D6BA"/>
<path d="M389.714 210.615C389.714 210.615 364.753 161.893 323.677 140.664C313.462 145.414 303.393 150.697 293.518 156.586C272.423 155.301 251.024 153.459 229.929 151.824C227.784 153.423 225.64 154.986 223.471 156.792C148.043 280.928 307.864 302.084 389.714 210.615Z" fill="#D6813A"/>
<path d="M509.246 602.752C513.838 630.124 493.7 656.308 464.281 661.228C434.861 666.159 407.295 647.972 402.703 620.6C398.111 593.228 420.599 581.05 450.019 576.119C479.439 571.187 504.666 575.38 509.246 602.74V602.752Z" fill="#FFE4BF"/>
<path d="M620.055 584.189C624.647 611.561 604.509 637.745 575.089 642.665C545.669 647.596 518.104 629.409 513.511 602.037C508.919 574.665 531.408 562.487 560.828 557.556C590.247 552.624 615.474 556.817 620.055 584.177V584.189Z" fill="#FFE4BF"/>
<path d="M506.944 560.319C526.949 556.962 542.725 565.747 545.051 579.645C547.378 593.543 532.704 633.395 519.546 635.601L514.493 636.449C501.334 638.654 474.459 605.757 472.132 591.871C469.806 577.973 481.85 564.535 501.855 561.179L506.944 560.331V560.319Z" fill="#DAAA7A"/>
<path d="M37.7803 311.633C57.1915 335.406 86.0417 352.939 109.197 360.573C131.649 314.698 156.695 269.878 190.174 232.788C108.712 189.859 20.5866 241.876 37.7925 311.633H37.7803Z" fill="#EC837B"/>
<path d="M50.5392 262.293C49.8365 259.421 49.3881 256.622 49.0489 253.859C37.3077 269.829 32.4125 289.871 37.7802 311.645C57.1914 335.418 86.0416 352.951 109.197 360.584C115.34 348.031 121.714 335.575 128.366 323.313C104.956 315.255 63.2013 291.518 50.5392 262.305V262.293Z" fill="#F8B8AF"/>
<path d="M109.197 373.671C107.84 373.671 106.446 373.453 105.101 373.017C82.5398 365.589 50.3454 347.729 27.6384 319.921C26.4025 318.406 25.5301 316.661 25.0575 314.771C16.9877 281.995 28.632 249.534 56.2341 227.93C93.5903 198.692 148.564 196.05 196.256 221.205C199.831 223.095 202.351 226.524 203.054 230.511C203.757 234.473 202.581 238.556 199.879 241.561C165.455 279.705 140.664 326.028 120.95 366.328C118.696 370.933 114.068 373.671 109.197 373.671ZM49.8607 305.659C65.4308 323.762 86.1385 336.751 102.763 344.057C120.078 309.452 141.185 271.453 168.872 237.502C128.123 222.247 92.1484 233.031 72.3617 248.54C53.6411 263.19 45.5229 283.873 49.8486 305.659H49.8607Z" fill="#592832"/>
<path d="M577.306 641.429C552.418 645.912 528.609 636.473 513.875 618.722C505.32 640.677 485.667 657.944 460.779 662.427C446.36 665.02 432.425 662.742 420.284 657.084C431.832 690.053 466.449 769.673 528.609 758.477L542.64 755.945C604.969 744.712 613.463 656.841 614.347 621.824C604.533 631.614 591.907 638.799 577.306 641.429Z" fill="#592832"/>
<path d="M513.875 618.722C505.902 639.163 488.26 655.4 465.783 661.179L488.781 704.364C492.452 711.258 499.807 714.954 507.186 713.609L520.466 711.186L536.097 708.338L549.377 705.915C556.756 704.57 562.572 698.475 563.929 690.672L572.338 642.192L572.302 641.986C549.268 644.434 527.615 635.274 513.875 618.71V618.722Z" fill="white"/>
<path d="M454.624 676.483C423.18 676.483 394.197 656.054 382.734 624.296C380.141 617.123 383.861 609.198 391.059 606.593C398.147 603.976 406.181 607.744 408.761 614.917C417.17 638.279 439.902 652.298 462.669 648.081C479.948 644.955 494.549 631.942 500.837 614.106C502.521 609.332 506.677 605.866 511.682 605.054C516.686 604.206 521.714 606.242 524.829 610.228C535.964 624.611 553.497 631.566 570.582 628.525C593.713 624.332 611.112 602.861 611.985 577.452C612.239 569.831 618.928 563.966 626.271 564.099C633.916 564.354 639.878 570.739 639.623 578.385C638.327 616.723 611.355 649.244 575.513 655.739C555.024 659.507 534.219 654.188 517.728 641.768C506.035 659.301 488.042 671.588 467.613 675.296C463.263 676.083 458.925 676.471 454.624 676.471V676.483Z" fill="#592832"/>
<path d="M507.707 560.258C529.796 556.32 546.481 562.136 548.129 572.835C549.777 583.534 531.129 615.644 516.601 618.237L511.015 619.23C496.475 621.823 469.224 597.905 467.588 587.194C465.94 576.494 479.996 565.189 502.085 561.251L507.707 560.246V560.258Z" fill="#592832"/>
<path d="M504.169 727.713C492.816 727.713 482.165 721.388 476.567 710.87L453.581 667.674C451.582 663.93 451.412 659.471 453.133 655.593C454.842 651.716 458.222 648.82 462.33 647.778C479.984 643.246 494.427 630.499 500.982 613.705C502.751 609.149 506.823 605.866 511.657 605.078C516.625 604.29 521.387 606.12 524.525 609.888C535.661 623.29 553.024 630.317 570.824 628.245C577.961 627.518 584.286 632.123 585.8 639.005C586.2 640.774 586.285 642.774 585.97 644.567L577.561 693.046C575.222 706.532 564.887 717.183 551.849 719.546L509.682 727.24C507.828 727.579 505.999 727.725 504.169 727.725V727.713ZM485.424 668.607L500.995 697.869C501.831 699.408 503.151 700.062 504.726 700.001L546.893 692.307C548.553 692.004 549.934 690.344 550.298 688.284L555.944 655.739C541.998 654.2 528.791 649.111 517.582 641.005C509.404 652.746 498.329 662.257 485.424 668.607Z" fill="#592832"/>
<path d="M526.343 703.891C523.677 703.891 521.339 701.952 520.915 699.25L511.197 636.849C510.724 633.844 512.796 631.033 515.777 630.56C518.927 630.003 521.593 632.135 522.066 635.14L531.783 697.542C532.256 700.547 530.184 703.358 527.203 703.83C526.9 703.879 526.634 703.891 526.355 703.891H526.343Z" fill="#592832"/>
<path d="M864.233 173.137C854.164 200.315 833.42 226.597 812.676 242.627C776.483 206.58 738.206 172.435 694.476 148.274C757.484 81.1343 857.762 101.587 864.245 173.137H864.233Z" fill="#EC837B"/>
<path d="M832.16 120.551C835.589 127.772 837.842 135.842 838.642 144.7C828.573 171.878 807.829 198.159 787.085 214.19C760.367 187.581 732.499 162.039 702.158 140.75C699.553 143.137 696.972 145.608 694.476 148.274C738.206 172.435 776.495 206.58 812.676 242.628C833.42 226.609 854.164 200.328 864.245 173.138C862.125 149.668 849.862 131.735 832.172 120.551H832.16Z" fill="#F8B8AF"/>
<path d="M812.688 255.702C809.319 255.702 805.999 254.429 803.443 251.885C771.733 220.296 733.201 184.624 688.151 159.748C684.613 157.785 682.189 154.32 681.547 150.334C680.929 146.335 682.165 142.288 684.928 139.344C721.824 100.025 774.592 84.5877 819.473 100.025C852.613 111.439 874.217 138.338 877.258 171.974C877.428 173.913 877.173 175.852 876.495 177.681C866.208 205.477 844.821 234.34 820.673 252.975C818.31 254.805 815.499 255.702 812.688 255.702ZM716.165 145.814C753.436 168.884 785.752 197.868 813.378 224.901C829.263 210.179 843.283 190.331 850.892 171.417C847.863 149.413 833.444 132.498 810.979 124.767C787.23 116.564 749.704 118.042 716.177 145.814H716.165Z" fill="#592832"/>
<path d="M388.187 887.921C288.296 887.921 208.724 866.329 150.66 823.253C88.9616 777.5 51.7023 708.022 39.9005 616.758C30.2919 542.47 48.867 452.309 90.973 367.406C60.7536 353.969 24.0275 326.621 7.94845 287.411C-3.79276 258.767 -2.53261 227.99 11.6077 198.364C47.0737 124.1 148.928 132.206 247.535 140.094C261.784 141.221 276.118 142.372 290.319 143.293C323.483 124.015 357.216 111.414 390.659 105.804L468.376 92.766C501.225 87.2529 536.485 88.0647 573.247 95.1894C585.497 90.0398 597.759 84.672 609.961 79.3406C700.583 39.7913 794.282 -1.09093 852.007 57.5303C875.005 80.9158 886.261 109.608 884.492 140.506C882.081 182.782 856.308 220.586 832.038 243.257C899.808 310.99 946.797 390.174 961.688 462.293C980.288 552.406 967.71 630.232 924.308 693.603C864.754 780.542 747.148 839.272 574.725 868.17L538.023 874.326C483.885 883.401 433.891 887.909 388.162 887.909L388.187 887.921ZM155.289 161.238C99.2124 161.238 53.6895 170.992 35.2234 209.657C24.2092 232.74 23.1914 255.556 32.1821 277.499C46.8192 313.22 83.2788 337.223 110.057 346.917L113.85 348.346C117.339 349.691 120.114 352.454 121.459 355.968C122.78 359.457 122.549 363.383 120.78 366.703C76.4812 450.649 56.4521 540.568 65.8669 613.414C76.7236 697.372 110.505 760.888 166.267 802.255C244.966 860.609 368.63 876.18 533.722 848.541L570.424 842.386C735.552 814.723 847.378 759.676 902.752 678.833C941.986 621.581 953.207 550.504 936.086 467.612C921.497 396.959 873.236 318.43 803.673 252.127C800.947 249.534 799.48 245.886 799.626 242.142C799.771 238.374 801.516 234.884 804.436 232.497L807.393 230.086C829.591 212.177 856.211 177.608 858.429 139.052C859.774 115.388 851.353 94.1595 833.408 75.9236C788.297 30.1099 706.811 65.6607 620.503 103.356C606.932 109.281 593.3 115.243 579.717 120.901C577.306 121.907 574.58 122.174 572.047 121.653C536.993 114.431 503.551 113.449 472.774 118.611L395.033 131.649C363.614 136.908 331.734 149.097 300.255 167.878C297.953 169.223 295.226 169.756 292.73 169.684C277.075 168.726 261.251 167.466 245.487 166.206C214.153 163.71 183.424 161.262 155.301 161.262L155.289 161.238Z" fill="#592832"/>
<path d="M271.417 639.514C314.841 639.514 350.043 604.312 350.043 560.888C350.043 517.464 314.841 482.262 271.417 482.262C227.993 482.262 192.791 517.464 192.791 560.888C192.791 604.312 227.993 639.514 271.417 639.514Z" fill="#592832"/>
<path d="M300.704 560.827C311.391 560.827 320.054 552.164 320.054 541.477C320.054 530.79 311.391 522.126 300.704 522.126C290.017 522.126 281.353 530.79 281.353 541.477C281.353 552.164 290.017 560.827 300.704 560.827Z" fill="white"/>
<path d="M404.157 194.015C358.622 258.234 245.851 266.861 233.903 218.309C221.993 169.89 302.424 146.492 302.424 146.492C302.424 146.492 196.923 119.775 217.715 39.9491C238.508 -39.8645 327.179 81.6916 535.988 103.211C514.699 155.362 467.164 182.164 404.157 194.015Z" fill="#E8AB71"/>
<path d="M270.872 165.964C238.568 188.38 277.366 221.326 319.084 212.905C361.663 204.302 396.354 188.114 395.784 202.206C395.215 216.286 350.176 259.918 276.482 248.359C202.787 236.799 239.344 184.333 247.644 177.003C255.956 169.684 270.872 165.964 270.872 165.964Z" fill="#D6813A"/>
<path d="M291.18 262.427C283.619 262.427 276.361 261.785 269.587 260.512C243.754 255.593 226.112 241.368 221.193 221.448C212.735 186.987 238.871 161.942 267.006 146.905C248.407 137.793 226.197 123.071 213.123 100.958C201.709 81.6194 198.983 60.003 205.053 36.6538C209.464 19.8115 217.061 9.00324 228.317 3.65972C249.728 -6.60324 277.439 6.0225 319.266 25.0823C370.254 48.3224 440.071 80.1654 537.345 90.1981C560.222 92.9002 576.967 95.9052 576.967 95.9052C584.08 97.1774 588.805 103.975 587.557 111.088C586.285 118.224 579.33 122.974 572.375 121.678C572.205 121.629 556.162 118.782 534.485 116.201C433.14 105.768 358.089 71.5382 308.422 48.8918C277.112 34.6182 250.019 22.1379 239.562 27.2997C235.794 29.0929 232.704 34.4607 230.426 43.2575C226.1 59.7849 227.833 74.2887 235.648 87.5567C255.071 120.502 305.187 133.685 305.695 133.819C311.403 135.273 315.425 140.374 315.534 146.263C315.619 152.164 311.79 157.398 306.12 159.058C305.441 159.252 238.023 180.081 246.65 215.183C249.861 228.245 265.48 233.08 274.507 234.776C310.397 241.658 366.134 225.058 393.53 186.454C397.711 180.578 405.817 179.087 411.766 183.34C417.667 187.521 419.048 195.699 414.88 201.576C386.163 242.107 333.819 262.427 291.216 262.427H291.18Z" fill="#592832"/>
<path d="M648.965 903.346C648.965 903.346 707.356 820.71 767.928 770.291C803.019 741.078 777.949 702.571 807.041 690.223C836.134 677.876 846.76 709.647 846.76 709.647C846.76 709.647 910.447 646.894 948.59 697.069C986.734 747.245 972.715 803.746 889.642 856.382C821.557 899.53 740.072 1018.21 740.072 1018.21" fill="#EAAC71"/>
<path d="M882.456 726.501C922.418 705.588 935.153 701.965 947.887 711.04C950.105 712.664 951.086 708.096 951.341 701.456C950.323 700.002 949.681 698.511 948.614 697.069C910.446 646.894 846.76 709.635 846.76 709.635C846.76 709.635 836.158 677.901 807.017 690.211C777.961 702.57 803.019 741.078 767.916 770.291C707.344 820.722 648.517 898.015 648.517 898.015L653.085 896.379C683.874 899.118 689.872 900.681 731.747 854.758C774.18 808.241 842.459 747.415 882.456 726.489V726.501Z" fill="#D6813A"/>
<path d="M948.615 697.069C910.447 646.894 846.761 709.635 846.761 709.635C846.761 709.635 836.158 677.901 807.017 690.211C777.961 702.57 803.019 741.078 767.916 770.291C767.238 770.885 766.559 771.527 765.869 772.085C786.491 815.451 823.933 850.166 870.401 870.74C876.871 865.59 883.353 860.392 889.654 856.382C972.715 803.734 986.734 747.245 948.615 697.069Z" fill="#AD6746"/>
<path d="M784.274 802.752C819.158 770.51 856.611 740.048 882.469 726.501C922.43 705.588 935.165 701.965 947.9 711.04C950.117 712.664 951.098 708.096 951.353 701.456C950.335 700.002 949.729 698.511 948.627 697.069C910.459 646.894 846.773 709.635 846.773 709.635C846.773 709.635 836.17 677.901 807.029 690.211C777.973 702.57 803.031 741.078 767.928 770.291C767.25 770.849 766.571 771.527 765.881 772.121C771.03 782.893 777.21 793.12 784.286 802.752H784.274Z" fill="#924921"/>
<path d="M767.916 1022.24C765.844 1022.24 763.736 1021.73 761.761 1020.69C755.388 1017.28 752.988 1009.36 756.393 1002.97C758.756 998.56 814.99 894.258 881.996 845.803C923.993 815.414 948.469 784.165 952.734 755.448C955.327 737.818 950.578 721.327 938.182 705.018C931.433 696.136 923.618 691.495 914.263 690.817C891.968 689.302 864.512 710.604 855.945 719.001C852.71 722.151 848.154 723.448 843.695 722.381C839.333 721.315 835.795 718.104 834.341 713.815C833.444 711.258 829.785 703.867 824.114 701.359C822.963 700.85 819.316 699.25 812.143 702.292C805.794 704.969 804.642 709.065 802.898 723.969C801.02 739.987 798.463 761.906 776.289 780.348C717.413 829.361 662.27 896.209 661.724 896.876C657.108 902.498 648.844 903.261 643.295 898.681C637.709 894.077 636.909 885.837 641.489 880.251C643.816 877.44 698.717 810.858 759.556 760.234C773.672 748.481 775.259 735.08 776.919 720.915C778.688 705.854 780.881 687.109 801.928 678.167C816.578 671.987 827.98 674.35 834.959 677.525C841.514 680.481 846.506 685.001 850.214 689.581C864.851 678.373 890.066 663.191 916.069 664.681C933.154 665.917 947.597 674.132 959.011 689.157C975.672 711.076 982.251 734.656 978.604 759.277C973.212 795.64 945.864 831.881 897.324 867.008C835.177 911.949 780.033 1014.28 779.476 1015.32C777.113 1019.73 772.593 1022.24 767.916 1022.24Z" fill="#592832"/>
<path d="M899.287 742.677C896.137 742.677 892.998 741.32 890.829 738.691C887.001 734.026 887.679 727.131 892.344 723.29C893.132 722.648 912.022 707.163 938.291 690.066C943.295 686.831 950.117 688.188 953.413 693.265C956.709 698.318 955.291 705.091 950.214 708.387C925.035 724.805 906.424 740.036 906.23 740.205C904.182 741.865 901.735 742.677 899.287 742.677Z" fill="#592832"/>
<path d="M920.625 779.233C916.517 779.233 912.591 776.907 910.737 772.969C908.157 767.517 910.507 760.998 915.936 758.417C916.069 758.356 929.034 752.092 951.935 733.735C956.636 729.991 963.543 730.694 967.287 735.419C971.079 740.12 970.316 747.003 965.602 750.771C940.339 771.043 925.835 777.925 925.217 778.204C923.727 778.906 922.152 779.221 920.613 779.221L920.625 779.233Z" fill="#592832"/>
<path d="M642.592 512.397C639.563 512.397 636.521 511.609 633.735 509.973C625.422 505.054 622.696 494.367 627.603 486.079C646.203 454.684 673.223 434.255 703.709 428.524C733.226 422.938 763.942 431.25 790.248 451.885C797.833 457.822 799.178 468.8 793.228 476.373C787.279 483.946 776.337 485.279 768.74 479.354C750.468 465.044 729.554 459.143 710.167 462.802C689.375 466.704 671.236 480.881 657.641 503.83C654.382 509.343 648.566 512.397 642.604 512.397H642.592Z" fill="#592832"/>
<path d="M991.508 866.681C988.419 866.681 985.329 865.614 982.857 863.421C977.429 858.623 976.92 850.359 981.682 844.955C1047.6 770.218 1023.13 689.787 1022.07 686.406C1019.9 679.548 1023.67 672.181 1030.55 669.988C1037.43 667.795 1044.77 671.539 1046.99 678.397C1048.26 682.335 1077.37 776.01 1001.32 862.246C998.73 865.19 995.119 866.681 991.508 866.681Z" fill="#592832"/>
<path d="M1068.66 840.908C1065.8 840.908 1062.92 839.987 1060.53 838.072C1054.85 833.601 1053.92 825.362 1058.42 819.691C1099.4 768.025 1079.84 714.99 1079.63 714.457C1077.05 707.707 1080.45 700.147 1087.19 697.566C1093.86 695.033 1101.47 698.353 1104.09 705.127C1105.13 707.853 1129.07 772.726 1078.91 835.964C1076.33 839.224 1072.52 840.908 1068.66 840.908Z" fill="#592832"/>
</g>
<defs>
<clipPath id="clip0_971_2455">
<rect width="1482.77" height="1525" fill="white"/>
</clipPath>
</defs>
</svg>
