<svg width="1012" height="1281" viewBox="0 0 1012 1281" fill="none" xmlns="http://www.w3.org/2000/svg">
<path d="M631.394 1130.84C758.97 1122.52 775.45 1005.73 725.559 866.846C675.705 727.959 713.985 625.03 820.548 613.231C927.11 601.432 1027.01 729.982 990.374 893.777C953.742 1057.61 799.01 1208.41 591.99 1215.38L631.432 1130.84H631.394Z" fill="#EAAC71"/>
<path d="M631.394 1130.84C758.97 1122.52 775.45 1005.73 725.559 866.846C675.705 727.959 713.985 625.03 820.548 613.231C927.11 601.432 1027.01 729.982 990.374 893.777C953.742 1057.61 799.01 1208.41 591.99 1215.38L631.432 1130.84H631.394Z" fill="#AE6745"/>
<path d="M662.745 1130.84C790.321 1122.52 802.232 996.445 752.378 857.558C702.823 719.495 744.924 626.341 849.988 613.494C840.287 612.258 830.474 612.146 820.548 613.232C713.985 625.03 675.705 727.96 725.559 866.847C775.413 1005.73 758.933 1122.52 631.394 1130.84L591.953 1215.38C602.928 1215 613.715 1214.22 624.39 1213.05L662.745 1130.84Z" fill="#C18B71"/>
<path d="M918.156 862.801C915.871 860.404 912.163 860.367 909.803 862.614C902.537 869.656 895.046 877.11 887.517 884.976C876.093 864.412 862.796 843.249 849.012 822.798C862.009 808.565 875.681 794.257 889.464 780.81C894.896 790.511 899.952 800.287 904.484 809.951C905.496 812.123 907.631 813.359 909.841 813.359C910.665 813.359 911.526 813.172 912.35 812.798C915.272 811.374 916.545 807.891 915.16 804.932C910.065 794.107 904.335 783.207 898.267 772.345C903.436 767.476 908.567 762.756 913.736 758.224C916.171 756.051 916.396 752.306 914.261 749.909C912.088 747.474 908.342 747.249 905.945 749.384C901.413 753.43 896.806 757.587 892.236 761.895C878.715 738.859 863.695 716.423 849.124 696.047C854.181 691.065 859.387 686.158 864.631 681.326C867.028 679.154 867.178 675.408 865.006 672.974C862.758 670.539 859.05 670.427 856.653 672.637C851.746 677.169 846.877 681.776 842.083 686.383C832.943 673.948 824.104 662.411 816.05 652.223C814.028 649.676 810.357 649.227 807.773 651.287C805.226 653.309 804.814 656.98 806.836 659.564C815.114 670.052 824.216 681.926 833.655 694.811C817.923 710.542 803.166 726.611 790.019 741.668C766.983 712.003 750.128 692.189 749.678 691.664C747.581 689.192 743.835 688.893 741.4 691.028C738.928 693.163 738.629 696.833 740.726 699.305C741.176 699.83 758.593 720.281 782.153 750.77C766.271 769.423 753.199 785.941 744.247 797.628C736.569 788.189 731.849 782.72 731.624 782.496C729.489 780.023 725.781 779.724 723.309 781.859C720.874 783.994 720.575 787.702 722.71 790.137C722.935 790.399 728.291 796.654 736.943 807.291C733.16 812.348 731.063 815.307 730.988 815.457C729.077 818.116 729.714 821.787 732.373 823.66C733.422 824.409 734.583 824.746 735.782 824.746C737.617 824.746 739.453 823.885 740.576 822.274C740.651 822.162 742.037 820.214 744.547 816.805C756.42 831.75 772.002 851.977 788.408 875.05C773.912 892.691 762.039 907.936 753.986 918.386C751.251 914.603 748.555 910.97 745.933 907.487C743.985 904.94 740.277 904.415 737.655 906.4C735.07 908.386 734.583 912.094 736.569 914.678C739.79 918.873 743.123 923.443 746.532 928.2C744.097 931.459 742.749 933.294 742.636 933.444C740.689 936.028 741.251 939.736 743.91 941.684C744.959 942.433 746.157 942.845 747.356 942.845C749.191 942.845 750.989 941.984 752.15 940.411C752.225 940.336 752.712 939.587 753.649 938.388C765.522 955.805 777.958 975.657 789.681 995.996C777.508 1010.75 766.646 1024.2 757.881 1035.21C756.945 1034.01 756.308 1033.26 756.158 1033.08C754.098 1030.57 750.352 1030.23 747.88 1032.29C745.371 1034.35 744.996 1038.06 747.056 1040.57C747.131 1040.64 748.367 1042.14 750.315 1044.73C740.427 1057.2 734.546 1064.84 734.321 1065.18C732.336 1067.76 732.823 1071.47 735.37 1073.45C736.456 1074.28 737.73 1074.69 738.966 1074.69C740.726 1074.69 742.487 1073.87 743.648 1072.37C743.835 1072.07 748.929 1065.51 757.469 1054.69C764.623 1065.21 773.088 1079.71 774.774 1091.17C775.223 1094.09 777.695 1096.23 780.58 1096.23C780.879 1096.23 781.141 1096.23 781.441 1096.15C784.662 1095.7 786.872 1092.71 786.423 1089.49C784.25 1074.62 773.238 1056.67 765.11 1045.1C773.538 1034.5 784.063 1021.47 795.899 1007.05C805.975 1025.02 815.376 1043 823.205 1059.67C824.216 1061.84 826.351 1063.08 828.523 1063.08C829.385 1063.08 830.209 1062.89 831.07 1062.52C833.992 1061.09 835.266 1057.61 833.88 1054.65C825.34 1036.52 815.002 1016.82 803.915 997.307C815.077 983.822 827.212 969.477 839.835 954.944C846.802 967.229 853.282 979.552 859.013 991.725C860.024 993.898 862.122 995.134 864.369 995.134C865.193 995.134 866.054 994.947 866.841 994.572C869.8 993.149 871.074 989.665 869.65 986.706C863.245 973.11 855.904 959.289 848.038 945.58C860.099 931.833 872.497 918.049 884.782 904.977C887.217 909.697 889.539 914.379 891.674 918.986C892.686 921.121 894.821 922.394 896.993 922.394C897.855 922.394 898.679 922.207 899.54 921.832C902.462 920.446 903.735 916.926 902.349 914.004C899.54 908.086 896.544 902.055 893.323 895.95C901.713 887.223 909.953 878.908 917.931 871.192C920.254 868.907 920.328 865.161 918.081 862.876L918.156 862.801ZM840.622 704.474C855.23 724.888 870.137 747.324 883.472 770.247C869.425 783.844 855.529 798.302 842.232 812.798C826.913 790.511 811.294 769.386 797.36 751.182C810.357 736.2 824.965 720.206 840.622 704.437V704.474ZM751.888 807.067C760.428 795.83 773.463 779.274 789.532 760.321C803.428 778.563 818.972 799.65 834.104 821.787C820.508 836.882 807.698 851.827 796.199 865.648C779.456 842.201 763.649 821.787 751.888 807.067ZM797.734 986.332C785.748 965.806 773.163 945.804 761.177 928.462C768.706 918.574 780.654 903.217 795.487 885.05C808.372 903.629 821.557 923.705 833.617 944.119C821.07 958.539 808.896 972.848 797.697 986.332H797.734ZM841.783 934.792C829.535 914.229 816.2 894.115 803.241 875.611C814.627 861.903 827.325 846.958 840.884 831.863C854.63 852.351 867.815 873.476 878.977 893.928C866.579 907.075 854.031 920.896 841.783 934.792Z" fill="#924921"/>
<path d="M770.018 916.999C768.895 912.205 767.734 907.336 766.423 902.466C761.666 908.497 757.508 913.928 754.025 918.385C751.29 914.602 748.594 910.969 745.972 907.485C744.099 905.051 740.615 904.489 738.068 906.174C739.529 911.531 740.878 916.812 742.114 922.018C743.574 924.079 745.073 926.101 746.571 928.236C745.597 929.547 744.811 930.558 744.211 931.42C745.035 935.24 745.784 939.023 746.421 942.807C746.758 942.881 747.095 942.882 747.395 942.882C749.23 942.882 751.028 942.02 752.189 940.447C752.264 940.372 752.751 939.623 753.688 938.424C762.078 950.71 770.693 964.231 779.195 978.277C778.708 969.625 777.809 960.748 776.536 951.646C771.367 943.593 766.235 935.765 761.179 928.498C763.651 925.24 766.647 921.382 770.018 916.999Z" fill="#A66A49"/>
<path d="M739.787 697.769C740.611 695.222 741.548 692.712 742.521 690.277C742.109 690.465 741.697 690.727 741.36 691.027C739.375 692.749 738.813 695.446 739.787 697.769Z" fill="#A66A49"/>
<path d="M779.265 1008.73C771.287 1018.51 764.058 1027.46 757.915 1035.21C756.978 1034.01 756.342 1033.26 756.192 1033.08C754.356 1030.83 751.173 1030.34 748.775 1031.73C748.214 1034.65 747.652 1037.53 746.978 1040.38C746.978 1040.45 747.052 1040.53 747.09 1040.57C747.127 1040.6 748.401 1042.14 750.349 1044.72C747.614 1048.21 745.18 1051.28 743.082 1053.94C740.797 1060.61 738.063 1066.94 734.842 1072.89C735.029 1073.08 735.179 1073.27 735.404 1073.45C736.49 1074.28 737.763 1074.69 738.999 1074.69C740.76 1074.69 742.52 1073.87 743.681 1072.37C743.869 1072.07 748.963 1065.51 757.503 1054.69C760.125 1058.55 762.934 1062.93 765.481 1067.46C767.541 1063.08 769.376 1058.51 770.949 1053.71C768.964 1050.57 767.017 1047.65 765.144 1045.02C768.665 1040.6 772.56 1035.74 776.718 1030.57C777.954 1023.52 778.778 1016.26 779.265 1008.73Z" fill="#A66A49"/>
<path d="M736.943 807.291C733.16 812.347 731.063 815.306 730.988 815.456C729.077 818.116 729.714 821.786 732.373 823.659C733.422 824.408 734.583 824.745 735.782 824.745C737.617 824.745 739.453 823.884 740.576 822.273C740.576 822.198 740.801 821.936 741.176 821.412C737.992 808.901 735.595 796.841 734.022 785.267C732.561 783.544 731.737 782.57 731.624 782.457C729.489 779.985 725.781 779.686 723.309 781.821C720.874 783.956 720.575 787.664 722.71 790.098C722.935 790.361 728.291 796.616 736.943 807.253V807.291Z" fill="#A66A49"/>
<path d="M820.585 613.231C813.806 613.98 808.112 616.152 801.895 617.613C899.393 618.475 985.879 737.136 952.056 888.309C918.758 1037.31 783.841 1173.61 601.429 1195.22L591.99 1215.41C799.048 1208.41 953.779 1057.65 990.411 893.815C1027.04 729.982 927.148 601.432 820.585 613.231Z" fill="#924921"/>
<path d="M820.585 613.231C813.805 613.98 808.599 615.291 802.381 616.752C899.655 611.62 985.879 737.136 952.093 888.309C918.795 1037.31 783.878 1173.61 601.466 1195.22L592.027 1215.41C799.085 1208.41 953.816 1057.65 990.448 893.815C1027.08 729.982 927.185 601.432 820.622 613.231H820.585Z" stroke="#592832" stroke-width="20.2263" stroke-linecap="round" stroke-linejoin="round"/>
<path d="M631.394 1130.84C758.97 1122.52 775.45 1005.73 725.559 866.846C675.705 727.959 713.985 625.03 820.548 613.231C927.11 601.432 1027.01 729.982 990.374 893.777C953.742 1057.61 799.01 1208.41 591.99 1215.38L631.432 1130.84H631.394Z" stroke="#592832" stroke-width="20.2263" stroke-linecap="round" stroke-linejoin="round"/>
<path d="M571.766 723.353C512.361 754.891 435.089 773.919 350.55 773.919C296.126 773.919 244.699 766.016 199.115 751.97C207.28 788.677 213.835 849.43 189.077 908.237C149.935 1001.2 86.2971 1204.29 372.574 1204.29C552.813 1204.29 690.614 1028.96 646.191 893.554C624.954 839.242 572.703 791.823 571.766 723.353Z" fill="#EAAC71"/>
<path d="M211.476 908.237C234.811 852.84 230.316 795.719 222.9 758.6C214.809 756.577 206.868 754.367 199.115 751.97C207.28 788.677 213.835 849.431 189.077 908.237C149.935 1001.2 86.2971 1204.29 372.574 1204.29C375.608 1204.29 378.605 1204.22 381.601 1204.14C110.719 1197.85 172.933 999.743 211.476 908.237Z" fill="#F5D7BB"/>
<path d="M534.759 1152.94C483.182 1110.46 444.453 1041.66 436.475 957.604C423.253 818.268 240.954 798.903 198.553 880.445C196.081 889.696 192.972 898.986 189.077 908.237C149.935 1001.2 86.2971 1204.29 372.574 1204.29C433.216 1204.29 489.026 1184.44 534.722 1152.94H534.759Z" fill="#FFE5C0"/>
<path d="M438.346 1196.39C442.429 1195.41 446.436 1194.29 450.444 1193.13C451.568 1192.79 452.692 1192.45 453.815 1192.12C456.699 1191.25 459.546 1190.32 462.355 1189.38C463.629 1188.93 464.94 1188.48 466.213 1188.03C468.985 1187.06 471.719 1186.01 474.454 1184.96C475.577 1184.51 476.701 1184.1 477.825 1183.65C485.391 1180.58 492.77 1177.21 499.999 1173.58C501.085 1173.01 502.171 1172.45 503.22 1171.89C505.767 1170.58 508.276 1169.23 510.748 1167.84C511.947 1167.17 513.146 1166.5 514.344 1165.78C516.779 1164.36 519.214 1162.94 521.573 1161.48C522.622 1160.84 523.708 1160.2 524.72 1159.53C528.091 1157.39 531.424 1155.22 534.683 1152.97C531.724 1150.54 528.802 1147.99 525.956 1145.37C525.132 1144.62 524.308 1143.8 523.484 1143.01C521.461 1141.1 519.401 1139.19 517.416 1137.21C516.517 1136.31 515.618 1135.37 514.719 1134.43C512.846 1132.49 510.973 1130.5 509.138 1128.48C508.239 1127.5 507.378 1126.49 506.516 1125.52C504.718 1123.46 502.92 1121.4 501.16 1119.26C473.405 1085.63 452.205 1042.85 441.867 993.524C426.06 1016.71 400.328 1067.2 415.16 1135.26C417.295 1145.03 410.928 1154.7 401.152 1156.91C314.853 1176.53 225.258 1160.77 163.081 1103.35L162.182 1103.2C181.322 1159.94 238.705 1204.33 372.498 1204.33C395.196 1204.33 417.183 1201.56 438.233 1196.42L438.346 1196.39Z" fill="#DBAB7A"/>
<path d="M211.476 908.237C219.678 888.76 224.398 869.095 226.795 850.143C214.847 857.821 205.033 867.934 198.553 880.445C197.991 882.617 197.355 884.752 196.718 886.924C196.568 887.449 196.381 888.011 196.231 888.535C195.744 890.108 195.22 891.719 194.695 893.292C194.471 893.966 194.246 894.678 193.984 895.352C193.459 896.888 192.897 898.386 192.335 899.922C192.111 900.559 191.849 901.195 191.624 901.832C190.8 903.967 189.976 906.065 189.077 908.2C149.935 1001.17 86.2971 1204.25 372.574 1204.25C375.421 1204.25 378.23 1204.18 381.077 1204.07C110.831 1197.55 172.971 999.63 211.476 908.2V908.237Z" fill="#FFF7EC"/>
<path d="M646.193 893.553C628.851 849.205 590.871 809.501 576.974 759.16C576.263 756.576 575.626 753.954 575.064 751.294C574.952 750.845 574.877 750.433 574.764 749.983C574.203 747.287 573.678 744.552 573.266 741.781C573.266 741.743 573.266 741.668 573.266 741.631C572.892 739.046 572.592 736.424 572.367 733.765C572.292 733.091 572.255 732.417 572.217 731.742C571.993 729.008 571.843 726.236 571.805 723.39C512.4 754.928 435.128 773.955 350.589 773.955C296.166 773.955 244.738 766.052 199.154 752.006C199.529 753.729 199.903 755.527 200.278 757.325C200.39 757.849 200.503 758.374 200.615 758.935C200.915 760.396 201.177 761.857 201.477 763.355C201.551 763.842 201.664 764.329 201.739 764.854C202.076 766.764 202.413 768.749 202.75 770.734C202.825 771.221 202.9 771.746 202.975 772.232C203.2 773.581 203.387 774.967 203.574 776.39C258.635 803.808 346.507 815.232 444.192 803.92C455.167 802.01 465.917 799.8 476.405 797.253C501.875 791.073 528.132 803.845 538.694 827.892C555.924 867.184 584.653 900.894 599.073 937.789C621.51 1006.15 597.463 1084.65 544.987 1145.67C628.739 1082.67 674.623 980.002 646.268 893.59L646.193 893.553Z" fill="#D6823C"/>
<path d="M571.766 723.353C512.361 754.891 435.089 773.919 350.55 773.919C296.126 773.919 244.699 766.016 199.115 751.97C207.28 788.677 213.835 849.43 189.077 908.237C149.935 1001.2 86.2971 1204.29 372.574 1204.29C552.813 1204.29 690.614 1028.96 646.191 893.554C624.954 839.242 572.703 791.823 571.766 723.353Z" stroke="#592832" stroke-width="20.2263" stroke-linecap="round" stroke-linejoin="round"/>
<path d="M625.031 851.639C634.133 863.326 672.863 912.393 687.658 937.039C726.8 1002.29 734.403 1095.82 682.227 1168.67C630.013 1241.52 524.537 1243.69 477.229 1183.88C407.186 1095.37 433.743 1015.62 452.883 979.365C536.597 967.978 578.923 907.187 625.031 851.602V851.639Z" fill="#EAAC71"/>
<path d="M478.918 1150.5C440.825 1076.98 452.923 1017.95 472.176 979.141C476.221 971.013 469.779 961.724 460.714 962.173H460.489C438.353 996.671 405.204 1073.94 467.531 1167.99C498.47 1214.67 563.381 1230.62 618.742 1208.9C563.082 1221.41 503.751 1198.45 478.918 1150.5Z" fill="#F5D7BB"/>
<path d="M687.653 937.04C672.858 912.394 634.128 863.326 625.026 851.64C610.718 868.87 596.784 886.624 581.877 903.217C587.196 910.783 591.953 917.825 595.361 923.518C634.503 988.767 642.106 1082.3 589.93 1155.15C568.655 1184.85 538.465 1202.83 507.002 1209.61C560.04 1240.7 639.185 1228.71 682.222 1168.67C734.436 1095.82 726.795 1002.29 687.653 937.04Z" fill="#D6823C"/>
<path d="M465.838 958.802C465.838 958.802 381.712 1063.23 477.225 1183.91C524.57 1243.73 630.046 1241.56 682.223 1168.71C734.436 1095.85 726.795 1002.33 687.654 937.077C648.512 871.829 628.81 864 609.745 827.78" stroke="#592832" stroke-width="20.2263" stroke-linecap="round" stroke-linejoin="round"/>
<path d="M645.255 1268.71H386.434C386.434 1268.71 392.913 1201.29 477.19 1183.88C561.504 1166.46 649.75 1216.5 654.545 1238.26C659.339 1260.02 645.218 1268.71 645.218 1268.71H645.255Z" fill="#AE6745"/>
<path d="M645.255 1268.71H386.434C386.434 1268.71 392.913 1201.29 477.19 1183.88C561.504 1166.46 649.75 1216.5 654.545 1238.26C659.339 1260.02 645.218 1268.71 645.218 1268.71H645.255Z" fill="#AE6745"/>
<path d="M488.761 1197.14C556.033 1183.24 625.739 1212.27 653.643 1235.64C642.968 1212.79 558.318 1167.17 477.225 1183.91C392.911 1201.33 386.469 1268.75 386.469 1268.75H401.077C407.706 1248.19 428.045 1209.72 488.761 1197.17V1197.14Z" fill="#C18B71"/>
<path d="M654.582 1238.26C652.972 1231 642.035 1220.58 625.105 1210.58C622.295 1210.88 619.486 1211.22 616.677 1211.59C584.652 1216.05 563.901 1225.34 550.417 1235.15C538.543 1243.81 524.272 1248.45 509.59 1248.45H392.052C387.258 1260.17 386.396 1268.68 386.396 1268.68H645.218C645.218 1268.68 659.339 1259.99 654.545 1238.23L654.582 1238.26Z" fill="#924921"/>
<path d="M645.255 1268.71H386.434C386.434 1268.71 392.913 1201.29 477.19 1183.88C561.504 1166.46 649.75 1216.5 654.545 1238.26C659.339 1260.02 645.218 1268.71 645.218 1268.71H645.255Z" stroke="#592832" stroke-width="20.2263" stroke-linecap="round" stroke-linejoin="round"/>
<path d="M479.701 1268.71C479.701 1268.71 491.612 1231.33 521.015 1221.86" stroke="#592832" stroke-width="20.2263" stroke-linecap="round" stroke-linejoin="round"/>
<path d="M422.543 1268.71C422.543 1268.71 434.454 1231.33 463.857 1221.86" stroke="#592832" stroke-width="20.2263" stroke-linecap="round" stroke-linejoin="round"/>
<path d="M292.941 1197.77C291.443 1197.51 289.945 1197.21 288.484 1196.91C286.761 1196.57 285.038 1196.2 283.315 1195.82C281.892 1195.52 280.431 1195.19 279.045 1194.89C277.397 1194.51 275.749 1194.1 274.138 1193.69C272.752 1193.35 271.366 1193.01 270.018 1192.64C268.445 1192.23 266.872 1191.78 265.336 1191.33C264.025 1190.95 262.677 1190.58 261.403 1190.17C259.867 1189.72 258.407 1189.23 256.908 1188.74C255.672 1188.33 254.399 1187.92 253.163 1187.51C251.702 1186.98 250.279 1186.46 248.855 1185.94C247.694 1185.49 246.495 1185.07 245.334 1184.62C243.911 1184.06 242.525 1183.46 241.139 1182.9C240.053 1182.45 238.967 1182 237.918 1181.55C236.42 1180.92 234.996 1180.2 233.536 1179.53C232.637 1179.12 231.738 1178.71 230.839 1178.29C228.591 1177.21 226.419 1176.08 224.322 1174.92C223.348 1174.4 222.411 1173.84 221.437 1173.28C220.276 1172.6 219.115 1171.96 217.991 1171.29C216.98 1170.69 216.006 1170.05 215.032 1169.42C214.021 1168.78 213.01 1168.14 212.073 1167.51C211.099 1166.83 210.126 1166.16 209.189 1165.48C208.29 1164.85 207.354 1164.21 206.492 1163.57C205.556 1162.86 204.62 1162.15 203.721 1161.44C202.897 1160.8 202.035 1160.13 201.211 1159.45C200.312 1158.7 199.451 1157.96 198.552 1157.21C197.765 1156.53 197.016 1155.9 196.267 1155.18C195.405 1154.4 194.581 1153.61 193.757 1152.82C193.046 1152.15 192.334 1151.48 191.66 1150.8C190.836 1149.98 190.049 1149.15 189.262 1148.33C188.626 1147.66 187.989 1146.94 187.352 1146.27C186.603 1145.41 185.817 1144.58 185.105 1143.72C184.506 1143.05 183.944 1142.34 183.382 1141.66C182.67 1140.76 181.959 1139.86 181.247 1138.97C180.723 1138.29 180.198 1137.58 179.711 1136.91C179.037 1135.97 178.363 1135.03 177.689 1134.1C177.239 1133.42 176.79 1132.75 176.34 1132.04C175.703 1131.06 175.029 1130.09 174.43 1129.08C174.018 1128.44 173.643 1127.77 173.269 1127.09C172.632 1126.04 172.033 1125.03 171.433 1123.95C171.096 1123.35 170.797 1122.78 170.497 1122.19C169.898 1121.02 169.261 1119.9 168.699 1118.74C168.512 1118.36 168.362 1117.99 168.175 1117.62C165.89 1112.86 163.905 1108.03 162.219 1103.05C142.817 1045.59 162.594 975.47 181.884 925.803C101.765 971.724 68.3541 1151.14 220.051 1197.62C252.826 1206.16 278.221 1205 297.923 1198.52C296.237 1198.26 294.552 1197.96 292.904 1197.66L292.941 1197.77Z" fill="#EAAC71"/>
<path d="M173.228 949.886C175.925 941.833 178.734 934.154 181.543 926.85C180.457 926.551 179.333 926.214 178.247 925.914C98.1282 971.835 64.7174 1151.25 216.415 1197.73C237.727 1203.28 255.931 1204.74 271.475 1203.31C261.737 1202.49 251.211 1200.73 239.787 1197.73C107.717 1157.24 115.995 1016 173.228 949.849V949.886Z" fill="#F5D7BB"/>
<path d="M292.941 1197.77C291.443 1197.51 289.945 1197.21 288.484 1196.91C286.761 1196.57 285.038 1196.2 283.315 1195.82C281.892 1195.52 280.431 1195.19 279.045 1194.89C277.397 1194.51 275.749 1194.1 274.138 1193.69C272.752 1193.35 271.366 1193.01 270.018 1192.64C268.445 1192.23 266.872 1191.78 265.336 1191.33C264.025 1190.95 262.677 1190.58 261.403 1190.17C259.867 1189.72 258.407 1189.23 256.908 1188.74C255.672 1188.33 254.399 1187.92 253.163 1187.51C251.702 1186.98 250.279 1186.46 248.855 1185.94C247.694 1185.49 246.495 1185.07 245.334 1184.62C243.911 1184.06 242.525 1183.46 241.139 1182.9C240.053 1182.45 238.967 1182 237.918 1181.55C236.42 1180.92 234.996 1180.2 233.536 1179.53C232.637 1179.12 231.738 1178.71 230.839 1178.29C228.591 1177.21 226.419 1176.08 224.321 1174.92C223.348 1174.4 222.411 1173.84 221.437 1173.28C220.276 1172.6 219.115 1171.96 217.991 1171.29C216.98 1170.69 216.006 1170.05 215.032 1169.42C214.021 1168.78 213.01 1168.14 212.073 1167.51C211.099 1166.83 210.126 1166.16 209.189 1165.48C208.29 1164.85 207.354 1164.21 206.492 1163.57C205.556 1162.86 204.62 1162.15 203.721 1161.44C202.897 1160.8 202.035 1160.13 201.211 1159.45C200.312 1158.7 199.451 1157.96 198.552 1157.21C197.765 1156.53 197.016 1155.9 196.267 1155.18C195.405 1154.4 194.581 1153.61 193.757 1152.82C193.046 1152.15 192.334 1151.48 191.66 1150.8C190.836 1149.98 190.049 1149.15 189.262 1148.33C188.626 1147.66 187.989 1146.94 187.352 1146.27C186.603 1145.41 185.817 1144.58 185.105 1143.72C184.506 1143.05 183.944 1142.34 183.382 1141.66C182.67 1140.76 181.959 1139.86 181.247 1138.97C180.723 1138.29 180.198 1137.58 179.711 1136.91C179.037 1135.97 178.363 1135.03 177.689 1134.1C177.239 1133.42 176.79 1132.75 176.34 1132.04C175.703 1131.06 175.029 1130.09 174.43 1129.08C174.018 1128.44 173.643 1127.77 173.269 1127.09C172.632 1126.04 172.033 1125.03 171.433 1123.95C171.096 1123.35 170.797 1122.78 170.497 1122.19C169.898 1121.02 169.261 1119.9 168.699 1118.74C168.512 1118.36 168.362 1117.99 168.175 1117.62C165.89 1112.86 163.905 1108.03 162.219 1103.05C142.817 1045.59 162.594 975.47 181.884 925.803C101.765 971.724 68.3541 1151.14 220.051 1197.62C252.826 1206.16 278.221 1205 297.923 1198.52C296.237 1198.26 294.552 1197.96 292.904 1197.66L292.941 1197.77Z" stroke="#592832" stroke-width="20.2263" stroke-linecap="round" stroke-linejoin="round"/>
<path d="M340.396 1268.71H81.5742C81.5742 1268.71 88.0542 1201.29 172.33 1183.87C256.644 1166.46 344.891 1216.5 349.685 1238.26C354.48 1260.02 340.359 1268.71 340.359 1268.71H340.396Z" fill="#AE6745"/>
<path d="M340.396 1268.71H81.5742C81.5742 1268.71 88.0542 1201.29 172.33 1183.87C256.644 1166.46 344.891 1216.5 349.685 1238.26C354.48 1260.02 340.359 1268.71 340.359 1268.71H340.396Z" fill="#AE6745"/>
<path d="M183.867 1197.13C251.138 1183.24 320.844 1212.27 348.749 1235.64C338.074 1212.79 253.423 1167.17 172.33 1183.91C88.0167 1201.33 81.5742 1268.75 81.5742 1268.75H96.1821C102.812 1248.19 123.151 1209.72 183.867 1197.17V1197.13Z" fill="#C18B71"/>
<path d="M349.723 1238.26C348.112 1230.99 337.175 1220.58 320.245 1210.58C317.436 1210.88 314.627 1211.22 311.818 1211.59C279.793 1216.05 259.042 1225.34 245.558 1235.15C233.684 1243.8 219.413 1248.45 204.73 1248.45H87.193C82.3986 1260.17 81.5371 1268.68 81.5371 1268.68H340.359C340.359 1268.68 354.48 1259.99 349.686 1238.22L349.723 1238.26Z" fill="#924921"/>
<path d="M174.842 1268.71C174.842 1268.71 186.753 1231.33 216.156 1221.86" stroke="#592832" stroke-width="20.2263" stroke-linecap="round" stroke-linejoin="round"/>
<path d="M117.684 1268.71C117.684 1268.71 129.595 1231.33 158.998 1221.86" stroke="#592832" stroke-width="20.2263" stroke-linecap="round" stroke-linejoin="round"/>
<path d="M295.224 1198.18C294.475 1198.03 293.688 1197.92 292.939 1197.77C291.441 1197.51 289.943 1197.21 288.482 1196.91C286.759 1196.57 285.036 1196.2 283.313 1195.82C281.89 1195.52 280.429 1195.19 279.043 1194.89C277.395 1194.51 275.747 1194.1 274.136 1193.69C272.75 1193.35 271.364 1193.01 270.016 1192.64C268.443 1192.23 266.87 1191.78 265.334 1191.33C264.023 1190.95 262.675 1190.58 261.401 1190.17C259.865 1189.72 258.405 1189.23 256.906 1188.74C255.67 1188.33 254.397 1187.92 253.161 1187.51C251.7 1186.98 250.277 1186.46 248.853 1185.94C247.692 1185.49 246.494 1185.07 245.332 1184.62C243.909 1184.06 242.523 1183.46 241.137 1182.9C241.062 1182.9 241.025 1182.86 240.95 1182.83C219.001 1179.42 195.516 1179.08 172.33 1183.84C88.0167 1201.25 81.5742 1268.68 81.5742 1268.68H340.396C340.396 1268.68 354.517 1259.99 349.723 1238.22C347.438 1227.85 326.05 1210.99 295.224 1198.15V1198.18Z" stroke="#592832" stroke-width="20.2263" stroke-linecap="round" stroke-linejoin="round"/>
<path d="M282.16 206.646C207.398 234.738 108.888 143.832 39.5571 206.646C-9.88499 251.406 45.3628 331.637 105.18 347.706L282.16 206.646Z" fill="#EAAC71"/>
<path d="M30.4146 231.105C91.2808 176.007 174.583 239.233 244.589 236.573L282.157 206.646C207.395 234.738 108.885 143.832 39.5539 206.646C28.1297 216.984 22.3615 229.194 20.8633 242.079C23.4852 238.259 26.594 234.55 30.4146 231.105Z" fill="#F5D7BB"/>
<path d="M282.16 206.646C207.398 234.738 108.888 143.832 39.5571 206.646C-9.885 251.406 45.3628 331.637 105.18 347.706L282.16 206.646Z" stroke="#592832" stroke-width="20.2263" stroke-linecap="round" stroke-linejoin="round"/>
<path d="M38.8007 299.687C54.8694 322.235 79.5904 340.813 105.173 347.705L176.115 291.184C86.9693 173.609 14.8662 263.129 38.8382 299.724L38.8007 299.687Z" fill="#EE857B"/>
<path d="M68.3531 286.202C58.652 271.369 64.7199 247.847 81.2756 232.939C44.2689 237.509 24.5669 277.924 38.8002 299.686C54.8689 322.235 79.5899 340.813 105.172 347.705L125.736 331.299C103.45 322.909 82.549 306.091 68.3531 286.202Z" fill="#FFBAB0"/>
<path d="M38.8007 299.687C54.8694 322.235 79.5904 340.813 105.173 347.705L176.115 291.184C86.9693 173.609 14.8662 263.129 38.8382 299.724L38.8007 299.687Z" stroke="#592832" stroke-width="20.2263" stroke-linecap="round" stroke-linejoin="round"/>
<path d="M681.514 206.645C628.813 172.485 562.815 215.672 517.006 226.947C469.137 196.645 414.676 178.553 356.919 178.553C166.042 178.553 11.2734 392.278 11.2734 560.831C11.2734 678.518 166.005 773.956 356.919 773.956C547.833 773.956 702.564 678.555 702.564 560.831C702.564 499.29 685.446 436.401 655.594 379.88C742.829 337.704 752.418 252.604 681.514 206.645Z" fill="#EAAC71"/>
<path d="M685.037 209.082C698.821 250.995 677.172 299.913 619.676 331.226C652.713 387.073 673.164 449.999 676.16 512.401C681.928 631.737 529.669 736.052 336.133 745.416C242.643 749.948 156.606 731.445 91.9941 697.697C155.407 744.33 250.546 773.958 356.921 773.958C547.798 773.958 702.567 678.557 702.567 560.832C702.567 499.292 685.449 436.403 655.597 379.882C741.334 338.418 752.009 255.527 685.037 209.082Z" fill="#D6823C"/>
<path d="M681.516 206.647C628.816 172.487 562.818 215.674 517.009 226.948C508.956 221.854 500.716 217.134 492.325 212.752L489.029 219.045C525.586 250.171 551.469 246.425 592.071 227.734C639.004 206.122 718.448 220.917 728.486 287.365C729.835 257.475 714.291 227.884 681.516 206.647Z" fill="#F5D7BB"/>
<path d="M40.0772 560.831C40.0772 396.51 187.205 189.228 371.489 179.003C366.657 178.741 361.788 178.553 356.919 178.553C166.042 178.553 11.2734 392.278 11.2734 560.831C11.2734 678.518 166.005 773.956 356.919 773.956C361.751 773.956 366.545 773.881 371.302 773.769C187.093 769.124 40.0772 675.596 40.0772 560.868V560.831Z" fill="#F5D7BB"/>
<path d="M303.732 265.864C271.445 232.865 240.169 221.253 214.474 219.043C192.188 232.078 171.137 247.81 151.66 265.601C166.905 304.256 234.213 327.367 303.695 265.864H303.732Z" fill="#D6823C"/>
<path d="M681.514 206.645C628.813 172.485 562.815 215.672 517.006 226.947C469.137 196.645 414.676 178.553 356.919 178.553C166.042 178.553 11.2734 392.278 11.2734 560.831C11.2734 678.518 166.005 773.956 356.919 773.956C547.833 773.956 702.564 678.555 702.564 560.831C702.564 499.29 685.446 436.401 655.594 379.88C742.829 337.704 752.418 252.604 681.514 206.645V206.645Z" stroke="#592832" stroke-width="20.2263" stroke-linecap="round" stroke-linejoin="round"/>
<path d="M728.186 275.602C735.79 304.781 708.147 354.111 656.608 379.431C637.58 345.908 614.844 313.958 586.752 284.292C586.752 284.292 707.398 196.158 728.186 275.64V275.602Z" fill="white"/>
<path d="M728.186 275.602C735.79 304.781 708.147 354.111 656.608 379.431C637.58 345.908 614.844 313.958 586.752 284.292C586.752 284.292 707.398 196.158 728.186 275.64V275.602Z" fill="#EE857B"/>
<path d="M728.184 275.602C722.004 251.967 706.984 243.165 688.93 242.454C694.324 247.922 698.444 255.563 700.729 266.051C706.385 291.896 684.286 332.161 643.309 357.332C647.916 364.636 652.373 371.977 656.605 379.431C708.145 354.148 735.788 304.781 728.184 275.602Z" fill="#FFBAB0"/>
<path d="M728.186 275.602C735.79 304.781 708.147 354.111 656.608 379.431C637.58 345.908 614.844 313.958 586.752 284.292C586.752 284.292 707.398 196.158 728.186 275.64V275.602Z" stroke="#592832" stroke-width="20.2263" stroke-linecap="round" stroke-linejoin="round"/>
<path d="M472.848 203.5C461.499 198.668 447.228 193.312 430.298 188.368C283.47 153.121 228.971 48.2817 200.729 106.451C172.487 164.62 249.46 201.365 249.46 201.365C249.46 201.365 184.061 206.983 185.747 246.05C187.47 285.192 275.492 295.904 320.364 253.541C381.418 249.234 434.943 235.862 472.848 203.5Z" fill="#EAAC71"/>
<path d="M434.263 211.291C484.491 217.434 495.728 221.778 503.444 224.625C512.621 219.419 464.939 210.242 472.88 203.5C461.531 198.668 447.26 193.312 430.33 188.368C283.502 153.121 229.003 48.319 200.761 106.451C197.502 113.081 195.705 119.448 194.918 125.516C224.059 79.9695 279.569 183.611 434.3 211.291H434.263Z" fill="#F5D7BB"/>
<path d="M246.126 201.778C238.036 202.864 216.873 206.535 201.891 216.873C227.248 227.697 271.297 232.454 294.595 210.73C275.38 209.943 259.199 206.984 246.126 201.74V201.778Z" fill="#D6823C"/>
<path d="M504.162 219.157C504.162 219.157 477.605 202.152 430.298 188.368C283.47 153.121 228.971 48.2817 200.729 106.451C172.487 164.62 249.46 201.365 249.46 201.365C249.46 201.365 184.061 206.983 185.747 246.05C187.47 285.192 275.492 295.904 320.364 253.541" stroke="#592832" stroke-width="20.2263" stroke-linecap="round" stroke-linejoin="round"/>
<path d="M298.785 206.16C298.785 206.16 247.545 211.741 224.547 184.96" stroke="#592832" stroke-width="20.2263" stroke-linecap="round" stroke-linejoin="round"/>
<path d="M108.882 558.809C132.464 558.809 151.582 535.918 151.582 507.681C151.582 479.444 132.464 456.554 108.882 456.554C85.2991 456.554 66.1816 479.444 66.1816 507.681C66.1816 535.918 85.2991 558.809 108.882 558.809Z" fill="#592832"/>
<path d="M122.629 509.742C128.835 509.742 133.866 504.275 133.866 497.531C133.866 490.788 128.835 485.321 122.629 485.321C116.423 485.321 111.393 490.788 111.393 497.531C111.393 504.275 116.423 509.742 122.629 509.742Z" fill="white"/>
<path d="M440.141 586.227C473.694 586.227 500.894 559.026 500.894 525.473C500.894 491.92 473.694 464.719 440.141 464.719C406.587 464.719 379.387 491.92 379.387 525.473C379.387 559.026 406.587 586.227 440.141 586.227Z" fill="#592832"/>
<path d="M416.279 527.42C424.533 527.42 431.224 520.729 431.224 512.475C431.224 504.221 424.533 497.53 416.279 497.53C408.025 497.53 401.334 504.221 401.334 512.475C401.334 520.729 408.025 527.42 416.279 527.42Z" fill="white"/>
<path d="M282.979 616.529C309.437 616.529 330.885 597.428 330.885 573.866C330.885 550.304 309.437 531.204 282.979 531.204C256.521 531.204 235.072 550.304 235.072 573.866C235.072 597.428 256.521 616.529 282.979 616.529Z" fill="#FFE5C0"/>
<path d="M208.063 609.636C227.901 609.636 243.984 592.699 243.984 571.805C243.984 550.912 227.901 533.975 208.063 533.975C188.225 533.975 172.143 550.912 172.143 571.805C172.143 592.699 188.225 609.636 208.063 609.636Z" fill="#FFE5C0"/>
<path d="M237.878 590.272C208.812 591.396 190.683 541.092 207.463 534.425C224.244 527.758 268.404 529.893 270.614 544.613C272.824 559.333 261.925 589.336 237.878 590.272Z" fill="#DBAB7A"/>
<path d="M237.317 575.889C208.251 577.013 190.572 539.032 207.427 533.788C224.282 528.582 268.406 529.78 270.466 540.942C272.526 552.104 261.364 574.953 237.317 575.889Z" fill="#592832"/>
<path d="M328.481 575.852C325.746 598.626 306.381 616.305 282.859 616.305C257.464 616.305 236.9 595.741 236.9 570.346" stroke="#592832" stroke-width="20.2263" stroke-linecap="round" stroke-linejoin="round"/>
<path d="M240.123 590.197C233.98 602.295 220.908 610.011 206.6 608.662C187.909 606.902 174.2 590.346 175.961 571.656" stroke="#592832" stroke-width="20.2263" stroke-linecap="round" stroke-linejoin="round"/>
<path d="M206.6 608.663C206.6 608.663 207.086 610.199 207.948 612.783C211.956 624.844 223.829 659.416 228.961 661.476C235.179 663.986 273.421 665.634 277.579 661.476C281.737 657.319 287.617 616.042 287.617 616.042C287.617 616.042 260.049 621.361 240.872 592.22C240.872 592.22 222.519 614.356 206.637 608.663H206.6Z" fill="white"/>
<path d="M287.623 616.042C287.623 616.042 260.055 621.361 240.877 592.22C240.877 592.22 222.524 614.356 206.643 608.663C206.643 608.663 207.129 610.199 207.991 612.783C209.414 617.016 211.774 624.02 214.471 631.399C223.423 630.462 234.884 627.503 242.713 619.263C251.29 632.56 270.468 636.53 284.289 636.643C286.237 626.005 287.66 616.042 287.66 616.042H287.623Z" fill="#C6AEA7"/>
<path d="M206.6 608.663C206.6 608.663 207.086 610.199 207.948 612.783C211.956 624.844 223.829 659.416 228.961 661.476C235.179 663.986 273.421 665.634 277.579 661.476C281.737 657.319 287.617 616.042 287.617 616.042C287.617 616.042 260.049 621.361 240.872 592.22C240.872 592.22 222.519 614.356 206.637 608.663H206.6Z" stroke="#592832" stroke-width="20.2263" stroke-linecap="round" stroke-linejoin="round"/>
<path d="M249.525 659.64C249.525 659.64 240.911 618.064 240.873 592.256" stroke="#592832" stroke-width="8.61491" stroke-linecap="round" stroke-linejoin="round"/>
<path d="M156.827 215.448C153.269 86.9361 241.291 11.9863 343.621 11.9863C445.951 11.9863 542.326 72.6653 542.326 215.448C542.326 215.448 508.241 238.783 443.966 235.562C443.966 235.562 410.48 341.451 308.6 336.319C206.681 331.15 191.212 296.316 113.828 320.85C36.4433 345.346 87.6458 254.552 156.865 215.448H156.827Z" fill="#AB69F3"/>
<path d="M535.734 218.519C537.757 213.837 538.768 198.592 539.143 178.965C523.748 62.8135 436.55 12.0229 343.622 12.0229C340.775 12.0229 338.041 12.6972 335.194 12.8095L335.569 15.5438C367.856 28.204 409.994 41.5384 414.226 109.671C418.459 177.804 401.566 229.755 401.566 229.755C401.566 229.755 364.335 303.469 310.96 302.795C257.585 302.083 159.974 265.564 124.129 311.223C122.069 313.882 121.207 316.541 120.57 319.163C191.774 299.049 209.903 331.337 308.563 336.356C410.443 341.525 443.967 235.636 443.967 235.636C491.648 237.996 522.512 225.823 535.397 219.343C535.472 219.193 535.659 218.668 535.734 218.556V218.519Z" fill="#933FDE"/>
<path d="M189.226 215.448C185.817 93.1912 265.561 20.2267 361.412 13.3348C355.494 12.9227 349.651 11.9863 343.658 11.9863C241.327 11.9863 153.305 86.9361 156.864 215.448C88.0943 254.29 37.3412 344.035 112.74 321.037C93.8625 306.055 135.851 245.6 189.263 215.448H189.226Z" fill="#CAA0F7"/>
<path d="M443.962 235.525H444.037C508.237 238.746 542.322 215.448 542.322 215.448C542.322 72.6653 445.947 11.9863 343.617 11.9863C501.944 32.8494 443.962 235.525 443.962 235.525Z" fill="#933FDE"/>
<path d="M443.965 235.562C434.226 235.075 423.776 233.989 412.651 232.116C328.188 217.845 231.813 186.907 156.863 215.448" stroke="#592832" stroke-width="20.2263" stroke-linecap="round" stroke-linejoin="round"/>
<path d="M156.827 215.448C153.269 86.9361 241.291 11.9863 343.621 11.9863C445.951 11.9863 542.326 72.6653 542.326 215.448C542.326 215.448 508.241 238.783 443.966 235.562C443.966 235.562 410.48 341.451 308.6 336.319C206.681 331.15 191.212 296.316 113.828 320.85C36.4433 345.346 87.6458 254.552 156.865 215.448H156.827Z" stroke="#592832" stroke-width="20.2263" stroke-linecap="round" stroke-linejoin="round"/>
<path d="M443.962 235.524C443.962 235.524 501.982 32.886 343.617 12.0229" stroke="#592832" stroke-width="20.2263" stroke-linecap="round" stroke-linejoin="round"/>
<path d="M481.044 836.769C484.714 849.392 486.362 883.252 459.843 906.512C433.324 929.773 433.737 936.702 415.795 981.949C397.854 1027.2 333.017 1030.87 315.9 974.608C297.134 888.983 354.629 868.157 375.043 820.476C415.346 824.746 450.667 830.214 481.081 836.769H481.044Z" fill="#EAAC71"/>
<path d="M475.611 842.014C475.049 858.981 461.49 877.784 443.548 887.56C425.607 897.336 408.751 916.364 402.946 938.913C398.526 955.993 392.57 1003.19 368.936 1016.3C388.375 1015.44 407.366 1003.34 415.831 981.95C433.772 936.703 433.36 929.736 459.879 906.513C477.146 891.343 482.465 871.679 483.064 856.322C480.854 851.64 478.382 846.845 475.648 841.976L475.611 842.014Z" fill="#D6823C"/>
<path d="M342.044 977.154C326.725 907.186 362.308 880.479 386.954 847.069C394.595 836.693 388.115 821.861 375.305 820.512H375.043C354.667 868.194 297.172 888.982 315.9 974.644C325.788 1007.16 351.596 1019.63 375.118 1015.66C360.81 1010.15 348.3 997.68 342.044 977.191V977.154Z" fill="#F5D7BB"/>
<path d="M348.412 911.568C336.95 911.568 325.863 913.254 315.488 916.325C311.368 932.057 310.656 950.86 315.9 974.644C333.017 1030.9 397.854 1027.23 415.796 981.986C422.126 965.955 426.208 954.755 429.954 945.916C410.027 924.865 380.886 911.568 348.412 911.568Z" fill="#AE6745"/>
<path d="M418.493 975.132C418.942 974.008 419.354 972.884 419.766 971.798C419.953 971.274 420.178 970.712 420.365 970.225C420.478 969.925 420.59 969.626 420.703 969.326C424.411 959.7 427.257 952.171 429.917 945.878C423.212 938.799 415.459 932.619 406.881 927.487C405.271 931.158 403.885 934.979 402.873 938.874C398.454 955.954 392.498 1003.15 368.863 1016.26C369.912 1016.22 370.998 1016.11 372.047 1016C372.234 1016 372.422 1016 372.609 1015.96C373.583 1015.85 374.519 1015.7 375.493 1015.51C375.755 1015.47 376.055 1015.43 376.317 1015.36C377.216 1015.17 378.077 1014.98 378.976 1014.76C379.313 1014.69 379.651 1014.61 379.988 1014.5C380.812 1014.27 381.636 1014.01 382.46 1013.75C382.834 1013.64 383.246 1013.49 383.621 1013.37C384.408 1013.11 385.157 1012.81 385.906 1012.51C386.318 1012.33 386.767 1012.18 387.179 1011.99C387.891 1011.69 388.603 1011.35 389.314 1010.98C389.764 1010.75 390.213 1010.53 390.663 1010.3C391.337 1009.97 391.974 1009.59 392.648 1009.22C393.097 1008.95 393.584 1008.65 394.034 1008.39C394.671 1008.02 395.27 1007.61 395.869 1007.19C396.356 1006.86 396.806 1006.52 397.255 1006.18C397.817 1005.77 398.379 1005.32 398.941 1004.91C399.427 1004.53 399.877 1004.12 400.364 1003.75C400.888 1003.3 401.413 1002.85 401.9 1002.4C402.386 1001.95 402.836 1001.5 403.285 1001.05C403.772 1000.56 404.222 1000.11 404.671 999.628C405.158 999.141 405.608 998.579 406.057 998.055C406.469 997.568 406.919 997.081 407.331 996.556C407.78 995.995 408.23 995.395 408.679 994.796C409.054 994.309 409.428 993.785 409.765 993.298C410.215 992.624 410.664 991.949 411.076 991.238C411.376 990.751 411.713 990.264 412.013 989.739C412.462 988.953 412.912 988.091 413.324 987.267C413.548 986.818 413.811 986.406 413.998 985.956C414.635 984.645 415.234 983.334 415.758 981.949C416.47 980.151 417.144 978.465 417.781 976.78C418.006 976.218 418.193 975.693 418.418 975.132H418.493Z" fill="#924921"/>
<path d="M318.525 981.8C319.012 982.961 319.499 984.122 320.06 985.246C320.36 985.882 320.66 986.444 320.997 987.043C321.521 988.055 322.046 989.029 322.607 989.965C322.945 990.527 323.282 991.126 323.656 991.688C324.218 992.624 324.817 993.486 325.454 994.385C325.791 994.872 326.166 995.396 326.54 995.883C327.215 996.782 327.926 997.644 328.675 998.505C329.012 998.88 329.312 999.254 329.649 999.629C330.623 1000.71 331.634 1001.73 332.646 1002.7C332.758 1002.78 332.833 1002.89 332.908 1003C334.106 1004.09 335.305 1005.13 336.541 1006.11C336.616 1006.15 336.691 1006.22 336.766 1006.26C337.927 1007.12 339.088 1007.94 340.287 1008.73C340.512 1008.88 340.774 1009.03 341.036 1009.18C342.085 1009.82 343.133 1010.42 344.22 1010.98C344.482 1011.13 344.781 1011.24 345.044 1011.39C346.13 1011.91 347.254 1012.4 348.34 1012.85C348.565 1012.96 348.827 1013.04 349.051 1013.15C350.288 1013.64 351.524 1014.05 352.797 1014.42C352.909 1014.42 353.022 1014.5 353.134 1014.54C360.326 1016.6 367.892 1016.93 375.196 1015.73C360.888 1010.23 348.377 997.756 342.122 977.267C336.092 949.775 337.964 928.986 343.883 911.832C334.069 912.206 324.555 913.742 315.566 916.401C315.079 918.274 314.629 920.184 314.255 922.169C314.18 922.544 314.105 922.956 314.03 923.331C313.73 924.941 313.468 926.552 313.243 928.2C313.169 928.799 313.094 929.361 313.019 929.96C312.831 931.459 312.682 932.994 312.569 934.53C312.532 935.242 312.457 935.953 312.419 936.702C312.344 938.163 312.307 939.661 312.27 941.197C312.27 942.021 312.27 942.845 312.27 943.669C312.27 945.168 312.307 946.703 312.382 948.239C312.419 949.138 312.457 949.999 312.494 950.936C312.607 952.509 312.757 954.12 312.906 955.73C312.981 956.667 313.056 957.565 313.168 958.502C313.393 960.262 313.655 962.06 313.918 963.896C314.03 964.757 314.142 965.581 314.292 966.443C314.742 969.139 315.266 971.911 315.903 974.72C316.502 976.631 317.139 978.466 317.813 980.226C318.038 980.788 318.3 981.35 318.525 981.912V981.8Z" fill="#C18B71"/>
<path d="M375.043 820.476C354.667 868.195 297.172 888.983 315.9 974.608C333.017 1030.87 397.854 1027.2 415.795 981.949C433.737 936.702 433.325 929.735 459.844 906.512C486.363 883.252 484.715 849.429 481.044 836.769" stroke="#592832" stroke-width="20.2263" stroke-linecap="round" stroke-linejoin="round"/>
<path d="M378.299 967.191C378.299 967.191 364.852 982.361 367.661 1008.99" stroke="#592832" stroke-width="16.8927" stroke-linecap="round" stroke-linejoin="round"/>
<path d="M343.879 957.602C343.879 957.602 330.432 972.772 333.241 999.403" stroke="#592832" stroke-width="16.8927" stroke-linecap="round" stroke-linejoin="round"/>
<path d="M199.116 751.968C164.019 762.081 134.729 831.563 135.253 878.308C135.815 925.053 171.136 991.388 203.76 1009.89C236.385 1028.39 276.088 1004.98 275.002 968.015C274.066 935.653 257.697 885.013 203.723 849.167C208.78 818.865 206.457 786.203 199.116 751.968Z" fill="#EAAC71"/>
<path d="M226.346 1009.89C193.722 991.389 158.364 925.054 157.839 878.309C157.39 840.853 176.118 788.901 201.588 764.442C200.839 760.284 200.015 756.127 199.116 751.932C164.019 762.045 134.729 831.526 135.253 878.271C135.815 925.016 171.136 991.351 203.76 1009.85C215.372 1016.45 227.845 1017.68 239.081 1014.95C234.774 1013.9 230.504 1012.21 226.309 1009.85L226.346 1009.89Z" fill="#F5D7BB"/>
<path d="M163.156 964.87C175.217 985.133 189.713 1001.95 203.759 1009.89C236.383 1028.4 276.087 1004.99 275 968.016C274.551 953.071 270.805 934.193 261.591 914.678C255.523 913.33 249.268 912.618 242.788 912.618C207.13 912.618 176.528 934.118 163.156 964.87Z" fill="#AE6745"/>
<path d="M208.741 1012.36C209.864 1012.85 210.988 1013.3 212.149 1013.67C212.337 1013.75 212.561 1013.82 212.749 1013.9C214.097 1014.35 215.483 1014.72 216.831 1015.06C217.056 1015.1 217.281 1015.17 217.506 1015.21C218.742 1015.47 219.94 1015.7 221.176 1015.88C221.363 1015.88 221.551 1015.96 221.738 1015.96C224.622 1016.33 227.469 1016.45 230.278 1016.3C230.353 1016.3 230.465 1016.3 230.54 1016.3C233.424 1016.11 236.271 1015.7 239.043 1015.02C234.735 1013.97 230.465 1012.29 226.27 1009.93C207.842 999.478 188.589 973.821 175.18 945.017C170.311 951.048 166.228 957.715 163.119 964.906C166.003 969.776 169.075 974.458 172.184 978.84C172.371 979.102 172.521 979.327 172.708 979.589C173.345 980.451 173.981 981.312 174.618 982.174C174.88 982.511 175.143 982.848 175.405 983.185C176.004 983.971 176.603 984.758 177.203 985.507C177.502 985.882 177.802 986.256 178.139 986.668C178.738 987.38 179.3 988.129 179.9 988.803C180.237 989.215 180.574 989.59 180.911 989.964C181.473 990.639 182.072 991.313 182.634 991.95C182.971 992.324 183.346 992.699 183.683 993.073C184.619 994.122 185.593 995.133 186.529 996.107C187.054 996.632 187.541 997.156 188.065 997.68C188.514 998.092 188.926 998.505 189.376 998.917C189.9 999.403 190.425 999.928 190.949 1000.41C191.361 1000.79 191.811 1001.16 192.223 1001.54C192.784 1002.03 193.309 1002.47 193.871 1002.92C194.283 1003.26 194.695 1003.6 195.107 1003.94C195.669 1004.39 196.268 1004.83 196.83 1005.28C197.204 1005.58 197.579 1005.88 197.991 1006.15C198.628 1006.6 199.264 1007.04 199.901 1007.49C200.201 1007.72 200.538 1007.94 200.838 1008.13C201.811 1008.77 202.748 1009.33 203.722 1009.89C205.033 1010.64 206.344 1011.28 207.655 1011.88C207.992 1012.03 208.366 1012.18 208.703 1012.33L208.741 1012.36Z" fill="#C18B71"/>
<path d="M199.116 751.968C164.019 762.081 134.729 831.563 135.253 878.308C135.815 925.053 171.136 991.388 203.76 1009.89C236.385 1028.39 276.088 1004.98 275.002 968.015C274.066 935.653 257.697 885.013 203.723 849.167C208.78 818.865 206.457 786.203 199.116 751.968V751.968Z" stroke="#592832" stroke-width="20.2263" stroke-linecap="round" stroke-linejoin="round"/>
<path d="M178.219 834.822C187.545 839.242 196.011 844.073 203.726 849.167" stroke="#592832" stroke-width="20.2263" stroke-linecap="round" stroke-linejoin="round"/>
<path d="M208.219 973.185C208.219 973.185 224.175 985.695 226.123 1012.4" stroke="#592832" stroke-width="16.8927" stroke-linecap="round" stroke-linejoin="round"/>
<path d="M240.395 957.604C240.395 957.604 256.351 970.114 258.299 996.821" stroke="#592832" stroke-width="16.8927" stroke-linecap="round" stroke-linejoin="round"/>
</svg>
