<svg width="1226" height="1281" viewBox="0 0 1226 1281" fill="none" xmlns="http://www.w3.org/2000/svg">
<path d="M820.359 1121.01C956.281 1112.15 973.84 987.726 920.684 839.752C867.568 691.779 908.353 582.116 1021.89 569.545C1135.42 556.975 1241.85 693.934 1202.82 868.445C1163.79 1043 998.941 1203.66 778.377 1211.08L820.399 1121.01H820.359Z" fill="#EAAC71"/>
<path d="M820.359 1121.01C956.281 1112.15 973.84 987.726 920.684 839.752C867.568 691.779 908.353 582.116 1021.89 569.545C1135.42 556.975 1241.85 693.934 1202.82 868.445C1163.79 1043 998.941 1203.66 778.377 1211.08L820.399 1121.01H820.359Z" fill="#AE6745"/>
<path d="M853.761 1121.01C989.683 1112.16 1002.37 977.83 949.257 829.857C896.461 682.761 941.316 583.513 1053.25 569.825C1042.92 568.509 1032.46 568.389 1021.89 569.546C908.353 582.117 867.568 691.78 920.684 839.753C973.8 987.727 956.241 1112.16 820.359 1121.01L778.338 1211.08C790.03 1210.68 801.523 1209.85 812.897 1208.61L853.761 1121.01Z" fill="#C18B71"/>
<path d="M1125.88 835.443C1123.45 832.889 1119.5 832.849 1116.98 835.243C1109.24 842.745 1101.26 850.687 1093.24 859.067C1081.07 837.159 1066.9 814.611 1052.22 792.822C1066.06 777.658 1080.63 762.414 1095.31 748.087C1101.1 758.423 1106.49 768.839 1111.32 779.134C1112.39 781.449 1114.67 782.766 1117.02 782.766C1117.9 782.766 1118.82 782.566 1119.7 782.167C1122.81 780.651 1124.17 776.94 1122.69 773.787C1117.26 762.254 1111.16 750.641 1104.69 739.068C1110.2 733.88 1115.67 728.852 1121.17 724.023C1123.77 721.709 1124.01 717.718 1121.73 715.164C1119.42 712.57 1115.43 712.331 1112.87 714.606C1108.05 718.915 1103.14 723.345 1098.27 727.934C1083.86 703.392 1067.86 679.488 1052.34 657.779C1057.72 652.471 1063.27 647.243 1068.86 642.095C1071.41 639.781 1071.57 635.79 1069.26 633.196C1066.86 630.602 1062.91 630.483 1060.36 632.837C1055.13 637.666 1049.94 642.574 1044.83 647.483C1035.1 634.234 1025.68 621.943 1017.1 611.088C1014.94 608.374 1011.03 607.895 1008.28 610.09C1005.57 612.245 1005.13 616.156 1007.28 618.91C1016.1 630.083 1025.8 642.734 1035.85 656.462C1019.09 673.222 1003.37 690.342 989.363 706.385C964.821 674.779 946.863 653.668 946.384 653.11C944.149 650.476 940.158 650.157 937.564 652.431C934.931 654.706 934.611 658.617 936.846 661.25C937.325 661.809 955.882 683.598 980.983 716.082C964.062 735.956 950.135 753.554 940.597 766.005C932.417 755.949 927.388 750.122 927.149 749.883C924.874 747.249 920.923 746.93 918.289 749.205C915.696 751.479 915.376 755.43 917.651 758.024C917.891 758.303 923.597 764.968 932.816 776.301C928.785 781.688 926.55 784.841 926.47 785.001C924.435 787.834 925.114 791.745 927.947 793.74C929.064 794.538 930.301 794.898 931.578 794.898C933.534 794.898 935.489 793.98 936.686 792.264C936.766 792.144 938.243 790.069 940.917 786.437C953.567 802.36 970.168 823.91 987.647 848.492C972.203 867.288 959.553 883.53 950.973 894.664C948.06 890.633 945.187 886.762 942.393 883.051C940.318 880.337 936.367 879.779 933.574 881.894C930.82 884.009 930.301 887.96 932.416 890.713C935.848 895.183 939.4 900.051 943.032 905.119C940.438 908.591 939.001 910.547 938.881 910.706C936.806 913.46 937.405 917.411 940.238 919.486C941.355 920.284 942.633 920.723 943.91 920.723C945.865 920.723 947.78 919.805 949.018 918.129C949.097 918.049 949.616 917.251 950.614 915.974C963.264 934.531 976.513 955.681 989.004 977.35C976.034 993.073 964.461 1007.4 955.123 1019.13C954.126 1017.86 953.447 1017.06 953.288 1016.86C951.093 1014.18 947.102 1013.82 944.468 1016.02C941.795 1018.21 941.395 1022.17 943.59 1024.84C943.67 1024.92 944.987 1026.52 947.062 1029.27C936.527 1042.56 930.261 1050.7 930.022 1051.06C927.907 1053.81 928.426 1057.76 931.139 1059.88C932.297 1060.75 933.654 1061.19 934.971 1061.19C936.846 1061.19 938.722 1060.32 939.959 1058.72C940.158 1058.4 945.586 1051.42 954.684 1039.88C962.307 1051.1 971.325 1066.54 973.121 1078.75C973.6 1081.87 976.234 1084.14 979.307 1084.14C979.626 1084.14 979.905 1084.14 980.225 1084.06C983.656 1083.58 986.011 1080.39 985.532 1076.96C983.217 1061.11 971.485 1042 962.825 1029.67C971.804 1018.37 983.018 1004.49 995.628 989.123C1006.36 1008.28 1016.38 1027.43 1024.72 1045.19C1025.8 1047.51 1028.07 1048.82 1030.39 1048.82C1031.3 1048.82 1032.18 1048.62 1033.1 1048.22C1036.21 1046.71 1037.57 1043 1036.09 1039.84C1026.99 1020.53 1015.98 999.538 1004.17 978.747C1016.06 964.381 1028.99 949.096 1042.44 933.613C1049.86 946.702 1056.77 959.831 1062.87 972.801C1063.95 975.115 1066.18 976.432 1068.58 976.432C1069.46 976.432 1070.37 976.233 1071.21 975.834C1074.36 974.317 1075.72 970.606 1074.2 967.453C1067.38 952.967 1059.56 938.242 1051.18 923.636C1064.03 908.99 1077.24 894.305 1090.33 880.377C1092.92 885.406 1095.39 890.394 1097.67 895.302C1098.75 897.577 1101.02 898.934 1103.34 898.934C1104.25 898.934 1105.13 898.734 1106.05 898.335C1109.16 896.859 1110.52 893.108 1109.04 889.995C1106.05 883.69 1102.86 877.265 1099.43 870.76C1108.36 861.462 1117.14 852.602 1125.64 844.382C1128.12 841.947 1128.2 837.957 1125.8 835.522L1125.88 835.443ZM1043.28 666.758C1058.84 688.507 1074.72 712.411 1088.93 736.833C1073.96 751.32 1059.16 766.723 1044.99 782.167C1028.67 758.423 1012.03 735.916 997.185 716.521C1011.03 700.558 1026.6 683.518 1043.28 666.718V666.758ZM948.738 776.062C957.837 764.09 971.724 746.451 988.844 726.258C1003.65 745.693 1020.21 768.16 1036.33 791.745C1021.85 807.827 1008.2 823.75 995.948 838.475C978.109 813.494 961.269 791.745 948.738 776.062ZM997.584 967.054C984.814 945.186 971.405 923.875 958.635 905.399C966.656 894.863 979.386 878.502 995.189 859.147C1008.92 878.941 1022.96 900.331 1035.81 922.08C1022.45 937.444 1009.48 952.688 997.544 967.054H997.584ZM1044.51 912.143C1031.46 890.234 1017.26 868.804 1003.45 849.091C1015.58 834.485 1029.11 818.562 1043.56 802.48C1058.2 824.309 1072.25 846.816 1084.14 868.605C1070.93 882.612 1057.56 897.338 1044.51 912.143Z" fill="#924921"/>
<path d="M968.053 893.186C966.856 888.078 965.619 882.89 964.222 877.702C959.154 884.127 954.724 889.914 951.013 894.662C948.1 890.632 945.226 886.761 942.433 883.05C940.438 880.456 936.726 879.857 934.013 881.653C935.569 887.359 937.006 892.986 938.323 898.533C939.879 900.728 941.475 902.883 943.072 905.158C942.034 906.555 941.196 907.632 940.557 908.55C941.435 912.62 942.233 916.651 942.912 920.681C943.271 920.761 943.63 920.761 943.95 920.761C945.905 920.761 947.82 919.843 949.058 918.167C949.137 918.088 949.656 917.289 950.654 916.012C959.593 929.102 968.771 943.508 977.83 958.473C977.311 949.255 976.354 939.797 974.997 930.099C969.49 921.52 964.022 913.179 958.635 905.437C961.269 901.965 964.461 897.855 968.053 893.186Z" fill="#A66A49"/>
<path d="M935.848 659.614C936.726 656.9 937.724 654.226 938.762 651.632C938.323 651.832 937.884 652.111 937.524 652.431C935.409 654.266 934.811 657.139 935.848 659.614Z" fill="#A66A49"/>
<path d="M977.91 990.917C969.41 1001.33 961.708 1010.87 955.163 1019.13C954.166 1017.85 953.487 1017.06 953.328 1016.86C951.372 1014.46 947.98 1013.94 945.426 1015.42C944.827 1018.53 944.229 1021.61 943.51 1024.64C943.51 1024.72 943.59 1024.8 943.63 1024.84C943.67 1024.88 945.027 1026.51 947.102 1029.27C944.189 1032.98 941.595 1036.25 939.36 1039.08C936.926 1046.19 934.013 1052.93 930.581 1059.28C930.78 1059.48 930.94 1059.68 931.179 1059.88C932.337 1060.75 933.693 1061.19 935.01 1061.19C936.886 1061.19 938.762 1060.31 939.999 1058.72C940.198 1058.4 945.626 1051.42 954.724 1039.88C957.518 1043.99 960.511 1048.66 963.224 1053.49C965.419 1048.82 967.375 1043.95 969.051 1038.85C966.936 1035.49 964.861 1032.38 962.865 1029.59C966.616 1024.88 970.767 1019.69 975.196 1014.18C976.513 1006.68 977.391 998.939 977.91 990.917Z" fill="#A66A49"/>
<path d="M932.816 776.3C928.785 781.688 926.55 784.841 926.47 785C924.435 787.833 925.114 791.744 927.947 793.74C929.064 794.538 930.301 794.897 931.578 794.897C933.534 794.897 935.489 793.979 936.686 792.263C936.686 792.183 936.926 791.904 937.325 791.345C933.933 778.016 931.379 765.167 929.703 752.835C928.146 751 927.268 749.962 927.149 749.842C924.874 747.209 920.923 746.889 918.289 749.164C915.696 751.439 915.376 755.389 917.651 757.983C917.891 758.263 923.597 764.927 932.816 776.261V776.3Z" fill="#A66A49"/>
<path d="M1021.93 569.545C1014.7 570.343 1008.64 572.658 1002.01 574.214C1105.89 575.132 1198.03 701.556 1162 862.619C1126.52 1021.37 982.779 1166.59 788.434 1189.61L778.377 1211.12C998.981 1203.66 1163.83 1043.04 1202.86 868.485C1241.89 693.934 1135.46 556.975 1021.93 569.545Z" fill="#924921"/>
<path d="M1021.93 569.545C1014.7 570.343 1009.16 571.74 1002.53 573.296C1106.17 567.829 1198.03 701.556 1162.04 862.619C1126.56 1021.37 982.819 1166.59 788.474 1189.61L778.417 1211.12C999.021 1203.66 1163.87 1043.04 1202.9 868.485C1241.93 693.934 1135.5 556.975 1021.97 569.545H1021.93Z" stroke="#592832" stroke-width="21.5495" stroke-linecap="round" stroke-linejoin="round"/>
<path d="M820.359 1121.01C956.281 1112.15 973.84 987.726 920.684 839.752C867.568 691.779 908.353 582.116 1021.89 569.545C1135.42 556.975 1241.85 693.934 1202.82 868.445C1163.79 1043 998.941 1203.66 778.377 1211.08L820.399 1121.01H820.359Z" stroke="#592832" stroke-width="21.5495" stroke-linecap="round" stroke-linejoin="round"/>
<path d="M756.827 686.872C693.536 720.473 611.208 740.746 521.139 740.746C463.155 740.746 408.364 732.326 359.797 717.361C368.497 756.469 375.481 821.197 349.102 883.851C307.4 982.899 239.599 1199.27 544.604 1199.27C736.635 1199.27 883.451 1012.47 836.122 868.207C813.495 810.343 757.825 759.821 756.827 686.872Z" fill="#EAAC71"/>
<path d="M372.966 883.851C397.828 824.829 393.039 763.972 385.138 724.424C376.518 722.269 368.058 719.915 359.797 717.361C368.497 756.469 375.481 821.198 349.102 883.851C307.4 982.899 239.599 1199.27 544.604 1199.27C547.837 1199.27 551.029 1199.19 554.222 1199.11C265.618 1192.41 331.903 981.343 372.966 883.851Z" fill="#F5D7BB"/>
<path d="M717.4 1144.56C662.448 1099.31 621.185 1026 612.685 936.448C598.598 787.996 404.373 767.364 359.199 854.241C356.565 864.098 353.253 873.994 349.102 883.851C307.4 982.899 239.599 1199.27 544.604 1199.27C609.213 1199.27 668.674 1178.12 717.36 1144.56H717.4Z" fill="#FFE5C0"/>
<path d="M614.681 1190.85C619.03 1189.81 623.301 1188.62 627.571 1187.38C628.768 1187.02 629.965 1186.66 631.162 1186.3C634.235 1185.38 637.268 1184.39 640.261 1183.39C641.618 1182.91 643.014 1182.43 644.371 1181.95C647.324 1180.91 650.237 1179.8 653.151 1178.68C654.348 1178.2 655.545 1177.76 656.742 1177.28C664.803 1174.01 672.665 1170.42 680.367 1166.55C681.524 1165.95 682.681 1165.35 683.799 1164.75C686.512 1163.36 689.186 1161.92 691.82 1160.44C693.097 1159.72 694.374 1159.01 695.651 1158.25C698.245 1156.73 700.839 1155.21 703.353 1153.66C704.47 1152.98 705.628 1152.3 706.705 1151.58C710.297 1149.31 713.848 1146.99 717.32 1144.6C714.168 1142.01 711.055 1139.29 708.022 1136.5C707.144 1135.7 706.266 1134.82 705.388 1133.98C703.233 1131.95 701.039 1129.91 698.923 1127.8C697.966 1126.84 697.008 1125.84 696.05 1124.85C694.055 1122.77 692.059 1120.66 690.104 1118.5C689.146 1117.46 688.228 1116.39 687.311 1115.35C685.395 1113.15 683.48 1110.96 681.604 1108.68C652.033 1072.85 629.446 1027.27 618.432 974.717C601.591 999.419 574.176 1053.21 589.979 1125.72C592.253 1136.14 585.469 1146.44 575.054 1148.79C483.109 1169.7 387.652 1152.9 321.408 1091.72L320.45 1091.56C340.842 1152.02 401.979 1199.31 544.525 1199.31C568.708 1199.31 592.133 1196.36 614.561 1190.89L614.681 1190.85Z" fill="#DBAB7A"/>
<path d="M372.966 883.851C381.706 863.1 386.734 842.149 389.288 821.956C376.558 830.137 366.103 840.912 359.199 854.24C358.6 856.555 357.922 858.83 357.243 861.144C357.084 861.703 356.884 862.302 356.725 862.86C356.206 864.536 355.647 866.252 355.088 867.928C354.849 868.647 354.609 869.405 354.33 870.123C353.771 871.759 353.173 873.356 352.574 874.992C352.335 875.67 352.055 876.349 351.816 877.027C350.938 879.302 350.06 881.537 349.102 883.811C307.4 982.859 239.599 1199.23 544.604 1199.23C547.637 1199.23 550.63 1199.15 553.663 1199.03C265.738 1192.09 331.942 981.223 372.966 883.811V883.851Z" fill="#FFF7EC"/>
<path d="M836.122 868.206C817.645 820.957 777.18 778.656 762.375 725.021C761.616 722.268 760.938 719.474 760.339 716.641C760.22 716.162 760.14 715.723 760.02 715.244C759.422 712.371 758.863 709.458 758.424 706.505C758.424 706.465 758.424 706.385 758.424 706.345C758.025 703.592 757.706 700.798 757.466 697.965C757.386 697.246 757.346 696.528 757.306 695.81C757.067 692.897 756.907 689.944 756.868 686.911C693.576 720.512 611.249 740.784 521.18 740.784C463.195 740.784 408.404 732.364 359.837 717.399C360.236 719.235 360.635 721.15 361.035 723.066C361.154 723.625 361.274 724.183 361.394 724.782C361.713 726.338 361.992 727.895 362.312 729.491C362.391 730.01 362.511 730.528 362.591 731.087C362.95 733.122 363.309 735.237 363.668 737.353C363.748 737.871 363.828 738.43 363.908 738.949C364.147 740.385 364.347 741.862 364.546 743.378C423.209 772.59 516.83 784.761 620.906 772.71C632.599 770.674 644.052 768.32 655.226 765.606C682.362 759.022 710.337 772.63 721.59 798.25C739.947 840.112 770.555 876.028 785.919 915.336C809.824 988.165 784.203 1071.81 728.294 1136.82C817.525 1069.69 866.411 960.31 836.202 868.246L836.122 868.206Z" fill="#D6823C"/>
<path d="M756.827 686.872C693.536 720.473 611.208 740.746 521.139 740.746C463.155 740.746 408.364 732.326 359.797 717.361C368.497 756.469 375.481 821.197 349.102 883.851C307.4 982.899 239.599 1199.27 544.604 1199.27C736.635 1199.27 883.451 1012.47 836.122 868.207C813.495 810.343 757.825 759.821 756.827 686.872Z" stroke="#592832" stroke-width="21.5495" stroke-linecap="round" stroke-linejoin="round"/>
<path d="M813.575 823.551C823.272 836.001 864.536 888.279 880.299 914.538C922.001 984.055 930.102 1083.7 874.512 1161.32C818.883 1238.94 706.506 1241.25 656.104 1177.52C581.479 1083.22 609.772 998.261 630.165 959.632C719.356 947.5 764.45 882.732 813.575 823.511V823.551Z" fill="#EAAC71"/>
<path d="M657.899 1141.97C617.314 1063.63 630.204 1000.74 650.716 959.394C655.026 950.734 648.162 940.837 638.505 941.316H638.265C614.68 978.07 579.363 1060.4 645.768 1160.6C678.73 1210.33 747.888 1227.33 806.87 1204.18C747.569 1217.51 684.357 1193.05 657.899 1141.97Z" fill="#F5D7BB"/>
<path d="M880.298 914.539C864.535 888.28 823.272 836.003 813.575 823.552C798.33 841.909 783.485 860.824 767.602 878.503C773.269 886.564 778.337 894.067 781.969 900.132C823.671 969.65 831.772 1069.3 776.182 1146.91C753.515 1178.56 721.351 1197.72 687.829 1204.94C744.337 1238.06 828.659 1225.29 874.512 1161.32C930.142 1083.7 922.001 984.056 880.298 914.539Z" fill="#D6823C"/>
<path d="M643.972 937.724C643.972 937.724 554.342 1048.98 656.104 1177.56C706.546 1241.29 818.922 1238.98 874.512 1161.36C930.142 1083.74 922.001 984.095 880.299 914.578C838.596 845.061 817.605 836.72 797.293 798.131" stroke="#592832" stroke-width="21.5495" stroke-linecap="round" stroke-linejoin="round"/>
<path d="M835.124 1267.91H559.37C559.37 1267.91 566.274 1196.08 656.064 1177.52C745.893 1158.97 839.913 1212.28 845.021 1235.47C850.129 1258.65 835.084 1267.91 835.084 1267.91H835.124Z" fill="#AE6745"/>
<path d="M835.124 1267.91H559.37C559.37 1267.91 566.274 1196.08 656.064 1177.52C745.893 1158.97 839.913 1212.28 845.021 1235.47C850.129 1258.65 835.084 1267.91 835.084 1267.91H835.124Z" fill="#AE6745"/>
<path d="M668.395 1191.65C740.067 1176.84 814.333 1207.77 844.064 1232.67C832.69 1208.33 742.501 1159.72 656.104 1177.56C566.274 1196.12 559.41 1267.95 559.41 1267.95H574.974C582.037 1246.04 603.706 1205.06 668.395 1191.69V1191.65Z" fill="#C18B71"/>
<path d="M845.061 1235.47C843.345 1227.73 831.692 1216.63 813.655 1205.98C810.662 1206.3 807.669 1206.65 804.676 1207.05C770.556 1211.8 748.447 1221.7 734.081 1232.16C721.431 1241.37 706.226 1246.32 690.583 1246.32H565.356C560.248 1258.81 559.33 1267.87 559.33 1267.87H835.084C835.084 1267.87 850.129 1258.61 845.021 1235.43L845.061 1235.47Z" fill="#924921"/>
<path d="M835.124 1267.91H559.37C559.37 1267.91 566.274 1196.08 656.064 1177.52C745.893 1158.97 839.913 1212.28 845.021 1235.47C850.129 1258.65 835.084 1267.91 835.084 1267.91H835.124Z" stroke="#592832" stroke-width="21.5495" stroke-linecap="round" stroke-linejoin="round"/>
<path d="M658.738 1267.91C658.738 1267.91 671.428 1228.08 702.754 1217.99" stroke="#592832" stroke-width="21.5495" stroke-linecap="round" stroke-linejoin="round"/>
<path d="M597.84 1267.91C597.84 1267.91 610.53 1228.08 641.857 1217.99" stroke="#592832" stroke-width="21.5495" stroke-linecap="round" stroke-linejoin="round"/>
<path d="M459.763 1192.33C458.167 1192.05 456.571 1191.73 455.014 1191.41C453.179 1191.05 451.343 1190.65 449.507 1190.25C447.991 1189.93 446.435 1189.57 444.958 1189.25C443.202 1188.86 441.446 1188.42 439.73 1187.98C438.254 1187.62 436.777 1187.26 435.341 1186.86C433.665 1186.42 431.988 1185.94 430.352 1185.46C428.956 1185.06 427.519 1184.67 426.162 1184.23C424.526 1183.75 422.97 1183.23 421.373 1182.71C420.056 1182.27 418.7 1181.83 417.383 1181.39C415.826 1180.83 414.31 1180.28 412.793 1179.72C411.556 1179.24 410.279 1178.8 409.042 1178.32C407.526 1177.72 406.049 1177.08 404.573 1176.48C403.415 1176.01 402.258 1175.53 401.141 1175.05C399.544 1174.37 398.028 1173.61 396.472 1172.89C395.514 1172.45 394.556 1172.01 393.598 1171.58C391.204 1170.42 388.889 1169.22 386.655 1167.98C385.617 1167.43 384.619 1166.83 383.582 1166.23C382.345 1165.51 381.108 1164.83 379.91 1164.11C378.833 1163.47 377.795 1162.8 376.758 1162.12C375.68 1161.44 374.603 1160.76 373.605 1160.08C372.568 1159.36 371.53 1158.65 370.532 1157.93C369.575 1157.25 368.577 1156.57 367.659 1155.89C366.661 1155.13 365.664 1154.38 364.706 1153.62C363.828 1152.94 362.91 1152.22 362.032 1151.5C361.075 1150.7 360.157 1149.91 359.199 1149.11C358.361 1148.39 357.563 1147.71 356.765 1146.95C355.847 1146.12 354.969 1145.28 354.091 1144.44C353.333 1143.72 352.574 1143 351.856 1142.28C350.978 1141.41 350.14 1140.53 349.302 1139.65C348.624 1138.93 347.945 1138.17 347.267 1137.46C346.469 1136.54 345.631 1135.66 344.873 1134.74C344.234 1134.02 343.635 1133.27 343.037 1132.55C342.279 1131.59 341.52 1130.63 340.762 1129.67C340.203 1128.96 339.645 1128.2 339.126 1127.48C338.408 1126.48 337.689 1125.48 336.971 1124.49C336.492 1123.77 336.013 1123.05 335.534 1122.29C334.856 1121.25 334.138 1120.22 333.499 1119.14C333.06 1118.46 332.661 1117.74 332.262 1117.02C331.584 1115.91 330.945 1114.83 330.307 1113.67C329.947 1113.03 329.628 1112.43 329.309 1111.8C328.67 1110.56 327.992 1109.36 327.393 1108.12C327.194 1107.73 327.034 1107.33 326.835 1106.93C324.4 1101.86 322.285 1096.71 320.49 1091.4C299.818 1030.19 320.889 955.482 341.44 902.566C256.08 951.491 220.484 1142.64 382.105 1192.17C417.023 1201.27 444.08 1200.03 465.071 1193.13C463.275 1192.85 461.479 1192.53 459.724 1192.21L459.763 1192.33Z" fill="#EAAC71"/>
<path d="M332.222 928.225C335.096 919.645 338.089 911.464 341.082 903.682C339.924 903.363 338.727 903.004 337.57 902.685C252.21 951.61 216.613 1142.76 378.235 1192.29C400.941 1198.19 420.336 1199.75 436.897 1198.23C426.521 1197.35 415.308 1195.48 403.136 1192.29C262.426 1149.15 271.245 998.66 332.222 928.185V928.225Z" fill="#F5D7BB"/>
<path d="M459.763 1192.33C458.167 1192.05 456.571 1191.73 455.014 1191.41C453.179 1191.05 451.343 1190.65 449.507 1190.25C447.991 1189.93 446.435 1189.57 444.958 1189.25C443.202 1188.86 441.446 1188.42 439.73 1187.98C438.254 1187.62 436.777 1187.26 435.341 1186.86C433.665 1186.42 431.988 1185.94 430.352 1185.46C428.956 1185.06 427.519 1184.67 426.162 1184.23C424.526 1183.75 422.97 1183.23 421.373 1182.71C420.056 1182.27 418.7 1181.83 417.383 1181.39C415.826 1180.83 414.31 1180.28 412.793 1179.72C411.556 1179.24 410.279 1178.8 409.042 1178.32C407.526 1177.72 406.049 1177.08 404.573 1176.48C403.415 1176.01 402.258 1175.53 401.141 1175.05C399.544 1174.37 398.028 1173.61 396.472 1172.89C395.514 1172.45 394.556 1172.01 393.598 1171.58C391.204 1170.42 388.889 1169.22 386.655 1167.98C385.617 1167.43 384.619 1166.83 383.582 1166.23C382.345 1165.51 381.108 1164.83 379.91 1164.11C378.833 1163.47 377.795 1162.8 376.758 1162.12C375.68 1161.44 374.603 1160.76 373.605 1160.08C372.568 1159.36 371.53 1158.65 370.532 1157.93C369.575 1157.25 368.577 1156.57 367.659 1155.89C366.661 1155.13 365.664 1154.38 364.706 1153.62C363.828 1152.94 362.91 1152.22 362.032 1151.5C361.075 1150.7 360.157 1149.91 359.199 1149.11C358.361 1148.39 357.563 1147.71 356.765 1146.95C355.847 1146.12 354.969 1145.28 354.091 1144.44C353.333 1143.72 352.574 1143 351.856 1142.28C350.978 1141.41 350.14 1140.53 349.302 1139.65C348.624 1138.93 347.945 1138.17 347.267 1137.46C346.469 1136.54 345.631 1135.66 344.873 1134.74C344.234 1134.02 343.635 1133.27 343.037 1132.55C342.279 1131.59 341.52 1130.63 340.762 1129.67C340.203 1128.96 339.645 1128.2 339.126 1127.48C338.408 1126.48 337.689 1125.48 336.971 1124.49C336.492 1123.77 336.013 1123.05 335.534 1122.29C334.856 1121.25 334.138 1120.22 333.499 1119.14C333.06 1118.46 332.661 1117.74 332.262 1117.02C331.584 1115.91 330.945 1114.83 330.307 1113.67C329.947 1113.03 329.628 1112.43 329.309 1111.8C328.67 1110.56 327.992 1109.36 327.393 1108.12C327.194 1107.73 327.034 1107.33 326.835 1106.93C324.4 1101.86 322.285 1096.71 320.49 1091.4C299.818 1030.19 320.889 955.482 341.441 902.566C256.08 951.491 220.484 1142.64 382.105 1192.17C417.024 1201.27 444.08 1200.03 465.071 1193.13C463.275 1192.85 461.479 1192.53 459.724 1192.21L459.763 1192.33Z" stroke="#592832" stroke-width="21.5495" stroke-linecap="round" stroke-linejoin="round"/>
<path d="M510.325 1267.91H234.571C234.571 1267.91 241.475 1196.08 331.264 1177.52C421.094 1158.96 515.114 1212.28 520.222 1235.47C525.33 1258.65 510.285 1267.91 510.285 1267.91H510.325Z" fill="#AE6745"/>
<path d="M510.325 1267.91H234.571C234.571 1267.91 241.475 1196.08 331.264 1177.52C421.094 1158.96 515.114 1212.28 520.222 1235.47C525.33 1258.65 510.285 1267.91 510.285 1267.91H510.325Z" fill="#AE6745"/>
<path d="M343.556 1191.65C415.228 1176.84 489.494 1207.77 519.224 1232.67C507.851 1208.33 417.662 1159.72 331.264 1177.56C241.435 1196.12 234.571 1267.95 234.571 1267.95H250.134C257.198 1246.04 278.867 1205.06 343.556 1191.69V1191.65Z" fill="#C18B71"/>
<path d="M520.262 1235.47C518.546 1227.72 506.893 1216.63 488.855 1205.97C485.862 1206.29 482.869 1206.65 479.876 1207.05C445.756 1211.8 423.648 1221.7 409.282 1232.15C396.631 1241.37 381.427 1246.32 365.784 1246.32H240.557C235.449 1258.81 234.531 1267.87 234.531 1267.87H510.285C510.285 1267.87 525.33 1258.61 520.222 1235.43L520.262 1235.47Z" fill="#924921"/>
<path d="M333.938 1267.91C333.938 1267.91 346.628 1228.08 377.955 1217.99" stroke="#592832" stroke-width="21.5495" stroke-linecap="round" stroke-linejoin="round"/>
<path d="M273.041 1267.91C273.041 1267.91 285.731 1228.08 317.058 1217.99" stroke="#592832" stroke-width="21.5495" stroke-linecap="round" stroke-linejoin="round"/>
<path d="M462.198 1192.77C461.4 1192.61 460.562 1192.49 459.763 1192.33C458.167 1192.05 456.571 1191.73 455.015 1191.41C453.179 1191.05 451.343 1190.65 449.508 1190.25C447.991 1189.93 446.435 1189.57 444.958 1189.25C443.202 1188.86 441.446 1188.42 439.73 1187.98C438.254 1187.62 436.777 1187.26 435.341 1186.86C433.665 1186.42 431.988 1185.94 430.352 1185.46C428.956 1185.06 427.519 1184.67 426.162 1184.23C424.526 1183.75 422.97 1183.23 421.373 1182.71C420.056 1182.27 418.7 1181.83 417.383 1181.39C415.826 1180.83 414.31 1180.28 412.793 1179.72C411.556 1179.24 410.279 1178.8 409.042 1178.32C407.526 1177.72 406.049 1177.08 404.573 1176.48C404.493 1176.48 404.453 1176.44 404.373 1176.4C380.988 1172.77 355.967 1172.41 331.264 1177.48C241.435 1196.04 234.571 1267.87 234.571 1267.87H510.325C510.325 1267.87 525.37 1258.61 520.262 1235.43C517.827 1224.37 495.041 1206.41 462.198 1192.73V1192.77Z" stroke="#592832" stroke-width="21.5495" stroke-linecap="round" stroke-linejoin="round"/>
<path d="M448.27 136.361C368.617 166.291 263.663 69.4377 189.796 136.361C137.119 184.049 195.981 269.529 259.712 286.649L448.27 136.361Z" fill="#EAAC71"/>
<path d="M180.059 162.42C244.907 103.717 333.659 171.08 408.244 168.246L448.27 136.361C368.617 166.291 263.663 69.4377 189.796 136.361C177.624 147.375 171.479 160.385 169.882 174.113C172.676 170.042 175.988 166.091 180.059 162.42Z" fill="#F5D7BB"/>
<path d="M448.27 136.361C368.617 166.291 263.663 69.4377 189.796 136.361C137.119 184.049 195.981 269.529 259.712 286.649L448.27 136.361Z" stroke="#592832" stroke-width="21.5495" stroke-linecap="round" stroke-linejoin="round"/>
<path d="M188.997 235.489C206.117 259.513 232.455 279.306 259.712 286.649L335.295 226.43C240.317 101.163 163.497 196.54 189.037 235.529L188.997 235.489Z" fill="#EE857B"/>
<path d="M220.484 221.122C210.148 205.319 216.613 180.258 234.251 164.375C194.824 169.244 173.833 212.303 188.997 235.488C206.117 259.512 232.455 279.306 259.712 286.649L281.62 269.17C257.876 260.23 235.608 242.312 220.484 221.122Z" fill="#FFBAB0"/>
<path d="M188.997 235.489C206.117 259.513 232.455 279.306 259.712 286.649L335.295 226.43C240.317 101.163 163.497 196.54 189.037 235.529L188.997 235.489Z" stroke="#592832" stroke-width="21.5495" stroke-linecap="round" stroke-linejoin="round"/>
<path d="M873.754 136.361C817.605 99.9658 747.29 145.978 698.484 157.99C647.484 125.706 589.46 106.431 527.924 106.431C324.56 106.431 159.666 334.137 159.666 513.717C159.666 639.103 324.52 740.785 527.924 740.785C731.327 740.785 896.181 639.143 896.181 513.717C896.181 448.15 877.944 381.147 846.138 320.928C939.081 275.994 949.297 185.326 873.754 136.361Z" fill="#EAAC71"/>
<path d="M877.505 138.956C892.191 183.611 869.125 235.729 807.868 269.091C843.066 328.592 864.855 395.635 868.047 462.119C874.193 589.262 711.973 700.401 505.776 710.378C406.169 715.207 314.504 695.493 245.665 659.537C313.227 709.221 414.589 740.787 527.924 740.787C731.288 740.787 896.182 639.145 896.182 513.718C896.182 448.152 877.944 381.149 846.139 320.93C937.485 276.753 948.858 188.44 877.505 138.956Z" fill="#D6823C"/>
<path d="M873.754 136.362C817.606 99.9673 747.29 145.98 698.485 157.991C689.905 152.564 681.125 147.536 672.186 142.867L668.674 149.571C707.623 182.733 735.199 178.743 778.457 158.829C828.46 135.803 913.102 151.566 923.797 222.361C925.233 190.515 908.672 158.989 873.754 136.362Z" fill="#F5D7BB"/>
<path d="M190.354 513.717C190.354 338.647 347.107 117.804 543.447 106.91C538.299 106.63 533.112 106.431 527.924 106.431C324.56 106.431 159.666 334.137 159.666 513.717C159.666 639.103 324.52 740.785 527.924 740.785C533.072 740.785 538.18 740.705 543.248 740.586C346.987 735.637 190.354 635.99 190.354 513.757V513.717Z" fill="#F5D7BB"/>
<path d="M471.256 199.453C436.857 164.295 403.535 151.924 376.159 149.57C352.415 163.457 329.987 180.218 309.236 199.174C325.478 240.357 397.19 264.98 471.216 199.453H471.256Z" fill="#D6823C"/>
<path d="M873.754 136.361C817.605 99.9658 747.29 145.978 698.484 157.99C647.484 125.706 589.46 106.431 527.924 106.431C324.56 106.431 159.666 334.137 159.666 513.717C159.666 639.103 324.52 740.785 527.924 740.785C731.327 740.785 896.181 639.143 896.181 513.717C896.181 448.15 877.944 381.147 846.138 320.928C939.081 275.994 949.297 185.326 873.754 136.361V136.361Z" stroke="#592832" stroke-width="21.5495" stroke-linecap="round" stroke-linejoin="round"/>
<path d="M923.477 209.829C931.578 240.916 902.127 293.473 847.216 320.45C826.943 284.733 802.72 250.693 772.79 219.087C772.79 219.087 901.329 125.187 923.477 209.868V209.829Z" fill="white"/>
<path d="M923.477 209.829C931.578 240.916 902.127 293.473 847.216 320.45C826.943 284.733 802.72 250.693 772.79 219.087C772.79 219.087 901.329 125.187 923.477 209.868V209.829Z" fill="#EE857B"/>
<path d="M923.477 209.829C916.893 184.647 900.89 175.269 881.655 174.511C887.402 180.338 891.791 188.479 894.226 199.652C900.252 227.188 876.707 270.087 833.049 296.905C837.958 304.686 842.706 312.508 847.216 320.449C902.127 293.513 931.578 240.916 923.477 209.829Z" fill="#FFBAB0"/>
<path d="M923.477 209.829C931.578 240.916 902.127 293.473 847.216 320.45C826.943 284.733 802.72 250.693 772.79 219.087C772.79 219.087 901.329 125.187 923.477 209.868V209.829Z" stroke="#592832" stroke-width="21.5495" stroke-linecap="round" stroke-linejoin="round"/>
<path d="M651.434 133.009C639.343 127.861 624.138 122.155 606.1 116.887C449.667 79.3348 391.603 -32.3636 361.513 29.6113C331.424 91.5861 413.432 130.734 413.432 130.734C413.432 130.734 343.755 136.72 345.551 178.343C347.386 220.045 441.167 231.459 488.975 186.324C554.022 181.735 611.049 167.488 651.434 133.009Z" fill="#EAAC71"/>
<path d="M610.331 141.31C663.845 147.854 675.817 152.483 684.038 155.516C693.815 149.969 643.014 140.192 651.474 133.009C639.383 127.861 624.178 122.154 606.141 116.887C449.707 79.3348 391.643 -32.3237 361.553 29.6112C358.082 36.6747 356.166 43.4588 355.328 49.9236C386.375 1.3973 445.517 111.819 610.371 141.31H610.331Z" fill="#F5D7BB"/>
<path d="M409.88 131.174C401.26 132.331 378.713 136.242 362.751 147.257C389.767 158.79 436.697 163.858 461.519 140.712C441.047 139.874 423.808 136.721 409.88 131.134V131.174Z" fill="#D6823C"/>
<path d="M684.796 149.69C684.796 149.69 656.502 131.572 606.1 116.887C449.667 79.3348 391.603 -32.3636 361.513 29.6113C331.424 91.5861 413.432 130.734 413.432 130.734C413.432 130.734 343.755 136.72 345.551 178.343C347.386 220.045 441.167 231.459 488.975 186.324" stroke="#592832" stroke-width="21.5495" stroke-linecap="round" stroke-linejoin="round"/>
<path d="M465.988 135.843C465.988 135.843 411.396 141.79 386.894 113.256" stroke="#592832" stroke-width="21.5495" stroke-linecap="round" stroke-linejoin="round"/>
<path d="M263.663 511.563C288.788 511.563 309.156 487.174 309.156 457.09C309.156 427.006 288.788 402.618 263.663 402.618C238.537 402.618 218.169 427.006 218.169 457.09C218.169 487.174 238.537 511.563 263.663 511.563Z" fill="#592832"/>
<path d="M278.308 459.286C284.92 459.286 290.28 453.461 290.28 446.276C290.28 439.091 284.92 433.267 278.308 433.267C271.696 433.267 266.336 439.091 266.336 446.276C266.336 453.461 271.696 459.286 278.308 459.286Z" fill="white"/>
<path d="M616.596 540.775C652.345 540.775 681.325 511.795 681.325 476.046C681.325 440.298 652.345 411.318 616.596 411.318C580.848 411.318 551.868 440.298 551.868 476.046C551.868 511.795 580.848 540.775 616.596 540.775Z" fill="#592832"/>
<path d="M591.176 478.121C599.97 478.121 607.098 470.992 607.098 462.198C607.098 453.404 599.97 446.275 591.176 446.275C582.382 446.275 575.253 453.404 575.253 462.198C575.253 470.992 582.382 478.121 591.176 478.121Z" fill="white"/>
<path d="M449.148 573.059C477.337 573.059 500.189 552.709 500.189 527.605C500.189 502.502 477.337 482.152 449.148 482.152C420.959 482.152 398.108 502.502 398.108 527.605C398.108 552.709 420.959 573.059 449.148 573.059Z" fill="#FFE5C0"/>
<path d="M369.335 565.715C390.471 565.715 407.605 547.67 407.605 525.41C407.605 503.149 390.471 485.104 369.335 485.104C348.199 485.104 331.065 503.149 331.065 525.41C331.065 547.67 348.199 565.715 369.335 565.715Z" fill="#FFE5C0"/>
<path d="M401.1 545.085C370.133 546.282 350.818 492.687 368.696 485.584C386.574 478.481 433.624 480.755 435.979 496.439C438.333 512.122 426.72 544.087 401.1 545.085Z" fill="#DBAB7A"/>
<path d="M400.502 529.76C369.534 530.957 350.698 490.492 368.656 484.905C386.614 479.358 433.624 480.635 435.819 492.527C438.014 504.42 426.122 528.763 400.502 529.76Z" fill="#592832"/>
<path d="M497.635 529.721C494.721 553.984 474.09 572.82 449.028 572.82C421.972 572.82 400.063 550.912 400.063 523.855" stroke="#592832" stroke-width="21.5495" stroke-linecap="round" stroke-linejoin="round"/>
<path d="M403.495 545.004C396.95 557.894 383.023 566.115 367.779 564.678C347.865 562.803 333.259 545.164 335.135 525.25" stroke="#592832" stroke-width="21.5495" stroke-linecap="round" stroke-linejoin="round"/>
<path d="M367.778 564.679C367.778 564.679 368.297 566.315 369.215 569.069C373.485 581.919 386.135 618.753 391.603 620.947C398.227 623.621 438.972 625.377 443.401 620.947C447.831 616.518 454.096 572.541 454.096 572.541C454.096 572.541 424.725 578.207 404.293 547.16C404.293 547.16 384.739 570.745 367.818 564.679H367.778Z" fill="white"/>
<path d="M454.096 572.541C454.096 572.541 424.725 578.207 404.293 547.16C404.293 547.16 384.739 570.745 367.818 564.679C367.818 564.679 368.337 566.315 369.255 569.069C370.771 573.578 373.285 581.041 376.159 588.902C385.696 587.905 397.908 584.752 406.248 575.973C415.387 590.14 435.819 594.37 450.544 594.489C452.62 583.156 454.136 572.541 454.136 572.541H454.096Z" fill="#C6AEA7"/>
<path d="M367.778 564.679C367.778 564.679 368.297 566.315 369.215 569.069C373.485 581.919 386.135 618.753 391.603 620.947C398.227 623.621 438.972 625.377 443.401 620.947C447.831 616.518 454.096 572.541 454.096 572.541C454.096 572.541 424.725 578.207 404.293 547.16C404.293 547.16 384.739 570.745 367.818 564.679H367.778Z" stroke="#592832" stroke-width="21.5495" stroke-linecap="round" stroke-linejoin="round"/>
<path d="M413.511 618.991C413.511 618.991 404.333 574.695 404.293 547.199" stroke="#592832" stroke-width="9.1785" stroke-linecap="round" stroke-linejoin="round"/>
<path d="M529.44 919.926H97.6112V966.417H529.44V919.926Z" fill="#933FDE"/>
<path d="M719.794 870.72C670.35 871.997 610.77 891.631 601.272 897.337C591.774 903.044 547.398 933.453 496.078 889.117C456.132 899.253 405.45 880.896 471.376 819.4C537.302 757.904 623.5 768.08 668.474 743.977C733.362 777.498 735.837 822.433 719.794 870.72Z" fill="#EAAC71"/>
<path d="M719.794 870.72C720.712 867.967 721.311 865.213 722.109 862.5C714.447 811.22 553.783 854.558 492.766 889.636C493.843 889.397 495.001 889.397 496.078 889.117C547.398 933.493 591.774 903.045 601.272 897.338C610.77 891.631 670.35 871.997 719.794 870.72Z" fill="#D6823C"/>
<path d="M668.435 743.938C623.42 768.001 537.222 757.865 471.336 819.361C426.242 861.422 436.059 882.932 459.364 889.317C459.005 877.704 467.226 861.502 490.731 839.593C538.339 795.178 602.948 788.074 652.193 778.497C679.09 772.191 675.099 749.445 668.435 743.977V743.938Z" fill="#F5D7BB"/>
<path d="M496.038 889.078C541.292 928.186 581.079 909.191 596.363 900.251C596.443 898.176 597.002 896.221 597.002 894.146C597.002 847.056 572.1 805.553 534.269 781.011C512.56 789.431 491.01 800.964 471.296 819.361C405.371 880.857 456.092 899.214 495.999 889.078H496.038Z" fill="#AE6745"/>
<path d="M519.663 904.402C523.534 906.238 527.365 908.034 531.076 909.191C533.191 909.83 535.186 910.229 537.222 910.668C540.574 911.426 543.886 912.064 547.079 912.344C549.074 912.503 550.989 912.543 552.905 912.583C555.938 912.583 558.891 912.503 561.724 912.144C563.44 911.945 565.156 911.745 566.792 911.426C569.546 910.907 572.18 910.308 574.694 909.59C576.091 909.191 577.567 908.792 578.884 908.353C581.398 907.475 583.673 906.557 585.828 905.599C586.786 905.16 587.903 904.761 588.781 904.322C591.056 903.205 593.051 902.167 594.807 901.13C595.286 900.851 595.924 900.531 596.363 900.292C596.443 898.217 597.002 896.261 597.002 894.186C597.002 879.461 593.849 865.613 589.34 852.324C552.027 862.381 515.433 876.547 492.726 889.637C493.803 889.397 494.961 889.397 496.038 889.118C502.144 894.386 508.09 898.456 513.956 901.768C515.912 902.886 517.747 903.524 519.623 904.402H519.663Z" fill="#924921"/>
<path d="M450.505 842.705C447.113 847.454 444.519 851.844 442.803 855.835C442.524 856.553 441.925 857.351 441.686 858.029C440.13 862.22 439.81 865.851 439.93 869.203C440.01 870.72 440.289 872.077 440.648 873.433C441.047 875.03 441.766 876.466 442.564 877.863C445.876 883.33 451.742 887.201 459.325 889.316C458.965 877.703 467.186 861.501 490.691 839.593C510.924 820.717 534.389 809.423 558.293 801.003C551.03 793.58 543.088 786.756 534.269 781.05C524.572 784.801 514.954 789.51 505.457 794.857C503.98 795.695 502.503 796.334 501.027 797.252C490.811 803.358 480.834 810.501 471.297 819.4C463.914 826.264 458.487 832.41 453.857 838.236C452.62 839.792 451.503 841.269 450.465 842.745L450.505 842.705Z" fill="#C18B71"/>
<path d="M719.794 870.72C670.35 871.997 610.77 891.631 601.272 897.337C591.774 903.044 547.398 933.453 496.078 889.117C456.132 899.253 405.45 880.896 471.376 819.4C537.302 757.904 623.5 768.08 668.474 743.977" stroke="#592832" stroke-width="21.5495" stroke-linecap="round" stroke-linejoin="round"/>
<path d="M529.44 919.926H399.544L417.223 966.417H529.44V919.926Z" fill="#AB69F3"/>
<path d="M529.44 919.926H399.544L417.223 966.417H529.44V919.926Z" stroke="#592832" stroke-width="21.5495" stroke-linecap="round" stroke-linejoin="round"/>
<path d="M464.512 938.361H436.458V949.175H464.512V938.361Z" fill="#933FDE"/>
<path d="M461.679 941.753H436.458V949.176H461.679V941.753Z" fill="#592832"/>
<path d="M475.167 949.177C478.165 949.177 480.594 946.747 480.594 943.749C480.594 940.752 478.165 938.322 475.167 938.322C472.17 938.322 469.74 940.752 469.74 943.749C469.74 946.747 472.17 949.177 475.167 949.177Z" fill="#933FDE"/>
<path d="M474.489 948.857C476.847 948.857 478.759 946.946 478.759 944.587C478.759 942.229 476.847 940.317 474.489 940.317C472.13 940.317 470.219 942.229 470.219 944.587C470.219 946.946 472.13 948.857 474.489 948.857Z" fill="#592832"/>
<path d="M491.13 949.177C494.127 949.177 496.557 946.747 496.557 943.749C496.557 940.752 494.127 938.322 491.13 938.322C488.132 938.322 485.702 940.752 485.702 943.749C485.702 946.747 488.132 949.177 491.13 949.177Z" fill="#933FDE"/>
<path d="M490.451 948.857C492.81 948.857 494.721 946.946 494.721 944.587C494.721 942.229 492.81 940.317 490.451 940.317C488.093 940.317 486.181 942.229 486.181 944.587C486.181 946.946 488.093 948.857 490.451 948.857Z" fill="#592832"/>
<path d="M363.948 739.667C363.708 738.19 363.509 736.714 363.269 735.277C363.07 734.12 362.87 732.963 362.671 731.845C362.391 730.209 362.072 728.573 361.753 727.016C361.593 726.258 361.473 725.5 361.314 724.742C361.274 724.502 361.234 724.303 361.194 724.063C360.715 721.749 360.276 719.514 359.797 717.359C362.75 718.277 365.743 719.075 368.736 719.913C364.027 716.88 358.84 714.047 353.093 711.533C353.093 711.533 316.419 792.583 211.465 853.321C216.054 879.26 228.704 895.981 243.59 906.596C236.646 897.018 231.258 884.887 228.585 869.802C309.395 822.992 349.701 764.249 363.988 739.667H363.948Z" fill="#F5D7BB"/>
<path d="M353.173 873.354C353.452 872.556 353.731 871.797 354.011 870.999C355.208 867.607 356.325 864.215 357.323 860.823C357.523 860.185 357.682 859.586 357.842 858.947C369.974 816.886 369.016 775.583 364.466 743.338C364.307 742.141 364.107 740.944 363.948 739.747C363.708 738.23 363.469 736.754 363.229 735.277C363.03 734.12 362.83 732.963 362.631 731.845C362.351 730.209 362.032 728.573 361.713 727.016C361.553 726.258 361.433 725.5 361.274 724.742C361.234 724.502 361.194 724.303 361.154 724.063C360.675 721.749 360.236 719.514 359.757 717.359C362.71 718.277 365.704 719.075 368.697 719.913C363.988 716.88 358.8 714.047 353.013 711.533C353.013 711.533 316.339 792.583 211.385 853.321C222.16 914.098 276.433 926.469 302.372 920.284C319.372 908.99 335.095 896.34 349.023 883.809C350.499 880.297 351.816 876.826 353.093 873.314L353.173 873.354Z" fill="#EAAC71"/>
<path d="M529.44 919.926H97.6112V966.417H529.44V919.926Z" stroke="#592832" stroke-width="21.5495" stroke-linecap="round" stroke-linejoin="round"/>
<path d="M363.509 716.84C359.717 715.683 355.926 714.526 352.215 713.289C346.269 725.261 307.44 797.771 211.425 853.361C222.2 914.138 268.212 912.462 303.449 919.206C320.449 907.913 335.135 896.34 349.062 883.849C350.539 880.337 351.856 876.865 353.133 873.354C353.412 872.556 353.692 871.797 353.971 870.999C355.168 867.607 356.286 864.215 357.283 860.823C357.483 860.185 357.642 859.586 357.802 858.947C369.934 816.886 368.976 775.583 364.426 743.338C364.267 742.141 364.067 740.944 363.908 739.747C363.668 738.23 363.429 736.754 363.189 735.277C362.99 734.12 362.79 732.962 362.591 731.845C362.311 730.209 361.992 728.573 361.673 727.016C361.513 726.258 361.394 725.5 361.234 724.742C361.194 724.502 361.154 724.303 361.114 724.063C360.635 721.749 360.196 719.514 359.718 717.359C362.671 718.277 365.664 719.075 368.657 719.913C366.98 718.836 365.225 717.838 363.429 716.84H363.509Z" stroke="#592832" stroke-width="21.5495" stroke-linecap="round" stroke-linejoin="round"/>
<path d="M329.389 730.648L399.544 919.965H99.0082C89.5504 919.965 81.0503 914.059 77.7779 905.2L13.1294 730.688H329.429L329.389 730.648Z" fill="#933FDE"/>
<path d="M309.595 756.907L369.974 919.925H399.544L329.389 730.648H13.0895L22.8267 756.907H309.595Z" fill="#AB69F3"/>
<path d="M329.389 730.648L399.544 919.965H99.0082C89.5504 919.965 81.0503 914.059 77.7779 905.2L13.1294 730.688H329.429L329.389 730.648Z" stroke="#592832" stroke-width="21.5495" stroke-linecap="round" stroke-linejoin="round"/>
<path d="M220.526 842.87C226.688 830.897 219.736 815.042 204.999 807.458C190.262 799.875 173.32 803.434 167.158 815.408C160.996 827.382 167.948 843.236 182.685 850.82C197.422 858.403 214.364 854.844 220.526 842.87Z" fill="#CAA0F7"/>
<path d="M259.393 969.489C255.083 996.307 222.28 1013.35 186.164 1007.52C150.049 1001.69 124.269 975.236 128.619 948.379C132.929 921.562 166.969 896.82 203.085 902.646C239.2 908.472 263.743 942.632 259.393 969.449V969.489Z" fill="#AE6745"/>
<path d="M259.393 969.489C255.083 996.307 222.28 1013.35 186.164 1007.52C150.049 1001.69 124.269 975.236 128.619 948.379C132.929 921.562 166.969 896.82 203.085 902.646C239.2 908.472 263.743 942.632 259.393 969.449V969.489Z" fill="#924921"/>
<path d="M244.587 957.477C241.235 978.229 215.854 991.438 187.92 986.928C159.985 982.419 140.032 961.947 143.384 941.155C146.736 920.404 173.075 901.289 201.009 905.758C228.944 910.268 247.939 936.686 244.587 957.437V957.477Z" fill="#AE6745"/>
<path d="M259.393 969.489C255.083 996.307 222.28 1013.35 186.164 1007.52C150.049 1001.69 124.269 975.236 128.619 948.379C132.929 921.562 166.969 896.82 203.085 902.646C239.2 908.472 263.743 942.632 259.393 969.449V969.489Z" stroke="#592832" stroke-width="21.5495" stroke-linecap="round" stroke-linejoin="round"/>
<path d="M171.638 957.877C171.638 957.877 158.948 938.522 174.392 906.278" stroke="#592832" stroke-width="17.9579" stroke-linecap="round" stroke-linejoin="round"/>
<path d="M217.012 962.706C217.012 962.706 204.322 943.351 219.766 911.106" stroke="#592832" stroke-width="17.9579" stroke-linecap="round" stroke-linejoin="round"/>
</svg>
