<svg width="1359" height="1525" viewBox="0 0 1359 1525" fill="none" xmlns="http://www.w3.org/2000/svg">
<g clip-path="url(#clip0_971_2685)">
<path d="M639.687 1303.86C752.134 1420.37 878.533 1340.71 971.994 1178.83C1065.45 1016.94 1196.29 969.729 1294.91 1063.07C1393.53 1156.42 1351.03 1358.19 1162.68 1456.87C974.338 1555.54 701.921 1529.4 525.688 1334.95L639.687 1303.88V1303.86Z" fill="#E8AB71"/>
<path d="M639.687 1303.86C752.134 1420.37 878.533 1340.71 971.994 1178.83C1065.45 1016.94 1196.29 969.729 1294.91 1063.07C1393.53 1156.42 1351.03 1358.19 1162.68 1456.87C974.338 1555.54 701.921 1529.4 525.688 1334.95L639.687 1303.88V1303.86Z" fill="#AD6746"/>
<path d="M665.339 1334.16C777.786 1450.66 909.438 1359.01 1002.9 1197.13C1095.8 1036.23 1220.34 1000.67 1318.75 1091.75C1312.02 1081.37 1304.08 1071.75 1294.91 1063.08C1196.29 969.729 1065.45 1016.95 971.994 1178.83C878.533 1340.72 752.134 1420.37 639.687 1303.86L525.688 1334.94C535.02 1345.24 544.628 1355.03 554.466 1364.39L665.327 1334.16H665.339Z" fill="#C08A71"/>
<path d="M1133.52 1361.7C1133.96 1357.54 1130.95 1353.93 1126.85 1353.48C1114.12 1352.22 1100.76 1351.1 1086.98 1350.25C1097.5 1322.38 1107.07 1292.2 1115.56 1262.16C1140 1263.08 1164.97 1264.58 1189.26 1266.9C1184.3 1280.07 1179.02 1292.97 1173.38 1305.28C1172.12 1308.02 1172.67 1311.09 1174.49 1313.23C1175.17 1314.04 1176.02 1314.7 1177.06 1315.21C1180.83 1316.9 1185.26 1315.24 1186.97 1311.51C1193.27 1297.72 1199.13 1283.25 1204.65 1268.49C1213.56 1269.49 1222.34 1270.6 1230.96 1271.87C1235.06 1272.47 1238.86 1269.63 1239.43 1265.56C1240.03 1261.47 1237.19 1257.66 1233.13 1257.09C1225.51 1255.98 1217.72 1254.98 1209.83 1254.07C1221.05 1222.16 1230.42 1189.27 1238.18 1158.48C1247.15 1159.31 1256.12 1160.31 1265.11 1161.44C1269.18 1161.96 1272.94 1159.06 1273.49 1154.97C1273.99 1150.82 1271.06 1147.13 1266.98 1146.62C1258.58 1145.56 1250.15 1144.63 1241.76 1143.8C1246.31 1124.8 1250.24 1106.81 1253.49 1090.67C1254.3 1086.65 1251.72 1082.71 1247.62 1081.88C1243.6 1081.07 1239.68 1083.68 1238.85 1087.73C1235.48 1104.29 1231.46 1122.85 1226.72 1142.48C1198.61 1140.15 1171.02 1139.04 1145.71 1138.68C1155.56 1092.12 1160.89 1059.59 1161.04 1058.75C1161.72 1054.7 1158.93 1050.85 1154.87 1050.21C1150.78 1049.56 1146.99 1052.31 1146.31 1056.36C1146.16 1057.2 1140.65 1090.83 1130.48 1138.53C1099.44 1138.43 1072.81 1139.33 1054.18 1140.24C1057.02 1125.08 1058.44 1116.03 1058.5 1115.66C1059.16 1111.56 1056.39 1107.75 1052.31 1107.09C1048.25 1106.47 1044.42 1109.23 1043.79 1113.3C1043.73 1113.74 1042.04 1124.05 1038.84 1141.09C1030.85 1141.6 1026.29 1141.96 1026.08 1142C1021.97 1142.33 1018.92 1145.96 1019.28 1150.05C1019.4 1151.66 1020.03 1153.09 1021.02 1154.26C1022.53 1156.04 1024.85 1157.09 1027.36 1156.88C1027.54 1156.88 1030.56 1156.61 1035.89 1156.25C1031.16 1179.95 1024.37 1211.54 1015.49 1246.34C986.578 1246.79 962.121 1247.76 945.445 1248.55C946.882 1242.79 948.192 1237.24 949.364 1231.85C950.238 1227.86 947.698 1223.85 943.664 1222.97C939.618 1222.09 935.63 1224.65 934.757 1228.69C933.332 1235.25 931.665 1242.19 929.826 1249.4C924.677 1249.7 921.793 1249.89 921.574 1249.93C917.494 1250.18 914.345 1253.75 914.656 1257.89C914.782 1259.5 915.38 1261.01 916.368 1262.18C917.874 1263.96 920.172 1264.98 922.62 1264.82C922.747 1264.81 923.873 1264.72 925.792 1264.62C918.667 1290.34 909.633 1318.62 899.577 1346.58C875.361 1346.87 853.479 1347.39 835.63 1347.93C835.998 1346.04 836.228 1344.79 836.274 1344.51C836.998 1340.46 834.274 1336.56 830.24 1335.86C826.183 1335.14 822.321 1337.79 821.563 1341.87C821.563 1341.97 821.114 1344.45 820.218 1348.41C800.082 1349.07 787.854 1349.63 787.36 1349.66C783.234 1349.86 780.062 1353.35 780.245 1357.46C780.337 1359.19 780.981 1360.75 781.992 1361.95C783.429 1363.65 785.647 1364.68 788.084 1364.58C788.532 1364.54 799.025 1364.06 816.483 1363.48C812.138 1379.01 805.093 1399.07 795.382 1410.06C792.899 1412.87 792.911 1417.02 795.267 1419.81C795.508 1420.08 795.761 1420.33 796.06 1420.58C799.14 1423.31 803.852 1423.01 806.599 1419.92C819.195 1405.67 827.539 1380.3 832.079 1362.98C849.226 1362.47 870.431 1361.95 894.095 1361.62C884.969 1386.06 875.258 1409.86 865.581 1431.1C864.316 1433.85 864.868 1436.92 866.661 1439.03C867.373 1439.87 868.224 1440.54 869.258 1441.03C873.028 1442.72 877.453 1441.07 879.165 1437.33C889.704 1414.22 900.278 1388.11 910.081 1361.42C932.251 1361.19 956.03 1361.18 980.407 1361.47C974.223 1378.27 967.615 1394.61 960.558 1410.09C959.294 1412.84 959.823 1415.87 961.662 1418.05C962.317 1418.83 963.19 1419.52 964.213 1419.99C968.006 1421.7 972.442 1420.05 974.12 1416.29C982.027 1398.99 989.383 1380.58 996.198 1361.71C1019.38 1362.11 1042.81 1362.81 1065.51 1364C1062.93 1370.2 1060.29 1376.29 1057.62 1382.15C1056.39 1384.87 1056.9 1387.97 1058.7 1390.08C1059.41 1390.92 1060.28 1391.57 1061.33 1392.06C1065.06 1393.77 1069.5 1392.12 1071.21 1388.38C1074.66 1380.83 1078 1372.98 1081.27 1364.87C1096.55 1365.82 1111.35 1366.98 1125.36 1368.4C1129.46 1368.79 1133.13 1365.78 1133.52 1361.73V1361.7ZM1223.11 1157.16C1215.32 1187.98 1205.85 1220.75 1194.58 1252.42C1169.94 1249.96 1144.56 1248.38 1119.67 1247.36C1128.68 1214.32 1136.33 1181.94 1142.51 1153.57C1167.62 1153.87 1195.06 1154.9 1223.1 1157.16H1223.11ZM1051.32 1155.34C1069.17 1154.42 1095.83 1153.44 1127.29 1153.48C1121.02 1181.87 1113.35 1214.12 1104.34 1246.87C1078.63 1246.08 1053.7 1245.93 1030.93 1246.14C1039.89 1210.73 1046.69 1178.8 1051.31 1155.34H1051.32ZM915.54 1346.42C925.585 1318.05 934.573 1289.5 941.56 1263.71C957.306 1262.89 981.901 1261.86 1011.62 1261.35C1004.23 1289.02 995.623 1318.2 985.728 1346.58C961.512 1346.25 937.733 1346.22 915.54 1346.42ZM1001.42 1346.82C1011.25 1318.14 1019.82 1288.81 1027.09 1261.11C1049.65 1260.89 1074.51 1260.96 1100.22 1261.7C1091.65 1291.75 1082 1321.79 1071.38 1349.33C1048.54 1348.08 1024.9 1347.31 1001.42 1346.84V1346.82Z" fill="#924921"/>
<path d="M959.892 1262.85C963.615 1257.82 967.328 1252.72 971.005 1247.47C961.271 1247.82 952.628 1248.21 945.479 1248.53C946.916 1242.77 948.226 1237.22 949.399 1231.83C950.238 1228.01 947.904 1224.19 944.204 1223.09C940.227 1228.9 936.239 1234.52 932.217 1239.97C931.447 1243.07 930.688 1246.19 929.861 1249.38C927.803 1249.49 926.171 1249.58 924.861 1249.69C921.815 1253.61 918.781 1257.41 915.678 1261.13C915.908 1261.51 916.138 1261.85 916.391 1262.14C917.896 1263.93 920.195 1264.95 922.643 1264.79C922.769 1264.78 923.896 1264.68 925.815 1264.58C920.793 1282.74 914.77 1302.16 908.173 1321.85C916.149 1314.29 923.988 1306.16 931.722 1297.46C935.297 1285.88 938.618 1274.51 941.537 1263.68C946.709 1263.42 952.892 1263.16 959.88 1262.82L959.892 1262.85Z" fill="#A56A49"/>
<path d="M1147.07 1054.19C1150.23 1052.9 1153.4 1051.74 1156.54 1050.71C1156.01 1050.48 1155.46 1050.28 1154.87 1050.2C1151.57 1049.7 1148.51 1051.39 1147.07 1054.19Z" fill="#A56A49"/>
<path d="M878.74 1346.88C862.776 1347.16 848.18 1347.53 835.653 1347.9C836.021 1346.02 836.25 1344.77 836.296 1344.49C836.963 1340.87 834.837 1337.41 831.527 1336.21C828.24 1338.08 824.987 1339.88 821.689 1341.57C821.654 1341.65 821.597 1341.74 821.585 1341.85C821.585 1341.95 821.137 1344.42 820.241 1348.39C814.632 1348.59 809.656 1348.76 805.369 1348.88C797.048 1352.15 788.693 1354.69 780.314 1356.43C780.291 1356.74 780.234 1357.08 780.257 1357.43C780.349 1359.17 780.992 1360.73 782.004 1361.93C783.44 1363.63 785.658 1364.66 788.095 1364.56C788.543 1364.51 799.036 1364.04 816.494 1363.45C814.908 1369.14 812.966 1375.43 810.667 1381.63C816.574 1380.02 822.505 1378.05 828.424 1375.67C829.837 1371.18 831.067 1366.89 832.09 1362.96C839.227 1362.75 847.111 1362.52 855.536 1362.32C863.339 1357.77 871.063 1352.61 878.74 1346.88Z" fill="#A56A49"/>
<path d="M1038.86 1141.08C1030.87 1141.58 1026.31 1141.95 1026.1 1141.99C1021.99 1142.32 1018.94 1145.95 1019.3 1150.04C1019.42 1151.65 1020.06 1153.08 1021.05 1154.25C1022.55 1156.03 1024.87 1157.08 1027.38 1156.87C1027.46 1156.85 1027.9 1156.81 1028.71 1156.74C1038.17 1143.42 1047.88 1131.24 1057.78 1120.24C1058.25 1117.4 1058.51 1115.8 1058.52 1115.64C1059.18 1111.55 1056.41 1107.74 1052.33 1107.08C1048.27 1106.46 1044.44 1109.22 1043.81 1113.29C1043.76 1113.72 1042.07 1124.03 1038.86 1141.08Z" fill="#A56A49"/>
<path d="M1294.92 1063.06C1288.64 1057.11 1281.91 1053.39 1275.4 1048.58C1354.35 1143.54 1310.42 1324.28 1136.62 1415.32C965.316 1505.07 723.102 1486.22 552.915 1327.54L525.676 1334.93C701.921 1529.38 974.315 1555.55 1162.66 1456.87C1351.01 1358.19 1393.54 1156.42 1294.91 1063.08L1294.92 1063.06Z" fill="#924921"/>
<path d="M926.413 1525C784.406 1525 632.526 1471.3 516.482 1343.27C513.574 1340.07 512.54 1335.6 513.758 1331.44C514.965 1327.3 518.263 1324.08 522.424 1322.95L549.674 1315.56C553.777 1314.45 558.259 1315.51 561.397 1318.47C716.758 1463.31 950.939 1498.61 1130.86 1404.34C1223.18 1355.97 1286.95 1275.83 1301.37 1189.95C1310.32 1136.77 1298.32 1089.5 1267.59 1056.86C1263.19 1052.19 1263.06 1044.92 1267.33 1040.11C1271.61 1035.29 1278.87 1034.57 1283.99 1038.38C1291.75 1044.09 1297.24 1048.18 1303.45 1054.08C1346.46 1094.78 1365.81 1156.55 1356.53 1223.52C1342.88 1321.99 1272.58 1413.32 1168.44 1467.87C1098.89 1504.31 1014.54 1525.02 926.413 1525.02V1525ZM548.892 1341.5C728.251 1525.31 988.233 1534.27 1156.93 1445.87C1253.98 1395.03 1319.39 1310.63 1331.94 1220.1C1335.49 1194.49 1334.37 1169.82 1328.91 1147.24C1329.57 1162.29 1328.56 1177.97 1325.86 1194.07C1310.14 1287.54 1241.56 1374.37 1142.39 1426.32C955.237 1524.37 712.483 1489.29 549.593 1341.33L548.904 1341.51L548.892 1341.5Z" fill="#592832"/>
<path d="M926.39 1524.98C784.406 1524.98 632.526 1471.29 516.505 1343.3C513.597 1340.09 512.563 1335.62 513.781 1331.48C514.999 1327.34 518.263 1324.1 522.424 1322.98L636.411 1291.89C640.813 1290.74 645.467 1291.99 648.617 1295.24C686.015 1333.98 726.068 1350.86 767.729 1345.92C832.596 1337.95 901.324 1276.42 961.248 1172.64C1017.57 1075.09 1088.79 1015.51 1161.78 1004.87C1212.78 997.416 1261.64 1014.49 1303.44 1054.06C1346.45 1094.75 1365.8 1156.54 1356.54 1223.51C1342.89 1321.98 1272.59 1413.31 1168.45 1467.86C1098.9 1504.3 1014.55 1524.99 926.413 1524.99L926.39 1524.98ZM548.892 1341.5C728.228 1525.29 988.176 1534.27 1156.93 1445.87C1253.96 1395.03 1319.39 1310.63 1331.94 1220.09C1340.1 1161.16 1323.49 1107.22 1286.38 1072.09C1250.26 1037.88 1208.35 1023.06 1165.35 1029.44C1100.04 1038.95 1035.18 1094.21 982.74 1185.04C918.839 1295.75 843.548 1361.63 770.741 1370.56C722.987 1376.35 677.625 1358.66 635.974 1317.75L548.904 1341.5H548.892Z" fill="#592832"/>
<path d="M70.1868 1070.06C70.1868 1070.06 178.968 1044.26 254.752 1185.67C398.161 1096.75 404.379 951.571 390.174 902.622C335.674 845.353 238.041 853.421 161.774 932.458C111.791 995.29 70.1753 1070.06 70.1753 1070.06H70.1868Z" fill="#E8AB71"/>
<path d="M254.752 1185.67C398.161 1096.75 404.379 951.571 390.174 902.622C377.233 889.026 361.797 879.234 344.857 873.074C297.242 903.542 258.189 945.801 237.88 992.187C231.536 1006.67 213.561 1012.2 200.747 1002.97C181.68 989.233 157.717 979.395 132.042 972.373C96.3333 1023.11 70.1753 1070.06 70.1753 1070.06C70.1753 1070.06 178.956 1044.26 254.741 1185.67H254.752Z" fill="#D6813A"/>
<path d="M254.764 1197.46C253.73 1197.46 252.718 1197.34 251.718 1197.06C248.569 1196.23 245.926 1194.13 244.386 1191.27C174.141 1060.16 77.0141 1080.66 72.8651 1081.54C68.3024 1082.59 63.5673 1080.85 60.809 1077.14C58.0047 1073.43 57.6369 1068.42 59.901 1064.34C61.6135 1061.27 102.551 988.015 152.546 925.148C197.276 878.74 249.696 853.674 301.012 853.674H301.552C339.272 853.812 373.774 868.316 398.725 894.52C400.012 895.899 400.966 897.554 401.495 899.347C418.286 957.202 406.023 1105.76 260.97 1195.72C259.097 1196.89 256.948 1197.47 254.764 1197.47V1197.46ZM91.8055 1056.31C129.054 1056.36 201.701 1070.71 258.925 1168.97C391.519 1080.04 388.68 945.974 379.589 908.645C359.063 888.199 332.112 877.349 301.471 877.234C257.327 876.407 209.286 900.209 170.256 940.652C137.226 982.234 107.367 1030.17 91.8055 1056.31Z" fill="#592832"/>
<path d="M70.1871 1070.06C113.987 1073.04 199.149 1022.49 196.046 931.377C192.943 840.261 118.274 771.786 57.0621 775.314C28.663 774.521 8.58483 839.87 12.2051 921.264C15.8254 1002.66 41.788 1069.28 70.1871 1070.06Z" fill="#AD6746"/>
<path d="M70.1871 1070.06C113.987 1073.04 199.149 1022.49 196.046 931.377C192.943 840.261 118.274 771.786 57.0621 775.314C28.663 774.521 8.58483 839.87 12.2051 921.264C15.8254 1002.66 41.788 1069.28 70.1871 1070.06Z" fill="#AD6746"/>
<path d="M70.1871 1070.06C108.631 1072.67 178.956 1034.02 193.449 962.891C159.602 1021.61 137.869 988.486 139.271 954.754C139.961 938.262 141.259 848.272 85.2658 788.647L72.5891 776.073C67.3598 775.395 62.1535 775.016 57.0621 775.315C28.663 774.522 8.58483 839.871 12.2051 921.264C15.8254 1002.66 41.788 1069.28 70.1871 1070.06Z" fill="#924921"/>
<path d="M42.7302 797.622C103.942 794.083 178.611 862.558 181.714 953.685C182.542 978.131 176.979 999.622 167.613 1017.98C185.266 995.646 197.241 966.546 196.046 931.377C192.943 840.261 118.273 771.786 57.0619 775.314C45.5115 774.993 35.3747 785.75 27.6055 803.955C32.2831 799.703 37.3515 797.473 42.7302 797.622Z" fill="#C08A71"/>
<path d="M74.0145 1081.98C72.5434 1081.98 71.0838 1081.92 69.6472 1081.84C28.8127 1080.41 3.93045 1000.32 0.436593 921.804C-2.52859 855.053 9.89529 797.335 32.0882 774.774C41.5239 765.178 50.8102 763.546 57.4072 763.557C86.3349 761.845 119.952 775.452 147.96 800.99C184.324 834.158 206.137 881.532 207.838 930.975C209.252 972.396 193.311 1011.36 162.947 1040.7C136.961 1065.83 101.873 1081.99 74.0145 1081.99V1081.98ZM57.5451 787.083C54.2351 787.083 51.6492 788.497 48.8794 791.29C34.7546 805.679 20.917 852.306 23.9857 920.746C27.6864 1004.02 54.0052 1057.82 70.5091 1058.28C71.7159 1058.34 72.7503 1058.42 73.8996 1058.41C92.1619 1058.41 121.572 1047.9 146.547 1023.75C164.59 1006.31 185.783 976.211 184.266 931.78C182.795 888.647 163.763 847.329 132.065 818.402C108.735 797.128 81.5539 785.9 57.7405 787.083H57.5336H57.5451Z" fill="#592832"/>
<path d="M71.673 1070.04C99.953 1068.49 119.283 1001.27 114.847 919.894C110.411 838.514 83.8894 773.793 55.6094 775.334C27.3293 776.876 7.99978 844.097 12.4356 925.476C16.8715 1006.86 43.393 1071.58 71.673 1070.04Z" fill="#924921"/>
<path d="M70.6815 1081.87C70.3942 1081.87 70.1414 1081.84 69.877 1081.84C28.9046 1080.72 3.93045 1000.47 0.436593 921.804C-2.52859 855.053 9.89529 797.335 32.0882 774.775C41.5469 765.155 50.7298 763.155 57.4072 763.558C98.3566 764.684 123.331 844.928 126.825 923.597C129.79 990.348 117.354 1048.04 95.173 1070.63C86.1166 1079.82 77.0141 1081.85 70.693 1081.85L70.6815 1081.87ZM56.5797 787.118C54.2121 787.118 51.6262 788.532 48.8794 791.302C34.7546 805.691 20.917 852.318 23.9857 920.758C27.6864 1004.04 54.0052 1057.83 70.5091 1058.29C73.118 1057.79 75.543 1056.96 78.3473 1054.11C92.4722 1039.72 106.31 993.095 103.253 924.654C99.5518 841.376 73.233 787.578 56.7291 787.118H56.5682H56.5797Z" fill="#592832"/>
<path d="M157.12 928.482C151.867 928.482 147.397 924.436 146.937 919.103C145.121 897.623 124.836 871.086 106.735 866.477C101.264 865.086 97.9424 859.512 99.3446 854.03C100.735 848.571 106.298 845.238 111.791 846.64C138.294 853.364 164.785 887.084 167.348 917.368C167.808 922.999 163.648 927.953 158.016 928.436C157.717 928.459 157.43 928.482 157.131 928.482H157.12Z" fill="#592832"/>
<path d="M718.827 868.465C633.883 843.399 559.132 805.369 499.656 760.202C474.188 801.358 410.034 847.295 351.018 890.187C273.28 946.686 179.945 1086.44 276.831 1214.22C373.717 1342.01 575.36 1441.41 773.062 1334.72C958.593 1234.6 862.431 995.669 1034.02 886.992C942.687 906.335 831.711 901.772 718.839 868.465H718.827Z" fill="#E8AB71"/>
<path d="M986.98 894.037C981.211 894.704 975.43 895.359 969.546 895.853C952.421 897.221 934.975 898.094 917 897.933C892.704 897.842 867.5 895.669 842.054 892.704C828.24 891.049 814.276 888.808 800.231 886.303C773.292 881.533 746.249 876.557 718.827 868.454C633.882 843.388 559.132 805.358 499.645 760.19C494.691 768.201 488.244 776.396 480.67 784.705C533.871 828.332 601.587 865.443 678.372 892.555L676.59 892.796C818.586 937.124 820.896 1117.16 820.666 1123.48C817.758 1204.29 811.161 1303.97 672.889 1356.16C697.703 1193.89 604.564 1149.9 604.564 1149.9L394.898 1320.21C499.231 1383.98 637.066 1408.09 773.039 1334.71C882.544 1275.61 894.014 1168.22 920.241 1067.75C920.976 1064.93 921.689 1062.09 922.447 1059.27C924.022 1053.48 925.757 1047.77 927.47 1042.04C928.815 1037.56 930.182 1033.09 931.642 1028.67C933.343 1023.49 935.182 1018.39 937.067 1013.31C938.836 1008.54 940.721 1003.83 942.675 999.152C944.652 994.428 946.698 989.739 948.893 985.108C951.226 980.212 953.823 975.442 956.432 970.672C958.754 966.443 961.018 962.179 963.592 958.065C966.833 952.881 970.545 947.928 974.223 942.963C976.763 939.538 979.05 935.987 981.809 932.665C985.234 928.562 989.348 924.804 993.141 920.885C997.14 916.747 1000.79 912.449 1005.23 908.541C1013.91 900.91 1023.4 893.681 1033.99 886.969C1018.93 890.164 1003.01 892.21 986.969 894.014L986.98 894.037Z" fill="#D6813A"/>
<path d="M456.868 808.196C426.687 835.434 387.841 863.397 350.995 890.175C273.256 946.675 179.922 1086.43 276.808 1214.21C326.17 1279.32 402.747 1336.98 492.128 1363.85C661.707 1260.69 710.598 1076.68 713.816 997.657C716.804 924.148 570.579 821.919 456.879 808.185L456.868 808.196Z" fill="#FFE4BF"/>
<path d="M492.128 1363.86C531.491 1339.92 564.269 1311.59 591.565 1281.26C372.36 1262.18 223.113 1030.35 305.954 931.286C305.954 931.286 297.254 942.238 283.094 960.007C234.651 1028.6 208.677 1124.34 276.808 1214.22C326.17 1279.33 402.747 1336.99 492.128 1363.86Z" fill="#DBAB7A"/>
<path d="M586.968 1390.64C449.512 1390.64 328.331 1324.31 259.993 1234.17C224.756 1187.71 211.206 1135.11 219.665 1077.87C232.089 993.842 290.68 917.701 343.225 879.499L348.34 875.786C403.046 836.044 465.051 791.014 488.404 753.26C490.37 750.088 493.553 747.904 497.208 747.215C500.886 746.491 504.667 747.422 507.632 749.674C567.775 795.347 642.1 832.044 722.55 855.8C828.975 887.21 938.641 893.681 1031.24 874.063C1037.54 872.729 1043.8 876.085 1046.23 882.004C1048.63 887.946 1046.47 894.727 1041.05 898.163C961.293 948.675 939.905 1035.24 919.195 1118.93C896.967 1208.83 873.982 1301.82 778.67 1346.68C713.678 1377.26 648.685 1390.64 586.968 1390.64ZM502.748 778.947C473.418 817.598 417.815 857.984 363.878 897.152L358.787 900.864C312.263 934.688 257.063 1005.71 245.811 1081.72C238.421 1131.7 250.27 1177.61 281.049 1218.21C373.636 1340.33 570.453 1415.46 767.407 1322.76C851.352 1283.26 871.855 1200.35 893.554 1112.59C911.713 1039.17 930.377 963.673 986.486 907.978C901.691 917.448 807.092 908.277 715.091 881.131C636.468 857.938 563.35 822.701 502.759 778.947H502.748Z" fill="#592832"/>
<path d="M832.354 175.451C732.883 181.922 648.214 37.7084 542.663 87.5763C467.418 123.124 504.334 238.916 569.947 279.796L832.366 175.463L832.354 175.451Z" fill="#E8AB71"/>
<path d="M522.895 113.493C615.528 69.728 692.083 175.44 776.671 197.599L832.354 175.463C732.883 181.934 648.214 37.7201 542.663 87.5881C525.297 95.794 513.976 108.298 507.529 123.136C512.034 119.515 517.091 116.24 522.895 113.505V113.493Z" fill="#F4D6BA"/>
<path d="M569.947 292.185C567.66 292.185 565.384 291.565 563.385 290.324C517.792 261.924 485.669 201.839 488.634 150.581C490.611 116.619 507.931 90.2542 537.388 76.3362C603.162 45.3283 659.753 81.3242 714.505 116.136C754.489 141.593 792.06 165.395 831.561 163.062C837.779 162.315 843.135 166.763 844.468 172.716C845.824 178.681 842.629 184.715 836.951 186.979L574.544 291.3C573.073 291.887 571.51 292.174 569.959 292.174L569.947 292.185ZM588.255 89.5531C575.061 89.5531 561.684 92.323 547.973 98.805C521.24 111.436 514.436 134.709 513.425 152.04C511.08 192.266 536.238 240.996 571.407 265.844L784.521 181.118C755.616 171.739 728.09 154.224 701.162 137.099C663.017 112.838 626.435 89.5646 588.255 89.5646V89.5531Z" fill="#592832"/>
<path d="M508.092 198.426C519.137 231.158 541.893 262.315 569.935 279.785L675.107 237.973C611.241 65.2801 492.749 146.076 508.092 198.426Z" fill="#EC837B"/>
<path d="M548.237 193.024C542.019 171.808 557.776 145.926 582.98 134.134C537.123 126.169 498.978 167.326 508.104 198.437C519.148 231.169 541.905 262.326 569.947 279.796L600.438 267.671C576.866 249.558 557.983 221.906 548.237 193.024Z" fill="#F8B8AF"/>
<path d="M569.947 292.185C567.66 292.185 565.384 291.565 563.385 290.324C533.733 271.843 508.678 238.973 496.358 202.379C496.3 202.242 496.254 202.081 496.197 201.92C487.428 172.015 510.459 136.663 546.478 124.745C589.554 110.424 649.007 131.571 686.761 233.652C689.106 239.973 685.968 247.007 679.716 249.489L574.544 291.312C573.073 291.898 571.51 292.185 569.959 292.185H569.947ZM519.964 194.714C529.802 223.745 548.777 249.891 571.395 265.844L659.052 230.997C632.262 166.085 593.519 135.18 554.259 148.328C531.492 155.867 515.206 177.922 519.953 194.714H519.964Z" fill="#592832"/>
<path d="M1309.22 320.102C1258.65 260.223 1164.24 287.887 1105.45 284.749C1059.27 231.215 1000.81 189.898 931.814 168.969C703.874 99.8277 441.686 298.989 380.635 500.231C338.008 640.767 488.221 810.747 716.16 879.889C944.1 949.031 1163.43 891.152 1206.07 750.616C1228.37 677.119 1230.7 595.841 1215.53 517.551C1334.96 498.771 1377.23 400.621 1309.23 320.09L1309.22 320.102Z" fill="#E8AB71"/>
<path d="M1312.54 324.262C1313.82 379.302 1270.27 429.848 1190.27 446.421C1209.48 525.067 1211.1 607.586 1192.09 683.21C1155.74 827.803 936.17 897.22 701.668 838.273C588.405 809.805 492.369 756.581 427.446 692.876C486.267 771.499 589.14 841.365 716.183 879.9C944.123 949.042 1163.45 891.164 1206.09 750.628C1228.39 677.13 1230.72 595.852 1215.55 517.562C1332.95 499.104 1375.71 403.977 1312.56 324.262H1312.54Z" fill="#D6813A"/>
<path d="M1309.22 320.102C1258.65 260.224 1164.24 287.887 1105.45 284.75C1097.69 275.751 1089.54 267.131 1081.1 258.856L1074.88 265.2C1107.25 315.62 1139.54 320.516 1194.75 312.907C1258.63 304.115 1348.11 350.535 1336.04 433.503C1348.48 398.323 1340.66 357.328 1309.21 320.09L1309.22 320.102Z" fill="#F4D6BA"/>
<path d="M415.033 510.678C474.555 314.459 725.309 120.262 949.076 174.785C943.388 172.728 937.653 170.762 931.814 168.981C703.874 99.8394 441.686 299.001 380.635 500.242C338.008 640.778 488.221 810.759 716.16 879.901C721.918 881.648 727.676 883.291 733.434 884.877C515.16 812.598 373.475 647.663 415.033 510.678Z" fill="#F4D6BA"/>
<path d="M836.653 253.971C810.035 202.885 776.924 177.693 747.042 165.751C715.689 173.233 684.877 184.416 655.19 198.598C659.374 250.282 731.389 302.253 836.653 253.971Z" fill="#D6813A"/>
<path d="M904.794 921.252C843.905 921.252 778.544 911.793 712.563 891.773C478.44 820.746 324.216 643.479 368.763 496.634C432.721 285.818 706.748 87.7372 935.423 157.086C1001.45 177.129 1062.16 216.987 1111.27 272.544C1124.19 272.682 1138.88 271.82 1154.4 270.763C1208.92 267.004 1276.79 262.465 1318.7 312.091C1352.18 351.707 1362.54 398.139 1347.17 439.422C1330.7 483.566 1288.34 515.241 1229.95 527.527C1243.33 605.931 1239.23 684.061 1217.95 754.202C1185.97 859.684 1059.97 921.241 904.794 921.241V921.252ZM836.974 167.625C644.571 167.625 444.846 331.342 392.519 503.84C351.949 637.595 498.76 800.978 719.758 868.028C940.767 935.078 1153.63 880.82 1194.19 747.03C1215.4 677.05 1218.57 598.519 1203.34 519.93C1202.69 516.62 1203.42 513.206 1205.36 510.437C1207.3 507.69 1210.27 505.828 1213.6 505.311C1269.29 496.542 1309.5 469.395 1323.88 430.779C1336.04 398.127 1327.26 360.718 1299.74 328.112C1265.88 288.071 1207.5 292.07 1156.05 295.541C1137.65 296.794 1120.25 297.909 1104.76 297.162C1101.38 296.978 1098.23 295.426 1096.04 292.863C1049.36 238.743 991.325 200.012 928.217 180.865C898.416 171.831 867.775 167.636 836.963 167.636L836.974 167.625Z" fill="#592832"/>
<path d="M1339.96 419.343C1338.5 456.925 1287.59 505.851 1216.9 517.378C1206.31 470.464 1190.74 424.079 1167.97 378.463C1167.97 378.463 1343.95 316.918 1339.96 419.343Z" fill="white"/>
<path d="M1339.96 419.343C1338.5 456.925 1287.59 505.851 1216.9 517.378C1206.31 470.464 1190.74 424.079 1167.97 378.463C1167.97 378.463 1343.95 316.918 1339.96 419.343Z" fill="#EC837B"/>
<path d="M1339.96 419.343C1341.15 388.864 1326.4 372.912 1305.1 365.522C1309.59 373.992 1311.73 384.635 1310.67 397.967C1308.06 430.859 1267.06 470.947 1209.02 486.14C1211.9 496.519 1214.54 506.931 1216.9 517.367C1287.59 505.839 1338.5 456.914 1339.96 419.332V419.343Z" fill="#F8B8AF"/>
<path d="M1216.89 529.791C1211.18 529.791 1206.09 525.826 1204.81 520.091C1193.69 470.878 1178.02 426.354 1156.87 383.991C1155.27 380.796 1155.13 377.084 1156.49 373.785C1157.82 370.475 1160.54 367.901 1163.88 366.74C1175.6 362.637 1279.74 327.733 1328.39 363.706C1345.28 376.187 1353.34 395.082 1352.38 419.826C1350.72 462.614 1296.69 516.941 1218.92 529.607C1218.23 529.733 1217.56 529.791 1216.9 529.791H1216.89ZM1185.39 385.945C1202.67 422.757 1216.13 461.258 1226.26 502.897C1287.84 488.772 1326.51 445.766 1327.56 418.861C1328.18 402.598 1323.64 391.082 1313.64 383.692C1285.5 362.878 1220.49 375.716 1185.39 385.956V385.945Z" fill="#592832"/>
<path d="M1061.2 240.754C1049.4 230.87 1034.3 219.32 1015.86 207.287C853.317 112.022 826.217 -32.8816 771.418 26.3301C716.62 85.5418 795.243 157.315 795.243 157.315C795.243 157.315 715.091 140.34 703.001 187.588C690.876 234.962 792.094 279.612 861.017 245.271C935.457 262.234 1004.24 265.659 1061.21 240.754H1061.2Z" fill="#E8AB71"/>
<path d="M1012.31 236.1C1070.04 261.625 1081.89 270.877 1090.07 277.06C1102.92 274.176 1049.32 245.96 1061.21 240.743C1049.41 230.836 1034.32 219.32 1015.89 207.275C853.329 112.022 826.206 -32.8815 771.43 26.3301C765.144 33.0765 760.661 40.0297 757.547 46.9945C808.817 3.14886 837.561 147.029 1012.3 236.111L1012.31 236.1Z" fill="#F4D6BA"/>
<path d="M791.117 156.568C781.084 154.925 754.478 151.672 732.825 158.58C759.19 180.715 810.058 202.299 845.755 184.841C823.079 176.957 804.852 167.533 791.129 156.568H791.117Z" fill="#D6813A"/>
<path d="M1092.9 283.221C1089.41 283.221 1085.93 281.75 1083.46 278.9C1083.22 278.601 1058.21 249.742 1009.08 217.688C930.883 171.866 883.762 115.102 849.375 73.67C827.837 47.7074 809.23 25.3076 796.726 24.9628C794.944 24.756 789.773 24.756 780.521 34.7663C769.085 47.1328 763.833 60.4876 764.465 75.6583C765.982 113.217 803.231 147.846 803.622 148.19C807.748 151.971 808.816 158.028 806.265 162.993C803.725 167.981 798.243 170.728 792.669 169.475C792.025 169.337 723.895 156.086 715.011 190.668C711.701 203.644 723.056 215.137 730.101 220.826C758.041 243.386 813.862 254.971 855.478 234.181C861.523 231.146 869.051 233.571 872.12 239.755C875.165 245.892 872.683 253.351 866.546 256.396C815.471 281.807 749.145 268.131 714.505 240.134C694.611 224.078 686.037 203.793 690.968 184.52C700.185 148.535 738.767 142.237 765.431 141.95C753.455 125.48 740.721 102.23 739.652 76.7616C738.721 54.948 746.364 35.1226 762.304 17.9062C773.66 5.59722 784.934 -1.0687 797.392 0.149558C821.148 0.770177 839.974 23.4688 868.465 57.8097C901.702 97.8282 947.192 152.661 1022.15 196.576C1075.04 231.077 1101.24 261.488 1102.33 262.764C1106.79 267.981 1106.17 275.797 1100.96 280.256C1098.63 282.256 1095.76 283.221 1092.9 283.221Z" fill="#592832"/>
<path d="M852.398 193.312C851.628 193.312 850.858 193.231 850.076 193.093C847.249 192.553 780.233 179.451 760.029 133.721C757.259 127.457 760.086 120.125 766.373 117.355C772.614 114.608 779.992 117.435 782.739 123.699C797.645 157.442 854.11 168.59 854.685 168.694C861.431 169.981 865.856 176.475 864.569 183.198C863.442 189.163 858.248 193.323 852.409 193.323L852.398 193.312Z" fill="#592832"/>
<path d="M741.824 651.041C739.905 693.795 693.289 764.799 628.435 747.984C567.12 732.09 558.557 655.029 568.867 611.494C568.867 611.494 588.405 651.271 642.376 633.181C684.911 670.258 741.836 651.041 741.836 651.041H741.824Z" fill="#592832"/>
<path d="M757.504 631.51C766.033 603.387 747.341 572.823 715.755 563.245C684.169 553.666 651.65 568.7 643.121 596.824C634.593 624.947 653.285 655.511 684.871 665.089C716.457 674.668 748.976 659.634 757.504 631.51Z" fill="#FFE4BF"/>
<path d="M654.552 597.666C662.117 572.733 649.048 546.694 625.359 539.506C601.671 532.318 576.335 546.703 568.769 571.636C561.203 596.57 574.273 622.609 597.961 629.797C621.649 636.985 646.986 622.6 654.552 597.666Z" fill="#FFE4BF"/>
<path d="M640.525 617.494C605.426 608.299 601.966 541.698 624.435 539.801C646.904 537.917 698.84 556.466 696.174 574.843C693.508 593.221 669.614 625.114 640.525 617.494Z" fill="#DAAA7A"/>
<path d="M645.088 600.093C609.988 590.899 602.644 539.146 624.653 539.008C646.662 538.882 698.898 556.305 697.358 570.372C695.818 584.44 674.188 607.701 645.099 600.093H645.088Z" fill="#592832"/>
<path d="M701.438 679.751C694.715 679.751 687.9 678.786 681.199 676.74C663.362 671.327 648.709 659.305 639.928 642.859C631.147 626.412 629.285 607.541 634.699 589.727C636.675 583.164 643.686 579.429 650.168 581.44C656.731 583.417 660.454 590.37 658.455 596.91C654.984 608.403 656.167 620.562 661.833 631.147C667.5 641.732 676.924 649.49 688.405 652.961C710.299 659.627 733.458 648.858 742.571 628.067C745.341 621.803 752.697 618.953 758.937 621.689C765.224 624.435 768.074 631.768 765.316 638.055C753.984 663.914 728.504 679.728 701.461 679.728L701.438 679.751Z" fill="#592832"/>
<path d="M612.735 643.755C605.725 643.755 598.656 642.398 591.841 639.629C578.291 634.078 567.717 623.584 562.04 610.092C556.385 596.599 556.328 581.693 561.856 568.131C564.465 561.787 571.74 558.741 578.061 561.339C584.405 563.948 587.439 571.2 584.853 577.544C578.59 592.841 585.945 610.368 601.254 616.631C612.724 621.274 625.722 618.574 634.285 609.621C639.031 604.656 646.892 604.495 651.846 609.241C656.799 613.988 656.96 621.849 652.225 626.802C641.617 637.87 627.331 643.755 612.724 643.755H612.735Z" fill="#592832"/>
<path d="M596.553 628.136C596.553 628.136 596.588 630.17 596.668 633.549C597.082 649.41 598.725 694.968 604.116 699.277C610.655 704.507 655.684 720.344 662.155 716.885C668.626 713.425 690.612 666.281 690.612 666.281C690.612 666.281 655.742 662.661 643.399 620.896C643.399 620.896 613.459 640.686 596.553 628.136Z" fill="white"/>
<path d="M690.612 666.281C690.612 666.281 655.742 662.661 643.399 620.896C643.399 620.896 613.459 640.686 596.553 628.136C596.553 628.136 596.588 630.17 596.668 633.549C596.818 639.112 597.105 648.329 597.668 658.144C608.701 660.247 623.435 660.902 635.779 653.857C641.192 672.832 662.684 684.532 679.119 689.669C685.29 677.671 690.612 666.281 690.612 666.281Z" fill="#C5ADA7"/>
<path d="M659.316 729.492C639.169 729.492 601.38 713.011 596.346 708.989C591.703 705.254 585.957 700.622 584.267 633.871L584.141 628.377C584.037 623.654 586.646 619.263 590.864 617.103C595.047 614.919 600.139 615.321 603.955 618.172C610.597 623.182 627.366 616.551 636.56 610.54C639.835 608.38 643.996 607.874 647.651 609.265C651.351 610.621 654.179 613.609 655.282 617.39C664.982 650.179 690.899 653.811 692.014 653.938C695.956 654.443 699.484 656.811 701.392 660.282C703.311 663.741 703.529 667.936 701.851 671.533C678.096 722.424 671.269 726.079 667.993 727.837C665.81 728.987 662.821 729.492 659.305 729.492H659.316ZM613.62 690.623C621.964 694.967 647.444 703.576 657.04 704.805C659.58 700.645 666.43 687.635 673.165 673.958C661.707 668.993 646.72 658.868 636.859 638.445C629.262 641.801 618.838 645.054 609.46 644.732C610.368 668.384 612.091 684.67 613.62 690.635V690.623Z" fill="#592832"/>
<path d="M629.343 709.426C629.205 709.426 629.055 709.426 628.894 709.403C626.182 709.161 624.182 706.759 624.435 704.047C624.642 701.863 629.343 650.455 638.698 619.482C639.468 616.873 642.249 615.298 644.824 616.183C647.433 616.953 648.904 619.723 648.122 622.309C639.066 652.329 634.308 704.415 634.262 704.932C634.02 707.495 631.883 709.414 629.354 709.414L629.343 709.426Z" fill="#592832"/>
<path d="M967.224 652.374C961.971 652.374 956.799 649.892 953.581 645.237C939.135 624.343 921.826 612.045 902.104 608.632C866.649 602.345 833.457 626.113 833.158 626.331C825.768 631.71 815.425 630.032 810.069 622.63C804.713 615.229 806.334 604.931 813.689 599.564C815.482 598.254 858.362 567.545 907.403 575.969C936.354 580.853 961.063 597.851 980.82 626.411C986.014 633.928 984.13 644.226 976.613 649.443C973.74 651.42 970.453 652.374 967.224 652.374Z" fill="#592832"/>
<path d="M550.708 535.652C542.95 535.652 536.525 529.492 536.238 521.688C536.215 521.286 534.445 480.773 510.333 461.752C498.208 452.213 482.348 449.489 461.821 453.627C454.006 454.983 446.329 450.11 444.766 442.272C443.191 434.434 448.283 426.802 456.121 425.216C485.129 419.401 509.46 424.101 528.4 439.111C563.028 466.591 565.085 518.504 565.143 520.711C565.407 528.687 559.167 535.353 551.179 535.617C550.995 535.64 550.834 535.64 550.673 535.64L550.708 535.652Z" fill="#592832"/>
<path d="M1133.78 893.21C1138.26 910.081 1129.46 927.068 1114.09 931.148C1098.74 935.228 1082.65 924.873 1078.15 908.001C1073.67 891.129 1072.96 849.341 1088.31 845.25C1103.67 841.17 1129.29 876.327 1133.78 893.198V893.21Z" fill="#37E5ED"/>
<path d="M1133.78 893.21C1138.26 910.081 1129.46 927.068 1114.09 931.148C1098.74 935.228 1082.65 924.873 1078.15 908.001C1073.67 891.129 1072.96 849.341 1088.31 845.25C1103.67 841.17 1129.29 876.327 1133.78 893.198V893.21Z" fill="#50BFCE"/>
<path d="M1129.36 889.67C1132.14 900.117 1126.68 910.633 1117.16 913.161C1107.66 915.69 1097.69 909.277 1094.91 898.83C1092.13 888.382 1091.69 862.512 1101.2 859.983C1110.7 857.455 1126.56 879.234 1129.34 889.67H1129.36Z" fill="#99E2EF"/>
<path d="M1107.35 941.227C1090.21 941.227 1074.18 928.838 1069.27 910.357C1065.62 896.6 1060.5 843.146 1085.96 836.354C1109.79 830.01 1138.22 874.154 1142.66 890.842C1145.41 901.232 1144.32 911.989 1139.54 921.207C1134.63 930.7 1126.42 937.389 1116.47 940.032C1113.44 940.837 1110.37 941.227 1107.36 941.227H1107.35ZM1091.32 854.053C1091.11 854.053 1090.88 854.076 1090.68 854.134C1085.61 855.49 1081.65 885.372 1087.05 905.634C1090.22 917.575 1101.29 925.034 1111.74 922.264C1116.62 920.977 1120.7 917.575 1123.21 912.748C1125.87 907.622 1126.46 901.519 1124.88 895.577C1120.59 879.372 1098.58 854.065 1091.32 854.065V854.053Z" fill="#592832"/>
<path d="M1116.89 905.872C1120.99 903.962 1122.21 897.909 1119.61 892.352C1117.02 886.795 1111.6 883.838 1107.51 885.748C1103.41 887.658 1102.19 893.711 1104.78 899.269C1107.37 904.826 1112.79 907.782 1116.89 905.872Z" fill="white"/>
<path d="M1084.19 742.537C1084.19 742.537 1056.24 680.613 976.521 670.936C989.773 700.105 1005 733.619 1022.22 771.476C1032.01 792.428 1053.81 802.944 1070.92 794.945C1088.04 786.957 1093.97 763.489 1084.19 742.526V742.537Z" fill="#37E5ED"/>
<path d="M1084.19 742.537C1084.19 742.537 1056.24 680.613 976.521 670.936C989.773 700.105 1005 733.619 1022.22 771.476C1032.01 792.428 1053.81 802.944 1070.92 794.945C1088.04 786.957 1093.97 763.489 1084.19 742.526V742.537Z" fill="#50BFCE"/>
<path d="M1072.33 736.308C1072.33 736.308 1040.85 683.923 991.658 680.096C1000.57 697.657 1023.48 732.929 1035.04 755.719C1041.61 768.327 1055.28 774.2 1065.57 768.844C1075.87 763.489 1078.89 748.915 1072.32 736.308H1072.33Z" fill="#99E2EF"/>
<path d="M1058.85 806.783C1041.15 806.783 1023.01 794.887 1013.9 775.372L968.178 674.729C966.799 671.695 967.167 668.178 969.132 665.5C971.074 662.81 974.12 661.362 977.66 661.799C1061.2 671.936 1091.12 735.538 1092.57 738.733C1104.43 764.224 1096.49 793.175 1074.83 803.277C1069.72 805.656 1064.31 806.794 1058.86 806.794L1058.85 806.783ZM992.141 683.027L1030.58 767.672C1038.2 783.935 1054.65 792.336 1067.03 786.624C1079.53 780.786 1083.5 762.765 1075.88 746.445C1075.86 746.422 1075.83 746.364 1075.83 746.341C1074.84 744.204 1052.72 697.427 992.129 683.027H992.141Z" fill="#592832"/>
<path d="M1065.29 756.74C1069.35 754.387 1069.35 746.813 1065.3 739.823C1061.25 732.833 1054.67 729.075 1050.61 731.428C1046.56 733.781 1046.55 741.355 1050.61 748.345C1054.66 755.335 1061.23 759.094 1065.29 756.74Z" fill="white"/>
<path d="M427.584 457.155C382.635 423.504 318.906 423.722 291.656 442.961C291.254 443.237 290.84 443.478 290.438 443.766C290.369 443.812 290.289 443.858 290.22 443.904V443.927C288.278 445.352 286.37 446.892 284.554 448.65C268.739 463.867 264.866 485.474 275.888 496.932C285.094 506.494 301.736 505.816 316.194 496.53L316.228 496.61C316.642 496.3 317.079 496.047 317.504 495.737C317.918 495.461 318.32 495.197 318.722 494.898C351.627 471.234 387.979 458.856 427.584 457.155Z" fill="#50BFCE"/>
<path d="M405.977 454.224C378.176 434.376 333.916 432.238 313.056 441.732C312.746 441.87 312.436 441.984 312.126 442.122C312.08 442.145 312.011 442.168 311.965 442.191C310.471 442.915 308.988 443.685 307.54 444.57C295.024 452.271 290.14 463.867 296.633 470.464C302.058 475.981 313.677 476.199 324.653 471.659L324.676 471.705C324.998 471.556 325.331 471.429 325.653 471.28C325.963 471.142 326.273 471.016 326.584 470.866C351.822 459.178 378.313 453.742 405.977 454.224Z" fill="#99E2EF"/>
<path d="M293.53 512.942C284.071 512.942 275.429 509.736 269.245 503.323C254.477 487.968 258.419 461.04 278.175 442.031C280.233 440.054 282.382 438.318 284.577 436.675C284.795 436.491 285.037 436.307 285.267 436.169C317.412 413.505 385.313 414.022 433.112 449.811C436.226 452.133 437.537 456.178 436.387 459.868C435.238 463.58 431.882 466.189 427.986 466.35C390.002 467.97 355.052 480.084 324.101 502.369C323.998 502.426 321.975 503.805 321.883 503.886C321.584 504.093 321.239 504.265 320.918 504.426C311.965 510.103 302.391 512.931 293.541 512.931L293.53 512.942ZM343.202 439.261C323.641 439.261 306.712 443.582 296.943 450.478C296.656 450.685 294.978 451.765 294.679 451.949C294.093 452.489 292.473 453.788 290.944 455.259C279.003 466.752 275.141 482.911 282.497 490.577C288.255 496.519 300.311 495.772 311.229 488.795C311.47 488.635 311.735 488.497 311.999 488.347C312.367 488.106 312.666 487.888 312.723 487.842C339.329 468.729 368.154 456.466 399.024 451.018C380.497 442.755 360.798 439.261 343.202 439.261Z" fill="#592832"/>
<path d="M322.333 457.569C330.075 455.51 335.714 451.45 334.93 448.499C334.145 445.549 327.234 444.825 319.492 446.884C311.751 448.942 306.111 453.003 306.896 455.953C307.68 458.904 314.592 459.627 322.333 457.569Z" fill="white"/>
<path d="M204.712 564.764C194.38 578.831 196.391 597.863 209.195 607.276C222.009 616.677 240.766 612.908 251.098 598.829C261.43 584.761 277.336 546.111 264.533 536.698C251.719 527.297 215.045 550.696 204.712 564.764Z" fill="#37E5ED"/>
<path d="M204.712 564.764C194.38 578.831 196.391 597.863 209.195 607.276C222.009 616.677 240.766 612.908 251.098 598.829C261.43 584.761 277.336 546.111 264.533 536.698C251.719 527.297 215.045 550.696 204.712 564.764Z" fill="#50BFCE"/>
<path d="M210.125 563.074C203.723 571.786 204.976 583.566 212.906 589.393C220.836 595.22 232.456 592.875 238.857 584.164C245.259 575.452 255.108 551.524 247.178 545.697C239.248 539.87 216.538 554.362 210.137 563.074H210.125Z" fill="#99E2EF"/>
<path d="M225.227 621.654C217.423 621.654 209.976 619.252 203.747 614.689C195.449 608.587 190.254 599.381 189.139 588.75C188.047 578.429 190.932 567.982 197.299 559.339C203.356 551.076 216.251 540.813 229.365 533.825C241.765 527.239 258.844 521.137 269.992 529.297C273.026 531.515 276.876 535.848 278.118 543.801C281.106 563.362 266.579 593.312 258.522 604.288C251.833 613.379 241.834 619.562 231.088 621.194C229.123 621.493 227.169 621.654 225.227 621.654ZM256.798 543.732C253.764 543.732 247.742 544.858 238.03 550.03C226.055 556.408 215.929 565.017 212.125 570.189C208.493 575.154 206.815 581.061 207.413 586.796C207.976 592.209 210.539 596.852 214.631 599.852C218.446 602.645 223.423 603.794 228.284 603.001C234.249 602.093 239.858 598.576 243.673 593.381C251.293 583.015 261.694 558.247 259.913 546.571C259.648 544.835 259.189 544.191 259.085 544.111C258.821 543.927 258.074 543.732 256.787 543.732H256.798Z" fill="#592832"/>
<path d="M229.518 580.856C233.958 576.628 235.031 570.547 231.915 567.274C228.798 564.001 222.672 564.776 218.232 569.004C213.791 573.233 212.718 579.314 215.835 582.587C218.952 585.859 225.078 585.085 229.518 580.856Z" fill="white"/>
<path d="M434.066 992.669C433.077 992.669 432.066 992.623 431.055 992.589C401.966 991.037 367.338 966.385 325.193 917.275C299.276 887.095 285.876 851.007 288.462 818.287C290.14 796.956 298.564 778.831 312.195 767.235C346.053 738.503 424.216 712.988 489.818 766.787C494.542 770.671 495.737 777.418 492.622 782.682C483.669 797.898 471.291 812.161 455.753 825.205C477.693 847.709 490.726 877.832 492.002 909.897C493.128 938.342 484.692 963.902 469.418 978.257C459.258 987.831 447.375 992.658 434.066 992.658V992.669ZM403.92 760.063C369.004 760.063 339.651 776.487 328.285 786.141C319.722 793.439 314.367 805.541 313.217 820.217C311.16 846.421 322.389 875.901 344.03 901.105C390.094 954.766 417.504 966.983 432.399 967.776C439.812 968.281 446.478 965.776 452.42 960.179C462.224 950.95 468.039 931.607 467.211 910.885C466.016 880.762 451.995 852.8 428.791 834.181C425.756 831.779 424.044 828.079 424.147 824.217C424.228 820.355 426.113 816.747 429.239 814.483C444.111 803.61 456.167 791.83 465.223 779.314C444.513 765.155 423.366 760.063 403.954 760.063H403.92Z" fill="#592832"/>
<path d="M436.525 836.929C433.801 836.929 431.055 836.021 428.767 834.182C416.953 824.712 402.69 817.517 386.427 812.782C379.842 810.885 376.038 803.99 377.957 797.404C379.853 790.842 386.703 786.98 393.335 788.934C412.769 794.566 429.917 803.277 444.283 814.816C449.639 819.103 450.501 826.918 446.202 832.251C443.754 835.32 440.157 836.917 436.525 836.917V836.929Z" fill="#592832"/>
<path d="M349.926 926.297C389.254 968.258 431.319 997.06 460.902 969.224C488.071 943.663 490.381 867.833 436.674 824.631C430.192 824.884 423.664 825.792 417.148 827.527C373.498 839.135 345.961 881.383 349.926 926.297Z" fill="#AD6746"/>
<path d="M481.934 776.384C419.493 725.148 347.892 753.202 320.251 776.694C292.61 800.185 291.22 858.639 334.606 909.196C377.992 959.754 427.446 1000.71 460.913 969.224C488.106 943.641 490.404 867.672 436.537 824.493C456.488 809.932 471.625 793.887 481.945 776.372L481.934 776.384Z" fill="#E8AB71"/>
<path d="M481.934 776.384C419.493 725.148 347.892 753.202 320.251 776.694C292.61 800.185 291.22 858.639 334.606 909.196C377.992 959.754 427.446 1000.71 460.913 969.224C488.106 943.641 490.404 867.672 436.537 824.493C456.488 809.932 471.625 793.887 481.945 776.372L481.934 776.384Z" fill="#E8AB71"/>
<path d="M341.157 916.678C382.899 963.638 429.101 999.14 460.902 969.223C487.232 944.445 490.059 872.51 441.295 828.768C433.687 829.032 426.009 830.101 418.366 832.135C377.888 842.904 349.271 876.498 341.157 916.678Z" fill="#AD6746"/>
<path d="M358.476 928.033C315.09 877.476 316.481 819.022 344.122 795.531C368.05 775.188 424.952 751.524 480.313 778.786C480.819 777.97 481.451 777.2 481.922 776.384C419.481 725.148 347.88 753.202 320.239 776.694C292.599 800.185 291.208 858.639 334.594 909.196C354.04 931.86 374.704 952.525 394.599 965.672C382.405 954.639 370.211 941.721 358.465 928.033H358.476Z" fill="#F4D6BA"/>
<path d="M434.066 992.669C433.077 992.669 432.066 992.623 431.055 992.589C401.966 991.037 367.338 966.385 325.193 917.275C299.276 887.095 285.876 851.007 288.462 818.287C290.14 796.956 298.564 778.831 312.195 767.235C346.053 738.503 424.216 712.988 489.818 766.787C494.542 770.671 495.737 777.418 492.622 782.682C483.669 797.898 471.291 812.161 455.753 825.205C477.693 847.709 490.726 877.832 492.002 909.897C493.128 938.342 484.692 963.902 469.418 978.257C459.258 987.831 447.375 992.658 434.066 992.658V992.669ZM403.92 760.063C369.004 760.063 339.651 776.487 328.285 786.141C319.722 793.439 314.367 805.541 313.217 820.217C311.16 846.421 322.389 875.901 344.03 901.105C390.094 954.766 417.504 966.983 432.399 967.776C439.812 968.281 446.478 965.776 452.42 960.179C462.224 950.95 468.039 931.607 467.211 910.885C466.016 880.762 451.995 852.8 428.791 834.181C425.756 831.779 424.044 828.079 424.147 824.217C424.228 820.355 426.113 816.747 429.239 814.483C444.111 803.61 456.167 791.83 465.223 779.314C444.513 765.155 423.366 760.063 403.954 760.063H403.92Z" fill="#592832"/>
<path d="M436.525 836.929C433.801 836.929 431.055 836.021 428.767 834.182C416.953 824.712 402.69 817.517 386.427 812.782C379.842 810.885 376.038 803.99 377.957 797.404C379.853 790.842 386.703 786.98 393.335 788.934C412.769 794.566 429.917 803.277 444.283 814.816C449.639 819.103 450.501 826.918 446.202 832.251C443.754 835.32 440.157 836.917 436.525 836.917V836.929Z" fill="#592832"/>
<path d="M437.559 992.486C436.95 992.486 436.353 992.428 435.744 992.348C428.951 991.359 424.274 985.05 425.262 978.269C428.675 954.858 408.034 936.285 407.827 936.101C402.713 931.573 402.196 923.735 406.701 918.609C411.206 913.483 419.01 912.897 424.159 917.402C425.434 918.517 455.247 944.859 449.834 981.866C448.926 988.049 443.628 992.497 437.571 992.497L437.559 992.486Z" fill="#592832"/>
<path d="M475.475 956.237C475.095 956.237 474.705 956.214 474.325 956.191C467.843 955.57 463.097 949.812 463.717 943.319C465.878 920.954 445.455 904.312 445.248 904.151C440.18 900.094 439.329 892.692 443.352 887.601C447.374 882.556 454.764 881.682 459.833 885.636C461.109 886.624 490.576 910.242 487.186 945.571C486.6 951.674 481.474 956.214 475.463 956.214L475.475 956.237Z" fill="#592832"/>
<path d="M693.094 1115.98C587.405 1145.07 455.65 1061.45 490.577 994.554C525.504 927.654 643.502 982.188 718.333 958.869C760.937 1020.97 758.972 1070.52 693.083 1115.98H693.094Z" fill="#E8AB71"/>
<path d="M698.932 1114.89C593.243 1143.97 455.65 1061.44 490.577 994.543C525.504 927.642 643.502 982.176 718.332 958.857C760.937 1020.95 764.821 1069.43 698.921 1114.89H698.932Z" fill="#E8AB71"/>
<path d="M718.494 959.087L718.344 958.869C645.927 981.441 533.089 931.102 494.22 988.463C507.161 982.395 531.653 978.395 577.912 987.038C631.618 997.071 677.314 996.255 706.518 989.463C719.965 986.337 726.286 970.477 718.482 959.087H718.494Z" fill="#F4D6BA"/>
<path d="M692.013 1067.95C611.321 1064.5 528.837 1067.3 485.094 1011.69C475.957 1075.3 619.654 1136.1 682.946 1120.1C685.44 1118.38 747.168 1115.6 749.501 1113.85C745.444 1088.37 735.491 1069.89 692.013 1067.95Z" fill="#D6813A"/>
<path d="M490.577 994.555C470.832 1032.37 502.265 1069.58 551.386 1095.85C596.967 1079.29 620.366 1030.63 605.368 974.247C604.161 969.718 602.667 965.363 601.047 961.11C553.19 957.708 509.574 958.145 490.577 994.555Z" fill="#AD6746"/>
<path d="M485.095 1011.67C480.612 1042.94 512.976 1073.49 554.592 1094.62C571.28 1087.83 584.773 1076.68 594.266 1062.34C549.984 1056.88 510.827 1044.4 485.095 1011.67Z" fill="#924921"/>
<path d="M584.359 960.133C583.451 960.098 582.555 960.064 581.658 960.029C579.819 959.961 577.992 959.903 576.176 959.857C575.165 959.834 574.165 959.823 573.165 959.811C571.464 959.788 569.786 959.788 568.108 959.788C567.062 959.788 566.028 959.8 564.993 959.823C563.384 959.846 561.787 959.903 560.212 959.961C559.178 959.995 558.132 960.041 557.109 960.098C555.512 960.19 553.937 960.305 552.374 960.443C551.42 960.524 550.466 960.581 549.524 960.673C547.743 960.845 545.996 961.075 544.26 961.317C543.582 961.409 542.87 961.478 542.203 961.581C539.858 961.937 537.56 962.363 535.307 962.857C534.537 963.018 533.813 963.236 533.055 963.42C531.56 963.776 530.078 964.144 528.641 964.569C527.722 964.845 526.837 965.155 525.94 965.454C524.711 965.856 523.481 966.27 522.286 966.73C521.355 967.086 520.447 967.488 519.539 967.891C518.436 968.373 517.344 968.868 516.275 969.396C515.378 969.844 514.493 970.327 513.62 970.81C512.597 971.385 511.609 971.982 510.62 972.603C509.77 973.143 508.942 973.695 508.126 974.281C507.184 974.959 506.264 975.683 505.368 976.407C504.587 977.039 503.805 977.66 503.069 978.338C502.184 979.142 501.334 980.016 500.495 980.889C499.817 981.59 499.116 982.268 498.461 983.015C497.564 984.05 496.725 985.176 495.898 986.302C495.381 987.003 494.817 987.636 494.323 988.371C494.312 988.394 494.3 988.417 494.277 988.44C507.23 982.383 531.71 978.384 577.958 987.015C588.589 989.003 598.783 990.451 608.724 991.624C608 985.854 606.977 980.05 605.426 974.235C604.219 969.707 602.725 965.351 601.104 961.098C598.277 960.903 595.473 960.708 592.68 960.547C592.059 960.512 591.45 960.478 590.83 960.443C588.68 960.317 586.543 960.213 584.417 960.121L584.359 960.133Z" fill="#C08A71"/>
<path d="M678.969 1129.64C594.91 1129.64 519.953 1096.75 488.899 1056.63C471.671 1034.37 468.35 1010.29 479.567 988.808C503.38 943.192 560.132 946.307 620.16 949.513C660.822 951.731 702.909 953.996 735.457 941.135C741.836 938.572 749.053 941.744 751.559 948.1C754.087 954.467 750.973 961.673 744.594 964.201C707.012 979.108 662.19 976.706 618.815 974.304C564.718 971.373 518.011 968.833 501.599 1000.29C494.933 1013.03 497.277 1026.87 508.552 1041.45C543.628 1086.76 646.732 1120.09 744.111 1097.45C750.858 1095.96 757.466 1100.08 759.018 1106.75C760.558 1113.44 756.386 1120.1 749.72 1121.65C725.918 1127.17 702.105 1129.65 678.969 1129.65V1129.64Z" fill="#592832"/>
<path d="M546.513 1055.85C544.007 1055.85 541.445 1055.08 539.238 1053.48C516.769 1037.22 498.047 1044.09 497.22 1044.36C490.853 1046.87 483.681 1043.68 481.175 1037.4C478.67 1031.08 481.624 1023.96 487.887 1021.36C489.175 1020.85 519.688 1008.67 553.834 1033.35C559.374 1037.38 560.626 1045.16 556.604 1050.71C554.156 1054.04 550.386 1055.83 546.524 1055.83L546.513 1055.85Z" fill="#592832"/>
<path d="M554.179 1009.2C552.317 1009.2 550.444 1008.77 548.662 1007.91C521.091 994.266 501.713 1003.67 500.863 1004.02C494.783 1007.04 487.324 1004.64 484.221 998.634C481.107 992.588 483.371 985.199 489.37 982.027C490.623 981.36 520.275 966.109 559.695 985.647C565.833 988.692 568.338 996.151 565.315 1002.29C563.132 1006.66 558.753 1009.2 554.179 1009.2Z" fill="#592832"/>
<path d="M876.097 1216.33C797.887 1421.09 637.227 1525.28 440.387 1459.19L538.457 1235.6C538.457 1235.6 657.432 1107.13 770.051 1200.66C806.254 1204.47 836.17 1218.01 876.097 1216.33Z" fill="#E8AB71"/>
<path d="M814.621 1193.87C798.91 1268.58 758.099 1342.89 690.037 1349.12C706.921 1282.21 688.796 1204.3 644.031 1171.57C583.36 1187.33 538.445 1235.59 538.445 1235.59L440.376 1459.18C637.216 1525.28 797.876 1421.08 876.085 1216.32C855.835 1200.78 835.308 1194.52 814.609 1193.87H814.621Z" fill="#D6813A"/>
<path d="M554.949 1492.05C516.448 1492.05 476.579 1485.28 436.181 1471.71C432.664 1470.53 429.803 1467.93 428.297 1464.54C426.78 1461.15 426.78 1457.26 428.274 1453.87L526.332 1230.27C526.918 1228.92 527.745 1227.69 528.734 1226.6C530.01 1225.24 657.65 1090.16 778.476 1190.5C784.096 1195.16 784.854 1203.48 780.188 1209.1C775.522 1214.74 767.155 1215.48 761.581 1210.82C665.052 1130.7 563.558 1228.63 549.594 1243.02L458.363 1451.02C540.238 1475.41 616.161 1469.85 684.142 1434.46C772.35 1388.58 841.963 1292.11 880.211 1162.81C882.257 1155.8 889.59 1151.67 896.612 1153.88C903.623 1155.94 907.622 1163.29 905.542 1170.28C865.259 1306.54 790.969 1408.69 696.347 1457.9C652.674 1480.64 604.932 1492.03 554.926 1492.05H554.949Z" fill="#592832"/>
<path d="M440.215 1459.81C485.256 1481.84 597.14 1465.12 633.17 1367.41C669.2 1269.7 619.746 1165.05 553.478 1142.39C523.78 1129.31 474.349 1189.75 443.076 1277.41C411.804 1365.06 410.517 1446.72 440.215 1459.81Z" fill="#AD6746"/>
<path d="M440.215 1459.81C485.256 1481.84 597.14 1465.12 633.17 1367.41C669.2 1269.7 619.746 1165.05 553.478 1142.39C523.78 1129.31 474.349 1189.75 443.076 1277.41C411.804 1365.06 410.517 1446.72 440.215 1459.81Z" fill="#AD6746"/>
<path d="M440.215 1459.81C479.762 1479.15 570.809 1468.62 616.827 1399.64C555.696 1447.15 546.996 1402.73 563.028 1367.66C570.867 1350.5 611.058 1255.88 577.567 1168.66L569.579 1149.89C564.339 1146.92 558.994 1144.27 553.478 1142.39C523.78 1129.31 474.349 1189.75 443.076 1277.41C411.804 1365.06 410.517 1446.72 440.215 1459.81Z" fill="#924921"/>
<path d="M528.699 1159.8C594.967 1182.46 644.41 1287.11 608.391 1384.82C598.725 1411.04 583.566 1431.38 565.741 1446.75C594.048 1430.74 619.263 1405.13 633.17 1367.41C669.2 1269.7 619.746 1165.05 553.478 1142.39C541.399 1137.07 526.032 1144.08 509.965 1159.98C516.746 1157.5 523.079 1157.33 528.699 1159.8Z" fill="#C08A71"/>
<path d="M484.084 1481.86C465.419 1481.86 448.122 1478.6 434.549 1472.02C391.979 1452.88 400.219 1357.44 430.411 1272.88C456.064 1201 494.094 1145.32 527.297 1131.03C541.433 1124.95 552.283 1127.15 558.914 1130.07C590.554 1140.84 619.965 1169.66 638.549 1208.74C662.707 1259.5 665.362 1319.05 645.801 1372.05C629.412 1416.49 595.738 1450.84 550.973 1468.78C529.297 1477.46 505.759 1481.84 484.084 1481.84V1481.86ZM544.548 1154.17C542.491 1154.17 540.342 1154.73 537.939 1155.77C516.804 1164.86 482.061 1208.23 455.776 1281.94C423.757 1371.61 428.4 1439.89 445.651 1447.49C445.812 1447.57 445.973 1447.65 446.134 1447.71C464.534 1456.74 502.059 1459.39 540.962 1443.79C567.545 1433.13 602.967 1410.42 620.539 1362.74C637.595 1316.49 635.285 1264.58 614.241 1220.31C598.749 1187.74 575.004 1163.98 549.111 1155.13C547.594 1154.47 546.1 1154.17 544.548 1154.17Z" fill="#592832"/>
<path d="M552.214 1320.29C582.633 1232.3 582.505 1152.4 551.928 1141.83C521.35 1131.26 471.903 1194.02 441.484 1282.01C411.065 1370.01 411.193 1449.91 441.77 1460.48C472.348 1471.05 521.795 1408.29 552.214 1320.29Z" fill="#924921"/>
<path d="M448.869 1475.04C443.076 1475.04 438.318 1473.68 434.79 1472.13C391.956 1453.24 400.162 1357.61 430.411 1272.88C456.063 1201 494.093 1145.32 527.297 1131.03C541.433 1124.95 552.282 1127.15 558.914 1130.07C601.748 1148.92 593.542 1244.57 563.316 1329.32C537.64 1401.2 499.599 1456.88 466.384 1471.18C459.798 1474.01 453.937 1475.04 448.869 1475.04ZM544.812 1154.09C542.835 1154.09 540.548 1154.63 537.939 1155.77C516.804 1164.86 482.06 1208.23 455.776 1281.94C423.757 1371.61 428.4 1439.89 445.651 1447.49C448.156 1448.62 451.57 1448.28 455.73 1446.45C476.877 1437.35 511.632 1394 537.939 1320.28C569.935 1230.57 565.315 1162.32 548.064 1154.72C547.099 1154.29 546.019 1154.1 544.812 1154.1V1154.09Z" fill="#592832"/>
<path d="M597.703 1348.41C596.554 1348.41 595.381 1348.23 594.232 1347.87C588.072 1345.95 584.612 1339.4 586.555 1333.24C593.864 1309.75 583.865 1272.91 566.718 1260.23C561.523 1256.41 560.431 1249.08 564.258 1243.88C568.12 1238.69 575.43 1237.58 580.624 1241.43C605.759 1259.98 619.206 1307.05 608.863 1340.18C607.311 1345.19 602.702 1348.4 597.714 1348.4L597.703 1348.41Z" fill="#592832"/>
</g>
<defs>
<clipPath id="clip0_971_2685">
<rect width="1358.81" height="1525" fill="white"/>
</clipPath>
</defs>
</svg>
