<svg width="1440" height="1525" viewBox="0 0 1440 1525" fill="none" xmlns="http://www.w3.org/2000/svg">
<g clip-path="url(#clip0_971_2551)">
<path d="M498.104 1329.38C329.469 1318.37 307.681 1163.98 373.602 980.362C439.523 796.748 388.904 660.672 248.037 645.074C107.17 629.463 -24.8831 799.397 23.5334 1015.97C71.9498 1232.53 276.497 1431.91 550.234 1441.14L498.116 1329.38H498.104Z" fill="#EAAC71"/>
<path d="M498.104 1329.38C329.469 1318.37 307.681 1163.98 373.602 980.362C439.523 796.748 388.904 660.672 248.037 645.074C107.17 629.463 -24.8831 799.397 23.5334 1015.97C71.9498 1232.53 276.497 1431.91 550.234 1441.14L498.116 1329.38H498.104Z" fill="#AE6745"/>
<path d="M456.669 1329.38C288.035 1318.37 272.251 1151.69 338.172 968.081C403.697 785.582 348.026 662.38 209.103 645.42C221.903 643.774 234.927 643.613 248.012 645.074C388.879 660.685 439.499 796.748 373.578 980.362C307.657 1163.98 329.445 1318.37 498.079 1329.38L550.197 1441.14C535.713 1440.65 521.427 1439.59 507.339 1438.07L456.645 1329.38H456.669Z" fill="#C18B71"/>
<path d="M119.191 986.019C129.775 996.22 140.657 1007.23 151.736 1018.75C147.478 1026.82 143.479 1034.77 139.79 1042.62C137.958 1046.51 139.642 1051.15 143.516 1052.97C144.618 1053.46 145.72 1053.72 146.871 1053.72C149.768 1053.72 152.578 1052.05 153.915 1049.23C156.775 1043.14 159.857 1036.94 163.051 1030.7C179.306 1047.98 195.671 1066.18 211.616 1084.36C201.193 1102.52 191.487 1120.78 183.032 1138.76C181.163 1142.65 182.846 1147.29 186.758 1149.14C187.823 1149.64 188.962 1149.86 190.026 1149.86C192.997 1149.86 195.77 1148.23 197.107 1145.37C204.684 1129.31 213.25 1113.02 222.461 1096.77C239.136 1115.99 255.155 1134.95 269.924 1152.76C255.267 1178.57 241.6 1204.6 230.297 1228.58C228.465 1232.47 230.148 1237.11 234.023 1238.97C235.125 1239.47 236.227 1239.69 237.378 1239.69C240.275 1239.69 243.085 1238.05 244.422 1235.19C254.809 1213.16 267.225 1189.37 280.546 1165.62C296.23 1184.69 310.12 1201.93 321.274 1215.94C310.541 1231.25 295.958 1255 293.111 1274.64C292.504 1278.89 295.438 1282.86 299.697 1283.46C300.081 1283.54 300.452 1283.57 300.836 1283.57C304.636 1283.57 307.954 1280.8 308.523 1276.91C310.727 1261.76 321.955 1242.62 331.401 1228.68C342.703 1242.99 349.401 1251.67 349.673 1252.06C351.233 1254.07 353.56 1255.14 355.875 1255.14C357.509 1255.14 359.181 1254.61 360.629 1253.5C364.021 1250.88 364.665 1246 362.04 1242.59C361.731 1242.16 353.932 1232.04 340.884 1215.56C343.434 1212.17 345.105 1210.15 345.179 1210.08C347.915 1206.72 347.42 1201.86 344.115 1199.12C340.846 1196.38 335.895 1196.84 333.159 1200.15C332.973 1200.37 332.131 1201.4 330.881 1202.97C319.269 1188.39 304.921 1170.62 288.828 1151.13C304.314 1124.25 320.767 1097.99 336.439 1074.97C337.652 1076.56 338.346 1077.52 338.42 1077.63C339.943 1079.68 342.307 1080.82 344.734 1080.82C346.331 1080.82 347.928 1080.29 349.302 1079.3C352.805 1076.75 353.523 1071.83 350.973 1068.42C350.861 1068.23 349.066 1065.79 345.835 1061.48C350.329 1055.17 354.736 1049.15 359.007 1043.6C361.632 1040.17 360.988 1035.27 357.559 1032.64C354.13 1030.02 349.227 1030.7 346.64 1034.09C343.137 1038.66 339.596 1043.45 335.981 1048.47C325.36 1034.66 309.638 1014.52 290.499 991.194C312.237 960.666 332.824 933.951 348.509 914.193C351.815 918.687 353.647 921.274 353.758 921.423C355.281 923.552 357.683 924.691 360.109 924.691C361.706 924.691 363.266 924.233 364.64 923.242C368.143 920.767 368.985 915.901 366.472 912.398C366.361 912.212 363.575 908.325 358.599 901.628C370.013 887.577 377.094 879.283 377.403 878.948C380.226 875.717 379.842 870.803 376.599 867.993C373.33 865.17 368.416 865.554 365.593 868.834C365.321 869.144 359.081 876.373 348.918 888.852C337.083 873.402 319.838 851.59 298.83 826.93C329.965 786.659 353.028 759.597 353.597 758.916C356.37 755.648 355.999 750.771 352.718 747.96C349.487 745.138 344.536 745.522 341.763 748.802C341.193 749.483 318.885 775.678 288.431 814.921C271.075 795.015 251.59 773.772 230.767 752.962C243.209 735.952 255.279 720.23 266.198 706.377C268.859 702.985 268.29 698.12 264.947 695.459C261.518 692.76 256.653 693.366 253.991 696.709C243.333 710.178 231.646 725.442 219.589 741.894C213.275 735.766 206.838 729.676 200.326 723.696C197.169 720.8 192.255 720.961 189.284 724.155C186.387 727.348 186.622 732.3 189.779 735.197C196.748 741.597 203.594 748.059 210.292 754.645C190.992 781.596 171.123 811.245 153.271 841.698C147.218 836.028 141.164 830.507 135.148 825.184C131.954 822.324 127.002 822.634 124.142 825.865C121.283 829.059 121.592 834.011 124.823 836.87C131.632 842.887 138.453 849.126 145.262 855.563C137.228 869.911 129.651 884.333 122.917 898.644C121.085 902.531 122.768 907.174 126.643 909.031C127.745 909.526 128.847 909.749 129.948 909.749C132.882 909.749 135.692 908.115 137.029 905.255C143.046 892.467 149.743 879.567 156.899 866.73C175.134 884.507 193.171 903.386 210.378 922.227C192.18 949.252 174.601 977.23 159.486 1004.4C149.508 994.016 139.617 984.113 130.023 974.828C126.903 971.857 121.988 971.894 118.98 975.051C116.009 978.096 116.083 983.048 119.166 986.056L119.191 986.019ZM278.713 827.487C260.293 851.54 239.656 879.481 219.415 908.944C201.836 889.793 183.44 870.654 164.871 852.691C182.5 822.361 202.208 792.7 221.508 765.713C242.219 786.535 261.555 807.692 278.713 827.487ZM280.236 978.79C265.046 960.517 248.111 940.76 230.148 920.816C250.166 891.551 270.679 863.684 289.075 839.557C310.318 864.601 327.514 886.488 338.829 901.331C323.255 920.816 302.408 947.766 280.249 978.79H280.236ZM230.718 1082.54C246.663 1055.52 264.093 1028.99 281.152 1004.44C300.799 1028.46 316.545 1048.75 326.523 1061.84C310.69 1084.8 294.015 1111.21 278.181 1138.35C263.375 1120.54 247.307 1101.62 230.718 1082.55V1082.54ZM170.764 1016.16C185.533 989.139 202.963 961.198 221.124 934.099C239.049 954.08 255.873 973.838 270.914 991.949C253.744 1016.42 236.165 1043.03 219.948 1070.2C203.73 1051.82 187.179 1033.51 170.776 1016.15L170.764 1016.16Z" fill="#924921"/>
<path d="M314.837 1046.65C316.322 1040.3 317.882 1033.9 319.591 1027.43C325.867 1035.43 331.388 1042.58 335.956 1048.47C339.571 1043.45 343.112 1038.66 346.615 1034.09C349.091 1030.86 353.696 1030.13 357.088 1032.34C355.145 1039.42 353.362 1046.39 351.716 1053.28C349.772 1055.98 347.791 1058.69 345.811 1061.5C347.11 1063.21 348.138 1064.58 348.93 1065.68C347.866 1070.74 346.875 1075.73 345.996 1080.71C345.538 1080.78 345.117 1080.82 344.696 1080.82C342.258 1080.82 339.905 1079.68 338.383 1077.63C338.309 1077.52 337.628 1076.56 336.402 1074.97C325.322 1091.22 313.908 1109.11 302.68 1127.64C303.324 1116.19 304.512 1104.47 306.221 1092.43C313.029 1081.77 319.851 1071.46 326.511 1061.83C323.243 1057.54 319.281 1052.43 314.825 1046.64L314.837 1046.65Z" fill="#A66A49"/>
<path d="M354.798 756.848C353.697 753.456 352.471 750.151 351.184 746.957C351.716 747.229 352.248 747.526 352.706 747.947C355.331 750.225 356.061 753.803 354.798 756.848Z" fill="#A66A49"/>
<path d="M302.619 1167.96C313.166 1180.86 322.711 1192.74 330.856 1202.98C332.107 1201.42 332.949 1200.4 333.134 1200.16C335.573 1197.19 339.757 1196.55 342.951 1198.36C343.669 1202.25 344.437 1206.05 345.316 1209.82C345.279 1209.89 345.241 1210 345.167 1210.09C345.093 1210.18 343.422 1212.18 340.871 1215.57C344.486 1220.18 347.717 1224.25 350.503 1227.75C353.511 1236.58 357.126 1244.96 361.384 1252.8C361.162 1253.02 360.926 1253.29 360.629 1253.52C359.181 1254.62 357.51 1255.15 355.875 1255.15C353.548 1255.15 351.233 1254.09 349.673 1252.07C349.401 1251.68 342.704 1243.01 331.401 1228.69C327.935 1233.8 324.246 1239.58 320.854 1245.59C318.155 1239.81 315.716 1233.76 313.624 1227.43C316.249 1223.29 318.836 1219.4 321.275 1215.93C316.632 1210.11 311.495 1203.68 305.974 1196.83C304.339 1187.55 303.238 1177.91 302.619 1167.94V1167.96Z" fill="#A66A49"/>
<path d="M358.574 901.64C363.563 908.337 366.336 912.224 366.448 912.41C368.961 915.913 368.119 920.778 364.615 923.254C363.241 924.245 361.682 924.703 360.085 924.703C357.646 924.703 355.257 923.564 353.734 921.434C353.697 921.36 353.424 920.976 352.929 920.296C357.151 903.781 360.307 887.824 362.412 872.523C364.356 870.245 365.457 868.945 365.569 868.834C368.391 865.566 373.294 865.182 376.574 867.992C379.805 870.815 380.189 875.717 377.379 878.948C377.069 879.294 370.001 887.589 358.574 901.627V901.64Z" fill="#A66A49"/>
<path d="M248.025 645.049C257.012 646.04 264.502 648.899 272.722 650.831C143.838 651.969 29.5007 808.868 74.1909 1008.7C118.225 1205.67 296.59 1385.9 537.756 1414.45L550.234 1441.13C276.485 1431.88 71.9378 1232.55 23.5214 1015.97C-24.8951 799.385 107.145 629.439 248.012 645.049H248.025Z" fill="#924921"/>
<path d="M550.246 1454.49H549.788C257.457 1444.61 57.1809 1227.87 10.4605 1018.87C-16.3289 898.991 9.07398 781.249 78.3747 703.889C125.578 651.227 188.033 625.044 249.497 631.754C258.423 632.756 265.405 634.39 273.365 636.285C280.112 637.869 285.398 644.554 284.42 651.412C283.417 658.221 278.218 663.099 271.384 663.074C224.949 660.635 179.181 682.856 142.909 725.727C84.3293 795.04 63.5316 899.746 87.2509 1005.79C133.451 1212.54 319.355 1375.13 539.315 1401.18C543.908 1401.72 547.894 1404.6 549.85 1408.77L562.341 1435.45C564.322 1439.67 563.975 1444.61 561.4 1448.48C558.924 1452.25 554.715 1454.49 550.234 1454.49H550.246ZM154.385 677.125C134.194 687.87 115.192 702.862 98.3058 721.741C34.7244 792.675 11.6489 901.591 36.569 1013.06C79.6993 1206.02 260.49 1405.88 525.648 1426.38C299.226 1395.16 109.051 1225.95 61.1424 1011.62C35.6157 897.468 58.5551 784.134 122.508 708.47C132.523 696.635 143.182 686.162 154.385 677.137V677.125Z" fill="#592832"/>
<path d="M550.222 1454.51H549.764C257.445 1444.63 57.206 1227.89 10.4608 1018.87C-16.3285 899.015 9.04957 781.286 78.3751 703.926C125.578 651.239 188.033 625.043 249.498 631.765C309.365 638.401 356.061 666.045 384.546 711.676C425.349 777.089 425.931 874.12 386.156 984.88C343.941 1102.47 341.267 1198.59 378.604 1255.52C402.546 1292.02 443.04 1312.38 498.958 1316.03C503.836 1316.35 508.144 1319.3 510.211 1323.72L562.329 1435.48C564.285 1439.7 563.914 1444.64 561.376 1448.52C558.9 1452.26 554.691 1454.5 550.209 1454.5L550.222 1454.51ZM230.334 657.478C182.759 657.478 135.408 680.33 98.2938 721.777C34.7248 792.712 11.6617 901.615 36.5817 1013.04C79.8854 1206.73 261.914 1407.44 528.706 1426.63L489.302 1342.09C428.593 1336.43 383.865 1312.28 356.259 1270.17C314.218 1206.05 315.889 1101.52 361.025 975.83C397.978 872.944 398.275 784.158 361.879 725.813C337.9 687.387 298.038 664.051 246.564 658.357C241.166 657.75 235.744 657.465 230.346 657.465L230.334 657.478Z" fill="#592832"/>
<path d="M1092.33 1058.46C1198.23 1119.17 1242.44 1356.38 1041.89 1417.84C893.098 1456.65 858.299 1344.26 854.276 1315.41C841.339 1222.69 980.424 1086.84 1092.33 1058.46Z" fill="#EAAC71"/>
<path d="M1015.8 1417.84C1209.89 1358.36 1174.73 1134.28 1076.28 1064.88C1083.31 1062.36 1090.29 1060.21 1097.16 1058.46C1203.06 1119.17 1247.26 1356.38 1046.72 1417.84C1018.55 1425.2 994.474 1427.11 973.912 1425.21C986.762 1424.14 1000.69 1421.78 1015.8 1417.84Z" fill="#F5D7BB"/>
<path d="M984.026 1439.26C952.805 1439.26 925.62 1431.57 902.705 1416.28C851.441 1382.08 841.946 1323.79 841.03 1317.27C826.794 1215.25 971.003 1075.42 1089.04 1045.5C1092.41 1044.74 1095.96 1045.13 1098.98 1046.88C1162.73 1083.41 1203.59 1175.35 1194.01 1260.7C1188.61 1308.85 1162.19 1394.97 1045.8 1430.63C1023.72 1436.4 1003.1 1439.27 984.026 1439.27V1439.26ZM1090.28 1072.85C986.589 1102.28 855.725 1229.05 867.51 1313.57C867.819 1315.69 875.259 1365.82 917.536 1394.04C947.915 1414.31 988.631 1417.95 1038.51 1404.89C1139.76 1373.86 1162.79 1299.36 1167.44 1257.73C1175.51 1185.65 1141.85 1105.82 1090.28 1072.85Z" fill="#592832"/>
<path d="M882.823 1511.64H1224.98C1224.98 1511.64 1216.44 1422.51 1104.97 1399.51C993.521 1376.51 876.844 1442.64 870.481 1471.38C864.13 1500.14 882.811 1511.64 882.811 1511.64H882.823Z" fill="#AE6745"/>
<path d="M882.823 1511.64H1224.98C1224.98 1511.64 1216.44 1422.51 1104.97 1399.51C993.521 1376.51 876.844 1442.64 870.481 1471.38C864.13 1500.14 882.811 1511.64 882.811 1511.64H882.823Z" fill="#AE6745"/>
<path d="M1089.74 1417.03C1000.83 1398.68 908.659 1437.04 871.756 1467.91C885.844 1437.67 997.804 1377.39 1104.97 1399.51C1216.43 1422.51 1224.98 1511.64 1224.98 1511.64H1205.67C1196.92 1484.48 1170.04 1433.59 1089.74 1417.03Z" fill="#C18B71"/>
<path d="M870.493 1471.38C872.61 1461.79 887.082 1448.02 909.489 1434.8C913.203 1435.19 916.904 1435.63 920.606 1436.14C962.931 1442.02 990.389 1454.31 1008.19 1467.31C1023.86 1478.75 1042.74 1484.91 1062.15 1484.91H1217.52C1223.88 1500.41 1224.98 1511.64 1224.98 1511.64H1040.6H882.823C882.823 1511.64 864.13 1500.14 870.493 1471.38Z" fill="#924921"/>
<path d="M1224.98 1525H882.811C880.335 1525 877.909 1524.33 875.804 1523.02C865.863 1516.9 850.797 1498.53 857.433 1468.51C866.272 1428.56 993.026 1362.89 1107.66 1386.41C1227.41 1411.13 1238.18 1509.38 1238.29 1510.35C1238.64 1514.12 1237.4 1517.84 1234.87 1520.63C1232.32 1523.42 1228.73 1525 1224.97 1525H1224.98ZM887.75 1498.27H1208.31C1200.69 1474.24 1176.58 1427.94 1102.26 1412.59C994.846 1390.46 888.184 1454.31 883.541 1474.28C880.607 1487.51 884.804 1494.91 887.738 1498.26L887.75 1498.27Z" fill="#592832"/>
<path d="M1101.68 1525C1096.05 1525 1090.77 1521.39 1088.96 1515.73C1088.82 1515.29 1074.68 1472.65 1042.95 1462.41C1035.92 1460.12 1032.07 1452.59 1034.34 1445.56C1036.6 1438.55 1044.07 1434.73 1051.19 1436.94C1096.07 1451.45 1113.7 1505.28 1114.42 1507.56C1116.66 1514.59 1112.79 1522.09 1105.78 1524.33C1104.4 1524.76 1103.04 1524.99 1101.69 1524.99L1101.68 1525Z" fill="#592832"/>
<path d="M1177.26 1525C1171.63 1525 1166.35 1521.39 1164.53 1515.73C1164.4 1515.29 1150.26 1472.65 1118.53 1462.41C1111.5 1460.12 1107.65 1452.59 1109.91 1445.56C1112.15 1438.55 1119.67 1434.73 1126.76 1436.94C1171.65 1451.45 1189.28 1505.28 1190 1507.56C1192.24 1514.59 1188.36 1522.09 1181.36 1524.33C1179.98 1524.76 1178.62 1524.99 1177.27 1524.99L1177.26 1525Z" fill="#592832"/>
<path d="M576.937 790.658C655.461 832.327 757.641 857.52 869.379 857.52C941.342 857.52 1009.33 847.059 1069.61 828.477C1058.81 877.017 1050.13 957.311 1082.86 1035.05C1134.62 1157.97 1218.72 1426.45 840.263 1426.45C601.981 1426.45 419.803 1194.63 478.544 1015.64C506.609 943.817 575.724 881.164 576.937 790.633V790.658Z" fill="#EAAC71"/>
<path d="M1053.25 1035.07C1022.42 961.817 1028.33 886.326 1038.15 837.229C1048.85 834.543 1059.34 831.646 1069.61 828.477C1058.81 877.017 1050.13 957.311 1082.86 1035.05C1134.62 1157.97 1218.72 1426.45 840.262 1426.45C836.276 1426.45 832.302 1426.37 828.341 1426.24C1186.43 1417.94 1104.18 1156.01 1053.25 1035.04V1035.07Z" fill="#F5D7BB"/>
<path d="M625.886 1358.57C694.06 1302.42 745.262 1211.46 755.797 1100.34C773.264 916.136 1014.26 890.535 1070.34 998.312C1073.59 1010.53 1077.71 1022.84 1082.86 1035.07C1134.62 1157.98 1218.72 1426.46 840.262 1426.46C760.105 1426.46 686.31 1400.2 625.886 1358.57Z" fill="#FFE5C0"/>
<path d="M753.346 1416C747.961 1414.69 742.625 1413.22 737.339 1411.69C735.853 1411.26 734.38 1410.79 732.895 1410.33C729.106 1409.18 725.343 1407.98 721.604 1406.7C719.896 1406.12 718.2 1405.54 716.516 1404.93C712.852 1403.63 709.225 1402.27 705.61 1400.86C704.125 1400.28 702.627 1399.72 701.153 1399.12C691.151 1395.08 681.371 1390.63 671.826 1385.8C670.39 1385.07 668.979 1384.32 667.555 1383.58C664.213 1381.83 660.883 1380.05 657.602 1378.22C656.005 1377.32 654.408 1376.42 652.824 1375.5C649.593 1373.65 646.411 1371.74 643.254 1369.8C641.855 1368.94 640.456 1368.1 639.07 1367.22C634.613 1364.41 630.206 1361.53 625.886 1358.56C629.798 1355.34 633.648 1351.97 637.448 1348.52C638.562 1347.51 639.639 1346.45 640.729 1345.42C643.428 1342.9 646.102 1340.36 648.738 1337.72C649.939 1336.52 651.115 1335.27 652.304 1334.05C654.792 1331.47 657.268 1328.87 659.694 1326.18C660.87 1324.9 662.022 1323.57 663.173 1322.26C665.562 1319.55 667.914 1316.79 670.229 1313.98C706.922 1269.51 734.962 1212.97 748.604 1147.76C769.513 1178.4 803.495 1245.15 783.898 1335.13C781.076 1348.07 789.482 1360.81 802.393 1363.74C916.471 1389.69 1034.92 1368.83 1117.12 1292.95L1118.29 1292.73C1092.98 1367.77 1017.15 1426.42 840.262 1426.42C810.279 1426.42 781.175 1422.74 753.346 1415.96V1416Z" fill="#DBAB7A"/>
<path d="M1053.25 1035.07C1042.42 1009.33 1036.18 983.333 1033 958.276C1048.81 968.44 1061.74 981.797 1070.34 998.312C1071.09 1001.17 1071.91 1004.02 1072.76 1006.88C1072.97 1007.6 1073.21 1008.3 1073.43 1009.02C1074.07 1011.12 1074.76 1013.23 1075.45 1015.33C1075.76 1016.25 1076.07 1017.17 1076.38 1018.08C1077.07 1020.09 1077.79 1022.09 1078.54 1024.1C1078.85 1024.95 1079.16 1025.79 1079.48 1026.65C1080.56 1029.46 1081.66 1032.26 1082.85 1035.05C1134.61 1157.97 1218.71 1426.45 840.25 1426.45C836.486 1426.45 832.76 1426.33 829.021 1426.21C1186.3 1417.58 1104.13 1155.93 1053.24 1035.04L1053.25 1035.07Z" fill="#FFF7EC"/>
<path d="M478.544 1015.67C501.447 957.038 551.695 904.524 570.042 837.984C570.983 834.555 571.824 831.089 572.592 827.585C572.716 827.004 572.852 826.422 572.976 825.84C573.731 822.262 574.399 818.647 574.956 814.983C574.956 814.909 574.969 814.835 574.981 814.76C575.489 811.331 575.872 807.852 576.194 804.349C576.269 803.47 576.343 802.579 576.417 801.7C576.69 798.06 587.509 775.443 587.559 771.704C666.082 813.374 757.654 857.532 869.379 857.532C941.342 857.532 1009.33 847.071 1069.61 828.489C1069.1 830.755 1068.6 833.119 1068.11 835.533C1067.97 836.226 1067.82 836.932 1067.69 837.638C1067.3 839.544 1066.93 841.5 1066.57 843.493C1066.45 844.149 1066.33 844.793 1066.21 845.449C1065.76 847.987 1065.32 850.587 1064.89 853.248C1064.79 853.904 1064.69 854.585 1064.58 855.241C1064.31 857.036 1064.04 858.881 1063.78 860.726C991.008 896.985 874.802 912.101 745.683 897.109C731.186 894.596 716.975 891.662 703.11 888.295C669.412 880.099 634.7 897.035 620.773 928.788C597.982 980.733 560.002 1025.29 540.937 1074.07C511.288 1164.43 543.054 1268.25 612.417 1348.91C501.694 1265.64 441.047 1129.91 478.532 1015.68L478.544 1015.67Z" fill="#D6823C"/>
<path d="M840.274 1439.82C714.87 1439.82 594.924 1377.56 519.372 1273.26C458.402 1189.07 438.88 1093.67 465.842 1011.48C475.87 985.784 492.756 958.846 510.632 930.311C543.735 877.45 581.22 817.57 570.784 768.275C569.695 763.199 571.675 757.963 575.81 754.831C579.97 751.674 585.565 751.266 590.133 753.704C666.057 794 760.538 844.162 869.416 844.162C938.382 844.162 1004.41 834.592 1065.69 815.726C1070.26 814.377 1075.2 815.416 1078.7 818.685C1082.21 821.903 1083.71 826.756 1082.69 831.398C1071.49 881.771 1064.57 957.088 1095.21 1029.9C1152 1164.78 1157.23 1268.67 1110.72 1338.68C1066.15 1405.81 975.174 1439.84 840.299 1439.84L840.274 1439.82ZM599.269 788.8C598.068 841.054 563.926 895.562 533.274 944.498C516.079 971.944 499.849 997.854 490.998 1020.53C466.994 1093.76 485.142 1180.42 541.024 1257.6C611.55 1354.95 723.424 1413.1 840.274 1413.1C965.617 1413.1 1049.12 1383.07 1088.43 1323.86C1129.65 1261.8 1123.62 1166.38 1070.55 1040.24C1041.39 971.003 1043.3 900.278 1052.29 847.393C994.561 862.991 933.146 870.877 869.391 870.877C764.264 870.877 673.868 827.945 599.269 788.8Z" fill="#592832"/>
<path d="M506.522 960.257C494.501 975.695 443.262 1040.58 423.715 1073.16C371.956 1159.42 361.891 1283.05 430.907 1379.37C499.911 1475.69 639.367 1478.56 701.945 1399.5C794.544 1282.48 759.424 1177.05 734.107 1129.14C623.447 1114.1 567.503 1033.73 506.534 960.257H506.522Z" fill="#EAAC71"/>
<path d="M699.705 1355.39C750.065 1258.16 734.095 1180.16 708.593 1128.83C703.258 1118.08 711.762 1105.78 723.758 1106.41H724.08C753.333 1152.04 797.194 1254.16 714.746 1378.54C673.856 1440.22 588.016 1461.33 514.841 1432.59C588.413 1449.11 666.874 1418.77 699.705 1355.39Z" fill="#F5D7BB"/>
<path d="M423.715 1073.17C443.262 1040.59 494.501 975.707 506.522 960.27C525.425 983.048 543.858 1006.5 563.567 1028.46C556.51 1038.46 550.271 1047.76 545.74 1055.32C493.981 1141.58 483.917 1265.22 552.933 1361.53C581.084 1400.82 620.958 1424.55 662.541 1433.52C592.436 1474.63 487.767 1458.76 430.907 1379.39C361.904 1283.07 371.968 1159.43 423.715 1073.18V1073.17Z" fill="#D6823C"/>
<path d="M579.079 1468.87C577.494 1468.87 575.897 1468.85 574.288 1468.81C512.377 1467.32 456.15 1437.56 420.051 1387.17C342.233 1278.56 360.158 1147.57 412.474 1065.98C440.019 1022.98 458.415 999.983 474.62 979.693C488.374 962.486 500.258 947.618 514.532 924.134C518.382 917.845 526.54 915.753 532.903 919.652C539.216 923.478 541.209 931.71 537.384 938.024C522.219 962.981 509.84 978.455 495.517 996.381C479.695 1016.16 461.782 1038.57 434.981 1080.38C378.876 1167.94 381.662 1287.7 441.765 1371.58C472.949 1415.11 521.476 1440.81 574.944 1442.08C622.494 1442.65 664.968 1424.68 691.448 1391.2C809.722 1241.77 707.64 1111.6 706.588 1110.29C701.958 1104.54 702.849 1096.12 708.606 1091.51C714.288 1086.85 722.731 1087.74 727.386 1093.52C728.586 1094.98 843.766 1241.81 712.419 1407.78C681.556 1446.75 633.19 1468.86 579.066 1468.86L579.079 1468.87Z" fill="#592832"/>
<path d="M479.782 1511.64H821.941C821.941 1511.64 813.399 1422.51 701.934 1399.51C590.48 1376.51 473.803 1442.64 467.44 1471.38C461.089 1500.14 479.77 1511.64 479.77 1511.64H479.782Z" fill="#AE6745"/>
<path d="M479.782 1511.64H821.941C821.941 1511.64 813.399 1422.51 701.934 1399.51C590.48 1376.51 473.803 1442.64 467.44 1471.38C461.089 1500.14 479.77 1511.64 479.77 1511.64H479.782Z" fill="#AE6745"/>
<path d="M686.694 1417.03C597.784 1398.68 505.618 1437.04 468.715 1467.91C482.803 1437.67 594.763 1377.39 701.933 1399.51C813.386 1422.51 821.941 1511.64 821.941 1511.64H802.629C793.876 1484.48 767 1433.59 686.694 1417.03Z" fill="#C18B71"/>
<path d="M467.452 1471.38C469.569 1461.79 484.041 1448.02 506.448 1434.8C510.162 1435.19 513.863 1435.63 517.565 1436.14C559.89 1442.02 587.348 1454.31 605.15 1467.31C620.823 1478.75 639.701 1484.92 659.112 1484.92H814.476C820.839 1500.41 821.941 1511.64 821.941 1511.64H637.56H479.782C479.782 1511.64 461.089 1500.14 467.452 1471.38Z" fill="#924921"/>
<path d="M821.928 1525H479.782C477.306 1525 474.879 1524.33 472.775 1523.02C462.834 1516.9 447.756 1498.53 454.391 1468.51C463.206 1428.58 589.985 1362.89 704.644 1386.41C824.391 1411.13 835.149 1509.38 835.248 1510.36C835.595 1514.12 834.357 1517.85 831.832 1520.63C829.281 1523.42 825.691 1525 821.928 1525ZM484.721 1498.27H805.265C797.652 1474.24 773.561 1427.92 699.246 1412.59C591.916 1390.51 485.167 1454.29 480.5 1474.28C477.566 1487.52 481.787 1494.91 484.721 1498.26V1498.27Z" fill="#592832"/>
<path d="M698.652 1525C693.02 1525 687.746 1521.39 685.926 1515.73C685.79 1515.29 671.653 1472.65 639.924 1462.41C632.892 1460.12 629.042 1452.59 631.308 1445.56C633.548 1438.55 641.063 1434.73 648.156 1436.94C693.044 1451.45 710.673 1505.28 711.391 1507.56C713.632 1514.59 709.757 1522.09 702.75 1524.33C701.376 1524.76 700.014 1524.99 698.665 1524.99L698.652 1525Z" fill="#592832"/>
<path d="M774.23 1525C768.597 1525 763.323 1521.39 761.503 1515.73C761.367 1515.32 747.205 1472.65 715.501 1462.41C708.469 1460.12 704.619 1452.59 706.885 1445.56C709.15 1438.55 716.652 1434.73 723.733 1436.94C768.609 1451.45 786.25 1505.28 786.968 1507.56C789.209 1514.59 785.359 1522.07 778.327 1524.33C776.978 1524.76 775.591 1524.99 774.242 1524.99L774.23 1525Z" fill="#592832"/>
<path d="M1069.61 828.489C1116 841.859 1154.75 933.715 1154.03 995.539C1153.32 1057.36 1106.6 1145.05 1063.47 1169.5C1020.33 1193.93 967.858 1163.02 969.306 1114.15C970.569 1071.38 992.184 1004.39 1063.54 957.014C1056.87 916.966 1059.9 873.798 1069.62 828.489H1069.61Z" fill="#EAAC71"/>
<path d="M1033.62 1169.48C1076.75 1145.05 1123.47 1057.35 1124.19 995.526C1124.76 946.033 1100.03 877.314 1066.34 845.016C1067.32 839.532 1068.4 834.023 1069.59 828.477C1115.99 841.846 1154.74 933.703 1154.02 995.526C1153.3 1057.35 1106.58 1145.03 1063.45 1169.48C1048.11 1178.17 1031.6 1179.83 1016.74 1176.21C1022.44 1174.81 1028.1 1172.6 1033.62 1169.48Z" fill="#F5D7BB"/>
<path d="M1117.13 1109.95C1101.2 1136.77 1082 1158.97 1063.45 1169.48C1020.32 1193.92 967.846 1163.01 969.294 1114.14C969.876 1094.37 974.828 1069.41 987.022 1043.61C995.031 1041.84 1003.34 1040.87 1011.87 1040.87C1059 1040.87 1099.48 1069.31 1117.13 1109.95Z" fill="#AE6745"/>
<path d="M1056.88 1172.73C1055.38 1173.37 1053.88 1173.97 1052.37 1174.49C1052.1 1174.58 1051.84 1174.68 1051.57 1174.78C1049.77 1175.38 1047.97 1175.88 1046.16 1176.32C1045.86 1176.39 1045.55 1176.44 1045.25 1176.52C1043.63 1176.87 1042.01 1177.17 1040.39 1177.39C1040.14 1177.43 1039.89 1177.47 1039.65 1177.51C1035.85 1177.99 1032.07 1178.13 1028.34 1177.93C1028.22 1177.93 1028.1 1177.93 1027.99 1177.9C1024.17 1177.68 1020.41 1177.11 1016.74 1176.22C1022.44 1174.82 1028.1 1172.62 1033.62 1169.5C1057.96 1155.71 1083.45 1121.76 1101.16 1083.69C1107.59 1091.65 1113 1100.46 1117.13 1109.96C1113.31 1116.41 1109.28 1122.58 1105.12 1128.4C1104.89 1128.73 1104.65 1129.06 1104.42 1129.39C1103.59 1130.54 1102.75 1131.68 1101.9 1132.79C1101.57 1133.25 1101.22 1133.69 1100.88 1134.14C1100.08 1135.18 1099.28 1136.21 1098.49 1137.22C1098.08 1137.73 1097.68 1138.24 1097.27 1138.73C1096.51 1139.69 1095.73 1140.64 1094.95 1141.57C1094.51 1142.09 1094.07 1142.6 1093.62 1143.12C1092.85 1144.01 1092.1 1144.9 1091.33 1145.76C1090.87 1146.27 1090.42 1146.77 1089.96 1147.26C1088.71 1148.64 1087.46 1149.96 1086.19 1151.26C1085.51 1151.95 1084.83 1152.66 1084.15 1153.33C1083.58 1153.9 1083 1154.43 1082.42 1154.98C1081.72 1155.63 1081.03 1156.3 1080.33 1156.93C1079.76 1157.45 1079.2 1157.95 1078.63 1158.44C1077.91 1159.07 1077.19 1159.69 1076.48 1160.3C1075.93 1160.76 1075.39 1161.2 1074.84 1161.64C1074.09 1162.24 1073.32 1162.84 1072.56 1163.41C1072.06 1163.79 1071.55 1164.17 1071.04 1164.54C1070.19 1165.16 1069.35 1165.75 1068.5 1166.31C1068.08 1166.6 1067.66 1166.9 1067.24 1167.17C1065.98 1167.99 1064.7 1168.77 1063.45 1169.48C1061.73 1170.46 1060 1171.32 1058.25 1172.11C1057.8 1172.32 1057.34 1172.52 1056.87 1172.72L1056.88 1172.73Z" fill="#C18B71"/>
<path d="M1031.5 1191.45C1017.9 1191.45 1004.39 1187.77 992.184 1180.42C968.663 1166.25 955.119 1141.33 955.924 1113.76C956.617 1090.16 965.493 1010.16 1049.06 950.725C1044.05 913.339 1046.51 872.325 1056.52 825.692C1057.3 822.077 1059.54 818.92 1062.72 817.026C1065.92 815.095 1069.7 814.612 1073.29 815.652C1126.39 830.928 1168.17 926.634 1167.37 995.675C1166.6 1061.86 1118.38 1153.7 1070.03 1181.12C1057.86 1187.99 1044.64 1191.43 1031.49 1191.43L1031.5 1191.45ZM1079.37 848.074C1072.25 887.899 1071.41 922.933 1076.72 954.81C1077.59 960.01 1075.34 965.234 1070.93 968.156C991.453 1020.88 983.283 1093.55 982.652 1114.54C982.132 1132.35 990.859 1148.4 1005.97 1157.53C1021.56 1166.95 1040.61 1167.09 1056.85 1157.85C1096.91 1135.16 1140.01 1051.63 1140.65 995.378C1141.23 944.387 1113.06 871.991 1079.37 848.074Z" fill="#592832"/>
<path d="M1063.56 970.371C1059.23 970.371 1054.98 968.279 1052.4 964.404C1048.31 958.252 1049.98 949.957 1056.14 945.86C1067.14 938.543 1079.05 931.846 1091.52 925.953C1098.18 922.772 1106.16 925.632 1109.32 932.304C1112.5 938.989 1109.64 946.949 1102.97 950.106C1091.65 955.454 1080.88 961.532 1070.93 968.143C1068.66 969.641 1066.08 970.359 1063.55 970.359L1063.56 970.371Z" fill="#592832"/>
<path d="M1033.92 1183.96C1033.63 1183.96 1033.35 1183.96 1033.06 1183.93C1026.91 1183.47 1022.29 1178.13 1022.75 1171.96C1025.68 1132.18 1049.66 1112.92 1050.69 1112.12C1055.54 1108.3 1062.55 1109.16 1066.37 1114.01C1070.16 1118.84 1069.33 1125.81 1064.57 1129.63C1063.85 1130.2 1047.2 1144.08 1045.02 1173.62C1044.59 1179.5 1039.68 1183.96 1033.9 1183.96H1033.92Z" fill="#592832"/>
<path d="M991.354 1163.37C991.07 1163.37 990.785 1163.37 990.5 1163.34C984.348 1162.89 979.73 1157.54 980.188 1151.37C983.122 1111.61 1007.09 1092.36 1008.1 1091.55C1012.96 1087.74 1019.96 1088.6 1023.79 1093.45C1027.58 1098.28 1026.75 1105.26 1021.96 1109.1C1020.98 1109.9 1004.61 1123.79 1002.46 1153.03C1002.03 1158.91 997.123 1163.37 991.342 1163.37H991.354Z" fill="#592832"/>
<path d="M900.959 1151.29C900.563 1151.79 900.167 1152.3 899.771 1152.8C900.167 1152.31 900.563 1151.81 900.959 1151.29Z" fill="#D6823C"/>
<path d="M905.007 1145.39C904.388 1146.38 903.757 1147.35 903.113 1148.29C903.757 1147.35 904.401 1146.42 905.007 1145.39Z" fill="#D6823C"/>
<path d="M1140.48 867.485C1140.48 867.485 1215.15 926.895 1350.05 967.066C1373.82 1053.23 1296.32 1134.83 1251.4 1137.56C1148.64 1115.6 1059.91 977.601 1039.44 928.913C1042.8 872.635 1109.15 861.815 1140.48 867.485Z" fill="#E8AB71"/>
<path d="M1328.52 993.62C1193.62 953.449 1118.95 894.039 1118.95 894.039C1099.51 890.523 1066.65 893.383 1043.66 909.452C1059.28 870.159 1113.16 862.545 1140.47 867.485C1140.47 867.485 1215.14 926.894 1350.04 967.066C1365.07 1021.55 1339.59 1074.15 1307.48 1106.2C1327.92 1075.16 1339.94 1034.97 1328.52 993.62Z" fill="#F4D6BA"/>
<path d="M1251.4 1151.62C1250.42 1151.62 1249.44 1151.51 1248.47 1151.3C1138.88 1127.89 1047.4 984.113 1026.49 934.359C1025.63 932.379 1025.29 930.225 1025.4 928.071C1026.72 906.109 1036.4 887.466 1053.39 874.12C1079.5 853.62 1118.23 849.2 1143 853.669C1145.29 854.078 1147.42 855.044 1149.24 856.48C1149.96 857.061 1223.73 914.8 1354.06 953.597C1358.72 954.984 1362.31 958.673 1363.6 963.328C1375.31 1005.74 1365.58 1053.07 1336.92 1093.2C1312.79 1127.02 1279.55 1149.94 1252.27 1151.61C1251.98 1151.61 1251.7 1151.63 1251.41 1151.63L1251.4 1151.62ZM1053.72 926.585C1074.71 973.392 1157.85 1101.61 1252.32 1123.37C1268.16 1121.36 1293.81 1105.16 1314.03 1076.87C1327.24 1058.38 1347.17 1021.77 1338.27 978.183C1220.48 941.886 1150.04 892.244 1134.78 880.83C1115.66 878.367 1087.95 882.7 1070.74 896.218C1060.78 904.054 1055.18 914.02 1053.72 926.597V926.585Z" fill="#592832"/>
<path d="M1079.58 150.448C1169.06 207.308 1321.73 116.033 1394.72 216.481C1446.75 288.084 1353.15 377.242 1271.06 381.847L1079.57 150.448H1079.58Z" fill="#EAAC71"/>
<path d="M1399.92 250.76C1335.86 162.605 1210.44 222.101 1120.21 199.558L1079.58 150.461C1169.06 207.32 1321.73 116.046 1394.72 216.493C1406.73 233.02 1410.9 250.463 1409.33 267.609C1406.97 261.926 1403.93 256.294 1399.92 250.772V250.76Z" fill="#F5D7BB"/>
<path d="M1271.07 395.205C1267.11 395.205 1263.32 393.447 1260.78 390.377L1069.28 158.966C1065.09 153.89 1065.2 146.524 1069.54 141.597C1073.91 136.608 1081.18 135.655 1086.75 139.133C1122.05 161.615 1169.53 158.495 1219.82 155.153C1288.8 150.671 1360.01 145.992 1405.52 208.62C1425.94 236.697 1428.61 270.183 1413.05 302.952C1389.64 352.322 1328.91 391.973 1271.8 395.18C1271.57 395.205 1271.31 395.205 1271.06 395.205H1271.07ZM1121.72 180.407L1276.9 367.945C1322.33 362.696 1370.56 330.15 1388.9 291.501C1396.8 274.875 1402.33 249.72 1383.9 224.342C1347.03 173.635 1286.06 177.572 1221.58 181.868C1187.87 184.084 1153.4 186.374 1121.71 180.407H1121.72Z" fill="#592832"/>
<path d="M1370.32 337.553C1343.29 362.436 1306.14 379.879 1271.06 381.86L1194.32 289.124C1342.13 160.649 1411.38 296.565 1370.32 337.566V337.553Z" fill="#EE857B"/>
<path d="M1335.64 312.002C1352.28 295.388 1350.81 263.189 1333.33 239.309C1380.17 255.316 1394.73 313.19 1370.32 337.541C1343.29 362.424 1306.14 379.867 1271.06 381.847L1248.81 354.959C1280.06 350.106 1311.8 333.963 1335.64 312.002Z" fill="#FFBAB0"/>
<path d="M1271.07 395.205C1267.08 395.205 1263.32 393.447 1260.78 390.377L1184.03 297.654C1179.4 292.058 1180.07 283.789 1185.55 279.023C1273.05 202.987 1339.36 213.758 1372.29 249.101C1399.88 278.676 1403.3 323.527 1379.78 346.999C1379.64 347.135 1379.52 347.234 1379.38 347.37C1349.14 375.249 1308.91 393.113 1271.81 395.18C1271.58 395.205 1271.32 395.205 1271.07 395.205ZM1213.1 290.845L1276.9 367.945C1306.06 364.59 1337.05 349.933 1361.05 327.909C1373.97 314.725 1370.06 285.93 1352.71 267.324C1322.82 235.199 1271.11 244.087 1213.1 290.845Z" fill="#592832"/>
<path d="M560.819 41.7558C638.587 11.7354 712.518 85.7775 768.969 112.889C839.396 86.5327 915.047 77.867 990.092 93.6014C1238.04 145.558 1380.88 465.297 1335.01 684.217C1302.97 837.093 1076.01 918.909 828.044 866.952C580.094 814.995 405.047 648.948 437.085 496.073C453.835 416.113 493.189 339.113 547.35 273.823C445.528 195.275 456.249 82.1255 560.831 41.7558H560.819Z" fill="#EAAC71"/>
<path d="M555.607 43.9473C526.305 94.6415 541.098 164.041 607.255 220.368C549.145 283.913 505.482 360.072 484.573 440.328C444.612 593.773 613.964 770.714 862.843 835.545C983.048 866.853 1099.82 866.271 1192.94 840.014C1097.89 883.306 966.237 895.921 828.044 866.965C580.094 815.008 405.047 648.961 437.085 496.086C453.835 416.126 493.189 339.125 547.35 273.836C447.261 196.637 455.976 86.0501 555.607 43.9596V43.9473Z" fill="#D6823C"/>
<path d="M560.819 41.7558C638.587 11.7354 712.518 85.7775 768.969 112.889C780.804 108.457 792.799 104.582 804.907 101.178L807.469 110.264C751.514 140.755 718.894 128.834 671.269 93.5271C616.168 52.687 508.986 50.2729 477.839 133.835C484.214 94.666 512.452 60.4242 560.819 41.7434V41.7558Z" fill="#F5D7BB"/>
<path d="M1297.6 676.382C1342.33 462.921 1207.63 153.667 971.028 90.1973C977.378 91.1876 983.741 92.277 990.092 93.6016C1238.04 145.559 1380.88 465.298 1335.01 684.218C1302.97 837.093 1076.01 918.909 828.044 866.952C821.78 865.64 815.565 864.229 809.388 862.78C1049.93 906.864 1266.37 825.394 1297.59 676.382H1297.6Z" fill="#F5D7BB"/>
<path d="M1035.44 221.507C1086.37 187.451 1130.13 180.865 1164.1 185C1189.51 208.001 1212.55 234.171 1233 262.558C1202.7 308.634 1108.96 320.321 1035.44 221.507Z" fill="#D6823C"/>
<path d="M974.407 895.797C926.486 895.822 876.311 890.721 825.295 880.038C570.524 826.657 390.513 653.158 424 493.325C439.969 417.055 476.031 342.084 528.557 275.755C480.401 234.457 457.078 183.267 464.295 133.65C471.042 87.2141 504.467 49.147 555.99 29.2654C620.599 4.33298 681.556 43.3657 730.53 74.686C744.407 83.5621 757.641 92.0297 769.785 98.3433C843.988 71.6159 921.001 65.4385 992.815 80.5168C1111.5 105.363 1215.1 190.41 1284.5 319.974C1347.74 437.989 1371.51 575.167 1348.07 686.954C1321.28 814.798 1165.89 895.797 974.394 895.797H974.407ZM565.622 54.2226C523.358 70.5388 496.073 100.906 490.762 137.525C484.449 180.828 508.057 226.633 555.495 263.264C558.367 265.467 560.212 268.773 560.633 272.363C561.029 275.978 559.939 279.592 557.624 282.378C503.266 347.903 466.102 422.762 450.145 498.834C419.679 644.245 590.418 803.532 830.767 853.905C1071.05 904.178 1291.45 826.905 1321.91 681.495C1344.09 575.699 1321.28 445.256 1260.94 332.626C1195.33 210.155 1098.18 129.924 987.344 106.7C917.684 92.1164 845.808 98.4052 773.648 125.417C770.28 126.68 766.492 126.532 763.175 124.959C748.27 117.804 732.647 107.814 716.132 97.2415C669.895 67.6915 617.579 34.3039 565.609 54.2473L565.622 54.2226Z" fill="#592832"/>
<path d="M481.441 118.621C463.602 154.423 486.096 226.076 546.161 272.945C580.007 234.58 618.235 199.274 662.777 168.35C662.777 168.35 530.055 21.0331 481.441 118.621Z" fill="white"/>
<path d="M481.441 118.621C463.602 154.423 486.096 226.076 546.161 272.945C580.007 234.58 618.235 199.274 662.777 168.35C662.777 168.35 530.055 21.0331 481.441 118.621Z" fill="#EE857B"/>
<path d="M481.441 118.621C495.9 89.5911 517.812 82.2377 541.457 86.2363C532.952 91.8442 525.512 100.683 519.694 113.657C505.321 145.67 523.086 204.015 569.46 247.839C561.475 256.059 553.688 264.415 546.161 272.945C486.096 226.076 463.602 154.423 481.441 118.621Z" fill="#FFBAB0"/>
<path d="M546.174 286.302C543.277 286.302 540.38 285.386 537.954 283.467C471.797 231.869 449.143 153.494 469.495 112.666C481.268 89.0336 498.475 75.5028 520.672 72.4698C584.303 63.8041 663.878 149.594 672.717 159.399C675.305 162.246 676.53 166.059 676.072 169.884C675.639 173.697 673.572 177.127 670.415 179.33C629.092 207.989 591.755 241.5 556.213 281.783C553.577 284.767 549.875 286.289 546.186 286.289L546.174 286.302ZM530.13 98.5906C528.124 98.5906 526.168 98.7268 524.249 98.9868C511.189 100.769 501.112 109.15 493.412 124.6C480.661 150.164 494.712 209.883 544.812 254.424C575.501 220.851 607.638 191.883 642.449 166.418C616.378 140.409 566.587 98.5906 530.117 98.5906H530.13Z" fill="#592832"/>
<path d="M832.735 94.4439C848.792 91.25 868.785 88.1923 892.132 86.3972C1092.43 80.5788 1191.75 -40.7532 1212.61 42.4869C1233.47 125.727 1123.47 152.504 1123.47 152.504C1123.47 152.504 1206.91 177.622 1194.06 227.871C1181.17 278.268 1063.94 268.203 1017.19 200.945C939.076 178.736 873.167 146.785 832.748 94.4439H832.735Z" fill="#EAAC71"/>
<path d="M820.938 556.127C831.856 556.127 840.708 547.275 840.708 536.357C840.708 525.438 831.856 516.586 820.938 516.586C810.019 516.586 801.167 525.438 801.167 536.357C801.167 547.275 810.019 556.127 820.938 556.127Z" fill="white"/>
<path d="M1186.21 598.229C1188.08 589.502 1196.1 583.832 1204.11 585.553C1212.11 587.261 1217.11 595.729 1215.24 604.456C1213.36 613.221 1205.34 618.891 1197.34 617.183C1189.34 615.474 1184.34 607.007 1186.22 598.242L1186.21 598.229Z" fill="white"/>
<path d="M880.719 115.093C813.82 109.41 798.048 111.985 787.253 113.57C776.73 104.31 841.166 105.375 832.736 94.4435C848.804 91.2372 868.772 88.1918 892.12 86.3844C1092.43 80.566 1191.77 -40.7536 1212.6 42.4618C1215.03 51.9693 1215.65 60.7464 1214.99 68.8302C1189.56 1.73303 1089.24 121.27 880.719 115.093Z" fill="#F5D7BB"/>
<path d="M1127.69 153.903C1137.89 157.505 1164.37 168.052 1181.03 185.569C1145.13 192.75 1086.65 186.894 1062.28 152.38C1087.46 156.614 1109.27 157.134 1127.69 153.915V153.903Z" fill="#D6823C"/>
<path d="M756.366 447.707C758.124 447.323 759.882 447.212 761.615 447.472C773.301 449.205 784.715 451.235 796.104 454.454C809.412 458.217 822.423 463.008 835.125 468.467C846.217 473.234 869.812 482.691 873.353 496.247C875.012 502.573 875.866 509.109 875.866 515.646C875.878 559.989 839.891 596.002 795.547 596.014C751.154 596.026 715.192 560.039 715.179 515.695C715.179 500.629 719.698 485.811 728.029 473.271C733.588 464.902 744.977 450.245 756.366 447.719V447.707Z" fill="#592832"/>
<path d="M830.656 548.166C841.575 548.166 850.426 539.315 850.426 528.396C850.426 517.477 841.575 508.626 830.656 508.626C819.737 508.626 810.886 517.477 810.886 528.396C810.886 539.315 819.737 548.166 830.656 548.166Z" fill="white"/>
<path d="M1178.46 550.519C1179.61 549.665 1180.82 548.872 1182.1 548.142C1190.32 543.5 1199.62 540.64 1209 539.662C1226.11 537.867 1264.77 535.18 1274.95 553.081C1279.3 560.769 1279.76 571.812 1279.22 580.415C1278.51 591.681 1275.09 602.686 1269.6 612.528C1251.37 645.074 1214.52 659.162 1187.32 643.935C1170.68 634.625 1161.86 616.279 1161.09 597.672C1160.4 580.836 1164.37 561.017 1178.45 550.519H1178.46Z" fill="#592832"/>
<path d="M1188.63 604.37C1195.78 608.368 1205.11 605.31 1209.49 597.487C1213.85 589.7 1211.57 580.143 1204.43 576.144C1197.29 572.146 1187.95 575.203 1183.6 582.99C1179.21 590.814 1181.5 600.371 1188.63 604.37Z" fill="white"/>
<path d="M1135.33 272.957C1090.85 272.957 1035.92 251.342 1006.2 208.583C1001.98 202.517 1003.47 194.173 1009.53 189.977C1015.62 185.706 1023.94 187.278 1028.13 193.307C1056.31 233.825 1114.28 251.565 1151.76 244.831C1161.23 243.135 1177.59 238.22 1181.1 224.553C1190.52 187.736 1120.34 165.49 1119.62 165.279C1113.85 163.559 1109.96 158.161 1110.11 152.132C1110.26 146.104 1114.44 140.929 1120.3 139.493C1120.82 139.357 1173.2 126.135 1193.76 91.943C1202.07 78.1522 1203.99 63.0491 1199.65 45.7178C1196.15 31.766 1191.23 29.2406 1189.63 28.4235C1177.88 22.308 1149.08 33.7591 1115.74 46.9681C1062.48 68.0505 989.51 96.932 892.516 99.7545C830.953 104.521 792.91 118.646 792.551 118.794C785.594 121.468 777.931 117.928 775.319 111.008C772.707 104.112 776.173 96.412 783.069 93.7999C784.727 93.1686 824.738 78.2017 891.117 73.0642C984.063 70.3407 1054.48 42.4743 1105.91 22.0976C1150.11 4.60527 1179.36 -6.87057 1201.83 4.61765C1213.47 10.597 1221.27 21.9119 1225.6 39.2433C1231.67 63.5072 1228.65 85.9266 1216.61 105.858C1202.64 128.97 1179.03 144.135 1159.49 153.383C1185.69 167.533 1216.79 192.96 1206.99 231.176C1201.75 251.738 1183.34 266.321 1156.53 271.149C1149.85 272.363 1142.74 272.957 1135.34 272.957H1135.33Z" fill="#592832"/>
<path d="M1107.85 166.22C1079.71 166.22 1055.69 158.582 1053.98 158.012C1046.95 155.722 1043.13 148.195 1045.4 141.189C1047.69 134.207 1055.2 130.282 1062.23 132.597C1062.83 132.771 1121.13 151.154 1152.19 127.373C1158.08 122.929 1166.44 124.006 1170.94 129.849C1175.43 135.729 1174.31 144.098 1168.47 148.604C1150.72 162.209 1128.19 166.208 1107.85 166.208V166.22Z" fill="#592832"/>
<path d="M1040.7 640.174C1047.11 609.579 1024.45 578.944 990.095 571.748C955.739 564.551 922.693 583.52 916.285 614.115C909.877 644.71 932.533 675.346 966.888 682.542C1001.24 689.738 1034.29 670.769 1040.7 640.174Z" fill="#FFE5C0"/>
<path d="M1123 654.622C1128.69 627.493 1112.4 601.125 1086.63 595.727C1060.86 590.33 1035.36 607.946 1029.68 635.075C1024 662.203 1040.28 688.571 1066.05 693.969C1091.82 699.367 1117.32 681.75 1123 654.622Z" fill="#FFE5C0"/>
<path d="M1032.68 660.821C1070.13 670.18 1107.38 609.805 1087.38 596.571C1067.39 583.337 1009.45 574.102 1002.56 592.609C995.662 611.117 1001.65 653.071 1032.68 660.821Z" fill="#DBAB7A"/>
<path d="M1037.32 642.251C1074.77 651.61 1108.06 607.081 1087.59 595.717C1067.13 584.352 1009.5 573.929 1003.75 587.831C998.002 601.733 1006.3 634.502 1037.32 642.251Z" fill="#592832"/>
<path d="M974.703 695.941C950.811 695.941 930.36 688.253 916.73 673.72C911.679 668.347 911.939 659.88 917.337 654.829C922.685 649.803 931.177 650.063 936.228 655.435C952.334 672.606 980.683 669.597 992.109 667.555C999.487 666.206 1004.28 664.051 1009.74 659.595C1018.18 652.761 1024.06 643.118 1026.3 632.434C1027.8 625.192 1034.79 620.624 1042.12 622.097C1049.35 623.595 1053.98 630.689 1052.46 637.918C1048.98 654.581 1039.8 669.672 1026.61 680.355C1017.62 687.672 1008.75 691.72 996.912 693.874C989.274 695.26 981.834 695.941 974.716 695.941H974.703Z" fill="#592832"/>
<path d="M1083.67 715.922C1052.09 715.922 1024 690.185 1016.87 663.544C1014.95 656.426 1019.17 649.097 1026.31 647.178C1033.61 645.16 1040.79 649.481 1042.68 656.624C1047.47 674.463 1068.99 692.463 1089.12 688.699C1096.41 687.461 1103.33 692.227 1104.65 699.494C1105.95 706.761 1101.12 713.731 1093.86 715.031C1090.44 715.637 1087.02 715.922 1083.67 715.922Z" fill="#592832"/>
<path d="M1068.27 693.218C1068.27 693.218 1067.2 695.1 1065.4 698.207C1056.9 712.803 1032.09 754.448 1024.87 755.723C1016.09 757.27 966 749.025 961.73 742.489C957.459 735.965 961.036 680.74 961.036 680.74C961.036 680.74 995.414 695.174 1028.26 662.529C1028.26 662.529 1046.07 696.288 1068.27 693.218Z" fill="white"/>
<path d="M961.037 680.752C961.037 680.752 995.415 695.186 1028.26 662.542C1028.26 662.542 1046.07 696.301 1068.27 693.23C1068.27 693.23 1067.2 695.112 1065.4 698.219C1062.41 703.332 1057.44 711.787 1051.9 720.651C1040.54 716.974 1026.46 710.067 1018.54 697.179C1003.8 712.122 977.774 712.047 959.811 708.445C960.182 694.097 961.049 680.752 961.049 680.752H961.037Z" fill="#C6AEA7"/>
<path d="M1023.45 769.104C1008.24 769.104 959.278 763.187 950.538 749.805C948.335 746.475 943.816 739.517 947.815 682.175C948.1 678.239 950.105 674.624 953.299 672.296C956.493 669.944 960.566 669.164 964.391 670.142C965.542 670.402 994.771 676.926 1018.55 653.343C1018.77 653.12 1018.98 652.91 1019.22 652.687C1024.57 647.772 1032.86 648.032 1037.91 653.294C1039.66 655.126 1040.79 657.342 1041.31 659.644C1043.26 664.324 1044.61 666.936 1046.21 669.375C1051.04 676.877 1061.43 685.505 1065.14 685.939C1072.49 686.001 1078.34 691.992 1078.32 699.37C1078.3 702.936 1076.86 706.204 1074.56 708.593C1074.16 709.373 1073.79 710.141 1073.73 710.252C1072.72 712.097 1071.75 713.892 1070.57 715.674C1069.33 717.544 1068.19 719.462 1067.09 721.357L1064.57 725.553C1060.02 732.882 1055.36 740.198 1050.4 747.267C1047.42 751.538 1044.35 755.759 1040.92 759.671C1038.19 762.828 1033.96 767.743 1027.11 768.919C1026.34 769.055 1025.09 769.117 1023.45 769.117V769.104ZM973.403 733.934C983.456 737.586 1010.1 742.29 1020.3 742.55C1024.12 738.131 1026.35 735.023 1028.52 731.904C1033.17 725.244 1037.57 718.373 1041.86 711.453L1044.08 707.727C1044.47 707.058 1044.88 706.352 1045.29 705.684C1034.98 698.764 1026.75 688.563 1023.73 683.859C1023.68 683.772 1023.61 683.686 1023.55 683.574C1005.23 695.669 986.402 697.613 973.676 697.823C972.983 712.468 972.76 726.977 973.391 733.922L973.403 733.934Z" fill="#592832"/>
<path d="M998.671 753.42C997.903 753.42 997.148 753.271 996.38 752.937C993.508 751.674 992.196 748.319 993.446 745.435C993.682 744.94 1015.82 693.948 1022.69 661.378C1023.34 658.283 1026.36 656.215 1029.43 656.983C1032.5 657.639 1034.48 660.66 1033.83 663.73C1026.71 697.439 1004.8 747.874 1003.88 750.015C1002.94 752.144 1000.86 753.432 998.658 753.432L998.671 753.42Z" fill="#592832"/>
<path opacity="0.4" d="M1289.32 486.85C1234.11 471.425 1173.2 459.578 1142.37 475.226C1111.55 490.874 1107.14 569.051 1112.44 618.074C1117.74 667.084 1142.88 689.986 1231.03 703.678C1275.76 710.636 1319.09 698.925 1334.09 642.746C1349.1 586.568 1366.64 508.44 1289.32 486.85Z" fill="#F5D7BB"/>
<path d="M1301.61 652.712C1315.55 600.458 1331.84 527.815 1259.98 507.747C1209.51 493.647 1154.23 483.05 1125.12 496.494C1130.06 483.372 1136.62 472.924 1145.7 468.306C1176.52 452.671 1237.44 464.493 1292.67 479.906C1369.97 501.508 1352.43 579.648 1337.45 635.839C1326.73 675.948 1301.29 692.76 1271.49 696.919C1284.65 687.808 1295.74 674.5 1301.6 652.7L1301.61 652.712Z" fill="white"/>
<path d="M1252.77 723.275C1244.96 723.275 1236.8 722.619 1228.29 721.319C1136.22 706.984 1101.27 680.479 1094.72 620.005C1094.14 614.57 1080.95 486.442 1134.3 459.343C1163.96 444.265 1214.77 447.533 1294.11 469.68C1391.46 496.878 1364.33 598.526 1351.3 647.364C1338.21 696.473 1302.86 723.288 1252.77 723.288V723.275ZM1181.48 485.687C1166.03 485.687 1156.41 488.076 1150.44 491.109C1133.68 499.638 1124 559.246 1130.14 616.167C1133.73 649.221 1142.87 671.937 1233.77 686.087C1279.25 693.119 1306.39 677.421 1316.87 638.166C1336.55 564.421 1337.55 518.827 1284.54 504.008C1235.21 490.255 1202.79 485.687 1181.48 485.687Z" fill="#592832"/>
<path opacity="0.4" d="M646.597 453.933C632.67 544.713 638.426 616.923 749.124 634.861C862.137 653.17 905.255 627.903 930.621 578.806C954.897 531.825 967.697 454.28 938.185 430.845C909.39 407.98 834.704 389.597 769.637 384.534C705.09 379.507 658.097 379.012 646.609 453.933H646.597Z" fill="#F5D7BB"/>
<path d="M891.712 587.93C914.156 544.515 925.966 472.8 898.719 451.148C872.078 429.991 803.012 413.019 742.848 408.315C707.665 405.579 678.387 404.675 657.912 418.28C677.88 380.102 717.915 380.498 769.612 384.546C834.704 389.609 909.377 407.98 938.148 430.846C967.698 454.317 954.885 531.838 930.621 578.806C912.15 614.57 883.876 637.448 826.41 640.27C859.203 632.05 878.342 613.741 891.699 587.93H891.712Z" fill="white"/>
<path d="M814.921 658.741C794.619 658.741 771.853 656.612 746.264 652.477C619.225 631.865 614.806 543.562 628.968 451.235C643.44 356.841 714.077 362.325 771.023 366.757C832.5 371.548 914.49 389.275 949.264 416.919C988.606 448.165 972.897 535.775 946.429 587.002C921.051 636.111 881.152 658.754 814.909 658.754L814.921 658.741ZM731.421 400.479C689.492 400.479 671.096 411.707 664.225 456.62C650.013 549.281 659.781 602.315 751.971 617.257C858.596 634.539 893.284 612.206 914.762 570.624C938.915 523.903 945.253 459.232 927.105 444.798C903.101 425.758 834.84 407.473 768.25 402.299C754.323 401.209 742.092 400.467 731.434 400.467L731.421 400.479Z" fill="#592832"/>
<path d="M1108.86 541.184C1104.88 541.184 1100.9 539.885 1097.58 537.186C1095.19 535.255 1045.35 496.358 969.319 518.059C959.812 520.758 949.995 515.274 947.271 505.804C944.572 496.333 950.057 486.454 959.527 483.756C1054.45 456.818 1117.51 507.413 1120.16 509.592C1127.78 515.831 1128.87 527.084 1122.63 534.685C1119.1 538.969 1113.99 541.197 1108.85 541.197L1108.86 541.184Z" fill="#592832"/>
<path d="M646.027 470.089C645.655 470.089 645.284 470.089 644.913 470.064L458.377 458.687C448.56 458.081 441.083 449.638 441.665 439.796C442.272 429.954 451.086 422.279 460.556 423.084L647.091 434.461C656.908 435.067 664.386 443.51 663.804 453.352C663.222 462.797 655.361 470.089 646.027 470.089Z" fill="#592832"/>
<path d="M1283.41 930.782C1246.63 902.767 1197.2 934.916 1197.2 934.916L995.501 880.285L1010.59 825.295L1209.49 892.281C1237.94 863.09 1265.61 877.995 1265.61 877.995L1342.69 803.916L1383.75 844.36C1362.47 862.385 1315.77 902.098 1283.41 930.769V930.782Z" fill="#E0E8EA"/>
<path d="M1395.09 834.778L1368.35 1124.74L1249.13 1214.87C1249.13 1214.87 1217.63 1253.07 1166.77 1224.66C1061.05 1208.99 900.402 1182.53 900.402 1182.53L964.962 872.003L1197.23 934.916C1197.23 934.916 1246.65 902.766 1283.44 930.781C1326.54 892.578 1395.11 834.778 1395.11 834.778H1395.09Z" fill="#933FDE"/>
<path d="M1283.41 962.535C1246.63 934.52 1197.2 966.67 1197.2 966.67L952.124 902.928L906.765 1183.6C902.68 1182.93 900.377 1182.54 900.377 1182.54L964.937 872.016L1197.2 934.929C1197.2 934.929 1246.62 902.779 1283.41 930.794C1326.52 892.591 1395.09 834.791 1395.09 834.791L1391.91 869.23C1377.98 880.991 1321.01 929.222 1283.41 962.548V962.535Z" fill="#AB69F3"/>
<path d="M1203.99 1249.25C1191.46 1249.25 1177.34 1246.2 1162.23 1238.19C1056.43 1222.46 898.112 1196.41 898.112 1196.41C890.523 1195.17 885.336 1188.03 886.512 1180.44L934.532 865.541C935.114 861.58 937.38 858.052 940.734 855.885C944.065 853.682 948.15 853.038 952.099 854.102L1195.23 919.826C1209.48 912.125 1247.76 895.215 1282.01 913.277C1325.21 875.321 1386.03 824.057 1386.03 824.057C1390.4 820.405 1396.56 819.7 1401.59 822.361C1406.64 824.998 1409.6 830.408 1409.08 836.09L1382.34 1126.06C1381.97 1129.99 1379.96 1133.61 1376.82 1135.98L1257.59 1226.1C1250.17 1235.52 1230.6 1249.27 1204 1249.27L1203.99 1249.25ZM916.396 1170.93C957.397 1177.63 1081.76 1197.85 1168.83 1210.76C1170.5 1211.02 1172.13 1211.56 1173.62 1212.39C1212.5 1234.11 1235.84 1208.83 1238.35 1205.84L1354.93 1117.32L1377.96 867.745C1354.1 888.022 1318.77 918.253 1292.73 941.292C1287.66 945.748 1280.22 945.996 1274.91 941.96C1246.56 920.37 1205.25 946.466 1204.86 946.701C1201.51 948.855 1197.36 949.487 1193.55 948.459L959.948 885.311L916.409 1170.92L916.396 1170.93Z" fill="#592832"/>
<path d="M1197.19 948.943C1195.98 948.943 1194.78 948.794 1193.6 948.485C1187.09 946.739 1180.45 940.067 1180.91 933.357C1183.81 889.967 1210.77 859.649 1246.44 859.649C1280.23 859.649 1303.6 885.572 1304.61 924.109C1304.69 928.294 1302.95 932.317 1299.8 935.053L1292.69 941.317C1287.61 945.774 1280.24 945.996 1274.91 941.948C1246.56 920.358 1205.25 946.454 1204.86 946.69C1202.56 948.175 1199.88 948.93 1197.2 948.93L1197.19 948.943ZM1246.44 887.775C1231.07 887.775 1220.51 897.803 1214.59 911.296C1230.81 905.664 1252.82 901.727 1274.13 909.724C1270.95 899.152 1263.53 887.763 1246.42 887.763L1246.44 887.775Z" fill="#592832"/>
<path d="M1197.19 948.942C1195.98 948.942 1194.73 948.794 1193.54 948.46L991.837 893.841C988.247 892.863 985.177 890.486 983.308 887.243C981.463 884.024 980.98 880.174 981.958 876.559L997.037 821.569C998.064 817.843 1000.59 814.698 1003.99 812.891C1007.39 811.084 1011.4 810.712 1015.07 811.975L1206.05 876.274C1228.42 857.47 1250.1 858.844 1262.33 861.951L1334.47 795.993C1339.97 791.004 1348.33 791.115 1353.65 796.191L1393.45 834.209C1396.33 836.969 1397.91 840.807 1397.79 844.781C1397.68 848.767 1395.87 852.506 1392.82 855.093C1371.6 873.068 1325.02 912.695 1292.72 941.267C1287.65 945.724 1280.21 945.971 1274.9 941.936C1246.55 920.346 1205.24 946.442 1204.85 946.677C1202.55 948.162 1199.86 948.918 1197.19 948.918V948.942ZM1012.78 870.406L1195.23 919.801C1209.48 912.101 1247.76 895.19 1282.01 913.252C1308.28 890.189 1341.09 862.162 1362.74 843.753L1343.73 825.605L1275.09 888.382C1270.67 892.38 1264.19 893.172 1258.95 890.387C1257.21 889.52 1239.48 881.622 1219.55 902.098C1215.78 905.948 1210.08 907.298 1205.01 905.602L1020.22 843.37L1012.81 870.419L1012.78 870.406Z" fill="#592832"/>
<path d="M1166.77 1235.05C1166.4 1235.05 1166.03 1235.02 1165.66 1235C1159.94 1234.39 1155.8 1229.28 1156.39 1223.55L1186.85 933.802C1187.46 928.058 1192.65 924.332 1198.3 924.53C1204.02 925.137 1208.16 930.249 1207.58 935.981L1177.11 1225.72C1176.54 1231.07 1172.02 1235.03 1166.77 1235.03V1235.05Z" fill="#592832"/>
<path d="M1249.13 1225.25C1248.7 1225.25 1248.28 1225.23 1247.87 1225.19C1242.15 1224.5 1238.1 1219.31 1238.77 1213.62L1273.06 929.531C1273.76 923.812 1279.12 919.888 1284.64 920.432C1290.36 921.126 1294.41 926.313 1293.74 932.007L1259.45 1216.09C1258.81 1221.38 1254.31 1225.25 1249.13 1225.25Z" fill="#592832"/>
<path d="M802.64 869.602C821.036 917.437 857.234 965.878 951.542 997.025C958.239 999.055 963.265 1001.33 968.601 1003.59C968.625 1003.59 968.65 1003.6 968.675 1003.61C1000.14 1016.97 1019.99 1048.15 1014.96 1080.87C1008.92 1120.18 969.319 1146.71 926.51 1140.13C926.51 1140.13 778.154 1132.15 716.429 1041.05C698.578 950.304 725.12 891.588 802.64 869.614V869.602Z" fill="#E8AB71"/>
<path d="M981.042 1097.92C986.91 1065.35 967.87 1033.66 936.748 1019.51C936.748 1019.51 936.699 1019.48 936.674 1019.47C931.413 1017.08 926.436 1014.67 919.801 1012.47C842.292 984.657 804.213 945.03 783.687 904.772C776.916 891.489 784.146 875.296 798.382 870.877C799.781 870.444 801.205 870.023 802.641 869.614C821.037 917.449 857.234 965.89 951.542 997.037C958.239 999.067 963.265 1001.35 968.601 1003.6C968.626 1003.6 968.65 1003.61 968.675 1003.62C1000.14 1016.98 1019.99 1048.16 1014.96 1080.88C1010.34 1110.97 986.031 1133.51 955.689 1139.5C968.7 1129.25 977.997 1114.88 981.042 1097.93V1097.92Z" fill="#F4D6BA"/>
<path d="M943.149 1101.62C967.376 1107.07 991.392 1104.42 1010.83 1095.75C998.337 1126.6 963.649 1145.83 926.511 1140.12C926.511 1140.12 778.154 1132.14 716.43 1041.03C716.392 1040.84 716.355 1040.64 716.318 1040.44C713.001 1023.38 733.093 1011.95 746.586 1022.91C823.141 1085.09 943.149 1101.62 943.149 1101.62Z" fill="#D6813A"/>
<path d="M879.901 1054.64C885.893 1026.27 899.944 1002.04 918.525 984.422C928.664 988.867 939.633 993.076 951.542 997.012C958.239 999.043 963.265 1001.32 968.601 1003.57C968.625 1003.57 968.65 1003.59 968.675 1003.6C1000.14 1016.96 1019.99 1048.14 1014.96 1080.86C1008.92 1120.16 969.319 1146.69 926.51 1140.12C926.51 1140.12 910.553 1139.24 886.995 1134.9C876.992 1111.19 873.872 1083.19 879.901 1054.65V1054.64Z" fill="#AD6746"/>
<path d="M925.78 1140.08C922.4 1139.86 907.607 1138.71 886.995 1134.9C880.768 1120.14 877.215 1103.72 876.868 1086.55C914.787 1097.7 943.148 1101.62 943.148 1101.62C967.375 1107.07 991.391 1104.42 1010.83 1095.75C1009.28 1099.56 1007.39 1103.2 1005.19 1106.63C1005.16 1106.68 1005.13 1106.74 1005.11 1106.79C1003.02 1110.06 1000.61 1113.11 998.014 1115.98C997.742 1116.28 997.47 1116.59 997.197 1116.88C994.622 1119.63 991.825 1122.19 988.816 1124.52C988.482 1124.78 988.136 1125.02 987.801 1125.28C984.694 1127.62 981.413 1129.78 977.922 1131.64C977.898 1131.65 977.861 1131.66 977.823 1131.69C974.382 1133.52 970.742 1135.07 966.991 1136.39C966.583 1136.54 966.187 1136.7 965.778 1136.85C962.176 1138.07 958.437 1138.98 954.624 1139.69C953.943 1139.81 953.262 1139.93 952.569 1140.05C948.769 1140.65 944.894 1141.01 940.945 1141.09C940.326 1141.09 939.694 1141.06 939.075 1141.06C934.928 1141.04 930.732 1140.8 926.485 1140.14C926.485 1140.14 926.238 1140.13 925.755 1140.1L925.78 1140.08Z" fill="#924921"/>
<path d="M1011.89 1092.81C1010.8 1095.9 1009.56 1098.91 1008.07 1101.77C1007.99 1101.92 1007.89 1102.05 1007.81 1102.21C1006.31 1105 1004.59 1107.65 1002.73 1110.19C1002.37 1110.68 1002.01 1111.18 1001.64 1111.66C999.599 1114.3 997.408 1116.82 995.019 1119.16C994.957 1119.22 994.883 1119.27 994.821 1119.33C992.394 1121.67 989.782 1123.84 987.034 1125.85C986.762 1126.04 986.502 1126.25 986.229 1126.44C980.374 1130.6 973.862 1133.98 966.892 1136.42C966.83 1136.44 966.769 1136.47 966.707 1136.49C963.154 1137.73 959.477 1138.73 955.714 1139.48C968.725 1129.23 978.022 1114.85 981.067 1097.91C986.935 1065.33 967.895 1033.64 936.773 1019.49C936.773 1019.49 936.723 1019.47 936.699 1019.46C931.437 1017.07 926.461 1014.65 919.825 1012.46C913.252 1010.1 907.05 1007.62 901.033 1005.1C906.245 997.495 912.1 990.525 918.55 984.41C928.689 988.854 939.657 993.075 951.566 997C958.264 999.03 963.29 1001.31 968.626 1003.56C968.65 1003.56 968.675 1003.57 968.7 1003.59C1000.17 1016.94 1020.01 1048.13 1014.99 1080.85C1014.47 1084.2 1013.63 1087.43 1012.63 1090.59C1012.4 1091.33 1012.16 1092.06 1011.92 1092.79L1011.89 1092.81Z" fill="#C08A71"/>
<path d="M939.484 1155.17C934.495 1155.17 929.469 1154.8 924.381 1154.02C919.417 1153.82 769.686 1144.71 704.792 1048.92C700.435 1042.49 702.143 1033.75 708.556 1029.4C715.018 1025.04 723.746 1026.76 728.078 1033.16C785.074 1117.3 925.867 1126.03 927.278 1126.11C963.723 1131.53 996.219 1110.33 1001.08 1078.75C1005 1053.25 989.423 1027.68 963.203 1016.56C956.605 1013.75 952.557 1012.03 947.444 1010.47C838.9 974.605 805.339 915.79 789.531 874.653C786.745 867.411 790.36 859.265 797.602 856.479C804.832 853.694 812.99 857.346 815.775 864.551C830.705 903.398 860.119 952.025 955.936 983.667C961.854 985.474 966.756 987.517 971.646 989.609C1012.25 1006.82 1034.73 1044.8 1028.85 1083.01C1022.37 1125.19 983.828 1155.17 939.484 1155.17Z" fill="#592832"/>
<path d="M994.338 1082.67C962.671 1082.67 946.318 1067.24 945.488 1066.45C939.918 1061.05 939.769 1052.15 945.166 1046.58C950.539 1041.07 959.316 1040.87 964.862 1046.1C965.803 1046.93 980.547 1059.24 1011.32 1052.67C1018.68 1051.19 1026.36 1055.89 1027.99 1063.5C1029.6 1071.09 1024.74 1078.56 1017.15 1080.17C1008.85 1081.92 1001.22 1082.64 994.35 1082.64L994.338 1082.67Z" fill="#592832"/>
<path d="M981.24 1130.28C949.561 1130.28 933.195 1114.85 932.391 1114.06C926.82 1108.64 926.671 1099.76 932.069 1094.19C937.442 1088.68 946.169 1088.48 951.789 1093.71C952.73 1094.56 967.437 1106.81 998.225 1100.28C1005.58 1098.78 1013.27 1103.5 1014.89 1111.11C1016.5 1118.7 1011.64 1126.17 1004.06 1127.78C995.724 1129.53 988.123 1130.25 981.253 1130.25L981.24 1130.28Z" fill="#592832"/>
<path d="M1316.47 1038.3C1316.59 1080.97 1343.79 1115.47 1377.21 1115.37C1410.64 1115.27 1427.54 1080.64 1427.41 1037.98C1427.29 995.304 1410.18 960.777 1376.76 960.876C1343.33 960.975 1316.34 995.638 1316.47 1038.31V1038.3Z" fill="#AD6746"/>
<path d="M1376.74 960.864C1379.03 960.864 1381.24 961.049 1383.38 961.359C1360.24 965.729 1342.34 998.485 1342.45 1038.22C1342.58 1077.96 1360.67 1110.61 1383.84 1114.84C1381.69 1115.16 1379.5 1115.36 1377.21 1115.37C1343.79 1115.47 1316.59 1080.96 1316.47 1038.3C1316.34 995.626 1343.33 960.963 1376.76 960.864H1376.74Z" fill="#924921"/>
<path d="M1358.43 1104.53C1388.94 1104.44 1404.36 1072.82 1404.25 1033.89C1404.14 996.195 1389.46 965.531 1360.83 963.699C1365.91 961.916 1371.23 960.876 1376.75 960.864C1410.18 960.765 1427.29 995.304 1427.41 1037.96C1427.54 1080.64 1410.64 1115.27 1377.21 1115.36C1364.38 1115.4 1352.47 1110.29 1342.65 1101.61C1347.66 1103.5 1352.95 1104.54 1358.43 1104.52V1104.53Z" fill="#C08A71"/>
<path d="M1377.03 1127.84C1357.03 1127.84 1338.4 1118.18 1324.56 1100.59C1311.38 1083.86 1304.06 1061.75 1304 1038.34C1303.94 1014.93 1311.09 992.766 1324.19 975.942C1337.97 958.227 1356.64 948.46 1376.72 948.398H1376.89C1396.88 948.398 1414.05 958.512 1425.2 976.908C1434.73 992.581 1439.78 1013.69 1439.87 1037.93C1439.93 1062.19 1434.99 1083.32 1425.57 1099.06C1414.49 1117.58 1397.32 1127.78 1377.24 1127.85H1377.01L1377.03 1127.84ZM1376.89 973.343H1376.78C1364.52 973.368 1352.82 979.743 1343.85 991.268C1334.17 1003.7 1328.86 1020.39 1328.92 1038.25C1328.97 1056.11 1334.38 1072.79 1344.13 1085.17C1353.15 1096.62 1364.83 1102.91 1377.04 1102.91H1377.15C1388.64 1102.88 1397.48 1097.42 1404.18 1086.24C1411.16 1074.58 1414.99 1057.45 1414.92 1038.03C1414.85 1018.6 1410.93 1001.49 1403.89 989.869C1397.14 978.753 1388.3 973.355 1376.89 973.355V973.343Z" fill="#592832"/>
<path d="M1320.92 1079.55C1317.62 1079.55 1314.31 1078.22 1311.85 1075.64C1307.13 1070.61 1307.37 1062.74 1312.37 1058.01C1343.29 1028.98 1373.56 1041.75 1385.27 1052.55C1390.32 1057.23 1390.62 1065.13 1385.96 1070.18C1381.33 1075.2 1373.5 1075.55 1368.42 1070.94C1365.49 1068.42 1350.04 1056.79 1329.48 1076.17C1327.06 1078.43 1323.99 1079.56 1320.92 1079.56V1079.55Z" fill="#592832"/>
<path d="M1320.77 1028.2C1317.47 1028.2 1314.16 1026.87 1311.7 1024.28C1306.98 1019.26 1307.22 1011.38 1312.22 1006.66C1343.14 977.651 1373.39 990.402 1385.12 1001.2C1390.17 1005.88 1390.47 1013.77 1385.82 1018.83C1381.16 1023.85 1373.38 1024.2 1368.27 1019.59C1365.34 1017.04 1349.89 1005.44 1329.33 1024.82C1326.91 1027.08 1323.84 1028.21 1320.77 1028.21V1028.2Z" fill="#592832"/>
</g>
<defs>
<clipPath id="clip0_971_2551">
<rect width="1439.88" height="1525" fill="white"/>
</clipPath>
</defs>
</svg>
