<svg width="1465" height="1525" viewBox="0 0 1465 1525" fill="none" xmlns="http://www.w3.org/2000/svg">
<g clip-path="url(#clip0_971_2329)">
<path d="M1099.47 681.147C1099.47 681.147 1212.93 643.835 1296.7 622.945C1380.47 602.055 1394.66 628.844 1389.66 638.89C1384.65 648.936 1360.52 673.046 1358.25 683.339C1355.97 693.624 1368.84 759.614 1280.55 761.11C1218.15 797.624 1068.61 846.367 1016.29 846C973.496 759.972 1099.46 681.156 1099.46 681.156L1099.47 681.147Z" fill="#E8AB71"/>
<path d="M1113.14 704.779C1113.14 704.779 1226.6 667.468 1310.37 646.568C1349.95 636.697 1373.86 637.523 1387.7 642.146C1388.49 640.954 1389.18 639.835 1389.66 638.88C1394.67 628.835 1380.47 602.046 1296.7 622.935C1212.93 643.825 1099.47 681.137 1099.47 681.137C1099.47 681.137 973.505 759.954 1016.3 845.981C1018.14 845.99 1020.12 845.935 1022.18 845.825C1009.56 769.596 1113.15 704.77 1113.15 704.77L1113.14 704.779Z" fill="#F4D6BA"/>
<path d="M1360.18 615.743C1360.39 616.138 1360.61 616.541 1360.91 616.945C1373.85 634.339 1338.34 650.798 1325.35 678.174C1320.74 727.899 1255.45 731.578 1255.45 731.578C1255.45 731.578 1228.61 748.394 1150.94 774.073C1073.25 799.752 1068.59 723.67 1123.71 673.321C1108.65 678.119 1099.46 681.138 1099.46 681.138C1099.46 681.138 973.496 759.954 1016.29 845.982C1068.61 846.349 1218.15 797.605 1280.55 761.092C1368.84 759.596 1355.97 693.605 1358.25 683.321C1360.52 673.037 1384.65 648.927 1389.66 638.871C1392.95 632.266 1387.79 618.505 1360.19 615.734L1360.18 615.743Z" fill="#D6813A"/>
<path d="M1296.69 622.936C1282.94 626.367 1268.39 630.239 1253.68 634.312C1247.17 646.064 1242.91 658.973 1241.71 672.798C1238.77 706.532 1253.97 738.266 1280.27 761.257C1280.36 761.202 1280.46 761.147 1280.56 761.092C1368.84 759.596 1355.98 693.606 1358.26 683.321C1360.53 673.037 1384.66 648.927 1389.67 638.872C1394.68 628.826 1380.48 602.037 1296.71 622.927L1296.69 622.936Z" fill="#AD6746"/>
<path d="M1296.69 622.935C1290 624.605 1283.12 626.385 1276.13 628.229C1275.75 628.33 1275.38 628.431 1275 628.523C1268 630.385 1260.89 632.312 1253.73 634.293C1253.72 634.293 1253.7 634.302 1253.68 634.312C1248.43 643.78 1244.74 654.027 1242.83 664.871C1265.69 658.293 1288.99 651.899 1310.36 646.568C1349.94 636.697 1373.85 637.523 1387.69 642.146C1388.48 640.963 1389.17 639.844 1389.65 638.88C1394.66 628.835 1380.46 602.046 1296.69 622.935Z" fill="#C08A71"/>
<path d="M1389.65 638.881C1389.93 638.33 1390.11 637.715 1390.27 637.073C1390.3 636.899 1390.35 636.725 1390.38 636.541C1390.48 635.945 1390.53 635.321 1390.51 634.67C1390.51 634.44 1390.47 634.202 1390.45 633.963C1390.4 633.477 1390.32 632.982 1390.21 632.477C1390.12 632.101 1390.03 631.734 1389.9 631.349C1389.8 631.046 1389.65 630.743 1389.53 630.44C1389.17 629.587 1388.71 628.725 1388.11 627.862C1388.04 627.752 1387.96 627.642 1387.88 627.523C1384.04 622.275 1375.62 617.284 1360.2 615.734C1360.41 616.128 1360.62 616.532 1360.93 616.936C1373.87 634.33 1338.36 650.789 1325.37 678.165C1320.76 727.853 1255.57 731.56 1255.48 731.569C1261.88 742.477 1270.27 752.505 1280.28 761.248C1280.37 761.193 1280.47 761.138 1280.57 761.083C1368.85 759.587 1355.99 693.596 1358.27 683.312C1360.54 673.027 1384.67 648.917 1389.68 638.862L1389.65 638.881Z" fill="#924921"/>
<path d="M1016.81 855.89C1012.95 855.725 1009.18 853.89 1007.44 850.394C961.193 757.394 1088.75 676.165 1094.2 672.761C1094.88 672.339 1095.61 671.991 1096.37 671.743C1097.51 671.376 1211.14 634.073 1294.3 613.348C1309.27 609.605 1327.01 605.587 1345.12 604.009C1358.18 602.835 1385.44 600.459 1396.05 620.037C1407.26 640.789 1391.87 657.403 1381.68 668.403L1378.05 672.367C1375.45 675.321 1372.82 678.303 1370.43 681.458C1369.58 682.624 1368.09 684.624 1367.9 685.44C1367.75 686.459 1367.79 688.183 1367.75 690.339C1367.5 709.725 1366.71 768.312 1283.31 770.926C1217.06 808.807 1069.68 855.881 1016.8 855.881L1016.81 855.89ZM1103.74 690.156C1092.84 697.312 994.046 764.743 1022.61 835.908C1077.26 832.715 1216.01 787.385 1275.54 752.55C1277.01 751.697 1278.67 751.229 1280.38 751.192C1347.16 750.064 1347.69 711.055 1347.96 690.092C1348.01 686.303 1348.05 683.578 1348.58 681.192C1349.66 676.275 1352.5 672.449 1354.56 669.66C1357.27 666.018 1360.26 662.614 1363.22 659.257L1367.16 654.954C1378.39 642.807 1382.48 636.587 1378.62 629.458C1374.24 621.33 1355.03 623.027 1346.84 623.715C1330.08 625.183 1313.29 629.009 1299.06 632.541C1221.22 651.954 1116.16 686.101 1103.73 690.165L1103.74 690.156Z" fill="#592832"/>
<path d="M1071.41 696.56C1066.47 697.762 1061.5 698.89 1056.52 699.954C1035.05 704.542 1013.29 707.863 991.413 709.798C970.706 711.633 949.881 712.22 929.11 711.422C909.633 710.67 890.193 708.698 871 705.285C853.193 702.12 835.578 697.725 818.468 691.844C810.422 689.083 802.495 685.982 794.725 682.523C790.963 680.853 787.229 679.101 783.56 677.239C780.367 675.615 776.89 671.881 773.238 671.505C768.486 671.019 765.826 675.587 764.11 679.211C762.138 683.367 759.899 687.376 757.376 691.211C752.339 698.872 746.284 705.826 739.679 712.175C726.266 725.074 710.743 735.523 695.193 745.624C682.046 754.156 668.835 762.652 656.624 772.514C649.339 778.404 642.413 784.78 636.275 791.863C633.229 795.386 630.376 799.074 627.789 802.945C622.89 810.257 617.716 817.239 612.66 824.514C509.954 972.147 609.394 1090.43 609.394 1090.43C860.092 1322.3 1063.39 1032.22 1088.77 899.679C1106.8 805.551 1160 703.964 1189.34 652.936C1153.96 671.193 1114.28 686.184 1071.41 696.56Z" fill="#E8AB71"/>
<path d="M1071.41 696.56C1019.59 709.11 965.725 714.468 912.495 710.413C888.881 708.615 865.367 704.936 842.449 698.936C831.798 696.147 821.275 692.862 810.954 689C806.193 687.22 801.477 685.312 796.816 683.284C794.56 682.303 792.339 681.064 789.972 680.349C786.945 679.44 783.532 679.339 780.422 678.661C776.349 677.78 771.844 677.624 768.257 680.073C764.972 682.312 763.284 686.174 761.523 689.734C748.073 716.917 722.67 736.055 697.018 752.248C679.789 763.128 661.991 773.202 645.697 785.505C642.046 788.266 638.468 791.128 635.018 794.138C631.835 796.908 627.963 799.807 625.596 803.339C623.872 805.917 623.266 809.037 621.514 811.661C618.624 815.982 615.624 820.239 612.66 824.505C509.954 972.138 609.394 1090.42 609.394 1090.42C656.716 1134.19 702.349 1159.34 745.422 1170.49C724.532 1157.8 703.211 1141.73 681.156 1121.23C680.587 1120.52 680.037 1119.81 679.486 1119.08C678.532 1117.82 677.596 1116.53 676.688 1115.23C675.422 1113.42 674.193 1111.6 673 1109.74C671.505 1107.42 670.055 1105.07 668.651 1102.7C667 1099.89 665.404 1097.04 663.881 1094.16C662.147 1090.88 660.486 1087.55 658.917 1084.19C657.174 1080.47 655.541 1076.69 654 1072.87C652.33 1068.72 650.789 1064.51 649.367 1060.27C647.844 1055.71 646.468 1051.09 645.248 1046.45C643.954 1041.5 642.826 1036.5 641.881 1031.49C640.881 1026.17 640.092 1020.82 639.505 1015.44C638.89 1009.77 638.505 1004.08 638.349 998.385C638.193 992.385 638.294 986.385 638.651 980.394C639.027 974.083 639.697 967.789 640.642 961.532C641.642 954.917 642.954 948.358 644.56 941.872C646.266 934.982 648.303 928.174 650.642 921.477C653.138 914.33 655.972 907.303 659.119 900.422C662.486 893.037 666.211 885.816 670.229 878.771C671.211 877.055 672.128 875.266 673.303 873.67C673.991 872.734 674.844 871.945 675.505 870.991C676.404 869.697 676.734 868.174 677.165 866.688C677.734 864.706 678.413 862.771 679.138 860.835C685.248 844.532 698.33 829.963 710.303 817.642C723.037 804.55 737.321 793.734 752.642 783.89C768.339 773.807 784.367 763.899 798.587 751.752C803.376 747.66 808.073 743.229 813.908 740.881C823.78 736.908 834.642 739.523 844.871 740.037C847.183 740.156 849.752 739.761 852 740.339C853.835 740.807 855.495 741.569 857.394 741.927C862.138 742.835 866.899 743.651 871.67 744.376C891.642 747.431 911.844 748.991 932.046 749.266C953.587 749.56 975.138 748.394 996.541 745.927C1018.79 743.358 1040.88 739.385 1062.65 734.11C1099.13 725.275 1133.3 713.092 1164.49 698.413C1173.61 680.816 1182.19 665.339 1189.34 652.908C1153.96 671.165 1114.28 686.156 1071.41 696.532V696.56Z" fill="#D6813A"/>
<path d="M1111.44 886.762C1120.14 841.358 1133.82 787.927 1132.81 764.789C1022.03 727.23 964.229 795.844 840.523 981.138C771.881 1083.95 709.569 1133.31 659.009 1130.07C886.477 1284.12 1087.74 1010.44 1111.44 886.762Z" fill="#FFE4BF"/>
<path d="M798.615 1187.29C789.339 1187.29 780.101 1186.72 770.991 1185.53C738.128 1181.28 704.917 1169.4 672.33 1150.27C660.67 1143.41 648.945 1135.54 637.495 1126.92C631.514 1122.39 625.624 1117.7 619.881 1112.85L615.67 1109.43C611.119 1105.8 605.991 1101.67 601.853 1096.85C600.771 1095.55 498.725 970.936 604.532 818.862C630.404 781.67 660.862 760.101 687.743 741.055C725.11 714.578 757.376 691.706 772.743 634.33C773.679 630.844 776.44 628.156 779.936 627.284C783.404 626.413 787.128 627.541 789.56 630.174C856.45 702.385 937.422 718.826 1069.08 686.954H1069.06C1110.09 677 1149.02 662.615 1184.79 644.156V644.138C1189.66 641.605 1195.62 643.569 1198.13 648.413C1200.29 652.605 1199.16 657.633 1195.68 660.541C1195.05 661.624 1194.06 663.798 1193.57 664.927C1192.89 666.459 1192.28 667.78 1191.81 668.605C1189.11 673.431 1186.44 678.248 1183.83 683.092C1161.99 723.312 1146.22 766.954 1135.62 816.523C1133.92 824.541 1132.41 832.541 1130.92 840.523C1126.26 865.294 1121.43 890.899 1110.58 915.367C1100.77 937.459 1087.21 956.908 1076.49 971.376L1074.12 974.541C1069.99 980.027 1066.72 984.367 1065.04 989.954C1063.12 996.385 1059.61 1002.17 1056.5 1007.24L1054.39 1010.73C1039.88 1035.54 1023.19 1058.83 1004.82 1079.92C984.541 1103.2 962.725 1123.17 939.991 1139.29C914.651 1157.23 888.211 1170.36 861.376 1178.28C841.028 1184.28 819.725 1187.3 798.615 1187.3V1187.29ZM786.844 655.66C768.138 708.349 734.56 732.138 699.193 757.193C672.376 776.193 644.651 795.835 620.789 830.147C523.532 969.945 616.018 1082.92 616.963 1084.05C620.046 1087.66 624.138 1090.85 628.046 1094L632.605 1097.71C638.101 1102.33 643.697 1106.8 649.422 1111.11C660.257 1119.3 671.339 1126.72 682.349 1133.2C712.615 1150.99 743.312 1161.99 773.532 1165.89C800.642 1169.4 829.092 1167.13 855.762 1159.27C880.514 1151.97 905 1139.82 928.541 1123.13C950.018 1107.92 970.651 1089 989.89 1066.91C1007.45 1046.73 1023.41 1024.46 1037.32 1000.72L1039.61 996.917C1042.21 992.66 1044.89 988.257 1046.08 984.275C1048.78 975.248 1053.63 968.826 1058.34 962.605L1060.58 959.587C1070.71 945.926 1083.48 927.642 1092.5 907.321C1102.41 884.972 1106.82 861.587 1111.48 836.844C1112.99 828.697 1114.54 820.541 1116.28 812.376C1127.14 761.56 1143.27 716.697 1165.57 675.248C1136.48 688.055 1105.72 698.422 1073.74 706.165C943.376 737.771 856.404 722.725 786.853 655.66H786.844Z" fill="#592832"/>
<path d="M1011.55 136.605C1089.59 146.165 1162.74 36.4033 1243.62 80.4125C1301.28 111.779 1267.01 201.312 1213.51 230.55L1011.56 136.605H1011.55Z" fill="#E8AB71"/>
<path d="M946.092 1362.27C959.826 1359.44 973.376 1355.41 986.982 1351.72C962.211 1388.63 907.174 1468.23 887.642 1476.65C862.165 1487.63 689.835 1515.1 689.835 1515.1L817.633 1364.08L817.651 1364C853.505 1372.16 896.606 1372.46 946.101 1362.27H946.092Z" fill="#933FDE"/>
<path d="M874.514 1449C888.688 1442.89 921.486 1399.35 947.927 1361.79C961.037 1358.99 973.991 1355.24 986.982 1351.72C962.211 1388.62 907.174 1468.22 887.642 1476.64C862.165 1487.63 689.844 1515.09 689.844 1515.09L719.156 1480.46C771.917 1471.57 857.183 1456.48 874.523 1449H874.514Z" fill="#CAA0F7"/>
<path d="M657.587 1274.57C638.569 1418.68 508.248 1391.97 413.56 1378.43C329.991 1366.49 83.1101 1444.08 26.2661 1462.48C19.6881 1464.61 12.7248 1461.01 10.5413 1454.45C8.35784 1447.89 11.7707 1440.83 18.3028 1438.6C74.8166 1419.21 318.899 1333.2 378.587 1273.51C446.229 1205.88 534.468 1106.34 636.138 1210.23L657.578 1274.56L657.587 1274.57Z" fill="#FF8028"/>
<path d="M486.477 1347.77C480.009 1346.48 473.56 1345.08 467.101 1343.73C458.56 1341.92 449.991 1340.17 441.376 1338.73C432.422 1337.25 423.413 1336.1 414.358 1335.51C404.688 1334.89 394.982 1334.9 385.312 1335.64C380.119 1336.04 374.954 1336.64 369.807 1337.45C367.248 1337.85 364.624 1338.18 362.129 1338.87C361.211 1339.12 360.615 1339.1 359.679 1338.87C359.156 1338.74 357.798 1338.74 357.496 1338.28C357.055 1337.61 358.651 1336.75 359.083 1336.5C363.092 1334.13 367.486 1332.33 371.56 1330.06C376.872 1327.1 382.046 1323.9 387.064 1320.46C396.358 1314.09 405.083 1306.92 413.275 1299.19C428.294 1285.05 441.404 1269.1 455.138 1253.75C484.073 1221.42 552.018 1166.91 625.523 1202.63C629.385 1206.04 633.22 1209.17 637.119 1213.16L658.56 1277.49C624.266 1360.29 530.853 1356.65 486.468 1347.77H486.477Z" fill="#FFBC68"/>
<path d="M592.138 1221.94C606.991 1216.98 621.404 1213.4 634.798 1211.05C635.578 1211.79 636.349 1212.36 637.129 1213.16L657.404 1273.98C644.927 1280.41 630.817 1286.47 615.367 1291.61C558.266 1310.64 506.771 1310.48 500.358 1291.23C493.945 1271.99 535.046 1240.96 592.147 1221.93L592.138 1221.94Z" fill="#FFDF57"/>
<path d="M22.5138 1472.98C13.1102 1472.98 4.29364 1467 1.14685 1457.61C-2.72471 1445.93 3.53217 1433.2 15.1102 1429.25C64.3579 1412.35 313 1325.1 371.606 1266.53L381.624 1256.45C426.312 1211.4 481.917 1155.35 545.294 1155.35H545.651C579.376 1155.48 612.202 1171.61 643.239 1203.31C644.284 1204.39 645.073 1205.68 645.56 1207.12L666.991 1271.45C667.459 1272.87 667.606 1274.39 667.413 1275.87C661.606 1319.86 645.028 1352.46 618.11 1372.79C567.395 1411.05 489.101 1399.51 426.22 1390.28L412.174 1388.24C330.477 1376.81 78.8808 1455.91 29.3303 1471.92C27.0735 1472.64 24.7799 1472.98 22.523 1472.98H22.5138ZM545.275 1175.17C490.156 1175.17 439.963 1225.75 395.688 1270.41L385.606 1280.52C325.468 1340.66 91.7432 1423.91 21.5322 1447.98C20.1652 1448.47 19.4679 1449.9 19.9542 1451.35C20.4404 1452.73 21.8257 1453.56 23.2294 1453.05C93.8624 1430.23 330.844 1356.52 414.982 1368.62L429.11 1370.67C491.459 1379.84 562.092 1390.21 606.184 1356.96C628.569 1340.05 642.101 1313.39 647.468 1275.5L627.486 1215.56C600.477 1188.49 573.651 1175.26 545.596 1175.17H545.294H545.275Z" fill="#E63626"/>
<path d="M810.752 956.147C823.44 950.165 836.697 945.266 849.789 940.055C807.826 925.386 716.046 894.716 695.367 899.697C668.395 906.193 514.046 987.596 514.046 987.596L706.89 1031.76L706.954 1031.82C730.743 1003.77 765.046 977.688 810.761 956.147H810.752Z" fill="#933FDE"/>
<path d="M1454.71 969.972C1454.71 969.972 1460.85 1033.38 1386.29 1113.16C1290.5 1215.68 1122.54 1325.94 946.082 1362.27C815.376 1389.17 728.798 1343.52 704.449 1270.47L672.486 1174.55C648.138 1101.5 690.027 1013.03 810.743 956.146C973.716 879.357 1174.24 866.816 1312.38 891.376C1419.89 910.486 1453.1 965.183 1453.1 965.183L1454.7 969.981L1454.71 969.972Z" fill="#E0E8EA"/>
<path d="M1352.61 941.238C1209.33 918.404 1000.72 933.642 830.294 1012.92C727.624 1060.68 679.725 1128.64 678.211 1191.69L672.495 1174.55C648.147 1101.5 690.037 1013.04 810.752 956.147C973.725 879.367 1174.25 866.816 1312.39 891.376C1419.9 910.486 1453.12 965.183 1453.12 965.183L1454.72 969.982C1454.72 969.982 1454.8 972.605 1454.7 976.339C1432.02 962.66 1399.5 948.725 1352.61 941.248V941.238Z" fill="#B7C3D1"/>
<path d="M698.082 1237.13C722.431 1310.18 809.009 1355.83 939.716 1328.93C1116.17 1292.6 1284.13 1182.34 1379.93 1079.83C1429.23 1027.06 1443.04 981.927 1446.87 957.092C1451.08 961.973 1453.12 965.174 1453.12 965.174L1454.72 969.973C1454.72 969.973 1460.86 1033.38 1386.3 1113.17C1290.51 1215.68 1122.55 1325.94 946.092 1362.27C815.385 1389.17 728.807 1343.52 704.459 1270.47L672.495 1174.54C669.027 1164.13 667.284 1153.38 666.541 1142.48L698.082 1237.13Z" fill="white"/>
<path d="M1337.11 1007.81C1323.83 967.981 1324.87 928.321 1336.66 897.064C1424.38 919.413 1453.11 965.174 1453.11 965.174L1454.71 969.972C1454.71 969.972 1459.12 1024.31 1401.12 1095.48C1373.8 1077.33 1350.06 1046.67 1337.11 1007.81Z" fill="#AB69F3"/>
<path d="M1454.62 976.293C1431.94 962.633 1399.46 948.706 1352.6 941.229C1344.95 940.009 1336.43 939.358 1328.43 938.358C1329.48 923.679 1331.93 909.578 1336.65 897.064C1424.37 919.413 1453.1 965.174 1453.1 965.174L1454.71 969.972C1454.71 969.972 1454.73 971.825 1454.71 974.293C1454.71 974.862 1454.65 975.614 1454.62 976.303V976.293Z" fill="#933FDE"/>
<path d="M1401.14 1095.45C1401.14 1095.45 1401.13 1095.47 1401.12 1095.48C1394.03 1090.77 1387.22 1085.14 1380.74 1078.82C1429.17 1026.6 1442.99 981.936 1446.83 957.239C1451.13 962.101 1453.11 965.175 1453.11 965.175L1454.72 969.973C1454.72 969.973 1459.12 1024.31 1401.14 1095.46V1095.45Z" fill="#CAA0F7"/>
<path d="M874.44 1379.84C784.972 1379.84 717.688 1341.51 695.064 1273.59L663.101 1177.67C634.587 1092.15 690.89 1001.68 806.514 947.184C983.734 863.679 1190.69 859.679 1314.12 881.615C1424.76 901.294 1460.13 957.651 1461.58 960.037L1464.11 966.844C1464.34 967.541 1464.5 968.275 1464.58 969.018C1464.83 971.789 1470.28 1037.82 1393.54 1119.94C1307.95 1211.52 1139.94 1332.47 948.092 1371.98C922.321 1377.28 897.633 1379.85 874.44 1379.85V1379.84ZM1174.27 890.046C1064.33 890.046 932.881 909.541 814.963 965.119C708.991 1015.05 656.78 1096.02 681.899 1171.41L713.862 1267.33C738.972 1342.71 829.349 1376.18 944.092 1352.56C1131.39 1314 1295.46 1195.85 1379.06 1106.42C1444.29 1036.6 1445.14 979.844 1444.89 971.844L1443.72 968.349C1443.37 968.367 1410.21 918.826 1310.63 901.128C1272.27 894.303 1225.61 890.046 1174.27 890.046Z" fill="#592832"/>
<path d="M689.835 1525C686.303 1525 682.982 1523.11 681.211 1519.97C679.183 1516.36 679.596 1511.86 682.275 1508.7L809.761 1358.03C810.459 1357.13 811.294 1356.33 812.257 1355.72C814.486 1354.28 817.211 1353.76 819.853 1354.34C856.266 1362.63 898.064 1362.05 944.092 1352.57C954.642 1350.39 965.073 1347.5 975.505 1344.61L984.394 1342.17C988.284 1341.08 992.615 1342.55 995.037 1345.95C997.459 1349.31 997.523 1353.83 995.211 1357.26C942.651 1435.52 907.789 1478.75 891.55 1485.75C865.697 1496.91 709.156 1522.06 691.404 1524.89C690.872 1524.97 690.358 1525 689.835 1525ZM821.413 1374.93L714.734 1501.01C772.101 1491.51 866.78 1474.87 883.706 1467.56C891.688 1464.11 917.248 1435.79 963.725 1368.31C958.532 1369.63 953.321 1370.89 948.083 1371.97C901.734 1381.5 859.156 1382.5 821.404 1374.93H821.413Z" fill="#592832"/>
<path d="M1053.63 983.734C1107.19 983.734 1150.61 961.192 1150.61 933.385C1150.61 905.578 1107.19 883.037 1053.63 883.037C1000.08 883.037 956.661 905.578 956.661 933.385C956.661 961.192 1000.08 983.734 1053.63 983.734Z" fill="#B7C3D1"/>
<path d="M728.67 1320.74H727.862C723.312 1320.7 719.642 1316.97 719.688 1312.4C719.734 1307.84 723.303 1303.83 728.027 1304.23C729.321 1304.25 867.633 1304.94 982.761 1260.64C998.807 1254.49 1016.02 1253.75 1031.22 1258.6C1090.47 1277.47 1128.32 1292.58 1128.69 1292.73C1132.93 1294.43 1134.98 1299.23 1133.28 1303.46C1131.58 1307.7 1126.72 1309.72 1122.56 1308.06C1122.19 1307.91 1084.83 1293.01 1026.22 1274.33C1014.53 1270.62 1001.21 1271.22 988.697 1276.06C875.183 1319.74 740.33 1320.74 728.67 1320.74Z" fill="#592832"/>
<path d="M706.945 1041.72C705.862 1041.72 704.798 1041.54 703.798 1041.2L511.826 997.257C507.78 996.339 504.743 992.982 504.211 988.89C503.661 984.78 505.743 980.761 509.404 978.844C525.321 970.44 665.642 896.661 693.037 890.064C710.312 885.936 764.119 899.615 853.064 930.706C856.963 932.073 859.615 935.725 859.688 939.853C859.789 943.982 857.284 947.743 853.45 949.275L844.642 952.743C834.642 956.661 824.633 960.569 814.973 965.128C772.477 985.138 738.679 1009.73 714.505 1038.23C712.716 1040.34 710.119 1041.61 707.349 1041.72H706.945V1041.72ZM542.422 983.936L703.413 1020.79C729.073 992.083 763.725 967.349 806.523 947.184C811.349 944.908 816.266 942.78 821.229 940.734C743.532 914.605 706.037 907.339 697.679 909.321C679.734 913.642 594 957.138 542.413 983.936H542.422Z" fill="#592832"/>
<path d="M666.083 1135.09C663.596 1135.09 661.147 1133.98 659.523 1131.85C656.752 1128.22 657.44 1123.05 661.073 1120.28C662.202 1119.42 774.771 1034.06 896.56 999.569C909.495 995.909 920.523 988.395 927.624 978.441C963.33 928.331 984.275 894 984.486 893.661C986.853 889.771 991.972 888.532 995.826 890.899C999.725 893.257 1000.95 898.331 998.587 902.239C998.376 902.578 977.174 937.376 941.083 988.019C931.807 1001.02 917.615 1010.76 901.092 1015.47C782.284 1049.11 672.22 1132.56 671.128 1133.4C669.633 1134.55 667.872 1135.1 666.11 1135.1L666.083 1135.09Z" fill="#592832"/>
<path d="M672.495 1174.54L704.459 1270.46C715.083 1302.33 738.193 1328.44 771 1346.14L771.358 1347.21C705.826 1374.2 668.193 1344.72 642.982 1269.05L623.202 1209.7C597.991 1134.04 610.413 1087.87 679.037 1070.16L680.339 1074.08C664.697 1107.92 661.872 1142.67 672.495 1174.55V1174.54Z" fill="#AB69F3"/>
<path d="M679.028 1070.16L679.899 1072.76C627.716 1093.76 619.376 1137.8 642.128 1206.07L661.908 1265.43C682.202 1326.31 710.817 1356.67 755.248 1352.39C699.679 1368.19 666.009 1338.17 642.982 1269.05L623.202 1209.7C597.991 1134.04 610.413 1087.87 679.028 1070.16Z" fill="#CAA0F7"/>
<path d="M728.073 1366.98C716.651 1366.98 706.092 1364.72 696.257 1360.22C669.422 1347.94 649.505 1319.96 633.587 1272.18L613.798 1212.82C597.881 1165.05 597.027 1130.73 611.138 1104.82C622.78 1083.4 644.183 1068.92 676.55 1060.57C681.66 1059.33 686.807 1062.1 688.44 1067.04L689.743 1070.95C690.532 1073.34 690.385 1075.95 689.339 1078.25C674.697 1109.89 672.128 1142.11 681.908 1171.41L713.871 1267.33C723.624 1296.63 745.009 1320.87 775.716 1337.41C777.927 1338.61 779.605 1340.61 780.413 1343.01C782.055 1347.94 779.963 1354.38 775.138 1356.36C757.963 1363.44 742.349 1366.97 728.082 1366.97L728.073 1366.98ZM665.211 1084.95C647.532 1091.87 635.477 1101.55 628.541 1114.28C617.394 1134.76 618.734 1164.94 632.605 1206.56L652.394 1265.93C666.266 1307.55 683.312 1332.5 704.495 1342.19C717.138 1347.98 731.844 1348.68 749.082 1344.29C722.991 1326.04 704.477 1301.9 695.055 1273.6L663.092 1177.68C653.266 1148.21 654.027 1116.45 665.202 1084.96L665.211 1084.95Z" fill="#592832"/>
<path d="M1401.12 1105.39C1399.22 1105.39 1397.31 1104.85 1395.63 1103.74C1364.99 1083.4 1340.86 1050.44 1327.71 1010.94C1314.22 970.477 1314.09 928.789 1327.39 893.569C1329.16 888.844 1334.09 886.183 1339.11 887.477C1429.61 910.541 1460.24 957.918 1461.5 959.918L1464.11 966.853C1464.77 971.56 1468.62 1028.35 1408.8 1101.75C1406.86 1104.14 1404.01 1105.39 1401.12 1105.39V1105.39ZM1343.08 909.055C1334.55 937.954 1335.72 972.257 1346.51 1004.67C1357.19 1036.72 1375.73 1063.81 1399.2 1081.92C1447.58 1018.82 1444.87 971.211 1444.83 970.706L1443.72 968.303L1443.73 968.367C1443.35 968.367 1416.85 930.211 1343.08 909.055Z" fill="#592832"/>
<path d="M1281.83 1120.52C1321.15 1081.19 1321.15 1017.43 1281.83 978.108C1242.5 938.783 1178.74 938.783 1139.42 978.108C1100.09 1017.43 1100.09 1081.19 1139.42 1120.52C1178.74 1159.84 1242.5 1159.84 1281.83 1120.52Z" fill="#B7C3D1"/>
<path d="M1210.72 1159.93C1164.4 1159.93 1121.12 1130.58 1105.68 1084.28C1096.34 1056.25 1098.47 1026.27 1111.7 999.835C1124.91 973.422 1147.62 953.716 1175.65 944.376C1203.66 935.074 1233.66 937.165 1260.09 950.395C1286.52 963.606 1306.21 986.321 1315.55 1014.35C1324.89 1042.38 1322.76 1072.38 1309.53 1098.79C1296.32 1125.22 1273.61 1144.91 1245.58 1154.25C1234.03 1158.1 1222.28 1159.93 1210.72 1159.93ZM1210.55 958.523C1201.06 958.523 1191.4 960.019 1181.91 963.184C1158.91 970.844 1140.26 987.019 1129.41 1008.71C1118.56 1030.39 1116.82 1055.01 1124.48 1078.02C1140.31 1125.51 1191.77 1151.27 1239.31 1135.45C1286.81 1119.63 1312.56 1068.12 1296.74 1020.61C1284.08 982.624 1248.56 958.523 1210.54 958.523H1210.55Z" fill="#592832"/>
<path d="M1210.62 1109.28C1243.74 1109.28 1270.59 1082.43 1270.59 1049.31C1270.59 1016.2 1243.74 989.349 1210.62 989.349C1177.51 989.349 1150.66 1016.2 1150.66 1049.31C1150.66 1082.43 1177.51 1109.28 1210.62 1109.28Z" fill="#50BFCE"/>
<path d="M1250.43 1070.12C1268.63 1051.92 1268.63 1022.41 1250.43 1004.21C1232.23 986.006 1202.72 986.005 1184.52 1004.21C1166.32 1022.41 1166.32 1051.92 1184.52 1070.12C1202.72 1088.32 1232.23 1088.32 1250.43 1070.12Z" fill="#99E2EF"/>
<path d="M1210.68 1119.19C1181.42 1119.19 1154.07 1100.66 1144.32 1071.41C1132.15 1034.87 1151.98 995.211 1188.54 983.018C1206.25 977.101 1225.21 978.459 1241.87 986.826C1258.58 995.165 1271.01 1009.51 1276.92 1027.22C1289.09 1063.76 1269.26 1103.42 1232.72 1115.61C1225.42 1118.05 1217.99 1119.19 1210.69 1119.19H1210.68ZM1194.8 1001.83C1168.61 1010.55 1154.4 1038.96 1163.13 1065.16C1171.85 1091.33 1200.22 1105.5 1226.46 1096.82C1252.63 1088.07 1266.84 1059.68 1258.12 1033.49C1253.89 1020.81 1244.97 1010.54 1233.03 1004.55C1221.06 998.551 1207.51 997.569 1194.81 1001.83H1194.8Z" fill="#592832"/>
<path d="M1242.31 1036.59C1246.23 1026.22 1238.85 1013.81 1225.81 1008.88C1212.77 1003.95 1199.03 1008.35 1195.1 1018.72C1191.18 1029.09 1198.56 1041.49 1211.6 1046.43C1224.64 1051.36 1238.39 1046.96 1242.31 1036.59Z" fill="white"/>
<path d="M1258.02 101.706C1187.04 63.0822 1122 142.89 1054.4 156.541L1011.55 136.605C1089.59 146.165 1162.74 36.4033 1243.62 80.4125C1256.93 87.651 1265.28 98.0088 1269.7 109.981C1266.31 106.926 1262.48 104.128 1258.03 101.706H1258.02Z" fill="#F4D6BA"/>
<path d="M1213.5 240.459C1212.08 240.459 1210.65 240.156 1209.33 239.523L1007.38 145.569C1002.95 143.523 1000.7 138.551 1002.04 133.881C1003.38 129.22 1007.72 126.303 1012.76 126.789C1043.32 130.578 1074.35 113.34 1106.99 95.1011C1151.7 70.0919 1197.93 44.257 1248.34 71.7341C1270.95 84.0185 1283.41 105.596 1283.45 132.468C1283.5 172.991 1255.47 218.908 1218.25 239.239C1216.78 240.046 1215.15 240.468 1213.5 240.468V240.459ZM1049.27 143.229L1212.98 219.395C1241.73 201.395 1263.69 164.211 1263.63 132.468C1263.63 118.826 1259.31 100.229 1238.88 89.1011C1198.05 66.8809 1158.5 88.9543 1116.62 112.376C1094.74 124.596 1072.36 137.11 1049.27 143.229Z" fill="#592832"/>
<path d="M1265.86 169.257C1255.7 194.532 1236.38 218.055 1213.51 230.551L1132.58 192.899C1190.62 59.7707 1280.31 128.716 1265.87 169.257H1265.86Z" fill="#EC837B"/>
<path d="M1234.5 163.202C1240.35 146.771 1229.09 125.688 1209.78 115.266C1246.25 111.055 1274.43 145.174 1265.85 169.266C1255.69 194.541 1236.37 218.064 1213.5 230.56L1190.04 219.642C1209.41 206.44 1225.52 185.514 1234.5 163.202Z" fill="#F8B8AF"/>
<path d="M1213.5 240.458C1212.08 240.458 1210.65 240.156 1209.33 239.523L1128.39 201.871C1123.52 199.614 1121.35 193.871 1123.5 188.954C1157.84 110.211 1205.64 96.2565 1239.01 109.412C1266.89 120.44 1283.46 149.376 1275.18 172.578C1275.14 172.706 1275.08 172.816 1275.04 172.945C1263.68 201.211 1242.44 226 1218.27 239.229C1216.78 240.036 1215.16 240.458 1213.5 240.458ZM1145.66 188.082L1212.99 219.403C1231.46 207.844 1247.55 188.146 1256.6 165.779C1261.06 152.798 1249.26 134.77 1231.72 127.816C1201.39 115.862 1169.62 138.302 1145.66 188.082Z" fill="#592832"/>
<path d="M629.532 229.11C672.046 184.229 745.147 210.257 791.587 210.422C830.349 170.339 878.248 140.431 933.514 127.046C1116.11 82.8347 1313.64 251.44 1352.68 412.651C1379.94 525.229 1254.01 652.339 1071.41 696.55C888.816 740.761 718.688 685.339 691.431 572.761C677.174 513.881 678.991 449.78 694.45 388.798C601.239 368.642 572.358 289.459 629.532 229.101V229.11Z" fill="#E8AB71"/>
<path d="M626.734 232.229C623.266 275.514 655.284 317.275 717.532 333.918C698.872 394.991 693.89 459.899 705.468 520.303C727.596 635.798 897.385 700.321 1084.71 664.431C1175.18 647.092 1253.19 609.496 1307.18 562.248C1257.33 621.523 1173.18 671.918 1071.41 696.56C888.816 740.771 718.688 685.349 691.431 572.771C677.174 513.89 678.991 449.789 694.45 388.807C602.835 369 573.431 292.174 626.734 232.239V232.229Z" fill="#D6813A"/>
<path d="M629.532 229.11C672.046 184.229 745.147 210.257 791.587 210.422C798.101 203.688 804.899 197.257 811.927 191.128L816.532 196.404C788.771 234.661 763.138 237.055 720 228.596C670.092 218.807 597.541 251.339 603.312 317.22C595.101 288.954 603.101 257.028 629.532 229.119V229.11Z" fill="#F4D6BA"/>
<path d="M1325.12 419.321C1287.06 262.128 1098.32 97.954 919.651 130.835C924.22 129.468 928.826 128.174 933.505 127.046C1116.1 82.8347 1313.63 251.44 1352.67 412.651C1379.93 525.229 1254 652.339 1071.4 696.55C1066.79 697.67 1062.18 698.706 1057.58 699.697C1232.71 652.578 1351.68 529.055 1325.11 419.321H1325.12Z" fill="#F4D6BA"/>
<path d="M1004.63 198.247C1027.89 159.211 1055.09 140.853 1079.17 132.807C1103.51 140.11 1127.28 150.303 1150.02 162.789C1144.4 203.303 1085.36 240.991 1004.63 198.247Z" fill="#D6813A"/>
<path d="M947.027 721.716C901.743 721.734 858.651 715.422 820.11 702.881C744.945 678.385 695.835 633 681.826 575.092C668.211 518.927 668.486 457.239 682.523 396.083C637.11 383.78 605.183 356.927 594.193 321.404C583.917 288.165 594.174 252.046 622.33 222.303C657.596 185.064 710.853 191.725 753.633 197.11C765.789 198.624 777.358 200.074 787.495 200.431C828.679 158.908 878.284 130.23 931.183 117.431C1114.47 73.0186 1321.37 241.395 1362.28 410.321C1390.78 528.019 1261.35 660.734 1073.72 706.165C1030.89 716.551 988.055 721.716 947.018 721.716H947.027ZM636.716 235.918C613.606 260.321 604.991 289.349 613.11 315.569C622.688 346.578 653.101 369.753 696.55 379.138C699.165 379.707 701.45 381.312 702.872 383.606C704.275 385.881 704.706 388.633 704.046 391.248C688.514 452.45 687.486 514.404 701.046 570.45C713.394 621.422 757.862 661.771 826.238 684.064C896.257 706.872 982.523 707.872 1069.09 686.954C1246.08 644.092 1368.98 522.074 1343.06 414.973C1304.25 254.725 1108.71 94.9727 935.835 136.661C884.569 149.083 838.431 176.22 798.697 217.312C796.844 219.23 794.266 220.33 791.587 220.33H791.55C779.275 220.285 765.615 218.569 751.183 216.771C710.816 211.707 665.064 205.964 636.716 235.927V235.918Z" fill="#592832"/>
<path d="M600.862 305.872C600.33 335.532 638.22 376.34 693.376 388.596C703.817 352.128 718.165 316.294 738.147 281.404C738.147 281.404 602.33 225.037 600.872 305.881L600.862 305.872Z" fill="white"/>
<path d="M600.862 305.872C600.33 335.532 638.22 376.34 693.376 388.596C703.817 352.128 718.165 316.294 738.147 281.404C738.147 281.404 602.33 225.037 600.872 305.881L600.862 305.872Z" fill="#EC837B"/>
<path d="M600.862 305.872C601.294 281.817 613.624 269.918 630.734 265.055C626.826 271.523 624.661 279.807 624.899 290.358C625.477 316.376 655.954 349.789 700.982 364.358C698.257 372.404 695.707 380.477 693.376 388.596C638.22 376.349 600.33 335.532 600.862 305.872Z" fill="#F8B8AF"/>
<path d="M693.367 398.505C692.661 398.505 691.945 398.422 691.22 398.266C630.505 384.771 590.367 339.514 590.963 305.697C591.321 286.119 598.541 271.569 612.431 262.495C652.422 236.367 732.899 268.523 741.927 272.248C744.56 273.349 746.587 275.505 747.505 278.202C748.422 280.899 748.138 283.844 746.734 286.312C728.202 318.661 713.853 353.028 702.89 391.33C701.651 395.651 697.716 398.505 693.376 398.505H693.367ZM610.761 306.046C610.376 327.239 638.826 362.761 686.569 376.651C696.422 344.349 708.706 314.706 723.917 286.569C696.789 276.954 646.303 263.972 623.257 279.055C615.083 284.413 610.982 293.248 610.761 306.055V306.046Z" fill="#592832"/>
<path d="M1063.78 522.229C1075.27 577.055 1115.7 608.734 1148.61 602.018C1187.68 594.055 1202.31 540.229 1197.13 497.945C1191.95 455.661 1167.73 481.917 1134.39 486C1101.05 490.083 1055.04 480.532 1063.77 522.229H1063.78Z" fill="#592832"/>
<path d="M828.404 177.753C838.138 170.505 850.56 162.083 865.615 153.431C997.89 85.7158 1025.74 -27.1833 1066.24 21.9085C1106.73 71.0002 1041.6 123.982 1041.6 123.982C1041.6 123.982 1105.48 114.211 1112.88 151.964C1120.3 189.817 1038.6 220.431 985.862 190.294C926.477 200.312 872.156 199.918 828.413 177.743L828.404 177.753Z" fill="#E8AB71"/>
<path d="M867.119 176.294C820.514 193.807 810.771 200.551 804.037 205.055C794.046 202.211 837.532 182.395 828.395 177.752C838.138 170.486 850.541 162.083 865.597 153.431C997.881 85.7065 1025.74 -27.1742 1066.22 21.9083C1070.87 27.5047 1074.08 33.1836 1076.22 38.7983C1037.82 1.97257 1008.72 113.982 867.119 176.284V176.294Z" fill="#F4D6BA"/>
<path d="M1044.86 123.587C1052.84 122.743 1073.94 121.376 1090.68 127.789C1068.93 144.037 1027.9 158.752 1000.58 143.404C1018.79 138.211 1033.56 131.615 1044.87 123.587H1044.86Z" fill="#D6813A"/>
<path d="M1034.94 212.385C1016.4 212.385 997.431 208.321 980.917 198.89C976.174 196.165 974.532 190.138 977.238 185.376C979.963 180.633 985.991 178.973 990.752 181.697C1022.55 199.908 1067.03 193.321 1089.94 176.844C1095.75 172.679 1105.17 164.165 1103.16 153.881C1097.73 126.339 1043.6 133.688 1043.06 133.789C1038.57 134.339 1034.33 132.083 1032.54 128.018C1030.73 123.936 1031.86 119.147 1035.31 116.33C1035.61 116.092 1066.5 90.5138 1069.39 61.0459C1070.55 49.156 1067.02 38.4404 1058.6 28.211C1051.29 19.3762 1047.21 19.789 1046.1 19.8074C1036.27 19.8074 1020.73 36.4863 1002.79 55.7707C973.844 86.8624 934.183 129.45 870.11 162.257C830.404 185.064 809.44 206.642 809.229 206.862C805.44 210.798 799.183 210.945 795.229 207.156C791.294 203.367 791.165 197.11 794.936 193.174C795.835 192.211 817.853 169.431 860.651 144.872C922.064 113.422 960.33 72.3028 988.294 42.2753C1012.32 16.4771 1029.26 -0.522897 1046.94 0.0092134C1056.63 0.302791 1065.44 5.41288 1073.86 15.6239C1085.67 29.9083 1090.78 45.8808 1089.07 63.0643C1087.09 83 1076.09 100.706 1065.94 113.119C1087.99 114.248 1116.94 121.358 1122.58 150.064C1125.61 165.514 1117.92 181.128 1101.5 192.917C1084.99 204.771 1060.37 212.385 1034.95 212.385H1034.94Z" fill="#592832"/>
<path d="M995.523 149.89C990.633 149.89 986.376 146.257 985.734 141.275C985.027 135.853 988.835 130.89 994.248 130.184C994.697 130.119 1039.61 123.881 1052.85 98.0276C1055.32 93.1744 1061.32 91.257 1066.16 93.7248C1071.03 96.2111 1072.96 102.174 1070.46 107.028C1052.48 142.202 999.064 149.505 996.807 149.807C996.376 149.853 995.954 149.89 995.514 149.89H995.523Z" fill="#592832"/>
<path d="M1258.85 433.383C1281.41 427.922 1294.39 401.593 1287.85 374.577C1281.31 347.561 1257.72 330.088 1235.16 335.549C1212.6 341.011 1199.62 367.34 1206.16 394.356C1212.7 421.372 1236.29 438.845 1258.85 433.383Z" fill="#592832"/>
<path d="M1234.32 389.641C1240.25 388.207 1243.78 381.806 1242.22 375.345C1240.65 368.884 1234.58 364.809 1228.66 366.244C1222.73 367.678 1219.2 374.079 1220.76 380.54C1222.33 387.001 1228.4 391.075 1234.32 389.641Z" fill="white"/>
<path d="M993.223 488.657C998.992 456.139 977.307 425.101 944.79 419.332C912.272 413.564 881.234 435.248 875.465 467.766C869.696 500.284 891.381 531.321 923.899 537.09C956.416 542.859 987.454 521.175 993.223 488.657Z" fill="#592832"/>
<path d="M968.601 462.801C970.022 454.794 964.682 447.151 956.675 445.731C948.668 444.31 941.025 449.65 939.605 457.657C938.184 465.664 943.524 473.307 951.531 474.727C959.538 476.148 967.181 470.808 968.601 462.801Z" fill="white"/>
<path d="M1105.67 528.868C1130.97 522.742 1147.06 499.512 1141.6 476.982C1136.15 454.453 1111.22 441.155 1085.91 447.281C1060.61 453.406 1044.52 476.637 1049.98 499.166C1055.43 521.696 1080.37 534.994 1105.67 528.868Z" fill="#FFE4BF"/>
<path d="M1175.73 504.952C1194.7 500.358 1206.16 480.442 1201.33 460.468C1196.49 440.494 1177.19 428.026 1158.21 432.62C1139.24 437.214 1127.78 457.13 1132.61 477.104C1137.45 497.078 1156.75 509.546 1175.73 504.952Z" fill="#FFE4BF"/>
<path d="M1142.76 493.321C1170.82 487.661 1176.52 435.358 1158.92 432.863C1141.31 430.367 1099.58 442.643 1100.85 457.23C1102.13 471.817 1119.51 498.01 1142.76 493.312V493.321Z" fill="#DAAA7A"/>
<path d="M1139.94 479.404C1168 473.744 1176.1 433.312 1158.78 432.221C1141.46 431.129 1099.54 442.514 1100.12 453.652C1100.7 464.799 1116.69 484.092 1139.94 479.395L1139.94 479.404Z" fill="#592832"/>
<path d="M1095.12 539.789C1072.58 539.789 1051.66 525.89 1043.48 503.954C1041.58 498.844 1044.17 493.138 1049.3 491.229C1054.39 489.33 1060.12 491.936 1062.03 497.055C1068.27 513.762 1086.07 523.147 1103.44 519C1112.61 516.789 1120.38 511.129 1125.29 503.064C1130.21 495 1131.7 485.523 1129.47 476.358C1128.17 471.037 1131.43 465.679 1136.74 464.404C1142.17 463.046 1147.4 466.385 1148.7 471.679C1152.18 486 1149.86 500.807 1142.18 513.367C1134.52 525.945 1122.41 534.771 1108.11 538.239C1103.77 539.285 1099.42 539.789 1095.13 539.789H1095.12Z" fill="#592832"/>
<path d="M1165.92 515.422C1153.5 515.422 1141.49 510.055 1133.06 500.184C1129.5 496.037 1130.01 489.78 1134.17 486.23C1138.29 482.698 1144.53 483.166 1148.12 487.34C1154.44 494.725 1164.47 497.496 1173.72 494.321C1185.99 490.092 1192.53 476.661 1188.33 464.377C1186.56 459.221 1189.29 453.588 1194.48 451.817C1199.65 450.028 1205.28 452.78 1207.04 457.964C1214.81 480.56 1202.74 505.266 1180.16 513.037C1175.48 514.652 1170.67 515.422 1165.94 515.422H1165.92Z" fill="#592832"/>
<path d="M1176.91 503.679C1176.91 503.679 1176.79 505.275 1176.57 507.936C1175.53 520.413 1172.19 556.211 1167.75 559.367C1162.37 563.193 1126.19 573.633 1121.26 570.624C1116.32 567.615 1101.12 529.496 1101.12 529.496C1101.12 529.496 1128.74 528.211 1140.33 495.881C1140.33 495.881 1163.02 512.817 1176.9 503.679H1176.91Z" fill="white"/>
<path d="M1101.13 529.486C1101.13 529.486 1128.75 528.202 1140.34 495.872C1140.34 495.872 1163.03 512.798 1176.91 503.67C1176.91 503.67 1176.79 505.266 1176.57 507.927C1176.2 512.303 1175.56 519.55 1174.68 527.248C1165.9 528.413 1154.27 528.266 1144.86 522.165C1139.75 536.872 1122.3 545.11 1109.13 548.422C1104.81 538.697 1101.13 529.486 1101.13 529.486Z" fill="#C5ADA7"/>
<path d="M1124.79 580.835C1121.17 580.835 1118.17 580.321 1116.13 579.092C1113.58 577.523 1108.36 574.33 1091.94 533.147C1090.74 530.183 1091.08 526.807 1092.81 524.128C1094.55 521.431 1097.47 519.743 1100.66 519.596C1101.43 519.55 1121.95 517.853 1131.01 492.532C1132.07 489.578 1134.46 487.321 1137.46 486.404C1140.41 485.55 1143.72 486.064 1146.23 487.917C1152.23 492.367 1165.83 499.138 1171.47 495.404C1174.6 493.339 1178.62 493.211 1181.9 495.147C1185.16 497.037 1187.05 500.615 1186.77 504.367L1186.41 508.771C1182.07 561.33 1177.3 564.716 1173.46 567.422C1169.5 570.248 1141.09 580.826 1124.77 580.826L1124.79 580.835ZM1114.68 536.376C1119.06 546.716 1123.68 556.679 1126.36 561.193C1134.29 560.431 1153.71 555.064 1160.6 552C1162.03 547.468 1164.06 535.358 1165.9 516.266C1158.13 515.963 1150.55 513.073 1144.74 510.119C1136.1 525.67 1123.91 532.954 1114.68 536.376Z" fill="#592832"/>
<path d="M1147.66 566.266C1145.55 566.266 1143.81 564.587 1143.74 562.459C1143.73 562.037 1142.31 520.816 1136.51 496.789C1136.02 494.679 1137.3 492.56 1139.41 492.046C1141.56 491.642 1143.64 492.835 1144.16 494.945C1150.12 519.752 1151.52 560.468 1151.58 562.193C1151.66 564.404 1150.11 566.238 1147.66 566.257V566.266Z" fill="#592832"/>
<path d="M967.065 761.184C1045.43 843.368 1140.85 877.56 1132.42 925.524C1121.51 987.579 956.899 971.597 886.312 850.606C889.78 808.79 914.606 771.358 967.074 761.184H967.065Z" fill="#E8AB71"/>
<path d="M967.065 761.184C1045.43 843.368 1140.85 877.56 1132.42 925.524C1121.51 987.579 956.899 971.597 886.312 850.606C889.78 808.79 914.606 771.358 967.074 761.184H967.065Z" fill="#E8AB71"/>
<path d="M1123.7 942.689C1128.17 937.854 1131.26 932.147 1132.42 925.524C1140.85 877.56 1045.43 843.368 967.064 761.184C966.982 761.202 966.899 761.212 966.826 761.23C956.504 763.257 954.119 777.634 962.339 785.835C981.982 805.459 1015.28 836.615 1047.53 856.826C1084.55 880.037 1123.53 913.927 1123.71 942.689H1123.7Z" fill="#F4D6BA"/>
<path d="M1125.79 898.248C1102.76 944.789 977.798 934.459 909.11 846.697C901.211 836.597 887.303 838.881 886.33 850.312L886.303 850.606C956.89 971.597 1121.5 987.578 1132.41 925.523C1134.05 916.211 1131.5 907.248 1125.79 898.248Z" fill="#D6813A"/>
<path d="M1070.29 847.45C1033.54 857.055 1010 886.073 1012.78 920.064C1013.84 933.101 1018.66 945.468 1026.15 956.422C1078.52 968.853 1126.77 957.651 1132.41 925.523C1137.03 899.248 1109.15 876.413 1070.28 847.44L1070.29 847.45Z" fill="#AD6746"/>
<path d="M1132.83 919.459C1132.82 918.431 1132.8 917.413 1132.68 916.395C1132.61 915.808 1132.5 915.23 1132.4 914.643C1132.25 913.716 1132.09 912.78 1131.85 911.853C1131.7 911.239 1131.51 910.633 1131.33 910.028C1131.06 909.12 1130.76 908.22 1130.41 907.321C1130.17 906.707 1129.93 906.092 1129.65 905.487C1129.26 904.578 1128.83 903.679 1128.37 902.78C1128.06 902.184 1127.74 901.578 1127.41 900.982C1126.89 900.055 1126.32 899.12 1125.73 898.193C1125.37 897.624 1125.02 897.046 1124.63 896.477C1123.95 895.486 1123.22 894.486 1122.48 893.496C1122.09 892.991 1121.73 892.487 1121.34 891.973C1120.42 890.808 1119.43 889.642 1118.42 888.477C1118.13 888.138 1117.85 887.798 1117.55 887.45C1114.83 884.386 1111.78 881.312 1108.46 878.202C1108.02 877.789 1107.55 877.376 1107.11 876.973C1105.87 875.826 1104.61 874.688 1103.3 873.532C1102.72 873.019 1102.11 872.496 1101.5 871.982C1100.27 870.909 1099.01 869.835 1097.72 868.762C1097.06 868.22 1096.4 867.679 1095.74 867.129C1094.43 866.055 1093.11 864.982 1091.75 863.89C1091.07 863.349 1090.39 862.798 1089.7 862.257C1088.26 861.12 1086.8 859.982 1085.31 858.826C1084.69 858.34 1084.06 857.863 1083.43 857.376C1081.77 856.101 1080.08 854.817 1078.37 853.514C1077.87 853.138 1077.39 852.771 1076.89 852.395C1074.73 850.762 1072.54 849.129 1070.3 847.459C1061.99 849.633 1054.39 852.863 1047.56 856.863C1084.57 880.074 1123.52 913.954 1123.7 942.698C1124.62 941.698 1125.45 940.642 1126.26 939.56C1126.54 939.175 1126.83 938.789 1127.1 938.386C1127.74 937.45 1128.32 936.487 1128.86 935.496C1129.28 934.734 1129.63 933.954 1129.98 933.165C1130.33 932.395 1130.69 931.633 1130.98 930.826C1131.58 929.12 1132.09 927.367 1132.42 925.523C1132.69 923.991 1132.83 922.459 1132.88 920.945C1132.9 920.45 1132.85 919.954 1132.84 919.459H1132.83Z" fill="#C08A71"/>
<path d="M1132.76 917.844C1132.63 915.909 1132.38 913.973 1131.91 912.055C1131.88 911.954 1131.87 911.844 1131.84 911.734C1131.28 909.551 1130.5 907.376 1129.54 905.202C1129.47 905.037 1129.38 904.863 1129.3 904.698C1128.32 902.56 1127.17 900.432 1125.83 898.303C1125.82 898.285 1125.81 898.266 1125.79 898.248C1112.29 925.514 1063.12 933.22 1012.71 918.092C1012.74 918.753 1012.73 919.395 1012.78 920.055C1013.84 933.092 1018.66 945.459 1026.15 956.413C1048.71 961.771 1070.36 962.753 1088.23 959.587C1088.28 959.587 1088.33 959.578 1088.38 959.569C1090.82 959.138 1093.17 958.606 1095.46 958.019C1095.62 957.982 1095.79 957.945 1095.95 957.909C1098.1 957.34 1100.16 956.688 1102.16 955.982C1102.43 955.89 1102.73 955.817 1102.99 955.716C1104.86 955.037 1106.62 954.266 1108.35 953.468C1108.71 953.303 1109.11 953.165 1109.46 952.991C1111.06 952.221 1112.52 951.349 1113.97 950.477C1114.39 950.221 1114.87 950 1115.28 949.734C1116.62 948.872 1117.83 947.918 1119.03 946.964C1119.47 946.615 1119.97 946.303 1120.39 945.945C1121.5 945.009 1122.44 943.973 1123.41 942.954C1123.84 942.505 1124.33 942.092 1124.73 941.633C1125.62 940.597 1126.34 939.477 1127.09 938.367C1127.45 937.835 1127.9 937.34 1128.22 936.789C1128.93 935.606 1129.45 934.34 1130.01 933.083C1130.26 932.523 1130.59 932 1130.8 931.422C1131.5 929.542 1132.04 927.578 1132.39 925.532C1132.76 923.441 1132.85 921.376 1132.81 919.321C1132.8 918.826 1132.77 918.34 1132.73 917.854L1132.76 917.844Z" fill="#924921"/>
<path d="M1068.62 970.918C1005.4 970.918 921.679 930.872 877.762 855.597C875 850.89 876.597 844.826 881.321 842.065C886.028 839.294 892.092 840.899 894.853 845.624C944.752 931.129 1039.59 958.11 1088.04 949.496C1099.65 947.413 1119.6 941.303 1122.68 923.808C1126.66 901.12 1095.44 878.055 1055.9 848.854C1025.92 826.716 991.927 801.606 959.899 768.028C956.129 764.065 956.266 757.808 960.22 754.028C964.184 750.266 970.441 750.413 974.22 754.349C1005.06 786.698 1038.32 811.257 1067.66 832.936C1112.71 866.202 1148.28 892.477 1142.17 927.23C1138.4 948.679 1119.95 963.89 1091.52 968.982C1084.31 970.276 1076.64 970.918 1068.62 970.918Z" fill="#592832"/>
<path d="M1107.38 963.909C1106.99 963.909 1106.61 963.872 1106.2 963.826C1100.78 963.193 1096.9 958.276 1097.54 952.845C1096.78 951.184 1088.12 942.441 1068.54 939.358C1063.14 938.523 1059.45 933.459 1060.3 928.056C1061.14 922.634 1066.27 919.01 1071.61 919.817C1102.17 924.624 1118.79 941.56 1117.18 955.166C1116.61 960.193 1112.33 963.909 1107.38 963.909Z" fill="#592832"/>
<path d="M1129.55 941.248C1128.39 941.248 1127.23 941.037 1126.08 940.615C1120.97 938.698 1118.38 933.001 1120.28 927.872C1119.83 926.147 1112.76 915.982 1093.25 909.469C1088.06 907.744 1085.27 902.129 1086.99 896.955C1088.72 891.78 1094.31 888.927 1099.5 890.698C1117.72 896.78 1131.89 907.34 1137.43 918.982C1140.82 926.065 1140.06 931.496 1138.82 934.799C1137.33 938.78 1133.56 941.23 1129.54 941.23L1129.55 941.248Z" fill="#592832"/>
<path d="M670.486 1027.77C526.486 1003.29 521.495 868.614 594.514 716.624C667.532 564.633 636.128 443.146 516.413 417.183C396.697 391.229 268.037 525.559 290.376 716.064C312.725 906.568 470.826 1096.18 705.339 1128.5L670.477 1027.77H670.486Z" fill="#E8AB71"/>
<path d="M670.486 1027.77C526.486 1003.29 521.495 868.614 594.514 716.624C667.532 564.633 636.128 443.146 516.413 417.183C396.697 391.229 268.037 525.559 290.376 716.064C312.725 906.568 470.826 1096.18 705.339 1128.5L670.477 1027.77H670.486Z" fill="#AD6746"/>
<path d="M634.871 1024.08C490.871 999.605 492.147 854.908 565.165 702.917C637.743 551.844 600.853 440.972 482.927 414.027C494.082 413.752 505.284 414.78 516.413 417.193C636.128 443.147 667.532 564.633 594.514 716.633C521.495 868.624 526.477 1003.3 670.486 1027.78L705.349 1128.5C692.936 1126.8 680.752 1124.61 668.771 1122.05L634.871 1024.08Z" fill="#C08A71"/>
<path d="M375.303 698.844C383.495 708.559 391.872 718.981 400.367 729.881C395.982 736.44 391.835 742.917 387.963 749.33C386.046 752.504 387.073 756.642 390.248 758.559C391.156 759.082 392.073 759.413 393.055 759.514C395.541 759.77 398.11 758.578 399.505 756.275C402.505 751.293 405.706 746.238 409.009 741.156C421.44 757.458 433.899 774.559 445.982 791.624C435.395 806.303 425.431 821.147 416.56 835.844C414.615 839.018 415.633 843.156 418.844 845.11C419.716 845.633 420.679 845.926 421.596 846.027C424.147 846.293 426.679 845.128 428.083 842.798C436.028 829.66 444.835 816.422 454.202 803.266C466.826 821.275 478.908 839 490.028 855.624C475.128 876.504 461.064 897.67 449.211 917.284C447.294 920.459 448.321 924.596 451.495 926.55C452.404 927.073 453.33 927.367 454.312 927.468C456.798 927.725 459.367 926.569 460.761 924.229C471.661 906.211 484.44 886.862 498.009 867.624C509.789 885.413 520.202 901.477 528.541 914.514C517.954 926.715 503.303 945.835 499.101 962.468C498.202 966.082 500.367 969.743 503.973 970.642C504.294 970.743 504.615 970.807 504.945 970.844C508.22 971.183 511.312 969.092 512.147 965.798C515.395 952.972 526.752 937.514 536.11 926.376C544.55 939.688 549.541 947.743 549.734 948.092C550.899 949.963 552.798 951.092 554.789 951.293C556.193 951.44 557.679 951.128 559.028 950.312C562.174 948.358 563.165 944.22 561.211 941.046C560.991 940.66 555.184 931.257 545.422 915.926C547.917 913.238 549.532 911.66 549.606 911.596C552.257 908.963 552.266 904.725 549.67 902.073C547.101 899.422 542.807 899.376 540.156 901.981C539.973 902.165 539.165 902.972 537.945 904.202C529.266 890.633 518.505 874.073 506.404 855.89C522.11 834.165 538.587 813.055 554.119 794.651C555.028 796.137 555.532 797.009 555.587 797.119C556.716 799.018 558.642 800.211 560.734 800.431C562.11 800.578 563.532 800.257 564.798 799.532C568.037 797.651 569.092 793.495 567.211 790.321C567.128 790.147 565.807 787.89 563.413 783.908C567.835 778.871 572.165 774.101 576.33 769.697C578.89 766.981 578.771 762.706 576.064 760.147C573.349 757.587 569.073 757.734 566.541 760.422C563.128 764.036 559.651 767.844 556.101 771.844C548.202 759.018 536.477 740.312 522.101 718.541C543.505 694.229 563.587 673.092 578.826 657.504C581.275 661.66 582.615 664.046 582.697 664.192C583.817 666.165 585.78 667.358 587.872 667.569C589.248 667.715 590.624 667.458 591.89 666.725C595.119 664.908 596.275 660.798 594.422 657.559C594.339 657.385 592.294 653.798 588.606 647.596C599.67 636.541 606.495 630.036 606.789 629.77C609.495 627.238 609.606 622.981 607.073 620.275C604.514 617.559 600.257 617.449 597.541 620.018C597.284 620.257 591.275 625.917 581.422 635.743C572.624 621.403 559.743 601.119 543.872 578.046C574.22 546.192 596.468 524.981 597.018 524.449C599.697 521.881 599.807 517.66 597.239 514.945C594.706 512.238 590.422 512.119 587.743 514.688C587.193 515.229 565.688 535.752 536.009 566.78C522.862 548.119 508 528.128 491.954 508.376C504.165 494.853 515.945 482.413 526.569 471.477C529.165 468.798 529.101 464.559 526.459 461.972C523.752 459.348 519.514 459.431 516.927 462.073C506.569 472.706 495.156 484.789 483.321 497.853C478.431 492.018 473.45 486.211 468.385 480.495C465.927 477.725 461.688 477.422 458.853 479.908C456.083 482.403 455.835 486.67 458.294 489.44C463.716 495.559 469.028 501.734 474.202 507.991C455.211 529.44 435.486 553.165 417.431 577.752C412.734 572.339 408.018 567.055 403.321 561.936C400.826 559.192 396.541 559.018 393.807 561.541C391.064 564.037 390.89 568.321 393.413 571.055C398.734 576.835 404.037 582.807 409.321 588.945C401.138 600.569 393.339 612.293 386.275 624C384.358 627.174 385.385 631.312 388.56 633.266C389.468 633.789 390.395 634.082 391.339 634.183C393.862 634.44 396.422 633.284 397.826 630.954C404.138 620.495 411.046 610 418.339 599.605C432.431 616.514 446.257 634.348 459.376 652.073C441.33 673.688 423.716 696.174 408.312 718.192C400.661 708.367 393.037 698.981 385.615 690.147C383.193 687.312 378.972 686.908 376.101 689.358C373.275 691.715 372.899 695.972 375.284 698.835L375.303 698.844ZM526.56 576.752C508.578 595.789 488.358 617.972 468.321 641.504C454.908 623.477 440.807 605.385 426.44 588.284C444.294 563.77 463.881 540.036 482.881 518.55C498.826 538.293 513.569 558.211 526.56 576.752ZM514.395 706.963C502.963 689.908 490.165 671.413 476.495 652.669C496.312 629.284 516.431 607.165 534.385 588.055C550.413 611.477 563.257 631.826 571.651 645.596C556.532 660.963 536.202 682.275 514.395 706.972V706.963ZM462.587 791.761C478.706 769.945 496.055 748.688 512.899 729.101C527.642 751.495 539.385 770.339 546.798 782.486C531.138 800.807 514.459 822.036 498.431 843.954C487.284 827.321 475.165 809.624 462.596 791.752L462.587 791.761ZM416.954 729.358C432.055 707.44 449.532 684.972 467.55 663.293C481.184 682.073 493.89 700.55 505.202 717.468C488.266 736.981 470.78 758.284 454.422 780.211C442.119 762.963 429.514 745.752 416.954 729.367V729.358Z" fill="#924921"/>
<path d="M538.101 768.394C539.945 763.064 541.853 757.706 543.899 752.293C548.587 759.725 552.697 766.367 556.092 771.844C559.651 767.844 563.119 764.037 566.532 760.422C568.945 757.862 572.973 757.651 575.688 759.853C573.385 765.771 571.229 771.596 569.211 777.376C567.303 779.523 565.358 781.67 563.404 783.917C564.367 785.504 565.128 786.771 565.716 787.798C564.349 792.055 563.055 796.257 561.853 800.459C561.45 800.486 561.092 800.477 560.734 800.44C558.642 800.22 556.716 799.027 555.587 797.128C555.532 797.027 555.028 796.147 554.119 794.66C543.147 807.651 531.743 822.009 520.44 836.945C522.018 827.156 524.073 817.183 526.615 806.991C533.422 798.431 540.193 790.174 546.78 782.486C544.349 778.495 541.404 773.761 538.083 768.385L538.101 768.394Z" fill="#A56A49"/>
<path d="M598.266 522.789C597.615 519.779 596.862 516.825 596.037 513.963C596.468 514.238 596.899 514.55 597.257 514.954C599.312 517.146 599.615 520.293 598.266 522.798V522.789Z" fill="#A56A49"/>
<path d="M516.798 871.596C524.716 883.623 531.872 894.687 537.963 904.22C539.183 902.99 539.991 902.183 540.174 901.999C542.532 899.66 546.193 899.476 548.78 901.339C549.055 904.743 549.367 908.082 549.789 911.403C549.752 911.467 549.706 911.559 549.633 911.614C549.56 911.669 547.945 913.256 545.449 915.944C548.147 920.229 550.569 924.018 552.642 927.275C554.44 935.137 556.807 942.651 559.771 949.779C559.55 949.954 559.33 950.165 559.055 950.33C557.716 951.146 556.229 951.458 554.816 951.311C552.816 951.1 550.917 949.981 549.761 948.109C549.569 947.761 544.578 939.697 536.138 926.394C532.706 930.467 529.018 935.119 525.569 939.981C523.761 934.77 522.202 929.348 520.963 923.724C523.587 920.394 526.165 917.284 528.56 914.522C525.083 909.1 521.239 903.119 517.11 896.733C516.532 888.605 516.44 880.229 516.798 871.596Z" fill="#A56A49"/>
<path d="M588.615 647.606C592.303 653.807 594.349 657.395 594.431 657.569C596.275 660.807 595.128 664.917 591.899 666.734C590.633 667.459 589.248 667.716 587.881 667.578C585.789 667.358 583.826 666.165 582.706 664.202C582.679 664.128 582.486 663.78 582.119 663.147C587.22 649.321 591.358 635.89 594.523 622.927C596.395 621.138 597.459 620.119 597.569 620.037C600.284 617.477 604.541 617.587 607.101 620.294C609.633 623 609.523 627.257 606.816 629.789C606.523 630.055 599.697 636.56 588.633 647.615L588.615 647.606Z" fill="#A56A49"/>
<path d="M516.413 417.174C524.046 418.825 530.239 421.945 537.138 424.348C426.239 413.853 313.963 538.559 334.587 714.339C354.908 887.605 492.211 1058.43 697 1104.44L705.358 1128.5C470.835 1096.17 312.725 906.587 290.385 716.082C268.046 525.578 396.688 391.22 516.413 417.183V417.174Z" fill="#924921"/>
<path d="M705.367 1139.2C704.881 1139.2 704.404 1139.16 703.899 1139.1C453.872 1104.64 301.266 900.826 279.752 717.303C267.413 612.137 299.624 513.431 365.899 453.275C410.945 412.376 466.624 395.431 518.67 406.697C526.229 408.312 532.073 410.339 538.734 412.66C543.963 414.495 547.688 420.275 546.349 425.66C544.982 431.027 540.514 434.77 535.046 433.881C494.954 427.559 453.495 442.752 418.321 476.532C361.587 531.092 334.266 619.514 345.248 713.082C366.615 895.303 512.22 1051.92 699.358 1093.96C702.972 1094.77 705.908 1097.39 707.119 1100.9L715.486 1124.96C716.716 1128.48 716.018 1132.39 713.661 1135.27C711.615 1137.76 708.569 1139.18 705.367 1139.18V1139.2ZM440.917 432.559C419.615 439.862 398.972 452.183 380.294 469.147C319.128 524.651 289.505 616.495 301.027 714.826C321.073 885.853 460.468 1075.36 689.376 1115.16L688.807 1113.54C495.771 1067.61 346.128 904.78 323.936 715.578C312.183 615.413 341.899 520.284 403.44 461.11C415.33 449.679 427.89 440.128 440.899 432.55L440.917 432.559Z" fill="#592832"/>
<path d="M705.349 1139.2C704.862 1139.2 704.385 1139.17 703.881 1139.1C453.871 1104.65 301.257 900.844 279.734 717.303C267.413 612.138 299.615 513.441 365.881 453.294C410.936 412.395 466.605 395.45 518.679 406.707C569.303 417.688 606.798 445.432 627.082 486.954C656.238 546.587 648.092 629.808 604.165 721.257C557.284 818.844 546.413 901.487 573.569 954C591.037 987.771 624.238 1009.04 672.266 1017.2C676.119 1017.86 679.312 1020.57 680.605 1024.27L715.468 1124.99C716.679 1128.5 715.982 1132.41 713.633 1135.28C711.569 1137.77 708.523 1139.19 705.339 1139.19L705.349 1139.2ZM486.734 424.725C449.816 424.725 412.193 440.211 380.284 469.156C319.128 524.679 289.495 616.523 301.018 714.835C321.082 885.872 460.495 1075.39 689.394 1115.18L662.394 1037.19C610.725 1027.04 574.459 1002.38 554.541 963.863C524.22 905.23 534.982 815.771 584.844 711.982C625.89 626.578 634.046 550.009 607.844 496.386C590.523 460.954 558.128 437.202 514.128 427.652C505.11 425.698 495.936 424.734 486.725 424.734L486.734 424.725Z" fill="#592832"/>
<path d="M680.936 872.477C680.936 872.477 676.128 873.12 668.606 874.276C651.752 868.771 624.725 862.459 590.523 863.22C582.615 878.707 578.468 898.762 576.771 908.725C539.009 1079.48 677.147 1190.97 774.706 1154.39L893.78 1020.16C902.706 948.441 801.495 835.854 680.936 872.487V872.477Z" fill="#E8AB71"/>
<path d="M677.661 880.128C678.303 880.954 679.046 881.605 680.321 881.422C681.027 881.11 681.413 880.899 682.257 880.798C684.486 880.541 686.743 880.413 688.991 880.275C693.394 880.009 697.807 879.89 702.22 879.927C718.982 880.064 735.716 882.477 751.835 887.11C788.376 897.615 821.523 919.468 845.679 948.816C856.394 961.835 865.394 976.376 871.642 992.055C874.505 999.229 876.771 1006.65 878.275 1014.23C878.991 1017.83 879.532 1021.48 879.872 1025.14C880.046 1026.99 880.165 1028.85 880.229 1030.72C880.257 1031.57 880.275 1032.41 880.284 1033.27C880.284 1033.63 880.505 1035.12 880.275 1035.38C880.394 1035.25 893.816 1020.17 893.816 1020.17C894.018 1018.55 894.165 1016.93 894.248 1015.3C894.541 1009.93 894.248 1004.52 893.505 999.193C892.706 993.495 891.404 987.872 889.697 982.385C887.881 976.532 885.624 970.826 883.018 965.284C880.266 959.431 877.119 953.761 873.661 948.294C870.037 942.578 866.073 937.083 861.816 931.826C857.404 926.385 852.679 921.193 847.679 916.284C842.541 911.248 837.119 906.505 831.44 902.083C825.651 897.578 819.587 893.413 813.303 889.624C806.908 885.78 800.284 882.321 793.459 879.312C786.523 876.257 779.385 873.651 772.101 871.56C764.817 869.468 757.083 867.817 749.422 866.771C741.541 865.697 733.578 865.22 725.624 865.349C717.33 865.486 709.055 866.284 700.89 867.706C696.642 868.449 692.413 869.358 688.239 870.431C684.119 871.486 679.459 872.156 676 877.312C676.294 877.954 676.917 879.165 677.679 880.128H677.661Z" fill="#F5D7BB"/>
<path d="M864.303 935.073C809.679 909.193 730.945 946.936 698.046 1012.25C676.514 1055.01 632.129 1035.28 640.697 962.183C644.762 934.78 654.606 904.945 673.376 873.56C671.945 873.771 671.312 870.266 669.56 870.541C652.707 865.037 624.725 862.468 590.523 863.229C582.615 878.716 578.468 898.771 576.771 908.734C566.716 954.211 569.184 995.45 579.991 1030.83C580 1030.86 580.009 1030.9 580.028 1030.94C581.009 1034.15 582.064 1037.28 583.184 1040.39C583.303 1040.73 583.422 1041.08 583.541 1041.42C584.587 1044.28 585.707 1047.09 586.862 1049.87C587.092 1050.42 587.312 1050.99 587.541 1051.54C588.642 1054.13 589.807 1056.65 591 1059.17C591.34 1059.87 591.661 1060.6 592.009 1061.3C593.156 1063.64 594.358 1065.94 595.578 1068.2C596.028 1069.03 596.459 1069.86 596.918 1070.68C598.101 1072.8 599.321 1074.88 600.569 1076.94C601.119 1077.85 601.67 1078.76 602.239 1079.67C603.45 1081.6 604.697 1083.49 605.963 1085.35C606.624 1086.32 607.275 1087.29 607.954 1088.25C608.486 1089 608.982 1089.79 609.523 1090.53C609.624 1090.62 609.725 1090.71 609.817 1090.8C651.798 1148.48 719.688 1175.03 774.725 1154.39L893.798 1020.16C897.037 994.147 885.734 962.771 864.321 935.073H864.303Z" fill="#D6813A"/>
<path d="M735.624 1171.2C695.294 1171.2 652.945 1152.46 619.688 1118.17C556.083 1052.57 542.734 953.404 583.963 852.936C586.064 847.872 591.881 845.487 596.881 847.532C601.945 849.615 604.349 855.404 602.284 860.45C564.11 953.422 575.936 1044.6 633.89 1104.39C673.028 1144.75 725.734 1160.91 768.982 1145.93L884.239 1015.96C886.688 984 865.495 943.523 830.67 914.202C788.046 878.285 734.55 866.578 683.807 881.945C678.615 883.56 673.037 880.578 671.468 875.349C669.872 870.12 672.826 864.597 678.064 863.009C735.248 845.624 795.55 858.734 843.431 899.055C884.248 933.441 908.44 982.578 903.596 1021.36C903.358 1023.34 902.495 1025.19 901.174 1026.7L782.11 1160.94C781.046 1162.15 779.688 1163.06 778.174 1163.64C764.615 1168.73 750.239 1171.19 735.615 1171.19L735.624 1171.2Z" fill="#592832"/>
<path d="M745.441 1192.38C712.597 1166.2 685.083 1075.54 746.083 1013.19C807.092 950.853 904.019 950.697 944.963 992.707C965.523 1010.48 937.532 1069.59 882.431 1124.72C827.33 1179.86 766 1210.15 745.441 1192.38Z" fill="#AD6746"/>
<path d="M745.441 1192.38C712.597 1166.2 685.083 1075.54 746.083 1013.19C807.092 950.853 904.019 950.697 944.963 992.707C965.523 1010.48 937.532 1069.59 882.431 1124.72C827.33 1179.86 766 1210.15 745.441 1192.38Z" fill="#AD6746"/>
<path d="M745.44 1192.38C716.606 1169.4 691.899 1096.72 727.569 1037.13C713.569 1100.44 750.294 1091.07 771.083 1066.36C781.248 1054.27 838.422 989.881 916.44 983.917L933.505 983.22C937.633 986.119 941.56 989.211 944.963 992.707C965.523 1010.48 937.532 1069.59 882.431 1124.72C827.33 1179.86 766 1210.15 745.44 1192.38Z" fill="#924921"/>
<path d="M940.688 1017.72C899.743 975.707 802.817 975.863 741.808 1038.2C725.441 1054.93 715.496 1073.7 710.257 1092.71C712.211 1065.54 722.532 1037.27 746.083 1013.2C807.092 950.853 904.019 950.707 944.964 992.716C953.331 999.945 953.542 1014.09 947.275 1031.95C946.716 1025.94 944.578 1021.08 940.688 1017.72Z" fill="#C18B71"/>
<path d="M761.716 1208.9C752.459 1208.9 744.44 1206.48 738.174 1201.14C716.853 1184.03 701.018 1148.16 698.78 1111.78C696.284 1071.43 710.202 1033.58 737.954 1005.23C771.046 971.413 816.991 952.027 864.064 952.027H864.239C900.505 952.073 932.927 963.991 953.128 984.752C957.018 988.055 962.615 995.504 963.092 1008.42C964.202 1038.71 935.706 1087.52 890.505 1132.76C848.495 1174.81 796.44 1208.9 761.716 1208.9ZM864.055 974.835C823.073 974.835 783.055 991.715 754.229 1021.16C724.505 1051.53 720.037 1086.43 721.505 1110.36C723.679 1145.32 739.119 1172.75 752.532 1183.44C752.661 1183.54 752.771 1183.63 752.89 1183.73C764.762 1194.01 818.028 1173.05 874.376 1116.65C920.679 1070.32 941.009 1028.5 940.303 1009.27C940.174 1005.48 939.22 1002.82 937.514 1001.33C920.835 984.266 894.395 974.862 864.22 974.835H864.055Z" fill="#592832"/>
<path d="M879.561 1127.57C935.223 1072.97 964.963 1013.02 945.987 993.676C927.011 974.332 866.505 1002.92 810.843 1057.52C755.181 1112.12 725.44 1172.07 744.416 1191.41C763.392 1210.76 823.899 1182.17 879.561 1127.57Z" fill="#924921"/>
<path d="M761.716 1208.9C752.358 1208.9 744.285 1206.43 737.991 1201C733.376 1197.02 727.798 1189.57 727.33 1176.65C726.22 1146.35 754.716 1097.53 799.918 1052.3V1052.32C853.202 998.973 922.688 958.395 952.413 984.092C957.009 988.074 962.606 995.523 963.092 1008.44C964.202 1038.72 935.707 1087.54 890.505 1132.78C848.496 1174.83 796.441 1208.92 761.716 1208.92V1208.9ZM928.578 998.798C908.193 998.798 863.202 1021.21 816.046 1068.4V1068.42C769.743 1114.75 749.413 1156.57 750.101 1175.81C750.248 1179.6 751.184 1182.28 752.89 1183.74C764.762 1194.02 818.028 1173.06 874.376 1116.66C920.679 1070.33 941.009 1028.51 940.303 1009.28C940.174 1005.49 939.22 1002.83 937.514 1001.34C935.578 999.661 932.551 998.808 928.578 998.808V998.798Z" fill="#592832"/>
<path d="M782.037 1038.93C779.376 1038.93 776.716 1037.84 774.762 1035.73C771.055 1031.72 771.312 1025.46 775.33 1021.75C796.743 1002 837.294 995.284 860.349 1007.66C865.174 1010.24 866.973 1016.24 864.395 1021.06C861.817 1025.83 855.835 1027.66 850.991 1025.11C835.303 1016.68 803.853 1022.35 788.743 1036.3C786.844 1038.06 784.44 1038.94 782.037 1038.94V1038.93Z" fill="#592832"/>
</g>
<defs>
<clipPath id="clip0_971_2329">
<rect width="1464.75" height="1525" fill="white"/>
</clipPath>
</defs>
</svg>
