<svg width="1078" height="1281" viewBox="0 0 1078 1281" fill="none" xmlns="http://www.w3.org/2000/svg">
<path d="M672.703 1121.01C808.625 1112.15 826.184 987.726 773.028 839.752C719.913 691.779 760.697 582.116 874.231 569.545C987.766 556.975 1094.2 693.934 1055.17 868.445C1016.14 1043 851.285 1203.66 630.722 1211.08L672.743 1121.01H672.703Z" fill="#EAAC71"/>
<path d="M672.703 1121.01C808.625 1112.15 826.184 987.726 773.028 839.752C719.913 691.779 760.697 582.116 874.231 569.545C987.766 556.975 1094.2 693.934 1055.17 868.445C1016.14 1043 851.285 1203.66 630.722 1211.08L672.743 1121.01H672.703Z" fill="#AE6745"/>
<path d="M706.106 1121.01C842.028 1112.16 854.718 977.83 801.602 829.857C748.806 682.761 793.661 583.513 905.599 569.825C895.263 568.509 884.807 568.389 874.232 569.546C760.698 582.117 719.914 691.78 773.029 839.753C826.145 987.727 808.586 1112.16 672.704 1121.01L630.683 1211.08C642.375 1210.68 653.868 1209.85 665.242 1208.61L706.106 1121.01Z" fill="#C18B71"/>
<path d="M978.23 835.443C975.796 832.889 971.845 832.849 969.331 835.243C961.589 842.745 953.608 850.687 945.587 859.067C933.415 837.159 919.248 814.611 904.563 792.822C918.41 777.658 932.976 762.414 947.662 748.087C953.448 758.423 958.835 768.839 963.664 779.134C964.742 781.449 967.016 782.766 969.371 782.766C970.249 782.766 971.167 782.566 972.045 782.167C975.157 780.651 976.514 776.94 975.038 773.787C969.61 762.254 963.505 750.641 957.04 739.068C962.547 733.88 968.014 728.852 973.521 724.023C976.115 721.709 976.355 717.718 974.08 715.164C971.765 712.57 967.775 712.331 965.221 714.606C960.392 718.915 955.483 723.345 950.615 727.934C936.209 703.392 920.206 679.488 904.682 657.779C910.07 652.471 915.617 647.243 921.204 642.095C923.758 639.781 923.917 635.79 921.603 633.196C919.208 630.602 915.258 630.483 912.704 632.837C907.476 637.666 902.288 642.574 897.18 647.483C887.443 634.234 878.025 621.943 869.445 611.088C867.29 608.374 863.379 607.895 860.625 610.09C857.912 612.245 857.473 616.156 859.628 618.91C868.447 630.083 878.144 642.734 888.201 656.462C871.44 673.222 855.717 690.342 841.71 706.385C817.167 674.779 799.209 653.668 798.73 653.11C796.496 650.476 792.505 650.157 789.911 652.431C787.277 654.706 786.958 658.617 789.193 661.25C789.672 661.809 808.228 683.598 833.329 716.082C816.409 735.956 802.482 753.554 792.944 766.005C784.763 755.949 779.735 750.122 779.495 749.883C777.221 747.249 773.27 746.93 770.636 749.205C768.042 751.479 767.723 755.43 769.998 758.024C770.237 758.303 775.944 764.968 785.162 776.301C781.132 781.688 778.897 784.841 778.817 785.001C776.782 787.834 777.46 791.745 780.294 793.74C781.411 794.538 782.648 794.898 783.925 794.898C785.881 794.898 787.836 793.98 789.033 792.264C789.113 792.144 790.589 790.069 793.263 786.437C805.914 802.36 822.515 823.91 839.994 848.492C824.55 867.288 811.9 883.53 803.32 894.664C800.406 890.633 797.533 886.762 794.74 883.051C792.665 880.337 788.714 879.779 785.92 881.894C783.167 884.009 782.648 887.96 784.763 890.713C788.195 895.183 791.747 900.051 795.378 905.119C792.784 908.591 791.348 910.547 791.228 910.706C789.153 913.46 789.751 917.411 792.585 919.486C793.702 920.284 794.979 920.723 796.256 920.723C798.212 920.723 800.127 919.805 801.364 918.129C801.444 918.049 801.963 917.251 802.96 915.974C815.611 934.531 828.86 955.681 841.351 977.35C828.381 993.073 816.808 1007.4 807.47 1019.13C806.472 1017.86 805.794 1017.06 805.634 1016.86C803.439 1014.18 799.449 1013.82 796.815 1016.02C794.141 1018.21 793.742 1022.17 795.937 1024.84C796.017 1024.92 797.334 1026.52 799.409 1029.27C788.874 1042.56 782.608 1050.7 782.369 1051.06C780.254 1053.81 780.772 1057.76 783.486 1059.88C784.643 1060.75 786 1061.19 787.317 1061.19C789.193 1061.19 791.068 1060.32 792.306 1058.72C792.505 1058.4 797.932 1051.42 807.031 1039.88C814.653 1051.1 823.672 1066.54 825.468 1078.75C825.947 1081.87 828.581 1084.14 831.653 1084.14C831.973 1084.14 832.252 1084.14 832.571 1084.06C836.003 1083.58 838.358 1080.39 837.879 1076.96C835.564 1061.11 823.832 1042 815.172 1029.67C824.151 1018.37 835.365 1004.49 847.975 989.123C858.71 1008.28 868.727 1027.43 877.067 1045.19C878.145 1047.51 880.419 1048.82 882.734 1048.82C883.652 1048.82 884.53 1048.62 885.447 1048.22C888.56 1046.71 889.917 1043 888.44 1039.84C879.342 1020.53 868.327 999.538 856.515 978.747C868.407 964.381 881.337 949.096 894.785 933.613C902.208 946.702 909.112 959.831 915.218 972.801C916.295 975.115 918.53 976.432 920.924 976.432C921.802 976.432 922.72 976.233 923.558 975.834C926.711 974.317 928.068 970.606 926.551 967.453C919.727 952.967 911.905 938.242 903.525 923.636C916.375 908.99 929.584 894.305 942.673 880.377C945.267 885.406 947.741 890.394 950.016 895.302C951.094 897.577 953.368 898.934 955.683 898.934C956.601 898.934 957.479 898.734 958.396 898.335C961.509 896.859 962.866 893.108 961.389 889.995C958.396 883.69 955.204 877.265 951.772 870.76C960.711 861.462 969.491 852.602 977.991 844.382C980.465 841.947 980.545 837.957 978.15 835.522L978.23 835.443ZM895.623 666.758C911.187 688.507 927.07 712.411 941.277 736.833C926.312 751.32 911.506 766.723 897.339 782.167C881.018 758.423 864.377 735.916 849.531 716.521C863.379 700.558 878.943 683.518 895.623 666.718V666.758ZM801.085 776.062C810.184 764.09 824.071 746.451 841.191 726.258C855.996 745.693 872.558 768.16 888.68 791.745C874.194 807.827 860.546 823.75 848.294 838.475C830.456 813.494 813.616 791.745 801.085 776.062ZM849.93 967.054C837.16 945.186 823.752 923.875 810.982 905.399C819.003 894.863 831.733 878.502 847.536 859.147C861.264 878.941 875.311 900.331 888.161 922.08C874.792 937.444 861.823 952.688 849.891 967.054H849.93ZM896.861 912.143C883.811 890.234 869.604 868.804 855.797 849.091C867.928 834.485 881.457 818.562 895.903 802.48C910.549 824.309 924.596 846.816 936.488 868.605C923.279 882.612 909.91 897.338 896.861 912.143Z" fill="#924921"/>
<path d="M820.398 893.185C819.201 888.077 817.963 882.89 816.567 877.702C811.499 884.127 807.069 889.913 803.358 894.662C800.444 890.631 797.571 886.76 794.778 883.049C792.782 880.455 789.071 879.857 786.357 881.652C787.914 887.359 789.35 892.986 790.667 898.533C792.224 900.728 793.82 902.883 795.416 905.157C794.379 906.554 793.541 907.632 792.902 908.549C793.78 912.62 794.578 916.65 795.257 920.681C795.616 920.761 795.975 920.761 796.294 920.761C798.25 920.761 800.165 919.843 801.402 918.167C801.482 918.087 802.001 917.289 802.999 916.012C811.938 929.101 821.116 943.508 830.175 958.472C829.656 949.254 828.698 939.796 827.342 930.099C821.834 921.519 816.367 913.179 810.98 905.437C813.614 901.965 816.806 897.854 820.398 893.185Z" fill="#A66A49"/>
<path d="M788.196 659.613C789.074 656.899 790.071 654.226 791.109 651.632C790.67 651.831 790.231 652.111 789.872 652.43C787.757 654.266 787.158 657.139 788.196 659.613Z" fill="#A66A49"/>
<path d="M830.257 990.917C821.757 1001.33 814.055 1010.87 807.51 1019.13C806.513 1017.85 805.834 1017.06 805.675 1016.86C803.719 1014.46 800.327 1013.94 797.773 1015.42C797.174 1018.53 796.576 1021.61 795.857 1024.64C795.857 1024.72 795.937 1024.8 795.977 1024.84C796.017 1024.88 797.374 1026.51 799.449 1029.27C796.536 1032.98 793.942 1036.25 791.707 1039.08C789.273 1046.19 786.36 1052.93 782.928 1059.28C783.127 1059.48 783.287 1059.68 783.526 1059.88C784.684 1060.75 786.04 1061.19 787.357 1061.19C789.233 1061.19 791.109 1060.31 792.346 1058.72C792.545 1058.4 797.972 1051.42 807.071 1039.88C809.865 1043.99 812.858 1048.66 815.571 1053.49C817.766 1048.82 819.722 1043.95 821.398 1038.84C819.283 1035.49 817.207 1032.38 815.212 1029.59C818.963 1024.88 823.114 1019.69 827.543 1014.18C828.86 1006.68 829.738 998.938 830.257 990.917Z" fill="#A66A49"/>
<path d="M785.162 776.3C781.132 781.687 778.897 784.84 778.817 785C776.782 787.833 777.46 791.744 780.294 793.739C781.411 794.537 782.648 794.896 783.925 794.896C785.881 794.896 787.836 793.979 789.033 792.263C789.033 792.183 789.273 791.903 789.672 791.345C786.28 778.016 783.726 765.166 782.05 752.835C780.493 750.999 779.615 749.962 779.495 749.842C777.221 747.208 773.27 746.889 770.636 749.164C768.042 751.438 767.723 755.389 769.998 757.983C770.237 758.262 775.944 764.927 785.162 776.26V776.3Z" fill="#A66A49"/>
<path d="M874.271 569.545C867.048 570.343 860.983 572.658 854.358 574.214C958.235 575.132 1050.38 701.556 1014.34 862.619C978.866 1021.37 835.123 1166.59 640.778 1189.61L630.722 1211.12C851.325 1203.66 1016.18 1043.04 1055.21 868.485C1094.24 693.934 987.806 556.975 874.271 569.545Z" fill="#924921"/>
<path d="M874.271 569.545C867.047 570.343 861.5 571.74 854.876 573.296C958.513 567.829 1050.38 701.556 1014.38 862.619C978.905 1021.37 835.162 1166.59 640.817 1189.61L630.761 1211.12C851.364 1203.66 1016.22 1043.04 1055.25 868.485C1094.28 693.934 987.845 556.975 874.31 569.545H874.271Z" stroke="#592832" stroke-width="21.5495" stroke-linecap="round" stroke-linejoin="round"/>
<path d="M672.703 1121.01C808.625 1112.15 826.184 987.726 773.028 839.752C719.913 691.779 760.697 582.116 874.231 569.545C987.766 556.975 1094.2 693.934 1055.17 868.445C1016.14 1043 851.285 1203.66 630.722 1211.08L672.743 1121.01H672.703Z" stroke="#592832" stroke-width="21.5495" stroke-linecap="round" stroke-linejoin="round"/>
<path d="M609.173 686.872C545.882 720.473 463.555 740.745 373.485 740.745C315.501 740.745 260.71 732.325 212.143 717.36C220.843 756.469 227.827 821.197 201.448 883.85C159.746 982.898 91.9449 1199.27 396.951 1199.27C588.981 1199.27 735.797 1012.47 688.468 868.207C665.841 810.342 610.171 759.821 609.173 686.872Z" fill="#EAAC71"/>
<path d="M225.312 883.851C250.174 824.829 245.386 763.972 237.484 724.424C228.864 722.269 220.404 719.915 212.143 717.361C220.843 756.469 227.827 821.198 201.448 883.851C159.746 982.899 91.9449 1199.27 396.951 1199.27C400.183 1199.27 403.376 1199.19 406.568 1199.11C117.964 1192.41 184.249 981.343 225.312 883.851Z" fill="#F5D7BB"/>
<path d="M569.746 1144.56C514.795 1099.31 473.531 1026 465.031 936.448C450.944 787.996 256.719 767.364 211.545 854.241C208.911 864.098 205.599 873.994 201.448 883.851C159.746 982.899 91.9449 1199.27 396.951 1199.27C461.559 1199.27 521.02 1178.12 569.706 1144.56H569.746Z" fill="#FFE5C0"/>
<path d="M467.025 1190.85C471.375 1189.81 475.645 1188.62 479.915 1187.38C481.112 1187.02 482.309 1186.66 483.506 1186.3C486.579 1185.38 489.612 1184.39 492.605 1183.39C493.962 1182.91 495.359 1182.43 496.715 1181.95C499.668 1180.91 502.582 1179.8 505.495 1178.68C506.692 1178.2 507.889 1177.76 509.086 1177.28C517.148 1174.01 525.009 1170.42 532.711 1166.55C533.868 1165.95 535.026 1165.35 536.143 1164.75C538.857 1163.35 541.53 1161.92 544.164 1160.44C545.441 1159.72 546.718 1159.01 547.995 1158.25C550.589 1156.73 553.183 1155.21 555.697 1153.66C556.815 1152.98 557.972 1152.3 559.049 1151.58C562.641 1149.31 566.193 1146.99 569.665 1144.6C566.512 1142.01 563.399 1139.29 560.366 1136.5C559.488 1135.7 558.61 1134.82 557.733 1133.98C555.578 1131.95 553.383 1129.91 551.268 1127.8C550.31 1126.84 549.352 1125.84 548.394 1124.85C546.399 1122.77 544.404 1120.66 542.448 1118.5C541.491 1117.46 540.573 1116.38 539.655 1115.35C537.739 1113.15 535.824 1110.96 533.948 1108.68C504.377 1072.85 481.79 1027.27 470.776 974.717C453.936 999.419 426.52 1053.21 442.323 1125.72C444.597 1136.14 437.813 1146.43 427.398 1148.79C335.453 1169.7 239.997 1152.9 173.752 1091.72L172.794 1091.56C193.186 1152.02 254.323 1199.31 396.869 1199.31C421.053 1199.31 444.478 1196.36 466.905 1190.89L467.025 1190.85Z" fill="#DBAB7A"/>
<path d="M225.312 883.851C234.052 863.099 239.08 842.148 241.634 821.956C228.904 830.136 218.449 840.911 211.545 854.24C210.946 856.555 210.268 858.829 209.589 861.144C209.43 861.702 209.23 862.301 209.071 862.86C208.552 864.536 207.993 866.252 207.434 867.928C207.195 868.646 206.956 869.404 206.676 870.123C206.118 871.759 205.519 873.355 204.92 874.991C204.681 875.67 204.402 876.348 204.162 877.027C203.284 879.301 202.406 881.536 201.448 883.811C159.746 982.859 91.9449 1199.23 396.951 1199.23C399.983 1199.23 402.976 1199.15 406.009 1199.03C118.084 1192.09 184.289 981.223 225.312 883.811V883.851Z" fill="#FFF7EC"/>
<path d="M688.466 868.206C669.989 820.957 629.524 778.656 614.719 725.021C613.961 722.268 613.282 719.474 612.684 716.641C612.564 716.162 612.484 715.723 612.364 715.244C611.766 712.371 611.207 709.458 610.768 706.505C610.768 706.465 610.768 706.385 610.768 706.345C610.369 703.592 610.05 700.798 609.81 697.965C609.731 697.246 609.691 696.528 609.651 695.81C609.411 692.897 609.252 689.944 609.212 686.911C545.92 720.512 463.593 740.784 373.524 740.784C315.54 740.784 260.748 732.364 212.182 717.399C212.581 719.235 212.98 721.15 213.379 723.066C213.499 723.625 213.618 724.183 213.738 724.782C214.057 726.338 214.337 727.895 214.656 729.491C214.736 730.01 214.855 730.528 214.935 731.087C215.294 733.122 215.653 735.237 216.013 737.353C216.092 737.871 216.172 738.43 216.252 738.949C216.492 740.385 216.691 741.862 216.891 743.378C275.553 772.59 369.174 784.761 473.25 772.71C484.943 770.674 496.396 768.32 507.57 765.606C534.706 759.022 562.681 772.63 573.934 798.25C592.291 840.112 622.9 876.028 638.264 915.336C662.168 988.165 636.548 1071.81 580.639 1136.82C669.87 1069.69 718.755 960.31 688.546 868.246L688.466 868.206Z" fill="#D6823C"/>
<path d="M609.173 686.872C545.882 720.473 463.555 740.745 373.485 740.745C315.501 740.745 260.71 732.325 212.143 717.36C220.843 756.469 227.827 821.197 201.448 883.85C159.746 982.898 91.9449 1199.27 396.951 1199.27C588.981 1199.27 735.797 1012.47 688.468 868.207C665.841 810.342 610.171 759.821 609.173 686.872Z" stroke="#592832" stroke-width="21.5495" stroke-linecap="round" stroke-linejoin="round"/>
<path d="M665.918 823.551C675.615 836.001 716.878 888.279 732.641 914.538C774.344 984.055 782.445 1083.7 726.855 1161.32C671.225 1238.94 558.848 1241.25 508.446 1177.52C433.821 1083.22 462.115 998.261 482.507 959.632C571.698 947.5 616.793 882.732 665.918 823.511V823.551Z" fill="#EAAC71"/>
<path d="M510.24 1141.97C469.655 1063.63 482.545 1000.74 503.057 959.394C507.367 950.734 500.503 940.837 490.846 941.316H490.606C467.022 978.07 431.704 1060.4 498.109 1160.6C531.072 1210.33 600.23 1227.33 659.212 1204.18C599.91 1217.51 536.698 1193.05 510.24 1141.97Z" fill="#F5D7BB"/>
<path d="M732.641 914.539C716.878 888.28 675.615 836.003 665.917 823.552C650.673 841.909 635.828 860.824 619.945 878.503C625.612 886.564 630.68 894.067 634.312 900.132C676.014 969.65 684.115 1069.3 628.525 1146.91C605.858 1178.56 573.693 1197.72 540.172 1204.94C596.68 1238.06 681.002 1225.29 726.855 1161.32C782.485 1083.7 774.344 984.056 732.641 914.539Z" fill="#D6823C"/>
<path d="M496.314 937.724C496.314 937.724 406.684 1048.98 508.446 1177.56C558.888 1241.29 671.265 1238.98 726.854 1161.36C782.484 1083.74 774.343 984.095 732.641 914.578C690.938 845.061 669.948 836.72 649.635 798.131" stroke="#592832" stroke-width="21.5495" stroke-linecap="round" stroke-linejoin="round"/>
<path d="M687.465 1267.91H411.711C411.711 1267.91 418.615 1196.08 508.404 1177.52C598.234 1158.97 692.254 1212.28 697.362 1235.47C702.47 1258.65 687.425 1267.91 687.425 1267.91H687.465Z" fill="#AE6745"/>
<path d="M687.465 1267.91H411.711C411.711 1267.91 418.615 1196.08 508.404 1177.52C598.234 1158.97 692.254 1212.28 697.362 1235.47C702.47 1258.65 687.425 1267.91 687.425 1267.91H687.465Z" fill="#AE6745"/>
<path d="M520.735 1191.65C592.407 1176.84 666.673 1207.77 696.403 1232.67C685.03 1208.33 594.841 1159.72 508.444 1177.56C418.614 1196.12 411.75 1267.95 411.75 1267.95H427.314C434.377 1246.04 456.046 1205.06 520.735 1191.69V1191.65Z" fill="#C18B71"/>
<path d="M697.403 1235.47C695.687 1227.73 684.034 1216.63 665.996 1205.98C663.003 1206.3 660.01 1206.65 657.017 1207.05C622.897 1211.8 600.789 1221.7 586.423 1232.16C573.772 1241.37 558.568 1246.32 542.924 1246.32H417.698C412.59 1258.81 411.672 1267.87 411.672 1267.87H687.426C687.426 1267.87 702.471 1258.61 697.363 1235.43L697.403 1235.47Z" fill="#924921"/>
<path d="M687.465 1267.91H411.711C411.711 1267.91 418.615 1196.08 508.404 1177.52C598.234 1158.97 692.254 1212.28 697.362 1235.47C702.47 1258.65 687.425 1267.91 687.425 1267.91H687.465Z" stroke="#592832" stroke-width="21.5495" stroke-linecap="round" stroke-linejoin="round"/>
<path d="M511.079 1267.91C511.079 1267.91 523.769 1228.08 555.096 1217.99" stroke="#592832" stroke-width="21.5495" stroke-linecap="round" stroke-linejoin="round"/>
<path d="M450.183 1267.91C450.183 1267.91 462.873 1228.08 494.2 1217.99" stroke="#592832" stroke-width="21.5495" stroke-linecap="round" stroke-linejoin="round"/>
<path d="M312.107 1192.33C310.51 1192.05 308.914 1191.73 307.358 1191.41C305.522 1191.05 303.686 1190.65 301.851 1190.25C300.334 1189.93 298.778 1189.57 297.301 1189.25C295.545 1188.86 293.79 1188.42 292.074 1187.98C290.597 1187.62 289.12 1187.26 287.684 1186.86C286.008 1186.42 284.332 1185.94 282.696 1185.46C281.299 1185.06 279.862 1184.67 278.505 1184.23C276.869 1183.75 275.313 1183.23 273.717 1182.71C272.4 1182.27 271.043 1181.83 269.726 1181.39C268.17 1180.83 266.653 1180.28 265.137 1179.72C263.9 1179.24 262.623 1178.8 261.385 1178.32C259.869 1177.72 258.392 1177.08 256.916 1176.48C255.759 1176.01 254.601 1175.53 253.484 1175.05C251.888 1174.37 250.371 1173.61 248.815 1172.89C247.857 1172.45 246.899 1172.01 245.942 1171.58C243.547 1170.42 241.233 1169.22 238.998 1167.98C237.96 1167.43 236.963 1166.83 235.925 1166.23C234.688 1165.51 233.451 1164.83 232.254 1164.11C231.176 1163.47 230.139 1162.8 229.101 1162.12C228.024 1161.44 226.946 1160.76 225.948 1160.08C224.911 1159.36 223.873 1158.65 222.876 1157.93C221.918 1157.25 220.92 1156.57 220.002 1155.89C219.005 1155.13 218.007 1154.38 217.049 1153.62C216.171 1152.94 215.253 1152.22 214.376 1151.5C213.418 1150.7 212.5 1149.91 211.542 1149.11C210.704 1148.39 209.906 1147.71 209.108 1146.95C208.19 1146.12 207.312 1145.28 206.434 1144.44C205.676 1143.72 204.918 1143 204.199 1142.28C203.321 1141.41 202.483 1140.53 201.645 1139.65C200.967 1138.93 200.288 1138.17 199.61 1137.46C198.812 1136.54 197.974 1135.66 197.216 1134.74C196.577 1134.02 195.979 1133.27 195.38 1132.55C194.622 1131.59 193.864 1130.63 193.105 1129.67C192.547 1128.96 191.988 1128.2 191.469 1127.48C190.751 1126.48 190.033 1125.48 189.314 1124.49C188.835 1123.77 188.356 1123.05 187.878 1122.29C187.199 1121.25 186.481 1120.22 185.842 1119.14C185.403 1118.46 185.004 1117.74 184.605 1117.02C183.927 1115.91 183.288 1114.83 182.65 1113.67C182.291 1113.03 181.971 1112.43 181.652 1111.8C181.014 1110.56 180.335 1109.36 179.737 1108.12C179.537 1107.73 179.377 1107.33 179.178 1106.93C176.744 1101.86 174.629 1096.71 172.833 1091.4C152.161 1030.19 173.232 955.482 193.784 902.566C108.424 951.491 72.827 1142.64 234.449 1192.17C269.367 1201.27 296.423 1200.03 317.414 1193.13C315.618 1192.85 313.823 1192.53 312.067 1192.21L312.107 1192.33Z" fill="#EAAC71"/>
<path d="M184.566 928.225C187.439 919.645 190.432 911.464 193.425 903.682C192.268 903.363 191.071 903.004 189.914 902.685C104.554 951.61 68.9569 1142.76 230.578 1192.29C253.285 1198.19 272.68 1199.75 289.241 1198.23C278.865 1197.35 267.652 1195.48 255.48 1192.29C114.77 1149.15 123.589 998.66 184.566 928.185V928.225Z" fill="#F5D7BB"/>
<path d="M312.107 1192.33C310.51 1192.05 308.914 1191.73 307.358 1191.41C305.522 1191.05 303.686 1190.65 301.851 1190.25C300.334 1189.93 298.778 1189.57 297.301 1189.25C295.545 1188.86 293.79 1188.42 292.074 1187.98C290.597 1187.62 289.12 1187.26 287.684 1186.86C286.008 1186.42 284.332 1185.94 282.696 1185.46C281.299 1185.06 279.862 1184.67 278.505 1184.23C276.869 1183.75 275.313 1183.23 273.717 1182.71C272.4 1182.27 271.043 1181.83 269.726 1181.39C268.17 1180.83 266.653 1180.28 265.137 1179.72C263.9 1179.24 262.623 1178.8 261.385 1178.32C259.869 1177.72 258.392 1177.08 256.916 1176.48C255.759 1176.01 254.601 1175.53 253.484 1175.05C251.888 1174.37 250.371 1173.61 248.815 1172.89C247.857 1172.45 246.899 1172.01 245.942 1171.58C243.547 1170.42 241.233 1169.22 238.998 1167.98C237.96 1167.43 236.963 1166.83 235.925 1166.23C234.688 1165.51 233.451 1164.83 232.254 1164.11C231.176 1163.47 230.139 1162.8 229.101 1162.12C228.024 1161.44 226.946 1160.76 225.948 1160.08C224.911 1159.36 223.873 1158.65 222.876 1157.93C221.918 1157.25 220.92 1156.57 220.002 1155.89C219.005 1155.13 218.007 1154.38 217.049 1153.62C216.171 1152.94 215.253 1152.22 214.376 1151.5C213.418 1150.7 212.5 1149.91 211.542 1149.11C210.704 1148.39 209.906 1147.71 209.108 1146.95C208.19 1146.12 207.312 1145.28 206.434 1144.44C205.676 1143.72 204.918 1143 204.199 1142.28C203.321 1141.41 202.483 1140.53 201.645 1139.65C200.967 1138.93 200.288 1138.17 199.61 1137.46C198.812 1136.54 197.974 1135.66 197.216 1134.74C196.577 1134.02 195.979 1133.27 195.38 1132.55C194.622 1131.59 193.864 1130.63 193.105 1129.67C192.547 1128.96 191.988 1128.2 191.469 1127.48C190.751 1126.48 190.033 1125.48 189.314 1124.49C188.835 1123.77 188.356 1123.05 187.878 1122.29C187.199 1121.25 186.481 1120.22 185.842 1119.14C185.403 1118.46 185.004 1117.74 184.605 1117.02C183.927 1115.91 183.288 1114.83 182.65 1113.67C182.291 1113.03 181.971 1112.43 181.652 1111.8C181.014 1110.56 180.335 1109.36 179.737 1108.12C179.537 1107.73 179.377 1107.33 179.178 1106.93C176.744 1101.86 174.629 1096.71 172.833 1091.4C152.161 1030.19 173.232 955.482 193.784 902.566C108.424 951.491 72.827 1142.64 234.449 1192.17C269.367 1201.27 296.423 1200.03 317.414 1193.13C315.618 1192.85 313.823 1192.53 312.067 1192.21L312.107 1192.33Z" stroke="#592832" stroke-width="21.5495" stroke-linecap="round" stroke-linejoin="round"/>
<path d="M362.666 1267.91H86.9121C86.9121 1267.91 93.816 1196.08 183.606 1177.52C273.435 1158.96 367.455 1212.28 372.563 1235.47C377.671 1258.65 362.626 1267.91 362.626 1267.91H362.666Z" fill="#AE6745"/>
<path d="M362.666 1267.91H86.9121C86.9121 1267.91 93.816 1196.08 183.606 1177.52C273.435 1158.96 367.455 1212.28 372.563 1235.47C377.671 1258.65 362.626 1267.91 362.626 1267.91H362.666Z" fill="#AE6745"/>
<path d="M195.897 1191.65C267.569 1176.84 341.835 1207.77 371.565 1232.67C360.192 1208.33 270.003 1159.72 183.606 1177.56C93.7761 1196.12 86.9121 1267.95 86.9121 1267.95H102.476C109.539 1246.04 131.208 1205.06 195.897 1191.69V1191.65Z" fill="#C18B71"/>
<path d="M372.604 1235.46C370.888 1227.72 359.235 1216.63 341.197 1205.97C338.204 1206.29 335.212 1206.65 332.219 1207.05C298.098 1211.8 275.99 1221.7 261.624 1232.15C248.973 1241.37 233.769 1246.32 218.126 1246.32H92.899C87.7909 1258.81 86.873 1267.87 86.873 1267.87H362.627C362.627 1267.87 377.672 1258.61 372.564 1235.43L372.604 1235.46Z" fill="#924921"/>
<path d="M186.281 1267.91C186.281 1267.91 198.972 1228.08 230.298 1217.99" stroke="#592832" stroke-width="21.5495" stroke-linecap="round" stroke-linejoin="round"/>
<path d="M125.385 1267.91C125.385 1267.91 138.075 1228.08 169.402 1217.99" stroke="#592832" stroke-width="21.5495" stroke-linecap="round" stroke-linejoin="round"/>
<path d="M314.539 1192.77C313.741 1192.61 312.903 1192.49 312.105 1192.33C310.508 1192.05 308.912 1191.73 307.356 1191.41C305.52 1191.05 303.685 1190.65 301.849 1190.25C300.332 1189.93 298.776 1189.57 297.299 1189.25C295.544 1188.85 293.788 1188.42 292.072 1187.98C290.595 1187.62 289.119 1187.26 287.682 1186.86C286.006 1186.42 284.33 1185.94 282.694 1185.46C281.297 1185.06 279.86 1184.66 278.503 1184.23C276.867 1183.75 275.311 1183.23 273.715 1182.71C272.398 1182.27 271.041 1181.83 269.724 1181.39C268.168 1180.83 266.651 1180.27 265.135 1179.72C263.898 1179.24 262.621 1178.8 261.384 1178.32C259.867 1177.72 258.391 1177.08 256.914 1176.48C256.834 1176.48 256.794 1176.44 256.714 1176.4C233.329 1172.77 208.308 1172.41 183.606 1177.48C93.7761 1196.04 86.9121 1267.87 86.9121 1267.87H362.666C362.666 1267.87 377.711 1258.61 372.603 1235.43C370.169 1224.37 347.382 1206.41 314.539 1192.73V1192.77Z" stroke="#592832" stroke-width="21.5495" stroke-linecap="round" stroke-linejoin="round"/>
<path d="M300.615 136.361C220.961 166.291 116.007 69.4377 42.1402 136.361C-10.5364 184.049 48.3257 269.529 112.056 286.649L300.615 136.361Z" fill="#EAAC71"/>
<path d="M32.4017 162.42C97.2498 103.717 186.002 171.08 260.587 168.246L300.614 136.361C220.96 166.291 116.006 69.4377 42.1389 136.361C29.9674 147.375 23.8218 160.385 22.2256 174.113C25.019 170.042 28.3312 166.091 32.4017 162.42Z" fill="#F5D7BB"/>
<path d="M300.615 136.361C220.961 166.291 116.007 69.4377 42.1402 136.361C-10.5364 184.049 48.3257 269.529 112.056 286.649L300.615 136.361Z" stroke="#592832" stroke-width="21.5495" stroke-linecap="round" stroke-linejoin="round"/>
<path d="M41.3438 235.489C58.4637 259.513 84.802 279.306 112.058 286.649L187.641 226.43C92.6637 101.163 15.8436 196.54 41.3838 235.529L41.3438 235.489Z" fill="#EE857B"/>
<path d="M72.8296 221.122C62.4938 205.319 68.9587 180.258 86.5974 164.375C47.1697 169.244 26.1788 212.303 41.3433 235.488C58.4632 259.512 84.8015 279.306 112.058 286.649L133.966 269.17C110.222 260.23 87.9542 242.312 72.8296 221.122Z" fill="#FFBAB0"/>
<path d="M41.3438 235.489C58.4637 259.513 84.802 279.306 112.058 286.649L187.641 226.43C92.6637 101.163 15.8436 196.54 41.3838 235.529L41.3438 235.489Z" stroke="#592832" stroke-width="21.5495" stroke-linecap="round" stroke-linejoin="round"/>
<path d="M726.098 136.361C669.95 99.9658 599.635 145.978 550.829 157.99C499.828 125.706 441.804 106.431 380.268 106.431C176.905 106.431 12.0107 334.137 12.0107 513.717C12.0107 639.103 176.865 740.785 380.268 740.785C583.672 740.785 748.526 639.143 748.526 513.717C748.526 448.15 730.289 381.147 698.483 320.928C791.425 275.994 801.641 185.326 726.098 136.361Z" fill="#EAAC71"/>
<path d="M729.849 138.956C744.535 183.611 721.469 235.729 660.212 269.091C695.41 328.592 717.199 395.635 720.391 462.119C726.537 589.262 564.317 700.401 358.12 710.378C258.513 715.207 166.848 695.493 98.0088 659.537C165.571 709.221 266.933 740.787 380.268 740.787C583.632 740.787 748.525 639.145 748.525 513.718C748.525 448.152 730.288 381.149 698.483 320.93C789.829 276.753 801.202 188.44 729.849 138.956Z" fill="#D6823C"/>
<path d="M726.098 136.362C669.95 99.9673 599.634 145.98 550.829 157.991C542.249 152.564 533.469 147.536 524.53 142.867L521.019 149.571C559.967 182.733 587.543 178.743 630.801 158.829C680.804 135.803 765.446 151.566 776.141 222.361C777.578 190.515 761.017 158.989 726.098 136.362Z" fill="#F5D7BB"/>
<path d="M42.6989 513.717C42.6989 338.647 199.452 117.804 395.792 106.91C390.644 106.63 385.456 106.431 380.268 106.431C176.905 106.431 12.0107 334.137 12.0107 513.717C12.0107 639.103 176.865 740.785 380.268 740.785C385.416 740.785 390.524 740.705 395.592 740.586C199.332 735.637 42.6989 635.99 42.6989 513.757V513.717Z" fill="#F5D7BB"/>
<path d="M323.603 199.453C289.203 164.295 255.881 151.924 228.505 149.57C204.761 163.457 182.333 180.218 161.582 199.174C177.824 240.357 249.536 264.98 323.563 199.453H323.603Z" fill="#D6823C"/>
<path d="M726.098 136.361C669.95 99.9658 599.634 145.978 550.829 157.99C499.828 125.706 441.804 106.431 380.268 106.431C176.905 106.431 12.0107 334.137 12.0107 513.717C12.0107 639.103 176.865 740.785 380.268 740.785C583.672 740.785 748.526 639.143 748.526 513.717C748.526 448.15 730.289 381.147 698.483 320.928C791.425 275.994 801.641 185.326 726.098 136.361V136.361Z" stroke="#592832" stroke-width="21.5495" stroke-linecap="round" stroke-linejoin="round"/>
<path d="M775.821 209.829C783.922 240.916 754.471 293.473 699.559 320.45C679.287 284.733 655.064 250.693 625.134 219.087C625.134 219.087 753.673 125.187 775.821 209.868V209.829Z" fill="white"/>
<path d="M775.821 209.829C783.922 240.916 754.471 293.473 699.559 320.45C679.287 284.733 655.064 250.693 625.134 219.087C625.134 219.087 753.673 125.187 775.821 209.868V209.829Z" fill="#EE857B"/>
<path d="M775.823 209.829C769.238 184.647 753.236 175.269 734.001 174.511C739.747 180.338 744.137 188.479 746.571 199.652C752.597 227.188 729.052 270.087 685.395 296.905C690.303 304.686 695.052 312.508 699.561 320.449C754.473 293.513 783.924 240.916 775.823 209.829Z" fill="#FFBAB0"/>
<path d="M775.821 209.829C783.922 240.916 754.471 293.473 699.559 320.45C679.287 284.733 655.064 250.693 625.134 219.087C625.134 219.087 753.673 125.187 775.821 209.868V209.829Z" stroke="#592832" stroke-width="21.5495" stroke-linecap="round" stroke-linejoin="round"/>
<path d="M503.779 133.009C491.687 127.861 476.483 122.155 458.445 116.887C302.012 79.3348 243.948 -32.3636 213.858 29.6113C183.769 91.5861 265.777 130.734 265.777 130.734C265.777 130.734 196.1 136.72 197.895 178.343C199.731 220.045 293.512 231.459 341.32 186.324C406.367 181.735 463.394 167.488 503.779 133.009Z" fill="#EAAC71"/>
<path d="M462.677 141.31C516.191 147.854 528.163 152.483 536.384 155.516C546.161 149.969 495.36 140.192 503.82 133.009C491.729 127.861 476.524 122.154 458.486 116.887C302.053 79.3348 243.989 -32.3237 213.899 29.6112C210.427 36.6747 208.512 43.4588 207.674 49.9236C238.721 1.3973 297.863 111.819 462.717 141.31H462.677Z" fill="#F5D7BB"/>
<path d="M262.223 131.174C253.604 132.331 231.056 136.242 215.094 147.257C242.11 158.79 289.041 163.858 313.862 140.712C293.39 139.874 276.151 136.721 262.223 131.134V131.174Z" fill="#D6823C"/>
<path d="M537.141 149.69C537.141 149.69 508.847 131.572 458.445 116.887C302.012 79.3348 243.948 -32.3636 213.858 29.6113C183.769 91.5861 265.777 130.734 265.777 130.734C265.777 130.734 196.1 136.72 197.895 178.343C199.731 220.045 293.512 231.459 341.32 186.324" stroke="#592832" stroke-width="21.5495" stroke-linecap="round" stroke-linejoin="round"/>
<path d="M318.335 135.843C318.335 135.843 263.743 141.79 239.24 113.256" stroke="#592832" stroke-width="21.5495" stroke-linecap="round" stroke-linejoin="round"/>
<path d="M116.008 511.563C141.133 511.563 161.502 487.174 161.502 457.09C161.502 427.006 141.133 402.618 116.008 402.618C90.8827 402.618 70.5146 427.006 70.5146 457.09C70.5146 487.174 90.8827 511.563 116.008 511.563Z" fill="#592832"/>
<path d="M130.655 459.286C137.267 459.286 142.627 453.461 142.627 446.276C142.627 439.091 137.267 433.267 130.655 433.267C124.043 433.267 118.683 439.091 118.683 446.276C118.683 453.461 124.043 459.286 130.655 459.286Z" fill="white"/>
<path d="M468.941 540.775C504.69 540.775 533.67 511.795 533.67 476.046C533.67 440.298 504.69 411.318 468.941 411.318C433.193 411.318 404.213 440.298 404.213 476.046C404.213 511.795 433.193 540.775 468.941 540.775Z" fill="#592832"/>
<path d="M443.522 478.12C452.316 478.12 459.445 470.992 459.445 462.198C459.445 453.404 452.316 446.275 443.522 446.275C434.729 446.275 427.6 453.404 427.6 462.198C427.6 470.992 434.729 478.12 443.522 478.12Z" fill="white"/>
<path d="M301.493 573.059C329.681 573.059 352.533 552.709 352.533 527.605C352.533 502.502 329.681 482.152 301.493 482.152C273.304 482.152 250.452 502.502 250.452 527.605C250.452 552.709 273.304 573.059 301.493 573.059Z" fill="#FFE5C0"/>
<path d="M221.681 565.715C242.817 565.715 259.951 547.67 259.951 525.41C259.951 503.149 242.817 485.104 221.681 485.104C200.544 485.104 183.41 503.149 183.41 525.41C183.41 547.67 200.544 565.715 221.681 565.715Z" fill="#FFE5C0"/>
<path d="M253.446 545.085C222.479 546.282 203.164 492.687 221.042 485.584C238.92 478.481 285.97 480.755 288.325 496.439C290.679 512.122 279.066 544.087 253.446 545.085Z" fill="#DBAB7A"/>
<path d="M252.849 529.76C221.881 530.957 203.045 490.492 221.003 484.905C238.961 479.358 285.971 480.635 288.166 492.527C290.361 504.42 278.469 528.763 252.849 529.76Z" fill="#592832"/>
<path d="M349.981 529.721C347.068 553.984 326.436 572.82 301.374 572.82C274.318 572.82 252.409 550.912 252.409 523.855" stroke="#592832" stroke-width="21.5495" stroke-linecap="round" stroke-linejoin="round"/>
<path d="M255.841 545.004C249.297 557.894 235.369 566.115 220.125 564.678C200.212 562.803 185.606 545.164 187.482 525.25" stroke="#592832" stroke-width="21.5495" stroke-linecap="round" stroke-linejoin="round"/>
<path d="M220.125 564.679C220.125 564.679 220.644 566.315 221.562 569.069C225.832 581.919 238.482 618.753 243.949 620.947C250.574 623.621 291.318 625.377 295.748 620.947C300.177 616.518 306.443 572.541 306.443 572.541C306.443 572.541 277.072 578.207 256.639 547.16C256.639 547.16 237.085 570.745 220.165 564.679H220.125Z" fill="white"/>
<path d="M306.442 572.541C306.442 572.541 277.071 578.207 256.639 547.16C256.639 547.16 237.084 570.745 220.164 564.679C220.164 564.679 220.683 566.315 221.601 569.069C223.117 573.578 225.631 581.041 228.505 588.902C238.042 587.905 250.253 584.752 258.594 575.973C267.733 590.14 288.165 594.37 302.89 594.489C304.965 583.156 306.482 572.541 306.482 572.541H306.442Z" fill="#C6AEA7"/>
<path d="M220.125 564.679C220.125 564.679 220.644 566.315 221.562 569.069C225.832 581.919 238.482 618.753 243.949 620.947C250.574 623.621 291.318 625.377 295.748 620.947C300.177 616.518 306.443 572.541 306.443 572.541C306.443 572.541 277.072 578.207 256.639 547.16C256.639 547.16 237.085 570.745 220.165 564.679H220.125Z" stroke="#592832" stroke-width="21.5495" stroke-linecap="round" stroke-linejoin="round"/>
<path d="M265.856 618.991C265.856 618.991 256.678 574.695 256.638 547.199" stroke="#592832" stroke-width="9.1785" stroke-linecap="round" stroke-linejoin="round"/>
<path d="M127.623 876.467L147.935 876.666" stroke="#592832" stroke-width="21.5495" stroke-linecap="round" stroke-linejoin="round"/>
<path d="M610.213 689.744C547.081 721.151 467.826 740.705 380.391 740.745C373.447 761.576 351.658 777.179 324.682 777.179C292.198 777.179 265.819 754.991 265.819 727.655C265.819 727.576 265.859 727.496 265.859 727.416C247.502 723.505 228.866 719.953 211.826 714.526L212.065 717.359C212.065 717.359 232.537 796.973 211.467 854.239C197.34 892.629 166.412 922.12 146.738 950.533C146.738 950.533 230.023 1053.53 462.638 1017.34C655.986 987.487 739.63 889.915 739.63 889.915C739.63 889.915 652.354 828.14 610.133 689.744H610.213Z" fill="#A206E8"/>
<path d="M610.213 691.501C547.081 722.908 467.826 742.462 380.391 742.502C373.447 763.333 351.658 778.937 324.682 778.937C292.198 778.937 265.819 756.749 265.819 729.413C265.819 729.333 265.859 729.253 265.859 729.173C247.502 725.262 228.866 721.711 211.826 716.283L212.065 719.117C212.065 719.117 232.537 798.73 211.467 855.996C197.34 894.386 166.412 923.877 146.738 952.291C146.738 952.291 230.023 1055.29 462.638 1019.09C655.986 989.244 739.63 891.673 739.63 891.673C739.63 891.673 652.354 829.897 610.133 691.501H610.213Z" fill="#AB69F3"/>
<path d="M170.964 952.291C190.638 923.878 221.565 894.387 235.692 855.996C254.368 805.195 240.441 737.075 237.049 722.31C228.629 720.354 219.849 718.838 211.908 716.284L212.147 719.117C212.147 719.117 232.619 798.731 211.549 855.996C197.422 894.387 166.494 923.878 146.82 952.291C146.82 952.291 212.786 1032.74 389.572 1025.92C231.422 1024.72 170.924 952.291 170.924 952.291H170.964Z" fill="#CAA0F7"/>
<path d="M610.212 689.745C547.08 721.151 467.826 740.706 380.391 740.746C374.804 757.466 359.48 770.356 339.806 774.985C370.015 779.136 401.541 781.091 430.912 777.38C528.125 765.168 597.522 719.435 661.852 949.018C714.448 918.25 739.709 889.876 739.709 889.876C739.709 889.876 652.434 828.101 610.212 689.705V689.745Z" fill="#933FDE"/>
<path d="M265.861 727.657C265.861 727.657 265.901 727.497 265.901 727.418C247.544 723.507 228.907 719.955 211.867 714.528L212.107 717.361C212.107 717.361 214.98 728.615 217.494 745.735C232.1 750.723 257.201 758.545 288.248 765.648C274.88 756.549 265.821 743.261 265.821 727.697L265.861 727.657Z" fill="#933FDE"/>
<path d="M611.173 692.897L610.215 691.541C497.479 745.893 403.739 740.745 380.553 740.745C380.513 740.745 380.473 740.745 380.433 740.745C373.489 761.577 351.7 777.18 324.724 777.18C292.559 777.18 266.739 757.706 266.181 730.769C247.345 726.978 212.147 717.36 212.147 717.36C212.147 717.36 232.619 796.974 211.549 854.24C197.422 892.63 166.494 922.121 146.82 950.534C146.82 950.534 230.105 1053.53 462.721 1017.34C656.068 987.487 739.712 889.916 739.712 889.916C739.712 889.916 653.394 831.293 611.173 692.897V692.897Z" stroke="#592832" stroke-width="21.5495" stroke-linecap="round" stroke-linejoin="round"/>
<path d="M512.521 807.71C516.432 821.158 518.188 857.234 489.934 882.016C461.68 906.798 462.119 914.181 443.004 962.388C423.888 1010.59 354.81 1014.51 336.573 954.566C316.58 863.34 377.836 841.152 399.585 790.351C442.525 794.9 480.157 800.726 512.561 807.71H512.521Z" fill="#EAAC71"/>
<path d="M506.734 813.296C506.135 831.373 491.689 851.407 472.574 861.822C453.459 872.238 435.501 892.51 429.315 916.534C424.606 934.731 418.261 985.014 393.08 998.981C413.792 998.063 434.024 985.173 443.043 962.387C462.158 914.18 461.719 906.757 489.973 882.015C508.37 865.853 514.037 844.902 514.675 828.54C512.321 823.552 509.687 818.444 506.774 813.256L506.734 813.296Z" fill="#D6823C"/>
<path d="M364.429 957.279C348.107 882.733 386.019 854.28 412.277 818.683C420.418 807.629 413.514 791.826 399.866 790.39H399.587C377.878 841.191 316.621 863.339 336.574 954.605C347.11 989.244 374.605 1002.53 399.667 998.303C384.422 992.436 371.094 979.148 364.429 957.319V957.279Z" fill="#F5D7BB"/>
<path d="M371.213 887.403C359.001 887.403 347.189 889.199 336.135 892.471C331.745 909.232 330.987 929.265 336.574 954.605C354.811 1014.55 423.89 1010.63 443.005 962.427C449.749 945.347 454.099 933.415 458.089 923.997C436.859 901.57 405.812 887.403 371.213 887.403Z" fill="#AE6745"/>
<path d="M445.878 955.124C446.357 953.927 446.796 952.73 447.235 951.572C447.434 951.014 447.674 950.415 447.873 949.896C447.993 949.577 448.113 949.258 448.233 948.938C452.183 938.682 455.216 930.661 458.05 923.957C450.906 916.415 442.646 909.83 433.507 904.363C431.791 908.274 430.315 912.344 429.237 916.494C424.528 934.692 418.183 984.974 393.002 998.941C394.119 998.901 395.277 998.782 396.394 998.662C396.593 998.662 396.793 998.662 396.993 998.622C398.03 998.502 399.028 998.343 400.065 998.143C400.345 998.103 400.664 998.063 400.943 997.984C401.901 997.784 402.819 997.585 403.777 997.345C404.136 997.265 404.495 997.185 404.854 997.066C405.732 996.826 406.61 996.547 407.488 996.268C407.887 996.148 408.326 995.988 408.725 995.868C409.563 995.589 410.361 995.27 411.159 994.951C411.598 994.751 412.077 994.591 412.516 994.392C413.274 994.073 414.033 993.714 414.791 993.315C415.27 993.075 415.749 992.836 416.227 992.596C416.946 992.237 417.624 991.838 418.343 991.439C418.821 991.16 419.34 990.84 419.819 990.561C420.498 990.162 421.136 989.723 421.775 989.284C422.293 988.925 422.772 988.566 423.251 988.206C423.85 987.768 424.448 987.289 425.047 986.85C425.566 986.451 426.045 986.012 426.563 985.613C427.122 985.134 427.681 984.655 428.199 984.176C428.718 983.697 429.197 983.218 429.676 982.739C430.195 982.221 430.674 981.742 431.153 981.223C431.671 980.704 432.15 980.105 432.629 979.547C433.068 979.028 433.547 978.509 433.986 977.95C434.465 977.352 434.944 976.713 435.423 976.075C435.822 975.556 436.221 974.997 436.58 974.479C437.059 973.76 437.538 973.042 437.977 972.284C438.296 971.765 438.655 971.246 438.974 970.687C439.453 969.849 439.932 968.932 440.371 968.054C440.61 967.575 440.89 967.136 441.089 966.657C441.768 965.26 442.406 963.863 442.965 962.387C443.723 960.471 444.441 958.676 445.12 956.88C445.359 956.281 445.559 955.723 445.798 955.124H445.878Z" fill="#924921"/>
<path d="M339.367 962.228C339.885 963.466 340.404 964.703 341.003 965.9C341.322 966.578 341.641 967.177 342 967.815C342.559 968.893 343.118 969.93 343.716 970.928C344.076 971.527 344.435 972.165 344.834 972.764C345.432 973.762 346.071 974.679 346.749 975.637C347.108 976.156 347.507 976.715 347.907 977.233C348.625 978.191 349.383 979.109 350.181 980.027C350.54 980.426 350.86 980.825 351.219 981.224C352.256 982.381 353.334 983.459 354.411 984.496C354.531 984.576 354.611 984.696 354.691 984.816C355.968 985.973 357.245 987.09 358.562 988.128C358.641 988.168 358.721 988.248 358.801 988.287C360.038 989.205 361.275 990.083 362.552 990.921C362.792 991.081 363.071 991.241 363.35 991.4C364.468 992.079 365.585 992.717 366.742 993.316C367.022 993.475 367.341 993.595 367.62 993.755C368.778 994.313 369.975 994.832 371.132 995.311C371.372 995.431 371.651 995.511 371.89 995.63C373.207 996.149 374.524 996.588 375.881 996.987C376.001 996.987 376.12 997.067 376.24 997.107C383.902 999.302 391.963 999.661 399.745 998.384C384.501 992.518 371.172 979.229 364.508 957.4C358.083 928.108 360.078 905.96 366.383 887.683C355.928 888.082 345.792 889.718 336.214 892.552C335.695 894.547 335.216 896.582 334.817 898.697C334.737 899.096 334.658 899.535 334.578 899.934C334.259 901.65 333.979 903.366 333.74 905.122C333.66 905.761 333.58 906.359 333.5 906.998C333.301 908.594 333.141 910.23 333.021 911.866C332.982 912.625 332.902 913.383 332.862 914.181C332.782 915.737 332.742 917.334 332.702 918.97C332.702 919.848 332.702 920.726 332.702 921.604C332.702 923.2 332.742 924.836 332.822 926.472C332.862 927.43 332.902 928.348 332.942 929.346C333.061 931.022 333.221 932.738 333.381 934.454C333.46 935.451 333.54 936.409 333.66 937.407C333.899 939.282 334.179 941.198 334.458 943.153C334.578 944.071 334.698 944.949 334.857 945.867C335.336 948.74 335.895 951.693 336.573 954.686C337.212 956.721 337.89 958.677 338.608 960.552C338.848 961.151 339.127 961.75 339.367 962.348V962.228Z" fill="#C18B71"/>
<path d="M399.587 790.351C377.878 841.192 316.621 863.34 336.574 954.566C354.812 1014.51 423.89 1010.59 443.005 962.388C462.12 914.181 461.681 906.758 489.935 882.016C518.189 857.234 516.433 821.198 512.522 807.71" stroke="#592832" stroke-width="21.5495" stroke-linecap="round" stroke-linejoin="round"/>
<path d="M403.059 946.664C403.059 946.664 388.733 962.826 391.726 991.2" stroke="#592832" stroke-width="17.9979" stroke-linecap="round" stroke-linejoin="round"/>
<path d="M366.383 936.448C366.383 936.448 352.057 952.61 355.05 980.983" stroke="#592832" stroke-width="17.9979" stroke-linecap="round" stroke-linejoin="round"/>
<path d="M490.297 890.595C468.708 848.215 418.665 834.766 390.731 830.536L379.597 828.86L385.862 819.442C391.409 811.181 397.634 800.766 402.503 789.712C447.597 764.012 515.997 783.127 523.5 805.155C529.885 856.076 514.8 880.299 501.631 892.631L494.607 899.135L490.337 890.595H490.297Z" fill="#AB69F3"/>
<path d="M404.459 781.051C399.71 791.547 391.13 811.54 385.862 819.441L379.597 828.859L390.731 830.535C393.764 830.974 397.754 832.092 401.226 832.77C405.017 828.101 408.768 823.432 412.28 818.643C420.022 808.148 416.71 783.765 404.459 781.011V781.051Z" fill="#CAA0F7"/>
<path d="M523.459 805.156C523.14 804.198 522.102 803.28 521.504 802.322C510.21 796.097 494.527 803.4 489.818 819.402C487.184 828.381 482.435 846.18 467.391 862.501C476.37 870.123 484.431 879.142 490.257 890.595L494.527 899.135L501.551 892.631C514.72 880.3 529.804 856.076 523.419 805.156H523.459Z" fill="#933FDE"/>
<path d="M489.857 898.296C463.599 834.366 371.335 832.57 371.335 832.57C371.335 832.57 393.204 807.27 400.706 783.166" stroke="#592832" stroke-width="21.5495" stroke-linecap="round" stroke-linejoin="round"/>
<path d="M481.16 890.076L469.866 902.686L487.944 906.118C487.944 906.118 538.027 887.083 529.926 805.194" stroke="#592832" stroke-width="21.5495" stroke-linecap="round" stroke-linejoin="round"/>
<path d="M212.145 717.359C174.752 728.134 143.545 802.16 144.104 851.964C144.703 901.767 182.335 972.442 217.093 992.155C251.852 1011.87 294.153 986.928 292.995 947.54C291.998 913.061 274.559 859.107 217.053 820.916C222.441 788.632 219.966 753.833 212.145 717.359Z" fill="#EAAC71"/>
<path d="M241.157 992.156C206.398 972.442 168.727 901.768 168.168 851.965C167.689 812.058 187.642 756.708 214.779 730.649C213.981 726.219 213.103 721.789 212.145 717.32C174.752 728.095 143.545 802.121 144.104 851.925C144.703 901.728 182.335 972.402 217.093 992.116C229.464 999.14 242.753 1000.46 254.725 997.544C250.136 996.426 245.587 994.63 241.117 992.116L241.157 992.156Z" fill="#F5D7BB"/>
<path d="M173.836 944.188C186.686 965.778 202.13 983.696 217.095 992.156C251.853 1011.87 294.154 986.928 292.997 947.54C292.518 931.618 288.527 911.505 278.71 890.713C272.245 889.277 265.581 888.519 258.677 888.519C220.686 888.519 188.083 911.425 173.836 944.188Z" fill="#AE6745"/>
<path d="M222.399 994.789C223.596 995.308 224.794 995.787 226.031 996.186C226.23 996.266 226.47 996.345 226.669 996.425C228.106 996.904 229.582 997.303 231.019 997.662C231.258 997.702 231.498 997.782 231.737 997.822C233.054 998.101 234.331 998.341 235.648 998.54C235.848 998.54 236.047 998.62 236.247 998.62C239.32 999.019 242.353 999.139 245.345 998.979C245.425 998.979 245.545 998.979 245.625 998.979C248.698 998.78 251.731 998.341 254.684 997.622C250.094 996.505 245.545 994.709 241.075 992.195C221.441 981.061 200.929 953.725 186.643 923.037C181.455 929.462 177.105 936.565 173.793 944.227C176.866 949.415 180.138 954.404 183.45 959.073C183.65 959.352 183.81 959.592 184.009 959.871C184.687 960.789 185.366 961.707 186.044 962.624C186.324 962.984 186.603 963.343 186.882 963.702C187.521 964.54 188.159 965.378 188.798 966.176C189.117 966.575 189.436 966.974 189.796 967.413C190.434 968.172 191.033 968.97 191.671 969.688C192.03 970.127 192.389 970.526 192.749 970.925C193.347 971.643 193.986 972.362 194.584 973.04C194.944 973.439 195.343 973.838 195.702 974.237C196.699 975.355 197.737 976.432 198.735 977.47C199.293 978.028 199.812 978.587 200.371 979.146C200.85 979.585 201.289 980.024 201.767 980.463C202.326 980.981 202.885 981.54 203.444 982.059C203.883 982.458 204.361 982.857 204.8 983.256C205.399 983.775 205.958 984.254 206.556 984.733C206.995 985.092 207.434 985.451 207.873 985.81C208.472 986.289 209.11 986.768 209.709 987.247C210.108 987.566 210.507 987.885 210.946 988.165C211.624 988.643 212.303 989.122 212.981 989.601C213.3 989.841 213.66 990.08 213.979 990.28C215.016 990.958 216.014 991.557 217.052 992.155C218.448 992.953 219.845 993.632 221.242 994.27C221.601 994.43 222 994.59 222.359 994.749L222.399 994.789Z" fill="#C18B71"/>
<path d="M212.145 717.359C174.752 728.134 143.545 802.16 144.104 851.964C144.703 901.767 182.335 972.442 217.093 992.155C251.852 1011.87 294.153 986.928 292.995 947.54C291.998 913.061 274.559 859.107 217.053 820.916C222.441 788.632 219.966 753.833 212.145 717.359V717.359Z" stroke="#592832" stroke-width="21.5495" stroke-linecap="round" stroke-linejoin="round"/>
<path d="M189.876 805.632C199.813 810.341 208.832 815.489 217.052 820.917" stroke="#592832" stroke-width="21.5495" stroke-linecap="round" stroke-linejoin="round"/>
<path d="M221.841 953.047C221.841 953.047 238.841 966.376 240.916 994.829" stroke="#592832" stroke-width="17.9979" stroke-linecap="round" stroke-linejoin="round"/>
<path d="M256.123 936.447C256.123 936.447 273.123 949.776 275.198 978.229" stroke="#592832" stroke-width="17.9979" stroke-linecap="round" stroke-linejoin="round"/>
<path d="M218.847 823.073C220.484 810.981 221.202 798.77 221.002 787.037C220.085 749.964 212.183 719.116 210.507 717.041C209.629 716.442 208.671 716.003 207.634 715.724C206.676 715.445 205.678 715.285 199.772 716.043C118.083 759.98 127.661 876.428 127.661 876.428C157.591 829.857 188.279 814.892 218.847 823.033V823.073Z" fill="#933FDE"/>
<path d="M209.59 725.063C208.513 720.673 207.555 717.64 207.116 717.082C206.238 716.483 205.241 716.084 204.283 715.765C203.285 715.525 202.288 715.326 196.381 716.124C114.693 760.061 124.27 876.508 124.27 876.508C134.327 860.825 144.503 849.93 154.759 841.071C157.273 808.268 168.726 756.749 209.63 725.063H209.59Z" fill="#AB69F3"/>
<path d="M218.847 823.073C220.484 810.981 221.202 798.77 221.002 787.037C220.085 749.964 212.183 719.116 210.507 717.041C209.629 716.442 208.671 716.003 207.634 715.724C206.676 715.445 205.678 715.285 199.772 716.043C118.083 759.98 127.661 876.428 127.661 876.428C157.591 829.857 188.279 814.892 218.847 823.033V823.073Z" stroke="#592832" stroke-width="21.5495" stroke-linecap="round" stroke-linejoin="round"/>
</svg>
