<svg width="170" height="181" viewBox="0 0 170 181" fill="none" xmlns="http://www.w3.org/2000/svg">
<g clip-path="url(#clip0_2289_43804)">
<mask id="mask0_2289_43804" style="mask-type:luminance" maskUnits="userSpaceOnUse" x="0" y="0" width="170" height="181">
<path d="M169.986 0H0V180.035H169.986V0Z" fill="white"/>
</mask>
<g mask="url(#mask0_2289_43804)">
<path d="M58.804 156.941C38.8958 155.641 36.3236 137.414 44.106 115.737C51.8883 94.0606 45.9123 77.9961 29.2822 76.1547C12.6521 74.3117 -2.93748 94.3733 2.77836 119.941C8.49419 145.507 32.6422 169.045 64.9582 170.135L58.8054 156.941H58.804Z" fill="#EAAC71"/>
<path d="M58.804 156.941C38.8958 155.641 36.3236 137.414 44.106 115.737C51.8883 94.0606 45.9123 77.9961 29.2822 76.1547C12.6521 74.3117 -2.93748 94.3733 2.77836 119.941C8.49419 145.507 32.6422 169.045 64.9582 170.135L58.8054 156.941H58.804Z" fill="#AE6745"/>
<path d="M53.9126 156.94C34.0044 155.641 32.141 135.963 39.9233 114.287C47.6589 92.7419 41.0867 78.1972 24.686 76.195C26.1971 76.0007 27.7346 75.9817 29.2793 76.1542C45.9095 77.9971 51.8854 94.0601 44.1031 115.737C36.3208 137.414 38.893 155.641 58.8011 156.94L64.954 170.134C63.244 170.076 61.5575 169.951 59.8943 169.772L53.9096 156.94H53.9126Z" fill="#C18B71"/>
<path d="M14.0713 116.406C15.3209 117.61 16.6056 118.91 17.9135 120.27C17.4108 121.222 16.9387 122.161 16.5032 123.088C16.2869 123.547 16.4857 124.095 16.9431 124.309C17.0732 124.367 17.2033 124.398 17.3392 124.398C17.6812 124.398 18.0129 124.201 18.1707 123.868C18.5084 123.149 18.8722 122.417 19.2493 121.68C21.1683 123.72 23.1003 125.869 24.9827 128.015C23.7522 130.159 22.6063 132.315 21.6082 134.437C21.3875 134.897 21.5862 135.444 22.048 135.664C22.1738 135.722 22.3082 135.748 22.4338 135.748C22.7846 135.748 23.112 135.555 23.2698 135.218C24.1643 133.322 25.1756 131.399 26.263 129.48C28.2316 131.749 30.1227 133.988 31.8662 136.09C30.1359 139.137 28.5224 142.211 27.1881 145.041C26.9718 145.5 27.1705 146.048 27.6279 146.268C27.758 146.327 27.8881 146.353 28.024 146.353C28.366 146.353 28.6978 146.16 28.8556 145.823C30.0817 143.221 31.5476 140.412 33.1202 137.608C34.9718 139.86 36.6116 141.895 37.9284 143.55C36.6613 145.356 34.9397 148.16 34.6036 150.479C34.5319 150.982 34.8783 151.449 35.3811 151.52C35.4264 151.529 35.4702 151.533 35.5156 151.533C35.9642 151.533 36.3559 151.206 36.4231 150.747C36.6833 148.958 38.0088 146.699 39.1239 145.053C40.4582 146.742 41.2489 147.767 41.2811 147.813C41.4652 148.05 41.7399 148.177 42.0132 148.177C42.2061 148.177 42.4035 148.114 42.5745 147.983C42.9749 147.674 43.0509 147.098 42.741 146.695C42.7046 146.644 41.7839 145.45 40.2435 143.504C40.5445 143.104 40.7418 142.865 40.7505 142.857C41.0735 142.46 41.0151 141.887 40.6249 141.563C40.239 141.241 39.6545 141.294 39.3315 141.685C39.3095 141.711 39.2101 141.832 39.0626 142.018C37.6917 140.297 35.9978 138.199 34.098 135.898C35.9262 132.724 37.8685 129.624 39.7187 126.907C39.8619 127.094 39.9438 127.208 39.9526 127.221C40.1324 127.463 40.4115 127.597 40.698 127.597C40.8865 127.597 41.0751 127.535 41.2373 127.418C41.6508 127.117 41.7356 126.536 41.4345 126.133C41.4213 126.111 41.2094 125.823 40.828 125.315C41.3585 124.569 41.8788 123.86 42.383 123.203C42.6929 122.798 42.6169 122.22 42.212 121.909C41.8072 121.6 41.2284 121.68 40.923 122.081C40.5094 122.62 40.0914 123.186 39.6646 123.778C38.4108 122.148 36.5547 119.77 34.2952 117.016C36.8615 113.412 39.2919 110.259 41.1436 107.926C41.5339 108.457 41.7502 108.762 41.7633 108.78C41.9431 109.031 42.2267 109.165 42.5131 109.165C42.7016 109.165 42.8858 109.111 43.048 108.994C43.4615 108.702 43.5609 108.128 43.2643 107.714C43.2512 107.692 42.9223 107.233 42.3348 106.443C43.6823 104.784 44.5183 103.805 44.5547 103.765C44.888 103.384 44.8427 102.804 44.4598 102.472C44.0739 102.139 43.4938 102.184 43.1605 102.571C43.1284 102.608 42.3917 103.461 41.1919 104.935C39.7947 103.111 37.7589 100.535 35.2788 97.6241C38.9544 92.8699 41.6771 89.6752 41.7443 89.5948C42.0717 89.209 42.0279 88.6332 41.6405 88.3014C41.2591 87.9681 40.6746 88.0135 40.3471 88.4008C40.2799 88.4812 37.6464 91.5737 34.0511 96.2065C32.0021 93.8565 29.7018 91.3485 27.2435 88.8918C28.7124 86.8838 30.1373 85.0277 31.4264 83.3923C31.7405 82.9919 31.6733 82.4175 31.2787 82.1033C30.8739 81.7846 30.2995 81.8563 29.9853 82.2508C28.727 83.8409 27.3473 85.6429 25.9239 87.5853C25.1785 86.8619 24.4186 86.1428 23.6498 85.4369C23.2771 85.0949 22.697 85.1139 22.3462 85.491C22.0042 85.8681 22.032 86.4527 22.4047 86.7947C23.2274 87.5502 24.0356 88.3131 24.8264 89.0906C22.5479 92.2722 20.2022 95.7724 18.0947 99.3677C17.3801 98.6983 16.6654 98.0466 15.9552 97.4181C15.5781 97.0805 14.9935 97.117 14.6559 97.4984C14.3183 97.8755 14.3548 98.4601 14.7363 98.7977C15.5401 99.508 16.3454 100.245 17.1492 101.005C16.2006 102.698 15.3062 104.401 14.5113 106.091C14.295 106.549 14.4937 107.097 14.9511 107.317C15.0812 107.375 15.2113 107.401 15.3413 107.401C15.6877 107.401 16.0194 107.208 16.1773 106.871C16.8876 105.361 17.6782 103.838 18.523 102.323C20.6758 104.421 22.8051 106.65 24.8365 108.875C22.6881 112.065 20.6128 115.368 18.8284 118.575C17.6505 117.35 16.4828 116.18 15.3502 115.084C14.9818 114.734 14.4016 114.738 14.0465 115.111C13.6957 115.47 13.7045 116.055 14.0684 116.41L14.0713 116.406ZM32.9038 97.6899C30.7292 100.53 28.2929 103.828 25.9034 107.306C23.8281 105.045 21.6563 102.786 19.4642 100.665C21.5454 97.0849 23.872 93.5832 26.1503 90.3971C28.5954 92.8554 30.8782 95.353 32.9038 97.6899ZM33.0836 115.552C31.2904 113.395 29.2911 111.062 27.1705 108.708C29.5337 105.253 31.9554 101.963 34.1271 99.1148C36.635 102.071 38.6651 104.655 40.0009 106.408C38.1623 108.708 35.7012 111.89 33.0851 115.552H33.0836ZM27.2378 127.8C29.1202 124.61 31.1779 121.478 33.1918 118.58C35.5112 121.416 37.3701 123.811 38.5481 125.357C36.6789 128.067 34.7103 131.185 32.841 134.389C31.0931 132.286 29.1961 130.053 27.2378 127.803V127.8ZM20.1599 119.964C21.9034 116.774 23.9611 113.475 26.1051 110.276C28.2213 112.635 30.2074 114.967 31.9831 117.106C29.9561 119.994 27.8808 123.136 25.9663 126.344C24.0517 124.174 22.0977 122.012 20.1613 119.963L20.1599 119.964Z" fill="#924921"/>
<path d="M37.1682 123.563C37.3437 122.813 37.5278 122.058 37.7295 121.294C38.4705 122.237 39.1223 123.082 39.6616 123.778C40.0883 123.185 40.5063 122.62 40.9199 122.08C41.2122 121.699 41.7559 121.613 42.1563 121.874C41.9268 122.709 41.7164 123.532 41.522 124.346C41.2925 124.663 41.0588 124.984 40.8249 125.316C40.9784 125.517 41.0996 125.68 41.1932 125.81C41.0675 126.407 40.9506 126.996 40.8468 127.584C40.7928 127.592 40.7431 127.597 40.6934 127.597C40.4054 127.597 40.1278 127.462 39.948 127.22C39.9392 127.207 39.8588 127.094 39.7142 126.906C38.4062 128.825 37.0587 130.937 35.7332 133.124C35.8091 131.773 35.9494 130.389 36.1511 128.968C36.9549 127.709 37.7602 126.492 38.5464 125.355C38.1606 124.847 37.693 124.245 37.1668 123.562L37.1682 123.563Z" fill="#A66A49"/>
<path d="M41.8861 89.3503C41.7561 88.9499 41.6114 88.5597 41.4595 88.1826C41.5223 88.2147 41.5851 88.2498 41.6392 88.2995C41.949 88.5684 42.0352 88.9908 41.8861 89.3503Z" fill="#A66A49"/>
<path d="M35.7258 137.884C36.9711 139.407 38.0978 140.81 39.0595 142.019C39.2071 141.834 39.3065 141.713 39.3284 141.686C39.6164 141.335 40.1103 141.258 40.4874 141.473C40.5721 141.932 40.6627 142.381 40.7665 142.826C40.7621 142.834 40.7577 142.847 40.749 142.858C40.7401 142.867 40.5429 143.105 40.2418 143.505C40.6686 144.049 41.05 144.53 41.3788 144.943C41.7339 145.985 42.1607 146.974 42.6635 147.9C42.6372 147.926 42.6094 147.958 42.5744 147.985C42.4033 148.115 42.206 148.177 42.0131 148.177C41.7384 148.177 41.4651 148.051 41.2809 147.814C41.2487 147.768 40.4581 146.744 39.1238 145.054C38.7145 145.656 38.279 146.339 37.8786 147.049C37.5599 146.366 37.2721 145.652 37.0252 144.905C37.3349 144.415 37.6403 143.957 37.9283 143.547C37.3803 142.86 36.7737 142.101 36.1219 141.292C35.929 140.196 35.7989 139.059 35.7258 137.882V137.884Z" fill="#A66A49"/>
<path d="M42.3317 106.443C42.9207 107.234 43.2481 107.693 43.2612 107.715C43.5578 108.128 43.4584 108.703 43.0449 108.995C42.8827 109.112 42.6985 109.166 42.51 109.166C42.222 109.166 41.94 109.032 41.7602 108.78C41.7558 108.772 41.7237 108.726 41.6653 108.646C42.1636 106.696 42.5363 104.812 42.7847 103.006C43.0142 102.737 43.1443 102.584 43.1574 102.571C43.4907 102.185 44.0694 102.139 44.4567 102.471C44.8381 102.804 44.8834 103.383 44.5516 103.765C44.5151 103.805 43.6806 104.785 42.3317 106.442V106.443Z" fill="#A66A49"/>
<path d="M29.2806 76.1507C30.3417 76.2677 31.2258 76.6052 32.1962 76.8333C16.9808 76.9677 3.48262 95.4905 8.75854 119.082C13.957 142.335 35.0139 163.612 63.4849 166.983L64.9581 170.133C32.6405 169.041 8.49255 145.507 2.77673 119.939C-2.9391 94.371 12.649 74.3079 29.2791 76.1507H29.2806Z" fill="#924921"/>
<path d="M64.9597 171.711H64.9057C30.3944 170.545 6.75067 144.958 1.23506 120.285C-1.92757 106.132 1.07138 92.2318 9.25271 83.099C14.8253 76.8818 22.1985 73.7908 29.4547 74.5829C30.5084 74.7014 31.3327 74.8943 32.2724 75.1179C33.0689 75.305 33.693 76.0942 33.5775 76.9038C33.4591 77.7076 32.8453 78.2834 32.0385 78.2804C26.5566 77.9926 21.1535 80.6159 16.8713 85.677C9.95569 93.8598 7.5004 106.221 10.3006 118.74C15.7548 143.148 37.7018 162.343 63.6693 165.418C64.2115 165.483 64.6821 165.822 64.913 166.314L66.3876 169.464C66.6215 169.962 66.5805 170.545 66.2765 171.002C65.9842 171.447 65.4873 171.711 64.9583 171.711H64.9597ZM18.2262 79.9392C15.8425 81.2079 13.5991 82.9776 11.6057 85.2064C4.09955 93.5807 1.37536 106.439 4.31731 119.598C9.40909 142.378 30.7524 165.973 62.0558 168.394C35.3254 164.707 12.8742 144.731 7.21834 119.428C4.20478 105.952 6.91289 92.5722 14.4629 83.6397C15.6452 82.2425 16.9036 81.0061 18.2262 79.9408V79.9392Z" fill="#592832"/>
<path d="M64.9568 171.713H64.9027C30.3929 170.547 6.75354 144.959 1.23501 120.283C-1.92761 106.134 1.06841 92.235 9.25268 83.1022C14.8253 76.8822 22.1985 73.7897 29.4546 74.5833C36.5224 75.3666 42.035 78.6301 45.3979 84.0171C50.2149 91.7396 50.2836 103.195 45.5879 116.27C40.6043 130.153 40.2886 141.5 44.6963 148.221C47.5229 152.53 52.3033 154.934 58.9048 155.365C59.4806 155.402 59.9892 155.751 60.2334 156.272L66.3861 169.466C66.617 169.965 66.5732 170.548 66.2736 171.006C65.9812 171.447 65.4844 171.712 64.9553 171.712L64.9568 171.713ZM27.1923 77.6187C21.5758 77.6187 15.9857 80.3167 11.6042 85.2097C4.09951 93.584 1.37678 106.441 4.31873 119.595C9.43097 142.461 30.9205 166.156 62.4168 168.422L57.7648 158.441C50.5978 157.773 45.3175 154.922 42.0584 149.951C37.0952 142.381 37.2926 130.04 42.6211 115.202C46.9835 103.056 47.0187 92.574 42.7219 85.6861C39.8911 81.1497 35.185 78.3948 29.1082 77.7225C28.4711 77.651 27.8309 77.6173 27.1937 77.6173L27.1923 77.6187Z" fill="#592832"/>
<path d="M128.956 124.957C141.458 132.124 146.677 160.128 123.001 167.384C105.435 171.966 101.327 158.697 100.852 155.291C99.3248 144.345 115.744 128.307 128.956 124.957Z" fill="#EAAC71"/>
<path d="M119.921 167.384C142.834 160.362 138.683 133.908 127.061 125.715C127.891 125.417 128.715 125.164 129.526 124.957C142.028 132.124 147.247 160.128 123.571 167.384C120.245 168.252 117.403 168.478 114.976 168.254C116.493 168.128 118.137 167.849 119.921 167.384Z" fill="#F5D7BB"/>
<path d="M116.17 169.913C112.484 169.913 109.274 169.006 106.569 167.201C100.517 163.163 99.3963 156.282 99.2882 155.512C97.6074 143.468 114.632 126.96 128.567 123.428C128.965 123.337 129.384 123.384 129.741 123.591C137.265 127.903 142.09 138.757 140.959 148.833C140.322 154.518 137.203 164.684 123.462 168.895C120.855 169.576 118.421 169.915 116.17 169.915V169.913ZM128.714 126.657C116.472 130.13 101.023 145.097 102.414 155.075C102.451 155.325 103.329 161.243 108.32 164.575C111.907 166.968 116.713 167.398 122.602 165.856C134.555 162.193 137.274 153.398 137.823 148.482C138.775 139.973 134.802 130.549 128.714 126.657Z" fill="#592832"/>
<path d="M104.222 178.458H144.616C144.616 178.458 143.607 167.936 130.448 165.22C117.291 162.505 103.516 170.312 102.765 173.706C102.015 177.1 104.221 178.458 104.221 178.458H104.222Z" fill="#AE6745"/>
<path d="M104.222 178.458H144.616C144.616 178.458 143.607 167.936 130.448 165.22C117.291 162.505 103.516 170.312 102.765 173.706C102.015 177.1 104.221 178.458 104.221 178.458H104.222Z" fill="#AE6745"/>
<path d="M128.65 167.289C118.153 165.123 107.272 169.651 102.916 173.296C104.579 169.726 117.796 162.609 130.448 165.221C143.606 167.936 144.616 178.458 144.616 178.458H142.336C141.303 175.252 138.13 169.244 128.65 167.289Z" fill="#C18B71"/>
<path d="M102.767 173.704C103.016 172.572 104.725 170.946 107.37 169.386C107.809 169.432 108.246 169.484 108.683 169.544C113.679 170.238 116.921 171.689 119.022 173.224C120.872 174.574 123.101 175.303 125.393 175.303H143.735C144.486 177.131 144.616 178.457 144.616 178.457H122.849H104.222C104.222 178.457 102.015 177.099 102.767 173.704Z" fill="#924921"/>
<path d="M144.616 180.035H104.221C103.928 180.035 103.642 179.956 103.394 179.802C102.22 179.079 100.441 176.91 101.225 173.366C102.268 168.65 117.232 160.897 130.765 163.674C144.903 166.592 146.174 178.191 146.187 178.307C146.228 178.751 146.082 179.19 145.783 179.519C145.482 179.849 145.058 180.035 144.614 180.035H144.616ZM104.804 176.88H142.648C141.748 174.043 138.902 168.577 130.128 166.765C117.447 164.152 104.855 171.69 104.307 174.047C103.961 175.611 104.456 176.483 104.802 176.878L104.804 176.88Z" fill="#592832"/>
<path d="M130.06 180.035C129.395 180.035 128.773 179.609 128.558 178.941C128.541 178.89 126.872 173.855 123.126 172.646C122.296 172.376 121.842 171.487 122.11 170.657C122.376 169.829 123.258 169.378 124.099 169.639C129.397 171.352 131.479 177.707 131.564 177.976C131.828 178.806 131.371 179.692 130.544 179.956C130.382 180.008 130.22 180.034 130.061 180.034L130.06 180.035Z" fill="#592832"/>
<path d="M138.982 180.035C138.317 180.035 137.694 179.609 137.479 178.941C137.464 178.89 135.795 173.855 132.049 172.646C131.219 172.376 130.764 171.487 131.032 170.657C131.297 169.829 132.183 169.378 133.02 169.639C138.32 171.352 140.401 177.707 140.486 177.976C140.751 178.806 140.293 179.692 139.466 179.956C139.303 180.008 139.143 180.034 138.983 180.034L138.982 180.035Z" fill="#592832"/>
<path d="M68.1106 93.3418C77.3807 98.2611 89.4438 101.235 102.635 101.235C111.131 101.235 119.157 100 126.273 97.8066C124.998 103.537 123.973 113.016 127.839 122.194C133.949 136.705 143.876 168.4 99.1976 168.4C71.0671 168.4 49.5601 141.033 56.4948 119.902C59.8079 111.423 67.9673 104.027 68.1106 93.3389V93.3418Z" fill="#EAAC71"/>
<path d="M124.342 122.196C120.703 113.548 121.4 104.636 122.56 98.8399C123.823 98.5228 125.061 98.1808 126.274 97.8066C124.999 103.537 123.974 113.016 127.839 122.194C133.948 136.705 143.877 168.401 99.1979 168.401C98.7273 168.401 98.2581 168.391 97.7905 168.376C140.065 167.396 130.355 136.474 124.342 122.193V122.196Z" fill="#F5D7BB"/>
<path d="M73.8894 160.387C81.9377 153.757 87.9824 143.02 89.2261 129.901C91.2882 108.155 119.739 105.133 126.36 117.856C126.743 119.299 127.231 120.751 127.839 122.196C133.948 136.706 143.877 168.402 99.1977 168.402C89.7347 168.402 81.0228 165.301 73.8894 160.387Z" fill="#FFE5C0"/>
<path d="M88.9368 167.166C88.3009 167.012 87.6711 166.838 87.0471 166.657C86.8716 166.607 86.6977 166.551 86.5224 166.497C86.0751 166.361 85.6308 166.219 85.1894 166.068C84.9878 166 84.7876 165.931 84.5888 165.859C84.1562 165.706 83.728 165.545 83.3013 165.379C83.1258 165.31 82.9491 165.244 82.7751 165.173C81.5943 164.697 80.4397 164.171 79.3129 163.601C79.1433 163.515 78.9768 163.426 78.8087 163.339C78.4141 163.132 78.021 162.922 77.6337 162.706C77.4451 162.6 77.2566 162.494 77.0696 162.385C76.6881 162.167 76.3125 161.941 75.9398 161.712C75.7746 161.611 75.6095 161.511 75.4458 161.407C74.9197 161.076 74.3994 160.736 73.8894 160.385C74.3512 160.005 74.8057 159.607 75.2544 159.2C75.3859 159.081 75.513 158.955 75.6417 158.834C75.9603 158.536 76.276 158.237 76.5872 157.925C76.729 157.783 76.8678 157.636 77.0082 157.492C77.3019 157.187 77.5942 156.88 77.8806 156.562C78.0195 156.411 78.1555 156.254 78.2913 156.1C78.5734 155.78 78.851 155.454 79.1243 155.122C83.4561 149.872 86.7664 143.197 88.3769 135.499C90.8454 139.116 94.8571 146.996 92.5436 157.619C92.2104 159.147 93.2027 160.651 94.727 160.997C108.195 164.06 122.178 161.598 131.882 152.64L132.021 152.614C129.032 161.472 120.08 168.396 99.1977 168.396C95.658 168.396 92.2221 167.962 88.9368 167.162V167.166Z" fill="#DBAB7A"/>
<path d="M124.342 122.196C123.064 119.157 122.327 116.088 121.951 113.13C123.818 114.33 125.344 115.907 126.36 117.856C126.448 118.194 126.545 118.53 126.645 118.868C126.67 118.953 126.698 119.036 126.724 119.121C126.8 119.369 126.881 119.618 126.963 119.866C127 119.974 127.036 120.082 127.073 120.19C127.154 120.427 127.239 120.664 127.328 120.901C127.364 121.001 127.401 121.1 127.439 121.202C127.566 121.534 127.696 121.864 127.837 122.194C133.947 136.705 143.876 168.401 99.1963 168.401C98.7519 168.401 98.312 168.386 97.8706 168.372C140.049 167.353 130.349 136.464 124.341 122.192L124.342 122.196Z" fill="#FFF7EC"/>
<path d="M56.495 119.906C59.1987 112.984 65.1309 106.785 67.2968 98.9292C67.4078 98.5244 67.5072 98.1152 67.5978 97.7016C67.6124 97.633 67.6285 97.5643 67.6431 97.4955C67.7323 97.0731 67.8112 96.6464 67.877 96.2138C67.877 96.2051 67.8784 96.1963 67.8799 96.1875C67.9398 95.7827 67.9851 95.372 68.0231 94.9584C68.0319 94.8546 68.0406 94.7495 68.0495 94.6457C68.0816 94.216 69.3589 91.5459 69.3647 91.1045C78.6349 96.0239 89.4454 101.237 102.635 101.237C111.131 101.237 119.157 100.002 126.273 97.8083C126.213 98.0758 126.154 98.3549 126.096 98.6399C126.08 98.7217 126.063 98.805 126.047 98.8884C126.002 99.1134 125.957 99.3443 125.915 99.5796C125.9 99.657 125.886 99.7331 125.873 99.8105C125.819 100.11 125.767 100.417 125.716 100.731C125.704 100.809 125.693 100.889 125.68 100.966C125.648 101.178 125.616 101.396 125.585 101.614C116.994 105.895 103.275 107.679 88.0322 105.909C86.3208 105.613 84.643 105.266 83.0062 104.869C79.0281 103.901 74.9301 105.901 73.286 109.649C70.5953 115.782 66.1115 121.042 63.8609 126.801C60.3606 137.468 64.1108 149.725 72.2994 159.247C59.228 149.415 52.0682 133.393 56.4935 119.907L56.495 119.906Z" fill="#D6823C"/>
<path d="M99.1993 169.979C84.3946 169.979 70.2343 162.629 61.315 150.315C54.1171 140.376 51.8125 129.114 54.9955 119.411C56.1793 116.377 58.1728 113.197 60.2832 109.828C64.1912 103.588 68.6165 96.5185 67.3845 90.699C67.2559 90.0997 67.4896 89.4816 67.9778 89.1118C68.4689 88.7391 69.1294 88.691 69.6687 88.9788C78.632 93.736 89.786 99.6579 102.64 99.6579C110.781 99.6579 118.577 98.5281 125.811 96.3008C126.35 96.1416 126.933 96.2642 127.348 96.6502C127.761 97.0301 127.938 97.603 127.818 98.1511C126.495 104.098 125.679 112.989 129.296 121.585C136 137.509 136.618 149.774 131.127 158.037C125.865 165.964 115.125 169.981 99.2022 169.981L99.1993 169.979ZM70.7473 93.1221C70.6055 99.2911 66.5748 105.726 62.9562 111.503C60.9262 114.743 59.0102 117.802 57.9653 120.479C55.1315 129.124 57.274 139.354 63.871 148.467C72.1971 159.959 85.4045 166.824 99.1993 166.824C113.997 166.824 123.855 163.279 128.496 156.289C133.362 148.962 132.65 137.698 126.384 122.806C122.942 114.632 123.167 106.283 124.229 100.039C117.414 101.881 110.163 102.812 102.637 102.812C90.2259 102.812 79.5541 97.7434 70.7473 93.1221Z" fill="#592832"/>
<path d="M59.7977 113.363C58.3787 115.186 52.3296 122.846 50.0219 126.692C43.9114 136.875 42.7233 151.471 50.871 162.842C59.0173 174.213 75.4808 174.552 82.8686 165.218C93.8004 151.405 89.6542 138.957 86.6655 133.301C73.6013 131.525 66.9969 122.037 59.7992 113.363H59.7977Z" fill="#EAAC71"/>
<path d="M82.604 160.011C88.5493 148.533 86.6639 139.325 83.6533 133.265C83.0235 131.996 84.0274 130.544 85.4436 130.618H85.4816C88.9351 136.005 94.1131 148.061 84.3797 162.744C79.5524 170.026 69.4185 172.518 60.7798 169.125C69.4654 171.076 78.7281 167.494 82.604 160.011Z" fill="#F5D7BB"/>
<path d="M50.022 126.695C52.3297 122.848 58.3787 115.189 59.7979 113.366C62.0295 116.055 64.2056 118.823 66.5323 121.416C65.6992 122.597 64.9627 123.695 64.4278 124.587C58.3173 134.771 57.1292 149.366 65.2769 160.737C68.6003 165.376 73.3077 168.177 78.2168 169.236C69.9405 174.089 57.5837 172.216 50.8711 162.846C42.7249 151.475 43.913 136.878 50.022 126.696V126.695Z" fill="#D6823C"/>
<path d="M68.3634 173.408C68.1762 173.408 67.9877 173.405 67.7978 173.401C60.4889 173.225 53.8509 169.711 49.5892 163.763C40.4024 150.941 42.5186 135.477 48.6948 125.844C51.9466 120.768 54.1183 118.053 56.0314 115.658C57.6551 113.626 59.0581 111.871 60.7432 109.099C61.1977 108.356 62.1608 108.109 62.912 108.57C63.6573 109.021 63.8926 109.993 63.441 110.738C61.6507 113.685 60.1893 115.512 58.4984 117.628C56.6305 119.963 54.5158 122.608 51.3518 127.544C44.7283 137.881 45.0572 152.02 52.1527 161.922C55.8341 167.061 61.563 170.095 67.8752 170.245C73.4887 170.312 78.503 168.191 81.6291 164.238C95.592 146.597 83.5407 131.23 83.4165 131.074C82.8699 130.397 82.9751 129.403 83.6547 128.857C84.3255 128.308 85.3223 128.413 85.8718 129.096C86.0135 129.268 99.6111 146.602 84.1049 166.196C80.4613 170.796 74.7515 173.407 68.3618 173.407L68.3634 173.408Z" fill="#592832"/>
<path d="M56.6408 178.458H97.0346C97.0346 178.458 96.0262 167.936 82.8671 165.22C69.7094 162.505 55.935 170.312 55.1838 173.705C54.434 177.1 56.6394 178.458 56.6394 178.458H56.6408Z" fill="#AE6745"/>
<path d="M56.6408 178.458H97.0346C97.0346 178.458 96.0262 167.936 82.8671 165.22C69.7094 162.505 55.935 170.312 55.1838 173.705C54.434 177.1 56.6394 178.458 56.6394 178.458H56.6408Z" fill="#AE6745"/>
<path d="M81.0681 167.289C70.5718 165.123 59.6911 169.651 55.3345 173.296C56.9976 169.726 70.2151 162.609 82.8672 165.221C96.0248 167.936 97.0348 178.458 97.0348 178.458H94.7549C93.7215 175.252 90.5487 169.244 81.0681 167.289Z" fill="#C18B71"/>
<path d="M55.1852 173.704C55.4352 172.572 57.1435 170.946 59.7888 169.386C60.2273 169.432 60.6643 169.484 61.1012 169.544C66.0981 170.238 69.3396 171.689 71.4412 173.224C73.2914 174.574 75.5202 175.303 77.8118 175.303H96.1532C96.9044 177.131 97.0345 178.457 97.0345 178.457H75.2673H56.6409C56.6409 178.457 54.434 177.099 55.1852 173.704Z" fill="#924921"/>
<path d="M97.033 180.035H56.6408C56.3485 180.035 56.062 179.956 55.8136 179.801C54.64 179.079 52.86 176.91 53.6433 173.366C54.6839 168.652 69.6509 160.897 83.187 163.674C97.3238 166.592 98.5939 178.191 98.6055 178.306C98.6465 178.751 98.5004 179.19 98.2021 179.519C97.9011 179.847 97.4773 180.035 97.033 180.035ZM57.2239 176.88H95.0659C94.1671 174.043 91.323 168.574 82.5497 166.764C69.8788 164.158 57.2765 171.687 56.7256 174.047C56.3792 175.609 56.8775 176.482 57.2239 176.878V176.88Z" fill="#592832"/>
<path d="M82.4797 180.035C81.8148 180.035 81.1922 179.608 80.9773 178.941C80.9612 178.889 79.2923 173.855 75.5465 172.646C74.7163 172.376 74.2618 171.487 74.5293 170.657C74.7938 169.829 75.681 169.378 76.5183 169.639C81.8176 171.352 83.8988 177.707 83.9836 177.976C84.2481 178.806 83.7907 179.692 82.9635 179.956C82.8013 180.007 82.6405 180.034 82.4812 180.034L82.4797 180.035Z" fill="#592832"/>
<path d="M91.402 180.035C90.7371 180.035 90.1145 179.608 89.8997 178.941C89.8836 178.893 88.2117 173.855 84.4689 172.646C83.6387 172.376 83.1842 171.487 83.4517 170.657C83.7191 169.829 84.6048 169.378 85.4407 169.639C90.7386 171.352 92.8212 177.707 92.9059 177.976C93.1705 178.806 92.716 179.688 91.8858 179.956C91.7266 180.007 91.5628 180.034 91.4036 180.034L91.402 180.035Z" fill="#592832"/>
<path d="M126.273 97.8086C131.75 99.387 136.325 110.231 136.24 117.53C136.156 124.828 130.64 135.18 125.549 138.067C120.457 140.951 114.261 137.302 114.432 131.532C114.581 126.483 117.133 118.575 125.557 112.982C124.769 108.254 125.127 103.158 126.275 97.8086H126.273Z" fill="#EAAC71"/>
<path d="M122.025 138.066C127.116 135.181 132.632 124.827 132.717 117.529C132.784 111.686 129.865 103.573 125.887 99.7601C126.002 99.1127 126.13 98.4624 126.271 97.8076C131.749 99.3859 136.323 110.23 136.238 117.529C136.153 124.827 130.638 135.179 125.546 138.066C123.735 139.092 121.786 139.288 120.032 138.859C120.705 138.694 121.373 138.434 122.025 138.066Z" fill="#F5D7BB"/>
<path d="M131.883 131.036C130.003 134.202 127.736 136.824 125.546 138.065C120.454 140.949 114.26 137.3 114.431 131.531C114.499 129.197 115.084 126.25 116.523 123.204C117.469 122.995 118.45 122.882 119.457 122.882C125.021 122.882 129.8 126.238 131.883 131.036Z" fill="#AE6745"/>
<path d="M124.77 138.447C124.593 138.523 124.416 138.593 124.238 138.655C124.206 138.667 124.175 138.677 124.144 138.689C123.931 138.76 123.719 138.82 123.505 138.871C123.47 138.879 123.433 138.885 123.398 138.894C123.206 138.937 123.015 138.971 122.824 138.998C122.794 139.002 122.765 139.007 122.736 139.011C122.288 139.068 121.842 139.085 121.401 139.061C121.387 139.061 121.373 139.061 121.359 139.057C120.909 139.031 120.465 138.964 120.032 138.859C120.705 138.694 121.373 138.434 122.025 138.066C124.898 136.438 127.907 132.43 129.998 127.937C130.757 128.876 131.396 129.915 131.883 131.037C131.431 131.798 130.957 132.527 130.465 133.214C130.438 133.253 130.41 133.293 130.383 133.33C130.285 133.466 130.185 133.601 130.085 133.732C130.046 133.786 130.005 133.839 129.965 133.891C129.87 134.014 129.776 134.136 129.683 134.255C129.634 134.315 129.587 134.375 129.539 134.433C129.449 134.546 129.357 134.659 129.265 134.768C129.213 134.83 129.161 134.89 129.108 134.951C129.017 135.056 128.928 135.162 128.837 135.264C128.783 135.323 128.729 135.382 128.676 135.44C128.528 135.603 128.381 135.759 128.231 135.912C128.15 135.995 128.07 136.078 127.99 136.157C127.923 136.224 127.854 136.287 127.786 136.352C127.703 136.428 127.622 136.507 127.539 136.582C127.472 136.643 127.405 136.702 127.338 136.76C127.253 136.834 127.168 136.908 127.084 136.98C127.019 137.034 126.956 137.086 126.891 137.138C126.802 137.209 126.711 137.279 126.622 137.347C126.563 137.392 126.502 137.436 126.442 137.481C126.342 137.555 126.241 137.623 126.142 137.69C126.093 137.723 126.043 137.759 125.994 137.791C125.845 137.887 125.694 137.98 125.546 138.065C125.343 138.179 125.139 138.281 124.932 138.374C124.878 138.399 124.825 138.422 124.769 138.446L124.77 138.447Z" fill="#C18B71"/>
<path d="M121.774 140.657C120.169 140.657 118.574 140.222 117.133 139.355C114.356 137.682 112.757 134.74 112.852 131.485C112.934 128.699 113.982 119.254 123.847 112.238C123.256 107.824 123.546 102.982 124.728 97.477C124.82 97.0503 125.084 96.6776 125.46 96.454C125.838 96.226 126.285 96.169 126.709 96.2918C132.977 98.0952 137.909 109.394 137.814 117.544C137.724 125.358 132.031 136.2 126.323 139.437C124.886 140.248 123.325 140.654 121.773 140.654L121.774 140.657ZM127.426 100.119C126.586 104.821 126.486 108.957 127.113 112.72C127.215 113.334 126.95 113.951 126.429 114.296C117.047 120.52 116.082 129.099 116.007 131.577C115.946 133.68 116.976 135.574 118.761 136.652C120.601 137.764 122.85 137.782 124.768 136.69C129.497 134.011 134.584 124.15 134.66 117.509C134.728 111.49 131.403 102.943 127.426 100.119Z" fill="#592832"/>
<path d="M125.56 114.558C125.048 114.558 124.548 114.312 124.242 113.854C123.759 113.128 123.957 112.149 124.683 111.665C125.982 110.801 127.388 110.01 128.86 109.315C129.646 108.939 130.588 109.277 130.961 110.064C131.337 110.854 130.999 111.793 130.212 112.166C128.875 112.797 127.604 113.515 126.429 114.295C126.163 114.472 125.857 114.557 125.558 114.557L125.56 114.558Z" fill="#592832"/>
<path d="M122.06 139.773C122.026 139.773 121.993 139.773 121.958 139.77C121.232 139.715 120.687 139.085 120.741 138.357C121.087 133.661 123.918 131.387 124.04 131.292C124.612 130.842 125.44 130.943 125.892 131.515C126.338 132.085 126.24 132.908 125.678 133.36C125.593 133.427 123.628 135.065 123.37 138.553C123.32 139.247 122.741 139.773 122.058 139.773H122.06Z" fill="#592832"/>
<path d="M117.035 137.342C117.001 137.342 116.968 137.342 116.934 137.339C116.208 137.286 115.663 136.654 115.717 135.926C116.063 131.232 118.893 128.959 119.012 128.865C119.586 128.414 120.412 128.515 120.864 129.088C121.311 129.658 121.213 130.482 120.648 130.936C120.532 131.03 118.6 132.67 118.346 136.122C118.295 136.816 117.716 137.342 117.033 137.342H117.035Z" fill="#592832"/>
<path d="M106.363 135.916C106.316 135.975 106.27 136.035 106.223 136.094C106.27 136.036 106.316 135.977 106.363 135.916Z" fill="#D6823C"/>
<path d="M106.841 135.22C106.768 135.337 106.693 135.451 106.617 135.562C106.693 135.451 106.769 135.341 106.841 135.22Z" fill="#D6823C"/>
<path d="M127.45 17.7617C138.014 24.4744 156.038 13.6988 164.654 25.5573C170.797 34.0104 159.747 44.536 150.056 45.0797L127.449 17.7617H127.45Z" fill="#EAAC71"/>
<path d="M165.268 29.6035C157.707 19.1964 142.899 26.2202 132.247 23.5589L127.45 17.7627C138.014 24.4752 156.038 13.6998 164.654 25.5581C166.072 27.5092 166.565 29.5685 166.379 31.5927C166.101 30.9218 165.742 30.2569 165.268 29.605V29.6035Z" fill="#F5D7BB"/>
<path d="M150.057 46.6569C149.589 46.6569 149.142 46.4494 148.842 46.0869L126.235 18.7676C125.74 18.1683 125.753 17.2989 126.265 16.7172C126.781 16.1282 127.639 16.0156 128.297 16.4263C132.464 19.0803 138.07 18.7121 144.007 18.3174C152.15 17.7884 160.557 17.2359 165.93 24.6295C168.34 27.9442 168.655 31.8975 166.818 35.766C164.055 41.5943 156.885 46.2755 150.143 46.654C150.116 46.6569 150.085 46.6569 150.056 46.6569H150.057ZM132.425 21.2988L150.745 43.4387C156.108 42.819 161.802 38.9768 163.967 34.4142C164.9 32.4514 165.553 29.4817 163.377 26.4856C159.024 20.4995 151.827 20.9642 144.214 21.4713C140.235 21.7329 136.165 22.0032 132.424 21.2988H132.425Z" fill="#592832"/>
<path d="M161.774 39.85C158.583 42.7876 154.197 44.8468 150.056 45.0807L140.996 34.1327C158.446 18.9655 166.621 35.0112 161.774 39.8516V39.85Z" fill="#EE857B"/>
<path d="M157.68 36.8336C159.644 34.8724 159.471 31.0711 157.407 28.252C162.937 30.1416 164.656 36.974 161.774 39.8487C158.583 42.7862 154.197 44.8455 150.056 45.0794L147.429 41.905C151.118 41.3322 154.866 39.4264 157.68 36.8336Z" fill="#FFBAB0"/>
<path d="M150.057 46.656C149.587 46.656 149.142 46.4485 148.842 46.0861L139.781 35.1396C139.235 34.4791 139.314 33.5028 139.961 32.9401C150.291 23.9638 158.119 25.2352 162.006 29.4078C165.264 32.8992 165.667 38.1942 162.891 40.9651C162.874 40.9811 162.86 40.9928 162.843 41.009C159.273 44.3001 154.525 46.4091 150.144 46.6531C150.117 46.656 150.086 46.656 150.057 46.656ZM143.213 34.3359L150.745 43.4379C154.188 43.0419 157.846 41.3114 160.68 38.7115C162.205 37.1551 161.743 33.7556 159.695 31.559C156.166 27.7664 150.062 28.8158 143.213 34.3359Z" fill="#592832"/>
<path d="M66.2077 4.92968C75.3887 1.38561 84.1166 10.1267 90.7809 13.3273C99.0952 10.2158 108.026 9.19281 116.886 11.0503C146.157 17.1842 163.021 54.9311 157.605 80.7759C153.823 98.8236 127.029 108.483 97.7551 102.349C68.4832 96.2149 47.818 76.6122 51.6003 58.5644C53.5776 49.1247 58.2237 40.0343 64.6176 32.3264C52.597 23.0534 53.8626 9.69555 66.2092 4.92968H66.2077Z" fill="#EAAC71"/>
<path d="M65.5925 5.18848C62.1331 11.1732 63.8796 19.3662 71.6897 26.0159C64.8296 33.5178 59.6749 42.5088 57.2065 51.9834C52.4889 70.0985 72.4818 90.9873 101.863 98.641C116.054 102.337 129.84 102.268 140.833 99.1686C129.612 104.279 114.07 105.769 97.7551 102.35C68.4832 96.2165 47.818 76.6137 51.6003 58.566C53.5776 49.1262 58.2237 40.0358 64.6176 32.3281C52.8016 23.2143 53.8305 10.1589 65.5925 5.18993V5.18848Z" fill="#D6823C"/>
<path d="M66.2076 4.92968C75.3886 1.38561 84.1165 10.1267 90.7809 13.3273C92.1781 12.8041 93.5942 12.3467 95.0236 11.9447L95.326 13.0175C88.7202 16.6171 84.8693 15.2097 79.2469 11.0416C72.7419 6.22016 60.0885 5.93518 56.4114 15.8001C57.164 11.176 60.4976 7.13359 66.2076 4.92822V4.92968Z" fill="#F5D7BB"/>
<path d="M153.189 79.8508C158.47 54.6505 142.566 18.1414 114.635 10.6484C115.385 10.7653 116.136 10.894 116.886 11.0503C146.158 17.1842 163.021 54.9312 157.605 80.7759C153.823 98.8236 127.029 108.482 97.7552 102.349C97.0157 102.194 96.282 102.027 95.5527 101.856C123.95 107.06 149.502 97.4425 153.188 79.8508H153.189Z" fill="#F5D7BB"/>
<path d="M122.239 26.1504C128.252 22.1298 133.418 21.3524 137.428 21.8404C140.428 24.5559 143.148 27.6454 145.562 30.9966C141.985 36.4362 130.919 37.8158 122.239 26.1504Z" fill="#D6823C"/>
<path d="M115.034 105.754C109.377 105.757 103.453 105.155 97.4305 103.893C67.3533 97.5915 46.102 77.1089 50.0553 58.2398C51.9407 49.2356 56.1979 40.385 62.399 32.5544C56.7138 27.6789 53.9604 21.6358 54.8125 15.7781C55.6089 10.2961 59.5549 5.80209 65.6376 3.45496C73.265 0.511549 80.4613 5.11958 86.2429 8.81712C87.8813 9.86499 89.4435 10.8646 90.8773 11.61C99.6373 8.45466 108.729 7.72538 117.207 9.50546C131.219 12.4386 143.449 22.479 151.642 37.7748C159.108 51.707 161.914 67.9016 159.147 81.0987C155.984 96.1914 137.64 105.754 115.033 105.754H115.034ZM66.7746 6.4013C61.7851 8.32752 58.564 11.9125 57.9371 16.2355C57.1916 21.3478 59.9787 26.7552 65.5791 31.0797C65.9182 31.3399 66.1359 31.7301 66.1856 32.1539C66.2323 32.5807 66.1038 33.0075 65.8305 33.3362C59.4131 41.0718 55.0258 49.9094 53.142 58.8902C49.5453 76.0567 69.7019 94.8615 98.0764 100.808C126.443 106.743 152.463 97.6207 156.059 80.4542C158.676 67.9644 155.984 52.5649 148.861 39.2684C141.115 24.81 129.646 15.3382 116.561 12.5965C108.337 10.8749 99.8522 11.6173 91.3332 14.8063C90.9357 14.9554 90.4885 14.9378 90.0968 14.7522C88.3372 13.9074 86.4928 12.728 84.5432 11.4799C79.0846 7.99138 72.9084 4.04978 66.7732 6.40421L66.7746 6.4013Z" fill="#592832"/>
<path d="M56.8369 14.0046C54.7309 18.2312 57.3865 26.6903 64.4775 32.2234C68.4732 27.6942 72.9862 23.5262 78.2447 19.8754C78.2447 19.8754 62.5761 2.48384 56.8369 14.0046Z" fill="white"/>
<path d="M56.8369 14.0046C54.7309 18.2312 57.3865 26.6903 64.4775 32.2234C68.4732 27.6942 72.9862 23.5262 78.2447 19.8754C78.2447 19.8754 62.5761 2.48384 56.8369 14.0046Z" fill="#EE857B"/>
<path d="M56.8369 14.0044C58.5439 10.5773 61.1307 9.70918 63.9222 10.1812C62.9181 10.8433 62.0398 11.8868 61.3529 13.4184C59.6561 17.1977 61.7534 24.0857 67.2281 29.2593C66.2854 30.2298 65.3661 31.2162 64.4775 32.2232C57.3865 26.6901 54.7309 18.2311 56.8369 14.0044Z" fill="#FFBAB0"/>
<path d="M64.4786 33.7999C64.1366 33.7999 63.7946 33.6917 63.5082 33.4652C55.6981 27.3738 53.0235 18.1212 55.4262 13.3013C56.8161 10.5113 58.8476 8.91393 61.4679 8.55586C68.9799 7.53283 78.3743 17.6609 79.4178 18.8184C79.7232 19.1545 79.868 19.6046 79.8139 20.0562C79.7626 20.5064 79.5186 20.9112 79.1459 21.1714C74.2675 24.5546 69.8598 28.5109 65.6639 33.2665C65.3525 33.6187 64.9156 33.7985 64.4801 33.7985L64.4786 33.7999ZM62.5845 11.6396C62.3478 11.6396 62.1169 11.6556 61.8903 11.6863C60.3485 11.8968 59.1589 12.8862 58.2497 14.7102C56.7445 17.728 58.4032 24.7782 64.3178 30.0366C67.9408 26.0731 71.7349 22.6532 75.8445 19.647C72.7667 16.5764 66.8886 11.6396 62.5831 11.6396H62.5845Z" fill="#592832"/>
<path d="M98.3088 11.1489C100.204 10.7718 102.565 10.4108 105.321 10.1989C128.967 9.51201 140.693 -4.8119 143.155 5.01505C145.618 14.842 132.632 18.0032 132.632 18.0032C132.632 18.0032 142.482 20.9685 140.965 26.9007C139.444 32.8503 125.603 31.6621 120.085 23.7219C110.863 21.1 103.082 17.328 98.3104 11.1489H98.3088Z" fill="#EAAC71"/>
<path d="M96.9165 65.6542C98.2055 65.6542 99.2504 64.6093 99.2504 63.3203C99.2504 62.0312 98.2055 60.9863 96.9165 60.9863C95.6274 60.9863 94.5825 62.0312 94.5825 63.3203C94.5825 64.6093 95.6274 65.6542 96.9165 65.6542Z" fill="white"/>
<path d="M140.039 70.6246C140.259 69.5943 141.206 68.925 142.152 69.1281C143.096 69.3298 143.687 70.3295 143.466 71.3597C143.244 72.3945 142.296 73.0639 141.353 72.8622C140.408 72.6605 139.818 71.6609 140.04 70.6261L140.039 70.6246Z" fill="white"/>
<path d="M103.974 13.5871C96.0759 12.9162 94.214 13.2202 92.9396 13.4073C91.6973 12.3141 99.3043 12.4399 98.3091 11.1493C100.206 10.7708 102.563 10.4113 105.32 10.1979C128.967 9.51102 140.695 -4.81143 143.154 5.01261C143.441 6.13502 143.514 7.1712 143.436 8.12554C140.434 0.204349 128.591 14.3164 103.974 13.5871Z" fill="#F5D7BB"/>
<path d="M133.13 18.17C134.334 18.5953 137.46 19.8404 139.427 21.9084C135.189 22.7561 128.285 22.0648 125.408 17.9902C128.381 18.4901 130.955 18.5515 133.13 18.1715V18.17Z" fill="#D6823C"/>
<path d="M89.2931 52.8549C89.5007 52.8097 89.7082 52.7965 89.9128 52.8272C91.2925 53.0318 92.64 53.2715 93.9846 53.6514C95.5556 54.0958 97.0917 54.6614 98.5911 55.3059C99.9006 55.8685 102.686 56.9851 103.104 58.5855C103.3 59.3323 103.401 60.1039 103.401 60.8755C103.402 66.1106 99.1537 70.362 93.9188 70.3634C88.678 70.3649 84.4323 66.1163 84.4309 60.8814C84.4309 59.1028 84.9643 57.3534 85.9479 55.8729C86.6041 54.885 87.9486 53.1546 89.2931 52.8565V52.8549Z" fill="#592832"/>
<path d="M98.0635 64.7138C99.3525 64.7138 100.397 63.6689 100.397 62.3799C100.397 61.0908 99.3525 60.0459 98.0635 60.0459C96.7744 60.0459 95.7295 61.0908 95.7295 62.3799C95.7295 63.6689 96.7744 64.7138 98.0635 64.7138Z" fill="white"/>
<path d="M139.124 64.9924C139.26 64.8916 139.402 64.798 139.554 64.7118C140.524 64.1638 141.622 63.8262 142.729 63.7107C144.749 63.4988 149.313 63.1816 150.515 65.2949C151.029 66.2025 151.083 67.5062 151.019 68.5218C150.935 69.8518 150.532 71.151 149.883 72.3129C147.731 76.1552 143.381 77.8183 140.17 76.0207C138.205 74.9216 137.164 72.7558 137.073 70.5591C136.992 68.5715 137.46 66.2318 139.123 64.9924H139.124Z" fill="#592832"/>
<path d="M140.325 71.3491C141.168 71.8211 142.27 71.4601 142.788 70.5366C143.302 69.6173 143.034 68.489 142.19 68.0169C141.347 67.5449 140.245 67.9058 139.73 68.8251C139.213 69.7488 139.484 70.877 140.325 71.3491Z" fill="white"/>
<path d="M134.032 32.2244C128.781 32.2244 122.296 29.6728 118.787 24.6248C118.289 23.9087 118.465 22.9237 119.181 22.4282C119.9 21.924 120.882 22.1095 121.376 22.8213C124.703 27.6048 131.547 29.699 135.972 28.904C137.09 28.7038 139.021 28.1235 139.435 26.5101C140.547 22.1637 132.262 19.5374 132.177 19.5126C131.496 19.3094 131.037 18.6722 131.055 17.9605C131.072 17.2487 131.566 16.6378 132.258 16.4683C132.319 16.4522 138.503 14.8914 140.93 10.8548C141.911 9.2267 142.138 7.44371 141.625 5.39764C141.212 3.75055 140.632 3.45242 140.442 3.35595C139.055 2.63399 135.655 3.98585 131.719 5.54525C125.432 8.03414 116.817 11.4438 105.367 11.777C98.0986 12.3396 93.6075 14.0072 93.5651 14.0248C92.7438 14.3404 91.8392 13.9224 91.5307 13.1055C91.2223 12.2915 91.6316 11.3824 92.4456 11.074C92.6415 10.9995 97.365 9.23255 105.201 8.62604C116.174 8.30451 124.487 5.01473 130.56 2.60915C135.777 0.544081 139.23 -0.810705 141.883 0.545543C143.257 1.25144 144.178 2.58722 144.689 4.63329C145.405 7.49778 145.049 10.1445 143.628 12.4975C141.978 15.2261 139.191 17.0164 136.884 18.1081C139.977 19.7785 143.649 22.7805 142.492 27.292C141.873 29.7195 139.7 31.4411 136.536 32.0111C135.746 32.1543 134.907 32.2244 134.033 32.2244H134.032Z" fill="#592832"/>
<path d="M130.788 19.6237C127.466 19.6237 124.63 18.722 124.428 18.6547C123.598 18.3844 123.147 17.4958 123.415 16.6687C123.686 15.8444 124.572 15.3811 125.402 15.6544C125.473 15.6749 132.356 17.8451 136.022 15.0376C136.718 14.513 137.705 14.6401 138.236 15.3299C138.766 16.0241 138.634 17.0121 137.944 17.5441C135.849 19.1502 133.189 19.6223 130.788 19.6223V19.6237Z" fill="#592832"/>
<path d="M122.86 75.5765C123.617 71.9646 120.942 68.3479 116.886 67.4983C112.83 66.6488 108.929 68.8881 108.172 72.5C107.416 76.1119 110.091 79.7287 114.146 80.5782C118.202 81.4277 122.104 79.1884 122.86 75.5765Z" fill="#FFE5C0"/>
<path d="M132.576 77.2815C133.248 74.0788 131.325 70.9659 128.283 70.3286C125.24 69.6915 122.23 71.7712 121.559 74.9739C120.889 78.1765 122.811 81.2894 125.853 81.9267C128.895 82.5639 131.906 80.4841 132.576 77.2815Z" fill="#FFE5C0"/>
<path d="M121.914 78.0134C126.335 79.1183 130.732 71.9907 128.371 70.4284C126.011 68.8661 119.171 67.7758 118.358 69.9607C117.544 72.1456 118.25 77.0986 121.914 78.0134Z" fill="#DBAB7A"/>
<path d="M122.461 75.8217C126.882 76.9266 130.813 71.6697 128.396 70.328C125.98 68.9864 119.177 67.7558 118.498 69.397C117.819 71.0383 118.799 74.9067 122.461 75.8217Z" fill="#592832"/>
<path d="M115.069 82.1594C112.249 82.1594 109.834 81.2518 108.225 79.5361C107.629 78.9018 107.66 77.9022 108.297 77.3059C108.928 76.7126 109.931 76.7433 110.527 77.3775C112.428 79.4046 115.775 79.0494 117.124 78.8083C117.995 78.6489 118.561 78.3946 119.205 77.8686C120.202 77.0618 120.896 75.9234 121.16 74.6621C121.337 73.8071 122.163 73.2678 123.028 73.4417C123.882 73.6186 124.428 74.4561 124.249 75.3095C123.838 77.2767 122.754 79.0582 121.197 80.3194C120.136 81.1832 119.089 81.6611 117.691 81.9154C116.789 82.079 115.911 82.1594 115.071 82.1594H115.069Z" fill="#592832"/>
<path d="M127.933 84.5179C124.205 84.5179 120.889 81.4795 120.047 78.3344C119.82 77.4941 120.319 76.6289 121.162 76.4024C122.023 76.1642 122.871 76.6742 123.094 77.5175C123.66 79.6235 126.2 81.7485 128.577 81.3042C129.437 81.1581 130.254 81.7207 130.41 82.5786C130.564 83.4364 129.993 84.2593 129.136 84.4127C128.732 84.4844 128.329 84.5179 127.933 84.5179Z" fill="#592832"/>
<path d="M126.115 81.8379C126.115 81.8379 125.989 82.06 125.776 82.4268C124.773 84.15 121.844 89.0664 120.99 89.2169C119.955 89.3995 114.042 88.4262 113.538 87.6546C113.033 86.8844 113.456 80.3648 113.456 80.3648C113.456 80.3648 117.514 82.0688 121.392 78.2148C121.392 78.2148 123.494 82.2003 126.115 81.8379Z" fill="white"/>
<path d="M113.456 80.3676C113.456 80.3676 117.514 82.0717 121.392 78.2178C121.392 78.2178 123.494 82.2032 126.115 81.8408C126.115 81.8408 125.989 82.063 125.776 82.4298C125.423 83.0334 124.837 84.0315 124.183 85.078C122.842 84.6439 121.179 83.8284 120.244 82.307C118.504 84.071 115.432 84.0622 113.311 83.6369C113.355 81.943 113.457 80.3676 113.457 80.3676H113.456Z" fill="#C6AEA7"/>
<path d="M120.824 90.7969C119.028 90.7969 113.248 90.0984 112.216 88.5184C111.956 88.1253 111.423 87.304 111.895 80.5345C111.928 80.0697 112.165 79.6429 112.542 79.3682C112.919 79.0905 113.4 78.9984 113.852 79.1139C113.988 79.1446 117.438 79.9148 120.245 77.1307C120.271 77.1044 120.296 77.0794 120.325 77.0532C120.956 76.473 121.935 76.5037 122.531 77.1248C122.738 77.3411 122.871 77.6027 122.932 77.8746C123.163 78.4269 123.322 78.7354 123.511 79.0232C124.081 79.9089 125.308 80.9276 125.746 80.9787C126.613 80.986 127.304 81.6934 127.302 82.5644C127.299 82.9853 127.129 83.3711 126.858 83.6533C126.811 83.7453 126.767 83.8359 126.76 83.8491C126.64 84.0668 126.526 84.2787 126.387 84.4892C126.24 84.7098 126.106 84.9364 125.976 85.16L125.678 85.6555C125.141 86.5206 124.591 87.3844 124.006 88.2188C123.654 88.723 123.291 89.2215 122.886 89.6833C122.564 90.056 122.065 90.6361 121.256 90.775C121.165 90.791 121.018 90.7983 120.824 90.7983V90.7969ZM114.916 86.6449C116.102 87.076 119.248 87.6314 120.452 87.6621C120.903 87.1403 121.166 86.7735 121.422 86.4051C121.971 85.6189 122.491 84.8078 122.997 83.9908L123.259 83.5509C123.305 83.472 123.354 83.3887 123.402 83.3097C122.185 82.4928 121.213 81.2886 120.857 80.7332C120.851 80.723 120.843 80.7127 120.836 80.6996C118.673 82.1274 116.45 82.3569 114.948 82.3817C114.866 84.1106 114.84 85.8235 114.914 86.6434L114.916 86.6449Z" fill="#592832"/>
<path d="M117.899 88.9469C117.808 88.9469 117.719 88.9293 117.628 88.8899C117.289 88.7408 117.134 88.3447 117.282 88.0042C117.31 87.9458 119.923 81.9259 120.734 78.0808C120.811 77.7154 121.168 77.4713 121.53 77.562C121.892 77.6394 122.126 77.996 122.049 78.3585C121.209 82.338 118.622 88.2921 118.514 88.5449C118.403 88.7962 118.157 88.9483 117.897 88.9483L117.899 88.9469Z" fill="#592832"/>
<path opacity="0.4" d="M152.211 57.4746C145.693 55.6536 138.503 54.255 134.863 56.1024C131.225 57.9497 130.704 67.1789 131.33 72.9663C131.955 78.7523 134.923 81.456 145.331 83.0724C150.61 83.8938 155.726 82.5113 157.498 75.879C159.269 69.2469 161.339 60.0235 152.211 57.4746Z" fill="#F5D7BB"/>
<path d="M153.662 77.0568C155.308 70.8879 157.231 62.312 148.748 59.9429C142.789 58.2783 136.263 57.0273 132.827 58.6144C133.409 57.0653 134.184 55.8318 135.256 55.2867C138.895 53.4409 146.085 54.8365 152.607 56.6561C161.733 59.2063 159.662 68.4312 157.893 75.0649C156.628 79.8 153.625 81.7847 150.106 82.2757C151.66 81.2001 152.969 79.629 153.661 77.0554L153.662 77.0568Z" fill="white"/>
<path d="M147.897 85.3874C146.975 85.3874 146.011 85.3098 145.007 85.1565C134.137 83.464 130.011 80.3349 129.238 73.1957C129.169 72.5541 127.612 57.4278 133.911 54.2287C137.412 52.4486 143.41 52.8344 152.777 55.449C164.27 58.6598 161.067 70.6601 159.529 76.4255C157.983 82.2232 153.81 85.3888 147.897 85.3888V85.3874ZM139.48 57.3387C137.656 57.3387 136.521 57.6207 135.816 57.9788C133.837 58.9858 132.695 66.0228 133.419 72.7427C133.843 76.6448 134.922 79.3266 145.654 80.997C151.023 81.8272 154.227 79.9741 155.464 75.3397C157.787 66.6337 157.905 61.251 151.647 59.5017C145.824 57.8779 141.996 57.3387 139.48 57.3387Z" fill="#592832"/>
<path opacity="0.4" d="M76.3342 53.5904C74.69 64.3075 75.3696 72.8323 88.4381 74.95C101.78 77.1115 106.87 74.1285 109.865 68.3324C112.731 62.786 114.242 53.6314 110.758 50.8647C107.358 48.1654 98.5413 45.9952 90.8598 45.3975C83.2396 44.804 77.6918 44.7456 76.3356 53.5904H76.3342Z" fill="#F5D7BB"/>
<path d="M105.272 69.4084C107.921 64.283 109.316 55.8166 106.099 53.2605C102.954 50.7628 94.8001 48.7591 87.6973 48.2038C83.5439 47.8808 80.0875 47.7741 77.6702 49.3802C80.0275 44.8731 84.754 44.9199 90.8571 45.3977C98.5414 45.9955 107.357 48.1643 110.754 50.8637C114.242 53.6346 112.729 62.7864 109.865 68.3312C107.684 72.5534 104.346 75.2542 97.5623 75.5874C101.434 74.617 103.693 72.4555 105.27 69.4084H105.272Z" fill="white"/>
<path d="M96.2061 77.7674C93.8092 77.7674 91.1215 77.516 88.1007 77.0279C73.1031 74.5945 72.5813 64.1698 74.2533 53.2701C75.9617 42.1264 84.3009 42.7738 91.0237 43.297C98.2814 43.8626 107.961 45.9554 112.066 49.2189C116.711 52.9077 114.856 63.2505 111.731 69.2982C108.735 75.0958 104.025 77.7689 96.2045 77.7689L96.2061 77.7674ZM86.3484 47.2781C81.3984 47.2781 79.2266 48.6036 78.4155 53.9059C76.7378 64.845 77.8908 71.106 88.7745 72.87C101.362 74.9102 105.457 72.2737 107.993 67.3647C110.844 61.849 111.592 54.2142 109.45 52.5102C106.616 50.2624 98.5576 48.1038 90.6963 47.493C89.0521 47.3643 87.6082 47.2767 86.3499 47.2767L86.3484 47.2781Z" fill="#592832"/>
<path d="M130.907 63.8906C130.437 63.8906 129.967 63.7373 129.575 63.4186C129.293 63.1907 123.409 58.5987 114.434 61.1607C113.311 61.4792 112.152 60.8318 111.831 59.7138C111.512 58.5957 112.159 57.4294 113.277 57.1109C124.484 53.9307 131.929 59.9038 132.241 60.161C133.141 60.8976 133.269 62.226 132.533 63.1234C132.116 63.6291 131.513 63.8921 130.906 63.8921L130.907 63.8906Z" fill="#592832"/>
<path d="M76.2669 55.4976C76.2231 55.4976 76.1793 55.4974 76.1354 55.4946L54.1139 54.1515C52.955 54.0798 52.0723 53.0831 52.141 51.9213C52.2125 50.7594 53.253 49.8533 54.3711 49.9482L76.3926 51.2914C77.5516 51.363 78.4343 52.3598 78.3656 53.5215C78.2969 54.6367 77.3688 55.4976 76.2669 55.4976Z" fill="#592832"/>
<path d="M104.214 147.374H138.046C138.882 147.374 139.631 146.87 139.951 146.098L156.644 105.321C156.89 104.72 156.838 104.045 156.506 103.485L155.643 102.037C155.271 101.414 154.602 101.036 153.875 101.036H120.043C119.208 101.036 118.458 101.54 118.138 102.312L101.445 143.088C101.199 143.689 101.251 144.365 101.583 144.925L102.446 146.373C102.818 146.996 103.488 147.374 104.214 147.374Z" fill="#2EA8A8"/>
<path d="M118.139 102.317C118.351 101.808 118.751 101.413 119.243 101.207L122.761 109.794L106.658 147.372H104.215C103.489 147.372 102.819 146.996 102.447 146.371L101.584 144.924C101.252 144.369 101.2 143.689 101.446 143.088L118.139 102.311V102.317Z" fill="#008484"/>
<path d="M120.124 105.67L104.226 144.495C103.665 145.868 104.672 147.379 106.16 147.379H138.024C138.87 147.379 139.637 146.864 139.957 146.081L155.855 107.254C156.415 105.881 155.408 104.371 153.921 104.371H122.058C121.21 104.371 120.444 104.886 120.124 105.67Z" fill="#89797F"/>
<path d="M120.124 105.67L104.226 144.495C103.665 145.868 104.672 147.379 106.16 147.379H138.024C138.87 147.379 139.637 146.864 139.957 146.081L155.855 107.254C156.415 105.881 155.408 104.371 153.921 104.371H122.058C121.21 104.371 120.444 104.886 120.124 105.67Z" fill="#66D9D9"/>
<path d="M120.82 106.477L105.232 144.548C104.683 145.899 105.672 147.374 107.125 147.374H138.372C139.201 147.374 139.95 146.87 140.265 146.104L155.853 108.033C156.404 106.683 155.413 105.207 153.96 105.207H122.714C121.884 105.207 121.136 105.71 120.82 106.477Z" fill="#33CCCC"/>
<path d="M104.214 147.374H138.046C138.882 147.374 139.631 146.87 139.951 146.098L156.644 105.321C156.89 104.72 156.838 104.045 156.506 103.485L155.643 102.037C155.271 101.414 154.602 101.036 153.875 101.036H120.043C119.208 101.036 118.458 101.54 118.138 102.312L101.445 143.088C101.199 143.689 101.251 144.365 101.583 144.925L102.446 146.373C102.818 146.996 103.488 147.374 104.214 147.374Z" stroke="#592832" stroke-width="3.08916" stroke-linecap="round" stroke-linejoin="round"/>
<path d="M125.037 111.745C123.78 111.745 122.761 110.894 122.761 109.846C122.761 108.797 123.78 107.946 125.037 107.946C126.295 107.946 127.315 108.797 127.315 109.846C127.315 110.894 126.295 111.745 125.037 111.745Z" fill="#008484"/>
<path d="M124.512 111.287C123.573 111.287 122.813 110.651 122.813 109.868C122.813 109.084 123.573 108.449 124.512 108.449C125.451 108.449 126.211 109.084 126.211 109.868C126.211 110.651 125.451 111.287 124.512 111.287Z" fill="#065555"/>
<path d="M147.39 135.228C143.642 134.745 141.065 130.783 141.632 126.381C142.2 121.979 145.698 118.802 149.446 119.285C153.194 119.769 155.772 123.73 155.204 128.132C154.636 132.534 151.137 135.711 147.39 135.228Z" fill="#AE6745"/>
<path d="M141.623 126.364C142.189 121.965 145.69 118.783 149.437 119.27C150.124 119.356 150.77 119.567 151.365 119.871C148.087 119.888 145.169 122.771 144.667 126.673C144.146 130.706 146.4 134.338 149.746 135.024C148.985 135.237 148.191 135.317 147.378 135.207C143.631 134.722 141.056 130.763 141.623 126.364Z" fill="#875036"/>
<path d="M145.536 133.785C148.974 134.225 152.138 131.68 152.601 128.093C153.065 124.511 150.656 121.251 147.219 120.805C146.114 120.662 145.044 120.833 144.077 121.239C145.525 119.792 147.442 119.009 149.438 119.266C153.185 119.753 155.765 123.711 155.193 128.11C154.627 132.51 151.125 135.69 147.378 135.204C145.902 135.015 144.616 134.277 143.62 133.196C144.209 133.487 144.849 133.694 145.536 133.779V133.785Z" fill="#C18B71"/>
<path d="M147.39 135.228C143.642 134.745 141.065 130.783 141.632 126.381C142.2 121.979 145.698 118.802 149.446 119.285C153.194 119.769 155.772 123.73 155.204 128.132C154.636 132.534 151.137 135.711 147.39 135.228Z" stroke="#592832" stroke-width="3.08916" stroke-linecap="round" stroke-linejoin="round"/>
<path d="M147.755 129.511C147.755 129.511 145.352 128.258 142.005 129.511" stroke="#592832" stroke-width="2.58001" stroke-linecap="round" stroke-linejoin="round"/>
<path d="M148.31 124.287C148.31 124.287 145.907 123.035 142.56 124.287" stroke="#592832" stroke-width="2.58001" stroke-linecap="round" stroke-linejoin="round"/>
<path d="M94.756 102.661C96.9278 108.308 101.201 114.027 112.335 117.704C113.125 117.944 113.719 118.212 114.349 118.479C114.351 118.479 114.354 118.48 114.357 118.482C118.072 120.059 120.415 123.74 119.822 127.602C119.109 132.243 114.433 135.375 109.38 134.598C109.38 134.598 91.8653 133.656 84.5784 122.902C82.4709 112.188 85.6044 105.257 94.756 102.663V102.661Z" fill="#E8AB71"/>
<path d="M115.817 129.616C116.51 125.771 114.262 122.029 110.588 120.358C110.588 120.358 110.582 120.356 110.579 120.355C109.958 120.072 109.371 119.787 108.587 119.528C99.437 116.245 94.9415 111.566 92.5185 106.814C91.719 105.246 92.5725 103.334 94.2532 102.812C94.4183 102.761 94.5864 102.711 94.756 102.663C96.9277 108.31 101.201 114.029 112.335 117.706C113.125 117.946 113.719 118.214 114.348 118.481C114.351 118.481 114.354 118.482 114.357 118.483C118.072 120.061 120.415 123.742 119.822 127.604C119.276 131.157 116.406 133.818 112.824 134.525C114.36 133.315 115.458 131.618 115.817 129.617V129.616Z" fill="#F4D6BA"/>
<path d="M111.344 130.053C114.204 130.696 117.039 130.384 119.334 129.36C117.859 133.002 113.764 135.272 109.38 134.598C109.38 134.598 91.8655 133.655 84.5787 122.9C84.5742 122.876 84.5698 122.854 84.5654 122.83C84.1738 120.816 86.5458 119.467 88.1387 120.761C97.1765 128.102 111.344 130.053 111.344 130.053Z" fill="#D6813A"/>
<path d="M103.877 124.506C104.585 121.156 106.243 118.297 108.437 116.217C109.634 116.741 110.929 117.238 112.335 117.703C113.125 117.943 113.719 118.212 114.349 118.477C114.351 118.477 114.354 118.48 114.357 118.481C118.072 120.058 120.416 123.739 119.822 127.602C119.109 132.241 114.433 135.373 109.38 134.598C109.38 134.598 107.496 134.494 104.715 133.982C103.534 131.182 103.165 127.877 103.877 124.508V124.506Z" fill="#AD6746"/>
<path d="M109.293 134.593C108.894 134.567 107.148 134.431 104.715 133.98C103.979 132.239 103.56 130.3 103.519 128.273C107.996 129.589 111.344 130.053 111.344 130.053C114.204 130.696 117.039 130.383 119.334 129.36C119.151 129.809 118.927 130.239 118.668 130.644C118.665 130.65 118.661 130.657 118.659 130.663C118.411 131.049 118.128 131.409 117.821 131.748C117.789 131.783 117.757 131.82 117.725 131.854C117.421 132.179 117.09 132.481 116.735 132.756C116.696 132.787 116.655 132.815 116.615 132.846C116.248 133.122 115.861 133.377 115.449 133.597C115.446 133.598 115.442 133.599 115.437 133.602C115.031 133.818 114.601 134.001 114.159 134.157C114.11 134.175 114.064 134.194 114.015 134.212C113.59 134.354 113.149 134.463 112.699 134.547C112.618 134.561 112.538 134.575 112.456 134.588C112.007 134.66 111.55 134.703 111.084 134.711C111.011 134.711 110.936 134.709 110.863 134.709C110.373 134.706 109.878 134.678 109.377 134.6C109.377 134.6 109.347 134.599 109.29 134.594L109.293 134.593Z" fill="#924921"/>
<path d="M119.459 129.012C119.331 129.378 119.184 129.733 119.008 130.071C118.999 130.088 118.987 130.104 118.978 130.123C118.801 130.452 118.598 130.765 118.378 131.064C118.335 131.123 118.293 131.181 118.249 131.239C118.008 131.549 117.75 131.848 117.468 132.124C117.46 132.131 117.452 132.137 117.444 132.144C117.158 132.42 116.849 132.677 116.525 132.913C116.493 132.936 116.462 132.961 116.43 132.983C115.739 133.475 114.97 133.874 114.147 134.162C114.14 134.164 114.133 134.168 114.125 134.17C113.706 134.316 113.272 134.434 112.827 134.522C114.363 133.312 115.461 131.615 115.821 129.614C116.513 125.769 114.265 122.028 110.591 120.357C110.591 120.357 110.585 120.355 110.583 120.353C109.961 120.072 109.374 119.786 108.591 119.528C107.815 119.249 107.082 118.956 106.372 118.657C106.987 117.761 107.679 116.938 108.44 116.216C109.637 116.74 110.932 117.239 112.338 117.702C113.129 117.942 113.722 118.211 114.352 118.477C114.355 118.477 114.358 118.478 114.361 118.479C118.076 120.056 120.418 123.739 119.825 127.6C119.764 127.997 119.665 128.378 119.547 128.751C119.52 128.839 119.491 128.925 119.463 129.011L119.459 129.012Z" fill="#C08A71"/>
<path d="M110.911 136.375C110.322 136.375 109.729 136.331 109.128 136.239C108.542 136.215 90.8657 135.14 83.2046 123.831C82.6901 123.072 82.8918 122.04 83.6488 121.527C84.4117 121.012 85.4421 121.215 85.9536 121.971C92.6822 131.904 109.304 132.934 109.47 132.944C113.773 133.584 117.609 131.081 118.183 127.353C118.646 124.342 116.807 121.324 113.711 120.011C112.932 119.679 112.454 119.476 111.851 119.292C99.0367 115.058 95.0747 108.114 93.2084 103.258C92.8796 102.403 93.3062 101.441 94.1612 101.112C95.0147 100.784 95.9778 101.215 96.3067 102.065C98.0692 106.651 101.542 112.392 112.853 116.128C113.552 116.341 114.131 116.582 114.708 116.829C119.502 118.861 122.156 123.345 121.461 127.856C120.695 132.835 116.146 136.375 110.911 136.375Z" fill="#592832"/>
<path d="M117.387 127.816C113.649 127.816 111.718 125.994 111.62 125.901C110.962 125.263 110.945 124.213 111.582 123.555C112.216 122.905 113.253 122.881 113.907 123.498C114.018 123.596 115.759 125.05 119.392 124.274C120.26 124.098 121.168 124.654 121.359 125.553C121.549 126.449 120.976 127.33 120.08 127.519C119.1 127.727 118.2 127.812 117.388 127.812L117.387 127.816Z" fill="#592832"/>
<path d="M115.841 133.436C112.101 133.436 110.169 131.614 110.074 131.521C109.416 130.881 109.398 129.833 110.036 129.175C110.67 128.525 111.7 128.501 112.364 129.119C112.475 129.219 114.211 130.665 117.846 129.894C118.714 129.717 119.621 130.274 119.813 131.173C120.003 132.069 119.43 132.951 118.534 133.141C117.551 133.347 116.653 133.432 115.842 133.432L115.841 133.436Z" fill="#592832"/>
</g>
</g>
<defs>
<clipPath id="clip0_2289_43804">
<rect width="170" height="180.035" fill="white"/>
</clipPath>
</defs>
</svg>
