<svg width="154" height="192" viewBox="0 0 154 192" fill="none" xmlns="http://www.w3.org/2000/svg">
<g clip-path="url(#clip0_2105_10886)">
<path d="M27.1068 137.392C14.7267 144.489 9.55937 172.22 33.0032 179.404C50.3976 183.942 54.465 170.802 54.9364 167.429C56.4485 156.589 40.1884 140.706 27.1068 137.392Z" fill="#EAAC71"/>
<path d="M36.0552 179.403C13.3653 172.449 17.4754 146.253 28.9858 138.139C28.1629 137.845 27.3483 137.593 26.5448 137.389C14.1647 144.486 8.99601 172.217 32.4412 179.401C35.734 180.26 38.5486 180.485 40.9524 180.263C39.45 180.137 37.8222 179.862 36.0538 179.401L36.0552 179.403Z" fill="#F5D7BB"/>
<path d="M39.76 181.913C37.5436 181.913 35.1578 181.581 32.6093 180.917C32.5872 180.911 32.5665 180.906 32.5458 180.899C18.9391 176.73 15.8489 166.664 15.219 161.036C14.1012 151.056 18.8771 140.309 26.3296 136.036C26.6811 135.835 27.0973 135.777 27.4902 135.878C41.2885 139.374 58.1481 155.721 56.4845 167.646C56.3784 168.41 55.2702 175.224 49.2773 179.224C46.5909 181.016 43.407 181.915 39.7613 181.915L39.76 181.913ZM33.4294 177.9C39.2528 179.413 44.0024 178.983 47.5406 176.622C52.4832 173.324 53.3543 167.46 53.3888 167.212C54.7671 157.334 39.4678 142.513 27.3454 139.072C21.3167 142.928 17.3816 152.262 18.3257 160.686C18.8702 165.549 21.5565 174.247 33.4307 177.898L33.4294 177.9Z" fill="#592832"/>
<path d="M51.6003 190.368H11.6001C11.6001 190.368 12.5994 179.948 25.6286 177.259C38.6579 174.57 52.2991 182.301 53.0421 185.663C53.785 189.024 51.6003 190.368 51.6003 190.368Z" fill="#AE6745"/>
<path d="M51.6003 190.368H11.6001C11.6001 190.368 12.5994 179.948 25.6286 177.259C38.6579 174.57 52.2991 182.301 53.0421 185.663C53.785 189.024 51.6003 190.368 51.6003 190.368Z" fill="#AE6745"/>
<path d="M27.4094 179.308C37.8033 177.163 48.579 181.647 52.8932 185.257C51.2461 181.723 38.1576 174.675 25.6286 177.261C12.5994 179.95 11.6001 190.37 11.6001 190.37H13.8578C14.8819 187.195 18.0231 181.246 27.4108 179.309L27.4094 179.308Z" fill="#C18B71"/>
<path d="M53.0421 185.663C52.794 184.541 51.1027 182.932 48.4839 181.386C48.0498 181.431 47.617 181.482 47.1842 181.542C42.2374 182.229 39.0259 183.667 36.9446 185.186C35.1129 186.523 32.9048 187.244 30.6361 187.244H12.4726C11.7297 189.055 11.6001 190.368 11.6001 190.368H51.6003C51.6003 190.368 53.785 189.025 53.0421 185.663Z" fill="#924921"/>
<path d="M51.6009 191.933H11.6007C11.1596 191.933 10.7406 191.747 10.4443 191.422C10.1479 191.096 10.0032 190.66 10.0445 190.221C10.0556 190.105 11.3154 178.62 25.3136 175.731C38.7177 172.966 53.5361 180.657 54.5684 185.328C55.3444 188.839 53.5829 190.986 52.4196 191.703C52.1729 191.855 51.8903 191.934 51.6009 191.934V191.933ZM13.562 188.807H51.0234C51.3666 188.416 51.8586 187.55 51.5168 186.001C51.3528 185.301 48.7698 182.763 43.3461 180.638C39.9527 179.308 33.1783 177.299 25.9476 178.792C17.3152 180.573 14.4703 186.005 13.5634 188.807H13.562Z" fill="#592832"/>
<path d="M26.0146 191.929C25.8561 191.929 25.6948 191.905 25.5363 191.854C24.7162 191.589 24.2641 190.714 24.526 189.892C24.6114 189.625 26.6748 183.331 31.9193 181.636C32.738 181.37 33.6215 181.821 33.8875 182.642C34.1522 183.464 33.7015 184.345 32.8814 184.611C29.1751 185.808 27.5197 190.795 27.5032 190.846C27.2895 191.508 26.6748 191.929 26.0146 191.929Z" fill="#592832"/>
<path d="M17.1786 191.929C17.0201 191.929 16.8589 191.905 16.7004 191.854C15.8803 191.589 15.4282 190.714 15.6901 189.892C15.7755 189.625 17.8389 183.331 23.0834 181.636C23.9021 181.37 24.7856 181.821 25.0516 182.642C25.3162 183.464 24.8655 184.345 24.0454 184.611C20.3391 185.808 18.6838 190.795 18.6672 190.846C18.4536 191.508 17.8389 191.929 17.1786 191.929Z" fill="#592832"/>
<path d="M95.3421 166.007C115.073 164.72 117.623 146.656 109.91 125.172C102.196 103.688 108.119 87.7685 124.601 85.9436C141.082 84.1173 156.533 104 150.868 129.339C145.203 154.678 121.271 178.003 89.2444 179.084L95.3421 166.007Z" fill="#EAAC71"/>
<path d="M95.3421 166.007C115.073 164.72 117.623 146.656 109.91 125.172C102.196 103.688 108.119 87.7685 124.601 85.9436C141.082 84.1173 156.533 104 150.868 129.339C145.203 154.678 121.271 178.003 89.2444 179.084L95.3421 166.007Z" fill="#AE6745"/>
<path d="M100.19 166.007C119.92 164.72 121.766 145.219 114.053 123.735C106.387 102.383 112.9 87.9694 129.154 85.9846C127.655 85.7917 126.132 85.7738 124.601 85.9433C108.12 87.7696 102.198 103.689 109.91 125.172C117.623 146.656 115.073 164.72 95.3421 166.007L89.2444 179.083C90.9397 179.025 92.6102 178.903 94.2587 178.724L100.19 166.007Z" fill="#C18B71"/>
<path d="M139.697 124.548C139.345 124.178 138.77 124.174 138.405 124.522C137.283 125.608 136.125 126.766 134.958 127.981C133.19 124.802 131.133 121.528 129.004 118.366C131.016 116.162 133.128 113.953 135.26 111.873C136.096 113.374 136.881 114.883 137.585 116.38C137.741 116.714 138.07 116.905 138.413 116.905C138.543 116.905 138.671 116.879 138.801 116.821C139.256 116.603 139.451 116.06 139.238 115.605C138.449 113.931 137.563 112.244 136.623 110.565C137.42 109.812 138.218 109.082 139.014 108.379C139.393 108.045 139.428 107.466 139.094 107.091C138.761 106.712 138.182 106.678 137.807 107.012C137.104 107.635 136.396 108.281 135.687 108.944C133.599 105.381 131.274 101.912 129.016 98.7595C129.8 97.989 130.601 97.2323 131.416 96.4839C131.785 96.1448 131.813 95.566 131.474 95.1924C131.126 94.8189 130.551 94.801 130.182 95.1387C129.421 95.8375 128.667 96.5501 127.929 97.2668C126.517 95.3427 125.15 93.5577 123.902 91.9809C123.591 91.5895 123.02 91.5178 122.619 91.8335C122.228 92.145 122.16 92.7156 122.472 93.1112C123.749 94.7321 125.161 96.5707 126.618 98.5624C124.182 100.998 121.901 103.483 119.871 105.812C116.308 101.221 113.699 98.1572 113.631 98.0773C113.306 97.6941 112.727 97.65 112.348 97.9794C111.965 98.3088 111.921 98.8794 112.246 99.2626C112.312 99.3425 115.011 102.509 118.654 107.221C116.196 110.107 114.178 112.658 112.793 114.467C111.604 113.006 110.873 112.16 110.843 112.125C110.513 111.742 109.939 111.698 109.556 112.027C109.176 112.357 109.132 112.931 109.462 113.31C109.498 113.35 110.326 114.321 111.662 115.965C111.079 116.749 110.753 117.203 110.74 117.225C110.446 117.634 110.544 118.205 110.953 118.494C111.113 118.61 111.296 118.664 111.482 118.664C111.768 118.664 112.048 118.53 112.227 118.281C112.24 118.263 112.454 117.96 112.841 117.434C114.676 119.746 117.085 122.872 119.628 126.443C117.389 129.174 115.548 131.529 114.307 133.146C113.883 132.559 113.47 131.996 113.059 131.463C112.756 131.066 112.183 130.986 111.782 131.293C111.38 131.601 111.305 132.176 111.612 132.577C112.111 133.227 112.628 133.93 113.153 134.67C112.774 135.173 112.566 135.459 112.552 135.481C112.254 135.882 112.338 136.457 112.748 136.754C112.908 136.87 113.095 136.932 113.282 136.932C113.568 136.932 113.843 136.798 114.021 136.559C114.03 136.545 114.111 136.435 114.253 136.247C116.087 138.942 118.012 142.014 119.824 145.158C117.94 147.438 116.261 149.518 114.903 151.224C114.756 151.042 114.658 150.921 114.636 150.894C114.315 150.507 113.736 150.453 113.353 150.775C112.965 151.096 112.908 151.665 113.229 152.058C113.237 152.066 113.434 152.303 113.732 152.699C112.205 154.627 111.291 155.811 111.256 155.861C110.949 156.262 111.025 156.831 111.422 157.138C111.591 157.268 111.787 157.33 111.979 157.33C112.25 157.33 112.522 157.206 112.705 156.969C112.737 156.925 113.52 155.909 114.843 154.234C115.947 155.865 117.26 158.104 117.519 159.877C117.586 160.332 117.974 160.656 118.42 160.656C118.464 160.656 118.509 160.652 118.553 160.642C119.052 160.57 119.395 160.107 119.324 159.608C118.99 157.311 117.284 154.532 116.028 152.741C117.333 151.103 118.958 149.085 120.793 146.855C122.352 149.633 123.803 152.416 125.019 154.995C125.175 155.329 125.504 155.52 125.843 155.52C125.977 155.52 126.106 155.494 126.235 155.436C126.689 155.218 126.885 154.675 126.672 154.22C125.348 151.415 123.751 148.369 122.036 145.35C123.765 143.265 125.639 141.048 127.589 138.798C128.667 140.7 129.669 142.605 130.556 144.485C130.711 144.819 131.037 145.01 131.384 145.01C131.508 145.01 131.642 144.984 131.767 144.926C132.226 144.709 132.422 144.166 132.204 143.711C131.216 141.609 130.08 139.471 128.86 137.347C130.727 135.219 132.641 133.089 134.543 131.067C134.917 131.798 135.278 132.524 135.611 133.235C135.767 133.565 136.096 133.761 136.436 133.761C136.569 133.761 136.699 133.729 136.827 133.671C137.282 133.457 137.478 132.914 137.264 132.459C136.832 131.541 136.364 130.611 135.865 129.667C137.161 128.318 138.434 127.03 139.672 125.837C140.033 125.485 140.041 124.906 139.694 124.549L139.697 124.548ZM127.704 100.059C129.962 103.217 132.269 106.686 134.331 110.235C132.157 112.337 130.007 114.577 127.949 116.817C125.58 113.37 123.166 110.102 121.011 107.287C123.019 104.972 125.281 102.496 127.704 100.059ZM113.979 115.926C115.302 114.19 117.314 111.629 119.799 108.699C121.951 111.521 124.35 114.781 126.694 118.206C124.592 120.54 122.61 122.851 120.833 124.989C118.242 121.36 115.801 118.206 113.98 115.926H113.979ZM121.073 143.657C119.22 140.481 117.27 137.391 115.418 134.706C116.585 133.175 118.428 130.8 120.725 127.991C122.72 130.863 124.76 133.967 126.626 137.129C124.684 139.361 122.805 141.573 121.073 143.658V143.657ZM127.886 135.686C125.989 132.506 123.931 129.394 121.923 126.53C123.682 124.41 125.65 122.099 127.748 119.761C129.872 122.931 131.912 126.2 133.64 129.362C131.72 131.393 129.784 133.535 127.887 135.686H127.886Z" fill="#924921"/>
<path d="M116.786 132.929C116.612 132.185 116.43 131.438 116.229 130.68C115.495 131.614 114.848 132.452 114.315 133.143C113.892 132.556 113.478 131.993 113.067 131.46C112.778 131.081 112.239 130.997 111.842 131.254C112.069 132.083 112.279 132.897 112.471 133.704C112.698 134.019 112.93 134.336 113.161 134.666C113.009 134.866 112.89 135.027 112.796 135.155C112.92 135.748 113.036 136.331 113.139 136.914C113.193 136.922 113.241 136.928 113.291 136.928C113.576 136.928 113.852 136.794 114.029 136.554C114.038 136.54 114.119 136.43 114.261 136.243C115.557 138.145 116.892 140.237 118.207 142.406C118.131 141.065 117.993 139.694 117.794 138.287C116.997 137.039 116.199 135.833 115.42 134.706C115.803 134.203 116.266 133.606 116.787 132.929H116.786Z" fill="#A66A49"/>
<path d="M112.107 99.022C112.237 98.6251 112.379 98.2378 112.53 97.8642C112.468 97.8959 112.406 97.9304 112.352 97.98C112.045 98.2474 111.961 98.6664 112.107 99.022Z" fill="#A66A49"/>
<path d="M118.213 147.121C116.98 148.63 115.862 150.02 114.909 151.217C114.762 151.035 114.664 150.914 114.642 150.888C114.357 150.541 113.867 150.465 113.492 150.678C113.408 151.133 113.319 151.579 113.217 152.02C113.221 152.028 113.225 152.042 113.235 152.051C113.244 152.061 113.44 152.297 113.738 152.692C113.315 153.231 112.936 153.708 112.612 154.117C112.26 155.151 111.837 156.13 111.338 157.048C111.364 157.074 111.392 157.106 111.428 157.132C111.597 157.261 111.793 157.323 111.985 157.323C112.256 157.323 112.528 157.199 112.711 156.962C112.743 156.918 113.526 155.902 114.849 154.228C115.254 154.824 115.685 155.501 116.082 156.206C116.398 155.529 116.683 154.82 116.929 154.082C116.621 153.596 116.318 153.142 116.034 152.736C116.577 152.055 117.178 151.303 117.825 150.501C118.016 149.415 118.146 148.287 118.216 147.121H118.213Z" fill="#A66A49"/>
<path d="M111.667 115.962C111.084 116.746 110.759 117.2 110.745 117.222C110.451 117.631 110.549 118.202 110.958 118.491C111.118 118.607 111.302 118.661 111.488 118.661C111.773 118.661 112.053 118.527 112.232 118.278C112.236 118.269 112.268 118.224 112.326 118.144C111.831 116.211 111.462 114.345 111.216 112.555C110.989 112.287 110.861 112.136 110.847 112.123C110.517 111.74 109.943 111.696 109.559 112.025C109.18 112.355 109.136 112.93 109.466 113.309C109.502 113.349 110.33 114.319 111.666 115.963L111.667 115.962Z" fill="#A66A49"/>
<path d="M124.6 85.9419C123.548 86.0576 122.672 86.3912 121.71 86.6186C136.788 86.7523 150.166 105.109 144.938 128.488C139.786 151.533 118.918 172.62 90.7015 175.96L89.2405 179.082C121.269 178 145.2 154.677 150.865 129.338C156.53 103.999 141.082 84.1156 124.6 85.9405V85.9419Z" fill="#924921"/>
<path d="M89.2422 180.646C88.717 180.646 88.2264 180.383 87.9369 179.943C87.6364 179.488 87.5951 178.911 87.8253 178.419L89.2863 175.297C89.5151 174.806 89.981 174.47 90.5199 174.407C116.255 171.36 138.004 152.337 143.413 128.147C146.187 115.74 143.752 103.491 136.898 95.3819C132.658 90.3662 127.318 87.7612 121.867 88.0493C121.052 88.0906 120.351 87.5103 120.236 86.7095C120.122 85.9087 120.638 85.152 121.426 84.966L121.641 84.915C122.527 84.7054 123.364 84.507 124.431 84.3884C131.632 83.5918 138.931 86.6668 144.451 92.8279C152.561 101.879 155.531 115.657 152.395 129.681C146.929 154.133 123.5 179.491 89.2973 180.646C89.2794 180.646 89.2629 180.646 89.2449 180.646H89.2422ZM135.554 89.6922C136.866 90.7508 138.115 91.9761 139.286 93.3627C146.769 102.216 149.453 115.474 146.466 128.831C140.859 153.91 118.607 173.708 92.1132 177.358C123.138 174.962 144.292 151.575 149.34 128.999C152.255 115.957 149.555 103.216 142.119 94.9147C140.141 92.708 137.916 90.952 135.554 89.6936V89.6922Z" fill="#592832"/>
<path d="M89.243 180.647C88.7193 180.647 88.2286 180.384 87.9378 179.946C87.6373 179.492 87.5946 178.915 87.8247 178.423L93.9224 165.346C94.1636 164.828 94.6681 164.484 95.2387 164.446C101.782 164.019 106.52 161.637 109.321 157.366C113.689 150.705 113.375 139.46 108.436 125.702C103.783 112.741 103.852 101.39 108.628 93.7358C111.959 88.3976 117.423 85.1654 124.427 84.3894C131.631 83.5927 138.929 86.6678 144.45 92.8302C152.559 101.882 155.529 115.657 152.394 129.681C146.926 154.135 123.497 179.493 89.2968 180.649C89.2789 180.649 89.2623 180.649 89.2444 180.649L89.243 180.647ZM96.3731 167.494L91.7612 177.383C122.975 175.139 144.272 151.658 149.339 128.996C152.254 115.957 149.556 103.216 142.118 94.9156C137.28 89.5154 130.958 86.8111 124.771 87.4975C118.751 88.1646 114.086 90.8937 111.28 95.3912C107.021 102.215 107.056 112.604 111.379 124.643C116.658 139.349 116.856 151.578 111.936 159.081C108.706 164.005 103.473 166.834 96.3717 167.494H96.3731Z" fill="#592832"/>
<path d="M86.1153 102.977C86.2573 113.569 94.3425 120.899 97.627 129.303C104.499 150.244 83.1864 177.366 55.3071 177.366C11.0285 177.366 20.8684 145.954 26.9233 131.573C30.7537 122.476 28.4767 106.614 27.2142 100.934L33.5131 98.9855C49.0495 94.1779 65.6073 93.7299 81.3808 97.6912L86.679 99.0213L86.1167 102.977H86.1153Z" fill="#EAAC71"/>
<path d="M86.1196 102.977L86.6819 99.0213L81.3837 97.6912C65.6102 93.7299 49.0524 94.1779 33.516 98.9855L27.217 100.934C27.5409 102.391 27.931 104.521 28.2687 107.031C38.3056 112.186 58.2044 114.394 63.5689 114.618C71.3412 114.945 78.871 117.069 81.9157 121.98C85.4125 127.62 88.1002 130.426 90.3303 136.135C93.7995 146.707 90.0822 158.853 81.9667 168.29C81.9667 168.29 81.9681 168.29 81.9681 168.289C82.3471 168.003 82.7192 167.713 83.0886 167.418C83.1438 167.374 83.1989 167.328 83.254 167.284C83.5876 167.014 83.917 166.741 84.2437 166.463C84.285 166.428 84.325 166.394 84.3663 166.359C85.1037 165.725 85.8177 165.07 86.5082 164.396C86.5413 164.365 86.573 164.332 86.6047 164.3C86.9093 164.001 87.2084 163.699 87.5034 163.393C87.5558 163.338 87.6095 163.283 87.6619 163.229C87.9665 162.909 88.267 162.587 88.5619 162.26C88.5785 162.242 88.595 162.226 88.6102 162.208C89.2456 161.501 89.8548 160.776 90.4392 160.038C90.4861 159.979 90.5316 159.92 90.5784 159.86C90.8224 159.55 91.0608 159.236 91.2938 158.92C91.3406 158.858 91.3875 158.795 91.433 158.733C91.9815 157.984 92.5039 157.224 92.9988 156.452C93.0249 156.41 93.0511 156.369 93.0773 156.328C93.291 155.993 93.4977 155.655 93.7003 155.315C93.7499 155.232 93.7982 155.151 93.8464 155.068C94.0366 154.745 94.2213 154.42 94.4005 154.093C94.4363 154.029 94.4736 153.964 94.508 153.899C94.9339 153.116 95.3323 152.324 95.7003 151.523C95.7389 151.439 95.7761 151.353 95.8147 151.268C95.9566 150.954 96.0945 150.638 96.2282 150.321C96.2695 150.222 96.3122 150.123 96.3522 150.023C96.4928 149.681 96.6279 149.337 96.7574 148.994C96.7781 148.939 96.8002 148.882 96.8208 148.827C96.9725 148.419 97.1158 148.01 97.2509 147.6C97.2702 147.544 97.2867 147.486 97.3046 147.429C97.4163 147.087 97.521 146.744 97.6216 146.401C97.6547 146.289 97.685 146.176 97.7167 146.065C97.8022 145.762 97.8821 145.458 97.9593 145.154C97.9869 145.045 98.0145 144.937 98.0406 144.828C98.1344 144.441 98.2226 144.052 98.3012 143.664C98.3039 143.65 98.308 143.635 98.3108 143.621C98.3935 143.214 98.4652 142.806 98.5313 142.398C98.5479 142.295 98.5617 142.19 98.5782 142.087C98.6237 141.785 98.6664 141.482 98.7022 141.18C98.7174 141.053 98.7326 140.928 98.7463 140.801C98.7794 140.498 98.807 140.194 98.8318 139.891C98.8401 139.788 98.8497 139.683 98.8566 139.58C98.8842 139.176 98.9049 138.773 98.9159 138.371C98.9173 138.319 98.9159 138.268 98.9173 138.215C98.9241 137.868 98.9255 137.519 98.92 137.172C98.9186 137.046 98.9131 136.922 98.9104 136.797C98.9021 136.514 98.8897 136.232 98.8732 135.949C98.8649 135.821 98.858 135.693 98.8497 135.565C98.8263 135.246 98.7973 134.928 98.7629 134.611C98.7546 134.531 98.7477 134.451 98.7394 134.371C98.694 133.978 98.6375 133.587 98.5741 133.195C98.5575 133.095 98.5382 132.994 98.5203 132.894C98.4693 132.601 98.4142 132.309 98.3521 132.017C98.3246 131.887 98.2956 131.756 98.2667 131.627C98.2047 131.353 98.1371 131.078 98.0654 130.805C98.0337 130.687 98.0048 130.567 97.9717 130.448C97.8656 130.065 97.7526 129.682 97.6285 129.303C97.4783 128.917 97.3143 128.534 97.1434 128.152C97.1103 128.076 97.0772 128 97.0427 127.925C96.876 127.558 96.7023 127.193 96.5204 126.83C96.4859 126.759 96.4487 126.688 96.4128 126.618C96.2406 126.279 96.0628 125.94 95.8808 125.602C95.856 125.557 95.8339 125.513 95.8091 125.467C95.612 125.107 95.4094 124.748 95.2027 124.389C95.1476 124.294 95.0938 124.2 95.0387 124.105C94.8402 123.765 94.6389 123.424 94.435 123.084C94.3688 122.974 94.3013 122.863 94.2337 122.753C94.0835 122.507 93.9333 122.258 93.7816 122.012C92.7093 120.268 91.5929 118.515 90.5509 116.709C90.5495 116.707 90.5481 116.704 90.5467 116.701C90.0602 115.857 89.5915 115 89.1505 114.129C89.1367 114.103 89.1243 114.075 89.1105 114.049C88.8941 113.619 88.686 113.186 88.4861 112.748C88.4806 112.737 88.4765 112.725 88.471 112.714C88.0726 111.837 87.7115 110.942 87.3959 110.027C87.3793 109.98 87.3628 109.932 87.3476 109.884C87.1947 109.433 87.0527 108.977 86.9245 108.514C86.4407 106.761 86.1444 104.925 86.1182 102.978L86.1196 102.977Z" fill="#D6823C"/>
<path d="M30.3884 131.572C33.9969 123.001 33.3036 114.169 32.1554 108.425C30.9039 108.111 29.6758 107.772 28.4753 107.401C29.7392 113.081 30.7537 122.475 26.9233 131.572C20.8684 145.953 11.0285 177.365 55.3071 177.365C55.7743 177.365 56.2388 177.357 56.7019 177.341C14.8051 176.371 24.4286 145.726 30.3884 131.573V131.572Z" fill="#F5D7BB"/>
<path d="M80.3884 169.423C72.412 162.852 66.4218 152.211 65.1882 139.211C63.1442 117.658 34.9479 114.663 28.3885 127.274C28.0081 128.704 27.5257 130.142 26.9233 131.574C20.8684 145.955 11.0285 177.367 55.3071 177.367C64.6865 177.367 73.319 174.295 80.3884 169.424V169.423Z" fill="#FFE5C0"/>
<path d="M65.4799 176.141C66.1098 175.988 66.7342 175.817 67.353 175.636C67.5267 175.585 67.699 175.53 67.8727 175.478C68.3165 175.343 68.7562 175.202 69.1931 175.053C69.3929 174.986 69.5914 174.917 69.7885 174.847C70.2172 174.695 70.6417 174.535 71.0635 174.37C71.2372 174.302 71.4122 174.236 71.5859 174.166C72.7561 173.691 73.9001 173.172 75.0165 172.608C75.1847 172.523 75.35 172.434 75.5168 172.348C75.9083 172.144 76.297 171.935 76.6815 171.72C76.869 171.616 77.055 171.511 77.2397 171.403C77.6174 171.186 77.9895 170.962 78.3603 170.735C78.5229 170.634 78.6883 170.537 78.8496 170.435C79.3706 170.105 79.8861 169.769 80.3919 169.42C79.9343 169.042 79.4836 168.65 79.0398 168.246C78.9103 168.127 78.7834 168.003 78.6553 167.883C78.3396 167.588 78.0267 167.291 77.718 166.982C77.5774 166.841 77.4396 166.695 77.3004 166.552C77.0096 166.25 76.7201 165.945 76.4362 165.632C76.2997 165.481 76.1633 165.328 76.0282 165.173C75.7484 164.856 75.4741 164.534 75.2026 164.204C70.9105 159.003 67.6287 152.387 66.0326 144.758C63.5875 148.343 59.6096 156.152 61.9032 166.68C62.2326 168.193 61.2498 169.685 59.7392 170.028C46.3915 173.064 32.5339 170.623 22.9174 161.744L22.7795 161.719C25.7416 170.498 34.6138 177.361 55.3093 177.361C58.8185 177.361 62.2216 176.931 65.4785 176.137L65.4799 176.141Z" fill="#DBAB7A"/>
<path d="M30.391 131.572C31.659 128.56 32.3881 125.518 32.7603 122.588C30.912 123.776 29.3972 125.34 28.391 127.273C28.3028 127.606 28.2063 127.941 28.1071 128.276C28.0823 128.36 28.0547 128.443 28.0299 128.527C27.9541 128.772 27.8755 129.019 27.7928 129.266C27.757 129.373 27.7211 129.479 27.6839 129.587C27.6026 129.821 27.5185 130.057 27.4303 130.291C27.3931 130.391 27.3573 130.49 27.3201 130.589C27.1946 130.917 27.0651 131.245 26.9272 131.573C20.8723 145.955 11.0324 177.366 55.311 177.366C55.7507 177.366 56.1876 177.353 56.6245 177.34C14.8228 176.331 24.4366 145.717 30.3923 131.575L30.391 131.572Z" fill="#FFF7EC"/>
<path d="M55.626 180.185C39.9573 180.185 29.3111 176.116 23.9826 168.092C16.8346 157.326 20.8524 141.96 25.4822 130.965C29.1375 122.285 26.8701 106.588 25.6875 101.274C25.5111 100.478 25.9742 99.6803 26.7516 99.4391L33.0505 97.4902C48.864 92.5971 65.7071 92.1423 81.7618 96.1725L87.06 97.5026C87.836 97.6983 88.3405 98.4467 88.2274 99.2406L87.683 103.074C87.8071 109.425 91.0695 114.676 94.2259 119.757C96.0177 122.64 97.8688 125.622 99.0845 128.733C99.0955 128.759 99.1051 128.786 99.1134 128.814C102.328 138.608 99.8412 150.539 92.4603 160.729C83.6363 172.912 69.8655 180.185 55.6247 180.185H55.626ZM29.0369 102.008C30.5048 109.476 31.9548 123.658 28.3656 132.18C24.0336 142.469 20.2087 156.751 26.589 166.362C31.3014 173.459 41.071 177.058 55.626 177.058C68.8676 177.058 81.6901 170.268 89.9283 158.894C96.711 149.529 99.0376 138.669 96.1555 129.831C95.0446 127.003 93.3562 124.285 91.5685 121.408C88.1668 115.933 84.6493 110.273 84.5528 102.997C84.5528 102.915 84.557 102.835 84.568 102.755L84.9319 100.194L80.9995 99.2076C65.5017 95.3166 49.2403 95.7562 33.9754 100.478L29.0355 102.007L29.0369 102.008Z" fill="#592832"/>
<path d="M95.6601 125.86C97.0674 127.665 103.06 135.257 105.348 139.07C111.403 149.162 112.58 163.627 104.508 174.896C96.4334 186.165 80.1182 186.502 72.7966 177.25C61.9616 163.561 66.0717 151.224 69.0338 145.618C81.9803 143.858 88.526 134.455 95.6601 125.858V125.86Z" fill="#EAAC71"/>
<path d="M73.0573 172.087C67.1649 160.712 69.0339 151.585 72.0166 145.581C72.641 144.324 71.6459 142.883 70.2427 142.958H70.2055C66.7831 148.296 61.6517 160.243 71.2972 174.796C76.0813 182.013 86.1238 184.483 94.6859 181.119C86.0783 183.053 76.8986 179.503 73.0573 172.087Z" fill="#F5D7BB"/>
<path d="M105.346 139.069C103.059 135.257 97.0649 127.665 95.6576 125.859C93.4454 128.525 91.2897 131.268 88.9824 133.837C89.808 135.007 90.5386 136.096 91.0692 136.98C97.1242 147.072 98.3013 161.537 90.2284 172.806C86.9356 177.403 82.27 180.179 77.4045 181.229C85.6055 186.038 97.8519 184.183 104.505 174.896C112.579 163.627 111.401 149.161 105.346 139.069Z" fill="#D6823C"/>
<path d="M87.1691 185.367C80.8385 185.367 75.1777 182.781 71.5693 178.221C56.1983 158.8 69.6782 141.623 69.8161 141.452C70.3577 140.779 71.3432 140.673 72.0159 141.215C72.6885 141.757 72.7946 142.741 72.2529 143.413C71.7402 144.056 60.2423 158.868 74.0227 176.279C77.0316 180.081 81.8033 182.236 87.1705 182.236C87.3304 182.236 87.4916 182.235 87.6529 182.231C93.9077 182.082 99.5864 179.076 103.235 173.984C111.219 162.839 109.375 148.822 104.005 139.874C100.803 134.537 98.4272 131.696 96.5196 129.414C94.8174 127.378 93.3481 125.621 91.9119 122.89C91.5094 122.125 91.8044 121.18 92.568 120.777C93.333 120.376 94.2799 120.67 94.681 121.433C95.9614 123.869 97.2667 125.43 98.9193 127.407C100.899 129.773 103.36 132.718 106.689 138.264C112.584 148.09 114.588 163.508 105.778 175.807C101.553 181.704 94.9745 185.186 87.7287 185.36C87.5426 185.364 87.3552 185.367 87.1691 185.367Z" fill="#592832"/>
<path d="M98.788 190.37H58.7561C58.7561 190.37 59.7554 179.942 72.7957 177.25C85.836 174.558 99.4868 182.296 100.231 185.66C100.974 189.025 98.788 190.37 98.788 190.37Z" fill="#AE6745"/>
<path d="M98.788 190.37H58.7561C58.7561 190.37 59.7554 179.942 72.7957 177.25C85.836 174.558 99.4868 182.296 100.231 185.66C100.974 189.025 98.788 190.37 98.788 190.37Z" fill="#AE6745"/>
<path d="M74.5792 179.301C84.9814 177.153 95.7654 181.643 100.082 185.254C98.4338 181.717 85.3356 174.664 72.7957 177.251C59.7554 179.943 58.7561 190.372 58.7561 190.372H61.0152C62.0393 187.193 65.1846 181.24 74.5792 179.301Z" fill="#C18B71"/>
<path d="M100.23 185.662C99.9817 184.538 98.2891 182.928 95.6675 181.382C95.2333 181.427 94.7992 181.478 94.3664 181.539C89.4155 182.227 86.2012 183.666 84.1186 185.186C82.2854 186.524 80.076 187.245 77.8059 187.245H59.6286C58.8843 189.058 58.7561 190.373 58.7561 190.373H98.788C98.788 190.373 100.974 189.027 100.231 185.663L100.23 185.662Z" fill="#924921"/>
<path d="M98.7861 191.935H58.7541C58.3131 191.935 57.8927 191.749 57.5964 191.422C57.3 191.095 57.1553 190.66 57.1966 190.22C57.2077 190.104 58.4688 178.609 72.4781 175.717C85.8919 172.948 100.723 180.646 101.756 185.321C102.532 188.835 100.769 190.985 99.6048 191.7C99.3581 191.852 99.0742 191.932 98.7847 191.932L98.7861 191.935ZM60.7045 188.806H98.2072C98.5518 188.414 99.0438 187.549 98.7006 185.998C98.5366 185.298 95.9509 182.758 90.523 180.63C87.1282 179.298 80.351 177.287 73.1094 178.783C64.4149 180.577 61.5949 185.995 60.7045 188.806Z" fill="#592832"/>
<path d="M73.1798 191.933C73.0213 191.933 72.86 191.908 72.7015 191.857C71.88 191.592 71.4279 190.716 71.6898 189.894C71.7753 189.627 73.8386 183.328 79.09 181.631C79.9115 181.365 80.7936 181.816 81.0596 182.639C81.3256 183.46 80.8736 184.342 80.0521 184.608C76.343 185.807 74.6863 190.798 74.6697 190.848C74.4561 191.51 73.8414 191.931 73.1812 191.931L73.1798 191.933Z" fill="#592832"/>
<path d="M64.336 191.933C64.1775 191.933 64.0163 191.908 63.8577 191.857C63.0363 191.592 62.5842 190.716 62.8461 189.894C62.9315 189.627 64.9949 183.328 70.2463 181.631C71.0677 181.365 71.9499 181.816 72.2159 182.639C72.4819 183.46 72.0298 184.342 71.2083 184.608C67.4993 185.807 65.8425 190.798 65.826 190.848C65.6123 191.51 64.9976 191.931 64.3374 191.931L64.336 191.933Z" fill="#592832"/>
<path d="M53.1736 139.319C63.0658 135.475 60.8619 124.503 50.1468 122.586C43.2401 121.351 34.1928 121.252 28.6326 121.337C29.1068 115.246 28.6506 109.215 27.2102 103.248C27.2102 103.248 23.2365 108.783 19.9644 115.217C16.6923 121.651 14.1589 135.557 23.9326 139.674C33.7062 143.79 49.3171 141.671 53.1723 139.319H53.1736Z" fill="#EAAC71"/>
<path d="M22.036 117.971C24.2068 113.701 26.6809 109.837 28.1033 107.715C27.8663 106.222 27.5685 104.733 27.2102 103.249C27.2102 103.249 23.2365 108.784 19.9657 115.218C17.1223 120.81 14.8398 132.045 20.7086 137.591C17.5895 131.641 19.6074 122.748 22.036 117.971Z" fill="#F5D7BB"/>
<path d="M59.1131 133.837C57.7651 132.77 55.455 131.865 51.582 132.455C43.7972 133.641 17.9854 138.89 17.0647 128.409C17.2632 133.17 19.0798 137.632 23.9356 139.676C33.7093 143.791 49.3202 141.673 53.1753 139.32C56.4061 138.064 58.3385 136.048 59.1131 133.837Z" fill="#D6823C"/>
<path d="M23.5645 123.054C22.7375 123.054 22.047 122.406 22.0043 121.569C21.9602 120.707 22.6231 119.971 23.486 119.926C23.5687 119.922 25.5534 119.822 28.6106 119.773C28.6188 119.773 28.6257 119.773 28.6354 119.773C29.4886 119.773 30.186 120.458 30.1984 121.313C30.2108 122.177 29.5216 122.888 28.6574 122.901C25.661 122.946 23.6651 123.048 23.6459 123.05C23.6183 123.051 23.5921 123.052 23.5645 123.052V123.054Z" fill="#592832"/>
<path d="M50.1467 122.587C47.0785 122.038 43.5873 121.715 40.1663 121.531C34.9452 129.634 37.0995 137.294 39.4468 141.892C43.7843 141.751 48.4376 140.927 53.1721 139.32C63.0657 135.476 60.8604 124.504 50.1453 122.588L50.1467 122.587Z" fill="#AE6745"/>
<path d="M50.1467 122.587C47.0785 122.038 43.5873 121.715 40.1663 121.531C34.9452 129.634 37.0995 137.294 39.4468 141.892C43.7843 141.751 48.4376 140.927 53.1721 139.32C63.0657 135.476 60.8604 124.504 50.1453 122.588L50.1467 122.587Z" fill="#AE6745"/>
<path d="M54.5011 138.716C54.7424 138.592 54.9753 138.464 55.1986 138.33C55.284 138.279 55.3695 138.23 55.4508 138.177C55.7251 138.004 55.9897 137.824 56.2351 137.637C56.2461 137.629 56.2599 137.62 56.2709 137.611C56.5438 137.401 56.7988 137.182 57.0359 136.957C57.062 136.933 57.0855 136.906 57.1117 136.882C57.3212 136.679 57.5155 136.472 57.6975 136.259C57.7236 136.228 57.7498 136.198 57.7747 136.166C58.3797 135.434 58.8235 134.649 59.1089 133.835C57.7609 132.769 55.4508 131.863 51.5777 132.453C48.595 132.908 42.9632 133.958 37.0999 134.493C37.4692 137.385 38.4382 139.919 39.4444 141.892C43.782 141.751 48.4352 140.927 53.1697 139.32C53.5363 139.178 53.8809 139.022 54.2144 138.861C54.3109 138.814 54.4033 138.764 54.4984 138.716H54.5011Z" fill="#924921"/>
<path d="M37.835 143.598C32.8317 143.598 27.5803 142.908 23.3282 141.117C20.056 139.738 17.7639 137.314 16.5193 133.911C14.2726 127.774 16.0093 119.553 18.5743 114.509C21.8616 108.044 25.7774 102.568 25.9428 102.338C26.2998 101.841 26.9118 101.597 27.5141 101.715C28.1137 101.832 28.5906 102.288 28.7353 102.883C30.0613 108.38 30.5878 114.048 30.3052 119.757C36.3257 119.715 44.1849 119.933 50.4259 121.05C56.4065 122.119 60.5718 125.914 61.039 130.716C61.4525 134.976 58.7083 138.804 53.8676 140.731C51.1937 142.281 44.7528 143.599 37.8377 143.599L37.835 143.598ZM26.4335 107.204C25.0152 109.393 23.0814 112.547 21.3613 115.929C19.4702 119.651 17.4014 127.223 19.4565 132.837C20.391 135.391 22.1028 137.208 24.5425 138.236C33.9109 142.182 48.9001 140.098 52.3611 137.986C52.4397 137.938 52.5224 137.897 52.6092 137.864C56.2177 136.462 58.2038 133.902 57.924 131.019C57.6566 128.258 55.0626 125.058 49.8746 124.13C42.9279 122.888 33.6049 122.829 28.6595 122.905C28.2184 122.908 27.7967 122.733 27.4948 122.411C27.193 122.09 27.0414 121.657 27.0758 121.219C27.4438 116.5 27.2274 111.801 26.4335 107.206V107.204Z" fill="#592832"/>
<path d="M58.9354 135.874C58.7314 135.874 58.5233 135.834 58.3248 135.749C53.0362 133.502 50.3967 134.911 50.3719 134.926C49.6372 135.381 48.689 135.145 48.2327 134.41C47.7779 133.676 48.0191 132.703 48.7537 132.248C49.1424 132.007 52.7481 129.979 59.5488 132.868C60.344 133.206 60.7148 134.124 60.3771 134.919C60.1235 135.514 59.5446 135.871 58.9368 135.871L58.9354 135.874Z" fill="#592832"/>
<path d="M58.6581 129.747C58.4541 129.747 58.2459 129.707 58.0475 129.622C52.7588 127.375 50.1194 128.784 50.0946 128.799C49.3599 129.252 48.4116 129.018 47.9554 128.284C47.5006 127.549 47.7418 126.576 48.4764 126.121C48.8651 125.88 52.4708 123.852 59.2714 126.741C60.0667 127.079 60.4375 127.997 60.0998 128.792C59.8462 129.388 59.2673 129.745 58.6594 129.745L58.6581 129.747Z" fill="#592832"/>
<path d="M51.9863 21.0463C39.8998 23.5645 27.0139 7.34722 14.9343 15.2932C6.32259 20.9581 12.8586 34.518 21.6137 38.3939L51.9877 21.0463H51.9863Z" fill="#EAAC71"/>
<path d="M12.9579 18.8139C23.5599 11.8409 34.7822 23.4767 45.54 24.7269L51.985 21.0454C39.8985 23.5636 27.0126 7.34624 14.933 15.2923C12.9455 16.5989 11.7739 18.3287 11.2405 20.2611C11.7298 19.7387 12.2935 19.2494 12.9579 18.8139Z" fill="#F5D7BB"/>
<path d="M21.6138 39.9559C21.3988 39.9559 21.1824 39.9117 20.9812 39.8222C14.8904 37.1262 9.90086 30.3076 9.37572 23.9618C9.027 19.7524 10.6962 16.2088 14.0758 13.9869C21.6111 9.02911 29.1877 12.468 36.5135 15.7925C41.8558 18.2184 46.9019 20.5078 51.6681 19.5154C52.4248 19.3582 53.176 19.7731 53.4489 20.4912C53.7218 21.2107 53.4296 22.0212 52.7625 22.4016L22.3884 39.7491C22.15 39.8856 21.8812 39.9545 21.6138 39.9545V39.9559ZM22.2837 14.6513C20.0742 14.6513 17.9103 15.2054 15.7932 16.5988C12.7443 18.6043 12.3143 21.5704 12.4907 23.7041C12.9015 28.666 16.8159 34.1931 21.549 36.63L46.1452 22.5821C42.4568 21.9233 38.8001 20.2638 35.2206 18.6388C30.7466 16.6085 26.4338 14.6499 22.2837 14.6499V14.6513Z" fill="#592832"/>
<path d="M12.6165 29.4867C14.5379 33.3087 17.8706 36.7366 21.6114 38.392L33.7847 31.4397C22.958 11.3673 9.82675 23.3311 12.6165 29.4853V29.4867Z" fill="#EE857B"/>
<path d="M17.4449 28.1277C16.3147 25.6344 17.7977 22.1858 20.6839 20.303C14.9226 20.1224 10.9585 25.8301 12.6166 29.4868C14.538 33.3088 17.8708 36.7367 21.6116 38.3921L25.1414 36.3756C21.9368 34.5631 19.1416 31.4991 17.4449 28.1264V28.1277Z" fill="#FFBAB0"/>
<path d="M21.611 39.956C21.396 39.956 21.1796 39.9119 20.9783 39.8223C17.0198 38.0705 13.3714 34.4689 11.2184 30.1892C11.2088 30.1699 11.1991 30.152 11.1909 30.1327C9.59202 26.6042 11.807 21.8559 16.0315 19.7623C21.0776 17.262 28.752 18.8209 35.1585 30.6992C35.5609 31.4463 35.2949 32.378 34.5575 32.7984L22.3842 39.7507C22.1458 39.8871 21.877 39.956 21.6096 39.956H21.611ZM14.0275 28.8164C15.7352 32.1988 18.507 35.0671 21.5462 36.6301L31.6589 30.855C27.2579 23.3872 21.9969 20.2943 17.4195 22.5644C14.769 23.8779 13.1605 26.8496 14.0261 28.8164H14.0275Z" fill="#592832"/>
<path d="M112.979 30.517C105.739 24.0499 94.639 29.0808 87.3753 29.7162C80.7842 23.9507 72.896 19.8984 64.0734 18.5284C34.9192 14.002 6.21705 42.9729 2.21992 68.713C-0.57118 86.6877 20.7997 104.93 49.9539 109.456C79.1081 113.983 105.004 103.081 107.795 85.1067C109.255 75.7052 108.131 65.6986 104.913 56.3591C119.235 51.9843 122.717 39.2142 112.98 30.5184L112.979 30.517Z" fill="#EAAC71"/>
<path d="M113.459 30.9697C114.57 37.6987 110.105 44.6523 100.581 48.0719C104.301 57.3839 105.932 67.4773 104.91 77.0814C102.96 95.4448 77.2352 107.766 47.4524 104.602C33.0669 103.075 20.367 98.2138 11.2991 91.5262C19.8764 100.149 33.705 106.933 49.9541 109.455C79.1083 113.982 105.004 103.081 107.795 85.106C109.255 75.7045 108.132 65.6979 104.913 56.3584C118.991 52.058 122.586 39.6518 113.459 30.9697Z" fill="#D6823C"/>
<path d="M112.978 30.5162C105.737 24.0491 94.6378 29.08 87.3741 29.7154C86.2659 28.7464 85.1178 27.8299 83.9393 26.9629L83.2874 27.8491C88.1321 33.4713 92.1761 33.5113 98.8155 31.6216C106.497 29.4356 118.276 33.5761 118.236 43.9617C119.151 39.4312 117.481 34.5395 112.978 30.5176V30.5162Z" fill="#F5D7BB"/>
<path d="M6.61951 69.3966C10.516 44.2988 37.9019 16.1342 66.2911 18.9405C65.5579 18.7861 64.8204 18.6441 64.0734 18.5284C34.9192 14.002 6.21705 42.9729 2.21992 68.713C-0.571179 86.6877 20.7997 104.93 49.9539 109.456C50.6913 109.571 51.4259 109.673 52.1578 109.768C24.1352 104.687 3.89871 86.9165 6.61951 69.3966Z" fill="#F5D7BB"/>
<path d="M53.8749 30.602C49.7248 24.7979 45.2259 22.2824 41.3542 21.3369C37.6396 22.7979 34.0546 24.7042 30.6584 26.9577C32.0671 33.2235 41.8008 38.3481 53.8735 30.602H53.8749Z" fill="#D6823C"/>
<path d="M63.0875 112.048C58.7113 112.048 54.229 111.702 49.7136 111C35.3309 108.767 22.325 103.196 13.0917 95.3163C3.64742 87.2559 -0.761831 77.7221 0.674379 68.4735C2.71567 55.3299 10.9429 41.3565 22.682 31.0935C35.5707 19.8271 50.3545 14.8155 64.3114 16.9836C72.7564 18.2944 80.8926 22.1316 87.8848 28.0915C89.4644 27.9027 91.2521 27.525 93.1321 27.1281C99.7604 25.7263 108.008 23.9827 114.019 29.3527C118.818 33.6392 120.898 39.1622 119.725 44.5018C118.473 50.2039 113.829 54.824 106.886 57.3463C109.881 66.7327 110.73 76.3809 109.338 85.3469C107.902 94.5968 100.809 102.343 89.3665 107.16C81.6907 110.391 72.6503 112.048 63.0875 112.048ZM58.047 19.6286C32.3744 19.6286 7.45985 45.1537 3.76457 68.9518C2.50065 77.0894 6.53362 85.6074 15.1219 92.9373C23.9198 100.448 36.3756 105.765 50.1933 107.91C64.0109 110.056 77.4923 108.766 88.1536 104.277C98.5599 99.8965 104.987 93.0021 106.251 84.8645C107.64 75.922 106.666 66.2406 103.435 56.8653C103.297 56.4642 103.328 56.0245 103.521 55.6469C103.712 55.2692 104.051 54.9853 104.456 54.8612C111.127 52.8241 115.581 48.8021 116.674 43.8278C117.599 39.6211 115.872 35.194 111.939 31.6806C107.11 27.3665 100.029 28.8634 93.7813 30.1838C91.5456 30.6566 89.4327 31.1031 87.5141 31.2713C87.0868 31.3085 86.6691 31.1707 86.3494 30.8909C79.5942 24.982 72.019 21.3419 63.8359 20.0711C61.909 19.772 59.9766 19.6286 58.0497 19.6286H58.047Z" fill="#592832"/>
<path d="M118.472 42.1555C118.945 46.7894 113.549 53.6728 105.079 56.3123C102.968 50.7411 100.254 45.3229 96.6702 40.1239C96.6702 40.1239 117.185 29.5246 118.472 42.1555Z" fill="white"/>
<path d="M118.472 42.1555C118.945 46.7894 113.549 53.6728 105.079 56.3123C102.968 50.7411 100.254 45.3229 96.6702 40.1239C96.6702 40.1239 117.185 29.5246 118.472 42.1555Z" fill="#EE857B"/>
<path d="M118.472 42.1549C118.089 38.3976 116.004 36.6953 113.263 36.1592C113.96 37.1199 114.406 38.3879 114.508 40.0419C114.759 44.1217 110.427 49.748 103.573 52.6191C104.105 53.843 104.61 55.0725 105.079 56.3116C113.549 53.6721 118.945 46.7888 118.472 42.1549Z" fill="#FFBAB0"/>
<path d="M105.077 57.8742C104.443 57.8742 103.852 57.4869 103.616 56.8653C101.4 51.0198 98.705 45.8332 95.3805 41.0091C95.1255 40.6397 95.0415 40.178 95.1503 39.7424C95.2592 39.3069 95.5501 38.9389 95.9498 38.7335C97.3171 38.0264 109.496 31.9356 116.098 35.5096C118.392 36.7515 119.713 38.9333 120.026 41.996C120.564 47.2832 114.873 54.8957 105.543 57.8039C105.389 57.8522 105.231 57.8756 105.077 57.8756V57.8742ZM98.9697 40.7486C101.715 44.9497 104.025 49.4237 105.987 54.3402C113.268 51.5422 117.25 45.6196 116.914 42.3116C116.71 40.313 115.956 38.9871 114.608 38.258C110.798 36.196 103.089 38.8879 98.9683 40.7486H98.9697Z" fill="#592832"/>
<path d="M81.1858 25.0859C79.5677 24.0784 77.514 22.9233 75.044 21.7683C53.4582 12.9043 47.6196 -4.39774 41.9258 3.81429C36.2319 12.0263 47.1193 19.4651 47.1193 19.4651C47.1193 19.4651 36.9955 18.7732 36.3312 24.7772C35.6654 30.7977 48.8532 34.5191 56.711 29.1106C66.1346 29.9004 74.6305 29.1271 81.1858 25.0845V25.0859Z" fill="#EAAC71"/>
<path d="M75.1084 25.3644C82.6313 27.4939 84.2453 28.4229 85.3562 29.039C86.882 28.4629 79.8181 25.9309 81.1868 25.086C79.5672 24.0757 77.5163 22.9248 75.0464 21.7684C53.4591 12.9031 47.6192 -4.39762 41.9281 3.81441C41.2734 4.75029 40.8447 5.68203 40.5842 6.58897C46.1127 0.323123 52.1318 17.4694 75.107 25.3644H75.1084Z" fill="#F5D7BB"/>
<path d="M46.6015 19.4459C45.3417 19.4184 42.0241 19.4804 39.4866 20.7043C43.1033 22.962 49.7165 24.7276 53.7908 21.9669C50.8729 21.3935 48.4746 20.5541 46.6001 19.4459H46.6015Z" fill="#D6823C"/>
<path d="M47.6301 33.2897C44.2422 33.2897 40.9949 32.4503 38.6448 31.043C35.9171 29.4111 34.5099 27.0652 34.7814 24.6049C35.2542 20.3293 39.2927 18.5803 43.1244 18.0496C41.3822 16.2385 39.4525 13.628 38.8847 10.5543C38.3912 7.88588 38.9839 5.31807 40.6448 2.92254C41.8301 1.21343 43.1423 0.298223 44.6598 0.125933C47.5929 -0.20762 50.3027 2.24992 54.3977 5.97139C59.1639 10.3034 65.693 16.2357 75.6403 20.3211C75.6638 20.3307 75.6872 20.3404 75.7093 20.3514C82.7318 23.6373 86.4767 26.915 86.6324 27.0514C87.2789 27.6234 87.3409 28.6117 86.7675 29.2581C86.1969 29.9045 85.2086 29.9652 84.5622 29.3946C84.4836 29.3256 80.9345 26.252 74.4191 23.199C63.9825 18.9055 57.2287 12.7693 52.2957 8.28559C49.2097 5.48071 46.5385 3.05624 45.0141 3.23267C44.8046 3.2561 44.1678 3.32915 43.214 4.70471C42.0314 6.41107 41.6206 8.13535 41.9569 9.97679C42.7936 14.5459 47.9554 18.1392 48.0064 18.175C48.5867 18.5747 48.8293 19.3121 48.5977 19.9779C48.3661 20.6436 47.7225 21.0736 47.0154 21.024C46.9341 21.0199 38.3719 20.5774 37.8868 24.9495C37.7062 26.5814 39.2885 27.7874 40.2478 28.3608C44.0561 30.6392 51.0952 31.0802 55.827 27.8247C56.5354 27.3354 57.5099 27.5145 58.0006 28.2257C58.4899 28.937 58.3093 29.9101 57.5981 30.3994C54.6595 32.4227 51.0718 33.2897 47.6274 33.2897H47.6301Z" fill="#592832"/>
<path d="M54.5376 22.9288C54.5142 22.9288 54.4894 22.9288 54.4646 22.9274C54.1062 22.9109 45.6489 22.4657 42.3712 17.195C41.915 16.4617 42.1396 15.4983 42.8729 15.042C43.6062 14.5858 44.5696 14.8105 45.0259 15.5438C47.0327 18.7704 52.6232 19.7132 54.6066 19.8041C55.4694 19.8441 56.1365 20.5746 56.0965 21.4374C56.0579 22.2755 55.366 22.9288 54.5363 22.9288H54.5376Z" fill="#592832"/>
<path d="M48.8555 78.1928C49.3539 74.7469 46.802 71.5258 43.1556 70.9984C39.5092 70.471 36.1492 72.837 35.6508 76.283C35.1523 79.7289 37.7043 82.95 41.3507 83.4774C44.997 84.0048 48.3571 81.6388 48.8555 78.1928Z" fill="#FFE5C0"/>
<path d="M36.9181 76.1413C37.3844 73.0899 35.5482 70.2779 32.8166 69.8604C30.0851 69.4429 27.4927 71.578 27.0263 74.6294C26.56 77.6807 28.3962 80.4927 31.1277 80.9102C33.8593 81.3277 36.4517 79.1926 36.9181 76.1413Z" fill="#FFE5C0"/>
<path d="M35.6765 78.707C31.649 78.2701 30.2555 70.546 32.7144 69.9174C35.1734 69.2889 41.209 70.5129 41.1925 72.7099C41.1759 74.907 39.0134 79.0695 35.6765 78.7084V78.707Z" fill="#DBAB7A"/>
<path d="M36.4249 76.3669C31.9412 75.8694 30.1039 69.6339 32.8082 69.2204C35.5125 68.8069 42.2538 70.0101 42.3172 71.7689C42.382 73.5276 40.1395 76.7804 36.4235 76.3669H36.4249Z" fill="#592832"/>
<path d="M43.2066 85.2589C42.6539 85.2589 42.0943 85.1983 41.5361 85.077C36.8236 84.046 33.7693 79.9469 34.4322 75.5404C34.5604 74.6872 35.3529 74.0973 36.2103 74.2268C37.0634 74.355 37.652 75.1517 37.5238 76.0049C37.0469 79.1791 39.5182 81.4354 42.2059 82.0226C43.6725 82.3438 45.0922 81.9661 46.2031 80.9613C46.8426 80.381 47.8309 80.4306 48.4111 81.0702C48.99 81.7097 48.9418 82.698 48.3023 83.2783C46.873 84.5739 45.0784 85.2603 43.2094 85.2603L43.2066 85.2589Z" fill="#592832"/>
<path d="M31.5194 82.9499C29.7965 82.9499 27.798 82.3158 26.7835 80.4606C26.37 79.7025 26.6484 78.7529 27.4051 78.3394C28.1632 77.9259 29.1115 78.2029 29.5264 78.961C29.9412 79.7177 31.1183 79.9203 32.0432 79.788C33.4146 79.5909 34.141 79.1126 34.5448 78.1395C34.877 77.3428 35.7922 76.9652 36.5889 77.2974C37.3856 77.6295 37.7632 78.5434 37.4324 79.3414C36.6013 81.3386 34.9377 82.5308 32.4884 82.8823C32.1824 82.9264 31.8557 82.9512 31.5194 82.9512V82.9499Z" fill="#592832"/>
<path d="M31.2731 80.7422C31.2731 80.7422 31.3103 80.9917 31.3751 81.4038C31.6838 83.3445 32.6225 88.906 33.3268 89.3333C34.1814 89.8529 39.7388 90.9459 40.4431 90.4001C41.1474 89.8543 42.9626 83.6505 42.9626 83.6505C42.9626 83.6505 38.8015 83.8628 36.6651 78.9697C36.6651 78.9697 33.466 81.9648 31.2717 80.7422H31.2731Z" fill="white"/>
<path d="M42.9626 83.6505C42.9626 83.6505 38.8015 83.8628 36.6651 78.9697C36.6651 78.9697 33.466 81.9648 31.2717 80.7422C31.2717 80.7422 31.3089 80.9917 31.3737 81.4038C31.4812 82.0847 31.6673 83.2108 31.8934 84.4044C33.2248 84.4541 34.9698 84.257 36.3067 83.1598C37.2536 85.3872 39.9744 86.4182 41.9923 86.7393C42.5216 85.1501 42.9613 83.6505 42.9613 83.6505H42.9626Z" fill="#C6AEA7"/>
<path d="M39.3766 92.0841C36.8322 92.0841 33.0983 91.0241 32.5167 90.6713C31.8303 90.255 31.5822 89.5425 31.4485 89.1607L31.4223 89.0876C31.2059 88.4922 31.0502 87.8802 30.922 87.3537C30.6601 86.2772 30.4547 85.2118 30.3045 84.4027C30.27 84.218 30.2397 84.0333 30.2094 83.8486C30.168 83.5936 30.1267 83.3386 30.0715 83.0878C30.0219 82.8645 29.993 82.6481 29.9627 82.4248L29.9392 82.2456C29.9337 82.207 29.9296 82.1615 29.9254 82.1119C29.7917 81.7687 29.778 81.3759 29.9158 81.0024C30.2135 80.1988 31.0998 79.7867 31.9033 80.0706C32.2851 80.1327 33.4746 79.6944 34.2479 79.1623C34.3016 78.9928 34.3802 78.7695 34.5221 78.5324C34.5428 78.4442 34.5649 78.3464 34.5787 78.2816C34.6241 77.7261 34.966 77.2134 35.5132 76.9749C36.3029 76.6317 37.2209 76.9901 37.5682 77.7785C37.5696 77.7812 37.571 77.7854 37.5724 77.7881C39.145 81.4338 43.1504 82.3683 43.1918 82.3779C43.6122 82.4717 43.9788 82.7363 44.198 83.1071C44.4171 83.4778 44.4777 83.923 44.3592 84.3365C42.5095 90.776 41.7625 91.3563 41.4027 91.6347C40.9865 91.9573 40.2518 92.0827 39.3766 92.0827V92.0841ZM34.3871 88.0966C35.4167 88.4453 38.2946 88.976 39.4896 88.9939C39.8397 88.2303 40.4089 86.5791 40.9244 84.9113C39.6192 84.3765 37.7584 83.3648 36.2588 81.5661C35.6979 81.981 34.5125 82.6908 33.2389 83.0216C33.2568 83.1291 33.2748 83.2366 33.2927 83.3428C33.3189 83.5068 33.3464 83.6708 33.3768 83.8334C33.5187 84.6012 33.7144 85.6129 33.9584 86.6163C34.0714 87.0808 34.1955 87.5715 34.3595 88.0208L34.3871 88.098V88.0966ZM30.8282 83.0065C30.8282 83.0065 30.8365 83.0092 30.8406 83.0106C30.8365 83.0092 30.8338 83.0078 30.8296 83.0065H30.8282ZM34.6944 79.0066C34.6972 79.0148 34.7013 79.0231 34.7041 79.0314C34.7041 79.0314 34.7041 79.0286 34.7027 79.0272C34.6999 79.0204 34.6972 79.0135 34.6944 79.0066Z" fill="#592832"/>
<path d="M36.3802 90.1648C36.0273 90.1648 35.7324 89.8864 35.7158 89.5308C35.7034 89.2606 35.4153 82.8542 36.008 78.8722C36.0618 78.5083 36.3995 78.2561 36.7633 78.3126C37.1272 78.3664 37.3781 78.7054 37.3229 79.0679C36.7496 82.9231 37.0404 89.4039 37.0431 89.4687C37.0597 89.8354 36.7757 90.1469 36.4091 90.1634C36.3995 90.1634 36.3884 90.1634 36.3774 90.1634L36.3802 90.1648Z" fill="#592832"/>
<path d="M57.5839 60.9675C57.085 60.9675 56.5943 60.729 56.2911 60.2852C55.8031 59.5726 55.9865 58.5981 56.699 58.1116C62.4963 54.1489 68.7304 54.459 68.9923 54.4742C69.8551 54.5238 70.514 55.2626 70.4643 56.1254C70.4147 56.9869 69.6718 57.6457 68.8159 57.5975C68.7318 57.592 63.3398 57.3618 58.4647 60.6946C58.1945 60.8793 57.8872 60.9675 57.5826 60.9675H57.5839Z" fill="#592832"/>
<path d="M27.4589 56.1318C26.8856 56.1318 26.3328 55.8148 26.0586 55.2662C24.1386 51.4249 20.1855 50.2574 20.1456 50.245C19.3144 50.0079 18.8334 49.1424 19.0705 48.3112C19.3076 47.4815 20.1718 46.9991 21.0043 47.2361C21.2207 47.2982 26.3273 48.8061 28.8566 53.8672C29.2425 54.6405 28.9296 55.5791 28.1564 55.965C27.9317 56.0767 27.6932 56.1304 27.4576 56.1304L27.4589 56.1318Z" fill="#592832"/>
<path d="M25.1158 63.6736C25.8688 58.8264 23.1974 54.3872 19.149 53.7583C15.1007 53.1294 11.2084 56.549 10.4554 61.3962C9.70246 66.2434 12.3739 70.6827 16.4222 71.3116C20.4706 71.9404 24.3629 68.5208 25.1158 63.6736Z" fill="#592832"/>
<path d="M22.3464 61.4497C22.578 59.9589 21.6571 58.5781 20.2896 58.3656C18.9221 58.1532 17.6258 59.1896 17.3942 60.6804C17.1626 62.1713 18.0834 63.5521 19.4509 63.7645C20.8184 63.977 22.1148 62.9406 22.3464 61.4497Z" fill="white"/>
<path d="M69.2083 83.0381C75.1793 83.0381 80.0198 78.1976 80.0198 72.2266C80.0198 66.2555 75.1793 61.415 69.2083 61.415C63.2372 61.415 58.3967 66.2555 58.3967 72.2266C58.3967 78.1976 63.2372 83.0381 69.2083 83.0381Z" fill="#592832"/>
<path d="M66.2305 72.313C67.925 72.313 69.2986 70.9394 69.2986 69.2449C69.2986 67.5504 67.925 66.1768 66.2305 66.1768C64.536 66.1768 63.1624 67.5504 63.1624 69.2449C63.1624 70.9394 64.536 72.313 66.2305 72.313Z" fill="white"/>
<path d="M75.5039 118.66C75.5039 118.66 64.928 117.592 59.882 115.683C54.836 113.774 59.7373 109.902 55.0744 107.404C50.4116 104.905 49.6328 109.66 47.3958 109.073C45.1602 108.486 37.9653 104.031 36.2466 107.404C34.5264 110.776 36.9123 113.802 36.9123 113.802C36.9123 113.802 34.7194 117.305 36.2466 121.817C38.2893 127.851 58.0282 140.901 76.6769 137.793C79.938 131.198 79.8112 124.803 75.5039 118.659V118.66Z" fill="#EAAC71"/>
<path d="M76.6802 137.793C76.8649 137.42 77.0344 137.048 77.1971 136.677C76.9614 133.974 74.8016 130.688 66.4269 130.272C40.4152 128.421 36.9157 113.801 36.9157 113.801C36.9157 113.801 34.7228 117.304 36.2499 121.817C38.2926 127.851 58.0315 140.901 76.6802 137.793Z" fill="#D6823C"/>
<path d="M44.914 130.272L44.9182 130.242C44.9182 130.242 53.501 128.706 57.4705 113.403C56.9785 111.475 58.2754 109.116 55.0777 107.405C50.4149 104.906 49.6361 109.661 47.3991 109.074C45.1635 108.487 37.9687 104.032 36.2499 107.405C34.5311 110.776 36.9156 113.803 36.9156 113.803C36.9156 113.803 34.7227 117.306 36.2499 121.819C37.0093 124.064 40.2222 127.28 44.914 130.274V130.272Z" fill="#AE6745"/>
<path d="M36.5493 122.506C36.6168 122.641 36.6926 122.778 36.7753 122.917C36.8098 122.973 36.8415 123.031 36.8773 123.089C36.9958 123.278 37.1226 123.471 37.266 123.668C37.2853 123.694 37.3087 123.723 37.328 123.749C37.4548 123.922 37.5927 124.097 37.7388 124.274C37.7994 124.348 37.8628 124.422 37.9262 124.496C38.0447 124.636 38.1688 124.776 38.297 124.918C38.3673 124.995 38.4362 125.071 38.5092 125.15C38.6994 125.352 38.8965 125.556 39.106 125.762C39.1763 125.831 39.2522 125.899 39.3238 125.968C39.4782 126.116 39.6353 126.265 39.7993 126.415C39.9055 126.511 40.0157 126.609 40.1274 126.707C40.2707 126.834 40.4182 126.961 40.5685 127.089C40.6856 127.188 40.8014 127.287 40.9227 127.388C41.1446 127.571 41.3734 127.755 41.6077 127.938C41.7593 128.057 41.9164 128.175 42.0736 128.295C42.2362 128.419 42.4002 128.543 42.5698 128.666C42.7228 128.777 42.8771 128.889 43.0343 129.001C43.1969 129.116 43.3623 129.232 43.5305 129.348C43.689 129.457 43.8461 129.567 44.0074 129.676C44.3023 129.875 44.6042 130.072 44.9115 130.269L44.9157 130.238C44.9157 130.238 47.5248 129.767 50.5296 126.784C38.8497 121.878 36.9118 113.798 36.9118 113.798C36.9118 113.798 34.7189 117.302 36.246 121.814C36.3039 121.984 36.3797 122.16 36.4638 122.341C36.4886 122.394 36.5176 122.45 36.5465 122.505L36.5493 122.506Z" fill="#924921"/>
<path d="M70.8404 139.831C53.3495 139.831 36.7697 128.234 34.767 122.32C33.4906 118.55 34.4637 115.385 35.1198 113.891C34.3659 112.527 33.3004 109.744 34.8552 106.694C36.8386 102.804 42.4125 105.26 45.7425 106.728C46.5874 107.1 47.3855 107.453 47.7962 107.56C47.9134 107.522 48.3283 107.162 48.6012 106.924C49.8678 105.821 51.9891 103.974 55.8153 106.025C58.9344 107.697 58.9151 110.099 58.9014 111.689C58.8889 113.143 58.8848 113.632 60.4368 114.219C65.2347 116.034 75.5584 117.093 75.6617 117.104C76.5218 117.191 77.1476 117.959 77.0607 118.817C76.9739 119.677 76.2103 120.303 75.3475 120.216C74.9064 120.172 64.507 119.105 59.33 117.145C55.7381 115.786 55.7588 113.304 55.7726 111.662C55.7836 110.263 55.7905 109.56 54.3364 108.782C52.4108 107.751 51.7506 108.327 50.6549 109.282C49.8113 110.017 48.6563 111.021 46.9996 110.586C46.349 110.415 45.5234 110.051 44.48 109.591C42.7847 108.844 38.2817 106.859 37.6421 108.115C36.4127 110.525 38.0777 112.75 38.1494 112.844C38.5449 113.362 38.5849 114.08 38.2403 114.633C38.1728 114.744 36.4747 117.607 37.7304 121.316C38.5436 123.72 43.4421 128.22 50.9154 131.826C55.9076 134.234 65.8591 138.012 76.4212 136.252C77.2716 136.108 78.0793 136.686 78.2213 137.538C78.3632 138.389 77.7871 139.196 76.9353 139.338C74.9064 139.675 72.8665 139.831 70.839 139.831H70.8404Z" fill="#592832"/>
<path d="M39.9656 118.678C39.6776 118.678 39.3853 118.598 39.1248 118.431C38.9815 118.34 35.6156 116.146 34.309 111.863C34.0568 111.036 34.5226 110.163 35.3496 109.91C36.1766 109.658 37.0505 110.124 37.3027 110.95C38.2606 114.092 40.7871 115.779 40.8119 115.794C41.5397 116.26 41.7519 117.228 41.2874 117.956C40.9883 118.423 40.4839 118.676 39.9684 118.676L39.9656 118.678Z" fill="#592832"/>
</g>
<defs>
<clipPath id="clip0_2105_10886">
<rect width="153.269" height="192" fill="white" transform="translate(0.365479)"/>
</clipPath>
</defs>
</svg>
