<svg width="1780" height="1281" viewBox="0 0 1780 1281" fill="none" xmlns="http://www.w3.org/2000/svg">
<path d="M1313.12 14.3291H64.7913C35.245 14.3291 11.293 38.2811 11.293 67.8274V855.934C11.293 885.481 35.245 909.433 64.7913 909.433H1313.12C1342.67 909.433 1366.62 885.481 1366.62 855.934V67.8274C1366.62 38.2811 1342.67 14.3291 1313.12 14.3291Z" fill="#AB69F3"/>
<path d="M1313.12 14.3291H64.7913C35.2387 14.3291 11.293 38.2748 11.293 67.8274V90.0989C11.293 60.5463 35.2387 36.6006 64.7913 36.6006H1313.12C1342.68 36.6006 1366.62 60.5463 1366.62 90.0989V67.8274C1366.62 38.2748 1342.68 14.3291 1313.12 14.3291Z" fill="#CAA0F7"/>
<path d="M1313.12 14.3291H64.7913C35.245 14.3291 11.293 38.2811 11.293 67.8274V855.934C11.293 885.481 35.245 909.433 64.7913 909.433H1313.12C1342.67 909.433 1366.62 885.481 1366.62 855.934V67.8274C1366.62 38.2811 1342.67 14.3291 1313.12 14.3291Z" stroke="#592832" stroke-width="21.0255" stroke-linecap="round" stroke-linejoin="round"/>
<path d="M58.0176 852.819L60.5095 90.0986L1322.31 92.6295L1319.78 852.975C1319.74 865.513 1309.54 875.675 1297.01 875.675H80.7563C68.141 875.675 57.9397 865.435 57.9786 852.819H58.0176Z" fill="#CAA0F7"/>
<path d="M64.8301 853.366L67.361 67.8286L1313.12 70.3595L1310.55 853.366H64.8301Z" fill="white"/>
<path d="M64.8301 853.366L67.361 67.8286L1313.12 70.3595L1310.55 853.366H64.8301Z" stroke="#592832" stroke-width="21.0255" stroke-linecap="round" stroke-linejoin="round"/>
<path d="M415.18 891.522V920.024C415.18 930.498 423.668 938.947 434.103 938.947H943.855C954.329 938.947 962.778 930.459 962.778 920.024V891.522H415.18Z" fill="#B7C3D1"/>
<path d="M962.778 891.522H415.18V911.769H962.778V891.522Z" fill="#EBF0F1"/>
<path d="M415.18 891.522V920.024C415.18 930.498 423.668 938.947 434.103 938.947H943.855C954.329 938.947 962.778 930.459 962.778 920.024V891.522H415.18V891.522Z" stroke="#592832" stroke-width="21.0255" stroke-linecap="round" stroke-linejoin="round"/>
<path d="M700.233 845.227H516.454C503.681 845.227 493.326 855.582 493.326 868.355V868.394C493.326 881.167 503.681 891.522 516.454 891.522H700.233C713.006 891.522 723.361 881.167 723.361 868.394V868.355C723.361 855.582 713.006 845.227 700.233 845.227Z" fill="#EBF0F1"/>
<path d="M700.233 874.236H516.454C507.071 874.236 500.529 867.812 496.908 859.752C495.623 862.633 493.326 865.008 493.326 868.396C493.326 881.167 503.683 891.524 516.454 891.524H700.233C713.004 891.524 723.361 881.167 723.361 868.396C723.361 865.008 721.064 862.633 719.779 859.752C716.158 867.812 709.617 874.236 700.233 874.236Z" fill="#B7C3D1"/>
<path d="M700.237 845.227H647.322V891.522H700.237C713.008 891.522 723.365 881.165 723.365 868.394C723.365 855.623 713.008 845.266 700.237 845.266V845.227Z" fill="#50BFCE"/>
<path d="M719.782 859.752C716.161 867.812 709.62 874.236 700.237 874.236H647.322V891.524H700.237C713.008 891.524 723.365 881.167 723.365 868.396C723.365 865.008 721.067 862.633 719.782 859.752Z" fill="#0092AC"/>
<path d="M700.233 845.227H516.454C503.681 845.227 493.326 855.582 493.326 868.355V868.394C493.326 881.167 503.681 891.522 516.454 891.522H700.233C713.006 891.522 723.361 881.167 723.361 868.394V868.355C723.361 855.582 713.006 845.227 700.233 845.227Z" stroke="#592832" stroke-width="21.0255" stroke-linecap="round" stroke-linejoin="round"/>
<path d="M531.328 845.228H516.454C503.683 845.228 493.326 855.585 493.326 868.356C493.326 881.127 503.683 891.484 516.454 891.484H531.328V845.189V845.228Z" fill="#50BFCE"/>
<path d="M516.454 874.236C507.071 874.236 500.529 867.812 496.908 859.752C495.623 862.633 493.326 865.008 493.326 868.396C493.326 881.167 503.683 891.524 516.454 891.524H531.328V874.236H516.454Z" fill="#0092AC"/>
<path d="M531.328 845.228H516.454C503.683 845.228 493.326 855.585 493.326 868.356C493.326 881.127 503.683 891.484 516.454 891.484H531.328V845.189V845.228Z" stroke="#592832" stroke-width="21.0255" stroke-linecap="round" stroke-linejoin="round"/>
<path d="M700.237 845.227H647.322V891.522H700.237C713.008 891.522 723.365 881.165 723.365 868.394C723.365 855.623 713.008 845.266 700.237 845.266V845.227Z" stroke="#592832" stroke-width="21.0255" stroke-linecap="round" stroke-linejoin="round"/>
<path d="M1384.45 1124.9C1517.07 1116.26 1534.2 994.857 1482.33 850.482C1430.51 706.107 1470.3 599.11 1581.08 586.845C1691.85 574.58 1795.69 708.209 1757.61 878.477C1719.53 1048.78 1558.69 1205.54 1343.49 1212.78L1384.49 1124.9H1384.45Z" fill="#EAAC71"/>
<path d="M1384.45 1124.9C1517.07 1116.26 1534.2 994.857 1482.33 850.482C1430.51 706.107 1470.3 599.11 1581.08 586.845C1691.85 574.58 1795.69 708.209 1757.61 878.477C1719.53 1048.78 1558.69 1205.54 1343.49 1212.78L1384.49 1124.9H1384.45Z" fill="#AE6745"/>
<path d="M1417.04 1124.91C1549.66 1116.26 1562.04 985.202 1510.21 840.827C1458.7 697.308 1502.47 600.474 1611.68 587.119C1601.6 585.834 1591.4 585.717 1581.08 586.846C1470.31 599.111 1430.51 706.108 1482.34 850.483C1534.16 994.858 1517.03 1116.26 1384.45 1124.91L1343.45 1212.78C1354.86 1212.39 1366.07 1211.58 1377.17 1210.37L1417.04 1124.91Z" fill="#C18B71"/>
<path d="M1682.54 846.277C1680.17 843.785 1676.31 843.746 1673.86 846.082C1666.31 853.402 1658.52 861.151 1650.69 869.327C1638.82 847.951 1624.99 825.952 1610.67 804.693C1624.18 789.897 1638.39 775.024 1652.72 761.046C1658.36 771.13 1663.62 781.292 1668.33 791.338C1669.38 793.596 1671.6 794.881 1673.9 794.881C1674.76 794.881 1675.65 794.686 1676.51 794.297C1679.54 792.818 1680.87 789.196 1679.43 786.12C1674.13 774.868 1668.18 763.538 1661.87 752.246C1667.24 747.184 1672.58 742.278 1677.95 737.567C1680.48 735.309 1680.71 731.415 1678.49 728.923C1676.24 726.392 1672.34 726.159 1669.85 728.378C1665.14 732.583 1660.35 736.905 1655.6 741.383C1641.54 717.437 1625.93 694.114 1610.78 672.933C1616.04 667.755 1621.45 662.654 1626.9 657.631C1629.39 655.373 1629.55 651.479 1627.29 648.948C1624.96 646.418 1621.1 646.301 1618.61 648.598C1613.51 653.309 1608.45 658.098 1603.46 662.888C1593.96 649.961 1584.77 637.968 1576.4 627.378C1574.3 624.73 1570.48 624.263 1567.8 626.404C1565.15 628.507 1564.72 632.323 1566.82 635.009C1575.43 645.911 1584.89 658.254 1594.7 671.648C1578.35 688.001 1563.01 704.705 1549.34 720.357C1525.4 689.52 1507.88 668.923 1507.41 668.378C1505.23 665.808 1501.33 665.496 1498.8 667.716C1496.23 669.935 1495.92 673.751 1498.1 676.321C1498.57 676.866 1516.67 698.125 1541.17 729.819C1524.66 749.209 1511.07 766.38 1501.76 778.528C1493.78 768.716 1488.87 763.031 1488.64 762.798C1486.42 760.228 1482.57 759.917 1480 762.136C1477.47 764.355 1477.15 768.21 1479.37 770.741C1479.61 771.013 1485.18 777.516 1494.17 788.573C1490.24 793.83 1488.06 796.906 1487.98 797.062C1485.99 799.826 1486.65 803.642 1489.42 805.589C1490.51 806.367 1491.72 806.718 1492.96 806.718C1494.87 806.718 1496.78 805.822 1497.95 804.148C1498.02 804.031 1499.46 802.007 1502.07 798.463C1514.42 813.999 1530.61 835.024 1547.67 859.009C1532.6 877.348 1520.26 893.195 1511.89 904.058C1509.04 900.126 1506.24 896.349 1503.51 892.728C1501.49 890.08 1497.63 889.535 1494.91 891.599C1492.22 893.662 1491.72 897.517 1493.78 900.203C1497.13 904.564 1500.59 909.315 1504.14 914.259C1501.61 917.647 1500.2 919.555 1500.09 919.711C1498.06 922.397 1498.65 926.252 1501.41 928.277C1502.5 929.055 1503.75 929.484 1504.99 929.484C1506.9 929.484 1508.77 928.588 1509.98 926.953C1510.06 926.875 1510.56 926.096 1511.53 924.85C1523.88 942.955 1536.8 963.592 1548.99 984.734C1536.34 1000.07 1525.05 1014.05 1515.93 1025.5C1514.96 1024.25 1514.3 1023.48 1514.14 1023.28C1512 1020.67 1508.11 1020.32 1505.54 1022.46C1502.93 1024.6 1502.54 1028.46 1504.68 1031.07C1504.76 1031.15 1506.05 1032.7 1508.07 1035.39C1497.79 1048.36 1491.68 1056.3 1491.44 1056.65C1489.38 1059.34 1489.89 1063.19 1492.53 1065.25C1493.66 1066.11 1494.99 1066.54 1496.27 1066.54C1498.1 1066.54 1499.93 1065.68 1501.14 1064.12C1501.33 1063.81 1506.63 1057 1515.51 1045.75C1522.94 1056.69 1531.74 1071.76 1533.5 1083.67C1533.96 1086.71 1536.53 1088.93 1539.53 1088.93C1539.84 1088.93 1540.11 1088.93 1540.43 1088.85C1543.77 1088.38 1546.07 1085.27 1545.6 1081.92C1543.35 1066.46 1531.9 1047.81 1523.45 1035.78C1532.21 1024.76 1543.15 1011.21 1555.45 996.22C1565.93 1014.91 1575.7 1033.6 1583.84 1050.93C1584.89 1053.18 1587.11 1054.47 1589.37 1054.47C1590.26 1054.47 1591.12 1054.27 1592.02 1053.88C1595.05 1052.41 1596.38 1048.78 1594.94 1045.71C1586.06 1026.86 1575.31 1006.38 1563.79 986.097C1575.39 972.08 1588.01 957.167 1601.13 942.06C1608.37 954.831 1615.11 967.641 1621.06 980.295C1622.11 982.553 1624.29 983.838 1626.63 983.838C1627.49 983.838 1628.38 983.644 1629.2 983.254C1632.28 981.775 1633.6 978.154 1632.12 975.078C1625.46 960.944 1617.83 946.577 1609.65 932.326C1622.19 918.036 1635.08 903.708 1647.85 890.119C1650.38 895.025 1652.8 899.892 1655.01 904.681C1656.07 906.901 1658.29 908.224 1660.54 908.224C1661.44 908.224 1662.3 908.03 1663.19 907.64C1666.23 906.2 1667.55 902.54 1666.11 899.503C1663.19 893.351 1660.08 887.082 1656.73 880.735C1665.45 871.663 1674.02 863.019 1682.31 854.999C1684.72 852.623 1684.8 848.73 1682.46 846.355L1682.54 846.277ZM1601.94 681.694C1617.13 702.914 1632.63 726.237 1646.49 750.066C1631.89 764.199 1617.44 779.229 1603.62 794.297C1587.69 771.13 1571.46 749.17 1556.97 730.247C1570.48 714.673 1585.67 698.047 1601.94 681.655V681.694ZM1509.7 788.34C1518.58 776.659 1532.13 759.449 1548.84 739.748C1563.28 758.709 1579.44 780.63 1595.17 803.642C1581.04 819.333 1567.72 834.869 1555.77 849.236C1538.36 824.862 1521.93 803.642 1509.7 788.34ZM1557.36 974.688C1544.9 953.351 1531.82 932.56 1519.36 914.532C1527.19 904.253 1539.61 888.289 1555.03 869.405C1568.42 888.717 1582.13 909.587 1594.66 930.807C1581.62 945.798 1568.97 960.671 1557.32 974.688H1557.36ZM1603.15 921.112C1590.42 899.736 1576.56 878.828 1563.09 859.593C1574.92 845.342 1588.12 829.807 1602.22 814.116C1616.51 835.414 1630.21 857.374 1641.82 878.633C1628.93 892.299 1615.88 906.667 1603.15 921.112Z" fill="#924921"/>
<path d="M1528.55 902.616C1527.38 897.632 1526.18 892.57 1524.81 887.509C1519.87 893.778 1515.55 899.423 1511.93 904.057C1509.08 900.124 1506.28 896.347 1503.56 892.726C1501.61 890.195 1497.99 889.611 1495.34 891.363C1496.86 896.931 1498.26 902.421 1499.55 907.833C1501.06 909.975 1502.62 912.078 1504.18 914.297C1503.17 915.66 1502.35 916.711 1501.73 917.606C1502.58 921.578 1503.36 925.51 1504.02 929.443C1504.37 929.521 1504.72 929.521 1505.04 929.521C1506.94 929.521 1508.81 928.625 1510.02 926.99C1510.1 926.912 1510.6 926.133 1511.58 924.887C1520.3 937.659 1529.25 951.714 1538.09 966.316C1537.59 957.321 1536.65 948.093 1535.33 938.632C1529.95 930.261 1524.62 922.123 1519.36 914.569C1521.93 911.182 1525.05 907.172 1528.55 902.616Z" fill="#A66A49"/>
<path d="M1497.13 674.723C1497.98 672.075 1498.96 669.466 1499.97 666.936C1499.54 667.13 1499.11 667.403 1498.76 667.714C1496.7 669.505 1496.11 672.309 1497.13 674.723Z" fill="#A66A49"/>
<path d="M1538.16 997.971C1529.87 1008.13 1522.36 1017.44 1515.97 1025.5C1515 1024.25 1514.34 1023.47 1514.18 1023.28C1512.27 1020.94 1508.96 1020.44 1506.47 1021.88C1505.89 1024.91 1505.3 1027.91 1504.6 1030.87C1504.6 1030.95 1504.68 1031.03 1504.72 1031.07C1504.76 1031.11 1506.08 1032.7 1508.11 1035.39C1505.26 1039.01 1502.73 1042.2 1500.55 1044.97C1498.18 1051.9 1495.33 1058.48 1491.99 1064.67C1492.18 1064.86 1492.34 1065.06 1492.57 1065.25C1493.7 1066.11 1495.02 1066.54 1496.31 1066.54C1498.14 1066.54 1499.97 1065.68 1501.18 1064.12C1501.37 1063.81 1506.67 1057 1515.54 1045.75C1518.27 1049.76 1521.19 1054.31 1523.84 1059.02C1525.98 1054.47 1527.89 1049.72 1529.52 1044.73C1527.46 1041.46 1525.43 1038.43 1523.49 1035.7C1527.15 1031.11 1531.2 1026.04 1535.52 1020.67C1536.8 1013.35 1537.66 1005.8 1538.16 997.971Z" fill="#A66A49"/>
<path d="M1494.17 788.572C1490.24 793.829 1488.06 796.905 1487.98 797.061C1485.99 799.825 1486.65 803.641 1489.42 805.587C1490.51 806.366 1491.72 806.717 1492.96 806.717C1494.87 806.717 1496.78 805.821 1497.95 804.147C1497.95 804.069 1498.18 803.796 1498.57 803.251C1495.26 790.247 1492.77 777.709 1491.13 765.678C1489.61 763.887 1488.76 762.875 1488.64 762.758C1486.42 760.188 1482.57 759.876 1480 762.096C1477.47 764.315 1477.15 768.17 1479.37 770.701C1479.61 770.973 1485.18 777.476 1494.17 788.533V788.572Z" fill="#A66A49"/>
<path d="M1581.12 586.845C1574.07 587.624 1568.15 589.882 1561.69 591.401C1663.04 592.296 1752.94 715.646 1717.78 872.792C1683.17 1027.68 1542.92 1169.37 1353.3 1191.84L1343.49 1212.82C1558.73 1205.54 1719.57 1048.82 1757.65 878.516C1795.73 708.209 1691.89 574.58 1581.12 586.845Z" fill="#924921"/>
<path d="M1581.12 586.845C1574.07 587.624 1568.66 588.987 1562.19 590.505C1663.31 585.171 1752.94 715.646 1717.82 872.792C1683.21 1027.68 1542.96 1169.37 1353.34 1191.84L1343.53 1212.82C1558.77 1205.54 1719.61 1048.82 1757.69 878.516C1795.77 708.209 1691.93 574.58 1581.15 586.845H1581.12Z" stroke="#592832" stroke-width="21.0255" stroke-linecap="round" stroke-linejoin="round"/>
<path d="M1384.45 1124.9C1517.07 1116.26 1534.2 994.857 1482.33 850.482C1430.51 706.107 1470.3 599.11 1581.08 586.845C1691.85 574.58 1795.69 708.209 1757.61 878.477C1719.53 1048.78 1558.69 1205.54 1343.49 1212.78L1384.49 1124.9H1384.45Z" stroke="#592832" stroke-width="21.0255" stroke-linecap="round" stroke-linejoin="round"/>
<path d="M1322.46 701.318C1260.71 734.103 1180.38 753.882 1092.51 753.882C1035.93 753.882 982.472 745.667 935.087 731.066C943.575 769.223 950.389 832.378 924.652 893.507C883.964 990.147 817.811 1201.26 1115.4 1201.26C1302.76 1201.26 1446.01 1019 1399.83 878.244C1377.75 821.787 1323.44 772.494 1322.46 701.318Z" fill="#EAAC71"/>
<path d="M947.936 893.508C972.193 835.921 967.521 776.543 959.811 737.958C951.401 735.855 943.147 733.558 935.087 731.066C943.575 769.223 950.389 832.378 924.652 893.508C883.964 990.147 817.811 1201.26 1115.4 1201.26C1118.55 1201.26 1121.67 1201.18 1124.78 1201.1C843.198 1194.56 907.87 988.629 947.936 893.508Z" fill="#F5D7BB"/>
<path d="M1283.99 1147.88C1230.38 1103.72 1190.12 1032.2 1181.83 944.826C1168.08 799.984 978.579 779.854 934.503 864.618C931.933 874.235 928.701 883.891 924.652 893.508C883.964 990.148 817.811 1201.26 1115.4 1201.26C1178.44 1201.26 1236.45 1180.62 1283.96 1147.88H1283.99Z" fill="#FFE5C0"/>
<path d="M1183.77 1193.04C1188.01 1192.03 1192.18 1190.86 1196.35 1189.66C1197.51 1189.31 1198.68 1188.95 1199.85 1188.6C1202.85 1187.71 1205.81 1186.74 1208.73 1185.76C1210.05 1185.29 1211.41 1184.83 1212.74 1184.36C1215.62 1183.35 1218.46 1182.26 1221.3 1181.17C1222.47 1180.7 1223.64 1180.27 1224.81 1179.8C1232.67 1176.61 1240.34 1173.11 1247.86 1169.33C1248.99 1168.75 1250.12 1168.16 1251.21 1167.58C1253.85 1166.22 1256.46 1164.81 1259.03 1163.37C1260.28 1162.67 1261.53 1161.97 1262.77 1161.23C1265.3 1159.75 1267.83 1158.27 1270.29 1156.75C1271.38 1156.09 1272.51 1155.43 1273.56 1154.73C1277.06 1152.51 1280.53 1150.25 1283.91 1147.92C1280.84 1145.39 1277.8 1142.74 1274.84 1140.01C1273.98 1139.23 1273.13 1138.38 1272.27 1137.56C1270.17 1135.57 1268.03 1133.59 1265.96 1131.52C1265.03 1130.59 1264.1 1129.62 1263.16 1128.64C1261.21 1126.62 1259.27 1124.55 1257.36 1122.45C1256.42 1121.44 1255.53 1120.39 1254.63 1119.38C1252.76 1117.23 1250.9 1115.09 1249.07 1112.87C1220.21 1077.91 1198.18 1033.44 1187.43 982.165C1171 1006.27 1144.25 1058.75 1159.67 1129.5C1161.89 1139.66 1155.27 1149.71 1145.11 1152C1055.4 1172.41 962.262 1156.01 897.628 1096.33L896.693 1096.17C916.59 1155.16 976.24 1201.3 1115.32 1201.3C1138.92 1201.3 1161.77 1198.42 1183.65 1193.08L1183.77 1193.04Z" fill="#DBAB7A"/>
<path d="M947.936 893.508C956.463 873.261 961.369 852.819 963.861 833.118C951.44 841.1 941.239 851.612 934.503 864.617C933.919 866.875 933.257 869.095 932.595 871.353C932.439 871.898 932.245 872.482 932.089 873.027C931.583 874.663 931.038 876.337 930.492 877.972C930.259 878.673 930.025 879.413 929.753 880.114C929.208 881.71 928.624 883.267 928.039 884.864C927.806 885.526 927.533 886.188 927.3 886.85C926.443 889.069 925.587 891.249 924.652 893.469C883.964 990.108 817.811 1201.22 1115.4 1201.22C1118.36 1201.22 1121.28 1201.14 1124.24 1201.03C843.314 1194.25 907.909 988.512 947.936 893.469V893.508Z" fill="#FFF7EC"/>
<path d="M1399.83 878.243C1381.8 832.143 1342.32 790.871 1327.88 738.54C1327.14 735.854 1326.48 733.128 1325.89 730.364C1325.78 729.897 1325.7 729.468 1325.58 729.001C1325 726.198 1324.45 723.355 1324.02 720.474C1324.02 720.435 1324.02 720.357 1324.02 720.318C1323.63 717.632 1323.32 714.906 1323.09 712.142C1323.01 711.441 1322.97 710.74 1322.93 710.039C1322.7 707.197 1322.54 704.316 1322.5 701.356C1260.75 734.141 1180.43 753.92 1092.55 753.92C1035.97 753.92 982.514 745.705 935.129 731.104C935.518 732.895 935.908 734.764 936.297 736.633C936.414 737.178 936.531 737.723 936.647 738.307C936.959 739.825 937.231 741.344 937.543 742.901C937.621 743.408 937.738 743.914 937.815 744.459C938.166 746.444 938.516 748.508 938.867 750.572C938.945 751.078 939.022 751.623 939.1 752.129C939.334 753.531 939.529 754.972 939.723 756.451C996.96 784.952 1088.3 796.828 1189.85 785.069C1201.26 783.083 1212.43 780.786 1223.33 778.139C1249.81 771.714 1277.11 784.991 1288.09 809.988C1306 850.832 1335.86 885.875 1350.85 924.227C1374.17 995.286 1349.18 1076.9 1294.63 1140.32C1381.69 1074.83 1429.38 968.108 1399.91 878.282L1399.83 878.243Z" fill="#D6823C"/>
<path d="M1322.46 701.318C1260.71 734.103 1180.38 753.882 1092.51 753.882C1035.93 753.882 982.472 745.667 935.087 731.066C943.575 769.223 950.389 832.378 924.652 893.507C883.964 990.147 817.811 1201.26 1115.4 1201.26C1302.76 1201.26 1446.01 1019 1399.83 878.244C1377.75 821.787 1323.44 772.494 1322.46 701.318Z" stroke="#592832" stroke-width="21.0255" stroke-linecap="round" stroke-linejoin="round"/>
<path d="M1377.83 834.674C1387.3 846.822 1427.56 897.828 1442.94 923.448C1483.62 991.275 1491.53 1088.5 1437.29 1164.23C1383.01 1239.96 1273.37 1242.22 1224.19 1180.04C1151.38 1088.03 1178.99 1005.14 1198.88 967.446C1285.91 955.609 1329.9 892.416 1377.83 834.635V834.674Z" fill="#EAAC71"/>
<path d="M1225.95 1145.35C1186.35 1068.92 1198.93 1007.55 1218.94 967.214C1223.14 958.765 1216.45 949.109 1207.02 949.576H1206.79C1183.78 985.436 1149.32 1065.76 1214.11 1163.53C1246.27 1212.04 1313.75 1228.63 1371.3 1206.05C1313.44 1219.05 1251.76 1195.19 1225.95 1145.35Z" fill="#F5D7BB"/>
<path d="M1442.93 923.449C1427.55 897.829 1387.29 846.823 1377.83 834.675C1362.96 852.585 1348.47 871.041 1332.98 888.29C1338.51 896.155 1343.45 903.475 1346.99 909.393C1387.68 977.22 1395.59 1074.44 1341.35 1150.17C1319.23 1181.05 1287.85 1199.74 1255.14 1206.79C1310.28 1239.1 1392.55 1226.65 1437.29 1164.23C1491.56 1088.5 1483.62 991.276 1442.93 923.449Z" fill="#D6823C"/>
<path d="M1212.35 946.071C1212.35 946.071 1124.9 1054.62 1224.19 1180.08C1273.4 1242.26 1383.05 1240 1437.29 1164.27C1491.56 1088.54 1483.62 991.315 1442.93 923.488C1402.24 855.661 1381.76 847.523 1361.94 809.872" stroke="#592832" stroke-width="21.0255" stroke-linecap="round" stroke-linejoin="round"/>
<path d="M1398.86 1268.23H1129.81C1129.81 1268.23 1136.54 1198.14 1224.15 1180.04C1311.79 1161.93 1403.53 1213.95 1408.51 1236.57C1413.5 1259.2 1398.82 1268.23 1398.82 1268.23H1398.86Z" fill="#AE6745"/>
<path d="M1398.86 1268.23H1129.81C1129.81 1268.23 1136.54 1198.14 1224.15 1180.04C1311.79 1161.93 1403.53 1213.95 1408.51 1236.57C1413.5 1259.2 1398.82 1268.23 1398.82 1268.23H1398.86Z" fill="#AE6745"/>
<path d="M1236.18 1193.82C1306.11 1179.38 1378.57 1209.55 1407.58 1233.85C1396.48 1210.1 1308.48 1162.67 1224.19 1180.08C1136.54 1198.18 1129.85 1268.27 1129.85 1268.27H1145.03C1151.92 1246.89 1173.06 1206.9 1236.18 1193.86V1193.82Z" fill="#C18B71"/>
<path d="M1408.55 1236.57C1406.88 1229.02 1395.51 1218.2 1377.91 1207.8C1374.99 1208.11 1372.07 1208.46 1369.15 1208.85C1335.86 1213.48 1314.29 1223.14 1300.27 1233.34C1287.93 1242.34 1273.09 1247.16 1257.83 1247.16H1135.65C1130.67 1259.35 1129.77 1268.19 1129.77 1268.19H1398.82C1398.82 1268.19 1413.5 1259.16 1408.51 1236.54L1408.55 1236.57Z" fill="#924921"/>
<path d="M1398.86 1268.23H1129.81C1129.81 1268.23 1136.54 1198.14 1224.15 1180.04C1311.79 1161.93 1403.53 1213.95 1408.51 1236.57C1413.5 1259.2 1398.82 1268.23 1398.82 1268.23H1398.86Z" stroke="#592832" stroke-width="21.0255" stroke-linecap="round" stroke-linejoin="round"/>
<path d="M1226.76 1268.23C1226.76 1268.23 1239.14 1229.37 1269.71 1219.52" stroke="#592832" stroke-width="21.0255" stroke-linecap="round" stroke-linejoin="round"/>
<path d="M1167.34 1268.23C1167.34 1268.23 1179.73 1229.37 1210.29 1219.52" stroke="#592832" stroke-width="21.0255" stroke-linecap="round" stroke-linejoin="round"/>
<path d="M1032.62 1194.48C1031.07 1194.21 1029.51 1193.9 1027.99 1193.59C1026.2 1193.24 1024.41 1192.85 1022.62 1192.46C1021.14 1192.15 1019.62 1191.8 1018.18 1191.49C1016.47 1191.1 1014.75 1190.67 1013.08 1190.24C1011.64 1189.89 1010.2 1189.54 1008.79 1189.15C1007.16 1188.72 1005.52 1188.25 1003.93 1187.79C1002.57 1187.4 1001.16 1187.01 999.84 1186.58C998.243 1186.11 996.725 1185.61 995.167 1185.1C993.882 1184.67 992.559 1184.24 991.274 1183.81C989.755 1183.27 988.276 1182.72 986.796 1182.18C985.589 1181.71 984.343 1181.28 983.136 1180.82C981.656 1180.23 980.216 1179.61 978.775 1179.03C977.646 1178.56 976.517 1178.09 975.427 1177.62C973.869 1176.96 972.39 1176.22 970.871 1175.52C969.937 1175.09 969.002 1174.66 968.068 1174.24C965.732 1173.11 963.473 1171.94 961.293 1170.73C960.281 1170.19 959.307 1169.6 958.295 1169.02C957.088 1168.32 955.881 1167.66 954.713 1166.96C953.661 1166.33 952.649 1165.67 951.637 1165.01C950.585 1164.35 949.534 1163.68 948.561 1163.02C947.548 1162.32 946.536 1161.62 945.563 1160.92C944.628 1160.26 943.655 1159.6 942.759 1158.93C941.786 1158.19 940.812 1157.45 939.878 1156.71C939.021 1156.05 938.126 1155.35 937.269 1154.65C936.335 1153.87 935.439 1153.09 934.505 1152.32C933.687 1151.61 932.908 1150.95 932.13 1150.21C931.234 1149.4 930.378 1148.58 929.521 1147.76C928.781 1147.06 928.041 1146.36 927.341 1145.66C926.484 1144.8 925.666 1143.94 924.849 1143.09C924.187 1142.39 923.525 1141.65 922.863 1140.95C922.084 1140.05 921.267 1139.19 920.527 1138.3C919.904 1137.6 919.32 1136.86 918.736 1136.16C917.996 1135.22 917.256 1134.29 916.516 1133.35C915.971 1132.65 915.426 1131.91 914.92 1131.21C914.219 1130.24 913.518 1129.27 912.817 1128.29C912.35 1127.59 911.883 1126.89 911.416 1126.15C910.754 1125.14 910.053 1124.13 909.43 1123.07C909.002 1122.41 908.612 1121.71 908.223 1121.01C907.561 1119.92 906.938 1118.87 906.315 1117.74C905.965 1117.12 905.653 1116.53 905.342 1115.91C904.719 1114.7 904.057 1113.53 903.473 1112.33C903.278 1111.94 903.122 1111.55 902.928 1111.16C900.552 1106.21 898.489 1101.19 896.737 1096.01C876.568 1036.29 897.126 963.397 917.178 911.768C833.894 959.503 799.163 1146.01 956.854 1194.33C990.923 1203.2 1017.32 1202 1037.8 1195.26C1036.05 1194.99 1034.3 1194.68 1032.59 1194.37L1032.62 1194.48Z" fill="#EAAC71"/>
<path d="M908.181 936.803C910.985 928.432 913.905 920.45 916.825 912.857C915.696 912.546 914.528 912.195 913.399 911.884C830.114 959.62 795.383 1146.12 953.075 1194.44C975.23 1200.21 994.153 1201.72 1010.31 1200.25C1000.19 1199.39 989.246 1197.56 977.371 1194.44C840.082 1152.35 848.687 1005.53 908.181 936.764V936.803Z" fill="#F5D7BB"/>
<path d="M1032.62 1194.48C1031.07 1194.21 1029.51 1193.9 1027.99 1193.59C1026.2 1193.24 1024.41 1192.85 1022.62 1192.46C1021.14 1192.15 1019.62 1191.8 1018.18 1191.49C1016.47 1191.1 1014.75 1190.67 1013.08 1190.24C1011.64 1189.89 1010.2 1189.54 1008.79 1189.15C1007.16 1188.72 1005.52 1188.25 1003.93 1187.79C1002.57 1187.4 1001.16 1187.01 999.84 1186.58C998.243 1186.11 996.725 1185.61 995.167 1185.1C993.882 1184.67 992.559 1184.24 991.274 1183.81C989.755 1183.27 988.276 1182.72 986.796 1182.18C985.589 1181.71 984.343 1181.28 983.136 1180.82C981.656 1180.23 980.216 1179.61 978.775 1179.03C977.646 1178.56 976.517 1178.09 975.427 1177.62C973.869 1176.96 972.39 1176.22 970.871 1175.52C969.937 1175.09 969.002 1174.66 968.068 1174.24C965.732 1173.11 963.473 1171.94 961.293 1170.73C960.281 1170.19 959.307 1169.6 958.295 1169.02C957.088 1168.32 955.881 1167.66 954.713 1166.96C953.661 1166.33 952.649 1165.67 951.637 1165.01C950.585 1164.35 949.534 1163.68 948.561 1163.02C947.548 1162.32 946.536 1161.62 945.563 1160.92C944.628 1160.26 943.655 1159.6 942.759 1158.93C941.786 1158.19 940.812 1157.45 939.878 1156.71C939.021 1156.05 938.126 1155.35 937.269 1154.65C936.335 1153.87 935.439 1153.09 934.505 1152.32C933.687 1151.61 932.908 1150.95 932.13 1150.21C931.234 1149.4 930.378 1148.58 929.521 1147.76C928.781 1147.06 928.041 1146.36 927.341 1145.66C926.484 1144.8 925.666 1143.94 924.849 1143.09C924.187 1142.39 923.525 1141.65 922.863 1140.95C922.084 1140.05 921.267 1139.19 920.527 1138.3C919.904 1137.6 919.32 1136.86 918.736 1136.16C917.996 1135.22 917.256 1134.29 916.516 1133.35C915.971 1132.65 915.426 1131.91 914.92 1131.21C914.219 1130.24 913.518 1129.27 912.817 1128.29C912.35 1127.59 911.883 1126.89 911.416 1126.15C910.754 1125.14 910.053 1124.13 909.43 1123.07C909.002 1122.41 908.612 1121.71 908.223 1121.01C907.561 1119.92 906.938 1118.87 906.315 1117.74C905.965 1117.12 905.653 1116.53 905.342 1115.91C904.719 1114.7 904.057 1113.53 903.473 1112.33C903.278 1111.94 903.122 1111.55 902.928 1111.16C900.552 1106.21 898.489 1101.19 896.737 1096.01C876.568 1036.29 897.126 963.397 917.178 911.768C833.894 959.503 799.163 1146.01 956.854 1194.33C990.923 1203.2 1017.32 1202 1037.8 1195.26C1036.05 1194.99 1034.3 1194.68 1032.59 1194.37L1032.62 1194.48Z" stroke="#592832" stroke-width="21.0255" stroke-linecap="round" stroke-linejoin="round"/>
<path d="M1081.95 1268.23H812.904C812.904 1268.23 819.64 1198.14 907.247 1180.04C994.892 1161.93 1086.63 1213.95 1091.61 1236.57C1096.59 1259.19 1081.91 1268.23 1081.91 1268.23H1081.95Z" fill="#AE6745"/>
<path d="M1081.95 1268.23H812.904C812.904 1268.23 819.64 1198.14 907.247 1180.04C994.892 1161.93 1086.63 1213.95 1091.61 1236.57C1096.59 1259.19 1081.91 1268.23 1081.91 1268.23H1081.95Z" fill="#AE6745"/>
<path d="M919.239 1193.82C989.168 1179.37 1061.63 1209.55 1090.64 1233.85C1079.54 1210.1 991.543 1162.67 907.247 1180.08C819.601 1198.18 812.904 1268.27 812.904 1268.27H828.089C834.981 1246.89 856.123 1206.9 919.239 1193.86V1193.82Z" fill="#C18B71"/>
<path d="M1091.65 1236.57C1089.98 1229.02 1078.61 1218.19 1061.01 1207.8C1058.09 1208.11 1055.17 1208.46 1052.25 1208.85C1018.96 1213.48 997.386 1223.14 983.369 1233.34C971.026 1242.33 956.191 1247.16 940.928 1247.16H818.747C813.763 1259.35 812.867 1268.19 812.867 1268.19H1081.92C1081.92 1268.19 1096.6 1259.16 1091.61 1236.53L1091.65 1236.57Z" fill="#924921"/>
<path d="M909.857 1268.23C909.857 1268.23 922.239 1229.37 952.804 1219.52" stroke="#592832" stroke-width="21.0255" stroke-linecap="round" stroke-linejoin="round"/>
<path d="M850.441 1268.23C850.441 1268.23 862.823 1229.37 893.388 1219.52" stroke="#592832" stroke-width="21.0255" stroke-linecap="round" stroke-linejoin="round"/>
<path d="M1035 1194.91C1034.22 1194.76 1033.4 1194.64 1032.62 1194.48C1031.06 1194.21 1029.51 1193.9 1027.99 1193.59C1026.2 1193.24 1024.41 1192.85 1022.61 1192.46C1021.13 1192.15 1019.62 1191.8 1018.18 1191.48C1016.46 1191.1 1014.75 1190.67 1013.08 1190.24C1011.63 1189.89 1010.19 1189.54 1008.79 1189.15C1007.16 1188.72 1005.52 1188.25 1003.93 1187.79C1002.56 1187.4 1001.16 1187.01 999.837 1186.58C998.241 1186.11 996.722 1185.61 995.164 1185.1C993.88 1184.67 992.556 1184.24 991.271 1183.81C989.752 1183.27 988.273 1182.72 986.793 1182.18C985.586 1181.71 984.34 1181.28 983.133 1180.82C981.654 1180.23 980.213 1179.61 978.772 1179.03C978.695 1179.03 978.656 1178.99 978.578 1178.95C955.761 1175.4 931.348 1175.05 907.247 1180C819.601 1198.1 812.904 1268.19 812.904 1268.19H1081.95C1081.95 1268.19 1096.63 1259.16 1091.65 1236.53C1089.27 1225.75 1067.04 1208.23 1035 1194.87V1194.91Z" stroke="#592832" stroke-width="21.0255" stroke-linecap="round" stroke-linejoin="round"/>
<path d="M1021.41 164.194C943.696 193.396 841.294 98.8977 769.223 164.194C717.827 210.722 775.258 294.124 837.439 310.827L1021.41 164.194Z" fill="#EAAC71"/>
<path d="M759.722 189.619C822.993 132.344 909.587 198.068 982.359 195.304L1021.41 164.194C943.695 193.396 841.293 98.8977 769.222 164.194C757.347 174.94 751.35 187.633 749.793 201.027C752.519 197.056 755.75 193.201 759.722 189.619Z" fill="#F5D7BB"/>
<path d="M1021.41 164.194C943.696 193.396 841.294 98.8977 769.223 164.194C717.827 210.722 775.258 294.124 837.439 310.827L1021.41 164.194Z" stroke="#592832" stroke-width="21.0255" stroke-linecap="round" stroke-linejoin="round"/>
<path d="M768.438 260.911C785.142 284.35 810.84 303.663 837.433 310.827L911.178 252.072C818.51 129.852 743.558 222.909 768.477 260.95L768.438 260.911Z" fill="#EE857B"/>
<path d="M799.158 246.894C789.073 231.475 795.381 207.023 812.591 191.526C774.122 196.277 753.641 238.289 768.437 260.911C785.14 284.35 810.838 303.663 837.432 310.827L858.808 293.773C835.641 285.051 813.914 267.569 799.158 246.894Z" fill="#FFBAB0"/>
<path d="M768.438 260.911C785.142 284.35 810.84 303.663 837.433 310.827L911.178 252.072C818.51 129.852 743.558 222.909 768.477 260.95L768.438 260.911Z" stroke="#592832" stroke-width="21.0255" stroke-linecap="round" stroke-linejoin="round"/>
<path d="M1436.55 164.193C1381.76 128.684 1313.16 173.577 1265.54 185.297C1215.78 153.797 1159.16 134.991 1099.13 134.991C900.707 134.991 739.822 357.161 739.822 532.374C739.822 654.711 900.668 753.921 1099.13 753.921C1297.58 753.921 1458.43 654.75 1458.43 532.374C1458.43 468.402 1440.63 403.028 1409.6 344.273C1500.28 300.431 1510.25 211.968 1436.55 164.193Z" fill="#EAAC71"/>
<path d="M1440.21 166.726C1454.54 210.295 1432.03 261.146 1372.27 293.696C1406.61 351.75 1427.87 417.163 1430.98 482.031C1436.98 606.081 1278.7 714.519 1077.52 724.253C980.334 728.964 890.897 709.729 823.732 674.648C889.651 723.123 988.549 753.922 1099.13 753.922C1297.55 753.922 1458.43 654.752 1458.43 532.375C1458.43 468.403 1440.64 403.029 1409.6 344.275C1498.73 301.172 1509.83 215.006 1440.21 166.726Z" fill="#D6823C"/>
<path d="M1436.55 164.195C1381.77 128.685 1313.16 173.578 1265.54 185.298C1257.17 180.003 1248.61 175.097 1239.88 170.541L1236.46 177.083C1274.46 209.439 1301.36 205.545 1343.57 186.116C1392.36 163.65 1474.94 179.029 1485.38 248.102C1486.78 217.031 1470.62 186.272 1436.55 164.195Z" fill="#F5D7BB"/>
<path d="M769.764 532.374C769.764 361.561 922.705 146.088 1114.27 135.458C1109.25 135.186 1104.19 134.991 1099.13 134.991C900.707 134.991 739.822 357.161 739.822 532.374C739.822 654.711 900.668 753.921 1099.13 753.921C1104.15 753.921 1109.13 753.843 1114.08 753.726C922.589 748.898 769.764 651.674 769.764 532.413V532.374Z" fill="#F5D7BB"/>
<path d="M1043.84 225.751C1010.28 191.449 977.764 179.378 951.054 177.081C927.887 190.631 906.005 206.984 885.758 225.479C901.605 265.661 971.573 289.684 1043.8 225.751H1043.84Z" fill="#D6823C"/>
<path d="M1436.55 164.193C1381.76 128.684 1313.16 173.577 1265.54 185.297C1215.78 153.797 1159.16 134.991 1099.13 134.991C900.707 134.991 739.822 357.161 739.822 532.374C739.822 654.711 900.668 753.921 1099.13 753.921C1297.58 753.921 1458.43 654.75 1458.43 532.374C1458.43 468.402 1440.63 403.028 1409.6 344.273C1500.28 300.431 1510.25 211.968 1436.55 164.193V164.193Z" stroke="#592832" stroke-width="21.0255" stroke-linecap="round" stroke-linejoin="round"/>
<path d="M1485.06 235.875C1492.97 266.206 1464.23 317.485 1410.65 343.806C1390.88 308.958 1367.24 275.745 1338.04 244.908C1338.04 244.908 1463.45 153.291 1485.06 235.914V235.875Z" fill="white"/>
<path d="M1485.06 235.875C1492.97 266.206 1464.23 317.485 1410.65 343.806C1390.88 308.958 1367.24 275.745 1338.04 244.908C1338.04 244.908 1463.45 153.291 1485.06 235.914V235.875Z" fill="#EE857B"/>
<path d="M1485.06 235.875C1478.64 211.306 1463.02 202.156 1444.26 201.417C1449.86 207.101 1454.15 215.044 1456.52 225.946C1462.4 252.812 1439.43 294.669 1396.83 320.834C1401.62 328.426 1406.25 336.058 1410.65 343.806C1464.23 317.524 1492.97 266.206 1485.06 235.875Z" fill="#FFBAB0"/>
<path d="M1485.06 235.875C1492.97 266.206 1464.23 317.485 1410.65 343.806C1390.88 308.958 1367.24 275.745 1338.04 244.908C1338.04 244.908 1463.45 153.291 1485.06 235.914V235.875Z" stroke="#592832" stroke-width="21.0255" stroke-linecap="round" stroke-linejoin="round"/>
<path d="M1219.64 160.923C1207.84 155.901 1193 150.333 1175.4 145.193C1022.77 108.554 966.122 -0.428093 936.764 60.0398C907.406 120.508 987.42 158.704 987.42 158.704C987.42 158.704 919.437 164.544 921.19 205.155C922.981 245.843 1014.48 256.979 1061.13 212.942C1124.59 208.464 1180.23 194.564 1219.64 160.923Z" fill="#EAAC71"/>
<path d="M1179.52 169.022C1231.74 175.407 1243.42 179.924 1251.44 182.883C1260.98 177.471 1211.41 167.932 1219.67 160.923C1207.87 155.9 1193.04 150.333 1175.44 145.193C1022.81 108.554 966.155 -0.389324 936.797 60.0396C933.409 66.9313 931.54 73.5505 930.723 79.8581C961.015 32.5117 1018.72 140.248 1179.56 169.022H1179.52Z" fill="#F5D7BB"/>
<path d="M983.954 159.133C975.544 160.262 953.545 164.078 937.971 174.824C964.33 186.077 1010.12 191.022 1034.34 168.439C1014.36 167.621 997.543 164.545 983.954 159.094V159.133Z" fill="#D6823C"/>
<path d="M1252.19 177.199C1252.19 177.199 1224.58 159.522 1175.4 145.193C1022.77 108.554 966.122 -0.428092 936.764 60.0398C907.406 120.508 987.42 158.704 987.42 158.704C987.42 158.704 919.437 164.544 921.19 205.155C922.981 245.843 1014.48 256.979 1061.13 212.942" stroke="#592832" stroke-width="21.0255" stroke-linecap="round" stroke-linejoin="round"/>
<path d="M1038.69 163.689C1038.69 163.689 985.43 169.49 961.523 141.651" stroke="#592832" stroke-width="21.0255" stroke-linecap="round" stroke-linejoin="round"/>
<path d="M841.292 530.272C865.806 530.272 885.679 506.477 885.679 477.124C885.679 447.771 865.806 423.976 841.292 423.976C816.777 423.976 796.904 447.771 796.904 477.124C796.904 506.477 816.777 530.272 841.292 530.272Z" fill="#592832"/>
<path d="M855.583 479.266C862.034 479.266 867.264 473.583 867.264 466.573C867.264 459.563 862.034 453.88 855.583 453.88C849.132 453.88 843.902 459.563 843.902 466.573C843.902 473.583 849.132 479.266 855.583 479.266Z" fill="white"/>
<path d="M1185.64 558.774C1220.52 558.774 1248.8 530.499 1248.8 495.619C1248.8 460.74 1220.52 432.465 1185.64 432.465C1150.76 432.465 1122.49 460.74 1122.49 495.619C1122.49 530.499 1150.76 558.774 1185.64 558.774Z" fill="#592832"/>
<path d="M1160.84 497.643C1169.42 497.643 1176.37 490.687 1176.37 482.107C1176.37 473.527 1169.42 466.572 1160.84 466.572C1152.26 466.572 1145.3 473.527 1145.3 482.107C1145.3 490.687 1152.26 497.643 1160.84 497.643Z" fill="white"/>
<path d="M1022.27 590.273C1049.77 590.273 1072.07 570.418 1072.07 545.925C1072.07 521.432 1049.77 501.577 1022.27 501.577C994.763 501.577 972.467 521.432 972.467 545.925C972.467 570.418 994.763 590.273 1022.27 590.273Z" fill="#FFE5C0"/>
<path d="M944.391 583.108C965.013 583.108 981.73 565.501 981.73 543.782C981.73 522.063 965.013 504.457 944.391 504.457C923.768 504.457 907.051 522.063 907.051 543.782C907.051 565.501 923.768 583.108 944.391 583.108Z" fill="#FFE5C0"/>
<path d="M975.384 562.979C945.17 564.147 926.325 511.856 943.768 504.925C961.212 497.995 1007.12 500.214 1009.41 515.516C1011.71 530.818 1000.38 562.006 975.384 562.979Z" fill="#DBAB7A"/>
<path d="M974.8 548.027C944.586 549.195 926.208 509.714 943.729 504.263C961.25 498.851 1007.12 500.097 1009.26 511.7C1011.4 523.303 999.797 547.054 974.8 548.027Z" fill="#592832"/>
<path d="M1069.57 547.989C1066.72 571.662 1046.59 590.04 1022.14 590.04C995.743 590.04 974.367 568.664 974.367 542.266" stroke="#592832" stroke-width="21.0255" stroke-linecap="round" stroke-linejoin="round"/>
<path d="M977.717 562.9C971.332 575.477 957.743 583.498 942.869 582.096C923.44 580.266 909.19 563.056 911.02 543.627" stroke="#592832" stroke-width="21.0255" stroke-linecap="round" stroke-linejoin="round"/>
<path d="M942.869 582.097C942.869 582.097 943.375 583.693 944.271 586.38C948.437 598.917 960.78 634.855 966.114 636.997C972.577 639.606 1012.33 641.319 1016.65 636.997C1020.98 632.675 1027.09 589.767 1027.09 589.767C1027.09 589.767 998.431 595.296 978.496 565.004C978.496 565.004 959.417 588.015 942.908 582.097H942.869Z" fill="white"/>
<path d="M1027.09 589.767C1027.09 589.767 998.437 595.296 978.502 565.004C978.502 565.004 959.423 588.015 942.914 582.097C942.914 582.097 943.42 583.693 944.316 586.38C945.795 590.78 948.248 598.061 951.052 605.731C960.357 604.758 972.272 601.682 980.409 593.116C989.326 606.938 1009.26 611.065 1023.63 611.182C1025.65 600.124 1027.13 589.767 1027.13 589.767H1027.09Z" fill="#C6AEA7"/>
<path d="M942.869 582.097C942.869 582.097 943.375 583.693 944.271 586.38C948.437 598.917 960.78 634.855 966.114 636.997C972.577 639.606 1012.33 641.319 1016.65 636.997C1020.98 632.675 1027.09 589.767 1027.09 589.767C1027.09 589.767 998.431 595.296 978.496 565.004C978.496 565.004 959.417 588.015 942.908 582.097H942.869Z" stroke="#592832" stroke-width="21.0255" stroke-linecap="round" stroke-linejoin="round"/>
<path d="M987.492 635.088C987.492 635.088 978.537 591.869 978.498 565.042" stroke="#592832" stroke-width="8.95532" stroke-linecap="round" stroke-linejoin="round"/>
<path d="M1228.16 819.216C1231.98 832.338 1233.69 867.536 1206.13 891.716C1178.56 915.895 1178.99 923.098 1160.34 970.133C1141.69 1017.17 1074.29 1020.98 1056.49 962.502C1036.99 873.494 1096.75 851.845 1117.97 802.279C1159.87 806.718 1196.59 812.403 1228.2 819.216H1228.16Z" fill="#EAAC71"/>
<path d="M1222.52 824.668C1221.93 842.306 1207.84 861.852 1189.19 872.015C1170.54 882.177 1153.02 901.957 1146.98 925.396C1142.39 943.151 1136.2 992.211 1111.63 1005.84C1131.83 1004.94 1151.58 992.366 1160.37 970.134C1179.03 923.099 1178.6 915.857 1206.16 891.716C1224.11 875.947 1229.64 855.506 1230.27 839.542C1227.97 834.675 1225.4 829.691 1222.56 824.629L1222.52 824.668Z" fill="#D6823C"/>
<path d="M1083.67 965.148C1067.75 892.416 1104.74 864.654 1130.36 829.923C1138.3 819.138 1131.56 803.719 1118.25 802.317H1117.98C1096.79 851.883 1037.03 873.493 1056.5 962.54C1066.77 996.336 1093.6 1009.3 1118.05 1005.17C1103.18 999.451 1090.18 986.486 1083.67 965.187V965.148Z" fill="#F5D7BB"/>
<path d="M1090.29 896.971C1078.38 896.971 1066.85 898.723 1056.07 901.916C1051.78 918.269 1051.04 937.815 1056.49 962.54C1074.29 1021.02 1141.69 1017.21 1160.34 970.171C1166.92 953.507 1171.16 941.865 1175.05 932.676C1154.34 910.794 1124.05 896.971 1090.29 896.971Z" fill="#AE6745"/>
<path d="M1163.14 963.046C1163.61 961.878 1164.04 960.71 1164.47 959.581C1164.66 959.035 1164.89 958.451 1165.09 957.945C1165.2 957.634 1165.32 957.322 1165.44 957.011C1169.29 947.004 1172.25 939.178 1175.02 932.637C1168.05 925.278 1159.99 918.853 1151.07 913.519C1149.4 917.335 1147.96 921.306 1146.9 925.356C1142.31 943.111 1136.12 992.17 1111.55 1005.8C1112.64 1005.76 1113.77 1005.64 1114.86 1005.53C1115.05 1005.53 1115.25 1005.53 1115.44 1005.49C1116.46 1005.37 1117.43 1005.21 1118.44 1005.02C1118.71 1004.98 1119.03 1004.94 1119.3 1004.86C1120.23 1004.67 1121.13 1004.47 1122.06 1004.24C1122.41 1004.16 1122.76 1004.08 1123.11 1003.97C1123.97 1003.73 1124.83 1003.46 1125.68 1003.19C1126.07 1003.07 1126.5 1002.92 1126.89 1002.8C1127.71 1002.53 1128.49 1002.22 1129.27 1001.9C1129.69 1001.71 1130.16 1001.55 1130.59 1001.36C1131.33 1001.05 1132.07 1000.7 1132.81 1000.31C1133.28 1000.07 1133.74 999.841 1134.21 999.607C1134.91 999.257 1135.57 998.867 1136.28 998.478C1136.74 998.205 1137.25 997.894 1137.72 997.621C1138.38 997.232 1139 996.804 1139.62 996.375C1140.13 996.025 1140.6 995.674 1141.06 995.324C1141.65 994.896 1142.23 994.428 1142.82 994C1143.32 993.611 1143.79 993.183 1144.3 992.793C1144.84 992.326 1145.39 991.859 1145.89 991.391C1146.4 990.924 1146.87 990.457 1147.33 989.99C1147.84 989.484 1148.31 989.016 1148.77 988.51C1149.28 988.004 1149.75 987.42 1150.21 986.875C1150.64 986.369 1151.11 985.862 1151.54 985.317C1152.01 984.733 1152.47 984.11 1152.94 983.487C1153.33 982.981 1153.72 982.436 1154.07 981.93C1154.54 981.229 1155 980.528 1155.43 979.788C1155.74 979.282 1156.09 978.776 1156.41 978.231C1156.87 977.413 1157.34 976.518 1157.77 975.661C1158 975.194 1158.27 974.766 1158.47 974.298C1159.13 972.936 1159.75 971.573 1160.3 970.132C1161.04 968.263 1161.74 966.511 1162.4 964.759C1162.64 964.175 1162.83 963.63 1163.06 963.046H1163.14Z" fill="#924921"/>
<path d="M1059.22 969.978C1059.73 971.185 1060.24 972.392 1060.82 973.56C1061.13 974.222 1061.44 974.806 1061.79 975.429C1062.34 976.48 1062.88 977.493 1063.47 978.466C1063.82 979.05 1064.17 979.673 1064.56 980.257C1065.14 981.23 1065.76 982.126 1066.43 983.06C1066.78 983.567 1067.17 984.112 1067.56 984.618C1068.26 985.552 1069 986.448 1069.77 987.343C1070.13 987.733 1070.44 988.122 1070.79 988.512C1071.8 989.641 1072.85 990.692 1073.9 991.704C1074.02 991.782 1074.1 991.899 1074.17 992.016C1075.42 993.145 1076.67 994.235 1077.95 995.247C1078.03 995.286 1078.11 995.364 1078.18 995.403C1079.39 996.299 1080.6 997.155 1081.85 997.973C1082.08 998.129 1082.35 998.284 1082.62 998.44C1083.71 999.102 1084.8 999.725 1085.93 1000.31C1086.21 1000.46 1086.52 1000.58 1086.79 1000.74C1087.92 1001.28 1089.09 1001.79 1090.22 1002.26C1090.45 1002.37 1090.72 1002.45 1090.96 1002.57C1092.24 1003.07 1093.53 1003.5 1094.85 1003.89C1094.97 1003.89 1095.08 1003.97 1095.2 1004.01C1102.68 1006.15 1110.54 1006.5 1118.13 1005.25C1103.26 999.53 1090.26 986.565 1083.75 965.267C1077.48 936.687 1079.43 915.078 1085.58 897.245C1075.38 897.634 1065.49 899.231 1056.15 901.995C1055.64 903.942 1055.17 905.928 1054.78 907.991C1054.71 908.381 1054.63 908.809 1054.55 909.198C1054.24 910.873 1053.97 912.547 1053.73 914.26C1053.66 914.883 1053.58 915.467 1053.5 916.09C1053.3 917.648 1053.15 919.244 1053.03 920.84C1052.99 921.58 1052.92 922.32 1052.88 923.099C1052.8 924.617 1052.76 926.175 1052.72 927.771C1052.72 928.628 1052.72 929.484 1052.72 930.341C1052.72 931.898 1052.76 933.495 1052.84 935.091C1052.88 936.026 1052.92 936.921 1052.95 937.894C1053.07 939.53 1053.23 941.204 1053.38 942.878C1053.46 943.852 1053.54 944.786 1053.66 945.76C1053.89 947.59 1054.16 949.458 1054.43 951.366C1054.55 952.262 1054.67 953.118 1054.82 954.014C1055.29 956.817 1055.84 959.699 1056.5 962.619C1057.12 964.605 1057.78 966.513 1058.48 968.343C1058.72 968.927 1058.99 969.511 1059.22 970.095V969.978Z" fill="#C18B71"/>
<path d="M1117.98 802.279C1096.79 851.884 1037.03 873.494 1056.5 962.502C1074.29 1020.98 1141.69 1017.17 1160.34 970.133C1178.99 923.098 1178.56 915.856 1206.13 891.716C1233.69 867.536 1231.98 832.377 1228.16 819.216" stroke="#592832" stroke-width="21.0255" stroke-linecap="round" stroke-linejoin="round"/>
<path d="M1121.36 954.792C1121.36 954.792 1107.38 970.561 1110.3 998.245" stroke="#592832" stroke-width="17.5602" stroke-linecap="round" stroke-linejoin="round"/>
<path d="M1085.58 944.824C1085.58 944.824 1071.6 960.593 1074.52 988.277" stroke="#592832" stroke-width="17.5602" stroke-linecap="round" stroke-linejoin="round"/>
<path d="M932.679 871.042C932.874 870.419 933.029 869.835 933.185 869.212C945.022 828.173 944.087 787.874 939.648 756.375C939.493 755.207 939.298 754.039 939.142 752.871C938.909 751.391 938.675 749.95 938.441 748.51C938.247 747.381 938.052 746.251 937.857 745.161C937.585 743.565 937.273 741.968 937.001 740.45C936.456 737.53 936.572 735.427 934.665 733.052C932.951 730.988 930.771 728.574 927.968 728.107C926.916 727.912 925.982 728.224 925.086 728.652C922.361 730.249 919.596 731.806 916.832 733.325C916.17 733.675 915.508 734.064 914.807 734.415C913.172 735.31 911.498 736.206 909.862 737.062C909.473 737.257 909.123 737.491 908.733 737.685C908.188 737.958 907.643 738.192 907.137 738.464C903.788 740.138 900.479 741.774 897.13 743.331C896.507 743.643 895.845 743.954 895.222 744.227C891.329 746.018 887.513 747.692 883.658 749.327C883.308 749.483 882.957 749.639 882.607 749.795C882.062 750.028 881.517 750.223 880.972 750.457C878.013 751.664 875.092 752.871 872.172 753.961C871.51 754.233 870.809 754.506 870.147 754.739C866.604 756.102 863.139 757.348 859.674 758.555C858.817 758.867 857.921 759.139 857.065 759.451C853.755 760.58 850.524 761.631 847.331 762.644C846.941 762.76 846.552 762.916 846.163 763.033C842.425 764.201 838.804 765.252 835.261 766.265C834.91 766.381 834.521 766.498 834.17 766.576C833.781 766.693 833.392 766.771 833.002 766.888C830.588 767.55 828.252 768.172 825.955 768.795C825.488 768.912 825.02 769.029 824.553 769.185C821.789 769.886 819.102 770.548 816.493 771.171C815.676 771.365 814.819 771.56 814.001 771.755C811.432 772.339 808.979 772.884 806.604 773.39C806.331 773.429 806.097 773.507 805.825 773.546C802.71 774.208 799.829 774.753 797.103 775.298C796.909 775.298 796.714 775.376 796.48 775.415C796.363 775.415 796.286 775.415 796.169 775.454C793.054 776.038 790.25 776.505 787.759 776.933C787.058 777.05 786.357 777.167 785.695 777.245C781.49 777.906 778.375 778.296 776.74 778.491C776.662 778.491 775.377 778.685 775.338 778.646C775.338 778.646 797.843 848.303 809.485 884.397L810.264 886.811C811.237 889.809 812.094 892.496 812.872 894.871L814.04 898.492C814.469 899.855 814.858 901.062 815.17 902.035L815.598 903.32C815.715 903.67 815.831 904.021 815.909 904.293L816.338 905.578C816.338 905.578 816.532 905.578 816.649 905.578C821.594 905.072 826.461 904.527 831.25 903.904C832.808 903.709 834.326 903.476 835.884 903.242C839.271 902.775 842.62 902.269 845.89 901.724C847.526 901.451 849.161 901.178 850.796 900.906C854.067 900.322 857.299 899.738 860.491 899.115C861.893 898.842 863.295 898.57 864.696 898.297C868.785 897.441 872.834 896.584 876.806 895.649C877.156 895.572 877.545 895.494 877.935 895.416C882.451 894.326 886.89 893.197 891.212 892.028C891.835 891.873 892.458 891.678 893.12 891.483C896.741 890.471 900.323 889.459 903.827 888.407C904.723 888.135 905.657 887.862 906.553 887.59C909.862 886.577 913.172 885.526 916.365 884.436C917.104 884.202 917.805 883.969 918.545 883.696C922.361 882.411 926.138 881.048 929.798 879.725C930.81 876.804 931.783 873.923 932.64 871.003L932.679 871.042Z" fill="#EAAC71"/>
<path d="M932.677 871.042C932.872 870.419 933.028 869.835 933.184 869.212C936.532 857.648 938.829 846.123 940.348 834.831C905.695 849.51 861.58 862.788 808.705 868.005L779.697 778.218C778.49 778.374 777.478 778.491 776.816 778.608C776.738 778.608 775.453 778.802 775.414 778.763C775.414 778.763 794.22 836.973 806.329 874.546L809.795 885.293L810.34 886.928C811.313 889.926 812.17 892.613 812.949 894.988L814.117 898.609C814.545 899.972 814.934 901.179 815.246 902.152L815.674 903.437C815.791 903.787 815.908 904.138 815.986 904.41L816.414 905.695C816.647 905.695 816.842 905.656 817.037 905.617C821.865 905.15 826.576 904.566 831.249 903.982C832.884 903.787 834.48 903.515 836.077 903.32C839.386 902.853 842.696 902.347 845.928 901.841C847.641 901.568 849.315 901.295 850.989 900.984C854.182 900.439 857.297 899.855 860.412 899.232C861.891 898.959 863.332 898.648 864.811 898.375C868.9 897.519 872.91 896.662 876.843 895.728C877.232 895.65 877.621 895.572 877.972 895.455C882.489 894.404 886.888 893.275 891.21 892.107C891.95 891.912 892.651 891.717 893.391 891.484C896.934 890.51 900.438 889.498 903.826 888.486C904.799 888.213 905.733 887.901 906.668 887.629C909.939 886.617 913.17 885.604 916.324 884.514C917.103 884.241 917.882 884.008 918.66 883.735C922.476 882.45 926.175 881.127 929.835 879.764C930.847 876.844 931.821 873.923 932.677 871.042Z" fill="#D6823C"/>
<path d="M938.481 748.548C938.287 747.419 938.092 746.29 937.897 745.199C937.625 743.603 937.313 742.006 937.041 740.488C936.496 737.568 936.613 735.465 934.705 733.09C932.991 731.027 930.811 728.612 928.008 728.145C926.956 727.951 926.022 728.262 925.126 728.69C920.065 731.649 915.003 734.453 909.941 737.101C909.552 737.295 909.201 737.49 908.812 737.685C908.267 737.957 907.722 738.191 907.216 738.463C903.906 740.138 900.558 741.773 897.248 743.33C897.014 743.447 896.781 743.525 896.586 743.642C892.303 745.628 888.02 747.535 883.776 749.327C883.426 749.482 883.114 749.638 882.764 749.794C882.219 750.027 881.713 750.222 881.167 750.417C864.931 757.114 849.357 762.331 835.301 766.303C834.95 766.419 834.639 766.497 834.288 766.614C833.899 766.731 833.549 766.809 833.159 766.926C830.356 767.704 827.591 768.444 824.905 769.145C824.827 769.145 824.749 769.184 824.671 769.223C821.907 769.924 819.259 770.586 816.65 771.209C816.455 771.248 816.261 771.287 816.066 771.364C812.718 772.143 809.525 772.883 806.527 773.506C806.371 773.506 806.176 773.584 806.021 773.623C804.424 773.973 802.906 774.285 801.426 774.557C799.985 774.83 798.662 775.102 797.338 775.336C797.143 775.336 796.949 775.414 796.754 775.453C796.676 775.453 796.598 775.453 796.52 775.492C793.405 776.076 790.641 776.543 788.149 776.971H788.071C787.409 777.088 786.786 777.166 786.163 777.283H786.007C786.007 777.283 785.891 777.283 785.852 777.322C781.685 777.984 778.648 778.373 777.013 778.568C776.857 778.568 775.689 778.762 775.65 778.723C775.65 778.723 794.457 836.933 806.566 874.506L810.031 885.253L810.576 886.888C811.55 889.886 812.406 892.573 813.185 894.948L814.353 898.569C814.781 899.932 815.171 901.139 815.482 902.112L815.91 903.397C816.027 903.747 816.144 904.098 816.222 904.37L816.65 905.655C819.882 905.344 822.646 904.643 825.8 904.254L791.653 798.503C791.653 798.503 867.423 790.871 938.91 749.872C938.832 749.404 938.754 748.937 938.676 748.509L938.481 748.548Z" fill="#F5D7BB"/>
<path d="M816.414 905.694C855.817 901.84 889.847 893.312 919.205 883.228L875.792 837.478C875.792 837.478 872.599 793.169 847.251 762.682C806.329 775.57 775.414 778.723 775.414 778.723L816.414 905.694Z" fill="#D6823C"/>
<path d="M932.677 871.041C932.872 870.418 933.028 869.834 933.184 869.211C945.02 828.172 944.086 787.873 939.647 756.374C939.491 755.206 939.296 754.038 939.141 752.87C938.907 751.39 938.673 749.95 938.44 748.509C938.245 747.38 938.05 746.251 937.856 745.16C937.583 743.564 937.272 741.968 936.999 740.449C936.454 737.529 936.571 735.426 934.663 733.051C932.95 730.988 930.73 728.574 927.966 728.067C926.409 727.795 925.085 728.535 923.839 729.313C918.894 732.234 913.871 734.998 908.77 737.646C900.243 742.045 891.522 746.056 882.644 749.755C866.875 756.374 850.639 761.942 834.169 766.575C821.748 770.08 809.211 773.039 796.556 775.414C790.015 776.66 783.435 777.75 776.816 778.529C776.738 778.529 775.453 778.723 775.414 778.684L816.414 905.655C860.412 901.333 898.375 891.405 929.835 879.724C930.847 876.804 931.821 873.922 932.677 871.002V871.041Z" stroke="#592832" stroke-width="21.0255" stroke-linecap="round" stroke-linejoin="round"/>
<path d="M516.379 474.485C507.776 464.696 492.868 463.735 483.079 472.337C473.291 480.939 472.329 495.848 480.932 505.637L857.995 934.688C866.598 944.477 881.506 945.438 891.295 936.836C901.083 928.233 902.045 913.325 893.442 903.536L516.379 474.485Z" fill="#AB69F3"/>
<path d="M893.435 903.669L516.378 474.554C507.773 464.781 492.86 463.807 483.087 472.412C480.362 474.787 480.011 478.292 478.648 481.446C487.137 479.031 496.209 479.771 502.438 486.819L879.496 915.934C885.687 922.982 885.259 932.093 881.794 940.192C885.064 939.257 888.568 939.335 891.294 936.96C901.067 928.355 902.04 913.442 893.435 903.669Z" fill="#CAA0F7"/>
<path d="M516.379 474.485C507.776 464.696 492.868 463.735 483.079 472.337C473.291 480.939 472.329 495.848 480.932 505.637L857.995 934.688C866.598 944.477 881.506 945.438 891.295 936.836C901.083 928.233 902.045 913.325 893.442 903.536L516.379 474.485Z" stroke="#592832" stroke-width="21.0255" stroke-linecap="round" stroke-linejoin="round"/>
<path d="M829.85 902.814C746.604 925.903 683.878 855 687.188 800.567C690.458 746.134 763.892 717.283 811.706 762.604C852.666 801.424 854.925 856.012 805.009 874.507L829.85 902.775V902.814Z" fill="#AE6745"/>
<path d="M709.106 786.51C710.157 768.872 719.385 754.388 732.468 744.342C707.86 752.752 688.82 773.467 687.185 800.566C683.914 854.999 746.601 925.863 829.847 902.812L815.674 886.654C751.585 888.211 706.38 831.443 709.106 786.51Z" fill="#C18B71"/>
<path d="M829.85 902.814C746.604 925.903 683.878 855 687.188 800.567C690.458 746.134 763.892 717.283 811.706 762.604C852.666 801.424 854.925 856.012 805.009 874.507L829.85 902.775V902.814Z" stroke="#592832" stroke-width="21.0255" stroke-linecap="round" stroke-linejoin="round"/>
<path d="M775.414 880.582C786.783 879.764 796.634 877.662 805.006 874.547" stroke="#592832" stroke-width="21.0255" stroke-linecap="round" stroke-linejoin="round"/>
<path d="M776 841.529C776 841.529 787.058 800.256 838.804 803.488" stroke="#592832" stroke-width="21.0255" stroke-linecap="round" stroke-linejoin="round"/>
<path d="M735.977 790.911C735.977 790.911 750.539 754.856 802.285 758.127" stroke="#592832" stroke-width="21.0255" stroke-linecap="round" stroke-linejoin="round"/>
</svg>
