<svg width="1540" height="1521" viewBox="0 0 1540 1521" fill="none" xmlns="http://www.w3.org/2000/svg">
<g clip-path="url(#clip0_971_2819)">
<path d="M663.609 735.206C663.609 735.206 602.678 803.632 544.875 835.595C553.279 913.705 642.384 930.543 642.384 930.543C674.801 879.182 682.894 814.627 663.62 735.206H663.609Z" fill="#E9AB71"/>
<path d="M562.684 858.452C605.549 834.748 650.086 791.048 670.259 770.018C668.586 758.713 666.511 747.192 663.6 735.216C663.6 735.216 602.668 803.643 544.865 835.605C547.684 861.828 559.67 881.02 574.257 895.112C568.435 884.716 564.202 872.616 562.684 858.462V858.452Z" fill="#F4D6BA"/>
<path d="M642.384 941.703C641.693 941.703 641.001 941.652 640.32 941.507C639.339 941.321 542.956 922.14 533.778 836.792C533.303 832.333 535.553 828.007 539.476 825.829C594.895 795.177 654.68 728.454 655.279 727.783C658.056 724.676 662.371 723.447 666.315 724.376C670.341 725.388 673.48 728.547 674.461 732.584C694.024 813.12 686.405 881.722 651.831 936.51C649.766 939.793 646.184 941.714 642.395 941.714L642.384 941.703ZM557.017 841.49C566.711 893.212 617.628 912.28 637.047 917.742C662.02 874.092 668.772 820.594 657.168 758.373C636.448 779.712 596.898 817.735 557.017 841.49Z" fill="#592832"/>
<path d="M835.087 1322.65H537.038C537.038 1322.65 544.482 1239.1 641.567 1217.53C738.652 1195.97 840.291 1257.96 845.824 1284.92C851.358 1311.87 835.077 1322.65 835.077 1322.65H835.087Z" fill="#AD6745"/>
<path d="M835.087 1322.65H537.038C537.038 1322.65 544.482 1239.1 641.567 1217.53C738.652 1195.97 840.291 1257.96 845.824 1284.92C851.358 1311.87 835.077 1322.65 835.077 1322.65H835.087Z" fill="#AD6745"/>
<path d="M654.853 1233.96C732.303 1216.76 812.591 1252.72 844.74 1281.66C832.465 1253.32 734.946 1196.8 641.577 1217.55C544.491 1239.11 537.048 1322.66 537.048 1322.66H553.865C561.495 1297.2 584.909 1249.5 654.853 1233.96Z" fill="#C08A71"/>
<path d="M845.834 1284.92C843.986 1275.92 831.391 1263.02 811.869 1250.62C808.638 1250.98 805.406 1251.4 802.185 1251.87C765.319 1257.39 741.399 1268.91 725.882 1281.09C712.234 1291.82 695.777 1297.59 678.877 1297.59H543.542C538.009 1312.11 537.038 1322.64 537.038 1322.64H835.087C835.087 1322.64 851.368 1311.86 845.834 1284.91V1284.92Z" fill="#914921"/>
<path d="M835.087 1333.81H537.038C533.899 1333.81 530.926 1332.5 528.799 1330.18C526.693 1327.88 525.64 1324.77 525.919 1321.65C526.012 1320.74 535.283 1229.7 639.161 1206.65C708.063 1191.32 779.369 1216.23 819.457 1242.21C831.959 1250.3 853.412 1266.33 856.788 1282.68C863.756 1316.63 842.18 1331.35 841.271 1331.96C839.433 1333.18 837.296 1333.81 835.097 1333.81H835.087ZM550.593 1311.49H830.772C833.549 1308.21 837.689 1300.74 834.891 1287.18C834.344 1284.5 828.325 1274.56 807.306 1260.96C770.832 1237.33 706.184 1214.61 643.983 1228.44C577.105 1243.3 556.653 1289.27 550.593 1311.5V1311.49Z" fill="#592832"/>
<path d="M644.438 1333.81C643.385 1333.81 642.311 1333.67 641.258 1333.36C635.342 1331.59 631.987 1325.39 633.732 1319.47C634.372 1317.37 649.558 1267.51 688.355 1254.03C694.198 1252.05 700.548 1255.08 702.561 1260.91C704.595 1266.73 701.508 1273.1 695.685 1275.11C668.028 1284.73 655.257 1325.4 655.143 1325.81C653.688 1330.65 649.259 1333.79 644.438 1333.79V1333.81Z" fill="#592832"/>
<path d="M578.592 1333.81C577.539 1333.81 576.465 1333.67 575.412 1333.36C569.497 1331.59 566.141 1325.39 567.886 1319.47C568.526 1317.37 583.713 1267.51 622.51 1254.03C628.332 1252.05 634.702 1255.08 636.715 1260.91C638.749 1266.73 635.662 1273.1 629.839 1275.11C602.182 1284.73 589.411 1325.4 589.298 1325.81C587.842 1330.65 583.413 1333.79 578.592 1333.79V1333.81Z" fill="#592832"/>
<path d="M1124.16 1160.16C1264.95 1150.97 1283.14 1022.06 1228.11 868.765C1173.07 715.466 1215.34 601.863 1332.94 588.834C1450.54 575.805 1560.79 717.676 1520.36 898.487C1479.94 1079.3 1309.17 1245.75 1080.63 1253.46L1124.15 1160.16H1124.16Z" fill="#E9AB71"/>
<path d="M1124.16 1160.16C1264.95 1150.97 1283.14 1022.06 1228.11 868.765C1173.07 715.466 1215.34 601.863 1332.94 588.834C1450.54 575.805 1560.79 717.676 1520.36 898.487C1479.94 1079.3 1309.17 1245.75 1080.63 1253.46L1124.15 1160.16H1124.16Z" fill="#AD6745"/>
<path d="M1158.74 1160.16C1299.54 1150.97 1312.7 1011.81 1257.66 858.513C1202.96 706.144 1249.44 603.287 1365.42 589.133C1354.74 587.76 1343.87 587.626 1332.93 588.844C1215.33 601.873 1173.07 715.477 1228.11 868.775C1283.14 1022.07 1264.95 1150.98 1124.16 1160.17L1080.64 1253.47C1092.74 1253.06 1104.66 1252.18 1116.42 1250.91L1158.74 1160.17V1160.16Z" fill="#C08A71"/>
<path d="M1440.65 864.315C1438.15 861.683 1434.05 861.641 1431.43 864.129C1423.42 871.883 1415.16 880.142 1406.84 888.824C1394.23 866.132 1379.55 842.78 1364.36 820.212C1378.72 804.478 1393.78 788.724 1409.01 773.878C1414.99 784.584 1420.57 795.362 1425.6 806.037C1426.72 808.422 1429.07 809.785 1431.52 809.785C1432.44 809.785 1433.37 809.599 1434.28 809.186C1437.53 807.627 1438.92 803.756 1437.4 800.514C1431.78 788.569 1425.46 776.521 1418.75 764.546C1424.44 759.177 1430.12 753.964 1435.81 748.946C1438.52 746.561 1438.76 742.432 1436.38 739.758C1433.99 737.053 1429.87 736.805 1427.19 739.19C1422.17 743.64 1417.12 748.244 1412.07 752.983C1397.16 727.566 1380.58 702.809 1364.46 680.303C1370.06 674.8 1375.78 669.401 1381.59 664.064C1384.22 661.648 1384.42 657.518 1382 654.844C1379.53 652.171 1375.43 652.047 1372.78 654.462C1367.35 659.449 1361.98 664.539 1356.7 669.649C1346.62 655.918 1336.87 643.179 1327.97 631.926C1325.75 629.128 1321.68 628.622 1318.82 630.872C1316.02 633.092 1315.55 637.16 1317.77 639.988C1326.89 651.551 1336.96 664.683 1347.36 678.889C1329.97 696.274 1313.7 714 1299.22 730.621C1273.8 697.854 1255.18 675.998 1254.7 675.42C1252.38 672.684 1248.25 672.374 1245.55 674.718C1242.82 677.072 1242.51 681.139 1244.82 683.865C1245.3 684.433 1264.56 707.031 1290.55 740.656C1273.01 761.252 1258.61 779.453 1248.72 792.358C1240.24 781.931 1235.02 775.902 1234.81 775.644C1232.45 772.908 1228.35 772.598 1225.62 774.942C1222.91 777.295 1222.6 781.394 1224.95 784.089C1225.21 784.378 1231.11 791.305 1240.65 803.033C1236.49 808.628 1234.17 811.87 1234.07 812.025C1231.98 814.947 1232.68 819.014 1235.6 821.079C1236.75 821.905 1238.05 822.287 1239.38 822.287C1241.41 822.287 1243.42 821.337 1244.69 819.551C1244.78 819.427 1246.31 817.259 1249.07 813.511C1262.17 830.009 1279.35 852.309 1297.5 877.798C1281.52 897.279 1268.39 914.086 1259.53 925.628C1256.52 921.437 1253.55 917.431 1250.63 913.611C1248.48 910.783 1244.38 910.215 1241.52 912.404C1238.66 914.592 1238.12 918.691 1240.31 921.551C1243.87 926.186 1247.56 931.214 1251.3 936.489C1248.6 940.082 1247.11 942.116 1247.01 942.27C1244.88 945.13 1245.48 949.229 1248.4 951.355C1249.55 952.181 1250.88 952.625 1252.21 952.625C1254.25 952.625 1256.22 951.675 1257.49 949.951C1257.55 949.858 1258.13 949.064 1259.14 947.732C1272.23 966.955 1285.96 988.883 1298.9 1011.32C1285.46 1027.59 1273.48 1042.42 1263.79 1054.59C1262.73 1053.29 1262.04 1052.44 1261.88 1052.24C1259.58 1049.47 1255.45 1049.09 1252.73 1051.38C1249.96 1053.68 1249.55 1057.74 1251.84 1060.53C1251.9 1060.59 1253.31 1062.27 1255.43 1065.1C1244.53 1078.87 1238.02 1087.32 1237.77 1087.66C1235.58 1090.52 1236.12 1094.59 1238.95 1096.78C1240.15 1097.7 1241.55 1098.14 1242.92 1098.14C1244.86 1098.14 1246.8 1097.25 1248.1 1095.57C1248.33 1095.25 1253.92 1088 1263.35 1076.06C1271.23 1087.69 1280.6 1103.67 1282.45 1116.32C1282.93 1119.56 1285.69 1121.88 1288.87 1121.88C1289.19 1121.88 1289.51 1121.85 1289.82 1121.79C1293.38 1121.29 1295.83 1117.98 1295.33 1114.42C1292.94 1098.03 1280.77 1078.19 1271.81 1065.42C1281.12 1053.73 1292.71 1039.34 1305.81 1023.42C1316.93 1043.25 1327.3 1063.11 1335.97 1081.51C1337.09 1083.89 1339.44 1085.26 1341.84 1085.26C1342.79 1085.26 1343.72 1085.07 1344.64 1084.66C1347.88 1083.1 1349.28 1079.23 1347.76 1075.98C1338.32 1055.97 1326.92 1034.22 1314.68 1012.68C1327.01 997.802 1340.39 981.986 1354.31 965.933C1362 979.498 1369.14 993.105 1375.47 1006.52C1376.58 1008.9 1378.9 1010.26 1381.38 1010.26C1382.27 1010.26 1383.23 1010.08 1384.12 1009.66C1387.39 1008.11 1388.79 1004.23 1387.24 1000.99C1380.19 985.992 1372.08 970.744 1363.37 955.578C1376.69 940.392 1390.35 925.195 1403.92 910.772C1406.6 915.986 1409.17 921.169 1411.55 926.248C1412.67 928.602 1415.02 929.995 1417.43 929.995C1418.38 929.995 1419.3 929.768 1420.22 929.355C1423.46 927.827 1424.86 923.956 1423.34 920.714C1420.25 914.169 1416.92 907.531 1413.36 900.789C1422.61 891.157 1431.69 881.979 1440.53 873.462C1443.1 870.953 1443.16 866.824 1440.68 864.274L1440.65 864.315ZM1355.08 689.574C1371.2 712.1 1387.65 736.857 1402.36 762.181C1386.86 777.182 1371.5 793.163 1356.82 809.145C1339.91 784.553 1322.69 761.221 1307.31 741.141C1321.64 724.613 1337.79 706.949 1355.07 689.563L1355.08 689.574ZM1257.14 802.795C1266.57 790.407 1280.93 772.134 1298.67 751.217C1314.02 771.37 1331.15 794.629 1347.86 819.066C1332.86 835.718 1318.72 852.205 1306.04 867.464C1287.55 841.561 1270.14 819.066 1257.14 802.795ZM1307.76 1000.67C1294.54 978.012 1280.61 955.96 1267.4 936.799C1275.72 925.866 1288.88 908.935 1305.28 888.876C1319.51 909.368 1334.07 931.523 1347.38 954.081C1333.52 970 1320.11 985.796 1307.76 1000.66V1000.67ZM1356.37 943.788C1342.84 921.096 1328.16 898.89 1313.82 878.448C1326.37 863.324 1340.41 846.827 1355.38 830.143C1370.53 852.773 1385.09 876.095 1397.42 898.652C1383.72 913.147 1369.89 928.426 1356.36 943.778L1356.37 943.788Z" fill="#914921"/>
<path d="M1277.15 924.111C1275.92 918.804 1274.61 913.467 1273.18 908.067C1267.94 914.737 1263.33 920.714 1259.51 925.639C1256.5 921.447 1253.53 917.441 1250.61 913.622C1248.55 910.917 1244.7 910.318 1241.88 912.156C1243.5 918.071 1245 923.884 1246.36 929.634C1247.98 931.895 1249.63 934.145 1251.28 936.499C1250.2 937.934 1249.34 939.07 1248.68 939.999C1249.57 944.221 1250.4 948.392 1251.13 952.553C1251.51 952.615 1251.86 952.646 1252.21 952.646C1254.25 952.646 1256.22 951.696 1257.49 949.972C1257.55 949.879 1258.13 949.084 1259.14 947.752C1268.39 961.318 1277.92 976.256 1287.29 991.732C1286.76 982.162 1285.76 972.375 1284.34 962.34C1278.65 953.441 1272.96 944.831 1267.4 936.788C1270.13 933.196 1273.44 928.942 1277.15 924.111Z" fill="#A56A49"/>
<path d="M1243.79 682.161C1244.71 679.333 1245.73 676.566 1246.8 673.902C1246.36 674.129 1245.92 674.377 1245.53 674.728C1243.35 676.638 1242.74 679.622 1243.79 682.161Z" fill="#A56A49"/>
<path d="M1287.36 1025.39C1278.55 1036.16 1270.58 1046.08 1263.78 1054.62C1262.72 1053.32 1262.03 1052.47 1261.87 1052.27C1259.83 1049.79 1256.33 1049.26 1253.67 1050.77C1253.07 1054.02 1252.43 1057.2 1251.7 1060.34C1251.73 1060.41 1251.76 1060.5 1251.82 1060.57C1251.88 1060.63 1253.29 1062.32 1255.41 1065.14C1252.4 1068.99 1249.69 1072.39 1247.37 1075.31C1244.86 1082.68 1241.84 1089.67 1238.29 1096.22C1238.47 1096.41 1238.67 1096.63 1238.93 1096.82C1240.13 1097.74 1241.53 1098.18 1242.9 1098.18C1244.84 1098.18 1246.78 1097.29 1248.08 1095.61C1248.31 1095.29 1253.9 1088.04 1263.33 1076.1C1266.22 1080.35 1269.31 1085.18 1272.14 1090.21C1274.4 1085.38 1276.43 1080.33 1278.18 1075.06C1275.99 1071.59 1273.82 1068.36 1271.79 1065.45C1275.67 1060.59 1279.95 1055.22 1284.56 1049.5C1285.92 1041.75 1286.85 1033.71 1287.36 1025.39Z" fill="#A56A49"/>
<path d="M1240.64 803.043C1236.48 808.639 1234.16 811.88 1234.06 812.035C1231.97 814.957 1232.67 819.025 1235.59 821.089C1236.74 821.915 1238.04 822.297 1239.37 822.297C1241.4 822.297 1243.41 821.347 1244.68 819.561C1244.71 819.499 1244.93 819.179 1245.35 818.612C1241.82 804.819 1239.18 791.501 1237.44 778.731C1235.82 776.821 1234.9 775.747 1234.81 775.644C1232.45 772.908 1228.35 772.598 1225.62 774.942C1222.91 777.296 1222.6 781.394 1224.95 784.089C1225.21 784.378 1231.11 791.305 1240.65 803.033L1240.64 803.043Z" fill="#A56A49"/>
<path d="M1332.95 588.824C1325.45 589.65 1319.18 592.034 1312.32 593.655C1419.91 594.605 1515.38 725.594 1478.07 892.427C1441.31 1056.88 1292.39 1207.35 1091.05 1231.18L1080.62 1253.46C1309.17 1245.74 1479.94 1079.32 1520.37 898.508C1560.78 717.696 1450.54 575.805 1332.94 588.834L1332.95 588.824Z" fill="#914921"/>
<path d="M1080.62 1264.61C1076.88 1264.61 1073.38 1262.74 1071.31 1259.6C1069.17 1256.35 1068.86 1252.23 1070.51 1248.71L1080.93 1226.44C1082.56 1222.95 1085.89 1220.55 1089.74 1220.1C1273.37 1198.35 1428.59 1062.62 1467.19 889.991C1486.99 801.453 1469.6 714.052 1420.69 656.176C1390.44 620.394 1352.11 601.966 1313.42 603.834C1307.17 604.103 1302.6 599.973 1301.79 594.274C1300.97 588.555 1304.66 583.145 1310.28 581.824C1318.47 579.904 1324.27 578.541 1331.72 577.725C1383.22 571.975 1435.19 593.944 1474.58 637.934C1532.45 702.52 1553.65 800.824 1531.27 900.903C1492.25 1075.41 1325.06 1256.35 1081.01 1264.59H1080.63L1080.62 1264.61ZM1411.11 615.593C1420.45 623.14 1429.38 631.895 1437.73 641.785C1491.14 704.956 1510.29 799.554 1488.96 894.863C1448.96 1073.78 1290.23 1215.02 1101.23 1241.14C1322.54 1224.01 1473.46 1057.14 1509.49 896.061C1530.29 803.002 1511.02 712.08 1457.96 652.852C1443.83 637.098 1427.98 624.575 1411.12 615.593H1411.11Z" fill="#592832"/>
<path d="M1080.64 1264.63C1076.9 1264.63 1073.4 1262.76 1071.33 1259.63C1069.19 1256.39 1068.88 1252.27 1070.53 1248.75L1114.05 1155.44C1115.75 1151.73 1119.37 1149.28 1123.43 1149.02C1170.11 1145.97 1203.92 1128.98 1223.92 1098.49C1255.09 1050.96 1252.84 970.713 1217.6 872.533C1184.39 780.031 1184.88 699.031 1218.96 644.417C1242.74 606.322 1281.72 583.259 1331.7 577.746C1383.33 572.027 1435.21 594.027 1474.59 637.975C1532.46 702.561 1553.64 800.844 1531.27 900.913C1492.25 1075.4 1325.06 1256.36 1081.03 1264.62H1080.65L1080.64 1264.63ZM1131.53 1170.78L1098.6 1241.35C1321.33 1225.33 1473.31 1057.77 1509.48 896.061C1530.28 803.023 1511.02 712.1 1457.97 652.883C1423.41 614.323 1377.99 595.049 1334.16 599.932C1291.21 604.691 1257.92 624.162 1237.91 656.238C1207.52 704.925 1207.77 779.082 1238.63 864.986C1276.3 969.928 1277.7 1057.21 1242.58 1110.73C1219.54 1145.87 1182.21 1166.05 1131.54 1170.77L1131.53 1170.78Z" fill="#592832"/>
<path d="M628.012 933.96C535.769 990.865 497.261 1213.23 671.951 1270.84C801.566 1307.22 831.867 1201.86 835.377 1174.82C846.651 1087.89 725.49 960.544 628.012 933.95V933.96Z" fill="#E9AB71"/>
<path d="M694.673 1270.84C525.599 1215.08 556.23 1005.02 641.99 939.968C635.858 937.604 629.787 935.591 623.799 933.959C531.556 990.864 493.048 1213.23 667.738 1270.84C692.277 1277.72 713.245 1279.53 731.157 1277.74C719.956 1276.74 707.835 1274.53 694.662 1270.84H694.673Z" fill="#F4D6BA"/>
<path d="M722.269 1289.59C705.74 1289.59 687.932 1286.92 668.936 1281.58C594.676 1257.12 549.148 1201.99 540.239 1126.21C530.761 1045.85 565.986 959.129 622.158 924.462C624.791 922.862 627.981 922.377 630.965 923.213C731.261 950.561 858.533 1083.18 846.464 1176.26C845.628 1182.61 837.008 1239.24 789.704 1270.49C770.45 1283.21 747.872 1289.6 722.289 1289.6L722.269 1289.59ZM629.829 946.111C583.702 977.816 554.258 1054.49 562.394 1123.59C566.946 1162.21 587.677 1231.3 675.45 1260.23C716.849 1271.83 751.32 1269.05 777.388 1251.85C817.093 1225.61 824.041 1175.49 824.32 1173.38C834.685 1093.49 720.441 973.851 629.839 946.101L629.829 946.111Z" fill="#592832"/>
<path d="M1058.33 710.387C992.775 745.179 907.459 766.208 814.173 766.208C754.088 766.208 697.327 757.474 647.009 741.968C656.022 782.499 663.269 849.532 635.942 914.438C592.737 1017.06 522.514 1241.21 838.485 1241.21C1037.43 1241.21 1189.52 1047.67 1140.48 898.24C1117.04 838.279 1059.34 785.968 1058.33 710.387Z" fill="#E9AB71"/>
<path d="M660.667 914.437C686.415 853.279 681.47 790.252 673.273 749.266C664.343 747.026 655.578 744.6 647.009 741.957C656.022 782.488 663.269 849.521 635.942 914.427C592.737 1017.05 522.514 1241.2 838.485 1241.2C841.82 1241.2 845.134 1241.14 848.437 1241.02C549.469 1234.09 618.143 1015.41 660.667 914.427V914.437Z" fill="#F4D6BA"/>
<path d="M1017.46 1184.53C960.544 1137.65 917.793 1061.71 908.997 968.947C894.409 815.153 693.208 793.783 646.4 883.765C643.685 893.976 640.247 904.237 635.942 914.448C592.737 1017.07 522.514 1241.22 838.485 1241.22C905.415 1241.22 967.017 1219.29 1017.46 1184.54V1184.53Z" fill="#FFE4BF"/>
<path d="M911.052 1232.48C915.553 1231.39 920.003 1230.17 924.421 1228.89C925.66 1228.53 926.889 1228.14 928.127 1227.76C931.286 1226.8 934.435 1225.79 937.553 1224.73C938.978 1224.25 940.392 1223.76 941.806 1223.25C944.862 1222.17 947.898 1221.03 950.912 1219.86C952.151 1219.37 953.4 1218.91 954.639 1218.4C962.991 1215.03 971.157 1211.31 979.117 1207.28C980.314 1206.67 981.491 1206.04 982.689 1205.42C985.487 1203.97 988.253 1202.48 991 1200.95C992.331 1200.21 993.663 1199.46 994.985 1198.69C997.679 1197.15 1000.34 1195.54 1002.98 1193.92C1004.14 1193.21 1005.31 1192.51 1006.46 1191.78C1010.18 1189.42 1013.86 1187.03 1017.47 1184.54C1014.2 1181.85 1010.99 1179.05 1007.82 1176.16C1006.89 1175.31 1005.99 1174.42 1005.07 1173.57C1002.82 1171.46 1000.58 1169.33 998.391 1167.13C997.39 1166.13 996.409 1165.09 995.418 1164.07C993.343 1161.92 991.278 1159.74 989.245 1157.51C988.264 1156.44 987.304 1155.33 986.333 1154.24C984.341 1151.98 982.379 1149.68 980.438 1147.32C949.807 1110.2 926.393 1063 915.006 1008.55C897.548 1034.13 869.178 1089.86 885.542 1164.99C887.895 1175.79 880.875 1186.42 870.097 1188.88C774.849 1210.54 675.957 1193.12 607.345 1129.77L606.364 1129.6C627.507 1192.24 690.803 1241.21 838.496 1241.21C863.531 1241.21 887.823 1238.14 911.062 1232.47L911.052 1232.48Z" fill="#DAAA7A"/>
<path d="M660.667 914.438C669.711 892.943 674.914 871.243 677.578 850.327C664.384 858.813 653.575 869.973 646.4 883.755C645.77 886.14 645.089 888.525 644.366 890.91C644.191 891.508 643.995 892.107 643.809 892.696C643.272 894.451 642.704 896.206 642.116 897.961C641.857 898.725 641.599 899.489 641.331 900.253C640.753 901.925 640.144 903.608 639.524 905.28C639.256 905.993 639.008 906.695 638.729 907.407C637.831 909.751 636.902 912.094 635.921 914.427C592.716 1017.05 522.493 1241.2 838.465 1241.2C841.603 1241.2 844.721 1241.1 847.839 1241C549.552 1233.81 618.154 1015.35 660.647 914.427L660.667 914.438Z" fill="#FFF6EB"/>
<path d="M1140.48 898.239C1121.36 849.294 1079.41 805.449 1064.08 749.886C1063.3 747.026 1062.6 744.125 1061.96 741.203C1061.85 740.718 1061.74 740.233 1061.64 739.748C1061.01 736.764 1060.45 733.75 1059.98 730.683C1059.98 730.621 1059.97 730.56 1059.96 730.498C1059.54 727.638 1059.22 724.727 1058.95 721.805C1058.89 721.072 1058.83 720.329 1058.77 719.585C1058.54 716.55 1058.36 713.484 1058.32 710.376C992.765 745.168 907.449 766.197 814.163 766.197C754.078 766.197 697.317 757.463 646.999 741.957C647.422 743.857 647.835 745.828 648.248 747.831C648.362 748.409 648.486 748.998 648.599 749.586C648.919 751.187 649.229 752.818 649.539 754.48C649.642 755.027 649.745 755.564 649.838 756.111C650.22 758.227 650.581 760.406 650.943 762.615C651.025 763.162 651.108 763.73 651.201 764.288C651.428 765.795 651.655 767.323 651.872 768.871C712.628 799.151 809.651 811.757 917.442 799.244C929.542 797.138 941.414 794.702 952.987 791.883C981.12 785.049 1010.1 799.172 1021.72 825.683C1040.75 869.044 1072.45 906.251 1088.37 946.978C1113.13 1022.41 1086.61 1109.08 1028.69 1176.44C1121.13 1106.92 1171.77 993.59 1140.47 898.219L1140.48 898.239Z" fill="#D5813C"/>
<path d="M838.485 1252.37C725.883 1252.37 649.92 1223.95 612.693 1167.89C573.875 1109.43 578.252 1022.71 625.649 910.102C651.252 849.304 645.471 786.432 636.117 744.394C635.25 740.512 636.52 736.465 639.442 733.76C642.363 731.076 646.596 730.188 650.292 731.293C701.467 747.067 756.597 755.048 814.183 755.048C901.997 755.048 986.839 735.68 1053.11 700.538C1056.56 698.721 1060.7 698.834 1064.03 700.796C1067.36 702.778 1069.44 706.371 1069.49 710.253C1070.09 755.967 1093.54 793.68 1116.19 830.154C1128.98 850.719 1142.19 871.986 1150.86 894.182C1173.59 963.383 1157.29 1043.04 1106.39 1113.33C1043.33 1200.4 943.169 1252.37 838.475 1252.37H838.485ZM661.473 757.763C668.988 801.918 670.578 860.95 646.224 918.784C601.894 1024.06 596.866 1103.73 631.286 1155.55C664.095 1204.98 733.822 1230.05 838.475 1230.05C936.035 1230.05 1029.42 1181.53 1088.31 1100.23C1134.97 1035.8 1150.12 963.445 1129.87 901.729C1122.13 882.021 1110.04 862.55 1097.23 841.933C1075.73 807.328 1053.58 771.7 1048.33 727.927C939.411 779.97 786.536 791.574 661.462 757.763H661.473Z" fill="#592832"/>
<path d="M1117.12 851.988C1127.16 864.872 1169.93 919.052 1186.25 946.255C1229.46 1018.27 1237.86 1121.49 1180.25 1201.9C1122.65 1282.32 1006.22 1284.72 953.977 1218.71C876.662 1121.02 905.992 1032.99 927.125 992.991C1019.51 980.438 1066.22 913.333 1117.12 851.988Z" fill="#E9AB71"/>
<path d="M955.835 1181.87C913.786 1100.69 927.124 1035.57 948.412 992.723C952.872 983.752 945.759 973.48 935.755 974.006H935.487C911.071 1012.1 874.442 1097.36 943.281 1201.19C977.422 1252.69 1049.08 1270.32 1110.18 1246.32C1048.75 1260.11 983.245 1234.79 955.835 1181.87Z" fill="#F4D6BA"/>
<path d="M1186.25 946.245C1169.93 919.042 1127.16 864.873 1117.13 851.979C1101.34 871.005 1085.96 890.569 1069.49 908.904C1075.38 917.256 1080.6 925.02 1084.38 931.328C1127.58 1003.35 1135.99 1106.56 1078.38 1186.98C1054.88 1219.78 1021.59 1239.59 986.869 1247.08C1045.39 1281.4 1132.79 1268.16 1180.26 1201.89C1237.86 1121.48 1229.47 1018.25 1186.25 946.245Z" fill="#D5813C"/>
<path d="M1056.54 1276.61C1011.38 1276.61 970.981 1258.17 945.233 1225.63C835.552 1087.04 931.729 964.467 932.71 963.259C936.561 958.469 943.581 957.726 948.392 961.576C953.182 965.427 953.946 972.447 950.116 977.258C946.554 981.708 864.335 1087.44 962.732 1211.77C984.876 1239.72 1021.13 1254.71 1060 1254.26C1104.62 1253.18 1145.16 1231.74 1171.19 1195.4C1228.18 1115.88 1215.02 1015.85 1176.7 951.986C1153.84 913.891 1136.88 893.625 1123.26 877.324C1111.12 862.808 1100.63 850.265 1090.4 830.794C1087.52 825.353 1089.61 818.602 1095.08 815.732C1100.54 812.831 1107.28 814.947 1110.15 820.419C1119.29 837.783 1128.6 848.912 1140.38 863.015C1154.52 879.894 1172.09 900.903 1195.84 940.526C1237.92 1010.62 1252.23 1120.66 1189.35 1208.4C1159.2 1250.48 1112.26 1275.35 1060.56 1276.58C1059.22 1276.62 1057.9 1276.62 1056.57 1276.62L1056.54 1276.61Z" fill="#592832"/>
<path d="M1139.44 1312.33H853.784C853.784 1312.33 860.918 1237.91 953.967 1218.71C1047.02 1199.51 1144.43 1254.72 1149.74 1278.72C1155.04 1302.73 1139.43 1312.33 1139.43 1312.33H1139.44Z" fill="#AD6745"/>
<path d="M1139.44 1312.33H853.784C853.784 1312.33 860.918 1237.91 953.967 1218.71C1047.02 1199.51 1144.43 1254.72 1149.74 1278.72C1155.04 1302.73 1139.43 1312.33 1139.43 1312.33H1139.44Z" fill="#AD6745"/>
<path d="M966.696 1233.33C1040.92 1218.01 1117.88 1250.03 1148.68 1275.81C1136.93 1250.57 1043.45 1200.24 953.967 1218.71C860.918 1237.91 853.784 1312.33 853.784 1312.33H869.91C877.219 1289.65 899.663 1247.16 966.696 1233.33Z" fill="#C08A71"/>
<path d="M1149.75 1278.71C1147.97 1270.7 1135.9 1259.21 1117.19 1248.18C1114.09 1248.5 1110.99 1248.87 1107.91 1249.29C1072.58 1254.21 1049.64 1264.47 1034.78 1275.32C1021.69 1284.87 1005.94 1290.01 989.729 1290.01H860.02C854.714 1302.94 853.795 1312.32 853.795 1312.32H1139.46C1139.46 1312.32 1155.05 1302.72 1149.76 1278.71H1149.75Z" fill="#914921"/>
<path d="M1139.45 1323.49H853.785C850.646 1323.49 847.632 1322.17 845.525 1319.84C843.399 1317.5 842.366 1314.4 842.676 1311.27C842.748 1310.45 851.751 1228.41 951.727 1207.79C1047.51 1188.01 1153.29 1242.97 1160.66 1276.32C1166.19 1301.4 1153.6 1316.74 1145.29 1321.85C1143.52 1322.93 1141.51 1323.5 1139.45 1323.5V1323.49ZM867.711 1301.17H1135.33C1137.77 1298.37 1141.29 1292.19 1138.85 1281.13C1134.94 1264.46 1045.75 1211.16 956.228 1229.62C894.182 1242.44 874.061 1281.11 867.701 1301.16L867.711 1301.17Z" fill="#592832"/>
<path d="M956.713 1323.49C955.588 1323.49 954.442 1323.32 953.316 1322.96C947.432 1321.09 944.211 1314.82 946.079 1308.93C946.699 1307.02 961.41 1262.07 998.886 1249.99C1004.85 1248.08 1011.05 1251.34 1012.94 1257.18C1014.85 1263.04 1011.62 1269.34 1005.75 1271.23C979.487 1279.71 967.46 1315.36 967.347 1315.73C965.839 1320.46 961.452 1323.49 956.713 1323.49Z" fill="#592832"/>
<path d="M893.614 1323.49C892.488 1323.49 891.332 1323.3 890.207 1322.94C884.343 1321.05 881.111 1314.8 882.98 1308.93C883.599 1307.02 898.331 1262.07 935.786 1249.99C941.609 1248.03 947.948 1251.32 949.837 1257.18C951.747 1263.04 948.516 1269.34 942.652 1271.23C916.192 1279.78 904.361 1315.41 904.247 1315.75C902.709 1320.48 898.332 1323.5 893.614 1323.5V1323.49Z" fill="#592832"/>
<path d="M793.741 1030.83C794.082 1031.3 794.433 1031.78 794.774 1032.24C794.423 1031.79 794.082 1031.31 793.741 1030.83Z" fill="#D5813C"/>
<path d="M790.211 1025.32C790.748 1026.24 791.305 1027.15 791.863 1028.03C791.305 1027.14 790.748 1026.29 790.211 1025.32Z" fill="#D5813C"/>
<path d="M959.17 1035.47C959.17 935.116 775.468 853.765 548.849 853.765C322.23 853.765 138.528 935.116 138.528 1035.47C138.528 1035.47 137.485 1079.76 138.528 1094.41C139.571 1109.05 127.017 1196.92 131.198 1219.45C135.39 1241.97 125.964 1279.15 109.219 1289.29C92.4734 1299.42 2.44951 1364.75 11.8752 1392.92C21.3008 1421.08 65.2598 1381.65 85.1435 1392.92C105.027 1404.18 170.976 1419.95 209.701 1360.25C236.914 1408.69 286.107 1418.83 321.704 1414.32C345.779 1451.49 389.738 1451.49 413.813 1448.11C438.931 1480.77 494.411 1484.15 536.285 1481.9C578.158 1479.65 638.863 1521.32 654.565 1507.8C670.268 1494.29 595.946 1414.31 559.307 1407.55C655.608 1422.18 702.499 1418.81 730.342 1405.3C790.633 1458.24 877.519 1423.32 931.946 1377.13C1013.59 1455.99 1031.39 1418.81 1070.12 1413.17C1108.85 1407.54 1153.86 1435.7 1170.6 1408.67C1187.35 1381.63 1094.2 1317.43 1074.3 1306.17C1057.56 1248.71 984.278 1244.21 984.278 1244.21C984.278 1244.21 951.83 1157.48 956.011 1113.54C960.203 1069.62 959.149 1035.46 959.149 1035.46L959.17 1035.47Z" fill="#996739"/>
<path d="M959.17 1035.47C959.17 935.116 775.468 853.765 548.849 853.765C322.23 853.765 138.528 935.116 138.528 1035.47C138.528 1035.47 137.485 1079.76 138.528 1094.41C139.571 1109.05 127.017 1196.92 131.198 1219.45C135.39 1241.97 125.964 1279.15 109.219 1289.29C92.4734 1299.42 2.44951 1364.75 11.8752 1392.92C21.3008 1421.08 65.2598 1381.65 85.1435 1392.92C105.027 1404.18 170.976 1419.95 209.701 1360.25C236.914 1408.69 286.107 1418.83 321.704 1414.32C345.779 1451.49 389.738 1451.49 413.813 1448.11C438.931 1480.77 494.411 1484.15 536.285 1481.9C578.158 1479.65 638.863 1521.32 654.565 1507.8C670.268 1494.29 595.946 1414.31 559.307 1407.55C655.608 1422.18 702.499 1418.81 730.342 1405.3C790.633 1458.24 877.519 1423.32 931.946 1377.13C1013.59 1455.99 1031.39 1418.81 1070.12 1413.17C1108.85 1407.54 1153.86 1435.7 1170.6 1408.67C1187.35 1381.63 1094.2 1317.43 1074.3 1306.17C1057.56 1248.71 984.278 1244.21 984.278 1244.21C984.278 1244.21 951.83 1157.48 956.011 1113.54C960.203 1069.62 959.149 1035.46 959.149 1035.46L959.17 1035.47Z" fill="#A96E34"/>
<path d="M141.605 1290.29C141.605 1290.29 166.444 1276.5 159.465 1212.67C160.167 1123.31 169.232 1104.53 169.232 1104.53L138.064 1071.86C138.064 1080.86 138.167 1089.38 138.529 1094.39C139.571 1109.03 127.018 1196.9 131.199 1219.42C135.39 1241.95 125.965 1279.13 109.219 1289.27C101.26 1294.08 76.8025 1311.38 54.2965 1331.2L52.6963 1338.83C81.4172 1304.14 110.809 1283.08 141.605 1290.29Z" fill="#C79457"/>
<path d="M654.576 1507.8C670.278 1494.29 595.957 1414.31 559.318 1407.55C560.67 1407.75 561.899 1407.92 563.23 1408.11C553.867 1404.29 546.341 1398.53 543.915 1389.74C526.343 1325.88 438.25 1314.05 438.25 1314.05C438.25 1314.05 522.1 1352.82 506.955 1404.41L494.628 1405.93C494.628 1405.93 610.813 1443.61 625.277 1506.24C638.563 1510.54 649.218 1512.4 654.565 1507.8H654.576Z" fill="#C79457"/>
<path d="M950.591 1260.79C944.036 1260.09 939.803 1259.99 939.803 1259.99C939.803 1259.99 935.622 1269.12 950.591 1260.79Z" fill="#C98750"/>
<path d="M1170.61 1408.67C1187.36 1381.63 1094.21 1317.43 1074.31 1306.17C1057.57 1248.71 984.288 1244.21 984.288 1244.21C984.288 1244.21 951.84 1157.48 956.021 1113.54C960.213 1069.62 959.16 1035.46 959.16 1035.46C959.16 1012.32 949.29 990.215 931.482 969.856L920.425 1112.58C920.425 1112.58 928.994 1220.52 959.16 1255.48C955.722 1257.79 952.955 1259.47 950.581 1260.79C972.271 1263.11 1020.58 1272.14 1035.21 1307.29L1007.92 1310.76C1007.92 1310.76 1106.91 1338.71 1156.72 1419.08C1162.34 1417.43 1167.1 1414.29 1170.59 1408.66L1170.61 1408.67Z" fill="#C79457"/>
<path d="M1061.76 1365.87C1042.92 1379.38 984.299 1390.65 950.809 1347.84C917.318 1305.04 868.115 1330.73 868.115 1330.73C868.115 1330.73 845.093 1363.61 820.584 1338.83C796.251 1330.57 769.729 1326.44 736.238 1354.59C712.163 1373.75 695.418 1342.21 695.418 1342.21C695.418 1342.21 675.534 1373.75 657.034 1342.21C647.959 1373.75 583.414 1398.53 513.729 1342.21C532.146 1366.03 546.114 1388.17 549.046 1406.11L559.339 1407.55C655.64 1422.19 702.531 1418.81 730.374 1405.3C790.666 1458.24 877.551 1423.32 931.978 1377.13C1013.62 1455.99 1031.42 1418.81 1070.15 1413.18C1100.81 1408.72 1135.37 1425.35 1156.76 1419.1C1129.64 1357.2 1078.61 1353.8 1061.78 1365.88L1061.76 1365.87Z" fill="#844E18"/>
<path d="M443.597 1403.72C422.082 1353.71 393.94 1338.09 332.182 1354.6C291.362 1368.12 245.999 1335.08 215.069 1272.38C205.075 1322.31 147.933 1292.57 147.933 1292.57C147.933 1292.57 153.879 1369.62 106.431 1359.45C58.9827 1349.27 11.875 1392.9 11.875 1392.9C21.2903 1421.06 65.2596 1381.63 85.1433 1392.9C105.027 1404.16 170.976 1419.93 209.7 1360.23C236.914 1408.67 286.117 1418.81 321.704 1414.3C345.779 1451.47 389.738 1451.47 413.813 1448.09C438.931 1480.75 494.411 1484.13 536.285 1481.88C563.849 1480.39 599.508 1497.89 625.183 1506.2C607.127 1427.74 464.111 1451.4 443.587 1403.71L443.597 1403.72Z" fill="#844E18"/>
<path d="M548.849 1217.18C775.463 1217.18 959.17 1135.83 959.17 1035.47C959.17 935.119 775.463 853.765 548.849 853.765C322.235 853.765 138.528 935.119 138.528 1035.47C138.528 1135.83 322.235 1217.18 548.849 1217.18Z" fill="#CFA36F"/>
<path d="M552.421 1182.14C762.665 1182.14 933.102 1115 933.102 1032.18C933.102 949.364 762.665 882.228 552.421 882.228C342.176 882.228 171.739 949.364 171.739 1032.18C171.739 1115 342.176 1182.14 552.421 1182.14Z" fill="#EAC9AB"/>
<path d="M645.647 1520.91C633.599 1520.91 618.206 1515.09 600.335 1508.34C579.192 1500.36 554.931 1491.19 536.854 1492.29C475.499 1495.41 432.594 1484.44 409.478 1459.12C383.493 1461.79 342.456 1459.43 316.688 1425.28C281.225 1428.11 237.452 1416.73 209.124 1378.46C167.529 1427.44 105.503 1416.41 80.0034 1401.96C75.5951 1399.44 63.1239 1403.8 54.039 1406.99C40.2463 1411.85 25.9994 1416.84 14.3541 1411.13C8.51082 1408.28 4.35032 1403.25 1.99648 1396.21C-11.7033 1355.26 102.675 1281.1 103.841 1280.4C115.414 1273.38 124.706 1241.38 120.968 1221.37C118.315 1207.14 121.134 1175.09 125.088 1134.68C126.76 1117.58 128.484 1099.89 128.154 1095.15C127.08 1080.2 128.082 1037.05 128.133 1035.23C128.133 927.756 312.93 843.369 548.84 843.369C784.75 843.369 969.371 927.663 969.568 1035.31C969.66 1038.12 970.476 1071.47 966.388 1114.54C963.084 1149.22 984.826 1214.55 991.867 1234.59C1011.43 1237.32 1065.94 1249.31 1083.06 1299.39C1100.25 1310.26 1172.91 1358.12 1182 1393.7C1184.45 1403.26 1181.96 1410.11 1179.44 1414.15C1165.58 1436.55 1139.81 1431.76 1114.95 1427.08C1100.34 1424.35 1085.24 1421.57 1071.63 1423.49C1064.19 1424.57 1057.45 1427.05 1050.32 1429.67C1018.06 1441.5 990.287 1445.67 931.452 1391C871.037 1438.87 787.868 1463.89 728.65 1417.42C702.5 1427.88 665.024 1430.21 609.1 1424.48C635.891 1446.6 661.112 1476.83 666.067 1495.17C669.226 1506.79 664.467 1513.01 661.349 1515.7C657.065 1519.38 651.789 1520.9 645.636 1520.9L645.647 1520.91ZM539.652 1471.41C561.425 1471.41 585.923 1480.66 607.707 1488.87C620.395 1493.66 638.41 1500.55 646.091 1500.22C641.899 1482.24 585.82 1423.02 557.44 1417.78C551.855 1416.74 548.128 1411.43 549.077 1405.82C550.017 1400.2 555.375 1396.55 560.888 1397.25C646.349 1410.23 697.173 1409.87 725.832 1395.93C729.549 1394.08 734.112 1394.68 737.229 1397.47C789.726 1443.59 869.509 1416.53 925.237 1369.19C929.305 1365.74 935.365 1365.91 939.195 1369.65C998.247 1426.67 1019.08 1418.98 1043.17 1410.12C1050.99 1407.25 1059.09 1404.27 1068.67 1402.89C1085.6 1400.38 1103.27 1403.68 1118.81 1406.61C1141.49 1410.87 1155.69 1412.98 1161.8 1403.18C1162.34 1402.27 1162.38 1400.81 1161.87 1398.84C1155.83 1375.21 1093.4 1328.92 1069.19 1315.22C1066.83 1313.88 1065.09 1311.68 1064.33 1309.07C1049.87 1259.47 984.32 1254.64 983.67 1254.59C979.582 1254.33 976.01 1251.69 974.575 1247.86C973.212 1244.22 941.332 1158.35 945.699 1112.57C949.766 1069.87 948.806 1036.11 948.806 1035.77V1035.46C948.806 942.601 765.661 864.151 548.871 864.151C332.081 864.151 148.956 942.601 148.956 1035.46C148.956 1036.16 147.945 1079.67 148.936 1093.66C149.369 1099.84 148.099 1113.35 145.818 1136.69C143.01 1165.57 139.138 1205.08 141.461 1217.54C146.344 1243.74 135.453 1285.55 114.64 1298.16C81.7068 1318.13 16.6047 1374.18 21.7666 1389.59C22.128 1390.67 22.7268 1392.03 23.532 1392.42C27.5067 1394.29 39.3068 1390.08 47.1736 1387.34C62.1122 1382.06 77.6289 1376.62 90.2963 1383.84C104.492 1391.86 164.793 1410.43 201.009 1354.57C202.991 1351.51 206.058 1350.02 210.063 1349.84C213.707 1349.95 217.032 1351.96 218.807 1355.13C248.819 1408.61 304.134 1406.05 320.435 1403.98C324.482 1403.48 328.333 1405.3 330.47 1408.65C351.448 1441.06 390.844 1440.84 412.39 1437.79C416.272 1437.27 419.813 1438.8 422.084 1441.75C439.418 1464.27 478.741 1474.63 535.76 1471.49C537.05 1471.44 538.351 1471.4 539.683 1471.4L539.652 1471.41Z" fill="#592832"/>
<path d="M548.849 1227.58C312.929 1227.58 128.143 1143.19 128.143 1035.47C128.143 927.756 312.939 843.369 548.849 843.369C784.759 843.369 969.577 927.756 969.577 1035.47C969.577 1143.19 784.78 1227.58 548.849 1227.58ZM548.849 864.161C332.08 864.161 148.935 942.612 148.935 1035.47C148.935 1128.34 332.08 1206.79 548.849 1206.79C765.619 1206.79 948.785 1128.34 948.785 1035.47C948.785 942.612 765.64 864.161 548.849 864.161Z" fill="#592832"/>
<path d="M174.652 1349.24C168.953 1349.24 164.308 1344.64 164.256 1338.94C164.07 1320.91 157.215 1308.22 144.403 1302.28C130.518 1295.79 111.357 1298.58 98.9578 1308.84C94.5082 1312.5 87.9629 1311.88 84.3082 1307.48C80.6226 1303.05 81.242 1296.5 85.671 1292.83C104.213 1277.42 132.015 1273.55 153.158 1283.41C164.917 1288.85 184.718 1303.31 185.038 1338.73C185.09 1344.48 180.485 1349.17 174.745 1349.24H174.632H174.652Z" fill="#592832"/>
<path d="M443.598 1480.7C442.235 1480.7 440.862 1480.43 439.53 1479.86C396.335 1461.57 379.662 1398.92 378.97 1396.28C377.535 1390.73 380.86 1385.05 386.424 1383.59C392.009 1382.27 397.677 1385.51 399.112 1391.04C399.257 1391.6 413.937 1446.45 447.655 1460.7C452.941 1462.93 455.418 1469.05 453.168 1474.35C451.485 1478.3 447.634 1480.7 443.587 1480.7H443.598Z" fill="#592832"/>
<path d="M594.676 1436.69C592.374 1436.69 590.072 1435.95 588.141 1434.39C548.673 1402.52 487.918 1417.84 487.278 1418C481.723 1419.37 476.025 1416.11 474.59 1410.56C473.134 1405.01 476.438 1399.33 481.992 1397.86C484.872 1397.1 553.443 1379.61 601.201 1418.21C605.682 1421.82 606.373 1428.37 602.76 1432.84C600.706 1435.4 597.701 1436.7 594.666 1436.7L594.676 1436.69Z" fill="#592832"/>
<path d="M543.915 1415.69C538.185 1415.69 533.519 1411.07 533.519 1405.32C533.498 1402.18 532.156 1328.18 430.497 1324.02C424.747 1323.78 420.276 1318.94 420.514 1313.2C420.751 1307.45 425.428 1302.9 431.333 1303.21C528.439 1307.19 554.249 1371.7 554.321 1405.27C554.342 1411 549.696 1415.69 543.946 1415.69H543.925H543.915Z" fill="#592832"/>
<path d="M288.565 1308.67C282.815 1308.67 278.169 1304.03 278.169 1298.28V1182.13C278.169 1176.38 282.815 1171.74 288.565 1171.74C294.315 1171.74 298.961 1176.38 298.961 1182.13V1298.28C298.961 1304.03 294.315 1308.67 288.565 1308.67Z" fill="#592832"/>
<path d="M332.172 1308.67C326.422 1308.67 321.776 1304.03 321.776 1298.28V1259.99C321.776 1254.24 326.422 1249.59 332.172 1249.59C337.923 1249.59 342.569 1254.24 342.569 1259.99V1298.28C342.569 1304.03 337.923 1308.67 332.172 1308.67Z" fill="#592832"/>
<path d="M657.012 1391.29C651.262 1391.29 646.616 1386.64 646.616 1380.89V1243.48C646.616 1237.73 651.262 1233.08 657.012 1233.08C662.763 1233.08 667.408 1237.73 667.408 1243.48V1380.89C667.408 1386.64 662.763 1391.29 657.012 1391.29Z" fill="#592832"/>
<path d="M695.396 1387.55C690.874 1387.55 686.724 1384.59 685.393 1380.03C681.686 1367.27 684.154 1320.65 685.011 1306.66C685.351 1300.93 690.709 1296.57 696.005 1296.92C701.756 1297.26 706.112 1302.18 705.772 1307.91C704.161 1334.86 703.542 1367.87 705.39 1374.22C706.99 1379.73 703.81 1385.52 698.297 1387.12C697.317 1387.39 696.356 1387.54 695.396 1387.54V1387.55Z" fill="#592832"/>
<path d="M934.033 1282.73C932.36 1282.73 930.677 1282.33 929.118 1281.48C924.111 1278.76 922.191 1272.57 924.855 1267.52C925.928 1265.49 952.058 1217.89 1028.42 1244.66C1033.85 1246.57 1036.7 1252.49 1034.79 1257.92C1032.88 1263.35 1027.01 1266.21 1021.53 1264.29C962.857 1243.7 943.964 1275.98 943.2 1277.36C941.29 1280.77 937.718 1282.73 934.033 1282.73Z" fill="#592832"/>
<path d="M979.529 1334.03C976.081 1334.03 972.705 1332.33 970.723 1329.2C967.657 1324.36 969.071 1317.92 973.913 1314.85C976.618 1313.12 1040.68 1273.27 1096.43 1307.92C1101.31 1310.96 1102.8 1317.38 1099.76 1322.26C1096.73 1327.14 1090.3 1328.68 1085.42 1325.59C1040.81 1297.87 985.631 1332.08 985.063 1332.42C983.339 1333.5 981.419 1334.03 979.509 1334.03H979.529Z" fill="#592832"/>
<path d="M200.296 1383.03C197.302 1383.03 194.329 1381.74 192.254 1379.24C188.609 1374.81 189.239 1368.24 193.689 1364.59C212.106 1349.43 219.457 1305.03 199.202 1259.73C196.837 1254.48 199.202 1248.33 204.446 1245.99C209.639 1243.62 215.823 1245.97 218.187 1251.23C240.6 1301.28 235.738 1356.93 206.903 1380.66C204.983 1382.26 202.639 1383.03 200.296 1383.03Z" fill="#592832"/>
<path d="M562.972 899.323C569.28 899.323 574.38 904.237 574.38 910.277C574.38 916.316 569.28 921.21 562.972 921.21C374.934 921.21 248.612 975.307 248.612 1025.83C248.612 1076.36 374.934 1130.47 562.972 1130.47C569.28 1130.47 574.38 1135.37 574.38 1141.41C574.38 1147.45 569.28 1152.34 562.972 1152.34C373.902 1152.34 225.796 1096.79 225.796 1025.83C225.796 954.876 373.902 899.323 562.972 899.323Z" fill="#CFA36F"/>
<path d="M727.163 964.777C727.689 964.777 728.216 964.818 728.753 964.89C783.841 972.685 876.249 991.887 876.249 1033.15C876.249 1084.11 729.909 1110.78 585.344 1110.78C440.779 1110.78 294.449 1084.11 294.449 1033.15C294.449 996.45 366.241 977.052 426.481 967.244C432.386 966.367 437.982 970.104 438.983 975.761C439.984 981.419 436.01 986.787 430.104 987.758C339.957 1002.45 316.14 1023.86 316.14 1033.15C316.14 1056.32 421.019 1089.95 585.354 1089.95C749.689 1089.95 854.58 1056.32 854.58 1033.15C854.58 1021.3 820.232 998.846 725.614 985.486C719.688 984.65 715.59 979.354 716.467 973.676C717.252 968.504 721.897 964.777 727.183 964.777H727.163Z" fill="#CFA36F"/>
<path d="M539.671 1064.91C477.986 1064.91 373.602 1054.95 373.602 1017.64C373.602 980.325 477.986 970.362 539.671 970.362C601.356 970.362 705.74 980.325 705.74 1017.64C705.74 1054.95 601.356 1064.91 539.671 1064.91ZM539.671 990.576C449.317 990.576 396.665 1008.32 393.785 1017.85C396.665 1026.95 449.317 1044.69 539.671 1044.69C630.025 1044.69 681.892 1027.2 685.485 1017.64C681.892 1008.08 629.354 990.576 539.671 990.576Z" fill="#B59275"/>
<path d="M738.333 140.79C655.887 171.772 547.311 71.5584 470.853 140.79C416.343 190.148 477.264 278.582 543.223 296.319L738.344 140.79H738.333Z" fill="#EAAC71"/>
<path d="M460.777 167.766C527.882 107 619.723 176.748 696.924 173.785L738.323 140.779C655.877 171.761 547.301 71.5477 470.843 140.779C458.268 152.167 451.898 165.649 450.257 179.845C453.137 175.622 456.575 171.565 460.777 167.756V167.766Z" fill="#F5D7BB"/>
<path d="M543.213 307.448C542.253 307.448 541.272 307.324 540.312 307.066C494.433 294.739 451.806 252.132 441.151 207.977C434.09 178.689 441.988 151.888 463.379 132.52C511.106 89.3152 568.248 105.286 623.512 120.689C663.785 131.922 701.87 142.576 734.41 130.342C739.541 128.401 745.302 130.507 748.017 135.277C750.732 140.047 749.556 146.076 745.281 149.482L550.161 305.001C548.168 306.601 545.711 307.437 543.213 307.437V307.448ZM538.35 127.007C516.608 127.007 496.353 132.727 478.338 149.039C459.043 166.537 459.249 187.908 462.842 202.754C471.173 237.287 504.819 271.954 540.838 283.94L698.845 158C672.116 157.401 644.531 149.71 617.524 142.153C589.939 134.461 563.169 126.997 538.35 126.997V127.007Z" fill="#592832"/>
<path d="M470.058 243.378C487.784 268.217 515.029 288.73 543.213 296.308L621.406 233.983C523.113 104.346 443.65 203.053 470.048 243.378H470.058Z" fill="#EE857B"/>
<path d="M502.609 228.511C491.914 212.169 498.593 186.246 516.877 169.81C476.066 174.838 454.366 219.416 470.058 243.378C487.784 268.217 515.029 288.73 543.213 296.308L565.884 278.231C541.303 268.96 518.25 250.429 502.599 228.501L502.609 228.511Z" fill="#FFBAB0"/>
<path d="M543.212 307.447C542.252 307.447 541.271 307.323 540.332 307.065C510.517 299.064 480.846 277.663 460.993 249.851C460.9 249.727 460.828 249.592 460.735 249.489C445.6 226.374 456.017 190.478 483.51 171.09C516.319 147.913 572.119 150.515 630.304 227.252C633.949 232.083 633.102 238.938 628.363 242.696L550.171 305.032C548.178 306.611 545.721 307.447 543.223 307.447H543.212ZM479.277 237.111C494.793 258.739 517.95 276.269 540.828 283.95L605.775 232.176C566.575 184.335 526.085 168.261 496.342 189.312C479.101 201.473 471.007 224.196 479.266 237.111H479.277Z" fill="#592832"/>
<path d="M1178.63 140.79C1120.52 103.129 1047.79 150.742 997.276 163.162C944.5 129.733 884.467 109.808 820.769 109.808C610.307 109.808 439.695 345.45 439.695 531.269C439.695 661.029 610.307 766.218 820.769 766.218C1031.23 766.218 1201.84 661.029 1201.84 531.269C1201.84 463.4 1182.97 394.085 1150.06 331.781C1246.24 285.272 1256.8 191.439 1178.63 140.8V140.79Z" fill="#EAAC71"/>
<path d="M1182.51 143.453C1197.7 189.673 1173.84 243.574 1110.46 278.097C1146.88 339.668 1169.41 409.024 1172.73 477.842C1179.08 609.42 1011.23 724.427 797.83 734.73C694.756 739.706 599.911 719.338 528.677 682.13C598.579 733.523 703.48 766.208 820.779 766.208C1031.24 766.208 1201.85 661.018 1201.85 531.258C1201.85 463.389 1182.98 394.075 1150.07 331.77C1244.59 286.056 1256.35 194.659 1182.52 143.453H1182.51Z" fill="#D6823C"/>
<path d="M1178.63 140.79C1120.52 103.129 1047.79 150.742 997.275 163.162C988.407 157.546 979.312 152.342 970.051 147.521L966.428 154.479C1006.73 188.806 1035.28 184.666 1080.02 164.081C1131.77 140.264 1219.34 156.555 1230.43 229.802C1231.93 196.869 1214.79 164.215 1178.65 140.79H1178.63Z" fill="#F5D7BB"/>
<path d="M471.462 531.258C471.462 350.085 633.67 121.577 836.853 110.273C831.516 109.994 826.168 109.798 820.769 109.798C610.307 109.798 439.695 345.44 439.695 531.258C439.695 661.019 610.307 766.208 820.769 766.208C826.086 766.208 831.382 766.126 836.647 765.991C633.556 760.861 471.451 657.736 471.451 531.258H471.462Z" fill="#F5D7BB"/>
<path d="M762.109 206.078C726.502 169.707 692.041 156.895 663.713 154.469C639.121 168.84 615.944 186.194 594.471 205.799C611.257 248.427 685.486 273.895 762.109 206.078Z" fill="#D6823C"/>
<path d="M820.769 777.358C604.485 777.358 428.546 666.965 428.546 531.259C428.546 336.52 609.533 98.6587 820.769 98.6587C881.742 98.6587 943.282 116.787 999.083 151.145C1010.03 148.1 1022.2 143.464 1035.01 138.602C1080.22 121.485 1136.43 100.145 1184.68 131.416C1223.21 156.39 1243.92 193.05 1241.49 231.97C1238.91 273.545 1211.22 311.185 1165.05 336.572C1196.44 399.454 1212.97 466.528 1212.97 531.259C1212.97 666.965 1037.03 777.358 820.749 777.358H820.769ZM820.769 120.948C621.55 120.948 450.835 346.555 450.835 531.259C450.835 654.659 616.791 755.069 820.769 755.069C1024.75 755.069 1190.7 654.659 1190.7 531.259C1190.7 466.693 1173.23 399.506 1140.2 336.974C1138.78 334.311 1138.52 331.172 1139.46 328.282C1140.4 325.411 1142.47 323.037 1145.21 321.726C1189.99 300.056 1216.98 266.844 1219.25 230.587C1221.16 199.915 1204.16 170.595 1172.57 150.144C1133.78 124.995 1085.5 143.34 1042.93 159.456C1027.68 165.247 1013.29 170.709 999.939 173.992C996.977 174.756 993.859 174.209 991.298 172.577C937.222 138.313 879.853 120.948 820.769 120.948Z" fill="#592832"/>
<path d="M1230.08 216.815C1238.48 248.963 1207.99 303.391 1151.16 331.265C1130.17 294.306 1105.12 259.081 1074.17 226.354C1074.17 226.354 1207.18 129.186 1230.08 216.815Z" fill="white"/>
<path d="M1230.08 216.815C1238.48 248.963 1207.99 303.391 1151.16 331.265C1130.17 294.306 1105.12 259.081 1074.17 226.354C1074.17 226.354 1207.18 129.186 1230.08 216.815Z" fill="#EE857B"/>
<path d="M1230.08 216.815C1223.26 190.747 1206.71 181.033 1186.8 180.258C1192.76 186.267 1197.3 194.722 1199.83 206.264C1206.06 234.748 1181.68 279.15 1136.5 306.891C1141.59 314.933 1146.5 323.047 1151.16 331.275C1207.99 303.401 1238.48 248.974 1230.08 216.825V216.815Z" fill="#FFBAB0"/>
<path d="M1151.16 342.404C1147.28 342.404 1143.5 340.37 1141.47 336.757C1119.46 297.991 1094.79 264.387 1066.06 234.004C1063.85 231.681 1062.76 228.522 1063.05 225.332C1063.34 222.142 1064.99 219.23 1067.58 217.351C1076.44 210.868 1155.63 154.489 1206.09 172.577C1223.62 178.823 1235.32 192.739 1240.86 213.986C1250.46 250.666 1218.66 310.545 1156.08 341.268C1154.5 342.032 1152.81 342.394 1151.16 342.394V342.404ZM1091.1 228.253C1115.05 254.879 1136.23 283.878 1155.43 316.378C1203.7 288.689 1225.3 242.572 1219.31 219.612C1215.68 205.768 1208.91 197.251 1198.62 193.576C1169.69 183.303 1118.14 210.62 1091.1 228.253Z" fill="#592832"/>
<path d="M948.578 137.301C936.066 131.974 920.332 126.079 901.656 120.638C739.789 81.779 679.704 -33.786 648.557 30.3353C617.41 94.4567 702.303 134.967 702.303 134.967C702.303 134.967 630.18 141.172 632.07 184.222C633.969 227.386 731.003 239.187 780.465 192.471C847.755 187.722 906.797 172.969 948.578 137.301Z" fill="#EAAC71"/>
<path d="M906.044 145.921C961.401 152.704 973.79 157.473 982.307 160.612C992.434 154.882 939.865 144.764 948.589 137.311C936.066 131.963 920.353 126.089 901.678 120.638C739.8 81.7787 679.705 -33.7863 648.578 30.3247C644.996 37.6443 642.983 44.6749 642.146 51.3544C674.254 1.13922 735.453 115.414 906.055 145.921H906.044Z" fill="#F5D7BB"/>
<path d="M698.628 135.401C689.719 136.588 666.397 140.656 649.858 152.053C677.826 164.008 726.379 169.212 752.075 145.291C730.88 144.434 713.051 141.151 698.628 135.391V135.401Z" fill="#D6823C"/>
<path d="M698.68 233.591C682.709 233.591 667.616 230.907 655.196 225.858C634.197 217.352 621.716 202.361 620.931 184.718C619.568 154.046 646.121 137.3 672.561 129.372C658.293 118.521 641.837 102.22 634.466 81.1698C628.075 62.9172 629.438 44.1691 638.513 25.4726C644.996 12.1136 653.245 4.22617 663.754 1.35615C684.113 -4.22905 705.855 10.1624 738.809 31.8941C777.151 57.2081 829.659 91.8859 904.238 109.798C957.86 125.407 987.84 144.403 989.1 145.198C994.272 148.522 995.779 155.398 992.455 160.591C989.172 165.784 982.328 167.302 977.062 163.988C976.794 163.802 948.279 145.838 898.519 131.344C820.625 112.647 766.239 76.7408 726.513 50.5183C701.684 34.1343 680.324 20.032 669.639 22.8607C668.183 23.2633 663.775 24.4609 658.572 35.1977C652.089 48.5154 651.097 61.1312 655.485 73.7263C666.377 105.007 706.702 124.705 707.094 124.902C711.626 127.08 714.135 132.015 713.247 136.949C712.338 141.884 708.261 145.621 703.243 146.055C702.624 146.107 641.796 152.373 643.189 183.727C643.695 195.434 656.166 202.196 663.538 205.19C692.868 217.073 742.99 212.489 772.785 184.336C777.265 180.103 784.327 180.31 788.559 184.79C792.792 189.271 792.586 196.332 788.105 200.565C763.875 223.432 729.631 233.57 698.659 233.57L698.68 233.591Z" fill="#592832"/>
<path d="M744.279 151.95C724.303 151.95 687.168 148.389 666.334 124.19C662.328 119.502 662.845 112.482 667.511 108.456C672.177 104.409 679.218 104.967 683.245 109.633C700.919 130.177 741.316 130.724 755.45 129.176C761.479 128.649 767.085 132.954 767.735 139.066C768.385 145.178 763.977 150.68 757.845 151.352C757.132 151.424 751.981 151.95 744.269 151.95H744.279Z" fill="#592832"/>
<path d="M787.815 1011.46C788.146 1011.88 788.476 1012.31 788.806 1012.72C788.476 1012.32 788.146 1011.88 787.815 1011.46Z" fill="#D5813C"/>
<path d="M784.429 1006.56C784.945 1007.38 785.471 1008.19 786.019 1008.97C785.482 1008.19 784.945 1007.41 784.429 1006.56Z" fill="#D5813C"/>
<path d="M871.81 975.317L871.345 993.157C871.231 997.431 868.774 1001.3 864.944 1003.21L625.565 1122.83C622.85 1124.19 619.712 1124.42 616.831 1123.5L295.987 1019.78C291.104 1018.2 287.841 1013.6 287.976 1008.46L288.915 972.416C289.039 967.833 291.847 963.755 296.08 962.01L537.183 862.622C539.702 861.58 542.52 861.466 545.122 862.292L863.778 963.972C868.681 965.541 871.964 970.156 871.83 975.307L871.81 975.317Z" fill="#923FDD"/>
<path d="M863.758 963.982L616.595 885.108V1123.42L616.832 1123.5C619.723 1124.42 622.861 1124.19 625.576 1122.83L864.955 1003.21C868.786 1001.3 871.243 997.431 871.356 993.157L871.821 975.318C871.955 970.166 868.672 965.551 863.768 963.982H863.758Z" fill="#923FDD"/>
<path d="M620.403 1135.26C618.029 1135.26 615.644 1134.88 613.363 1134.14L292.549 1030.43C283.02 1027.34 276.527 1018.19 276.774 1008.2L277.714 972.138C277.931 963.176 283.444 955.134 291.775 951.686L532.878 852.288C537.813 850.223 543.346 849.986 548.498 851.669L867.133 953.328C876.713 956.373 883.228 965.52 882.98 975.575V975.596L882.505 993.456C882.288 1001.86 877.477 1009.43 869.951 1013.2L630.531 1132.84C627.32 1134.44 623.852 1135.25 620.383 1135.25L620.403 1135.26ZM541.694 872.967L300.333 972.365L299.136 1008.77L620.249 1112.88L859.937 993.24L860.629 975.059C860.629 974.873 860.515 974.719 860.36 974.657L541.694 872.977V872.967Z" fill="#592832"/>
<path d="M537.162 862.633L296.07 962.02C293.561 963.053 291.651 964.952 290.412 967.244C291.744 970.073 294.077 972.375 297.195 973.387L618.039 1077.1C620.93 1078.03 624.068 1077.79 626.783 1076.44L856.468 961.659L545.112 862.302C542.51 861.476 539.702 861.59 537.173 862.633H537.162Z" fill="#923FDD"/>
<path d="M547.816 888.215L367.985 962.351C366.096 963.125 364.661 964.56 363.722 966.274C364.723 968.401 366.478 970.135 368.822 970.889L608.407 1048.34C611.731 1049.41 615.334 1049.14 618.452 1047.57L779.442 967.12C783.138 965.272 782.715 959.873 778.781 958.614L556.932 887.823C553.938 886.873 550.707 886.997 547.806 888.195L547.816 888.215Z" fill="#B683ED"/>
<path d="M767.394 937.722L551.377 1043.88L552.948 1047.07L768.965 940.919L767.394 937.722Z" fill="#923FDD"/>
<path d="M723.873 921.05L507.856 1027.2L509.427 1030.4L725.444 924.246L723.873 921.05Z" fill="#923FDD"/>
<path d="M680.139 903.625L464.122 1009.78L465.693 1012.97L681.71 906.822L680.139 903.625Z" fill="#923FDD"/>
<path d="M636.044 892.255L420.027 998.408L421.598 1001.6L637.615 895.452L636.044 892.255Z" fill="#923FDD"/>
<path d="M603.617 879.459L363.007 986.385L364.449 989.63L605.06 882.705L603.617 879.459Z" fill="#923FDD"/>
<path d="M796.084 989.389L507.997 892.892L509.122 889.526L797.199 986.013L796.084 989.389Z" fill="#923FDD"/>
<path d="M760.065 1006.28L471.988 909.792L473.114 906.416L761.19 1002.9L760.065 1006.28Z" fill="#923FDD"/>
<path d="M731.489 1022.5L443.412 926.011L444.527 922.635L732.614 1019.13L731.489 1022.5Z" fill="#923FDD"/>
<path d="M685.258 1037.82L397.182 941.331L398.307 937.956L686.383 1034.44L685.258 1037.82Z" fill="#923FDD"/>
<path d="M621.601 1088.84C619.258 1088.84 616.904 1088.48 614.612 1087.75L293.726 984.01C287.79 982.1 283.02 977.826 280.274 971.983C278.767 968.772 278.881 965.056 280.563 961.928C283.124 957.189 287.005 953.648 291.816 951.676L532.888 852.299C537.844 850.234 543.357 849.997 548.508 851.679L859.824 951.015C864.16 952.399 867.226 956.281 867.577 960.792C867.938 965.324 865.512 969.629 861.424 971.663L631.749 1086.42C628.559 1088.02 625.07 1088.84 621.591 1088.84H621.601ZM313.806 966.801L621.477 1066.47L826.829 963.951L541.695 872.957C541.695 872.957 541.436 872.957 541.426 872.977L313.806 966.801Z" fill="#592832"/>
<path d="M941.372 886.594C939.895 901.047 927.538 936.355 890.795 949.156C854.053 961.958 851.596 969.215 814.492 1008.09C777.388 1046.97 709.529 1023.87 715.321 959.211C731.602 863.83 799.037 866.369 839.661 825.993C879.129 847.074 913.002 867.267 941.382 886.594H941.372Z" fill="#E9AB71"/>
<path d="M933.64 889.691C926.062 906.818 904.362 920.435 881.949 923.016C859.536 925.597 834.407 938.089 819.138 958.737C807.565 974.377 781.921 1020.2 752.281 1023.82C772.537 1030.99 796.953 1026.48 814.493 1008.1C851.597 969.215 854.054 961.958 890.796 949.156C914.758 940.804 928.344 922.892 935.302 907.427C934.962 901.718 934.425 895.803 933.64 889.691Z" fill="#D5813C"/>
<path d="M741.007 972.663C754.304 894.729 801.752 882.165 840.828 858.151C852.959 850.698 852.473 832.848 839.909 826.137L839.651 825.993C799.027 866.359 731.591 863.83 715.311 959.211C711.966 996.573 733.212 1020.02 758.908 1025.7C746.561 1014.15 738.901 996.171 741.007 972.663Z" fill="#F4D6BA"/>
<path d="M774.704 908.17C762.966 903.421 750.96 900.541 739.066 899.385C728.319 913.787 719.844 932.71 715.322 959.211C709.54 1023.88 777.389 1046.97 814.492 1008.09C827.614 994.343 836.4 984.556 843.905 977.072C832.239 947.287 807.937 921.622 774.694 908.17H774.704Z" fill="#AD6745"/>
<path d="M820.046 1002.25C820.965 1001.27 821.863 1000.32 822.741 999.392C823.164 998.938 823.608 998.463 824.031 998.019C824.279 997.761 824.506 997.513 824.754 997.255C832.528 988.954 838.557 982.43 843.915 977.092C839.992 967.068 834.603 957.539 827.954 948.753C824.775 951.84 821.801 955.165 819.148 958.757C807.575 974.398 781.931 1020.23 752.291 1023.84C753.396 1024.23 754.521 1024.57 755.646 1024.89C755.842 1024.94 756.039 1025.02 756.235 1025.07C757.267 1025.35 758.31 1025.58 759.353 1025.8C759.662 1025.86 759.962 1025.94 760.271 1026.01C761.252 1026.2 762.233 1026.35 763.224 1026.49C763.606 1026.54 763.998 1026.61 764.38 1026.66C765.32 1026.77 766.259 1026.84 767.199 1026.92C767.653 1026.95 768.097 1026.99 768.551 1027.01C769.449 1027.05 770.347 1027.06 771.246 1027.06C771.751 1027.06 772.257 1027.06 772.753 1027.05C773.62 1027.03 774.477 1026.98 775.344 1026.92C775.891 1026.87 776.439 1026.83 776.986 1026.78C777.812 1026.7 778.637 1026.6 779.474 1026.47C780.062 1026.39 780.651 1026.3 781.229 1026.19C782.024 1026.06 782.808 1025.9 783.603 1025.73C784.223 1025.59 784.842 1025.44 785.451 1025.28C786.205 1025.09 786.969 1024.89 787.722 1024.66C788.373 1024.47 789.013 1024.26 789.653 1024.05C790.376 1023.81 791.088 1023.56 791.8 1023.29C792.471 1023.03 793.132 1022.75 793.803 1022.48C794.485 1022.19 795.156 1021.91 795.827 1021.6C796.518 1021.28 797.2 1020.92 797.881 1020.57C798.521 1020.24 799.151 1019.93 799.781 1019.58C800.493 1019.17 801.185 1018.74 801.887 1018.31C802.475 1017.94 803.064 1017.6 803.642 1017.21C804.385 1016.72 805.108 1016.18 805.83 1015.65C806.347 1015.27 806.873 1014.92 807.389 1014.52C808.195 1013.89 808.979 1013.22 809.764 1012.53C810.177 1012.18 810.6 1011.85 811.013 1011.48C812.2 1010.42 813.357 1009.29 814.482 1008.11C815.948 1006.57 817.342 1005.1 818.704 1003.66C819.148 1003.18 819.592 1002.72 820.036 1002.25H820.046Z" fill="#914921"/>
<path d="M715.022 967.646C715.033 969.05 715.064 970.444 715.157 971.796C715.208 972.55 715.281 973.293 715.353 974.026C715.466 975.265 715.601 976.483 715.776 977.681C715.879 978.414 716.003 979.137 716.137 979.859C716.354 981.046 716.592 982.203 716.86 983.349C717.015 984.009 717.17 984.67 717.345 985.31C717.676 986.528 718.037 987.705 718.429 988.872C718.605 989.388 718.76 989.915 718.946 990.421C719.493 991.928 720.091 993.383 720.742 994.798C720.804 994.932 720.855 995.066 720.917 995.2C721.671 996.821 722.487 998.38 723.364 999.877C723.416 999.96 723.467 1000.03 723.519 1000.11C724.335 1001.49 725.202 1002.82 726.11 1004.09C726.296 1004.35 726.492 1004.6 726.678 1004.84C727.483 1005.94 728.32 1006.99 729.197 1008C729.424 1008.26 729.651 1008.52 729.878 1008.77C730.777 1009.77 731.695 1010.73 732.656 1011.65C732.862 1011.84 733.058 1012.04 733.265 1012.23C734.338 1013.24 735.443 1014.19 736.579 1015.08C736.672 1015.16 736.775 1015.24 736.868 1015.32C743.392 1020.41 750.949 1023.9 758.94 1025.67C746.593 1014.12 738.932 996.14 741.039 972.633C746.262 942.012 756.772 921.509 769.956 906.415C759.745 902.74 749.38 900.366 739.087 899.364C737.807 901.078 736.568 902.864 735.36 904.712C735.123 905.073 734.896 905.455 734.669 905.817C733.709 907.324 732.759 908.873 731.84 910.473C731.52 911.041 731.21 911.619 730.89 912.197C730.085 913.652 729.3 915.149 728.547 916.688C728.196 917.4 727.855 918.123 727.514 918.845C726.823 920.322 726.152 921.839 725.491 923.388C725.14 924.214 724.789 925.05 724.448 925.907C723.839 927.435 723.251 929.025 722.683 930.625C722.352 931.554 722.022 932.473 721.702 933.423C721.155 935.074 720.639 936.778 720.133 938.502C719.844 939.483 719.544 940.443 719.266 941.444C718.749 943.334 718.274 945.295 717.81 947.277C717.593 948.196 717.356 949.084 717.149 950.023C716.499 952.976 715.9 956.011 715.353 959.181C715.157 961.38 715.064 963.517 715.033 965.612C715.033 966.294 715.053 966.944 715.064 967.615L715.022 967.646Z" fill="#C08A71"/>
<path d="M770.957 1038.19C761.541 1038.19 752.105 1036.25 743.268 1032.22C716.178 1019.96 701.219 991.587 704.192 958.22C716.385 886.573 755.77 864.975 790.52 845.907C805.748 837.545 820.16 829.647 831.774 818.085C836.131 813.728 843.203 813.728 847.56 818.126C851.916 822.503 851.896 829.575 847.518 833.911C833.653 847.704 817.177 856.737 801.257 865.471C767.994 883.724 736.578 900.964 726.306 961.09C724.272 984.206 734.018 1003.54 752.477 1011.9C770.699 1020.18 791.852 1015.66 806.409 1000.4L820.821 985.104C845.082 959.17 853.248 950.426 887.11 938.626C919.197 927.445 929.118 896.474 930.243 885.489C930.863 879.336 936.303 874.979 942.477 875.506C948.609 876.125 953.08 881.607 952.46 887.74C950.571 906.302 936.014 945.212 894.44 959.707C865.781 969.69 860.846 974.966 837.132 1000.34L822.555 1015.82C808.639 1030.39 789.818 1038.19 770.946 1038.19H770.957Z" fill="#592832"/>
<path d="M754.047 1025.14C753.19 1025.14 752.343 1025.03 751.466 1024.78C746.51 1023.36 743.661 1018.19 745.075 1013.24C754.253 981.263 777.12 969.587 778.101 969.122C782.654 966.799 788.301 968.709 790.583 973.334C792.864 977.929 790.996 983.493 786.422 985.806C785.514 986.281 769.749 994.839 762.997 1018.4C761.821 1022.49 758.094 1025.15 754.036 1025.15L754.047 1025.14Z" fill="#592832"/>
<path d="M722.755 1001.07C721.898 1001.07 721.051 1000.96 720.174 1000.71C715.218 999.299 712.369 994.126 713.783 989.171C722.961 957.177 745.828 945.511 746.809 945.037C751.362 942.734 757.009 944.624 759.291 949.249C761.572 953.843 759.704 959.407 755.13 961.72C754.242 962.195 738.468 970.743 731.705 994.333C730.529 998.421 726.802 1001.08 722.744 1001.08L722.755 1001.07Z" fill="#592832"/>
<path d="M288.906 972.427L185.017 700.135C182.116 692.516 183.933 683.906 189.683 678.125L204.209 663.517C209.175 658.52 216.339 656.383 223.225 657.849L539.837 725.098C546.95 726.606 552.752 731.737 555.126 738.602L665.313 1057.19L626.784 1076.44L288.916 972.427H288.906Z" fill="#AA69F2"/>
<path d="M665.301 1057.18L555.115 738.592C553.577 734.132 550.5 730.539 546.649 728.062L514.057 788.962L455.965 899.386L509.835 1040.43L626.773 1076.43L665.301 1057.18Z" fill="#AA69F2"/>
<path d="M628.074 1067.08L629.447 1066.39L526.91 769.914C524.526 763.007 518.693 757.856 511.538 756.338L193.254 688.727C190.167 688.066 187.039 688.242 184.056 688.954L288.419 962.505L628.074 1067.06V1067.08Z" fill="#923FDD"/>
<path d="M626.773 1087.59C625.669 1087.59 624.564 1087.42 623.49 1087.1L285.622 983.101C282.339 982.089 279.706 979.612 278.468 976.401L174.579 704.099C170.119 692.433 172.948 679.147 181.764 670.258L196.259 655.65C203.991 647.896 214.955 644.686 225.548 646.916L542.149 714.165C552.999 716.467 562.002 724.417 565.646 734.947L675.832 1053.52C677.67 1058.82 675.285 1064.65 670.278 1067.15L631.749 1086.4C630.19 1087.19 628.487 1087.58 626.763 1087.58L626.773 1087.59ZM297.402 963.352L625.782 1064.45L651.551 1051.57L544.575 742.246C543.491 739.087 540.786 736.712 537.534 736.021L220.902 668.771C217.712 668.059 214.439 669.06 212.116 671.383L197.622 685.991C194.968 688.655 194.122 692.65 195.464 696.15L297.412 963.352H297.402Z" fill="#592832"/>
<path d="M434.1 890.05C442.042 875.561 433.099 855.383 414.125 844.982C395.151 834.581 373.331 837.895 365.388 852.385C357.446 866.874 366.388 887.052 385.363 897.453C404.337 907.854 426.157 904.539 434.1 890.05Z" fill="#C99FF6"/>
<path d="M626.774 1134.03C620.6 1134.03 615.593 1129.02 615.593 1122.84V1076.43C615.593 1070.26 620.6 1065.25 626.774 1065.25C632.947 1065.25 637.954 1070.26 637.954 1076.43V1122.84C637.954 1129.02 632.947 1134.03 626.774 1134.03Z" fill="#592832"/>
<path d="M822.173 1382.3C816.423 1382.3 811.777 1377.66 811.777 1371.91V1288.47C811.777 1282.72 816.423 1278.07 822.173 1278.07C827.924 1278.07 832.57 1282.72 832.57 1288.47V1371.91C832.57 1377.66 827.924 1382.3 822.173 1382.3Z" fill="#592832"/>
<path d="M858.905 1349.02C853.155 1349.02 848.509 1344.37 848.509 1338.62V1196.35C848.509 1190.6 853.155 1185.95 858.905 1185.95C864.655 1185.95 869.301 1190.6 869.301 1196.35V1338.62C869.301 1344.37 864.655 1349.02 858.905 1349.02Z" fill="#592832"/>
<path d="M556.924 526.933C581.778 526.933 601.926 502.805 601.926 473.042C601.926 443.279 581.778 419.152 556.924 419.152C532.071 419.152 511.923 443.279 511.923 473.042C511.923 502.805 532.071 526.933 556.924 526.933Z" fill="#592832"/>
<path d="M571.418 475.21C577.947 475.21 583.239 469.442 583.239 462.326C583.239 455.21 577.947 449.442 571.418 449.442C564.89 449.442 559.598 455.21 559.598 462.326C559.598 469.442 564.89 475.21 571.418 475.21Z" fill="white"/>
<path d="M905.994 555.829C941.361 555.829 970.033 527.158 970.033 491.79C970.033 456.423 941.361 427.751 905.994 427.751C870.626 427.751 841.955 456.423 841.955 491.79C841.955 527.158 870.626 555.829 905.994 555.829Z" fill="#592832"/>
<path d="M880.876 493.835C889.582 493.835 896.64 486.777 896.64 478.07C896.64 469.364 889.582 462.306 880.876 462.306C872.169 462.306 865.111 469.364 865.111 478.07C865.111 486.777 872.169 493.835 880.876 493.835Z" fill="white"/>
<path d="M740.388 587.72C768.264 587.72 790.862 567.6 790.862 542.78C790.862 517.961 768.264 497.84 740.388 497.84C712.513 497.84 689.915 517.961 689.915 542.78C689.915 567.6 712.513 587.72 740.388 587.72Z" fill="#FFE5C0"/>
<path d="M661.453 580.451C682.355 580.451 699.3 562.61 699.3 540.601C699.3 518.593 682.355 500.751 661.453 500.751C640.55 500.751 623.605 518.593 623.605 540.601C623.605 562.61 640.55 580.451 661.453 580.451Z" fill="#FFE5C0"/>
<path d="M692.847 560.083C662.227 561.26 643.107 508.268 660.802 501.237C678.497 494.206 725.027 496.467 727.37 511.963C729.714 527.47 718.223 559.102 692.858 560.073L692.847 560.083Z" fill="#DBAB7A"/>
<path d="M692.269 544.907C661.648 546.084 643.024 506.048 660.771 500.555C678.517 495.053 725.016 496.333 727.215 508.082C729.414 519.83 717.634 543.936 692.269 544.907Z" fill="#592832"/>
<path d="M788.333 544.886C785.463 568.9 765.032 587.514 740.245 587.514C713.495 587.514 691.815 565.834 691.815 539.084" stroke="#592832" stroke-width="21.3187" stroke-linecap="round" stroke-linejoin="round"/>
<path d="M695.232 559.99C688.779 572.73 674.997 580.886 659.924 579.471C640.237 577.623 625.773 560.155 627.621 540.468" stroke="#592832" stroke-width="21.3187" stroke-linecap="round" stroke-linejoin="round"/>
<path d="M659.924 579.471C659.924 579.471 660.45 581.102 661.349 583.817C665.571 596.536 678.063 632.948 683.483 635.116C690.049 637.739 730.322 639.494 734.71 635.116C739.087 630.739 745.302 587.245 745.302 587.245C745.302 587.245 716.23 592.861 696.026 562.137C696.026 562.137 676.679 585.479 659.934 579.471H659.924Z" fill="white"/>
<path d="M745.292 587.245C745.292 587.245 716.22 592.861 696.016 562.137C696.016 562.137 676.669 585.479 659.924 579.471C659.924 579.471 660.45 581.102 661.349 583.817C662.825 588.277 665.334 595.659 668.183 603.453C677.609 602.452 689.677 599.365 697.936 590.652C706.959 604.661 727.194 608.853 741.74 608.976C743.784 597.765 745.292 587.255 745.292 587.255V587.245Z" fill="#C6AEA7"/>
<path d="M659.924 579.471C659.924 579.471 660.45 581.102 661.349 583.817C665.571 596.536 678.063 632.948 683.483 635.116C690.049 637.739 730.322 639.494 734.71 635.116C739.087 630.739 745.302 587.245 745.302 587.245C745.302 587.245 716.23 592.861 696.026 562.137C696.026 562.137 676.679 585.479 659.934 579.471H659.924Z" stroke="#592832" stroke-width="21.3187" stroke-linecap="round" stroke-linejoin="round"/>
<path d="M705.132 633.155C705.132 633.155 696.037 589.361 696.006 562.137" stroke="#592832" stroke-width="9.07466" stroke-linecap="round" stroke-linejoin="round"/>
</g>
<defs>
<clipPath id="clip0_971_2819">
<rect width="1539.14" height="1520.76" fill="white" transform="translate(0.860352 0.148438)"/>
</clipPath>
</defs>
</svg>
