<svg id="Layer_1" data-name="Layer 1" xmlns="http://www.w3.org/2000/svg" width="100" height="100" viewBox="0 0 100 100"><defs><style>.cls-1{fill:#9d5025;}.cls-2{fill:#f58536;}.cls-3{fill:#fff;}.cls-4{fill:#fbbf93;}</style></defs><title>NetworkingContentDelivery</title><g id="network_access_control_list" data-name="network access control list"><path class="cls-1" d="M19.57,52.24c0-16.81,13.62-29.43,30.43-29.43S80.43,35.43,80.43,52.24"/><path class="cls-1" d="M80.43,52.24C80.43,69,66.81,83.67,50,83.67S19.57,69,19.57,52.24"/><path class="cls-2" d="M50,20.33C33.19,20.33,19.57,33,19.57,49.76S33.19,81.19,50,81.19,80.43,66.57,80.43,49.76,66.81,20.33,50,20.33Z"/><path class="cls-3" d="M55,50.67V46.8a5,5,0,0,0-9.93,0v3.88H42.5v8.59h15V50.67Zm-2.43,0H47.46l0-3.88A2.37,2.37,0,0,1,50,44.43a2.48,2.48,0,0,1,2.56,2.37Z"/><rect class="cls-4" x="33.5" y="33.26" width="5" height="35"/><rect class="cls-4" x="61.5" y="33.26" width="5" height="35"/><polyline class="cls-3" points="26.5 52.67 26.5 55.26 31.5 51.26 26.5 47.26 26.5 49.86"/><polyline class="cls-3" points="73.5 49.86 73.5 47.26 68.5 51.26 73.5 55.26 73.5 52.67"/></g></svg>