<svg height="512pt" viewBox="0 0 512.002 512" width="512pt" xmlns="http://www.w3.org/2000/svg"><path d="m502.007812 333.820312h-16.546874c-2.507813-8.726562-5.972657-17.109374-10.359376-25.058593l11.6875-11.683594c1.871094-1.875 2.925782-4.417969 2.925782-7.066406 0-2.652344-1.054688-5.195313-2.925782-7.066407l-33.875-33.875c-3.902343-3.902343-10.226562-3.902343-14.132812 0l-11.648438 11.648438c-7.960937-4.410156-16.355468-7.894531-25.09375-10.417969v-16.449219c0-5.519531-4.476562-9.992187-9.992187-9.992187h-47.90625c-5.519531 0-9.992187 4.472656-9.992187 9.992187v16.410157c-8.757813 2.515625-17.167969 5.996093-25.144532 10.40625l-11.597656-11.597657c-1.875-1.875-4.414062-2.925781-7.066406-2.925781-.859375 0-1.707032.121094-2.527344.335938v-46.820313c0-5.519531-4.472656-9.996094-9.992188-9.996094h-16.546874c-2.507813-8.722656-5.972657-17.105468-10.359376-25.054687l11.6875-11.6875c3.902344-3.902344 3.902344-10.230469 0-14.132813l-33.875-33.871093c-3.902343-3.902344-10.226562-3.902344-14.132812 0l-11.648438 11.648437c-7.960937-4.410156-16.355468-7.898437-25.09375-10.417968v-16.453126c0-5.519531-4.476562-9.992187-9.992187-9.992187h-47.90625c-5.515625 0-9.992187 4.472656-9.992187 9.992187v16.410157c-8.757813 2.515625-17.167969 6-25.144532 10.410156l-11.597656-11.597656c-1.875-1.875-4.414062-2.929688-7.066406-2.929688-2.648438 0-5.191406 1.054688-7.066406 2.929688l-33.875 33.871093c-3.902344 3.902344-3.902344 10.230469 0 14.132813l11.597656 11.597656c-4.40625 7.976563-7.890625 16.390625-10.40625 25.144531h-16.410156c-5.515626 0-9.992188 4.476563-9.992188 9.996094v47.902344c0 5.519531 4.476562 9.992188 9.992188 9.992188h16.449218c2.523438 8.738281 6.007813 17.136718 10.417969 25.09375l-11.648437 11.648437c-1.871094 1.875-2.925782 4.417969-2.925782 7.066406 0 2.652344 1.054688 5.191407 2.925782 7.066407l33.875 33.875c3.902343 3.902343 10.230468 3.902343 14.132812 0l11.6875-11.6875c7.949219 4.386718 16.332031 7.851562 25.054688 10.359374v16.546876c0 5.519531 4.476562 9.992187 9.992187 9.992187h47.90625c5.519531 0 9.992187-4.472656 9.992187-9.992187v-16.585938c8.707032-2.515625 17.074219-5.984375 25.007813-10.371094l11.734375 11.738282c1.875 1.871093 4.417969 2.925781 7.066406 2.925781.863282 0 1.707032-.121094 2.527344-.335938v46.820313c0 5.519531 4.476562 9.996094 9.992188 9.996094h16.449218c2.523438 8.738281 6.007813 17.132812 10.417969 25.09375l-11.648437 11.648437c-1.871094 1.871094-2.925782 4.414063-2.925782 7.066406 0 2.648438 1.054688 5.191407 2.925782 7.066407l33.875 33.871093c3.902343 3.902344 10.230468 3.902344 14.132812 0l11.6875-11.6875c7.949219 4.386719 16.332031 7.851563 25.054688 10.359375v16.546875c0 5.519531 4.476562 9.992188 9.992187 9.992188h47.90625c5.519531 0 9.992187-4.472657 9.992187-9.992188v-16.585937c8.707032-2.511719 17.074219-5.980469 25.007813-10.367188l11.734375 11.734375c3.902344 3.902344 10.230469 3.90625 14.132812 0l33.875-33.871093c1.875-1.875 2.925782-4.417969 2.925782-7.066407 0-2.652343-1.050782-5.195312-2.925782-7.066406l-11.734374-11.738281c4.386718-7.933594 7.851562-16.300782 10.367187-25.003906h16.585937c5.519532 0 9.996094-4.476563 9.996094-9.996094v-47.902344c-.003906-5.519531-4.480468-9.992188-9.996094-9.992188zm-242.570312-22.226562c-3.679688 7.101562-6.636719 14.53125-8.847656 22.226562h-13.378906zm-7.332031-31.359375c3.800781-7.238281 6.855469-14.820313 9.125-22.679687h13.558593zm-40.613281 30.699219c-3.328126-3.324219-8.515626-3.882813-12.472657-1.339844-10.222656 6.570312-21.425781 11.214844-33.292969 13.804688-4.589843 1-7.863281 5.066406-7.863281 9.761718v14.367188h-27.914062v-14.335938c0-4.703125-3.28125-8.769531-7.878907-9.765625-11.882812-2.578125-23.101562-7.214843-33.339843-13.78125-3.953125-2.539062-9.140625-1.980469-12.464844 1.34375l-10.113281 10.117188-19.742188-19.742188 10.089844-10.085937c3.324219-3.324219 3.882812-8.523438 1.335938-12.476563-6.601563-10.246093-11.261719-21.472656-13.855469-33.367187-1.003907-4.589844-5.066407-7.863282-9.765625-7.863282h-14.226563v-27.917968h14.199219c4.703125 0 8.769531-3.28125 9.765625-7.875 2.582031-11.910156 7.234375-23.15625 13.832031-33.417969 2.539063-3.957031 1.980469-9.144531-1.34375-12.46875l-10.03125-10.035156 19.742188-19.738281 10.03125 10.03125c3.324218 3.324218 8.515625 3.878906 12.472656 1.339843 10.261719-6.597656 21.503906-11.25 33.414062-13.832031 4.597657-.996094 7.878907-5.0625 7.878907-9.769531v-14.195313h27.914062v14.226563c0 4.699219 3.273438 8.765625 7.863281 9.765625 11.894532 2.59375 23.121094 7.253906 33.371094 13.855468 3.953125 2.542969 9.148438 1.988282 12.476563-1.335937l10.085937-10.085937 19.742188 19.738281-10.117188 10.117187c-3.320312 3.320313-3.882812 8.507813-1.347656 12.460938 6.570312 10.242187 11.207031 21.457031 13.785156 33.339844.996094 4.597656 5.0625 7.878906 9.765625 7.878906h14.335938v27.914062h-14.367188c-4.695312 0-8.761719 3.273438-9.761719 7.867188-2.589843 11.867187-7.234374 23.066406-13.804687 33.289062-2.542969 3.953125-1.984375 9.148438 1.339844 12.472656l10.171875 10.167969-19.742188 19.742188zm280.519531 70.789062h-14.367188c-4.695312 0-8.761719 3.273438-9.761719 7.863282-2.589843 11.867187-7.234374 23.066406-13.804687 33.292968-2.542969 3.953125-1.984375 9.144532 1.339844 12.46875l10.171875 10.171875-19.742188 19.738281-10.171875-10.167968c-3.324219-3.324219-8.511719-3.882813-12.46875-1.339844-10.226562 6.570312-21.425781 11.214844-33.292969 13.800781-4.589843 1.003907-7.863281 5.066407-7.863281 9.765625v14.367188h-27.917969v-14.335938c0-4.703125-3.277343-8.769531-7.875-9.765625-11.882812-2.578125-23.101562-7.214843-33.339843-13.785156-3.953125-2.535156-9.140625-1.976563-12.464844 1.347656l-10.113281 10.113281-19.742188-19.738281 10.085938-10.085937c3.328125-3.328125 3.882812-8.523438 1.335937-12.480469-6.597656-10.246094-11.257812-21.472656-13.851562-33.367187-1.003907-4.589844-5.066407-7.863282-9.765625-7.863282h-14.230469v-27.917968h14.199219c4.703125 0 8.769531-3.277344 9.765625-7.875 2.582031-11.910157 7.238281-23.15625 13.832031-33.417969 2.542969-3.953125 1.984375-9.148438-1.339844-12.46875l-10.03125-10.035157 19.742188-19.738281 10.03125 10.03125c3.324218 3.324219 8.515625 3.882813 12.46875 1.339844 10.261718-6.59375 21.507812-11.25 33.417968-13.832031 4.597657-.996094 7.875-5.0625 7.875-9.765625v-14.199219h27.917969v14.230469c0 4.699219 3.273438 8.761719 7.863281 9.761719 11.894532 2.597656 23.121094 7.257812 33.367188 13.855468 3.953125 2.546875 9.152344 1.992188 12.476562-1.335937l10.089844-10.085938 19.738282 19.742188-10.113282 10.113281c-3.320312 3.320312-3.882812 8.507812-1.347656 12.460938 6.570312 10.242187 11.207031 21.460937 13.785156 33.34375.996094 4.597656 5.0625 7.875 9.765625 7.875h14.335938zm0 0"/><path d="m325.695312 335.359375c2.558594 0 5.113282-.976563 7.066407-2.929687l.121093-.121094c3.921876-3.882813 3.949219-10.210938.066407-14.132813-3.886719-3.921875-10.214844-3.949219-14.132813-.066406l-.191406.1875c-3.902344 3.902344-3.902344 10.230469 0 14.136719 1.953125 1.949218 4.511719 2.925781 7.070312 2.925781zm0 0"/><path d="m351.058594 299.90625c-5.355469 1.339844-8.609375 6.765625-7.269532 12.121094 1.339844 5.355468 6.769532 8.605468 12.117188 7.269531 17.222656-4.3125 34.988281.601563 47.519531 13.132813 19.484375 19.484374 19.484375 51.183593 0 70.664062-9.4375 9.441406-21.984375 14.636719-35.332031 14.636719-13.34375 0-25.894531-5.195313-35.332031-14.636719-11.753907-11.753906-16.882813-28.535156-13.71875-44.882812 1.050781-5.417969-2.492188-10.664063-7.914063-11.710938-5.417968-1.046875-10.660156 2.492188-11.707031 7.910156-4.433594 22.878906 2.75 46.359375 19.207031 62.816406 13.214844 13.214844 30.78125 20.492188 49.464844 20.492188 18.6875 0 36.253906-7.277344 49.464844-20.492188 27.277344-27.273437 27.277344-71.65625 0-98.929687-17.28125-17.28125-42.761719-24.328125-66.5-18.390625zm0 0"/><path d="m398.074219 367.761719c0-16.53125-13.449219-29.980469-29.980469-29.980469s-29.980469 13.449219-29.980469 29.980469 13.449219 29.980469 29.980469 29.980469 29.980469-13.449219 29.980469-29.980469zm-39.972657 0c0-5.507813 4.480469-9.992188 9.992188-9.992188s9.992188 4.484375 9.992188 9.992188c0 5.511719-4.480469 9.996093-9.992188 9.996093s-9.992188-4.484374-9.992188-9.996093zm0 0"/><path d="m179.445312 188.484375c1.941407 1.925781 4.472657 2.886719 7.003907 2.886719 2.574219 0 5.148437-.992188 7.105469-2.96875 3.886718-3.917969 3.839843-10.269532-.078126-14.15625l-.132812-.128906c-3.921875-3.886719-10.226562-3.839844-14.109375.078124-3.890625 3.917969-3.839844 10.269532.078125 14.15625zm0 0"/><path d="m202.261719 206.546875c-5.480469.652344-9.394531 5.625-8.742188 11.105469 1.828125 15.335937-3.375 30.386718-14.28125 41.289062-19.480469 19.480469-51.179687 19.484375-70.664062 0-9.4375-9.4375-14.636719-21.984375-14.636719-35.332031s5.199219-25.894531 14.636719-35.332031c11.296875-11.296875 27.46875-16.53125 43.277343-14.003906 5.449219.871093 10.574219-2.839844 11.445313-8.289063s-2.839844-10.574219-8.289063-11.449219c-22.105468-3.535156-44.75 3.792969-60.566406 19.609375-13.214844 13.210938-20.488281 30.78125-20.488281 49.464844 0 18.6875 7.273437 36.253906 20.488281 49.464844 13.636719 13.640625 31.546875 20.457031 49.464844 20.457031 17.910156-.003906 35.828125-6.820312 49.464844-20.457031 15.265625-15.265625 22.554687-36.328125 19.996094-57.789063-.65625-5.480468-5.644532-9.386718-11.105469-8.738281zm0 0"/><path d="m113.925781 223.609375c0 16.53125 13.449219 29.980469 29.980469 29.980469s29.980469-13.449219 29.980469-29.980469-13.449219-29.980469-29.980469-29.980469-29.980469 13.449219-29.980469 29.980469zm39.972657 0c0 5.511719-4.480469 9.992187-9.992188 9.992187s-9.992188-4.480468-9.992188-9.992187 4.480469-9.992187 9.992188-9.992187 9.992188 4.480468 9.992188 9.992187zm0 0"/><path d="m502.007812 76.679688h-19.707031c-2.921875-6.945313-6.6875-13.457032-11.261719-19.46875l9.863282-17.082032c2.761718-4.78125 1.121094-10.894531-3.65625-13.652344l-43.535156-25.132812c-2.296876-1.328125-5.023438-1.6875-7.582032-1-2.5625.6875-4.742187 2.359375-6.070312 4.65625l-9.859375 17.082031c-7.449219-.925781-15.039063-.925781-22.484375 0l-9.859375-17.082031c-2.761719-4.78125-8.875-6.417969-13.652344-3.660156l-43.535156 25.136718c-2.292969 1.324219-3.96875 3.507813-4.65625 6.066407-.683594 2.5625-.324219 5.289062 1 7.582031l9.863281 17.082031c-4.570312 6.015625-8.335938 12.527344-11.257812 19.46875h-19.710938c-5.515625 0-9.992188 4.476563-9.992188 9.996094v50.265625c0 5.519531 4.476563 9.996094 9.992188 9.996094h19.710938c2.921874 6.941406 6.6875 13.453125 11.257812 19.46875l-9.863281 17.082031c-1.324219 2.292969-1.683594 5.023437-1 7.582031.6875 2.558594 2.363281 4.742188 4.65625 6.066406l43.535156 25.136719c1.574219.90625 3.292969 1.339844 4.988281 1.339844 3.453125 0 6.8125-1.792969 8.664063-5l9.859375-17.078125c7.445312.921875 15.039062.921875 22.484375 0l9.863281 17.078125c1.324219 2.296875 3.507812 3.972656 6.066406 4.65625 2.558594.6875 5.289063.328125 7.582032-.996094l43.535156-25.136719c4.78125-2.757812 6.417968-8.871093 3.65625-13.648437l-9.859375-17.082031c4.570312-6.015625 8.335937-12.527344 11.257812-19.46875h19.707031c5.519532 0 9.992188-4.476563 9.992188-9.996094v-50.265625c0-5.519531-4.476562-9.992187-9.992188-9.992187zm-9.996093 50.265624h-16.636719c-4.316406 0-8.144531 2.773438-9.492188 6.875-3.039062 9.242188-7.886718 17.625-14.410156 24.917969-2.878906 3.21875-3.363281 7.917969-1.203125 11.660157l8.328125 14.425781-26.222656 15.140625-8.320312-14.410156c-2.15625-3.738282-6.464844-5.667969-10.6875-4.789063-9.425782 1.957031-19.390626 1.957031-28.816407 0-4.222656-.875-8.53125 1.054687-10.6875 4.789063l-8.320312 14.410156-26.222657-15.140625 8.328126-14.425781c2.160156-3.738282 1.675781-8.441407-1.203126-11.660157-6.523437-7.292969-11.371093-15.675781-14.410156-24.917969-1.347656-4.101562-5.175781-6.875-9.492187-6.875h-16.640625v-30.277343h16.640625c4.316406 0 8.144531-2.773438 9.492187-6.875 3.039063-9.242188 7.886719-17.625 14.410156-24.917969 2.878907-3.21875 3.363282-7.917969 1.203126-11.660156l-8.328126-14.425782 26.222657-15.140624 8.320312 14.410156c2.15625 3.734375 6.464844 5.664062 10.6875 4.789062 9.429688-1.957031 19.390625-1.957031 28.816407 0 4.226562.875 8.53125-1.054687 10.6875-4.789062l8.320312-14.410156 26.222656 15.140624-8.328125 14.425782c-2.160156 3.738281-1.675781 8.441406 1.203125 11.660156 6.523438 7.292969 11.371094 15.675781 14.410156 24.917969 1.347657 4.101562 5.175782 6.875 9.492188 6.875h16.636719zm0 0"/><path d="m398.957031 65.703125c-25.421875 0-46.101562 20.683594-46.101562 46.101563 0 25.421874 20.679687 46.101562 46.101562 46.101562s46.101563-20.679688 46.101563-46.101562c0-25.417969-20.679688-46.101563-46.101563-46.101563zm0 72.21875c-14.398437 0-26.113281-11.714844-26.113281-26.117187 0-14.398438 11.714844-26.113282 26.113281-26.113282 14.398438 0 26.117188 11.714844 26.117188 26.113282 0 14.402343-11.71875 26.117187-26.117188 26.117187zm0 0"/></svg>