<svg id="Layer_1" data-name="Layer 1" xmlns="http://www.w3.org/2000/svg" width="100" height="100" viewBox="0 0 100 100"><defs><style>.cls-1{fill:#9d5025;}.cls-2{fill:#f58536;}</style></defs><title>Compute</title><path class="cls-1" d="M61.61,42.93l16.25,6,.25.09L84,48.74v2.48L78.36,53.3l-.27.12-.23.08-16.25,6v-6H30.79A7.56,7.56,0,0,1,16,51.22V48.74L30.79,49H61.61Z"/><path class="cls-2" d="M61.61,40.45l16.25,6,.25.09.25.09L84,48.74l-5.59,2.07-.27.12-.23.08-16.25,6V51H30.79a7.5,7.5,0,1,1,0-4.53H61.61Z"/></svg>