<?xml version="1.0" encoding="iso-8859-1"?>
<!-- Generator: Adobe Illustrator 18.0.0, SVG Export Plug-In . SVG Version: 6.00 Build 0)  -->
<!DOCTYPE svg PUBLIC "-//W3C//DTD SVG 1.1//EN" "http://www.w3.org/Graphics/SVG/1.1/DTD/svg11.dtd">
<svg xmlns="http://www.w3.org/2000/svg" xmlns:xlink="http://www.w3.org/1999/xlink" version="1.1" id="Capa_1" x="0px" y="0px" viewBox="0 0 60.008 60.008" style="enable-background:new 0 0 60.008 60.008;" xml:space="preserve" width="512px" height="512px">
<g>
	<path d="M31.507,30.662l-0.342,0.195h-1.325l-0.342-0.195c-6.166-3.523-13.826-3.523-19.992,0L9.003,30.95v0.58   c0,2.529,0,8.454,6.321,9.138c1.16,0.125,2.255,0.188,3.284,0.188c3.85,0,6.771-0.877,8.711-2.617   c1.493-1.341,2.361-3.151,2.605-5.382h1.158c0.244,2.23,1.111,4.041,2.605,5.382c1.939,1.74,4.861,2.617,8.711,2.617   c1.028,0,2.124-0.063,3.284-0.188c6.321-0.684,6.321-6.608,6.321-9.138v-0.58l-0.504-0.288   C45.333,27.139,37.673,27.139,31.507,30.662z M25.983,36.751c-2.018,1.81-5.531,2.457-10.444,1.929   c-3.594-0.389-4.455-2.788-4.53-6.562c5.287-2.797,11.689-2.8,16.979-0.005C27.879,34.095,27.206,35.653,25.983,36.751z    M45.467,38.68c-4.914,0.529-8.428-0.118-10.444-1.929c-1.223-1.098-1.896-2.656-2.004-4.638c5.288-2.796,11.69-2.793,16.979,0.005   C49.922,35.892,49.06,38.291,45.467,38.68z" fill="#FFFFFF"/>
	<path d="M17.71,31.15c-0.391-0.391-1.023-0.391-1.414,0l-3,3c-0.391,0.391-0.391,1.023,0,1.414   c0.195,0.195,0.451,0.293,0.707,0.293s0.512-0.098,0.707-0.293l3-3C18.101,32.174,18.101,31.541,17.71,31.15z" fill="#FFFFFF"/>
	<path d="M17.296,37.565c0.195,0.195,0.451,0.293,0.707,0.293s0.512-0.098,0.707-0.293l5-5c0.391-0.391,0.391-1.023,0-1.414   s-1.023-0.391-1.414,0l-5,5C16.905,36.541,16.905,37.174,17.296,37.565z" fill="#FFFFFF"/>
	<path d="M39.71,31.15c-0.391-0.391-1.023-0.391-1.414,0l-3,3c-0.391,0.391-0.391,1.023,0,1.414   c0.195,0.195,0.451,0.293,0.707,0.293s0.512-0.098,0.707-0.293l3-3C40.101,32.174,40.101,31.541,39.71,31.15z" fill="#FFFFFF"/>
	<path d="M39.296,37.565c0.195,0.195,0.451,0.293,0.707,0.293s0.512-0.098,0.707-0.293l5-5c0.391-0.391,0.391-1.023,0-1.414   s-1.023-0.391-1.414,0l-5,5C38.905,36.541,38.905,37.174,39.296,37.565z" fill="#FFFFFF"/>
	<path d="M59.798,30.072c-0.401-1.698-1.364-3.157-2.576-3.903c-0.811-0.499-1.675-0.661-2.508-0.461   c-0.187,0.044-0.368,0.113-0.544,0.196c-0.9-2.195-2.04-4.187-3.405-5.974l3.084-0.427c0.547-0.075,0.929-0.58,0.853-1.128   c-0.076-0.547-0.579-0.94-1.128-0.853l-4.323,0.599c-0.005-0.006-0.01-0.011-0.015-0.017L45.003,4.345   c-0.313-1.06-0.927-2.02-1.775-2.777c-1.909-1.702-4.927-2.054-7.506-0.879l-8.673,3.948c-0.986,0.448-2.118,0.592-3.178,0.402   l-8.147-1.451c-1.988-0.355-4.128,0.137-5.728,1.311c-1.37,1.006-2.234,2.415-2.434,3.963C7.533,9.084,7.518,9.31,7.514,9.529   L7.182,23.951l-5.368,0.744c-0.547,0.075-0.929,0.58-0.853,1.128c0.069,0.5,0.498,0.862,0.989,0.862   c0.046,0,0.092-0.003,0.139-0.01l4.474-0.62c-0.786,1.947-1.395,4.04-1.805,6.255c-0.015,0.083-0.025,0.167-0.04,0.25   c-0.254-0.07-0.512-0.118-0.776-0.118c-2.209,0-3.939,2.383-3.939,5.424s1.73,5.424,3.939,5.424c0.404,0,0.798-0.102,1.177-0.267   c0.7,2.672,1.863,5.179,3.458,7.379c3.194,4.404,9.466,9.605,21.239,9.605c0.187,0,0.375-0.001,0.564-0.004   c0.189,0.003,0.378,0.004,0.564,0.004c11.798,0,18.071-5.202,21.267-9.605c2.881-3.971,4.346-8.946,4.229-14.077   c0.035,0.001,0.071,0.014,0.105,0.014c0.227,0,0.451-0.025,0.671-0.078C59.366,35.749,60.499,33.03,59.798,30.072z M9.188,23.672   l0.151-6.564l35.964-4.984l0.834,2.711l-0.001-0.001l1.098,3.566L9.188,23.672z M9.546,9.12c0.129-1.004,0.709-1.93,1.634-2.609   c0.917-0.673,2.08-1.037,3.242-1.037c0.318,0,0.638,0.027,0.95,0.083l8.148,1.451c1.46,0.262,3.008,0.064,4.356-0.551l8.673-3.948   c1.844-0.84,4.041-0.614,5.346,0.551c0.57,0.509,0.981,1.149,1.192,1.862l1.62,5.265L9.386,15.083l0.127-5.514   C9.516,9.419,9.525,9.27,9.546,9.12z M4.677,40.992c-0.206,0.166-0.456,0.298-0.734,0.298c-0.917,0-1.939-1.406-1.939-3.424   s1.022-3.424,1.939-3.424c0.167,0,0.335,0.047,0.504,0.139c-0.049,0.531-0.081,1.061-0.096,1.589c-0.001,0.044,0,0.087-0.002,0.131   c-0.01,0.43-0.008,0.86,0.004,1.288c0.004,0.15,0.009,0.299,0.016,0.449c0.016,0.341,0.04,0.68,0.07,1.018   c0.014,0.157,0.023,0.314,0.04,0.47c0.047,0.433,0.105,0.864,0.175,1.292C4.662,40.876,4.667,40.934,4.677,40.992z M50.594,49.229   c-4.229,5.827-10.83,8.779-19.655,8.779c-0.185,0-0.371-0.001-0.557-0.004c-9.099,0.129-15.87-2.826-20.185-8.775   c-2.062-2.842-3.329-6.256-3.726-9.867c-0.008-0.077-0.009-0.156-0.017-0.233c-0.057-0.57-0.089-1.146-0.102-1.724   c-0.005-0.252-0.001-0.504,0.003-0.757c0.004-0.404,0.021-0.81,0.046-1.216c0.02-0.299,0.04-0.598,0.071-0.898   c0.064-0.62,0.137-1.24,0.252-1.86c0.462-2.494,1.183-4.825,2.145-6.938l15.638-2.168l23.97-3.322   c1.728,2.041,3.104,4.42,4.121,7.109l-0.001,0.002l0.18,0.507c0.001,0.003,0.002,0.005,0.003,0.008   c0.255,0.719,0.474,1.44,0.674,2.167c0.032,0.119,0.066,0.236,0.097,0.355c0.196,0.747,0.37,1.502,0.514,2.279   c0.122,0.659,0.204,1.32,0.268,1.979c0.012,0.126,0.029,0.249,0.039,0.376C54.794,40.197,53.466,45.267,50.594,49.229z    M56.754,34.316c-0.135,0.031-0.281,0.031-0.436-0.001c-0.004-0.036-0.011-0.07-0.015-0.106c-0.068-0.63-0.152-1.261-0.269-1.891   c0,0-0.001-0.006-0.001-0.009c-0.003-0.019-0.009-0.036-0.012-0.054c-0.141-0.755-0.305-1.492-0.489-2.214   c-0.01-0.039-0.023-0.077-0.033-0.116c-0.188-0.728-0.399-1.437-0.63-2.13c0.1-0.07,0.204-0.117,0.309-0.142   c0.377-0.09,0.75,0.069,0.994,0.219c0.758,0.467,1.401,1.486,1.68,2.661C58.317,32.497,57.647,34.104,56.754,34.316z" fill="#FFFFFF"/>
	<path d="M37.224,45.588c-4.555-0.689-10.716,2.317-14.026,6.828c-0.327,0.445-0.231,1.071,0.214,1.397   c0.179,0.131,0.386,0.194,0.591,0.194c0.308,0,0.611-0.142,0.807-0.408c2.862-3.898,8.307-6.598,12.119-6.034   c1.612,0.241,2.666,1.039,3.131,2.372c0.184,0.521,0.753,0.797,1.274,0.614s0.796-0.753,0.614-1.274   C41.238,47.248,39.56,45.938,37.224,45.588z" fill="#FFFFFF"/>
</g>
<g>
</g>
<g>
</g>
<g>
</g>
<g>
</g>
<g>
</g>
<g>
</g>
<g>
</g>
<g>
</g>
<g>
</g>
<g>
</g>
<g>
</g>
<g>
</g>
<g>
</g>
<g>
</g>
<g>
</g>
</svg>
