<?xml version="1.0" encoding="iso-8859-1"?>
<svg xmlns="http://www.w3.org/2000/svg" xmlns:xlink="http://www.w3.org/1999/xlink" version="1.1" viewBox="0 0 44 44" enable-background="new 0 0 44 44" width="512px" height="512px">
  <g>
    <g>
      <path fill-rule="evenodd" d="m12,29.5c-3.313,0-6,2.687-6,6s2.687,6 6,6 6-2.687 6-6-2.687-6-6-6zm0,10c-2.209,0-4-1.791-4-4s1.791-4 4-4 4,1.791 4,4-1.791,4-4,4zm20-10c-3.313,0-6,2.687-6,6s2.687,6 6,6 6-2.687 6-6-2.687-6-6-6zm0,10c-2.209,0-4-1.791-4-4s1.791-4 4-4 4,1.791 4,4-1.791,4-4,4z" fill="#FFFFFF"/>
    </g>
  </g>
  <g>
    <g>
      <path fill-rule="evenodd" d="m43,22.5h-42c-0.552,0-1,0.447-1,1s0.448,1 1,1h42c0.552,0 1-0.447 1-1s-0.448-1-1-1zm-32-2h22c1.104,0 2-0.896 2-2l-1-14c0-1.104-0.896-2-2-2 0,0-10,3-10.063,3-0.064,0-9.937-3-9.937-3-1.104,0-2,0.896-2,2l-1,14c1.77636e-15,1.104 0.896,2 2,2zm1-16c0,0 10.028,3 10,3s10-3 10-3l1,14h-22l1-14zm13.204,33.758c-2.343-2.344-4.142-2.344-6.485,0l.013,.013c-0.198,0.183-0.326,0.44-0.326,0.729 0,0.553 0.448,1 1,1 0.295,0 0.553-0.133 0.736-0.336 1.563-1.554 2.088-1.552 3.647,0.008 0.181,0.183 0.432,0.297 0.71,0.297 0.552,0 1-0.447 1-1 0-0.278-0.114-0.529-0.297-0.71l.002-.001z" fill="#FFFFFF"/>
    </g>
  </g>
</svg>
