<?xml version="1.0" encoding="iso-8859-1"?>
<!-- Generator: Adobe Illustrator 19.0.0, SVG Export Plug-In . SVG Version: 6.00 Build 0)  -->
<svg version="1.1" id="Layer_1" xmlns="http://www.w3.org/2000/svg" xmlns:xlink="http://www.w3.org/1999/xlink" x="0px" y="0px"
	 viewBox="0 0 512.001 512.001" style="enable-background:new 0 0 512.001 512.001;" xml:space="preserve">
<g>
	<g>
		<g>
			<path d="M466.395,88.411C395.95,69.109,325.091,39.054,261.478,1.496c-3.379-1.995-7.572-1.995-10.95,0
				C185.08,40.133,118.05,68.562,45.605,88.411c-4.68,1.281-7.924,5.535-7.924,10.388v110.046
				c0,113.323,52.279,188.335,96.137,231.306c47.216,46.265,102.216,71.85,122.185,71.85c19.967,0,74.967-25.585,122.183-71.85
				c43.857-42.97,96.133-117.982,96.133-231.306V98.798C474.319,93.946,471.075,89.692,466.395,88.411z M452.779,208.844
				c0,105.843-48.761,175.838-89.669,215.92c-46.431,45.495-96.074,65.695-107.107,65.695c-11.033,0-60.679-20.2-107.111-65.695
				c-40.907-40.083-89.67-110.077-89.67-215.92V106.974C128.5,87.304,193.018,59.853,256.005,23.25
				c61.414,35.632,129.151,64.448,196.774,83.72V208.844z"/>
			<path d="M160.538,105.769c-2.18-5.535-8.433-8.254-13.969-6.073c-19.24,7.581-38.988,14.559-58.695,20.741
				c-4.491,1.41-7.547,5.57-7.547,10.276v41.591c0,5.948,4.823,10.77,10.77,10.77s10.77-4.822,10.77-10.77v-33.72
				c17.679-5.72,35.339-12.047,52.598-18.848C160,117.557,162.719,111.304,160.538,105.769z"/>
			<path d="M180.997,107.812c1.445,0,2.912-0.291,4.319-0.905l0.198-0.086c5.449-2.388,7.903-8.731,5.515-14.178
				c-2.39-5.449-8.769-7.914-14.212-5.528l-0.174,0.075c-5.452,2.381-7.914,8.719-5.533,14.169
				C172.877,105.405,176.842,107.812,180.997,107.812z"/>
			<path d="M384.322,347.283c-4.977-3.253-11.651-1.854-14.908,3.125c-8.875,13.584-19.287,26.592-30.951,38.659
				c-9.592,9.922-19.986,19.17-30.893,27.485c-4.729,3.606-5.639,10.364-2.034,15.095c2.121,2.779,5.328,4.241,8.572,4.241
				c2.278,0,4.573-0.719,6.523-2.207c11.765-8.971,22.975-18.944,33.317-29.642c12.611-13.044,23.881-27.124,33.499-41.849
				C390.702,357.21,389.301,350.536,384.322,347.283z"/>
			<path d="M282.558,433.443l-0.618,0.364c-5.147,2.981-6.906,9.569-3.926,14.716c1.997,3.45,5.612,5.376,9.331,5.376
				c1.83,0,3.688-0.467,5.385-1.452l0.713-0.419c5.133-3.006,6.857-9.603,3.851-14.736
				C294.286,432.161,287.688,430.44,282.558,433.443z"/>
			<path d="M182.589,234.019c-6.613-6.614-15.408-10.254-24.762-10.254s-18.15,3.641-24.766,10.254
				c-13.653,13.656-13.653,35.876,0,49.531l63.596,63.594c6.614,6.612,15.409,10.253,24.764,10.253s18.15-3.641,24.765-10.255
				L378.947,214.38c13.652-13.659,13.652-35.876-0.002-49.527c-6.614-6.614-15.409-10.254-24.765-10.254
				c-9.355,0-18.15,3.641-24.765,10.254L221.42,272.848L182.589,234.019z M344.647,180.085c2.545-2.545,5.932-3.946,9.534-3.946
				c3.604,0,6.988,1.401,9.535,3.946c5.255,5.255,5.255,13.809-0.002,19.066l-132.759,132.76c-2.545,2.545-5.932,3.946-9.534,3.946
				s-6.989-1.401-9.535-3.946l-63.594-63.592c-5.257-5.257-5.257-13.811-0.002-19.066c2.546-2.545,5.933-3.948,9.536-3.948
				s6.988,1.401,9.533,3.946l46.445,46.446c2.021,2.019,4.759,3.154,7.616,3.154s5.595-1.134,7.614-3.154L344.647,180.085z"/>
		</g>
	</g>
</g>
<g>
</g>
<g>
</g>
<g>
</g>
<g>
</g>
<g>
</g>
<g>
</g>
<g>
</g>
<g>
</g>
<g>
</g>
<g>
</g>
<g>
</g>
<g>
</g>
<g>
</g>
<g>
</g>
<g>
</g>
</svg>
